solid CATIA STL
  facet normal -1.000000e+000  0.000000e+000  0.000000e+000
    outer loop
      vertex -2.000000e+001  3.330669e-016 -1.000000e+001
      vertex -2.000000e+001 -2.000000e+001 -2.000000e+001
      vertex -2.000000e+001 -1.000000e+001  1.776357e-015
    endloop
  endfacet
  facet normal -1.000000e+000  0.000000e+000  0.000000e+000
    outer loop
      vertex -2.000000e+001  2.000000e+001 -2.000000e+001
      vertex -2.000000e+001 -2.000000e+001 -2.000000e+001
      vertex -2.000000e+001  3.330669e-016 -1.000000e+001
    endloop
  endfacet
  facet normal -1.000000e+000  0.000000e+000  0.000000e+000
    outer loop
      vertex -2.000000e+001  2.000000e+001 -2.000000e+001
      vertex -2.000000e+001  3.330669e-016 -1.000000e+001
      vertex -2.000000e+001  1.000000e+001  8.881784e-016
    endloop
  endfacet
  facet normal -1.000000e+000  0.000000e+000  0.000000e+000
    outer loop
      vertex -2.000000e+001  2.000000e+001 -2.000000e+001
      vertex -2.000000e+001  1.000000e+001  8.881784e-016
      vertex -2.000000e+001  2.000000e+001  2.000000e+001
    endloop
  endfacet
  facet normal -9.999999e-001  0.000000e+000  0.000000e+000
    outer loop
      vertex -2.000000e+001  2.000000e+001  2.000000e+001
      vertex -2.000000e+001  1.000000e+001  8.881784e-016
      vertex -2.000000e+001  6.666667e+000  5.555555e+000
    endloop
  endfacet
  facet normal -9.999999e-001  0.000000e+000  0.000000e+000
    outer loop
      vertex -2.000000e+001  2.000000e+001  2.000000e+001
      vertex -2.000000e+001  6.666667e+000  5.555555e+000
      vertex -2.000000e+001  4.840925e+000  7.656545e+000
    endloop
  endfacet
  facet normal -9.999999e-001  0.000000e+000  0.000000e+000
    outer loop
      vertex -2.000000e+001  2.000000e+001  2.000000e+001
      vertex -2.000000e+001  4.840925e+000  7.656545e+000
      vertex -2.000000e+001  3.015183e+000  9.090867e+000
    endloop
  endfacet
  facet normal -1.000000e+000  0.000000e+000  0.000000e+000
    outer loop
      vertex -2.000000e+001  2.000000e+001  2.000000e+001
      vertex -2.000000e+001  3.015183e+000  9.090867e+000
      vertex -2.000000e+001  1.507591e+000  9.772717e+000
    endloop
  endfacet
  facet normal -1.000000e+000  0.000000e+000  0.000000e+000
    outer loop
      vertex -2.000000e+001  2.000000e+001  2.000000e+001
      vertex -2.000000e+001  1.507591e+000  9.772717e+000
      vertex -2.000000e+001  0.000000e+000  1.000000e+001
    endloop
  endfacet
  facet normal -1.000000e+000  0.000000e+000  0.000000e+000
    outer loop
      vertex -2.000000e+001  2.000000e+001  2.000000e+001
      vertex -2.000000e+001  0.000000e+000  1.000000e+001
      vertex -2.000000e+001 -2.000000e+001  2.000000e+001
    endloop
  endfacet
  facet normal -1.000000e+000  -0.000000e+000  0.000000e+000
    outer loop
      vertex -2.000000e+001 -2.000000e+001  2.000000e+001
      vertex -2.000000e+001  0.000000e+000  1.000000e+001
      vertex -2.000000e+001 -1.507591e+000  9.772717e+000
    endloop
  endfacet
  facet normal -1.000000e+000  -0.000000e+000  0.000000e+000
    outer loop
      vertex -2.000000e+001 -2.000000e+001  2.000000e+001
      vertex -2.000000e+001 -1.507591e+000  9.772717e+000
      vertex -2.000000e+001 -3.015183e+000  9.090867e+000
    endloop
  endfacet
  facet normal -9.999999e-001  -0.000000e+000  0.000000e+000
    outer loop
      vertex -2.000000e+001 -2.000000e+001  2.000000e+001
      vertex -2.000000e+001 -3.015183e+000  9.090867e+000
      vertex -2.000000e+001 -4.840925e+000  7.656545e+000
    endloop
  endfacet
  facet normal -9.999999e-001  -0.000000e+000  0.000000e+000
    outer loop
      vertex -2.000000e+001 -2.000000e+001  2.000000e+001
      vertex -2.000000e+001 -4.840925e+000  7.656545e+000
      vertex -2.000000e+001 -6.666667e+000  5.555555e+000
    endloop
  endfacet
  facet normal -1.000000e+000  -0.000000e+000  0.000000e+000
    outer loop
      vertex -2.000000e+001 -2.000000e+001  2.000000e+001
      vertex -2.000000e+001 -6.666667e+000  5.555555e+000
      vertex -2.000000e+001 -1.000000e+001  1.776357e-015
    endloop
  endfacet
  facet normal -1.000000e+000  -0.000000e+000  0.000000e+000
    outer loop
      vertex -2.000000e+001 -2.000000e+001  2.000000e+001
      vertex -2.000000e+001 -1.000000e+001  1.776357e-015
      vertex -2.000000e+001 -2.000000e+001 -2.000000e+001
    endloop
  endfacet
  facet normal  0.000000e+000 -7.071068e-001  7.071068e-001
    outer loop
      vertex -1.000000e+001 -5.945621e-017 -1.000000e+001
      vertex -1.000000e+001  1.000000e+001  8.881784e-016
      vertex -2.000000e+001  3.330669e-016 -1.000000e+001
    endloop
  endfacet
  facet normal  0.000000e+000 -7.071068e-001  7.071068e-001
    outer loop
      vertex -2.000000e+001  3.330669e-016 -1.000000e+001
      vertex -1.000000e+001  1.000000e+001  8.881784e-016
      vertex -2.000000e+001  1.000000e+001  8.881784e-016
    endloop
  endfacet
  facet normal  -0.000000e+000 -8.574929e-001 -5.144958e-001
    outer loop
      vertex -2.000000e+001  1.000000e+001  8.881784e-016
      vertex -1.000000e+001  1.000000e+001  8.881784e-016
      vertex -2.000000e+001  6.666667e+000  5.555555e+000
    endloop
  endfacet
  facet normal  0.000000e+000 -8.574929e-001 -5.144958e-001
    outer loop
      vertex -2.000000e+001  6.666667e+000  5.555555e+000
      vertex -1.000000e+001  1.000000e+001  8.881784e-016
      vertex -1.000000e+001  6.666667e+000  5.555555e+000
    endloop
  endfacet
  facet normal  -0.000000e+000 -7.548199e-001 -6.559320e-001
    outer loop
      vertex -2.000000e+001  6.666667e+000  5.555555e+000
      vertex -1.000000e+001  6.666667e+000  5.555555e+000
      vertex -2.000000e+001  4.840925e+000  7.656545e+000
    endloop
  endfacet
  facet normal  0.000000e+000 -7.548199e-001 -6.559320e-001
    outer loop
      vertex -2.000000e+001  4.840925e+000  7.656545e+000
      vertex -1.000000e+001  6.666667e+000  5.555555e+000
      vertex -1.000000e+001  4.840925e+000  7.656545e+000
    endloop
  endfacet
  facet normal  -0.000000e+000 -6.177712e-001 -7.863579e-001
    outer loop
      vertex -2.000000e+001  4.840925e+000  7.656545e+000
      vertex -1.000000e+001  4.840925e+000  7.656545e+000
      vertex -2.000000e+001  3.015183e+000  9.090867e+000
    endloop
  endfacet
  facet normal  0.000000e+000 -6.177712e-001 -7.863579e-001
    outer loop
      vertex -2.000000e+001  3.015183e+000  9.090867e+000
      vertex -1.000000e+001  4.840925e+000  7.656545e+000
      vertex -1.000000e+001  3.015183e+000  9.090867e+000
    endloop
  endfacet
  facet normal  -0.000000e+000 -4.120896e-001 -9.111434e-001
    outer loop
      vertex -2.000000e+001  3.015183e+000  9.090867e+000
      vertex -1.000000e+001  3.015183e+000  9.090867e+000
      vertex -2.000000e+001  1.507591e+000  9.772717e+000
    endloop
  endfacet
  facet normal  0.000000e+000 -4.120896e-001 -9.111434e-001
    outer loop
      vertex -2.000000e+001  1.507591e+000  9.772717e+000
      vertex -1.000000e+001  3.015183e+000  9.090867e+000
      vertex -1.000000e+001  1.507591e+000  9.772717e+000
    endloop
  endfacet
  facet normal  -0.000000e+000 -1.490747e-001 -9.888259e-001
    outer loop
      vertex -2.000000e+001  1.507591e+000  9.772717e+000
      vertex -1.000000e+001  1.507591e+000  9.772717e+000
      vertex -2.000000e+001  0.000000e+000  1.000000e+001
    endloop
  endfacet
  facet normal  0.000000e+000 -1.490747e-001 -9.888259e-001
    outer loop
      vertex -2.000000e+001  0.000000e+000  1.000000e+001
      vertex -1.000000e+001  1.507591e+000  9.772717e+000
      vertex -1.000000e+001  0.000000e+000  1.000000e+001
    endloop
  endfacet
  facet normal  0.000000e+000  1.490747e-001 -9.888259e-001
    outer loop
      vertex -2.000000e+001  0.000000e+000  1.000000e+001
      vertex -1.000000e+001  0.000000e+000  1.000000e+001
      vertex -2.000000e+001 -1.507591e+000  9.772717e+000
    endloop
  endfacet
  facet normal  0.000000e+000  1.490747e-001 -9.888259e-001
    outer loop
      vertex -2.000000e+001 -1.507591e+000  9.772717e+000
      vertex -1.000000e+001  0.000000e+000  1.000000e+001
      vertex -1.000000e+001 -1.507591e+000  9.772717e+000
    endloop
  endfacet
  facet normal  0.000000e+000  4.120896e-001 -9.111434e-001
    outer loop
      vertex -2.000000e+001 -1.507591e+000  9.772717e+000
      vertex -1.000000e+001 -1.507591e+000  9.772717e+000
      vertex -2.000000e+001 -3.015183e+000  9.090867e+000
    endloop
  endfacet
  facet normal  0.000000e+000  4.120896e-001 -9.111434e-001
    outer loop
      vertex -2.000000e+001 -3.015183e+000  9.090867e+000
      vertex -1.000000e+001 -1.507591e+000  9.772717e+000
      vertex -1.000000e+001 -3.015183e+000  9.090867e+000
    endloop
  endfacet
  facet normal  0.000000e+000  6.177712e-001 -7.863579e-001
    outer loop
      vertex -2.000000e+001 -3.015183e+000  9.090867e+000
      vertex -1.000000e+001 -3.015183e+000  9.090867e+000
      vertex -2.000000e+001 -4.840925e+000  7.656545e+000
    endloop
  endfacet
  facet normal  0.000000e+000  6.177712e-001 -7.863579e-001
    outer loop
      vertex -2.000000e+001 -4.840925e+000  7.656545e+000
      vertex -1.000000e+001 -3.015183e+000  9.090867e+000
      vertex -1.000000e+001 -4.840925e+000  7.656545e+000
    endloop
  endfacet
  facet normal  0.000000e+000  7.548199e-001 -6.559320e-001
    outer loop
      vertex -2.000000e+001 -4.840925e+000  7.656545e+000
      vertex -1.000000e+001 -4.840925e+000  7.656545e+000
      vertex -2.000000e+001 -6.666667e+000  5.555555e+000
    endloop
  endfacet
  facet normal  0.000000e+000  7.548199e-001 -6.559320e-001
    outer loop
      vertex -2.000000e+001 -6.666667e+000  5.555555e+000
      vertex -1.000000e+001 -4.840925e+000  7.656545e+000
      vertex -1.000000e+001 -6.666667e+000  5.555555e+000
    endloop
  endfacet
  facet normal  0.000000e+000  8.574929e-001 -5.144958e-001
    outer loop
      vertex -2.000000e+001 -6.666667e+000  5.555555e+000
      vertex -1.000000e+001 -6.666667e+000  5.555555e+000
      vertex -2.000000e+001 -1.000000e+001  1.776357e-015
    endloop
  endfacet
  facet normal -2.019515e-017  8.574929e-001 -5.144958e-001
    outer loop
      vertex -2.000000e+001 -1.000000e+001  1.776357e-015
      vertex -1.000000e+001 -6.666667e+000  5.555555e+000
      vertex -1.000000e+001 -1.000000e+001  1.383834e-015
    endloop
  endfacet
  facet normal  2.775558e-017  7.071068e-001  7.071068e-001
    outer loop
      vertex -1.000000e+001 -5.945621e-017 -1.000000e+001
      vertex -2.000000e+001  3.330669e-016 -1.000000e+001
      vertex -1.000000e+001 -1.000000e+001  1.383834e-015
    endloop
  endfacet
  facet normal  2.775558e-017  7.071068e-001  7.071068e-001
    outer loop
      vertex -1.000000e+001 -1.000000e+001  1.383834e-015
      vertex -2.000000e+001  3.330669e-016 -1.000000e+001
      vertex -2.000000e+001 -1.000000e+001  1.776357e-015
    endloop
  endfacet
  facet normal -1.000000e+000  0.000000e+000  0.000000e+000
    outer loop
      vertex -1.000000e+001  1.507591e+000  9.772717e+000
      vertex -1.000000e+001 -1.507591e+000  9.772717e+000
      vertex -1.000000e+001  0.000000e+000  1.000000e+001
    endloop
  endfacet
  facet normal -1.000000e+000  -0.000000e+000  0.000000e+000
    outer loop
      vertex -1.000000e+001 -1.507591e+000  9.772717e+000
      vertex -1.000000e+001  1.507591e+000  9.772717e+000
      vertex -1.000000e+001 -3.015183e+000  9.090867e+000
    endloop
  endfacet
  facet normal -1.000000e+000  0.000000e+000  0.000000e+000
    outer loop
      vertex -1.000000e+001 -3.015183e+000  9.090867e+000
      vertex -1.000000e+001  1.507591e+000  9.772717e+000
      vertex -1.000000e+001  3.015183e+000  9.090867e+000
    endloop
  endfacet
  facet normal -1.000000e+000  -0.000000e+000  0.000000e+000
    outer loop
      vertex -1.000000e+001 -3.015183e+000  9.090867e+000
      vertex -1.000000e+001  3.015183e+000  9.090867e+000
      vertex -1.000000e+001 -4.840925e+000  7.656545e+000
    endloop
  endfacet
  facet normal -1.000000e+000  0.000000e+000  0.000000e+000
    outer loop
      vertex -1.000000e+001 -4.840925e+000  7.656545e+000
      vertex -1.000000e+001  3.015183e+000  9.090867e+000
      vertex -1.000000e+001  4.840925e+000  7.656545e+000
    endloop
  endfacet
  facet normal -9.999999e-001  -0.000000e+000  0.000000e+000
    outer loop
      vertex -1.000000e+001 -4.840925e+000  7.656545e+000
      vertex -1.000000e+001  4.840925e+000  7.656545e+000
      vertex -1.000000e+001 -6.666667e+000  5.555555e+000
    endloop
  endfacet
  facet normal -1.000000e+000  0.000000e+000  0.000000e+000
    outer loop
      vertex -1.000000e+001 -6.666667e+000  5.555555e+000
      vertex -1.000000e+001  4.840925e+000  7.656545e+000
      vertex -1.000000e+001  6.666667e+000  5.555555e+000
    endloop
  endfacet
  facet normal -1.000000e+000  -0.000000e+000  0.000000e+000
    outer loop
      vertex -1.000000e+001 -6.666667e+000  5.555555e+000
      vertex -1.000000e+001  6.666667e+000  5.555555e+000
      vertex -1.000000e+001 -1.000000e+001  1.383834e-015
    endloop
  endfacet
  facet normal -1.000000e+000  0.000000e+000  0.000000e+000
    outer loop
      vertex -1.000000e+001 -1.000000e+001  1.383834e-015
      vertex -1.000000e+001  6.666667e+000  5.555555e+000
      vertex -1.000000e+001  1.000000e+001  8.881784e-016
    endloop
  endfacet
  facet normal -1.000000e+000  -0.000000e+000  0.000000e+000
    outer loop
      vertex -1.000000e+001 -1.000000e+001  1.383834e-015
      vertex -1.000000e+001  1.000000e+001  8.881784e-016
      vertex -1.000000e+001 -5.945621e-017 -1.000000e+001
    endloop
  endfacet
  facet normal  0.000000e+000  0.000000e+000  1.000000e+000
    outer loop
      vertex -2.000000e+001 -2.000000e+001  2.000000e+001
      vertex  2.000000e+001 -2.000000e+001  2.000000e+001
      vertex -2.000000e+001  2.000000e+001  2.000000e+001
    endloop
  endfacet
  facet normal  -0.000000e+000  0.000000e+000  1.000000e+000
    outer loop
      vertex -2.000000e+001  2.000000e+001  2.000000e+001
      vertex  2.000000e+001 -2.000000e+001  2.000000e+001
      vertex  2.000000e+001  2.000000e+001  2.000000e+001
    endloop
  endfacet
  facet normal  0.000000e+000  0.000000e+000 -1.000000e+000
    outer loop
      vertex -2.000000e+001 -2.000000e+001 -2.000000e+001
      vertex -2.000000e+001  2.000000e+001 -2.000000e+001
      vertex  2.000000e+001 -2.000000e+001 -2.000000e+001
    endloop
  endfacet
  facet normal  0.000000e+000  0.000000e+000 -1.000000e+000
    outer loop
      vertex  2.000000e+001 -2.000000e+001 -2.000000e+001
      vertex -2.000000e+001  2.000000e+001 -2.000000e+001
      vertex  2.000000e+001  2.000000e+001 -2.000000e+001
    endloop
  endfacet
  facet normal  0.000000e+000  1.000000e+000  0.000000e+000
    outer loop
      vertex -2.000000e+001  2.000000e+001 -2.000000e+001
      vertex -2.000000e+001  2.000000e+001  2.000000e+001
      vertex  2.000000e+001  2.000000e+001 -2.000000e+001
    endloop
  endfacet
  facet normal  0.000000e+000  1.000000e+000  -0.000000e+000
    outer loop
      vertex  2.000000e+001  2.000000e+001 -2.000000e+001
      vertex -2.000000e+001  2.000000e+001  2.000000e+001
      vertex  2.000000e+001  2.000000e+001  2.000000e+001
    endloop
  endfacet
  facet normal  1.000000e+000  0.000000e+000  0.000000e+000
    outer loop
      vertex  2.000000e+001 -2.000000e+001 -2.000000e+001
      vertex  2.000000e+001  2.000000e+001 -2.000000e+001
      vertex  2.000000e+001 -2.000000e+001  2.000000e+001
    endloop
  endfacet
  facet normal  1.000000e+000  -0.000000e+000  0.000000e+000
    outer loop
      vertex  2.000000e+001 -2.000000e+001  2.000000e+001
      vertex  2.000000e+001  2.000000e+001 -2.000000e+001
      vertex  2.000000e+001  2.000000e+001  2.000000e+001
    endloop
  endfacet
  facet normal  0.000000e+000 -1.000000e+000  -0.000000e+000
    outer loop
      vertex  2.000000e+001 -2.000000e+001 -2.000000e+001
      vertex  2.000000e+001 -2.000000e+001  2.000000e+001
      vertex -2.000000e+001 -2.000000e+001 -2.000000e+001
    endloop
  endfacet
  facet normal  0.000000e+000 -1.000000e+000  0.000000e+000
    outer loop
      vertex -2.000000e+001 -2.000000e+001 -2.000000e+001
      vertex  2.000000e+001 -2.000000e+001  2.000000e+001
      vertex -2.000000e+001 -2.000000e+001  2.000000e+001
    endloop
  endfacet
endsolid CATIA STL
