solid CATIA STL
  facet normal -7.071068e-001 -7.071068e-001  0.000000e+000
    outer loop
      vertex  0.000000e+000  2.000000e+001 -2.000000e+001
      vertex  2.000000e+001  0.000000e+000 -2.000000e+001
      vertex  1.028762e+001  9.712376e+000 -7.024776e+000
    endloop
  endfacet
  facet normal -7.071068e-001 -7.071068e-001  0.000000e+000
    outer loop
      vertex  0.000000e+000  2.000000e+001 -2.000000e+001
      vertex  1.028762e+001  9.712376e+000 -7.024776e+000
      vertex  8.509172e+000  1.149083e+001 -6.414081e+000
    endloop
  endfacet
  facet normal -7.071068e-001 -7.071067e-001  8.643754e-008
    outer loop
      vertex  0.000000e+000  2.000000e+001 -2.000000e+001
      vertex  8.509172e+000  1.149083e+001 -6.414081e+000
      vertex  7.184902e+000  1.281510e+001 -4.627648e+000
    endloop
  endfacet
  facet normal -7.071068e-001 -7.071068e-001  0.000000e+000
    outer loop
      vertex  0.000000e+000  2.000000e+001 -2.000000e+001
      vertex  7.184902e+000  1.281510e+001 -4.627648e+000
      vertex  0.000000e+000  2.000000e+001  2.000000e+001
    endloop
  endfacet
  facet normal -7.071068e-001 -7.071068e-001  0.000000e+000
    outer loop
      vertex  2.000000e+001  0.000000e+000  2.000000e+001
      vertex  0.000000e+000  2.000000e+001  2.000000e+001
      vertex  1.012077e+001  9.879229e+000  2.972440e+000
    endloop
  endfacet
  facet normal -7.071068e-001 -7.071068e-001  0.000000e+000
    outer loop
      vertex  2.000000e+001  0.000000e+000  2.000000e+001
      vertex  1.012077e+001  9.879229e+000  2.972440e+000
      vertex  1.189922e+001  8.100777e+000  2.361745e+000
    endloop
  endfacet
  facet normal -7.071067e-001 -7.071068e-001 -7.220266e-008
    outer loop
      vertex  2.000000e+001  0.000000e+000  2.000000e+001
      vertex  1.189922e+001  8.100777e+000  2.361745e+000
      vertex  1.322349e+001  6.776506e+000  5.753125e-001
    endloop
  endfacet
  facet normal -7.071069e-001 -7.071067e-001  7.866202e-008
    outer loop
      vertex  2.000000e+001  0.000000e+000  2.000000e+001
      vertex  1.322349e+001  6.776506e+000  5.753125e-001
      vertex  1.373875e+001  6.261252e+000 -1.908185e+000
    endloop
  endfacet
  facet normal -7.071068e-001 -7.071068e-001  0.000000e+000
    outer loop
      vertex  2.000000e+001  0.000000e+000  2.000000e+001
      vertex  1.373875e+001  6.261252e+000 -1.908185e+000
      vertex  1.330692e+001  6.693079e+000 -4.423295e+000
    endloop
  endfacet
  facet normal -7.071068e-001 -7.071068e-001  -0.000000e+000
    outer loop
      vertex  2.000000e+001  0.000000e+000 -2.000000e+001
      vertex  2.000000e+001  0.000000e+000  2.000000e+001
      vertex  1.330692e+001  6.693079e+000 -4.423295e+000
    endloop
  endfacet
  facet normal -7.071068e-001 -7.071068e-001  0.000000e+000
    outer loop
      vertex  2.000000e+001  0.000000e+000 -2.000000e+001
      vertex  1.330692e+001  6.693079e+000 -4.423295e+000
      vertex  1.204372e+001  7.956278e+000 -6.296097e+000
    endloop
  endfacet
  facet normal -7.071068e-001 -7.071068e-001  0.000000e+000
    outer loop
      vertex  2.000000e+001  0.000000e+000 -2.000000e+001
      vertex  1.204372e+001  7.956278e+000 -6.296097e+000
      vertex  1.028762e+001  9.712376e+000 -7.024776e+000
    endloop
  endfacet
  facet normal -7.071075e-001 -7.071061e-001 -4.363110e-007
    outer loop
      vertex  0.000000e+000  2.000000e+001  2.000000e+001
      vertex  7.184902e+000  1.281510e+001 -4.627648e+000
      vertex  6.669648e+000  1.333035e+001 -2.144150e+000
    endloop
  endfacet
  facet normal -7.071068e-001 -7.071068e-001  0.000000e+000
    outer loop
      vertex  0.000000e+000  2.000000e+001  2.000000e+001
      vertex  6.669648e+000  1.333035e+001 -2.144150e+000
      vertex  7.101475e+000  1.289853e+001  3.709601e-001
    endloop
  endfacet
  facet normal -7.071068e-001 -7.071068e-001  0.000000e+000
    outer loop
      vertex  0.000000e+000  2.000000e+001  2.000000e+001
      vertex  7.101475e+000  1.289853e+001  3.709601e-001
      vertex  8.364674e+000  1.163533e+001  2.243762e+000
    endloop
  endfacet
  facet normal -7.071068e-001 -7.071068e-001  0.000000e+000
    outer loop
      vertex  0.000000e+000  2.000000e+001  2.000000e+001
      vertex  8.364674e+000  1.163533e+001  2.243762e+000
      vertex  1.012077e+001  9.879229e+000  2.972440e+000
    endloop
  endfacet
  facet normal  4.880625e-001 -4.880626e-001  7.235951e-001
    outer loop
      vertex  8.509172e+000  1.149083e+001 -6.414081e+000
      vertex  1.425597e+001  1.988617e+001 -4.627648e+000
      vertex  7.184902e+000  1.281510e+001 -4.627648e+000
    endloop
  endfacet
  facet normal  6.785040e-001 -6.785041e-001  2.815395e-001
    outer loop
      vertex  7.184902e+000  1.281510e+001 -4.627648e+000
      vertex  1.425597e+001  1.988617e+001 -4.627648e+000
      vertex  1.374072e+001  2.040142e+001 -2.144150e+000
    endloop
  endfacet
  facet normal  6.785040e-001 -6.785041e-001  2.815396e-001
    outer loop
      vertex  7.184902e+000  1.281510e+001 -4.627648e+000
      vertex  1.374072e+001  2.040142e+001 -2.144150e+000
      vertex  6.669648e+000  1.333035e+001 -2.144150e+000
    endloop
  endfacet
  facet normal  6.871410e-001 -6.871411e-001 -2.359542e-001
    outer loop
      vertex  6.669648e+000  1.333035e+001 -2.144150e+000
      vertex  1.374072e+001  2.040142e+001 -2.144150e+000
      vertex  1.417254e+001  1.996959e+001  3.709601e-001
    endloop
  endfacet
  facet normal  6.871410e-001 -6.871410e-001 -2.359544e-001
    outer loop
      vertex  6.669648e+000  1.333035e+001 -2.144150e+000
      vertex  1.417254e+001  1.996959e+001  3.709601e-001
      vertex  7.101475e+000  1.289853e+001  3.709601e-001
    endloop
  endfacet
  facet normal  4.880626e-001 -4.880626e-001  7.235951e-001
    outer loop
      vertex  1.425597e+001  1.988617e+001 -4.627648e+000
      vertex  8.509172e+000  1.149083e+001 -6.414081e+000
      vertex  1.558024e+001  1.856190e+001 -6.414081e+000
    endloop
  endfacet
  facet normal  1.668449e-001 -1.668449e-001  9.717641e-001
    outer loop
      vertex  1.558024e+001  1.856190e+001 -6.414081e+000
      vertex  8.509172e+000  1.149083e+001 -6.414081e+000
      vertex  1.028762e+001  9.712376e+000 -7.024776e+000
    endloop
  endfacet
  facet normal  1.668449e-001 -1.668449e-001  9.717641e-001
    outer loop
      vertex  1.558024e+001  1.856190e+001 -6.414081e+000
      vertex  1.028762e+001  9.712376e+000 -7.024776e+000
      vertex  1.735869e+001  1.678344e+001 -7.024776e+000
    endloop
  endfacet
  facet normal -1.990786e-001  1.990786e-001  9.595496e-001
    outer loop
      vertex  1.735869e+001  1.678344e+001 -7.024776e+000
      vertex  1.028762e+001  9.712376e+000 -7.024776e+000
      vertex  1.204372e+001  7.956278e+000 -6.296097e+000
    endloop
  endfacet
  facet normal -1.990786e-001  1.990786e-001  9.595496e-001
    outer loop
      vertex  1.735869e+001  1.678344e+001 -7.024776e+000
      vertex  1.204372e+001  7.956278e+000 -6.296097e+000
      vertex  1.911479e+001  1.502735e+001 -6.296097e+000
    endloop
  endfacet
  facet normal -5.116590e-001  5.116590e-001  6.902248e-001
    outer loop
      vertex  1.911479e+001  1.502735e+001 -6.296097e+000
      vertex  1.204372e+001  7.956278e+000 -6.296097e+000
      vertex  1.330692e+001  6.693079e+000 -4.423295e+000
    endloop
  endfacet
  facet normal -5.116590e-001  5.116590e-001  6.902248e-001
    outer loop
      vertex  1.911479e+001  1.502735e+001 -6.296097e+000
      vertex  1.330692e+001  6.693079e+000 -4.423295e+000
      vertex  2.037799e+001  1.376415e+001 -4.423295e+000
    endloop
  endfacet
  facet normal -4.880625e-001  4.880625e-001 -7.235951e-001
    outer loop
      vertex  1.189922e+001  8.100777e+000  2.361745e+000
      vertex  2.029456e+001  1.384757e+001  5.753125e-001
      vertex  1.322349e+001  6.776506e+000  5.753125e-001
    endloop
  endfacet
  facet normal -6.785041e-001  6.785040e-001 -2.815395e-001
    outer loop
      vertex  1.322349e+001  6.776506e+000  5.753125e-001
      vertex  2.029456e+001  1.384757e+001  5.753125e-001
      vertex  2.080981e+001  1.333232e+001 -1.908185e+000
    endloop
  endfacet
  facet normal -6.785040e-001  6.785040e-001 -2.815396e-001
    outer loop
      vertex  1.322349e+001  6.776506e+000  5.753125e-001
      vertex  2.080981e+001  1.333232e+001 -1.908185e+000
      vertex  1.373875e+001  6.261252e+000 -1.908185e+000
    endloop
  endfacet
  facet normal -6.871412e-001  6.871410e-001  2.359542e-001
    outer loop
      vertex  1.373875e+001  6.261252e+000 -1.908185e+000
      vertex  2.080981e+001  1.333232e+001 -1.908185e+000
      vertex  2.037799e+001  1.376415e+001 -4.423295e+000
    endloop
  endfacet
  facet normal -6.871410e-001  6.871410e-001  2.359544e-001
    outer loop
      vertex  1.373875e+001  6.261252e+000 -1.908185e+000
      vertex  2.037799e+001  1.376415e+001 -4.423295e+000
      vertex  1.330692e+001  6.693079e+000 -4.423295e+000
    endloop
  endfacet
  facet normal -4.880626e-001  4.880626e-001 -7.235951e-001
    outer loop
      vertex  2.029456e+001  1.384757e+001  5.753125e-001
      vertex  1.189922e+001  8.100777e+000  2.361745e+000
      vertex  1.897029e+001  1.517184e+001  2.361745e+000
    endloop
  endfacet
  facet normal -1.668450e-001  1.668450e-001 -9.717641e-001
    outer loop
      vertex  1.897029e+001  1.517184e+001  2.361745e+000
      vertex  1.189922e+001  8.100777e+000  2.361745e+000
      vertex  1.012077e+001  9.879229e+000  2.972440e+000
    endloop
  endfacet
  facet normal -1.668450e-001  1.668450e-001 -9.717641e-001
    outer loop
      vertex  1.897029e+001  1.517184e+001  2.361745e+000
      vertex  1.012077e+001  9.879229e+000  2.972440e+000
      vertex  1.719184e+001  1.695030e+001  2.972440e+000
    endloop
  endfacet
  facet normal  1.990785e-001 -1.990785e-001 -9.595496e-001
    outer loop
      vertex  1.719184e+001  1.695030e+001  2.972440e+000
      vertex  1.012077e+001  9.879229e+000  2.972440e+000
      vertex  8.364674e+000  1.163533e+001  2.243762e+000
    endloop
  endfacet
  facet normal  1.990785e-001 -1.990785e-001 -9.595496e-001
    outer loop
      vertex  1.719184e+001  1.695030e+001  2.972440e+000
      vertex  8.364674e+000  1.163533e+001  2.243762e+000
      vertex  1.543574e+001  1.870639e+001  2.243762e+000
    endloop
  endfacet
  facet normal  5.116590e-001 -5.116590e-001 -6.902246e-001
    outer loop
      vertex  1.543574e+001  1.870639e+001  2.243762e+000
      vertex  8.364674e+000  1.163533e+001  2.243762e+000
      vertex  7.101475e+000  1.289853e+001  3.709601e-001
    endloop
  endfacet
  facet normal  5.116590e-001 -5.116590e-001 -6.902246e-001
    outer loop
      vertex  1.543574e+001  1.870639e+001  2.243762e+000
      vertex  7.101475e+000  1.289853e+001  3.709601e-001
      vertex  1.417254e+001  1.996959e+001  3.709601e-001
    endloop
  endfacet
  facet normal -7.071068e-001 -7.071068e-001  0.000000e+000
    outer loop
      vertex  1.735869e+001  1.678344e+001 -7.024776e+000
      vertex  1.911479e+001  1.502735e+001 -6.296097e+000
      vertex  1.558024e+001  1.856190e+001 -6.414081e+000
    endloop
  endfacet
  facet normal -7.071068e-001 -7.071068e-001  0.000000e+000
    outer loop
      vertex  1.719184e+001  1.695030e+001  2.972440e+000
      vertex  1.543574e+001  1.870639e+001  2.243762e+000
      vertex  1.897029e+001  1.517184e+001  2.361745e+000
    endloop
  endfacet
  facet normal -7.071068e-001 -7.071068e-001  0.000000e+000
    outer loop
      vertex  1.897029e+001  1.517184e+001  2.361745e+000
      vertex  1.543574e+001  1.870639e+001  2.243762e+000
      vertex  1.417254e+001  1.996959e+001  3.709601e-001
    endloop
  endfacet
  facet normal -7.071068e-001 -7.071067e-001  2.886860e-007
    outer loop
      vertex  1.897029e+001  1.517184e+001  2.361745e+000
      vertex  1.417254e+001  1.996959e+001  3.709601e-001
      vertex  2.029456e+001  1.384757e+001  5.753125e-001
    endloop
  endfacet
  facet normal -7.071069e-001 -7.071068e-001  2.886860e-007
    outer loop
      vertex  2.029456e+001  1.384757e+001  5.753125e-001
      vertex  1.417254e+001  1.996959e+001  3.709601e-001
      vertex  1.374072e+001  2.040142e+001 -2.144150e+000
    endloop
  endfacet
  facet normal -7.071068e-001 -7.071068e-001  0.000000e+000
    outer loop
      vertex  2.029456e+001  1.384757e+001  5.753125e-001
      vertex  1.374072e+001  2.040142e+001 -2.144150e+000
      vertex  2.080981e+001  1.333232e+001 -1.908185e+000
    endloop
  endfacet
  facet normal -7.071068e-001 -7.071068e-001  0.000000e+000
    outer loop
      vertex  2.080981e+001  1.333232e+001 -1.908185e+000
      vertex  1.374072e+001  2.040142e+001 -2.144150e+000
      vertex  1.425597e+001  1.988617e+001 -4.627648e+000
    endloop
  endfacet
  facet normal -7.071067e-001 -7.071069e-001 -2.886859e-007
    outer loop
      vertex  2.080981e+001  1.333232e+001 -1.908185e+000
      vertex  1.425597e+001  1.988617e+001 -4.627648e+000
      vertex  2.037799e+001  1.376415e+001 -4.423295e+000
    endloop
  endfacet
  facet normal -7.071067e-001 -7.071068e-001 -2.886860e-007
    outer loop
      vertex  2.037799e+001  1.376415e+001 -4.423295e+000
      vertex  1.425597e+001  1.988617e+001 -4.627648e+000
      vertex  1.558024e+001  1.856190e+001 -6.414081e+000
    endloop
  endfacet
  facet normal -7.071068e-001 -7.071068e-001  0.000000e+000
    outer loop
      vertex  2.037799e+001  1.376415e+001 -4.423295e+000
      vertex  1.558024e+001  1.856190e+001 -6.414081e+000
      vertex  1.911479e+001  1.502735e+001 -6.296097e+000
    endloop
  endfacet
  facet normal  0.000000e+000  -0.000000e+000  1.000000e+000
    outer loop
      vertex  1.422650e+001  2.000000e+001  2.000000e+001
      vertex  2.000000e+001  0.000000e+000  2.000000e+001
      vertex  2.577350e+001  2.000000e+001  2.000000e+001
    endloop
  endfacet
  facet normal  0.000000e+000  0.000000e+000  1.000000e+000
    outer loop
      vertex  2.577350e+001  4.000000e+001  2.000000e+001
      vertex  2.000000e+001  5.000000e+001  2.000000e+001
      vertex  1.422650e+001  4.000000e+001  2.000000e+001
    endloop
  endfacet
  facet normal  0.000000e+000  0.000000e+000  1.000000e+000
    outer loop
      vertex  0.000000e+000  2.000000e+001  2.000000e+001
      vertex  2.000000e+001  0.000000e+000  2.000000e+001
      vertex  1.422650e+001  2.000000e+001  2.000000e+001
    endloop
  endfacet
  facet normal  0.000000e+000  0.000000e+000  1.000000e+000
    outer loop
      vertex  0.000000e+000  2.000000e+001  2.000000e+001
      vertex  1.422650e+001  2.000000e+001  2.000000e+001
      vertex  8.452994e+000  3.000000e+001  2.000000e+001
    endloop
  endfacet
  facet normal  0.000000e+000  -0.000000e+000  1.000000e+000
    outer loop
      vertex  0.000000e+000  2.000000e+001  2.000000e+001
      vertex  8.452994e+000  3.000000e+001  2.000000e+001
      vertex  1.422650e+001  4.000000e+001  2.000000e+001
    endloop
  endfacet
  facet normal  0.000000e+000  -0.000000e+000  1.000000e+000
    outer loop
      vertex  0.000000e+000  2.000000e+001  2.000000e+001
      vertex  1.422650e+001  4.000000e+001  2.000000e+001
      vertex  2.000000e+001  5.000000e+001  2.000000e+001
    endloop
  endfacet
  facet normal  0.000000e+000  0.000000e+000  1.000000e+000
    outer loop
      vertex  0.000000e+000  2.000000e+001  2.000000e+001
      vertex  2.000000e+001  5.000000e+001  2.000000e+001
      vertex  1.617317e+001  5.076120e+001  2.000000e+001
    endloop
  endfacet
  facet normal  0.000000e+000  0.000000e+000  1.000000e+000
    outer loop
      vertex  0.000000e+000  2.000000e+001  2.000000e+001
      vertex  1.617317e+001  5.076120e+001  2.000000e+001
      vertex  1.292893e+001  5.292893e+001  2.000000e+001
    endloop
  endfacet
  facet normal  0.000000e+000  0.000000e+000  1.000000e+000
    outer loop
      vertex  0.000000e+000  2.000000e+001  2.000000e+001
      vertex  1.292893e+001  5.292893e+001  2.000000e+001
      vertex  1.076120e+001  5.617316e+001  2.000000e+001
    endloop
  endfacet
  facet normal  0.000000e+000  0.000000e+000  1.000000e+000
    outer loop
      vertex  0.000000e+000  2.000000e+001  2.000000e+001
      vertex  1.076120e+001  5.617316e+001  2.000000e+001
      vertex  1.000000e+001  6.000000e+001  2.000000e+001
    endloop
  endfacet
  facet normal  0.000000e+000  -0.000000e+000  9.999999e-001
    outer loop
      vertex  0.000000e+000  2.000000e+001  2.000000e+001
      vertex  1.000000e+001  6.000000e+001  2.000000e+001
      vertex  1.076120e+001  6.382684e+001  2.000000e+001
    endloop
  endfacet
  facet normal  -0.000000e+000  0.000000e+000  1.000000e+000
    outer loop
      vertex  4.000000e+001  8.000000e+001  2.000000e+001
      vertex  1.000000e+001  8.000000e+001  2.000000e+001
      vertex  0.000000e+000  7.000000e+001  2.000000e+001
    endloop
  endfacet
  facet normal  0.000000e+000  0.000000e+000  1.000000e+000
    outer loop
      vertex  4.000000e+001  8.000000e+001  2.000000e+001
      vertex  0.000000e+000  7.000000e+001  2.000000e+001
      vertex  2.000000e+001  7.000000e+001  2.000000e+001
    endloop
  endfacet
  facet normal  -0.000000e+000  0.000000e+000  9.999999e-001
    outer loop
      vertex  4.000000e+001  8.000000e+001  2.000000e+001
      vertex  2.000000e+001  7.000000e+001  2.000000e+001
      vertex  2.382683e+001  6.923879e+001  2.000000e+001
    endloop
  endfacet
  facet normal  -0.000000e+000  0.000000e+000  1.000000e+000
    outer loop
      vertex  4.000000e+001  8.000000e+001  2.000000e+001
      vertex  2.382683e+001  6.923879e+001  2.000000e+001
      vertex  4.000000e+001  6.000000e+001  2.000000e+001
    endloop
  endfacet
  facet normal  0.000000e+000  0.000000e+000  1.000000e+000
    outer loop
      vertex  7.000000e+001  2.000000e+001  2.000000e+001
      vertex  4.000000e+001  6.000000e+001  2.000000e+001
      vertex  3.000000e+001  6.000000e+001  2.000000e+001
    endloop
  endfacet
  facet normal  0.000000e+000  0.000000e+000  1.000000e+000
    outer loop
      vertex  7.000000e+001  2.000000e+001  2.000000e+001
      vertex  3.000000e+001  6.000000e+001  2.000000e+001
      vertex  2.923880e+001  5.617316e+001  2.000000e+001
    endloop
  endfacet
  facet normal  0.000000e+000  0.000000e+000  1.000000e+000
    outer loop
      vertex  7.000000e+001  2.000000e+001  2.000000e+001
      vertex  2.923880e+001  5.617316e+001  2.000000e+001
      vertex  2.707107e+001  5.292893e+001  2.000000e+001
    endloop
  endfacet
  facet normal  0.000000e+000  0.000000e+000  1.000000e+000
    outer loop
      vertex  7.000000e+001  2.000000e+001  2.000000e+001
      vertex  2.707107e+001  5.292893e+001  2.000000e+001
      vertex  2.382683e+001  5.076120e+001  2.000000e+001
    endloop
  endfacet
  facet normal  0.000000e+000  0.000000e+000  1.000000e+000
    outer loop
      vertex  7.000000e+001  2.000000e+001  2.000000e+001
      vertex  2.382683e+001  5.076120e+001  2.000000e+001
      vertex  2.000000e+001  5.000000e+001  2.000000e+001
    endloop
  endfacet
  facet normal  0.000000e+000  0.000000e+000  1.000000e+000
    outer loop
      vertex  7.000000e+001  2.000000e+001  2.000000e+001
      vertex  2.000000e+001  5.000000e+001  2.000000e+001
      vertex  2.577350e+001  4.000000e+001  2.000000e+001
    endloop
  endfacet
  facet normal  0.000000e+000  0.000000e+000  1.000000e+000
    outer loop
      vertex  7.000000e+001  2.000000e+001  2.000000e+001
      vertex  2.577350e+001  4.000000e+001  2.000000e+001
      vertex  3.154700e+001  3.000000e+001  2.000000e+001
    endloop
  endfacet
  facet normal  0.000000e+000  0.000000e+000  1.000000e+000
    outer loop
      vertex  7.000000e+001  2.000000e+001  2.000000e+001
      vertex  3.154700e+001  3.000000e+001  2.000000e+001
      vertex  2.577350e+001  2.000000e+001  2.000000e+001
    endloop
  endfacet
  facet normal  -0.000000e+000  0.000000e+000  1.000000e+000
    outer loop
      vertex  7.000000e+001  2.000000e+001  2.000000e+001
      vertex  2.577350e+001  2.000000e+001  2.000000e+001
      vertex  2.000000e+001  0.000000e+000  2.000000e+001
    endloop
  endfacet
  facet normal  0.000000e+000  0.000000e+000  1.000000e+000
    outer loop
      vertex  7.000000e+001  2.000000e+001  2.000000e+001
      vertex  2.000000e+001  0.000000e+000  2.000000e+001
      vertex  5.834016e+001  1.389104e+001  2.000000e+001
    endloop
  endfacet
  facet normal  0.000000e+000  0.000000e+000  1.000000e+000
    outer loop
      vertex  7.000000e+001  2.000000e+001  2.000000e+001
      vertex  5.834016e+001  1.389104e+001  2.000000e+001
      vertex  6.058665e+001  1.449299e+001  2.000000e+001
    endloop
  endfacet
  facet normal  0.000000e+000  0.000000e+000  1.000000e+000
    outer loop
      vertex  7.000000e+001  2.000000e+001  2.000000e+001
      vertex  6.058665e+001  1.449299e+001  2.000000e+001
      vertex  8.058665e+001  1.449299e+001  2.000000e+001
    endloop
  endfacet
  facet normal  0.000000e+000  -0.000000e+000  1.000000e+000
    outer loop
      vertex  7.000000e+001  2.000000e+001  2.000000e+001
      vertex  8.058665e+001  1.449299e+001  2.000000e+001
      vertex  1.000000e+002  2.000000e+001  2.000000e+001
    endloop
  endfacet
  facet normal  0.000000e+000  0.000000e+000  1.000000e+000
    outer loop
      vertex  0.000000e+000  7.000000e+001  2.000000e+001
      vertex  0.000000e+000  2.000000e+001  2.000000e+001
      vertex  1.076120e+001  6.382684e+001  2.000000e+001
    endloop
  endfacet
  facet normal  0.000000e+000  -0.000000e+000  1.000000e+000
    outer loop
      vertex  0.000000e+000  7.000000e+001  2.000000e+001
      vertex  1.076120e+001  6.382684e+001  2.000000e+001
      vertex  1.292893e+001  6.707107e+001  2.000000e+001
    endloop
  endfacet
  facet normal  0.000000e+000  -0.000000e+000  1.000000e+000
    outer loop
      vertex  0.000000e+000  7.000000e+001  2.000000e+001
      vertex  1.292893e+001  6.707107e+001  2.000000e+001
      vertex  1.617317e+001  6.923879e+001  2.000000e+001
    endloop
  endfacet
  facet normal  0.000000e+000  -0.000000e+000  1.000000e+000
    outer loop
      vertex  0.000000e+000  7.000000e+001  2.000000e+001
      vertex  1.617317e+001  6.923879e+001  2.000000e+001
      vertex  2.000000e+001  7.000000e+001  2.000000e+001
    endloop
  endfacet
  facet normal  0.000000e+000  0.000000e+000  1.000000e+000
    outer loop
      vertex  4.000000e+001  6.000000e+001  2.000000e+001
      vertex  2.382683e+001  6.923879e+001  2.000000e+001
      vertex  2.707107e+001  6.707107e+001  2.000000e+001
    endloop
  endfacet
  facet normal  0.000000e+000  0.000000e+000  9.999999e-001
    outer loop
      vertex  4.000000e+001  6.000000e+001  2.000000e+001
      vertex  2.707107e+001  6.707107e+001  2.000000e+001
      vertex  2.923880e+001  6.382684e+001  2.000000e+001
    endloop
  endfacet
  facet normal  0.000000e+000  0.000000e+000  1.000000e+000
    outer loop
      vertex  4.000000e+001  6.000000e+001  2.000000e+001
      vertex  2.923880e+001  6.382684e+001  2.000000e+001
      vertex  3.000000e+001  6.000000e+001  2.000000e+001
    endloop
  endfacet
  facet normal  0.000000e+000  0.000000e+000  9.999999e-001
    outer loop
      vertex  2.000000e+001  0.000000e+000  2.000000e+001
      vertex  6.058665e+001  5.507014e+000  2.000000e+001
      vertex  5.834016e+001  6.108960e+000  2.000000e+001
    endloop
  endfacet
  facet normal  0.000000e+000  0.000000e+000  1.000000e+000
    outer loop
      vertex  2.000000e+001  0.000000e+000  2.000000e+001
      vertex  5.834016e+001  6.108960e+000  2.000000e+001
      vertex  5.669561e+001  7.753507e+000  2.000000e+001
    endloop
  endfacet
  facet normal  0.000000e+000  0.000000e+000  1.000000e+000
    outer loop
      vertex  2.000000e+001  0.000000e+000  2.000000e+001
      vertex  5.669561e+001  7.753507e+000  2.000000e+001
      vertex  5.609367e+001  1.000000e+001  2.000000e+001
    endloop
  endfacet
  facet normal  0.000000e+000  -0.000000e+000  1.000000e+000
    outer loop
      vertex  2.000000e+001  0.000000e+000  2.000000e+001
      vertex  5.609367e+001  1.000000e+001  2.000000e+001
      vertex  5.669561e+001  1.224649e+001  2.000000e+001
    endloop
  endfacet
  facet normal  0.000000e+000  -0.000000e+000  9.999999e-001
    outer loop
      vertex  2.000000e+001  0.000000e+000  2.000000e+001
      vertex  5.669561e+001  1.224649e+001  2.000000e+001
      vertex  5.834016e+001  1.389104e+001  2.000000e+001
    endloop
  endfacet
  facet normal  0.000000e+000  0.000000e+000  1.000000e+000
    outer loop
      vertex  1.000000e+002  1.000000e+001  2.000000e+001
      vertex  1.000000e+002  2.000000e+001  2.000000e+001
      vertex  8.058665e+001  1.449299e+001  2.000000e+001
    endloop
  endfacet
  facet normal  0.000000e+000  0.000000e+000  1.000000e+000
    outer loop
      vertex  1.000000e+002  1.000000e+001  2.000000e+001
      vertex  8.058665e+001  1.449299e+001  2.000000e+001
      vertex  8.283315e+001  1.389104e+001  2.000000e+001
    endloop
  endfacet
  facet normal  0.000000e+000  0.000000e+000  1.000000e+000
    outer loop
      vertex  1.000000e+002  1.000000e+001  2.000000e+001
      vertex  8.283315e+001  1.389104e+001  2.000000e+001
      vertex  8.447769e+001  1.224649e+001  2.000000e+001
    endloop
  endfacet
  facet normal  0.000000e+000  0.000000e+000  1.000000e+000
    outer loop
      vertex  1.000000e+002  1.000000e+001  2.000000e+001
      vertex  8.447769e+001  1.224649e+001  2.000000e+001
      vertex  8.507964e+001  1.000000e+001  2.000000e+001
    endloop
  endfacet
  facet normal  -0.000000e+000  0.000000e+000  1.000000e+000
    outer loop
      vertex  1.000000e+002  1.000000e+001  2.000000e+001
      vertex  8.507964e+001  1.000000e+001  2.000000e+001
      vertex  8.447769e+001  7.753507e+000  2.000000e+001
    endloop
  endfacet
  facet normal  -0.000000e+000  0.000000e+000  9.999999e-001
    outer loop
      vertex  1.000000e+002  1.000000e+001  2.000000e+001
      vertex  8.447769e+001  7.753507e+000  2.000000e+001
      vertex  9.923879e+001  6.173166e+000  2.000000e+001
    endloop
  endfacet
  facet normal  0.000000e+000  0.000000e+000  9.999999e-001
    outer loop
      vertex  9.382684e+001  7.612047e-001  2.000000e+001
      vertex  9.707107e+001  2.928932e+000  2.000000e+001
      vertex  9.000000e+001  0.000000e+000  2.000000e+001
    endloop
  endfacet
  facet normal  0.000000e+000  -0.000000e+000  1.000000e+000
    outer loop
      vertex  9.000000e+001  0.000000e+000  2.000000e+001
      vertex  9.707107e+001  2.928932e+000  2.000000e+001
      vertex  8.058665e+001  5.507014e+000  2.000000e+001
    endloop
  endfacet
  facet normal  0.000000e+000  0.000000e+000  1.000000e+000
    outer loop
      vertex  9.000000e+001  0.000000e+000  2.000000e+001
      vertex  8.058665e+001  5.507014e+000  2.000000e+001
      vertex  2.000000e+001  0.000000e+000  2.000000e+001
    endloop
  endfacet
  facet normal  0.000000e+000  0.000000e+000  1.000000e+000
    outer loop
      vertex  2.000000e+001  0.000000e+000  2.000000e+001
      vertex  8.058665e+001  5.507014e+000  2.000000e+001
      vertex  6.058665e+001  5.507014e+000  2.000000e+001
    endloop
  endfacet
  facet normal  0.000000e+000  0.000000e+000  1.000000e+000
    outer loop
      vertex  8.058665e+001  5.507014e+000  2.000000e+001
      vertex  9.707107e+001  2.928932e+000  2.000000e+001
      vertex  8.283315e+001  6.108960e+000  2.000000e+001
    endloop
  endfacet
  facet normal  -0.000000e+000  0.000000e+000  1.000000e+000
    outer loop
      vertex  8.283315e+001  6.108960e+000  2.000000e+001
      vertex  9.707107e+001  2.928932e+000  2.000000e+001
      vertex  9.923879e+001  6.173166e+000  2.000000e+001
    endloop
  endfacet
  facet normal  0.000000e+000  0.000000e+000  1.000000e+000
    outer loop
      vertex  8.283315e+001  6.108960e+000  2.000000e+001
      vertex  9.923879e+001  6.173166e+000  2.000000e+001
      vertex  8.447769e+001  7.753507e+000  2.000000e+001
    endloop
  endfacet
  facet normal  0.000000e+000  0.000000e+000 -1.000000e+000
    outer loop
      vertex  2.577350e+001  2.000000e+001 -2.000000e+001
      vertex  2.000000e+001  0.000000e+000 -2.000000e+001
      vertex  1.422650e+001  2.000000e+001 -2.000000e+001
    endloop
  endfacet
  facet normal  0.000000e+000  -0.000000e+000 -1.000000e+000
    outer loop
      vertex  1.422650e+001  4.000000e+001 -2.000000e+001
      vertex  2.000000e+001  5.000000e+001 -2.000000e+001
      vertex  2.577350e+001  4.000000e+001 -2.000000e+001
    endloop
  endfacet
  facet normal  0.000000e+000  0.000000e+000 -9.999999e-001
    outer loop
      vertex  0.000000e+000  2.000000e+001 -2.000000e+001
      vertex  1.076120e+001  6.382684e+001 -2.000000e+001
      vertex  1.000000e+001  6.000000e+001 -2.000000e+001
    endloop
  endfacet
  facet normal  0.000000e+000  -0.000000e+000 -1.000000e+000
    outer loop
      vertex  0.000000e+000  2.000000e+001 -2.000000e+001
      vertex  1.000000e+001  6.000000e+001 -2.000000e+001
      vertex  1.076120e+001  5.617316e+001 -2.000000e+001
    endloop
  endfacet
  facet normal  0.000000e+000  -0.000000e+000 -1.000000e+000
    outer loop
      vertex  0.000000e+000  2.000000e+001 -2.000000e+001
      vertex  1.076120e+001  5.617316e+001 -2.000000e+001
      vertex  1.292893e+001  5.292893e+001 -2.000000e+001
    endloop
  endfacet
  facet normal  0.000000e+000  -0.000000e+000 -1.000000e+000
    outer loop
      vertex  0.000000e+000  2.000000e+001 -2.000000e+001
      vertex  1.292893e+001  5.292893e+001 -2.000000e+001
      vertex  1.617317e+001  5.076120e+001 -2.000000e+001
    endloop
  endfacet
  facet normal  0.000000e+000  -0.000000e+000 -1.000000e+000
    outer loop
      vertex  0.000000e+000  2.000000e+001 -2.000000e+001
      vertex  1.617317e+001  5.076120e+001 -2.000000e+001
      vertex  2.000000e+001  5.000000e+001 -2.000000e+001
    endloop
  endfacet
  facet normal  0.000000e+000  0.000000e+000 -1.000000e+000
    outer loop
      vertex  0.000000e+000  2.000000e+001 -2.000000e+001
      vertex  2.000000e+001  5.000000e+001 -2.000000e+001
      vertex  1.422650e+001  4.000000e+001 -2.000000e+001
    endloop
  endfacet
  facet normal  0.000000e+000  0.000000e+000 -1.000000e+000
    outer loop
      vertex  0.000000e+000  2.000000e+001 -2.000000e+001
      vertex  1.422650e+001  4.000000e+001 -2.000000e+001
      vertex  8.452994e+000  3.000000e+001 -2.000000e+001
    endloop
  endfacet
  facet normal  0.000000e+000  -0.000000e+000 -1.000000e+000
    outer loop
      vertex  0.000000e+000  2.000000e+001 -2.000000e+001
      vertex  8.452994e+000  3.000000e+001 -2.000000e+001
      vertex  1.422650e+001  2.000000e+001 -2.000000e+001
    endloop
  endfacet
  facet normal  -0.000000e+000  -0.000000e+000 -1.000000e+000
    outer loop
      vertex  0.000000e+000  2.000000e+001 -2.000000e+001
      vertex  1.422650e+001  2.000000e+001 -2.000000e+001
      vertex  2.000000e+001  0.000000e+000 -2.000000e+001
    endloop
  endfacet
  facet normal  0.000000e+000  0.000000e+000 -1.000000e+000
    outer loop
      vertex  4.000000e+001  8.000000e+001 -2.000000e+001
      vertex  4.000000e+001  6.000000e+001 -2.000000e+001
      vertex  2.382683e+001  6.923879e+001 -2.000000e+001
    endloop
  endfacet
  facet normal  0.000000e+000  0.000000e+000 -9.999999e-001
    outer loop
      vertex  4.000000e+001  8.000000e+001 -2.000000e+001
      vertex  2.382683e+001  6.923879e+001 -2.000000e+001
      vertex  2.000000e+001  7.000000e+001 -2.000000e+001
    endloop
  endfacet
  facet normal  0.000000e+000  0.000000e+000 -1.000000e+000
    outer loop
      vertex  4.000000e+001  8.000000e+001 -2.000000e+001
      vertex  2.000000e+001  7.000000e+001 -2.000000e+001
      vertex  0.000000e+000  7.000000e+001 -2.000000e+001
    endloop
  endfacet
  facet normal  0.000000e+000  0.000000e+000 -1.000000e+000
    outer loop
      vertex  4.000000e+001  8.000000e+001 -2.000000e+001
      vertex  0.000000e+000  7.000000e+001 -2.000000e+001
      vertex  1.000000e+001  8.000000e+001 -2.000000e+001
    endloop
  endfacet
  facet normal  -0.000000e+000  0.000000e+000 -1.000000e+000
    outer loop
      vertex  7.000000e+001  2.000000e+001 -2.000000e+001
      vertex  1.000000e+002  2.000000e+001 -2.000000e+001
      vertex  8.058665e+001  1.449299e+001 -2.000000e+001
    endloop
  endfacet
  facet normal  0.000000e+000  0.000000e+000 -1.000000e+000
    outer loop
      vertex  7.000000e+001  2.000000e+001 -2.000000e+001
      vertex  8.058665e+001  1.449299e+001 -2.000000e+001
      vertex  6.058665e+001  1.449299e+001 -2.000000e+001
    endloop
  endfacet
  facet normal  -0.000000e+000  0.000000e+000 -1.000000e+000
    outer loop
      vertex  7.000000e+001  2.000000e+001 -2.000000e+001
      vertex  6.058665e+001  1.449299e+001 -2.000000e+001
      vertex  5.834016e+001  1.389104e+001 -2.000000e+001
    endloop
  endfacet
  facet normal  -0.000000e+000  0.000000e+000 -1.000000e+000
    outer loop
      vertex  7.000000e+001  2.000000e+001 -2.000000e+001
      vertex  5.834016e+001  1.389104e+001 -2.000000e+001
      vertex  2.000000e+001  0.000000e+000 -2.000000e+001
    endloop
  endfacet
  facet normal  0.000000e+000  0.000000e+000 -1.000000e+000
    outer loop
      vertex  7.000000e+001  2.000000e+001 -2.000000e+001
      vertex  2.000000e+001  0.000000e+000 -2.000000e+001
      vertex  2.577350e+001  2.000000e+001 -2.000000e+001
    endloop
  endfacet
  facet normal  0.000000e+000  0.000000e+000 -1.000000e+000
    outer loop
      vertex  7.000000e+001  2.000000e+001 -2.000000e+001
      vertex  2.577350e+001  2.000000e+001 -2.000000e+001
      vertex  3.154700e+001  3.000000e+001 -2.000000e+001
    endloop
  endfacet
  facet normal  0.000000e+000  0.000000e+000 -1.000000e+000
    outer loop
      vertex  7.000000e+001  2.000000e+001 -2.000000e+001
      vertex  3.154700e+001  3.000000e+001 -2.000000e+001
      vertex  2.577350e+001  4.000000e+001 -2.000000e+001
    endloop
  endfacet
  facet normal  0.000000e+000  0.000000e+000 -1.000000e+000
    outer loop
      vertex  7.000000e+001  2.000000e+001 -2.000000e+001
      vertex  2.577350e+001  4.000000e+001 -2.000000e+001
      vertex  2.000000e+001  5.000000e+001 -2.000000e+001
    endloop
  endfacet
  facet normal  0.000000e+000  0.000000e+000 -1.000000e+000
    outer loop
      vertex  7.000000e+001  2.000000e+001 -2.000000e+001
      vertex  2.000000e+001  5.000000e+001 -2.000000e+001
      vertex  2.382683e+001  5.076120e+001 -2.000000e+001
    endloop
  endfacet
  facet normal  0.000000e+000  0.000000e+000 -1.000000e+000
    outer loop
      vertex  7.000000e+001  2.000000e+001 -2.000000e+001
      vertex  2.382683e+001  5.076120e+001 -2.000000e+001
      vertex  2.707107e+001  5.292893e+001 -2.000000e+001
    endloop
  endfacet
  facet normal  0.000000e+000  0.000000e+000 -1.000000e+000
    outer loop
      vertex  7.000000e+001  2.000000e+001 -2.000000e+001
      vertex  2.707107e+001  5.292893e+001 -2.000000e+001
      vertex  2.923880e+001  5.617316e+001 -2.000000e+001
    endloop
  endfacet
  facet normal  0.000000e+000  0.000000e+000 -1.000000e+000
    outer loop
      vertex  7.000000e+001  2.000000e+001 -2.000000e+001
      vertex  2.923880e+001  5.617316e+001 -2.000000e+001
      vertex  3.000000e+001  6.000000e+001 -2.000000e+001
    endloop
  endfacet
  facet normal  0.000000e+000  0.000000e+000 -1.000000e+000
    outer loop
      vertex  7.000000e+001  2.000000e+001 -2.000000e+001
      vertex  3.000000e+001  6.000000e+001 -2.000000e+001
      vertex  4.000000e+001  6.000000e+001 -2.000000e+001
    endloop
  endfacet
  facet normal  -0.000000e+000  0.000000e+000 -1.000000e+000
    outer loop
      vertex  0.000000e+000  7.000000e+001 -2.000000e+001
      vertex  2.000000e+001  7.000000e+001 -2.000000e+001
      vertex  1.617317e+001  6.923879e+001 -2.000000e+001
    endloop
  endfacet
  facet normal  -0.000000e+000  0.000000e+000 -1.000000e+000
    outer loop
      vertex  0.000000e+000  7.000000e+001 -2.000000e+001
      vertex  1.617317e+001  6.923879e+001 -2.000000e+001
      vertex  1.292893e+001  6.707107e+001 -2.000000e+001
    endloop
  endfacet
  facet normal  -0.000000e+000  0.000000e+000 -1.000000e+000
    outer loop
      vertex  0.000000e+000  7.000000e+001 -2.000000e+001
      vertex  1.292893e+001  6.707107e+001 -2.000000e+001
      vertex  1.076120e+001  6.382684e+001 -2.000000e+001
    endloop
  endfacet
  facet normal  -0.000000e+000  0.000000e+000 -1.000000e+000
    outer loop
      vertex  0.000000e+000  7.000000e+001 -2.000000e+001
      vertex  1.076120e+001  6.382684e+001 -2.000000e+001
      vertex  0.000000e+000  2.000000e+001 -2.000000e+001
    endloop
  endfacet
  facet normal  0.000000e+000  0.000000e+000 -1.000000e+000
    outer loop
      vertex  4.000000e+001  6.000000e+001 -2.000000e+001
      vertex  3.000000e+001  6.000000e+001 -2.000000e+001
      vertex  2.923880e+001  6.382684e+001 -2.000000e+001
    endloop
  endfacet
  facet normal  0.000000e+000  0.000000e+000 -9.999999e-001
    outer loop
      vertex  4.000000e+001  6.000000e+001 -2.000000e+001
      vertex  2.923880e+001  6.382684e+001 -2.000000e+001
      vertex  2.707107e+001  6.707107e+001 -2.000000e+001
    endloop
  endfacet
  facet normal  0.000000e+000  0.000000e+000 -1.000000e+000
    outer loop
      vertex  4.000000e+001  6.000000e+001 -2.000000e+001
      vertex  2.707107e+001  6.707107e+001 -2.000000e+001
      vertex  2.382683e+001  6.923879e+001 -2.000000e+001
    endloop
  endfacet
  facet normal  0.000000e+000  0.000000e+000 -9.999999e-001
    outer loop
      vertex  2.000000e+001  0.000000e+000 -2.000000e+001
      vertex  5.834016e+001  1.389104e+001 -2.000000e+001
      vertex  5.669561e+001  1.224649e+001 -2.000000e+001
    endloop
  endfacet
  facet normal  0.000000e+000  0.000000e+000 -1.000000e+000
    outer loop
      vertex  2.000000e+001  0.000000e+000 -2.000000e+001
      vertex  5.669561e+001  1.224649e+001 -2.000000e+001
      vertex  5.609367e+001  1.000000e+001 -2.000000e+001
    endloop
  endfacet
  facet normal  0.000000e+000  -0.000000e+000 -1.000000e+000
    outer loop
      vertex  2.000000e+001  0.000000e+000 -2.000000e+001
      vertex  5.609367e+001  1.000000e+001 -2.000000e+001
      vertex  5.669561e+001  7.753507e+000 -2.000000e+001
    endloop
  endfacet
  facet normal  0.000000e+000  -0.000000e+000 -1.000000e+000
    outer loop
      vertex  2.000000e+001  0.000000e+000 -2.000000e+001
      vertex  5.669561e+001  7.753507e+000 -2.000000e+001
      vertex  5.834016e+001  6.108960e+000 -2.000000e+001
    endloop
  endfacet
  facet normal  0.000000e+000  -0.000000e+000 -9.999999e-001
    outer loop
      vertex  2.000000e+001  0.000000e+000 -2.000000e+001
      vertex  5.834016e+001  6.108960e+000 -2.000000e+001
      vertex  6.058665e+001  5.507014e+000 -2.000000e+001
    endloop
  endfacet
  facet normal  0.000000e+000  0.000000e+000 -9.999999e-001
    outer loop
      vertex  1.000000e+002  1.000000e+001 -2.000000e+001
      vertex  9.923879e+001  6.173166e+000 -2.000000e+001
      vertex  8.447769e+001  7.753507e+000 -2.000000e+001
    endloop
  endfacet
  facet normal  0.000000e+000  0.000000e+000 -1.000000e+000
    outer loop
      vertex  1.000000e+002  1.000000e+001 -2.000000e+001
      vertex  8.447769e+001  7.753507e+000 -2.000000e+001
      vertex  8.507964e+001  1.000000e+001 -2.000000e+001
    endloop
  endfacet
  facet normal  0.000000e+000  0.000000e+000 -1.000000e+000
    outer loop
      vertex  1.000000e+002  1.000000e+001 -2.000000e+001
      vertex  8.507964e+001  1.000000e+001 -2.000000e+001
      vertex  8.447769e+001  1.224649e+001 -2.000000e+001
    endloop
  endfacet
  facet normal  0.000000e+000  0.000000e+000 -1.000000e+000
    outer loop
      vertex  1.000000e+002  1.000000e+001 -2.000000e+001
      vertex  8.447769e+001  1.224649e+001 -2.000000e+001
      vertex  8.283315e+001  1.389104e+001 -2.000000e+001
    endloop
  endfacet
  facet normal  0.000000e+000  0.000000e+000 -1.000000e+000
    outer loop
      vertex  1.000000e+002  1.000000e+001 -2.000000e+001
      vertex  8.283315e+001  1.389104e+001 -2.000000e+001
      vertex  8.058665e+001  1.449299e+001 -2.000000e+001
    endloop
  endfacet
  facet normal  0.000000e+000  0.000000e+000 -1.000000e+000
    outer loop
      vertex  1.000000e+002  1.000000e+001 -2.000000e+001
      vertex  8.058665e+001  1.449299e+001 -2.000000e+001
      vertex  1.000000e+002  2.000000e+001 -2.000000e+001
    endloop
  endfacet
  facet normal  0.000000e+000  0.000000e+000 -1.000000e+000
    outer loop
      vertex  9.382684e+001  7.612047e-001 -2.000000e+001
      vertex  9.000000e+001  0.000000e+000 -2.000000e+001
      vertex  9.707107e+001  2.928932e+000 -2.000000e+001
    endloop
  endfacet
  facet normal  -0.000000e+000  0.000000e+000 -1.000000e+000
    outer loop
      vertex  9.707107e+001  2.928932e+000 -2.000000e+001
      vertex  9.000000e+001  0.000000e+000 -2.000000e+001
      vertex  8.058665e+001  5.507014e+000 -2.000000e+001
    endloop
  endfacet
  facet normal  0.000000e+000  0.000000e+000 -1.000000e+000
    outer loop
      vertex  9.000000e+001  0.000000e+000 -2.000000e+001
      vertex  2.000000e+001  0.000000e+000 -2.000000e+001
      vertex  8.058665e+001  5.507014e+000 -2.000000e+001
    endloop
  endfacet
  facet normal  -0.000000e+000  0.000000e+000 -1.000000e+000
    outer loop
      vertex  8.058665e+001  5.507014e+000 -2.000000e+001
      vertex  2.000000e+001  0.000000e+000 -2.000000e+001
      vertex  6.058665e+001  5.507014e+000 -2.000000e+001
    endloop
  endfacet
  facet normal  -0.000000e+000  0.000000e+000 -1.000000e+000
    outer loop
      vertex  8.447769e+001  7.753507e+000 -2.000000e+001
      vertex  9.923879e+001  6.173166e+000 -2.000000e+001
      vertex  8.283315e+001  6.108960e+000 -2.000000e+001
    endloop
  endfacet
  facet normal  0.000000e+000  0.000000e+000 -1.000000e+000
    outer loop
      vertex  8.283315e+001  6.108960e+000 -2.000000e+001
      vertex  9.923879e+001  6.173166e+000 -2.000000e+001
      vertex  9.707107e+001  2.928932e+000 -2.000000e+001
    endloop
  endfacet
  facet normal  0.000000e+000  0.000000e+000 -1.000000e+000
    outer loop
      vertex  8.283315e+001  6.108960e+000 -2.000000e+001
      vertex  9.707107e+001  2.928932e+000 -2.000000e+001
      vertex  8.058665e+001  5.507014e+000 -2.000000e+001
    endloop
  endfacet
  facet normal  0.000000e+000 -1.000000e+000  0.000000e+000
    outer loop
      vertex  9.000000e+001  0.000000e+000  2.000000e+001
      vertex  2.000000e+001  0.000000e+000  2.000000e+001
      vertex  9.000000e+001  0.000000e+000 -2.000000e+001
    endloop
  endfacet
  facet normal  0.000000e+000 -1.000000e+000  0.000000e+000
    outer loop
      vertex  9.000000e+001  0.000000e+000 -2.000000e+001
      vertex  2.000000e+001  0.000000e+000  2.000000e+001
      vertex  2.000000e+001  0.000000e+000 -2.000000e+001
    endloop
  endfacet
  facet normal -1.000000e+000  -0.000000e+000  0.000000e+000
    outer loop
      vertex  0.000000e+000  2.000000e+001  2.000000e+001
      vertex  0.000000e+000  7.000000e+001  2.000000e+001
      vertex  0.000000e+000  2.000000e+001 -2.000000e+001
    endloop
  endfacet
  facet normal -1.000000e+000  0.000000e+000  0.000000e+000
    outer loop
      vertex  0.000000e+000  2.000000e+001 -2.000000e+001
      vertex  0.000000e+000  7.000000e+001  2.000000e+001
      vertex  0.000000e+000  7.000000e+001 -2.000000e+001
    endloop
  endfacet
  facet normal  0.000000e+000  1.000000e+000  0.000000e+000
    outer loop
      vertex  2.000000e+001  8.000000e+001  1.776357e-015
      vertex  3.000000e+001  8.000000e+001 -1.000000e+001
      vertex  1.000000e+001  8.000000e+001 -2.000000e+001
    endloop
  endfacet
  facet normal  0.000000e+000  1.000000e+000  0.000000e+000
    outer loop
      vertex  1.000000e+001  8.000000e+001  2.000000e+001
      vertex  4.000000e+001  8.000000e+001  2.000000e+001
      vertex  3.000000e+001  8.000000e+001  1.000000e+001
    endloop
  endfacet
  facet normal  0.000000e+000  1.000000e+000  0.000000e+000
    outer loop
      vertex  1.000000e+001  8.000000e+001  2.000000e+001
      vertex  3.000000e+001  8.000000e+001  1.000000e+001
      vertex  2.000000e+001  8.000000e+001  1.776357e-015
    endloop
  endfacet
  facet normal  0.000000e+000  1.000000e+000  0.000000e+000
    outer loop
      vertex  1.000000e+001  8.000000e+001  2.000000e+001
      vertex  2.000000e+001  8.000000e+001  1.776357e-015
      vertex  1.000000e+001  8.000000e+001 -2.000000e+001
    endloop
  endfacet
  facet normal  0.000000e+000  1.000000e+000  0.000000e+000
    outer loop
      vertex  1.000000e+001  8.000000e+001 -2.000000e+001
      vertex  3.000000e+001  8.000000e+001 -1.000000e+001
      vertex  4.000000e+001  8.000000e+001 -2.000000e+001
    endloop
  endfacet
  facet normal  0.000000e+000  1.000000e+000  0.000000e+000
    outer loop
      vertex  4.000000e+001  8.000000e+001 -2.000000e+001
      vertex  3.000000e+001  8.000000e+001 -1.000000e+001
      vertex  3.000000e+001  8.000000e+001  1.000000e+001
    endloop
  endfacet
  facet normal  -0.000000e+000  1.000000e+000  0.000000e+000
    outer loop
      vertex  4.000000e+001  8.000000e+001 -2.000000e+001
      vertex  3.000000e+001  8.000000e+001  1.000000e+001
      vertex  4.000000e+001  8.000000e+001  2.000000e+001
    endloop
  endfacet
  facet normal  0.000000e+000  1.000000e+000  -0.000000e+000
    outer loop
      vertex  3.000000e+001  7.000000e+001  1.000000e+001
      vertex  3.000000e+001  7.000000e+001 -1.000000e+001
      vertex  2.000000e+001  7.000000e+001  3.552714e-015
    endloop
  endfacet
  facet normal  7.071068e-001 -1.256074e-016 -7.071068e-001
    outer loop
      vertex  2.000000e+001  7.000000e+001  3.552714e-015
      vertex  2.000000e+001  8.000000e+001  1.776357e-015
      vertex  3.000000e+001  7.000000e+001  1.000000e+001
    endloop
  endfacet
  facet normal  7.071068e-001  0.000000e+000 -7.071068e-001
    outer loop
      vertex  3.000000e+001  7.000000e+001  1.000000e+001
      vertex  2.000000e+001  8.000000e+001  1.776357e-015
      vertex  3.000000e+001  8.000000e+001  1.000000e+001
    endloop
  endfacet
  facet normal  7.071068e-001  0.000000e+000  7.071068e-001
    outer loop
      vertex  3.000000e+001  7.000000e+001 -1.000000e+001
      vertex  3.000000e+001  8.000000e+001 -1.000000e+001
      vertex  2.000000e+001  7.000000e+001  3.552714e-015
    endloop
  endfacet
  facet normal  7.071068e-001  1.256074e-016  7.071068e-001
    outer loop
      vertex  2.000000e+001  7.000000e+001  3.552714e-015
      vertex  3.000000e+001  8.000000e+001 -1.000000e+001
      vertex  2.000000e+001  8.000000e+001  1.776357e-015
    endloop
  endfacet
  facet normal -1.000000e+000  -0.000000e+000  0.000000e+000
    outer loop
      vertex  3.000000e+001  7.000000e+001  1.000000e+001
      vertex  3.000000e+001  8.000000e+001  1.000000e+001
      vertex  3.000000e+001  7.000000e+001 -1.000000e+001
    endloop
  endfacet
  facet normal -1.000000e+000  0.000000e+000  0.000000e+000
    outer loop
      vertex  3.000000e+001  7.000000e+001 -1.000000e+001
      vertex  3.000000e+001  8.000000e+001  1.000000e+001
      vertex  3.000000e+001  8.000000e+001 -1.000000e+001
    endloop
  endfacet
  facet normal  1.950911e-001 -9.807851e-001  0.000000e+000
    outer loop
      vertex  2.000000e+001  7.000000e+001 -2.000000e+001
      vertex  1.617317e+001  6.923879e+001  2.000000e+001
      vertex  1.617317e+001  6.923879e+001 -2.000000e+001
    endloop
  endfacet
  facet normal  5.555696e-001 -8.314700e-001  0.000000e+000
    outer loop
      vertex  1.617317e+001  6.923879e+001 -2.000000e+001
      vertex  1.617317e+001  6.923879e+001  2.000000e+001
      vertex  1.292893e+001  6.707107e+001  2.000000e+001
    endloop
  endfacet
  facet normal  5.555696e-001 -8.314700e-001  0.000000e+000
    outer loop
      vertex  1.617317e+001  6.923879e+001 -2.000000e+001
      vertex  1.292893e+001  6.707107e+001  2.000000e+001
      vertex  1.292893e+001  6.707107e+001 -2.000000e+001
    endloop
  endfacet
  facet normal  8.314695e-001 -5.555704e-001  0.000000e+000
    outer loop
      vertex  1.292893e+001  6.707107e+001 -2.000000e+001
      vertex  1.292893e+001  6.707107e+001  2.000000e+001
      vertex  1.076120e+001  6.382684e+001  2.000000e+001
    endloop
  endfacet
  facet normal  8.314695e-001 -5.555704e-001  0.000000e+000
    outer loop
      vertex  1.292893e+001  6.707107e+001 -2.000000e+001
      vertex  1.076120e+001  6.382684e+001  2.000000e+001
      vertex  1.076120e+001  6.382684e+001 -2.000000e+001
    endloop
  endfacet
  facet normal  9.807853e-001 -1.950903e-001  0.000000e+000
    outer loop
      vertex  1.076120e+001  6.382684e+001 -2.000000e+001
      vertex  1.076120e+001  6.382684e+001  2.000000e+001
      vertex  1.000000e+001  6.000000e+001  2.000000e+001
    endloop
  endfacet
  facet normal  9.807853e-001 -1.950903e-001  0.000000e+000
    outer loop
      vertex  1.076120e+001  6.382684e+001 -2.000000e+001
      vertex  1.000000e+001  6.000000e+001  2.000000e+001
      vertex  1.000000e+001  6.000000e+001 -2.000000e+001
    endloop
  endfacet
  facet normal  1.950911e-001 -9.807851e-001  0.000000e+000
    outer loop
      vertex  1.617317e+001  6.923879e+001  2.000000e+001
      vertex  2.000000e+001  7.000000e+001 -2.000000e+001
      vertex  2.000000e+001  7.000000e+001  2.000000e+001
    endloop
  endfacet
  facet normal -1.950911e-001 -9.807851e-001  -0.000000e+000
    outer loop
      vertex  2.000000e+001  7.000000e+001  2.000000e+001
      vertex  2.000000e+001  7.000000e+001 -2.000000e+001
      vertex  2.382683e+001  6.923879e+001 -2.000000e+001
    endloop
  endfacet
  facet normal -1.950911e-001 -9.807851e-001  0.000000e+000
    outer loop
      vertex  2.000000e+001  7.000000e+001  2.000000e+001
      vertex  2.382683e+001  6.923879e+001 -2.000000e+001
      vertex  2.382683e+001  6.923879e+001  2.000000e+001
    endloop
  endfacet
  facet normal -5.555696e-001 -8.314700e-001  -0.000000e+000
    outer loop
      vertex  2.382683e+001  6.923879e+001  2.000000e+001
      vertex  2.382683e+001  6.923879e+001 -2.000000e+001
      vertex  2.707107e+001  6.707107e+001 -2.000000e+001
    endloop
  endfacet
  facet normal -5.555696e-001 -8.314700e-001  0.000000e+000
    outer loop
      vertex  2.382683e+001  6.923879e+001  2.000000e+001
      vertex  2.707107e+001  6.707107e+001 -2.000000e+001
      vertex  2.707107e+001  6.707107e+001  2.000000e+001
    endloop
  endfacet
  facet normal -8.314694e-001 -5.555705e-001  -0.000000e+000
    outer loop
      vertex  2.707107e+001  6.707107e+001  2.000000e+001
      vertex  2.707107e+001  6.707107e+001 -2.000000e+001
      vertex  2.923880e+001  6.382684e+001 -2.000000e+001
    endloop
  endfacet
  facet normal -8.314694e-001 -5.555705e-001  0.000000e+000
    outer loop
      vertex  2.707107e+001  6.707107e+001  2.000000e+001
      vertex  2.923880e+001  6.382684e+001 -2.000000e+001
      vertex  2.923880e+001  6.382684e+001  2.000000e+001
    endloop
  endfacet
  facet normal -9.807854e-001 -1.950900e-001  -0.000000e+000
    outer loop
      vertex  2.923880e+001  6.382684e+001  2.000000e+001
      vertex  2.923880e+001  6.382684e+001 -2.000000e+001
      vertex  3.000000e+001  6.000000e+001 -2.000000e+001
    endloop
  endfacet
  facet normal -9.807854e-001 -1.950900e-001  0.000000e+000
    outer loop
      vertex  2.923880e+001  6.382684e+001  2.000000e+001
      vertex  3.000000e+001  6.000000e+001 -2.000000e+001
      vertex  3.000000e+001  6.000000e+001  2.000000e+001
    endloop
  endfacet
  facet normal  1.000000e+000  0.000000e+000  0.000000e+000
    outer loop
      vertex  1.000000e+002  2.000000e+001 -2.000000e+001
      vertex  1.000000e+002  2.000000e+001  2.000000e+001
      vertex  1.000000e+002  1.000000e+001 -2.000000e+001
    endloop
  endfacet
  facet normal  1.000000e+000  0.000000e+000  0.000000e+000
    outer loop
      vertex  1.000000e+002  1.000000e+001 -2.000000e+001
      vertex  1.000000e+002  2.000000e+001  2.000000e+001
      vertex  1.000000e+002  1.000000e+001  2.000000e+001
    endloop
  endfacet
  facet normal  9.807851e-001 -1.950910e-001  0.000000e+000
    outer loop
      vertex  1.000000e+002  1.000000e+001 -2.000000e+001
      vertex  1.000000e+002  1.000000e+001  2.000000e+001
      vertex  9.923879e+001  6.173166e+000 -2.000000e+001
    endloop
  endfacet
  facet normal  9.807851e-001 -1.950910e-001  0.000000e+000
    outer loop
      vertex  9.923879e+001  6.173166e+000 -2.000000e+001
      vertex  1.000000e+002  1.000000e+001  2.000000e+001
      vertex  9.923879e+001  6.173166e+000  2.000000e+001
    endloop
  endfacet
  facet normal  8.314700e-001 -5.555696e-001  0.000000e+000
    outer loop
      vertex  9.923879e+001  6.173166e+000 -2.000000e+001
      vertex  9.923879e+001  6.173166e+000  2.000000e+001
      vertex  9.707107e+001  2.928932e+000 -2.000000e+001
    endloop
  endfacet
  facet normal  8.314700e-001 -5.555696e-001  0.000000e+000
    outer loop
      vertex  9.707107e+001  2.928932e+000 -2.000000e+001
      vertex  9.923879e+001  6.173166e+000  2.000000e+001
      vertex  9.707107e+001  2.928932e+000  2.000000e+001
    endloop
  endfacet
  facet normal  5.555704e-001 -8.314695e-001  0.000000e+000
    outer loop
      vertex  9.707107e+001  2.928932e+000 -2.000000e+001
      vertex  9.707107e+001  2.928932e+000  2.000000e+001
      vertex  9.382684e+001  7.612047e-001 -2.000000e+001
    endloop
  endfacet
  facet normal  5.555704e-001 -8.314695e-001  0.000000e+000
    outer loop
      vertex  9.382684e+001  7.612047e-001 -2.000000e+001
      vertex  9.707107e+001  2.928932e+000  2.000000e+001
      vertex  9.382684e+001  7.612047e-001  2.000000e+001
    endloop
  endfacet
  facet normal  1.950903e-001 -9.807853e-001  0.000000e+000
    outer loop
      vertex  9.382684e+001  7.612047e-001 -2.000000e+001
      vertex  9.382684e+001  7.612047e-001  2.000000e+001
      vertex  9.000000e+001  0.000000e+000 -2.000000e+001
    endloop
  endfacet
  facet normal  1.950903e-001 -9.807853e-001  0.000000e+000
    outer loop
      vertex  9.000000e+001  0.000000e+000 -2.000000e+001
      vertex  9.382684e+001  7.612047e-001  2.000000e+001
      vertex  9.000000e+001  0.000000e+000  2.000000e+001
    endloop
  endfacet
  facet normal -7.071068e-001  7.071068e-001  0.000000e+000
    outer loop
      vertex  1.000000e+001  8.000000e+001  2.000000e+001
      vertex  1.000000e+001  8.000000e+001 -2.000000e+001
      vertex  0.000000e+000  7.000000e+001  2.000000e+001
    endloop
  endfacet
  facet normal -7.071068e-001  7.071068e-001  0.000000e+000
    outer loop
      vertex  0.000000e+000  7.000000e+001  2.000000e+001
      vertex  1.000000e+001  8.000000e+001 -2.000000e+001
      vertex  0.000000e+000  7.000000e+001 -2.000000e+001
    endloop
  endfacet
  facet normal  8.000000e-001  6.000001e-001  -0.000000e+000
    outer loop
      vertex  7.000000e+001  2.000000e+001  2.000000e+001
      vertex  7.000000e+001  2.000000e+001 -2.000000e+001
      vertex  5.994328e+001  3.340896e+001  3.826834e+000
    endloop
  endfacet
  facet normal  8.000001e-001  5.999998e-001 -3.414397e-007
    outer loop
      vertex  7.000000e+001  2.000000e+001  2.000000e+001
      vertex  5.994328e+001  3.340896e+001  3.826834e+000
      vertex  5.864264e+001  3.514315e+001  7.071068e+000
    endloop
  endfacet
  facet normal  8.000002e-001  5.999997e-001 -5.519593e-007
    outer loop
      vertex  7.000000e+001  2.000000e+001  2.000000e+001
      vertex  5.864264e+001  3.514315e+001  7.071068e+000
      vertex  5.669610e+001  3.773853e+001  9.238795e+000
    endloop
  endfacet
  facet normal  8.000000e-001  6.000000e-001  1.417944e-007
    outer loop
      vertex  7.000000e+001  2.000000e+001  2.000000e+001
      vertex  5.669610e+001  3.773853e+001  9.238795e+000
      vertex  4.000000e+001  6.000000e+001  2.000000e+001
    endloop
  endfacet
  facet normal  8.000000e-001  6.000000e-001  0.000000e+000
    outer loop
      vertex  4.000000e+001  6.000000e+001 -2.000000e+001
      vertex  4.000000e+001  6.000000e+001  2.000000e+001
      vertex  4.840000e+001  4.880000e+001  8.881784e-016
    endloop
  endfacet
  facet normal  8.000000e-001  6.000000e-001 -8.441197e-009
    outer loop
      vertex  4.000000e+001  6.000000e+001 -2.000000e+001
      vertex  4.840000e+001  4.880000e+001  8.881784e-016
      vertex  4.885672e+001  4.819104e+001 -3.826834e+000
    endloop
  endfacet
  facet normal  7.999999e-001  6.000001e-001  1.158326e-007
    outer loop
      vertex  4.000000e+001  6.000000e+001 -2.000000e+001
      vertex  4.885672e+001  4.819104e+001 -3.826834e+000
      vertex  5.015736e+001  4.645686e+001 -7.071068e+000
    endloop
  endfacet
  facet normal  7.999999e-001  6.000001e-001  1.012877e-007
    outer loop
      vertex  4.000000e+001  6.000000e+001 -2.000000e+001
      vertex  5.015736e+001  4.645686e+001 -7.071068e+000
      vertex  5.210390e+001  4.386147e+001 -9.238795e+000
    endloop
  endfacet
  facet normal  8.000002e-001  5.999998e-001 -6.993747e-007
    outer loop
      vertex  4.000000e+001  6.000000e+001 -2.000000e+001
      vertex  5.210390e+001  4.386147e+001 -9.238795e+000
      vertex  5.440000e+001  4.080000e+001 -1.000000e+001
    endloop
  endfacet
  facet normal  7.999998e-001  6.000003e-001  7.695677e-007
    outer loop
      vertex  4.000000e+001  6.000000e+001 -2.000000e+001
      vertex  5.440000e+001  4.080000e+001 -1.000000e+001
      vertex  5.669610e+001  3.773853e+001 -9.238795e+000
    endloop
  endfacet
  facet normal  8.000000e-001  6.000000e-001 -1.417944e-007
    outer loop
      vertex  7.000000e+001  2.000000e+001 -2.000000e+001
      vertex  4.000000e+001  6.000000e+001 -2.000000e+001
      vertex  5.669610e+001  3.773853e+001 -9.238795e+000
    endloop
  endfacet
  facet normal  8.000002e-001  5.999997e-001  5.519593e-007
    outer loop
      vertex  7.000000e+001  2.000000e+001 -2.000000e+001
      vertex  5.669610e+001  3.773853e+001 -9.238795e+000
      vertex  5.864264e+001  3.514315e+001 -7.071068e+000
    endloop
  endfacet
  facet normal  8.000001e-001  5.999998e-001  3.414397e-007
    outer loop
      vertex  7.000000e+001  2.000000e+001 -2.000000e+001
      vertex  5.864264e+001  3.514315e+001 -7.071068e+000
      vertex  5.994328e+001  3.340896e+001 -3.826834e+000
    endloop
  endfacet
  facet normal  7.999995e-001  6.000006e-001 -6.462607e-007
    outer loop
      vertex  7.000000e+001  2.000000e+001 -2.000000e+001
      vertex  5.994328e+001  3.340896e+001 -3.826834e+000
      vertex  6.040000e+001  3.280000e+001  1.224606e-015
    endloop
  endfacet
  facet normal  8.000008e-001  5.999988e-001  1.073984e-006
    outer loop
      vertex  7.000000e+001  2.000000e+001 -2.000000e+001
      vertex  6.040000e+001  3.280000e+001  1.224606e-015
      vertex  5.994328e+001  3.340896e+001  3.826834e+000
    endloop
  endfacet
  facet normal  7.999998e-001  6.000003e-001 -7.695677e-007
    outer loop
      vertex  4.000000e+001  6.000000e+001  2.000000e+001
      vertex  5.669610e+001  3.773853e+001  9.238795e+000
      vertex  5.440000e+001  4.080000e+001  1.000000e+001
    endloop
  endfacet
  facet normal  8.000002e-001  5.999998e-001  6.993747e-007
    outer loop
      vertex  4.000000e+001  6.000000e+001  2.000000e+001
      vertex  5.440000e+001  4.080000e+001  1.000000e+001
      vertex  5.210390e+001  4.386147e+001  9.238795e+000
    endloop
  endfacet
  facet normal  7.999999e-001  6.000001e-001 -1.012877e-007
    outer loop
      vertex  4.000000e+001  6.000000e+001  2.000000e+001
      vertex  5.210390e+001  4.386147e+001  9.238795e+000
      vertex  5.015736e+001  4.645686e+001  7.071068e+000
    endloop
  endfacet
  facet normal  7.999999e-001  6.000001e-001 -1.158326e-007
    outer loop
      vertex  4.000000e+001  6.000000e+001  2.000000e+001
      vertex  5.015736e+001  4.645686e+001  7.071068e+000
      vertex  4.885672e+001  4.819104e+001  3.826834e+000
    endloop
  endfacet
  facet normal  8.000000e-001  6.000000e-001  8.441197e-009
    outer loop
      vertex  4.000000e+001  6.000000e+001  2.000000e+001
      vertex  4.885672e+001  4.819104e+001  3.826834e+000
      vertex  4.840000e+001  4.880000e+001  8.881784e-016
    endloop
  endfacet
  facet normal  1.170541e-001 -1.560722e-001  9.807853e-001
    outer loop
      vertex  4.240000e+001  3.180000e+001 -1.000000e+001
      vertex  5.210390e+001  4.386147e+001 -9.238795e+000
      vertex  4.010390e+001  3.486147e+001 -9.238795e+000
    endloop
  endfacet
  facet normal  3.333421e-001 -4.444561e-001  8.314696e-001
    outer loop
      vertex  4.010390e+001  3.486147e+001 -9.238795e+000
      vertex  5.210390e+001  4.386147e+001 -9.238795e+000
      vertex  5.015736e+001  4.645686e+001 -7.071068e+000
    endloop
  endfacet
  facet normal  3.333421e-001 -4.444561e-001  8.314696e-001
    outer loop
      vertex  4.010390e+001  3.486147e+001 -9.238795e+000
      vertex  5.015736e+001  4.645686e+001 -7.071068e+000
      vertex  3.815736e+001  3.745686e+001 -7.071068e+000
    endloop
  endfacet
  facet normal  4.988819e-001 -6.651759e-001  5.555700e-001
    outer loop
      vertex  3.815736e+001  3.745686e+001 -7.071068e+000
      vertex  5.015736e+001  4.645686e+001 -7.071068e+000
      vertex  4.885672e+001  4.819104e+001 -3.826834e+000
    endloop
  endfacet
  facet normal  4.988819e-001 -6.651759e-001  5.555700e-001
    outer loop
      vertex  3.815736e+001  3.745686e+001 -7.071068e+000
      vertex  4.885672e+001  4.819104e+001 -3.826834e+000
      vertex  3.685672e+001  3.919104e+001 -3.826834e+000
    endloop
  endfacet
  facet normal  5.884712e-001 -7.846283e-001  1.950901e-001
    outer loop
      vertex  3.685672e+001  3.919104e+001 -3.826834e+000
      vertex  4.885672e+001  4.819104e+001 -3.826834e+000
      vertex  4.840000e+001  4.880000e+001  8.881784e-016
    endloop
  endfacet
  facet normal  5.884712e-001 -7.846283e-001  1.950901e-001
    outer loop
      vertex  3.685672e+001  3.919104e+001 -3.826834e+000
      vertex  4.840000e+001  4.880000e+001  8.881784e-016
      vertex  3.640000e+001  3.980000e+001  8.881784e-016
    endloop
  endfacet
  facet normal  1.170541e-001 -1.560722e-001  9.807853e-001
    outer loop
      vertex  5.210390e+001  4.386147e+001 -9.238795e+000
      vertex  4.240000e+001  3.180000e+001 -1.000000e+001
      vertex  5.440000e+001  4.080000e+001 -1.000000e+001
    endloop
  endfacet
  facet normal -1.170542e-001  1.560723e-001  9.807853e-001
    outer loop
      vertex  5.440000e+001  4.080000e+001 -1.000000e+001
      vertex  4.240000e+001  3.180000e+001 -1.000000e+001
      vertex  4.469610e+001  2.873853e+001 -9.238795e+000
    endloop
  endfacet
  facet normal -1.170542e-001  1.560723e-001  9.807853e-001
    outer loop
      vertex  5.440000e+001  4.080000e+001 -1.000000e+001
      vertex  4.469610e+001  2.873853e+001 -9.238795e+000
      vertex  5.669610e+001  3.773853e+001 -9.238795e+000
    endloop
  endfacet
  facet normal -3.333423e-001  4.444564e-001  8.314695e-001
    outer loop
      vertex  5.669610e+001  3.773853e+001 -9.238795e+000
      vertex  4.469610e+001  2.873853e+001 -9.238795e+000
      vertex  4.664264e+001  2.614315e+001 -7.071068e+000
    endloop
  endfacet
  facet normal -3.333423e-001  4.444564e-001  8.314695e-001
    outer loop
      vertex  5.669610e+001  3.773853e+001 -9.238795e+000
      vertex  4.664264e+001  2.614315e+001 -7.071068e+000
      vertex  5.864264e+001  3.514315e+001 -7.071068e+000
    endloop
  endfacet
  facet normal -4.988818e-001  6.651757e-001  5.555703e-001
    outer loop
      vertex  5.864264e+001  3.514315e+001 -7.071068e+000
      vertex  4.664264e+001  2.614315e+001 -7.071068e+000
      vertex  4.794328e+001  2.440896e+001 -3.826834e+000
    endloop
  endfacet
  facet normal -4.988816e-001  6.651756e-001  5.555705e-001
    outer loop
      vertex  5.864264e+001  3.514315e+001 -7.071068e+000
      vertex  4.794328e+001  2.440896e+001 -3.826834e+000
      vertex  5.994328e+001  3.340896e+001 -3.826834e+000
    endloop
  endfacet
  facet normal -5.884710e-001  7.846282e-001  1.950910e-001
    outer loop
      vertex  5.994328e+001  3.340896e+001 -3.826834e+000
      vertex  4.794328e+001  2.440896e+001 -3.826834e+000
      vertex  4.840000e+001  2.380000e+001  1.224606e-015
    endloop
  endfacet
  facet normal -5.884711e-001  7.846282e-001  1.950907e-001
    outer loop
      vertex  5.994328e+001  3.340896e+001 -3.826834e+000
      vertex  4.840000e+001  2.380000e+001  1.224606e-015
      vertex  6.040000e+001  3.280000e+001  1.224606e-015
    endloop
  endfacet
  facet normal -1.170542e-001  1.560723e-001 -9.807853e-001
    outer loop
      vertex  4.240000e+001  3.180000e+001  1.000000e+001
      vertex  5.669610e+001  3.773853e+001  9.238795e+000
      vertex  4.469610e+001  2.873853e+001  9.238795e+000
    endloop
  endfacet
  facet normal -3.333423e-001  4.444564e-001 -8.314695e-001
    outer loop
      vertex  4.469610e+001  2.873853e+001  9.238795e+000
      vertex  5.669610e+001  3.773853e+001  9.238795e+000
      vertex  5.864264e+001  3.514315e+001  7.071068e+000
    endloop
  endfacet
  facet normal -3.333423e-001  4.444564e-001 -8.314695e-001
    outer loop
      vertex  4.469610e+001  2.873853e+001  9.238795e+000
      vertex  5.864264e+001  3.514315e+001  7.071068e+000
      vertex  4.664264e+001  2.614315e+001  7.071068e+000
    endloop
  endfacet
  facet normal -4.988816e-001  6.651755e-001 -5.555705e-001
    outer loop
      vertex  4.664264e+001  2.614315e+001  7.071068e+000
      vertex  5.864264e+001  3.514315e+001  7.071068e+000
      vertex  5.994328e+001  3.340896e+001  3.826834e+000
    endloop
  endfacet
  facet normal -4.988816e-001  6.651757e-001 -5.555702e-001
    outer loop
      vertex  4.664264e+001  2.614315e+001  7.071068e+000
      vertex  5.994328e+001  3.340896e+001  3.826834e+000
      vertex  4.794328e+001  2.440896e+001  3.826834e+000
    endloop
  endfacet
  facet normal -5.884711e-001  7.846283e-001 -1.950907e-001
    outer loop
      vertex  4.794328e+001  2.440896e+001  3.826834e+000
      vertex  5.994328e+001  3.340896e+001  3.826834e+000
      vertex  6.040000e+001  3.280000e+001  1.224606e-015
    endloop
  endfacet
  facet normal -5.884711e-001  7.846281e-001 -1.950910e-001
    outer loop
      vertex  4.794328e+001  2.440896e+001  3.826834e+000
      vertex  6.040000e+001  3.280000e+001  1.224606e-015
      vertex  4.840000e+001  2.380000e+001  1.224606e-015
    endloop
  endfacet
  facet normal -1.170542e-001  1.560723e-001 -9.807853e-001
    outer loop
      vertex  5.669610e+001  3.773853e+001  9.238795e+000
      vertex  4.240000e+001  3.180000e+001  1.000000e+001
      vertex  5.440000e+001  4.080000e+001  1.000000e+001
    endloop
  endfacet
  facet normal  1.170541e-001 -1.560722e-001 -9.807853e-001
    outer loop
      vertex  5.440000e+001  4.080000e+001  1.000000e+001
      vertex  4.240000e+001  3.180000e+001  1.000000e+001
      vertex  4.010390e+001  3.486147e+001  9.238795e+000
    endloop
  endfacet
  facet normal  1.170541e-001 -1.560722e-001 -9.807853e-001
    outer loop
      vertex  5.440000e+001  4.080000e+001  1.000000e+001
      vertex  4.010390e+001  3.486147e+001  9.238795e+000
      vertex  5.210390e+001  4.386147e+001  9.238795e+000
    endloop
  endfacet
  facet normal  3.333421e-001 -4.444561e-001 -8.314696e-001
    outer loop
      vertex  5.210390e+001  4.386147e+001  9.238795e+000
      vertex  4.010390e+001  3.486147e+001  9.238795e+000
      vertex  3.815736e+001  3.745686e+001  7.071068e+000
    endloop
  endfacet
  facet normal  3.333421e-001 -4.444561e-001 -8.314696e-001
    outer loop
      vertex  5.210390e+001  4.386147e+001  9.238795e+000
      vertex  3.815736e+001  3.745686e+001  7.071068e+000
      vertex  5.015736e+001  4.645686e+001  7.071068e+000
    endloop
  endfacet
  facet normal  4.988819e-001 -6.651759e-001 -5.555700e-001
    outer loop
      vertex  5.015736e+001  4.645686e+001  7.071068e+000
      vertex  3.815736e+001  3.745686e+001  7.071068e+000
      vertex  3.685672e+001  3.919104e+001  3.826834e+000
    endloop
  endfacet
  facet normal  4.988819e-001 -6.651759e-001 -5.555700e-001
    outer loop
      vertex  5.015736e+001  4.645686e+001  7.071068e+000
      vertex  3.685672e+001  3.919104e+001  3.826834e+000
      vertex  4.885672e+001  4.819104e+001  3.826834e+000
    endloop
  endfacet
  facet normal  5.884712e-001 -7.846283e-001 -1.950901e-001
    outer loop
      vertex  4.885672e+001  4.819104e+001  3.826834e+000
      vertex  3.685672e+001  3.919104e+001  3.826834e+000
      vertex  3.640000e+001  3.980000e+001  8.881784e-016
    endloop
  endfacet
  facet normal  5.884712e-001 -7.846283e-001 -1.950901e-001
    outer loop
      vertex  4.885672e+001  4.819104e+001  3.826834e+000
      vertex  3.640000e+001  3.980000e+001  8.881784e-016
      vertex  4.840000e+001  4.880000e+001  8.881784e-016
    endloop
  endfacet
  facet normal  8.000001e-001  5.999999e-001  1.503418e-006
    outer loop
      vertex  4.469610e+001  2.873853e+001  9.238795e+000
      vertex  4.010390e+001  3.486147e+001  9.238795e+000
      vertex  4.240000e+001  3.180000e+001  1.000000e+001
    endloop
  endfacet
  facet normal  8.000000e-001  5.999999e-001 -5.011395e-007
    outer loop
      vertex  4.010390e+001  3.486147e+001  9.238795e+000
      vertex  4.469610e+001  2.873853e+001  9.238795e+000
      vertex  3.815736e+001  3.745686e+001  7.071068e+000
    endloop
  endfacet
  facet normal  8.000001e-001  5.999998e-001 -8.136444e-007
    outer loop
      vertex  3.815736e+001  3.745686e+001  7.071068e+000
      vertex  4.469610e+001  2.873853e+001  9.238795e+000
      vertex  4.664264e+001  2.614315e+001  7.071068e+000
    endloop
  endfacet
  facet normal  8.000001e-001  5.999999e-001 -3.433085e-007
    outer loop
      vertex  3.815736e+001  3.745686e+001  7.071068e+000
      vertex  4.664264e+001  2.614315e+001  7.071068e+000
      vertex  3.685672e+001  3.919104e+001  3.826834e+000
    endloop
  endfacet
  facet normal  8.000001e-001  5.999999e-001 -4.861120e-008
    outer loop
      vertex  3.685672e+001  3.919104e+001  3.826834e+000
      vertex  4.664264e+001  2.614315e+001  7.071068e+000
      vertex  4.794328e+001  2.440896e+001  3.826834e+000
    endloop
  endfacet
  facet normal  8.000000e-001  5.999999e-001 -2.053270e-008
    outer loop
      vertex  3.685672e+001  3.919104e+001  3.826834e+000
      vertex  4.794328e+001  2.440896e+001  3.826834e+000
      vertex  3.640000e+001  3.980000e+001  8.881784e-016
    endloop
  endfacet
  facet normal  8.000000e-001  6.000000e-001  4.984142e-007
    outer loop
      vertex  3.640000e+001  3.980000e+001  8.881784e-016
      vertex  4.794328e+001  2.440896e+001  3.826834e+000
      vertex  4.840000e+001  2.380000e+001  1.224606e-015
    endloop
  endfacet
  facet normal  8.000000e-001  6.000000e-001  0.000000e+000
    outer loop
      vertex  3.640000e+001  3.980000e+001  8.881784e-016
      vertex  4.840000e+001  2.380000e+001  1.224606e-015
      vertex  3.685672e+001  3.919104e+001 -3.826834e+000
    endloop
  endfacet
  facet normal  8.000000e-001  5.999999e-001 -5.189470e-007
    outer loop
      vertex  3.685672e+001  3.919104e+001 -3.826834e+000
      vertex  4.840000e+001  2.380000e+001  1.224606e-015
      vertex  4.794328e+001  2.440896e+001 -3.826834e+000
    endloop
  endfacet
  facet normal  8.000001e-001  5.999999e-001  3.041405e-007
    outer loop
      vertex  3.685672e+001  3.919104e+001 -3.826834e+000
      vertex  4.794328e+001  2.440896e+001 -3.826834e+000
      vertex  3.815736e+001  3.745686e+001 -7.071068e+000
    endloop
  endfacet
  facet normal  8.000001e-001  5.999999e-001  9.443283e-009
    outer loop
      vertex  3.815736e+001  3.745686e+001 -7.071068e+000
      vertex  4.794328e+001  2.440896e+001 -3.826834e+000
      vertex  4.664264e+001  2.614315e+001 -7.071068e+000
    endloop
  endfacet
  facet normal  8.000001e-001  5.999998e-001  5.941702e-007
    outer loop
      vertex  3.815736e+001  3.745686e+001 -7.071068e+000
      vertex  4.664264e+001  2.614315e+001 -7.071068e+000
      vertex  4.010390e+001  3.486147e+001 -9.238795e+000
    endloop
  endfacet
  facet normal  8.000000e-001  5.999999e-001  9.066749e-007
    outer loop
      vertex  4.010390e+001  3.486147e+001 -9.238795e+000
      vertex  4.664264e+001  2.614315e+001 -7.071068e+000
      vertex  4.469610e+001  2.873853e+001 -9.238795e+000
    endloop
  endfacet
  facet normal  8.000001e-001  5.999999e-001 -1.503418e-006
    outer loop
      vertex  4.010390e+001  3.486147e+001 -9.238795e+000
      vertex  4.469610e+001  2.873853e+001 -9.238795e+000
      vertex  4.240000e+001  3.180000e+001 -1.000000e+001
    endloop
  endfacet
  facet normal -9.659261e-001 -2.588183e-001  -0.000000e+000
    outer loop
      vertex  8.507964e+001  1.000000e+001 -2.000000e+001
      vertex  8.447769e+001  1.224649e+001  2.000000e+001
      vertex  8.447769e+001  1.224649e+001 -2.000000e+001
    endloop
  endfacet
  facet normal -7.071069e-001 -7.071066e-001  0.000000e+000
    outer loop
      vertex  8.447769e+001  1.224649e+001 -2.000000e+001
      vertex  8.447769e+001  1.224649e+001  2.000000e+001
      vertex  8.283315e+001  1.389104e+001  2.000000e+001
    endloop
  endfacet
  facet normal -7.071069e-001 -7.071066e-001  -0.000000e+000
    outer loop
      vertex  8.447769e+001  1.224649e+001 -2.000000e+001
      vertex  8.283315e+001  1.389104e+001  2.000000e+001
      vertex  8.283315e+001  1.389104e+001 -2.000000e+001
    endloop
  endfacet
  facet normal -2.588193e-001 -9.659258e-001  0.000000e+000
    outer loop
      vertex  8.283315e+001  1.389104e+001 -2.000000e+001
      vertex  8.283315e+001  1.389104e+001  2.000000e+001
      vertex  8.058665e+001  1.449299e+001  2.000000e+001
    endloop
  endfacet
  facet normal -2.588193e-001 -9.659258e-001  -0.000000e+000
    outer loop
      vertex  8.283315e+001  1.389104e+001 -2.000000e+001
      vertex  8.058665e+001  1.449299e+001  2.000000e+001
      vertex  8.058665e+001  1.449299e+001 -2.000000e+001
    endloop
  endfacet
  facet normal -9.659261e-001 -2.588183e-001  0.000000e+000
    outer loop
      vertex  8.447769e+001  1.224649e+001  2.000000e+001
      vertex  8.507964e+001  1.000000e+001 -2.000000e+001
      vertex  8.507964e+001  1.000000e+001  2.000000e+001
    endloop
  endfacet
  facet normal -9.659261e-001  2.588183e-001  0.000000e+000
    outer loop
      vertex  8.507964e+001  1.000000e+001  2.000000e+001
      vertex  8.507964e+001  1.000000e+001 -2.000000e+001
      vertex  8.447769e+001  7.753507e+000 -2.000000e+001
    endloop
  endfacet
  facet normal -9.659261e-001  2.588183e-001  0.000000e+000
    outer loop
      vertex  8.507964e+001  1.000000e+001  2.000000e+001
      vertex  8.447769e+001  7.753507e+000 -2.000000e+001
      vertex  8.447769e+001  7.753507e+000  2.000000e+001
    endloop
  endfacet
  facet normal -7.071068e-001  7.071067e-001  0.000000e+000
    outer loop
      vertex  8.447769e+001  7.753507e+000  2.000000e+001
      vertex  8.447769e+001  7.753507e+000 -2.000000e+001
      vertex  8.283315e+001  6.108960e+000 -2.000000e+001
    endloop
  endfacet
  facet normal -7.071068e-001  7.071067e-001  0.000000e+000
    outer loop
      vertex  8.447769e+001  7.753507e+000  2.000000e+001
      vertex  8.283315e+001  6.108960e+000 -2.000000e+001
      vertex  8.283315e+001  6.108960e+000  2.000000e+001
    endloop
  endfacet
  facet normal -2.588193e-001  9.659258e-001  0.000000e+000
    outer loop
      vertex  8.283315e+001  6.108960e+000  2.000000e+001
      vertex  8.283315e+001  6.108960e+000 -2.000000e+001
      vertex  8.058665e+001  5.507014e+000 -2.000000e+001
    endloop
  endfacet
  facet normal -2.588193e-001  9.659258e-001  0.000000e+000
    outer loop
      vertex  8.283315e+001  6.108960e+000  2.000000e+001
      vertex  8.058665e+001  5.507014e+000 -2.000000e+001
      vertex  8.058665e+001  5.507014e+000  2.000000e+001
    endloop
  endfacet
  facet normal  0.000000e+000 -1.000000e+000  0.000000e+000
    outer loop
      vertex  6.058665e+001  1.449299e+001 -2.000000e+001
      vertex  8.058665e+001  1.449299e+001 -2.000000e+001
      vertex  6.058665e+001  1.449299e+001  2.000000e+001
    endloop
  endfacet
  facet normal  0.000000e+000 -1.000000e+000  0.000000e+000
    outer loop
      vertex  6.058665e+001  1.449299e+001  2.000000e+001
      vertex  8.058665e+001  1.449299e+001 -2.000000e+001
      vertex  8.058665e+001  1.449299e+001  2.000000e+001
    endloop
  endfacet
  facet normal  9.659261e-001  2.588183e-001  0.000000e+000
    outer loop
      vertex  5.609367e+001  1.000000e+001 -2.000000e+001
      vertex  5.669561e+001  7.753507e+000  2.000000e+001
      vertex  5.669561e+001  7.753507e+000 -2.000000e+001
    endloop
  endfacet
  facet normal  7.071068e-001  7.071067e-001  -0.000000e+000
    outer loop
      vertex  5.669561e+001  7.753507e+000 -2.000000e+001
      vertex  5.669561e+001  7.753507e+000  2.000000e+001
      vertex  5.834016e+001  6.108960e+000  2.000000e+001
    endloop
  endfacet
  facet normal  7.071068e-001  7.071067e-001  0.000000e+000
    outer loop
      vertex  5.669561e+001  7.753507e+000 -2.000000e+001
      vertex  5.834016e+001  6.108960e+000  2.000000e+001
      vertex  5.834016e+001  6.108960e+000 -2.000000e+001
    endloop
  endfacet
  facet normal  2.588189e-001  9.659259e-001  -0.000000e+000
    outer loop
      vertex  5.834016e+001  6.108960e+000 -2.000000e+001
      vertex  5.834016e+001  6.108960e+000  2.000000e+001
      vertex  6.058665e+001  5.507014e+000  2.000000e+001
    endloop
  endfacet
  facet normal  2.588189e-001  9.659259e-001  0.000000e+000
    outer loop
      vertex  5.834016e+001  6.108960e+000 -2.000000e+001
      vertex  6.058665e+001  5.507014e+000  2.000000e+001
      vertex  6.058665e+001  5.507014e+000 -2.000000e+001
    endloop
  endfacet
  facet normal  9.659261e-001  2.588183e-001  -0.000000e+000
    outer loop
      vertex  5.669561e+001  7.753507e+000  2.000000e+001
      vertex  5.609367e+001  1.000000e+001 -2.000000e+001
      vertex  5.609367e+001  1.000000e+001  2.000000e+001
    endloop
  endfacet
  facet normal  9.659261e-001 -2.588183e-001  0.000000e+000
    outer loop
      vertex  5.609367e+001  1.000000e+001  2.000000e+001
      vertex  5.609367e+001  1.000000e+001 -2.000000e+001
      vertex  5.669561e+001  1.224649e+001 -2.000000e+001
    endloop
  endfacet
  facet normal  9.659261e-001 -2.588183e-001  0.000000e+000
    outer loop
      vertex  5.609367e+001  1.000000e+001  2.000000e+001
      vertex  5.669561e+001  1.224649e+001 -2.000000e+001
      vertex  5.669561e+001  1.224649e+001  2.000000e+001
    endloop
  endfacet
  facet normal  7.071069e-001 -7.071066e-001  0.000000e+000
    outer loop
      vertex  5.669561e+001  1.224649e+001  2.000000e+001
      vertex  5.669561e+001  1.224649e+001 -2.000000e+001
      vertex  5.834016e+001  1.389104e+001 -2.000000e+001
    endloop
  endfacet
  facet normal  7.071069e-001 -7.071066e-001  0.000000e+000
    outer loop
      vertex  5.669561e+001  1.224649e+001  2.000000e+001
      vertex  5.834016e+001  1.389104e+001 -2.000000e+001
      vertex  5.834016e+001  1.389104e+001  2.000000e+001
    endloop
  endfacet
  facet normal  2.588189e-001 -9.659259e-001  0.000000e+000
    outer loop
      vertex  5.834016e+001  1.389104e+001  2.000000e+001
      vertex  5.834016e+001  1.389104e+001 -2.000000e+001
      vertex  6.058665e+001  1.449299e+001 -2.000000e+001
    endloop
  endfacet
  facet normal  2.588189e-001 -9.659259e-001  0.000000e+000
    outer loop
      vertex  5.834016e+001  1.389104e+001  2.000000e+001
      vertex  6.058665e+001  1.449299e+001 -2.000000e+001
      vertex  6.058665e+001  1.449299e+001  2.000000e+001
    endloop
  endfacet
  facet normal  0.000000e+000  1.000000e+000  0.000000e+000
    outer loop
      vertex  8.058665e+001  5.507014e+000 -2.000000e+001
      vertex  6.058665e+001  5.507014e+000 -2.000000e+001
      vertex  8.058665e+001  5.507014e+000  2.000000e+001
    endloop
  endfacet
  facet normal  0.000000e+000  1.000000e+000  0.000000e+000
    outer loop
      vertex  8.058665e+001  5.507014e+000  2.000000e+001
      vertex  6.058665e+001  5.507014e+000 -2.000000e+001
      vertex  6.058665e+001  5.507014e+000  2.000000e+001
    endloop
  endfacet
  facet normal  0.000000e+000  1.000000e+000  0.000000e+000
    outer loop
      vertex  1.422650e+001  2.000000e+001  2.000000e+001
      vertex  2.577350e+001  2.000000e+001  2.000000e+001
      vertex  1.422650e+001  2.000000e+001 -2.000000e+001
    endloop
  endfacet
  facet normal  0.000000e+000  1.000000e+000  0.000000e+000
    outer loop
      vertex  1.422650e+001  2.000000e+001 -2.000000e+001
      vertex  2.577350e+001  2.000000e+001  2.000000e+001
      vertex  2.577350e+001  2.000000e+001 -2.000000e+001
    endloop
  endfacet
  facet normal -8.660254e-001  5.000000e-001  0.000000e+000
    outer loop
      vertex  2.577350e+001  2.000000e+001 -2.000000e+001
      vertex  2.577350e+001  2.000000e+001  2.000000e+001
      vertex  3.154700e+001  3.000000e+001 -2.000000e+001
    endloop
  endfacet
  facet normal -8.660254e-001  5.000000e-001  0.000000e+000
    outer loop
      vertex  3.154700e+001  3.000000e+001 -2.000000e+001
      vertex  2.577350e+001  2.000000e+001  2.000000e+001
      vertex  3.154700e+001  3.000000e+001  2.000000e+001
    endloop
  endfacet
  facet normal -8.660254e-001 -5.000000e-001  -0.000000e+000
    outer loop
      vertex  3.154700e+001  3.000000e+001 -2.000000e+001
      vertex  3.154700e+001  3.000000e+001  2.000000e+001
      vertex  2.577350e+001  4.000000e+001 -2.000000e+001
    endloop
  endfacet
  facet normal -8.660254e-001 -5.000000e-001  0.000000e+000
    outer loop
      vertex  2.577350e+001  4.000000e+001 -2.000000e+001
      vertex  3.154700e+001  3.000000e+001  2.000000e+001
      vertex  2.577350e+001  4.000000e+001  2.000000e+001
    endloop
  endfacet
  facet normal  0.000000e+000 -1.000000e+000  -0.000000e+000
    outer loop
      vertex  2.577350e+001  4.000000e+001 -2.000000e+001
      vertex  2.577350e+001  4.000000e+001  2.000000e+001
      vertex  1.422650e+001  4.000000e+001 -2.000000e+001
    endloop
  endfacet
  facet normal  0.000000e+000 -1.000000e+000  0.000000e+000
    outer loop
      vertex  1.422650e+001  4.000000e+001 -2.000000e+001
      vertex  2.577350e+001  4.000000e+001  2.000000e+001
      vertex  1.422650e+001  4.000000e+001  2.000000e+001
    endloop
  endfacet
  facet normal  8.660254e-001 -5.000001e-001  0.000000e+000
    outer loop
      vertex  1.422650e+001  4.000000e+001 -2.000000e+001
      vertex  1.422650e+001  4.000000e+001  2.000000e+001
      vertex  8.452994e+000  3.000000e+001 -2.000000e+001
    endloop
  endfacet
  facet normal  8.660254e-001 -5.000001e-001  0.000000e+000
    outer loop
      vertex  8.452994e+000  3.000000e+001 -2.000000e+001
      vertex  1.422650e+001  4.000000e+001  2.000000e+001
      vertex  8.452994e+000  3.000000e+001  2.000000e+001
    endloop
  endfacet
  facet normal  8.660254e-001  5.000001e-001  0.000000e+000
    outer loop
      vertex  8.452994e+000  3.000000e+001 -2.000000e+001
      vertex  8.452994e+000  3.000000e+001  2.000000e+001
      vertex  1.422650e+001  2.000000e+001 -2.000000e+001
    endloop
  endfacet
  facet normal  8.660254e-001  5.000001e-001  -0.000000e+000
    outer loop
      vertex  1.422650e+001  2.000000e+001 -2.000000e+001
      vertex  8.452994e+000  3.000000e+001  2.000000e+001
      vertex  1.422650e+001  2.000000e+001  2.000000e+001
    endloop
  endfacet
  facet normal -1.950901e-001  9.807853e-001  0.000000e+000
    outer loop
      vertex  2.000000e+001  5.000000e+001 -2.000000e+001
      vertex  2.382683e+001  5.076120e+001  2.000000e+001
      vertex  2.382683e+001  5.076120e+001 -2.000000e+001
    endloop
  endfacet
  facet normal -5.555703e-001  8.314695e-001  0.000000e+000
    outer loop
      vertex  2.382683e+001  5.076120e+001 -2.000000e+001
      vertex  2.382683e+001  5.076120e+001  2.000000e+001
      vertex  2.707107e+001  5.292893e+001  2.000000e+001
    endloop
  endfacet
  facet normal -5.555703e-001  8.314695e-001  0.000000e+000
    outer loop
      vertex  2.382683e+001  5.076120e+001 -2.000000e+001
      vertex  2.707107e+001  5.292893e+001  2.000000e+001
      vertex  2.707107e+001  5.292893e+001 -2.000000e+001
    endloop
  endfacet
  facet normal -8.314694e-001  5.555705e-001  0.000000e+000
    outer loop
      vertex  2.707107e+001  5.292893e+001 -2.000000e+001
      vertex  2.707107e+001  5.292893e+001  2.000000e+001
      vertex  2.923880e+001  5.617316e+001  2.000000e+001
    endloop
  endfacet
  facet normal -8.314694e-001  5.555705e-001  0.000000e+000
    outer loop
      vertex  2.707107e+001  5.292893e+001 -2.000000e+001
      vertex  2.923880e+001  5.617316e+001  2.000000e+001
      vertex  2.923880e+001  5.617316e+001 -2.000000e+001
    endloop
  endfacet
  facet normal -9.807854e-001  1.950900e-001  0.000000e+000
    outer loop
      vertex  2.923880e+001  5.617316e+001 -2.000000e+001
      vertex  2.923880e+001  5.617316e+001  2.000000e+001
      vertex  3.000000e+001  6.000000e+001  2.000000e+001
    endloop
  endfacet
  facet normal -9.807854e-001  1.950900e-001  0.000000e+000
    outer loop
      vertex  2.923880e+001  5.617316e+001 -2.000000e+001
      vertex  3.000000e+001  6.000000e+001  2.000000e+001
      vertex  3.000000e+001  6.000000e+001 -2.000000e+001
    endloop
  endfacet
  facet normal -1.950901e-001  9.807853e-001  0.000000e+000
    outer loop
      vertex  2.382683e+001  5.076120e+001  2.000000e+001
      vertex  2.000000e+001  5.000000e+001 -2.000000e+001
      vertex  2.000000e+001  5.000000e+001  2.000000e+001
    endloop
  endfacet
  facet normal  1.950901e-001  9.807853e-001  0.000000e+000
    outer loop
      vertex  2.000000e+001  5.000000e+001  2.000000e+001
      vertex  2.000000e+001  5.000000e+001 -2.000000e+001
      vertex  1.617317e+001  5.076120e+001 -2.000000e+001
    endloop
  endfacet
  facet normal  1.950901e-001  9.807853e-001  -0.000000e+000
    outer loop
      vertex  2.000000e+001  5.000000e+001  2.000000e+001
      vertex  1.617317e+001  5.076120e+001 -2.000000e+001
      vertex  1.617317e+001  5.076120e+001  2.000000e+001
    endloop
  endfacet
  facet normal  5.555703e-001  8.314695e-001  0.000000e+000
    outer loop
      vertex  1.617317e+001  5.076120e+001  2.000000e+001
      vertex  1.617317e+001  5.076120e+001 -2.000000e+001
      vertex  1.292893e+001  5.292893e+001 -2.000000e+001
    endloop
  endfacet
  facet normal  5.555703e-001  8.314695e-001  -0.000000e+000
    outer loop
      vertex  1.617317e+001  5.076120e+001  2.000000e+001
      vertex  1.292893e+001  5.292893e+001 -2.000000e+001
      vertex  1.292893e+001  5.292893e+001  2.000000e+001
    endloop
  endfacet
  facet normal  8.314695e-001  5.555704e-001  0.000000e+000
    outer loop
      vertex  1.292893e+001  5.292893e+001  2.000000e+001
      vertex  1.292893e+001  5.292893e+001 -2.000000e+001
      vertex  1.076120e+001  5.617316e+001 -2.000000e+001
    endloop
  endfacet
  facet normal  8.314695e-001  5.555704e-001  -0.000000e+000
    outer loop
      vertex  1.292893e+001  5.292893e+001  2.000000e+001
      vertex  1.076120e+001  5.617316e+001 -2.000000e+001
      vertex  1.076120e+001  5.617316e+001  2.000000e+001
    endloop
  endfacet
  facet normal  9.807853e-001  1.950903e-001  0.000000e+000
    outer loop
      vertex  1.076120e+001  5.617316e+001  2.000000e+001
      vertex  1.076120e+001  5.617316e+001 -2.000000e+001
      vertex  1.000000e+001  6.000000e+001 -2.000000e+001
    endloop
  endfacet
  facet normal  9.807853e-001  1.950903e-001  -0.000000e+000
    outer loop
      vertex  1.076120e+001  5.617316e+001  2.000000e+001
      vertex  1.000000e+001  6.000000e+001 -2.000000e+001
      vertex  1.000000e+001  6.000000e+001  2.000000e+001
    endloop
  endfacet
  facet normal  1.000000e+000  0.000000e+000  0.000000e+000
    outer loop
      vertex  4.000000e+001  8.000000e+001 -2.000000e+001
      vertex  4.000000e+001  8.000000e+001  2.000000e+001
      vertex  4.000000e+001  6.000000e+001 -2.000000e+001
    endloop
  endfacet
  facet normal  1.000000e+000  0.000000e+000  0.000000e+000
    outer loop
      vertex  4.000000e+001  6.000000e+001 -2.000000e+001
      vertex  4.000000e+001  8.000000e+001  2.000000e+001
      vertex  4.000000e+001  6.000000e+001  2.000000e+001
    endloop
  endfacet
  facet normal  0.000000e+000  1.000000e+000  0.000000e+000
    outer loop
      vertex  7.000000e+001  2.000000e+001  2.000000e+001
      vertex  1.000000e+002  2.000000e+001  2.000000e+001
      vertex  7.000000e+001  2.000000e+001 -2.000000e+001
    endloop
  endfacet
  facet normal  0.000000e+000  1.000000e+000  0.000000e+000
    outer loop
      vertex  7.000000e+001  2.000000e+001 -2.000000e+001
      vertex  1.000000e+002  2.000000e+001  2.000000e+001
      vertex  1.000000e+002  2.000000e+001 -2.000000e+001
    endloop
  endfacet
endsolid CATIA STL
