solid CATIA STL
  facet normal  0.000000e+000 -1.000000e+000  0.000000e+000
    outer loop
      vertex  0.000000e+000  1.000000e+001 -3.000000e+001
      vertex  1.000000e+001  1.000000e+001 -3.000000e+001
      vertex  1.000000e+001  1.000000e+001  1.000000e+001
    endloop
  endfacet
  facet normal  -0.000000e+000 -1.000000e+000  0.000000e+000
    outer loop
      vertex  0.000000e+000  1.000000e+001 -3.000000e+001
      vertex  1.000000e+001  1.000000e+001  1.000000e+001
      vertex  1.000000e+001  1.000000e+001  2.000000e+001
    endloop
  endfacet
  facet normal  -0.000000e+000 -1.000000e+000  0.000000e+000
    outer loop
      vertex  0.000000e+000  1.000000e+001 -3.000000e+001
      vertex  1.000000e+001  1.000000e+001  2.000000e+001
      vertex  1.000000e+001  1.000000e+001  3.000000e+001
    endloop
  endfacet
  facet normal  -0.000000e+000 -1.000000e+000  0.000000e+000
    outer loop
      vertex  0.000000e+000  1.000000e+001 -3.000000e+001
      vertex  1.000000e+001  1.000000e+001  3.000000e+001
      vertex  0.000000e+000  1.000000e+001  3.000000e+001
    endloop
  endfacet
  facet normal  0.000000e+000 -1.000000e+000  0.000000e+000
    outer loop
      vertex  1.000000e+001  1.000000e+001  1.000000e+001
      vertex  5.000000e+001  1.000000e+001  1.000000e+001
      vertex  1.000000e+001  1.000000e+001  2.000000e+001
    endloop
  endfacet
  facet normal  0.000000e+000 -1.000000e+000  0.000000e+000
    outer loop
      vertex  1.000000e+001  1.000000e+001  2.000000e+001
      vertex  5.000000e+001  1.000000e+001  1.000000e+001
      vertex  5.000000e+001  1.000000e+001  2.000000e+001
    endloop
  endfacet
  facet normal  0.000000e+000 -1.000000e+000  0.000000e+000
    outer loop
      vertex -1.000000e+001  1.000000e+001  3.000000e+001
      vertex -2.000000e+001  1.000000e+001  3.000000e+001
      vertex -2.000000e+001  1.000000e+001  2.000000e+001
    endloop
  endfacet
  facet normal  0.000000e+000 -1.000000e+000  0.000000e+000
    outer loop
      vertex -1.000000e+001  1.000000e+001  3.000000e+001
      vertex -2.000000e+001  1.000000e+001  2.000000e+001
      vertex -2.000000e+001  1.000000e+001  1.000000e+001
    endloop
  endfacet
  facet normal  0.000000e+000 -1.000000e+000  0.000000e+000
    outer loop
      vertex -1.000000e+001  1.000000e+001  3.000000e+001
      vertex -2.000000e+001  1.000000e+001  1.000000e+001
      vertex -2.000000e+001  1.000000e+001 -3.000000e+001
    endloop
  endfacet
  facet normal  0.000000e+000 -1.000000e+000  0.000000e+000
    outer loop
      vertex -1.000000e+001  1.000000e+001  3.000000e+001
      vertex -2.000000e+001  1.000000e+001 -3.000000e+001
      vertex -1.000000e+001  1.000000e+001 -3.000000e+001
    endloop
  endfacet
  facet normal  0.000000e+000 -1.000000e+000  0.000000e+000
    outer loop
      vertex -5.000000e+001  1.000000e+001  1.000000e+001
      vertex -2.000000e+001  1.000000e+001  1.000000e+001
      vertex -5.000000e+001  1.000000e+001  2.000000e+001
    endloop
  endfacet
  facet normal  0.000000e+000 -1.000000e+000  0.000000e+000
    outer loop
      vertex -5.000000e+001  1.000000e+001  2.000000e+001
      vertex -2.000000e+001  1.000000e+001  1.000000e+001
      vertex -2.000000e+001  1.000000e+001  2.000000e+001
    endloop
  endfacet
  facet normal  1.000000e+000  -0.000000e+000  0.000000e+000
    outer loop
      vertex  4.300000e+001 -9.882966e+000  5.901396e+000
      vertex  4.300000e+001 -1.104963e+001  2.178092e+000
      vertex  4.300000e+001 -6.105749e+000  9.891579e-001
    endloop
  endfacet
  facet normal  1.000000e+000  0.000000e+000  -0.000000e+000
    outer loop
      vertex  4.300000e+001 -9.882966e+000  5.901396e+000
      vertex  4.300000e+001 -6.105749e+000  9.891579e-001
      vertex  4.300000e+001 -5.495054e+000  3.504268e+000
    endloop
  endfacet
  facet normal  1.000000e+000  0.000000e+000  -0.000000e+000
    outer loop
      vertex  4.300000e+001 -9.882966e+000  5.901396e+000
      vertex  4.300000e+001 -5.495054e+000  3.504268e+000
      vertex  4.300000e+001 -3.708621e+000  5.377070e+000
    endloop
  endfacet
  facet normal  1.000000e+000  0.000000e+000  -0.000000e+000
    outer loop
      vertex  4.300000e+001 -9.882966e+000  5.901396e+000
      vertex  4.300000e+001 -3.708621e+000  5.377070e+000
      vertex  4.300000e+001 -1.225124e+000  6.105749e+000
    endloop
  endfacet
  facet normal  1.000000e+000  0.000000e+000  0.000000e+000
    outer loop
      vertex  4.300000e+001 -9.882966e+000  5.901396e+000
      vertex  4.300000e+001 -1.225124e+000  6.105749e+000
      vertex  4.300000e+001 -8.089323e+000  8.265990e+000
    endloop
  endfacet
  facet normal  1.000000e+000  -0.000000e+000  0.000000e+000
    outer loop
      vertex  4.300000e+001  3.466376e+000  1.000000e+001
      vertex  4.300000e+001 -5.680657e+000  1.000000e+001
      vertex  4.300000e+001  6.561625e+000  7.525086e+000
    endloop
  endfacet
  facet normal  9.999999e-001  0.000000e+000  0.000000e+000
    outer loop
      vertex  4.300000e+001  6.561625e+000  7.525086e+000
      vertex  4.300000e+001 -5.680657e+000  1.000000e+001
      vertex  4.300000e+001  1.289987e+000  5.495054e+000
    endloop
  endfacet
  facet normal  1.000000e+000  -0.000000e+000  0.000000e+000
    outer loop
      vertex  4.300000e+001 -5.680657e+000  1.000000e+001
      vertex  4.300000e+001 -8.089323e+000  8.265990e+000
      vertex  4.300000e+001  1.289987e+000  5.495054e+000
    endloop
  endfacet
  facet normal  1.000000e+000  0.000000e+000  0.000000e+000
    outer loop
      vertex  4.300000e+001  1.289987e+000  5.495054e+000
      vertex  4.300000e+001 -8.089323e+000  8.265990e+000
      vertex  4.300000e+001 -1.225124e+000  6.105749e+000
    endloop
  endfacet
  facet normal  1.000000e+000  0.000000e+000  0.000000e+000
    outer loop
      vertex  4.300000e+001  1.708255e+000 -8.488356e+000
      vertex  4.300000e+001 -9.891579e-001 -3.891467e+000
      vertex  4.300000e+001 -2.178092e+000 -8.835347e+000
    endloop
  endfacet
  facet normal  1.000000e+000  0.000000e+000  -0.000000e+000
    outer loop
      vertex  4.300000e+001 -2.178092e+000 -8.835347e+000
      vertex  4.300000e+001 -9.891579e-001 -3.891467e+000
      vertex  4.300000e+001 -3.504268e+000 -3.280772e+000
    endloop
  endfacet
  facet normal  1.000000e+000  0.000000e+000  0.000000e+000
    outer loop
      vertex  4.300000e+001 -2.178092e+000 -8.835347e+000
      vertex  4.300000e+001 -3.504268e+000 -3.280772e+000
      vertex  4.300000e+001 -5.901396e+000 -7.668685e+000
    endloop
  endfacet
  facet normal  1.000000e+000  0.000000e+000  -0.000000e+000
    outer loop
      vertex  4.300000e+001 -5.901396e+000 -7.668685e+000
      vertex  4.300000e+001 -3.504268e+000 -3.280772e+000
      vertex  4.300000e+001 -1.070264e+001 -1.708255e+000
    endloop
  endfacet
  facet normal  1.000000e+000  0.000000e+000  0.000000e+000
    outer loop
      vertex  4.300000e+001 -5.901396e+000 -7.668685e+000
      vertex  4.300000e+001 -1.070264e+001 -1.708255e+000
      vertex  4.300000e+001 -8.894818e+000 -5.165983e+000
    endloop
  endfacet
  facet normal  1.000000e+000  0.000000e+000  0.000000e+000
    outer loop
      vertex  4.300000e+001 -3.504268e+000 -3.280772e+000
      vertex  4.300000e+001 -5.377070e+000 -1.494339e+000
      vertex  4.300000e+001 -1.070264e+001 -1.708255e+000
    endloop
  endfacet
  facet normal  1.000000e+000  0.000000e+000  0.000000e+000
    outer loop
      vertex  4.300000e+001 -1.070264e+001 -1.708255e+000
      vertex  4.300000e+001 -5.377070e+000 -1.494339e+000
      vertex  4.300000e+001 -6.105749e+000  9.891579e-001
    endloop
  endfacet
  facet normal  1.000000e+000  0.000000e+000  0.000000e+000
    outer loop
      vertex  4.300000e+001 -1.070264e+001 -1.708255e+000
      vertex  4.300000e+001 -6.105749e+000  9.891579e-001
      vertex  4.300000e+001 -1.104963e+001  2.178092e+000
    endloop
  endfacet
  facet normal  1.000000e+000  0.000000e+000  0.000000e+000
    outer loop
      vertex  4.300000e+001  1.494339e+000 -3.162789e+000
      vertex  4.300000e+001 -9.891579e-001 -3.891467e+000
      vertex  4.300000e+001  7.668685e+000 -3.687115e+000
    endloop
  endfacet
  facet normal  1.000000e+000  0.000000e+000  0.000000e+000
    outer loop
      vertex  4.300000e+001  7.668685e+000 -3.687115e+000
      vertex  4.300000e+001 -9.891579e-001 -3.891467e+000
      vertex  4.300000e+001  1.708255e+000 -8.488356e+000
    endloop
  endfacet
  facet normal  1.000000e+000  0.000000e+000  0.000000e+000
    outer loop
      vertex  4.300000e+001  7.668685e+000 -3.687115e+000
      vertex  4.300000e+001  1.708255e+000 -8.488356e+000
      vertex  4.300000e+001  5.165983e+000 -6.680537e+000
    endloop
  endfacet
  facet normal  1.000000e+000  0.000000e+000  0.000000e+000
    outer loop
      vertex  4.300000e+001  3.891467e+000  1.225124e+000
      vertex  4.300000e+001  3.280772e+000 -1.289987e+000
      vertex  4.300000e+001  8.841843e+000  9.831350e-002
    endloop
  endfacet
  facet normal  1.000000e+000  0.000000e+000  0.000000e+000
    outer loop
      vertex  4.300000e+001  8.841843e+000  9.831350e-002
      vertex  4.300000e+001  3.280772e+000 -1.289987e+000
      vertex  4.300000e+001  1.494339e+000 -3.162789e+000
    endloop
  endfacet
  facet normal  1.000000e+000  -0.000000e+000  0.000000e+000
    outer loop
      vertex  4.300000e+001  8.841843e+000  9.831350e-002
      vertex  4.300000e+001  1.494339e+000 -3.162789e+000
      vertex  4.300000e+001  7.668685e+000 -3.687115e+000
    endloop
  endfacet
  facet normal  1.000000e+000  0.000000e+000  0.000000e+000
    outer loop
      vertex  4.300000e+001  8.841843e+000  9.831350e-002
      vertex  4.300000e+001  8.452436e+000  4.042186e+000
      vertex  4.300000e+001  3.891467e+000  1.225124e+000
    endloop
  endfacet
  facet normal  1.000000e+000  0.000000e+000  -0.000000e+000
    outer loop
      vertex  4.300000e+001  3.891467e+000  1.225124e+000
      vertex  4.300000e+001  8.452436e+000  4.042186e+000
      vertex  4.300000e+001  3.162789e+000  3.708621e+000
    endloop
  endfacet
  facet normal  1.000000e+000  0.000000e+000  0.000000e+000
    outer loop
      vertex  4.300000e+001  8.452436e+000  4.042186e+000
      vertex  4.300000e+001  6.561625e+000  7.525086e+000
      vertex  4.300000e+001  3.162789e+000  3.708621e+000
    endloop
  endfacet
  facet normal  1.000000e+000  0.000000e+000  -0.000000e+000
    outer loop
      vertex  4.300000e+001  3.162789e+000  3.708621e+000
      vertex  4.300000e+001  6.561625e+000  7.525086e+000
      vertex  4.300000e+001  1.289987e+000  5.495054e+000
    endloop
  endfacet
  facet normal  1.000000e+000  0.000000e+000  -0.000000e+000
    outer loop
      vertex -2.000000e+001  0.000000e+000 -3.000000e+001
      vertex -2.000000e+001  1.000000e+001 -3.000000e+001
      vertex -2.000000e+001  1.000000e+001  1.000000e+001
    endloop
  endfacet
  facet normal  1.000000e+000  0.000000e+000  0.000000e+000
    outer loop
      vertex -2.000000e+001  0.000000e+000 -3.000000e+001
      vertex -2.000000e+001  1.000000e+001  1.000000e+001
      vertex -2.000000e+001  3.280772e+000 -1.289987e+000
    endloop
  endfacet
  facet normal  1.000000e+000  0.000000e+000  0.000000e+000
    outer loop
      vertex -2.000000e+001  0.000000e+000 -3.000000e+001
      vertex -2.000000e+001  3.280772e+000 -1.289987e+000
      vertex -2.000000e+001  1.906986e+000 -2.882225e+000
    endloop
  endfacet
  facet normal  1.000000e+000  0.000000e+000  0.000000e+000
    outer loop
      vertex -2.000000e+001  0.000000e+000 -3.000000e+001
      vertex -2.000000e+001  1.906986e+000 -2.882225e+000
      vertex -2.000000e+001  0.000000e+000 -3.768743e+000
    endloop
  endfacet
  facet normal  1.000000e+000  -0.000000e+000  0.000000e+000
    outer loop
      vertex -2.000000e+001  1.000000e+001  1.000000e+001
      vertex -2.000000e+001  0.000000e+000  1.000000e+001
      vertex -2.000000e+001  0.000000e+000  5.983024e+000
    endloop
  endfacet
  facet normal  1.000000e+000  -0.000000e+000  0.000000e+000
    outer loop
      vertex -2.000000e+001  1.000000e+001  1.000000e+001
      vertex -2.000000e+001  0.000000e+000  5.983024e+000
      vertex -2.000000e+001  2.056837e+000  4.978736e+000
    endloop
  endfacet
  facet normal  1.000000e+000  -0.000000e+000  0.000000e+000
    outer loop
      vertex -2.000000e+001  1.000000e+001  1.000000e+001
      vertex -2.000000e+001  2.056837e+000  4.978736e+000
      vertex -2.000000e+001  3.450608e+000  3.163089e+000
    endloop
  endfacet
  facet normal  9.999999e-001  -0.000000e+000  0.000000e+000
    outer loop
      vertex -2.000000e+001  1.000000e+001  1.000000e+001
      vertex -2.000000e+001  3.450608e+000  3.163089e+000
      vertex -2.000000e+001  3.889227e+000  9.165840e-001
    endloop
  endfacet
  facet normal  1.000000e+000  -0.000000e+000  0.000000e+000
    outer loop
      vertex -2.000000e+001  1.000000e+001  1.000000e+001
      vertex -2.000000e+001  3.889227e+000  9.165840e-001
      vertex -2.000000e+001  3.280772e+000 -1.289987e+000
    endloop
  endfacet
  facet normal  1.000000e+000  -0.000000e+000  0.000000e+000
    outer loop
      vertex -2.000000e+001  1.000000e+001  3.000000e+001
      vertex -2.000000e+001  0.000000e+000  3.000000e+001
      vertex -2.000000e+001  1.000000e+001  2.000000e+001
    endloop
  endfacet
  facet normal  1.000000e+000  0.000000e+000  0.000000e+000
    outer loop
      vertex -2.000000e+001  1.000000e+001  2.000000e+001
      vertex -2.000000e+001  0.000000e+000  3.000000e+001
      vertex -2.000000e+001  0.000000e+000  2.000000e+001
    endloop
  endfacet
  facet normal -1.000000e+000  0.000000e+000  0.000000e+000
    outer loop
      vertex  1.000000e+001  1.000000e+001  1.000000e+001
      vertex  1.000000e+001  3.280772e+000 -1.289987e+000
      vertex  1.000000e+001  3.889227e+000  9.165840e-001
    endloop
  endfacet
  facet normal -9.999999e-001  0.000000e+000  0.000000e+000
    outer loop
      vertex  1.000000e+001  1.000000e+001  1.000000e+001
      vertex  1.000000e+001  3.889227e+000  9.165840e-001
      vertex  1.000000e+001  3.450608e+000  3.163089e+000
    endloop
  endfacet
  facet normal -1.000000e+000  0.000000e+000  0.000000e+000
    outer loop
      vertex  1.000000e+001  1.000000e+001  1.000000e+001
      vertex  1.000000e+001  3.450608e+000  3.163089e+000
      vertex  1.000000e+001  2.056837e+000  4.978736e+000
    endloop
  endfacet
  facet normal -1.000000e+000  0.000000e+000  0.000000e+000
    outer loop
      vertex  1.000000e+001  1.000000e+001  1.000000e+001
      vertex  1.000000e+001  2.056837e+000  4.978736e+000
      vertex  1.000000e+001  0.000000e+000  5.983024e+000
    endloop
  endfacet
  facet normal -1.000000e+000  0.000000e+000  0.000000e+000
    outer loop
      vertex  1.000000e+001  1.000000e+001  1.000000e+001
      vertex  1.000000e+001  0.000000e+000  5.983024e+000
      vertex  1.000000e+001  0.000000e+000  1.000000e+001
    endloop
  endfacet
  facet normal -1.000000e+000  0.000000e+000  0.000000e+000
    outer loop
      vertex  1.000000e+001  1.000000e+001 -3.000000e+001
      vertex  1.000000e+001  0.000000e+000 -3.000000e+001
      vertex  1.000000e+001  0.000000e+000 -3.768743e+000
    endloop
  endfacet
  facet normal -1.000000e+000  0.000000e+000  0.000000e+000
    outer loop
      vertex  1.000000e+001  1.000000e+001 -3.000000e+001
      vertex  1.000000e+001  0.000000e+000 -3.768743e+000
      vertex  1.000000e+001  1.906986e+000 -2.882225e+000
    endloop
  endfacet
  facet normal -9.999999e-001  0.000000e+000  0.000000e+000
    outer loop
      vertex  1.000000e+001  1.000000e+001 -3.000000e+001
      vertex  1.000000e+001  1.906986e+000 -2.882225e+000
      vertex  1.000000e+001  3.280772e+000 -1.289987e+000
    endloop
  endfacet
  facet normal -1.000000e+000  0.000000e+000  0.000000e+000
    outer loop
      vertex  1.000000e+001  1.000000e+001 -3.000000e+001
      vertex  1.000000e+001  3.280772e+000 -1.289987e+000
      vertex  1.000000e+001  1.000000e+001  1.000000e+001
    endloop
  endfacet
  facet normal -1.000000e+000  -0.000000e+000  0.000000e+000
    outer loop
      vertex  1.000000e+001  0.000000e+000  3.000000e+001
      vertex  1.000000e+001  1.000000e+001  3.000000e+001
      vertex  1.000000e+001  0.000000e+000  2.000000e+001
    endloop
  endfacet
  facet normal -1.000000e+000  0.000000e+000  0.000000e+000
    outer loop
      vertex  1.000000e+001  0.000000e+000  2.000000e+001
      vertex  1.000000e+001  1.000000e+001  3.000000e+001
      vertex  1.000000e+001  1.000000e+001  2.000000e+001
    endloop
  endfacet
  facet normal  0.000000e+000  1.000000e+000  0.000000e+000
    outer loop
      vertex -2.000000e+001  0.000000e+000  5.983024e+000
      vertex -2.000000e+001  0.000000e+000  1.000000e+001
      vertex  1.000000e+001  0.000000e+000  5.983024e+000
    endloop
  endfacet
  facet normal  0.000000e+000  1.000000e+000  -0.000000e+000
    outer loop
      vertex  1.000000e+001  0.000000e+000  5.983024e+000
      vertex -2.000000e+001  0.000000e+000  1.000000e+001
      vertex  1.000000e+001  0.000000e+000  1.000000e+001
    endloop
  endfacet
  facet normal  -0.000000e+000  0.000000e+000  1.000000e+000
    outer loop
      vertex -1.000000e+001  3.000000e+001  3.000000e+001
      vertex -5.000000e+001  3.000000e+001  3.000000e+001
      vertex -1.000000e+001  1.000000e+001  3.000000e+001
    endloop
  endfacet
  facet normal  0.000000e+000  0.000000e+000  1.000000e+000
    outer loop
      vertex -1.000000e+001  1.000000e+001  3.000000e+001
      vertex -5.000000e+001  3.000000e+001  3.000000e+001
      vertex -2.000000e+001  1.000000e+001  3.000000e+001
    endloop
  endfacet
  facet normal  0.000000e+000  0.000000e+000  1.000000e+000
    outer loop
      vertex -5.000000e+001  3.000000e+001  3.000000e+001
      vertex -5.000000e+001  0.000000e+000  3.000000e+001
      vertex -2.000000e+001  1.000000e+001  3.000000e+001
    endloop
  endfacet
  facet normal  0.000000e+000  0.000000e+000  1.000000e+000
    outer loop
      vertex -2.000000e+001  1.000000e+001  3.000000e+001
      vertex -5.000000e+001  0.000000e+000  3.000000e+001
      vertex -2.000000e+001  0.000000e+000  3.000000e+001
    endloop
  endfacet
  facet normal  0.000000e+000  0.000000e+000  1.000000e+000
    outer loop
      vertex  5.000000e+001  0.000000e+000  3.000000e+001
      vertex  5.000000e+001  3.000000e+001  3.000000e+001
      vertex  1.000000e+001  0.000000e+000  3.000000e+001
    endloop
  endfacet
  facet normal  0.000000e+000  0.000000e+000  1.000000e+000
    outer loop
      vertex  1.000000e+001  0.000000e+000  3.000000e+001
      vertex  5.000000e+001  3.000000e+001  3.000000e+001
      vertex  1.000000e+001  1.000000e+001  3.000000e+001
    endloop
  endfacet
  facet normal  -0.000000e+000  0.000000e+000  1.000000e+000
    outer loop
      vertex  5.000000e+001  3.000000e+001  3.000000e+001
      vertex  0.000000e+000  3.000000e+001  3.000000e+001
      vertex  1.000000e+001  1.000000e+001  3.000000e+001
    endloop
  endfacet
  facet normal  0.000000e+000  0.000000e+000  1.000000e+000
    outer loop
      vertex  1.000000e+001  1.000000e+001  3.000000e+001
      vertex  0.000000e+000  3.000000e+001  3.000000e+001
      vertex  0.000000e+000  1.000000e+001  3.000000e+001
    endloop
  endfacet
  facet normal  0.000000e+000  0.000000e+000  1.000000e+000
    outer loop
      vertex -5.000000e+001 -3.000000e+001  3.000000e+001
      vertex  5.000000e+001 -3.000000e+001  3.000000e+001
      vertex -5.000000e+001 -1.000000e+001  3.000000e+001
    endloop
  endfacet
  facet normal  -0.000000e+000  0.000000e+000  1.000000e+000
    outer loop
      vertex -5.000000e+001 -1.000000e+001  3.000000e+001
      vertex  5.000000e+001 -3.000000e+001  3.000000e+001
      vertex  5.000000e+001 -1.000000e+001  3.000000e+001
    endloop
  endfacet
  facet normal  1.000000e+000  0.000000e+000  -0.000000e+000
    outer loop
      vertex  5.000000e+001 -3.000000e+001  3.000000e+001
      vertex  5.000000e+001 -2.000000e+001  2.000000e+001
      vertex  5.000000e+001 -1.000000e+001  3.000000e+001
    endloop
  endfacet
  facet normal  1.000000e+000  0.000000e+000  0.000000e+000
    outer loop
      vertex  5.000000e+001 -3.000000e+001  3.000000e+001
      vertex  5.000000e+001 -3.000000e+001 -3.000000e+001
      vertex  5.000000e+001 -2.000000e+001  2.000000e+001
    endloop
  endfacet
  facet normal  1.000000e+000  0.000000e+000  -0.000000e+000
    outer loop
      vertex  5.000000e+001 -2.000000e+001  1.000000e+001
      vertex  5.000000e+001 -8.089323e+000  8.265990e+000
      vertex  5.000000e+001 -5.680657e+000  1.000000e+001
    endloop
  endfacet
  facet normal  1.000000e+000  0.000000e+000  -0.000000e+000
    outer loop
      vertex  5.000000e+001 -2.000000e+001  1.000000e+001
      vertex  5.000000e+001 -9.882966e+000  5.901396e+000
      vertex  5.000000e+001 -8.089323e+000  8.265990e+000
    endloop
  endfacet
  facet normal  1.000000e+000  0.000000e+000  -0.000000e+000
    outer loop
      vertex  5.000000e+001  3.466376e+000  1.000000e+001
      vertex  5.000000e+001  6.561625e+000  7.525086e+000
      vertex  5.000000e+001  1.000000e+001  1.000000e+001
    endloop
  endfacet
  facet normal  1.000000e+000  0.000000e+000  0.000000e+000
    outer loop
      vertex  5.000000e+001 -1.000000e+001  3.000000e+001
      vertex  5.000000e+001 -2.000000e+001  2.000000e+001
      vertex  5.000000e+001 -1.000000e+001  2.000000e+001
    endloop
  endfacet
  facet normal  1.000000e+000  0.000000e+000  0.000000e+000
    outer loop
      vertex  5.000000e+001  3.000000e+001 -3.000000e+001
      vertex  5.000000e+001  3.000000e+001  3.000000e+001
      vertex  5.000000e+001  1.000000e+001  2.000000e+001
    endloop
  endfacet
  facet normal  1.000000e+000  0.000000e+000  0.000000e+000
    outer loop
      vertex  5.000000e+001  3.000000e+001 -3.000000e+001
      vertex  5.000000e+001  1.000000e+001  2.000000e+001
      vertex  5.000000e+001  1.000000e+001  1.000000e+001
    endloop
  endfacet
  facet normal  9.999999e-001  0.000000e+000  0.000000e+000
    outer loop
      vertex  5.000000e+001  3.000000e+001 -3.000000e+001
      vertex  5.000000e+001  1.000000e+001  1.000000e+001
      vertex  5.000000e+001  6.561625e+000  7.525086e+000
    endloop
  endfacet
  facet normal  1.000000e+000  0.000000e+000  0.000000e+000
    outer loop
      vertex  5.000000e+001  3.000000e+001 -3.000000e+001
      vertex  5.000000e+001  6.561625e+000  7.525086e+000
      vertex  5.000000e+001  8.452436e+000  4.042186e+000
    endloop
  endfacet
  facet normal  1.000000e+000  0.000000e+000  0.000000e+000
    outer loop
      vertex  5.000000e+001  3.000000e+001 -3.000000e+001
      vertex  5.000000e+001  8.452436e+000  4.042186e+000
      vertex  5.000000e+001  8.841843e+000  9.831350e-002
    endloop
  endfacet
  facet normal  1.000000e+000  0.000000e+000  0.000000e+000
    outer loop
      vertex  5.000000e+001  3.000000e+001 -3.000000e+001
      vertex  5.000000e+001  8.841843e+000  9.831350e-002
      vertex  5.000000e+001  7.668685e+000 -3.687115e+000
    endloop
  endfacet
  facet normal  1.000000e+000  0.000000e+000  0.000000e+000
    outer loop
      vertex  5.000000e+001  3.000000e+001 -3.000000e+001
      vertex  5.000000e+001  7.668685e+000 -3.687115e+000
      vertex  5.000000e+001  5.165983e+000 -6.680537e+000
    endloop
  endfacet
  facet normal  1.000000e+000  0.000000e+000  0.000000e+000
    outer loop
      vertex  5.000000e+001  3.000000e+001 -3.000000e+001
      vertex  5.000000e+001  5.165983e+000 -6.680537e+000
      vertex  5.000000e+001  1.708255e+000 -8.488356e+000
    endloop
  endfacet
  facet normal  1.000000e+000  0.000000e+000  0.000000e+000
    outer loop
      vertex  5.000000e+001  3.000000e+001 -3.000000e+001
      vertex  5.000000e+001  1.708255e+000 -8.488356e+000
      vertex  5.000000e+001 -2.178092e+000 -8.835347e+000
    endloop
  endfacet
  facet normal  1.000000e+000  0.000000e+000  0.000000e+000
    outer loop
      vertex  5.000000e+001  3.000000e+001 -3.000000e+001
      vertex  5.000000e+001 -2.178092e+000 -8.835347e+000
      vertex  5.000000e+001 -3.000000e+001 -3.000000e+001
    endloop
  endfacet
  facet normal  1.000000e+000  0.000000e+000  0.000000e+000
    outer loop
      vertex  5.000000e+001 -3.000000e+001 -3.000000e+001
      vertex  5.000000e+001 -2.178092e+000 -8.835347e+000
      vertex  5.000000e+001 -5.901396e+000 -7.668685e+000
    endloop
  endfacet
  facet normal  1.000000e+000  0.000000e+000  0.000000e+000
    outer loop
      vertex  5.000000e+001 -3.000000e+001 -3.000000e+001
      vertex  5.000000e+001 -5.901396e+000 -7.668685e+000
      vertex  5.000000e+001 -8.894818e+000 -5.165983e+000
    endloop
  endfacet
  facet normal  1.000000e+000  0.000000e+000  0.000000e+000
    outer loop
      vertex  5.000000e+001 -3.000000e+001 -3.000000e+001
      vertex  5.000000e+001 -8.894818e+000 -5.165983e+000
      vertex  5.000000e+001 -1.070264e+001 -1.708255e+000
    endloop
  endfacet
  facet normal  1.000000e+000  0.000000e+000  0.000000e+000
    outer loop
      vertex  5.000000e+001 -3.000000e+001 -3.000000e+001
      vertex  5.000000e+001 -1.070264e+001 -1.708255e+000
      vertex  5.000000e+001 -1.104963e+001  2.178092e+000
    endloop
  endfacet
  facet normal  1.000000e+000  0.000000e+000  -0.000000e+000
    outer loop
      vertex  5.000000e+001 -3.000000e+001 -3.000000e+001
      vertex  5.000000e+001 -1.104963e+001  2.178092e+000
      vertex  5.000000e+001 -9.882966e+000  5.901396e+000
    endloop
  endfacet
  facet normal  1.000000e+000  0.000000e+000  0.000000e+000
    outer loop
      vertex  5.000000e+001 -3.000000e+001 -3.000000e+001
      vertex  5.000000e+001 -9.882966e+000  5.901396e+000
      vertex  5.000000e+001 -2.000000e+001  1.000000e+001
    endloop
  endfacet
  facet normal  1.000000e+000  0.000000e+000  -0.000000e+000
    outer loop
      vertex  5.000000e+001 -3.000000e+001 -3.000000e+001
      vertex  5.000000e+001 -2.000000e+001  1.000000e+001
      vertex  5.000000e+001 -2.000000e+001  2.000000e+001
    endloop
  endfacet
  facet normal  1.000000e+000  0.000000e+000  0.000000e+000
    outer loop
      vertex  5.000000e+001  0.000000e+000  2.000000e+001
      vertex  5.000000e+001  1.000000e+001  2.000000e+001
      vertex  5.000000e+001  0.000000e+000  3.000000e+001
    endloop
  endfacet
  facet normal  1.000000e+000  -0.000000e+000  0.000000e+000
    outer loop
      vertex  5.000000e+001  0.000000e+000  3.000000e+001
      vertex  5.000000e+001  1.000000e+001  2.000000e+001
      vertex  5.000000e+001  3.000000e+001  3.000000e+001
    endloop
  endfacet
  facet normal -9.999999e-001  -0.000000e+000  0.000000e+000
    outer loop
      vertex -5.000000e+001 -2.000000e+001  1.000000e+001
      vertex -5.000000e+001 -1.225124e+000  6.105749e+000
      vertex -5.000000e+001 -3.708621e+000  5.377070e+000
    endloop
  endfacet
  facet normal -1.000000e+000  -0.000000e+000  0.000000e+000
    outer loop
      vertex -5.000000e+001 -2.000000e+001  1.000000e+001
      vertex -5.000000e+001 -3.708621e+000  5.377070e+000
      vertex -5.000000e+001 -5.495054e+000  3.504268e+000
    endloop
  endfacet
  facet normal -1.000000e+000  -0.000000e+000  0.000000e+000
    outer loop
      vertex -5.000000e+001 -2.000000e+001  1.000000e+001
      vertex -5.000000e+001 -5.495054e+000  3.504268e+000
      vertex -5.000000e+001 -3.000000e+001 -3.000000e+001
    endloop
  endfacet
  facet normal -1.000000e+000  0.000000e+000  0.000000e+000
    outer loop
      vertex -5.000000e+001  1.000000e+001  1.000000e+001
      vertex -5.000000e+001  3.000000e+001 -3.000000e+001
      vertex -5.000000e+001  3.162789e+000  3.708621e+000
    endloop
  endfacet
  facet normal -1.000000e+000  0.000000e+000  0.000000e+000
    outer loop
      vertex -5.000000e+001  1.000000e+001  1.000000e+001
      vertex -5.000000e+001  3.162789e+000  3.708621e+000
      vertex -5.000000e+001  1.289987e+000  5.495054e+000
    endloop
  endfacet
  facet normal -1.000000e+000  0.000000e+000  0.000000e+000
    outer loop
      vertex -5.000000e+001  1.000000e+001  1.000000e+001
      vertex -5.000000e+001  1.289987e+000  5.495054e+000
      vertex -5.000000e+001 -1.225124e+000  6.105749e+000
    endloop
  endfacet
  facet normal -1.000000e+000  0.000000e+000  0.000000e+000
    outer loop
      vertex -5.000000e+001  1.000000e+001  1.000000e+001
      vertex -5.000000e+001 -1.225124e+000  6.105749e+000
      vertex -5.000000e+001 -2.000000e+001  1.000000e+001
    endloop
  endfacet
  facet normal -1.000000e+000  0.000000e+000  0.000000e+000
    outer loop
      vertex -5.000000e+001 -3.000000e+001 -3.000000e+001
      vertex -5.000000e+001 -5.495054e+000  3.504268e+000
      vertex -5.000000e+001 -6.105749e+000  9.891579e-001
    endloop
  endfacet
  facet normal -1.000000e+000  0.000000e+000  -0.000000e+000
    outer loop
      vertex -5.000000e+001 -3.000000e+001 -3.000000e+001
      vertex -5.000000e+001 -6.105749e+000  9.891579e-001
      vertex -5.000000e+001 -5.377070e+000 -1.494339e+000
    endloop
  endfacet
  facet normal -1.000000e+000  0.000000e+000  -0.000000e+000
    outer loop
      vertex -5.000000e+001 -3.000000e+001 -3.000000e+001
      vertex -5.000000e+001 -5.377070e+000 -1.494339e+000
      vertex -5.000000e+001 -3.504268e+000 -3.280772e+000
    endloop
  endfacet
  facet normal -1.000000e+000  0.000000e+000  -0.000000e+000
    outer loop
      vertex -5.000000e+001 -3.000000e+001 -3.000000e+001
      vertex -5.000000e+001 -3.504268e+000 -3.280772e+000
      vertex -5.000000e+001 -9.891579e-001 -3.891467e+000
    endloop
  endfacet
  facet normal -1.000000e+000  0.000000e+000  -0.000000e+000
    outer loop
      vertex -5.000000e+001 -3.000000e+001 -3.000000e+001
      vertex -5.000000e+001 -9.891579e-001 -3.891467e+000
      vertex -5.000000e+001  3.000000e+001 -3.000000e+001
    endloop
  endfacet
  facet normal -1.000000e+000  0.000000e+000  0.000000e+000
    outer loop
      vertex -5.000000e+001  3.000000e+001 -3.000000e+001
      vertex -5.000000e+001 -9.891579e-001 -3.891467e+000
      vertex -5.000000e+001  1.494339e+000 -3.162789e+000
    endloop
  endfacet
  facet normal -1.000000e+000  0.000000e+000  0.000000e+000
    outer loop
      vertex -5.000000e+001  3.000000e+001 -3.000000e+001
      vertex -5.000000e+001  1.494339e+000 -3.162789e+000
      vertex -5.000000e+001  3.280772e+000 -1.289987e+000
    endloop
  endfacet
  facet normal -1.000000e+000  0.000000e+000  0.000000e+000
    outer loop
      vertex -5.000000e+001  3.000000e+001 -3.000000e+001
      vertex -5.000000e+001  3.280772e+000 -1.289987e+000
      vertex -5.000000e+001  3.891467e+000  1.225124e+000
    endloop
  endfacet
  facet normal -1.000000e+000  0.000000e+000  0.000000e+000
    outer loop
      vertex -5.000000e+001  3.000000e+001 -3.000000e+001
      vertex -5.000000e+001  3.891467e+000  1.225124e+000
      vertex -5.000000e+001  3.162789e+000  3.708621e+000
    endloop
  endfacet
  facet normal -1.000000e+000  -0.000000e+000  0.000000e+000
    outer loop
      vertex -5.000000e+001  0.000000e+000  3.000000e+001
      vertex -5.000000e+001  3.000000e+001  3.000000e+001
      vertex -5.000000e+001  0.000000e+000  2.000000e+001
    endloop
  endfacet
  facet normal -1.000000e+000  0.000000e+000  0.000000e+000
    outer loop
      vertex -5.000000e+001  0.000000e+000  2.000000e+001
      vertex -5.000000e+001  3.000000e+001  3.000000e+001
      vertex -5.000000e+001  1.000000e+001  2.000000e+001
    endloop
  endfacet
  facet normal -1.000000e+000  0.000000e+000  0.000000e+000
    outer loop
      vertex -5.000000e+001  3.000000e+001  3.000000e+001
      vertex -5.000000e+001  3.000000e+001 -3.000000e+001
      vertex -5.000000e+001  1.000000e+001  2.000000e+001
    endloop
  endfacet
  facet normal -1.000000e+000  0.000000e+000  0.000000e+000
    outer loop
      vertex -5.000000e+001  1.000000e+001  2.000000e+001
      vertex -5.000000e+001  3.000000e+001 -3.000000e+001
      vertex -5.000000e+001  1.000000e+001  1.000000e+001
    endloop
  endfacet
  facet normal -1.000000e+000  0.000000e+000  0.000000e+000
    outer loop
      vertex -5.000000e+001 -1.000000e+001  2.000000e+001
      vertex -5.000000e+001 -2.000000e+001  2.000000e+001
      vertex -5.000000e+001 -1.000000e+001  3.000000e+001
    endloop
  endfacet
  facet normal -1.000000e+000  -0.000000e+000  0.000000e+000
    outer loop
      vertex -5.000000e+001 -1.000000e+001  3.000000e+001
      vertex -5.000000e+001 -2.000000e+001  2.000000e+001
      vertex -5.000000e+001 -3.000000e+001  3.000000e+001
    endloop
  endfacet
  facet normal -1.000000e+000  0.000000e+000  0.000000e+000
    outer loop
      vertex -5.000000e+001 -2.000000e+001  2.000000e+001
      vertex -5.000000e+001 -2.000000e+001  1.000000e+001
      vertex -5.000000e+001 -3.000000e+001  3.000000e+001
    endloop
  endfacet
  facet normal -1.000000e+000  0.000000e+000  0.000000e+000
    outer loop
      vertex -5.000000e+001 -3.000000e+001  3.000000e+001
      vertex -5.000000e+001 -2.000000e+001  1.000000e+001
      vertex -5.000000e+001 -3.000000e+001 -3.000000e+001
    endloop
  endfacet
  facet normal  0.000000e+000 -9.951608e-001 -9.825922e-002
    outer loop
      vertex  5.000000e+001  8.452436e+000  4.042186e+000
      vertex  4.300000e+001  8.841843e+000  9.831350e-002
      vertex  5.000000e+001  8.841843e+000  9.831350e-002
    endloop
  endfacet
  facet normal  0.000000e+000 -9.551805e-001  2.960239e-001
    outer loop
      vertex  5.000000e+001  8.841843e+000  9.831350e-002
      vertex  4.300000e+001  8.841843e+000  9.831350e-002
      vertex  4.300000e+001  7.668685e+000 -3.687115e+000
    endloop
  endfacet
  facet normal  0.000000e+000 -9.551805e-001  2.960239e-001
    outer loop
      vertex  5.000000e+001  8.841843e+000  9.831350e-002
      vertex  4.300000e+001  7.668685e+000 -3.687115e+000
      vertex  5.000000e+001  7.668685e+000 -3.687115e+000
    endloop
  endfacet
  facet normal  -0.000000e+000 -9.951608e-001 -9.825922e-002
    outer loop
      vertex  4.300000e+001  8.841843e+000  9.831350e-002
      vertex  5.000000e+001  8.452436e+000  4.042186e+000
      vertex  4.300000e+001  8.452436e+000  4.042186e+000
    endloop
  endfacet
  facet normal  0.000000e+000 -8.788435e-001 -4.771101e-001
    outer loop
      vertex  4.300000e+001  8.452436e+000  4.042186e+000
      vertex  5.000000e+001  8.452436e+000  4.042186e+000
      vertex  5.000000e+001  6.561625e+000  7.525086e+000
    endloop
  endfacet
  facet normal  -0.000000e+000 -8.788435e-001 -4.771101e-001
    outer loop
      vertex  4.300000e+001  8.452436e+000  4.042186e+000
      vertex  5.000000e+001  6.561625e+000  7.525086e+000
      vertex  4.300000e+001  6.561625e+000  7.525086e+000
    endloop
  endfacet
  facet normal  0.000000e+000 -6.244972e-001 -7.810270e-001
    outer loop
      vertex  4.300000e+001  6.561625e+000  7.525086e+000
      vertex  5.000000e+001  6.561625e+000  7.525086e+000
      vertex  5.000000e+001  3.466376e+000  1.000000e+001
    endloop
  endfacet
  facet normal  -0.000000e+000 -6.244972e-001 -7.810270e-001
    outer loop
      vertex  4.300000e+001  6.561625e+000  7.525086e+000
      vertex  5.000000e+001  3.466376e+000  1.000000e+001
      vertex  4.300000e+001  3.466376e+000  1.000000e+001
    endloop
  endfacet
  facet normal  0.000000e+000  5.842538e-001 -8.115710e-001
    outer loop
      vertex  5.000000e+001 -5.680657e+000  1.000000e+001
      vertex  5.000000e+001 -8.089323e+000  8.265990e+000
      vertex  4.300000e+001 -5.680657e+000  1.000000e+001
    endloop
  endfacet
  facet normal  0.000000e+000  5.842538e-001 -8.115710e-001
    outer loop
      vertex  4.300000e+001 -5.680657e+000  1.000000e+001
      vertex  5.000000e+001 -8.089323e+000  8.265990e+000
      vertex  4.300000e+001 -8.089323e+000  8.265990e+000
    endloop
  endfacet
  facet normal  0.000000e+000  7.967216e-001 -6.043465e-001
    outer loop
      vertex  5.000000e+001 -8.089323e+000  8.265990e+000
      vertex  5.000000e+001 -9.882966e+000  5.901396e+000
      vertex  4.300000e+001 -8.089323e+000  8.265990e+000
    endloop
  endfacet
  facet normal  0.000000e+000  7.967216e-001 -6.043465e-001
    outer loop
      vertex  4.300000e+001 -8.089323e+000  8.265990e+000
      vertex  5.000000e+001 -9.882966e+000  5.901396e+000
      vertex  4.300000e+001 -9.882966e+000  5.901396e+000
    endloop
  endfacet
  facet normal  1.000000e+000  0.000000e+000  0.000000e+000
    outer loop
      vertex -1.000000e+001  1.000000e+001  3.000000e+001
      vertex -1.000000e+001  1.000000e+001 -3.000000e+001
      vertex -1.000000e+001  3.000000e+001  3.000000e+001
    endloop
  endfacet
  facet normal  1.000000e+000  0.000000e+000  0.000000e+000
    outer loop
      vertex -1.000000e+001  3.000000e+001  3.000000e+001
      vertex -1.000000e+001  1.000000e+001 -3.000000e+001
      vertex -1.000000e+001  3.000000e+001 -3.000000e+001
    endloop
  endfacet
  facet normal -1.000000e+000  0.000000e+000  0.000000e+000
    outer loop
      vertex  0.000000e+000  3.000000e+001  3.000000e+001
      vertex  0.000000e+000  3.000000e+001 -3.000000e+001
      vertex  0.000000e+000  1.000000e+001  3.000000e+001
    endloop
  endfacet
  facet normal -1.000000e+000  0.000000e+000  0.000000e+000
    outer loop
      vertex  0.000000e+000  1.000000e+001  3.000000e+001
      vertex  0.000000e+000  3.000000e+001 -3.000000e+001
      vertex  0.000000e+000  1.000000e+001 -3.000000e+001
    endloop
  endfacet
  facet normal  0.000000e+000 -1.000000e+000  0.000000e+000
    outer loop
      vertex -5.000000e+001  0.000000e+000  2.000000e+001
      vertex -2.000000e+001  0.000000e+000  2.000000e+001
      vertex -5.000000e+001  0.000000e+000  3.000000e+001
    endloop
  endfacet
  facet normal  0.000000e+000 -1.000000e+000  0.000000e+000
    outer loop
      vertex -5.000000e+001  0.000000e+000  3.000000e+001
      vertex -2.000000e+001  0.000000e+000  2.000000e+001
      vertex -2.000000e+001  0.000000e+000  3.000000e+001
    endloop
  endfacet
  facet normal  0.000000e+000 -1.000000e+000  0.000000e+000
    outer loop
      vertex  1.000000e+001  0.000000e+000  2.000000e+001
      vertex  5.000000e+001  0.000000e+000  2.000000e+001
      vertex  1.000000e+001  0.000000e+000  3.000000e+001
    endloop
  endfacet
  facet normal  0.000000e+000 -1.000000e+000  0.000000e+000
    outer loop
      vertex  1.000000e+001  0.000000e+000  3.000000e+001
      vertex  5.000000e+001  0.000000e+000  2.000000e+001
      vertex  5.000000e+001  0.000000e+000  3.000000e+001
    endloop
  endfacet
  facet normal  0.000000e+000  0.000000e+000 -1.000000e+000
    outer loop
      vertex -5.000000e+001  0.000000e+000  2.000000e+001
      vertex -5.000000e+001  1.000000e+001  2.000000e+001
      vertex -2.000000e+001  0.000000e+000  2.000000e+001
    endloop
  endfacet
  facet normal  0.000000e+000  0.000000e+000 -1.000000e+000
    outer loop
      vertex -2.000000e+001  0.000000e+000  2.000000e+001
      vertex -5.000000e+001  1.000000e+001  2.000000e+001
      vertex -2.000000e+001  1.000000e+001  2.000000e+001
    endloop
  endfacet
  facet normal  0.000000e+000  0.000000e+000 -1.000000e+000
    outer loop
      vertex  1.000000e+001  0.000000e+000  2.000000e+001
      vertex  1.000000e+001  1.000000e+001  2.000000e+001
      vertex  5.000000e+001  0.000000e+000  2.000000e+001
    endloop
  endfacet
  facet normal  0.000000e+000  0.000000e+000 -1.000000e+000
    outer loop
      vertex  5.000000e+001  0.000000e+000  2.000000e+001
      vertex  1.000000e+001  1.000000e+001  2.000000e+001
      vertex  5.000000e+001  1.000000e+001  2.000000e+001
    endloop
  endfacet
  facet normal  0.000000e+000  -0.000000e+000  1.000000e+000
    outer loop
      vertex  4.300000e+001 -5.680657e+000  1.000000e+001
      vertex  5.000000e+001 -2.000000e+001  1.000000e+001
      vertex  5.000000e+001 -5.680657e+000  1.000000e+001
    endloop
  endfacet
  facet normal  -0.000000e+000  0.000000e+000  1.000000e+000
    outer loop
      vertex  1.000000e+001  1.000000e+001  1.000000e+001
      vertex  1.000000e+001  0.000000e+000  1.000000e+001
      vertex  5.000000e+001 -2.000000e+001  1.000000e+001
    endloop
  endfacet
  facet normal  0.000000e+000  0.000000e+000  1.000000e+000
    outer loop
      vertex  1.000000e+001  1.000000e+001  1.000000e+001
      vertex  5.000000e+001 -2.000000e+001  1.000000e+001
      vertex  4.300000e+001 -5.680657e+000  1.000000e+001
    endloop
  endfacet
  facet normal  0.000000e+000  -0.000000e+000  1.000000e+000
    outer loop
      vertex  1.000000e+001  1.000000e+001  1.000000e+001
      vertex  4.300000e+001 -5.680657e+000  1.000000e+001
      vertex  4.300000e+001  3.466376e+000  1.000000e+001
    endloop
  endfacet
  facet normal  0.000000e+000  -0.000000e+000  1.000000e+000
    outer loop
      vertex  1.000000e+001  1.000000e+001  1.000000e+001
      vertex  4.300000e+001  3.466376e+000  1.000000e+001
      vertex  5.000000e+001  3.466376e+000  1.000000e+001
    endloop
  endfacet
  facet normal  0.000000e+000  -0.000000e+000  1.000000e+000
    outer loop
      vertex  1.000000e+001  1.000000e+001  1.000000e+001
      vertex  5.000000e+001  3.466376e+000  1.000000e+001
      vertex  5.000000e+001  1.000000e+001  1.000000e+001
    endloop
  endfacet
  facet normal  0.000000e+000  0.000000e+000  1.000000e+000
    outer loop
      vertex  5.000000e+001 -2.000000e+001  1.000000e+001
      vertex  1.000000e+001  0.000000e+000  1.000000e+001
      vertex -5.000000e+001 -2.000000e+001  1.000000e+001
    endloop
  endfacet
  facet normal  0.000000e+000  0.000000e+000  1.000000e+000
    outer loop
      vertex -5.000000e+001 -2.000000e+001  1.000000e+001
      vertex  1.000000e+001  0.000000e+000  1.000000e+001
      vertex -2.000000e+001  0.000000e+000  1.000000e+001
    endloop
  endfacet
  facet normal  0.000000e+000  0.000000e+000  1.000000e+000
    outer loop
      vertex -5.000000e+001 -2.000000e+001  1.000000e+001
      vertex -2.000000e+001  0.000000e+000  1.000000e+001
      vertex -5.000000e+001  1.000000e+001  1.000000e+001
    endloop
  endfacet
  facet normal  -0.000000e+000  0.000000e+000  1.000000e+000
    outer loop
      vertex -5.000000e+001  1.000000e+001  1.000000e+001
      vertex -2.000000e+001  0.000000e+000  1.000000e+001
      vertex -2.000000e+001  1.000000e+001  1.000000e+001
    endloop
  endfacet
  facet normal  0.000000e+000  1.000000e+000  0.000000e+000
    outer loop
      vertex -5.000000e+001 -2.000000e+001  1.000000e+001
      vertex -5.000000e+001 -2.000000e+001  2.000000e+001
      vertex  5.000000e+001 -2.000000e+001  1.000000e+001
    endloop
  endfacet
  facet normal  0.000000e+000  1.000000e+000  -0.000000e+000
    outer loop
      vertex  5.000000e+001 -2.000000e+001  1.000000e+001
      vertex -5.000000e+001 -2.000000e+001  2.000000e+001
      vertex  5.000000e+001 -2.000000e+001  2.000000e+001
    endloop
  endfacet
  facet normal  0.000000e+000  0.000000e+000 -1.000000e+000
    outer loop
      vertex -5.000000e+001 -2.000000e+001  2.000000e+001
      vertex -5.000000e+001 -1.000000e+001  2.000000e+001
      vertex  5.000000e+001 -2.000000e+001  2.000000e+001
    endloop
  endfacet
  facet normal  0.000000e+000  0.000000e+000 -1.000000e+000
    outer loop
      vertex  5.000000e+001 -2.000000e+001  2.000000e+001
      vertex -5.000000e+001 -1.000000e+001  2.000000e+001
      vertex  5.000000e+001 -1.000000e+001  2.000000e+001
    endloop
  endfacet
  facet normal  0.000000e+000  1.000000e+000  0.000000e+000
    outer loop
      vertex -5.000000e+001 -1.000000e+001  2.000000e+001
      vertex -5.000000e+001 -1.000000e+001  3.000000e+001
      vertex  5.000000e+001 -1.000000e+001  2.000000e+001
    endloop
  endfacet
  facet normal  0.000000e+000  1.000000e+000  -0.000000e+000
    outer loop
      vertex  5.000000e+001 -1.000000e+001  2.000000e+001
      vertex -5.000000e+001 -1.000000e+001  3.000000e+001
      vertex  5.000000e+001 -1.000000e+001  3.000000e+001
    endloop
  endfacet
  facet normal  0.000000e+000  1.000000e+000  0.000000e+000
    outer loop
      vertex -2.000000e+001  0.000000e+000 -3.768743e+000
      vertex  1.000000e+001  0.000000e+000 -3.768743e+000
      vertex -2.000000e+001  0.000000e+000 -3.000000e+001
    endloop
  endfacet
  facet normal  0.000000e+000  1.000000e+000  0.000000e+000
    outer loop
      vertex -2.000000e+001  0.000000e+000 -3.000000e+001
      vertex  1.000000e+001  0.000000e+000 -3.768743e+000
      vertex  1.000000e+001  0.000000e+000 -3.000000e+001
    endloop
  endfacet
  facet normal  5.357482e-003 -2.815355e-001  9.595358e-001
    outer loop
      vertex -5.000000e+001  1.494339e+000 -3.162789e+000
      vertex -5.000000e+001 -9.891579e-001 -3.891467e+000
      vertex -2.000000e+001  0.000000e+000 -3.768743e+000
    endloop
  endfacet
  facet normal  0.000000e+000 -1.231257e-001  9.923911e-001
    outer loop
      vertex  1.000000e+001  0.000000e+000 -3.768743e+000
      vertex -2.000000e+001  0.000000e+000 -3.768743e+000
      vertex -5.000000e+001 -9.891579e-001 -3.891467e+000
    endloop
  endfacet
  facet normal  0.000000e+000 -1.231257e-001  9.923912e-001
    outer loop
      vertex  1.000000e+001  0.000000e+000 -3.768743e+000
      vertex -5.000000e+001 -9.891579e-001 -3.891467e+000
      vertex  4.300000e+001 -9.891579e-001 -3.891467e+000
    endloop
  endfacet
  facet normal -4.870451e-003 -2.815362e-001  9.595382e-001
    outer loop
      vertex  1.000000e+001  0.000000e+000 -3.768743e+000
      vertex  4.300000e+001 -9.891579e-001 -3.891467e+000
      vertex  4.300000e+001  1.494339e+000 -3.162789e+000
    endloop
  endfacet
  facet normal  2.438286e-003 -4.215525e-001  9.068007e-001
    outer loop
      vertex  1.000000e+001  0.000000e+000 -3.768743e+000
      vertex  4.300000e+001  1.494339e+000 -3.162789e+000
      vertex  1.000000e+001  1.906986e+000 -2.882225e+000
    endloop
  endfacet
  facet normal  -0.000000e+000  9.595496e-001  2.815396e-001
    outer loop
      vertex  4.300000e+001 -5.377070e+000 -1.494339e+000
      vertex -5.000000e+001 -6.105749e+000  9.891579e-001
      vertex  4.300000e+001 -6.105749e+000  9.891579e-001
    endloop
  endfacet
  facet normal  0.000000e+000  9.717641e-001 -2.359544e-001
    outer loop
      vertex  4.300000e+001 -6.105749e+000  9.891579e-001
      vertex -5.000000e+001 -6.105749e+000  9.891579e-001
      vertex -5.000000e+001 -5.495054e+000  3.504268e+000
    endloop
  endfacet
  facet normal  0.000000e+000  9.717641e-001 -2.359544e-001
    outer loop
      vertex  4.300000e+001 -6.105749e+000  9.891579e-001
      vertex -5.000000e+001 -5.495054e+000  3.504268e+000
      vertex  4.300000e+001 -5.495054e+000  3.504268e+000
    endloop
  endfacet
  facet normal  0.000000e+000  9.595496e-001  2.815396e-001
    outer loop
      vertex -5.000000e+001 -6.105749e+000  9.891579e-001
      vertex  4.300000e+001 -5.377070e+000 -1.494339e+000
      vertex -5.000000e+001 -5.377070e+000 -1.494339e+000
    endloop
  endfacet
  facet normal  -0.000000e+000  6.902245e-001  7.235951e-001
    outer loop
      vertex -5.000000e+001 -5.377070e+000 -1.494339e+000
      vertex  4.300000e+001 -5.377070e+000 -1.494339e+000
      vertex  4.300000e+001 -3.504268e+000 -3.280772e+000
    endloop
  endfacet
  facet normal  0.000000e+000  6.902245e-001  7.235951e-001
    outer loop
      vertex -5.000000e+001 -5.377070e+000 -1.494339e+000
      vertex  4.300000e+001 -3.504268e+000 -3.280772e+000
      vertex -5.000000e+001 -3.504268e+000 -3.280772e+000
    endloop
  endfacet
  facet normal  -0.000000e+000  2.359545e-001  9.717640e-001
    outer loop
      vertex -5.000000e+001 -3.504268e+000 -3.280772e+000
      vertex  4.300000e+001 -3.504268e+000 -3.280772e+000
      vertex  4.300000e+001 -9.891579e-001 -3.891467e+000
    endloop
  endfacet
  facet normal  0.000000e+000  2.359545e-001  9.717640e-001
    outer loop
      vertex -5.000000e+001 -3.504268e+000 -3.280772e+000
      vertex  4.300000e+001 -9.891579e-001 -3.891467e+000
      vertex -5.000000e+001 -9.891579e-001 -3.891467e+000
    endloop
  endfacet
  facet normal -2.682113e-003 -4.215522e-001  9.068002e-001
    outer loop
      vertex -2.000000e+001  0.000000e+000 -3.768743e+000
      vertex -2.000000e+001  1.906986e+000 -2.882225e+000
      vertex -5.000000e+001  1.494339e+000 -3.162789e+000
    endloop
  endfacet
  facet normal  4.304921e-003 -7.571284e-001  6.532518e-001
    outer loop
      vertex -5.000000e+001  1.494339e+000 -3.162789e+000
      vertex -2.000000e+001  1.906986e+000 -2.882225e+000
      vertex -2.000000e+001  3.280772e+000 -1.289987e+000
    endloop
  endfacet
  facet normal  0.000000e+000 -7.235952e-001  6.902246e-001
    outer loop
      vertex -5.000000e+001  1.494339e+000 -3.162789e+000
      vertex -2.000000e+001  3.280772e+000 -1.289987e+000
      vertex -5.000000e+001  3.280772e+000 -1.289987e+000
    endloop
  endfacet
  facet normal -3.913571e-003 -7.571297e-001  6.532529e-001
    outer loop
      vertex  1.000000e+001  1.906986e+000 -2.882225e+000
      vertex  4.300000e+001  1.494339e+000 -3.162789e+000
      vertex  1.000000e+001  3.280772e+000 -1.289987e+000
    endloop
  endfacet
  facet normal  0.000000e+000 -7.235952e-001  6.902246e-001
    outer loop
      vertex  1.000000e+001  3.280772e+000 -1.289987e+000
      vertex  4.300000e+001  1.494339e+000 -3.162789e+000
      vertex  4.300000e+001  3.280772e+000 -1.289987e+000
    endloop
  endfacet
  facet normal  3.863682e-003 -4.387567e-001 -8.985975e-001
    outer loop
      vertex  1.000000e+001  2.056837e+000  4.978736e+000
      vertex  4.300000e+001  1.289987e+000  5.495054e+000
      vertex  1.000000e+001  0.000000e+000  5.983024e+000
    endloop
  endfacet
  facet normal -5.145811e-003 -2.359512e-001 -9.717513e-001
    outer loop
      vertex  4.300000e+001  1.289987e+000  5.495054e+000
      vertex  4.300000e+001 -1.225124e+000  6.105749e+000
      vertex  1.000000e+001  0.000000e+000  5.983024e+000
    endloop
  endfacet
  facet normal -3.714764e-003 -9.595430e-001 -2.815377e-001
    outer loop
      vertex  4.300000e+001  3.162789e+000  3.708621e+000
      vertex  1.000000e+001  3.450608e+000  3.163089e+000
      vertex  4.300000e+001  3.891467e+000  1.225124e+000
    endloop
  endfacet
  facet normal  3.147798e-003 -7.932277e-001 -6.089171e-001
    outer loop
      vertex  1.000000e+001  2.056837e+000  4.978736e+000
      vertex  1.000000e+001  3.450608e+000  3.163089e+000
      vertex  4.300000e+001  3.162789e+000  3.708621e+000
    endloop
  endfacet
  facet normal -4.717931e-003 -6.902170e-001 -7.235871e-001
    outer loop
      vertex  4.300000e+001  1.289987e+000  5.495054e+000
      vertex  1.000000e+001  2.056837e+000  4.978736e+000
      vertex  4.300000e+001  3.162789e+000  3.708621e+000
    endloop
  endfacet
  facet normal  4.086234e-003 -9.595416e-001 -2.815372e-001
    outer loop
      vertex -2.000000e+001  3.450608e+000  3.163089e+000
      vertex -5.000000e+001  3.162789e+000  3.708621e+000
      vertex -5.000000e+001  3.891467e+000  1.225124e+000
    endloop
  endfacet
  facet normal -3.462574e-003 -7.932268e-001 -6.089164e-001
    outer loop
      vertex -5.000000e+001  3.162789e+000  3.708621e+000
      vertex -2.000000e+001  3.450608e+000  3.163089e+000
      vertex -2.000000e+001  2.056837e+000  4.978736e+000
    endloop
  endfacet
  facet normal  5.189712e-003 -6.902153e-001 -7.235854e-001
    outer loop
      vertex -2.000000e+001  2.056837e+000  4.978736e+000
      vertex -5.000000e+001  1.289987e+000  5.495054e+000
      vertex -5.000000e+001  3.162789e+000  3.708621e+000
    endloop
  endfacet
  facet normal  -0.000000e+000 -9.967433e-002 -9.950202e-001
    outer loop
      vertex -2.000000e+001  0.000000e+000  5.983024e+000
      vertex  1.000000e+001  0.000000e+000  5.983024e+000
      vertex  4.300000e+001 -1.225124e+000  6.105749e+000
    endloop
  endfacet
  facet normal  -0.000000e+000 -9.967432e-002 -9.950201e-001
    outer loop
      vertex -2.000000e+001  0.000000e+000  5.983024e+000
      vertex  4.300000e+001 -1.225124e+000  6.105749e+000
      vertex -5.000000e+001 -1.225124e+000  6.105749e+000
    endloop
  endfacet
  facet normal  5.660376e-003 -2.359506e-001 -9.717485e-001
    outer loop
      vertex -2.000000e+001  0.000000e+000  5.983024e+000
      vertex -5.000000e+001 -1.225124e+000  6.105749e+000
      vertex -5.000000e+001  1.289987e+000  5.495054e+000
    endloop
  endfacet
  facet normal -4.250044e-003 -4.387561e-001 -8.985962e-001
    outer loop
      vertex -2.000000e+001  0.000000e+000  5.983024e+000
      vertex -5.000000e+001  1.289987e+000  5.495054e+000
      vertex -2.000000e+001  2.056837e+000  4.978736e+000
    endloop
  endfacet
  facet normal  1.858279e-003 -9.814662e-001 -1.916262e-001
    outer loop
      vertex  1.000000e+001  3.450608e+000  3.163089e+000
      vertex  1.000000e+001  3.889227e+000  9.165840e-001
      vertex  4.300000e+001  3.891467e+000  1.225124e+000
    endloop
  endfacet
  facet normal -2.419932e-003 -9.640183e-001  2.658249e-001
    outer loop
      vertex  4.300000e+001  3.891467e+000  1.225124e+000
      vertex  1.000000e+001  3.889227e+000  9.165840e-001
      vertex  1.000000e+001  3.280772e+000 -1.289987e+000
    endloop
  endfacet
  facet normal  0.000000e+000 -9.717641e-001  2.359544e-001
    outer loop
      vertex  4.300000e+001  3.891467e+000  1.225124e+000
      vertex  1.000000e+001  3.280772e+000 -1.289987e+000
      vertex  4.300000e+001  3.280772e+000 -1.289987e+000
    endloop
  endfacet
  facet normal -2.044106e-003 -9.814659e-001 -1.916261e-001
    outer loop
      vertex -2.000000e+001  3.450608e+000  3.163089e+000
      vertex -5.000000e+001  3.891467e+000  1.225124e+000
      vertex -2.000000e+001  3.889227e+000  9.165840e-001
    endloop
  endfacet
  facet normal  2.354133e-003 -9.717614e-001  2.359538e-001
    outer loop
      vertex -2.000000e+001  3.889227e+000  9.165840e-001
      vertex -5.000000e+001  3.891467e+000  1.225124e+000
      vertex -5.000000e+001  3.280772e+000 -1.289987e+000
    endloop
  endfacet
  facet normal  0.000000e+000 -9.640211e-001  2.658257e-001
    outer loop
      vertex -2.000000e+001  3.889227e+000  9.165840e-001
      vertex -5.000000e+001  3.280772e+000 -1.289987e+000
      vertex -2.000000e+001  3.280772e+000 -1.289987e+000
    endloop
  endfacet
  facet normal  0.000000e+000  2.815396e-001 -9.595496e-001
    outer loop
      vertex  4.300000e+001 -1.225124e+000  6.105749e+000
      vertex  4.300000e+001 -3.708621e+000  5.377070e+000
      vertex -5.000000e+001 -1.225124e+000  6.105749e+000
    endloop
  endfacet
  facet normal  0.000000e+000  2.815396e-001 -9.595496e-001
    outer loop
      vertex -5.000000e+001 -1.225124e+000  6.105749e+000
      vertex  4.300000e+001 -3.708621e+000  5.377070e+000
      vertex -5.000000e+001 -3.708621e+000  5.377070e+000
    endloop
  endfacet
  facet normal  0.000000e+000  7.235951e-001 -6.902246e-001
    outer loop
      vertex  4.300000e+001 -3.708621e+000  5.377070e+000
      vertex  4.300000e+001 -5.495054e+000  3.504268e+000
      vertex -5.000000e+001 -3.708621e+000  5.377070e+000
    endloop
  endfacet
  facet normal  0.000000e+000  7.235951e-001 -6.902246e-001
    outer loop
      vertex -5.000000e+001 -3.708621e+000  5.377070e+000
      vertex  4.300000e+001 -5.495054e+000  3.504268e+000
      vertex -5.000000e+001 -5.495054e+000  3.504268e+000
    endloop
  endfacet
  facet normal  -0.000000e+000  6.414214e-001  7.671887e-001
    outer loop
      vertex  5.000000e+001 -5.901396e+000 -7.668685e+000
      vertex  4.300000e+001 -8.894818e+000 -5.165983e+000
      vertex  5.000000e+001 -8.894818e+000 -5.165983e+000
    endloop
  endfacet
  facet normal  0.000000e+000  8.861865e-001  4.633286e-001
    outer loop
      vertex  5.000000e+001 -8.894818e+000 -5.165983e+000
      vertex  4.300000e+001 -8.894818e+000 -5.165983e+000
      vertex  4.300000e+001 -1.070264e+001 -1.708255e+000
    endloop
  endfacet
  facet normal  -0.000000e+000  8.861865e-001  4.633286e-001
    outer loop
      vertex  5.000000e+001 -8.894818e+000 -5.165983e+000
      vertex  4.300000e+001 -1.070264e+001 -1.708255e+000
      vertex  5.000000e+001 -1.070264e+001 -1.708255e+000
    endloop
  endfacet
  facet normal  0.000000e+000  9.960378e-001  8.893099e-002
    outer loop
      vertex  5.000000e+001 -1.070264e+001 -1.708255e+000
      vertex  4.300000e+001 -1.070264e+001 -1.708255e+000
      vertex  4.300000e+001 -1.104963e+001  2.178092e+000
    endloop
  endfacet
  facet normal  -0.000000e+000  9.960378e-001  8.893099e-002
    outer loop
      vertex  5.000000e+001 -1.070264e+001 -1.708255e+000
      vertex  4.300000e+001 -1.104963e+001  2.178092e+000
      vertex  5.000000e+001 -1.104963e+001  2.178092e+000
    endloop
  endfacet
  facet normal  0.000000e+000  9.542513e-001 -2.990057e-001
    outer loop
      vertex  5.000000e+001 -1.104963e+001  2.178092e+000
      vertex  4.300000e+001 -1.104963e+001  2.178092e+000
      vertex  4.300000e+001 -9.882966e+000  5.901396e+000
    endloop
  endfacet
  facet normal  0.000000e+000  9.542513e-001 -2.990057e-001
    outer loop
      vertex  5.000000e+001 -1.104963e+001  2.178092e+000
      vertex  4.300000e+001 -9.882966e+000  5.901396e+000
      vertex  5.000000e+001 -9.882966e+000  5.901396e+000
    endloop
  endfacet
  facet normal  0.000000e+000  6.414214e-001  7.671887e-001
    outer loop
      vertex  4.300000e+001 -8.894818e+000 -5.165983e+000
      vertex  5.000000e+001 -5.901396e+000 -7.668685e+000
      vertex  4.300000e+001 -5.901396e+000 -7.668685e+000
    endloop
  endfacet
  facet normal  -0.000000e+000  2.990057e-001  9.542513e-001
    outer loop
      vertex  4.300000e+001 -5.901396e+000 -7.668685e+000
      vertex  5.000000e+001 -5.901396e+000 -7.668685e+000
      vertex  5.000000e+001 -2.178092e+000 -8.835347e+000
    endloop
  endfacet
  facet normal  0.000000e+000  2.990057e-001  9.542513e-001
    outer loop
      vertex  4.300000e+001 -5.901396e+000 -7.668685e+000
      vertex  5.000000e+001 -2.178092e+000 -8.835347e+000
      vertex  4.300000e+001 -2.178092e+000 -8.835347e+000
    endloop
  endfacet
  facet normal  0.000000e+000 -8.893099e-002  9.960378e-001
    outer loop
      vertex  4.300000e+001 -2.178092e+000 -8.835347e+000
      vertex  5.000000e+001 -2.178092e+000 -8.835347e+000
      vertex  5.000000e+001  1.708255e+000 -8.488356e+000
    endloop
  endfacet
  facet normal  0.000000e+000 -8.893099e-002  9.960378e-001
    outer loop
      vertex  4.300000e+001 -2.178092e+000 -8.835347e+000
      vertex  5.000000e+001  1.708255e+000 -8.488356e+000
      vertex  4.300000e+001  1.708255e+000 -8.488356e+000
    endloop
  endfacet
  facet normal  0.000000e+000 -4.633287e-001  8.861865e-001
    outer loop
      vertex  4.300000e+001  1.708255e+000 -8.488356e+000
      vertex  5.000000e+001  1.708255e+000 -8.488356e+000
      vertex  5.000000e+001  5.165983e+000 -6.680537e+000
    endloop
  endfacet
  facet normal  0.000000e+000 -4.633287e-001  8.861865e-001
    outer loop
      vertex  4.300000e+001  1.708255e+000 -8.488356e+000
      vertex  5.000000e+001  5.165983e+000 -6.680537e+000
      vertex  4.300000e+001  5.165983e+000 -6.680537e+000
    endloop
  endfacet
  facet normal  0.000000e+000 -7.671887e-001  6.414214e-001
    outer loop
      vertex  4.300000e+001  5.165983e+000 -6.680537e+000
      vertex  5.000000e+001  5.165983e+000 -6.680537e+000
      vertex  5.000000e+001  7.668685e+000 -3.687115e+000
    endloop
  endfacet
  facet normal  0.000000e+000 -7.671887e-001  6.414214e-001
    outer loop
      vertex  4.300000e+001  5.165983e+000 -6.680537e+000
      vertex  5.000000e+001  7.668685e+000 -3.687115e+000
      vertex  4.300000e+001  7.668685e+000 -3.687115e+000
    endloop
  endfacet
  facet normal  -0.000000e+000  -0.000000e+000 -1.000000e+000
    outer loop
      vertex -5.000000e+001  3.000000e+001 -3.000000e+001
      vertex -1.000000e+001  3.000000e+001 -3.000000e+001
      vertex -1.000000e+001  1.000000e+001 -3.000000e+001
    endloop
  endfacet
  facet normal  0.000000e+000  0.000000e+000 -1.000000e+000
    outer loop
      vertex -5.000000e+001  3.000000e+001 -3.000000e+001
      vertex -1.000000e+001  1.000000e+001 -3.000000e+001
      vertex -2.000000e+001  1.000000e+001 -3.000000e+001
    endloop
  endfacet
  facet normal  -0.000000e+000  -0.000000e+000 -1.000000e+000
    outer loop
      vertex -5.000000e+001  3.000000e+001 -3.000000e+001
      vertex -2.000000e+001  1.000000e+001 -3.000000e+001
      vertex -2.000000e+001  0.000000e+000 -3.000000e+001
    endloop
  endfacet
  facet normal  -0.000000e+000  0.000000e+000 -1.000000e+000
    outer loop
      vertex -5.000000e+001  3.000000e+001 -3.000000e+001
      vertex -2.000000e+001  0.000000e+000 -3.000000e+001
      vertex -5.000000e+001 -3.000000e+001 -3.000000e+001
    endloop
  endfacet
  facet normal  0.000000e+000  0.000000e+000 -1.000000e+000
    outer loop
      vertex  1.000000e+001  0.000000e+000 -3.000000e+001
      vertex -5.000000e+001 -3.000000e+001 -3.000000e+001
      vertex -2.000000e+001  0.000000e+000 -3.000000e+001
    endloop
  endfacet
  facet normal  0.000000e+000  -0.000000e+000 -1.000000e+000
    outer loop
      vertex -5.000000e+001 -3.000000e+001 -3.000000e+001
      vertex  1.000000e+001  0.000000e+000 -3.000000e+001
      vertex  5.000000e+001 -3.000000e+001 -3.000000e+001
    endloop
  endfacet
  facet normal  0.000000e+000  0.000000e+000 -1.000000e+000
    outer loop
      vertex  5.000000e+001 -3.000000e+001 -3.000000e+001
      vertex  1.000000e+001  0.000000e+000 -3.000000e+001
      vertex  1.000000e+001  1.000000e+001 -3.000000e+001
    endloop
  endfacet
  facet normal  0.000000e+000  0.000000e+000 -1.000000e+000
    outer loop
      vertex  5.000000e+001 -3.000000e+001 -3.000000e+001
      vertex  1.000000e+001  1.000000e+001 -3.000000e+001
      vertex  5.000000e+001  3.000000e+001 -3.000000e+001
    endloop
  endfacet
  facet normal  0.000000e+000  0.000000e+000 -1.000000e+000
    outer loop
      vertex  5.000000e+001  3.000000e+001 -3.000000e+001
      vertex  1.000000e+001  1.000000e+001 -3.000000e+001
      vertex  0.000000e+000  1.000000e+001 -3.000000e+001
    endloop
  endfacet
  facet normal  0.000000e+000  0.000000e+000 -1.000000e+000
    outer loop
      vertex  5.000000e+001  3.000000e+001 -3.000000e+001
      vertex  0.000000e+000  1.000000e+001 -3.000000e+001
      vertex  0.000000e+000  3.000000e+001 -3.000000e+001
    endloop
  endfacet
  facet normal  0.000000e+000  1.000000e+000  0.000000e+000
    outer loop
      vertex  0.000000e+000  3.000000e+001 -3.000000e+001
      vertex  0.000000e+000  3.000000e+001  3.000000e+001
      vertex  5.000000e+001  3.000000e+001 -3.000000e+001
    endloop
  endfacet
  facet normal  0.000000e+000  1.000000e+000  -0.000000e+000
    outer loop
      vertex  5.000000e+001  3.000000e+001 -3.000000e+001
      vertex  0.000000e+000  3.000000e+001  3.000000e+001
      vertex  5.000000e+001  3.000000e+001  3.000000e+001
    endloop
  endfacet
  facet normal  0.000000e+000  1.000000e+000  0.000000e+000
    outer loop
      vertex -5.000000e+001  3.000000e+001 -3.000000e+001
      vertex -5.000000e+001  3.000000e+001  3.000000e+001
      vertex -1.000000e+001  3.000000e+001 -3.000000e+001
    endloop
  endfacet
  facet normal  0.000000e+000  1.000000e+000  -0.000000e+000
    outer loop
      vertex -1.000000e+001  3.000000e+001 -3.000000e+001
      vertex -5.000000e+001  3.000000e+001  3.000000e+001
      vertex -1.000000e+001  3.000000e+001  3.000000e+001
    endloop
  endfacet
  facet normal  0.000000e+000 -1.000000e+000  0.000000e+000
    outer loop
      vertex -5.000000e+001 -3.000000e+001  3.000000e+001
      vertex -5.000000e+001 -3.000000e+001 -3.000000e+001
      vertex  5.000000e+001 -3.000000e+001  3.000000e+001
    endloop
  endfacet
  facet normal  0.000000e+000 -1.000000e+000  -0.000000e+000
    outer loop
      vertex  5.000000e+001 -3.000000e+001  3.000000e+001
      vertex -5.000000e+001 -3.000000e+001 -3.000000e+001
      vertex  5.000000e+001 -3.000000e+001 -3.000000e+001
    endloop
  endfacet
endsolid CATIA STL
