solid CATIA STL
  facet normal  0.000000e+000  0.000000e+000  1.000000e+000
    outer loop
      vertex  7.071068e+000  1.776357e-015  1.000000e+001
      vertex  1.414214e+001  7.071068e+000  1.000000e+001
      vertex -4.440892e-015  7.071068e+000  1.000000e+001
    endloop
  endfacet
  facet normal  0.000000e+000  0.000000e+000  1.000000e+000
    outer loop
      vertex -4.440892e-015  7.071068e+000  1.000000e+001
      vertex  1.414214e+001  7.071068e+000  1.000000e+001
      vertex  7.071068e+000  1.414214e+001  1.000000e+001
    endloop
  endfacet
  facet normal  0.000000e+000  0.000000e+000 -1.000000e+000
    outer loop
      vertex  7.071068e+000  1.776357e-015  0.000000e+000
      vertex -4.440892e-015  7.071068e+000  0.000000e+000
      vertex  1.414214e+001  7.071068e+000  0.000000e+000
    endloop
  endfacet
  facet normal  0.000000e+000  0.000000e+000 -1.000000e+000
    outer loop
      vertex  1.414214e+001  7.071068e+000  0.000000e+000
      vertex -4.440892e-015  7.071068e+000  0.000000e+000
      vertex  7.071068e+000  1.414214e+001  0.000000e+000
    endloop
  endfacet
  facet normal -7.071068e-001  7.071068e-001  0.000000e+000
    outer loop
      vertex  7.071068e+000  1.414214e+001  0.000000e+000
      vertex -4.440892e-015  7.071068e+000  0.000000e+000
      vertex  7.071068e+000  1.414214e+001  1.000000e+001
    endloop
  endfacet
  facet normal -7.071068e-001  7.071068e-001  0.000000e+000
    outer loop
      vertex  7.071068e+000  1.414214e+001  1.000000e+001
      vertex -4.440892e-015  7.071068e+000  0.000000e+000
      vertex -4.440892e-015  7.071068e+000  1.000000e+001
    endloop
  endfacet
  facet normal  7.071068e-001  7.071068e-001  0.000000e+000
    outer loop
      vertex  1.414214e+001  7.071068e+000  0.000000e+000
      vertex  7.071068e+000  1.414214e+001  0.000000e+000
      vertex  1.414214e+001  7.071068e+000  1.000000e+001
    endloop
  endfacet
  facet normal  7.071068e-001  7.071068e-001  0.000000e+000
    outer loop
      vertex  1.414214e+001  7.071068e+000  1.000000e+001
      vertex  7.071068e+000  1.414214e+001  0.000000e+000
      vertex  7.071068e+000  1.414214e+001  1.000000e+001
    endloop
  endfacet
  facet normal  7.071068e-001 -7.071068e-001  0.000000e+000
    outer loop
      vertex  7.071068e+000  1.776357e-015  0.000000e+000
      vertex  1.414214e+001  7.071068e+000  0.000000e+000
      vertex  7.071068e+000  1.776357e-015  1.000000e+001
    endloop
  endfacet
  facet normal  7.071068e-001 -7.071068e-001  0.000000e+000
    outer loop
      vertex  7.071068e+000  1.776357e-015  1.000000e+001
      vertex  1.414214e+001  7.071068e+000  0.000000e+000
      vertex  1.414214e+001  7.071068e+000  1.000000e+001
    endloop
  endfacet
  facet normal -7.071068e-001 -7.071068e-001  0.000000e+000
    outer loop
      vertex -4.440892e-015  7.071068e+000  0.000000e+000
      vertex  7.071068e+000  1.776357e-015  0.000000e+000
      vertex -4.440892e-015  7.071068e+000  1.000000e+001
    endloop
  endfacet
  facet normal -7.071068e-001 -7.071068e-001  0.000000e+000
    outer loop
      vertex -4.440892e-015  7.071068e+000  1.000000e+001
      vertex  7.071068e+000  1.776357e-015  0.000000e+000
      vertex  7.071068e+000  1.776357e-015  1.000000e+001
    endloop
  endfacet
endsolid CATIA STL
