solid CATIA STL
facet normal -6.798155367234455e-33 0.9998489885977782 -1.1102230246251565e-16
outer loop
vertex 20.0 -14.14213562373095 14.14213562373095
vertex 20.0 -14.142135623730951 -14.142135623730951
vertex 7.024776 -14.142132795303826 -0.40675893323687307
endloop
endfacet
facet normal -6.798155367234455e-33 0.9998489885977782 -1.1102230246251565e-16
outer loop
vertex 20.0 -14.14213562373095 14.14213562373095
vertex 7.024776 -14.142132795303826 -0.40675893323687307
vertex 6.414081 -14.142137037944513 2.10835059097912
endloop
endfacet
facet normal -6.798155367234455e-33 0.9998489885977782 -1.1102230246251565e-16
outer loop
vertex 20.0 -14.14213562373095 14.14213562373095
vertex 6.414081 -14.142137037944513 2.10835059097912
vertex 4.627648 -14.142137037944513 3.9811511852229367
endloop
endfacet
facet normal -6.798155367234455e-33 0.9998489885977782 -1.1102230246251565e-16
outer loop
vertex 20.0 -14.14213562373095 14.14213562373095
vertex 4.627648 -14.142137037944513 3.9811511852229367
vertex -20.0 -14.14213562373095 14.142135623730953
endloop
endfacet
facet normal -6.798155367234455e-33 0.9998489885977782 -1.1102230246251565e-16
outer loop
vertex -20.0 -14.142135623730951 -14.142135623730947
vertex -20.0 -14.14213562373095 14.142135623730953
vertex -2.97244 -14.142134916624169 -0.1707952790345784
endloop
endfacet
facet normal -6.798155367234455e-33 0.9998489885977782 -1.1102230246251565e-16
outer loop
vertex -20.0 -14.142135623730951 -14.142135623730947
vertex -2.97244 -14.142134916624169 -0.1707952790345784
vertex -2.361745 -14.142133502410609 -2.685904803250571
endloop
endfacet
facet normal -6.798155367234455e-33 0.9998489885977782 -1.1102230246251565e-16
outer loop
vertex -20.0 -14.142135623730951 -14.142135623730947
vertex -2.361745 -14.142133502410609 -2.685904803250571
vertex -0.5753125000000003 -14.142132795303826 -4.558706104601172
endloop
endfacet
facet normal -6.798155367234455e-33 0.9998489885977782 -1.1102230246251565e-16
outer loop
vertex -20.0 -14.142135623730951 -14.142135623730947
vertex -0.5753125000000003 -14.142132795303826 -4.558706104601172
vertex 1.9081849999999998 -14.142137037944511 -5.287389542108844
endloop
endfacet
facet normal -6.798155367234455e-33 0.9998489885977782 -1.1102230246251565e-16
outer loop
vertex -20.0 -14.142135623730951 -14.142135623730947
vertex 1.9081849999999998 -14.142137037944511 -5.287389542108844
vertex 4.423295 -14.142134916624169 -4.676691820789615
endloop
endfacet
facet normal -6.798155367234455e-33 0.9998489885977782 -1.1102230246251565e-16
outer loop
vertex 20.0 -14.142135623730951 -14.142135623730951
vertex -20.0 -14.142135623730951 -14.142135623730947
vertex 4.423295 -14.142134916624169 -4.676691820789615
endloop
endfacet
facet normal -6.798155367234455e-33 0.9998489885977782 -1.1102230246251565e-16
outer loop
vertex 20.0 -14.142135623730951 -14.142135623730951
vertex 4.423295 -14.142134916624169 -4.676691820789615
vertex 6.296097 -14.14213420951739 -2.8902579559067036
endloop
endfacet
facet normal -6.798155367234455e-33 0.9998489885977782 -1.1102230246251565e-16
outer loop
vertex 20.0 -14.142135623730951 -14.142135623730951
vertex 6.296097 -14.14213420951739 -2.8902579559067036
vertex 7.024776 -14.142132795303826 -0.40675893323687307
endloop
endfacet
facet normal -6.798155367234455e-33 0.9998489885977782 -1.1102230246251565e-16
outer loop
vertex -20.0 -14.14213562373095 14.142135623730953
vertex 4.627648 -14.142137037944513 3.9811511852229367
vertex 2.1441500000000002 -14.142134209517387 4.7098275516628005
endloop
endfacet
facet normal -6.798155367234455e-33 0.9998489885977782 -1.1102230246251565e-16
outer loop
vertex -20.0 -14.14213562373095 14.142135623730953
vertex 2.1441500000000002 -14.142134209517387 4.7098275516628005
vertex -0.37096009999999974 -14.142139159264854 4.0991369014113825
endloop
endfacet
facet normal -6.798155367234455e-33 0.9998489885977782 -1.1102230246251565e-16
outer loop
vertex -20.0 -14.14213562373095 14.142135623730953
vertex -0.37096009999999974 -14.142139159264854 4.0991369014113825
vertex -2.243762 -14.142138452158076 2.312703036528468
endloop
endfacet
facet normal -6.798155367234455e-33 0.9998489885977782 -1.1102230246251565e-16
outer loop
vertex -20.0 -14.14213562373095 14.142135623730953
vertex -2.243762 -14.142138452158076 2.312703036528468
vertex -2.97244 -14.142134916624169 -0.1707952790345784
endloop
endfacet
facet normal -0.724 -5.551115123125783e-17 -0.6901362184380704
outer loop
vertex 6.414081 -14.142137037944513 2.10835059097912
vertex 4.627648 -24.142138718220473 3.9811525994365016
vertex 4.627648 -14.142137037944513 3.9811511852229367
endloop
endfacet
facet normal -0.28200000000000003 -5.551115123125783e-17 -0.9602510088513316
outer loop
vertex 4.627648 -14.142137037944513 3.9811511852229367
vertex 4.627648 -24.142138718220473 3.9811525994365016
vertex 2.1441500000000002 -24.142138718220473 4.709826137449241
endloop
endfacet
facet normal -0.28200000000000003 -5.551115123125783e-17 -0.9602510088513316
outer loop
vertex 4.627648 -14.142137037944513 3.9811511852229367
vertex 2.1441500000000002 -24.142138718220473 4.709826137449241
vertex 2.1441500000000002 -14.142134209517387 4.7098275516628005
endloop
endfacet
facet normal 0.23599999999999993 -1.1102230246251565e-16 -0.9715647173503164
outer loop
vertex 2.1441500000000002 -14.142134209517387 4.7098275516628005
vertex 2.1441500000000002 -24.142138718220473 4.709826137449241
vertex -0.37096009999999974 -24.14213164715266 4.099133365877478
endloop
endfacet
facet normal 0.23599999999999993 -1.1102230246251565e-16 -0.9715647173503164
outer loop
vertex 2.1441500000000002 -14.142134209517387 4.7098275516628005
vertex -0.37096009999999974 -24.14213164715266 4.099133365877478
vertex -0.37096009999999974 -14.142139159264854 4.0991369014113825
endloop
endfacet
facet normal -0.724 -5.551115123125783e-17 -0.6901362184380704
outer loop
vertex 4.627648 -24.142138718220473 3.9811525994365016
vertex 6.414081 -14.142137037944513 2.10835059097912
vertex 6.414081 -24.142138718220473 2.108352005192685
endloop
endfacet
facet normal -0.972 -1.3877787807814457e-17 -0.2361736649163068
outer loop
vertex 6.414081 -24.142138718220473 2.108352005192685
vertex 6.414081 -14.142137037944513 2.10835059097912
vertex 7.024776 -14.142132795303826 -0.40675893323687307
endloop
endfacet
facet normal -0.972 -1.3877787807814457e-17 -0.2361736649163068
outer loop
vertex 6.414081 -24.142138718220473 2.108352005192685
vertex 7.024776 -14.142132795303826 -0.40675893323687307
vertex 7.024776 -24.14213164715266 -0.40676317587755983
endloop
endfacet
facet normal -0.96 2.7755575615628914e-17 0.28142849891224603
outer loop
vertex 7.024776 -24.14213164715266 -0.40676317587755983
vertex 7.024776 -14.142132795303826 -0.40675893323687307
vertex 6.296097 -14.14213420951739 -2.8902579559067036
endloop
endfacet
facet normal -0.96 2.7755575615628914e-17 0.28142849891224603
outer loop
vertex 7.024776 -24.14213164715266 -0.40676317587755983
vertex 6.296097 -14.14213420951739 -2.8902579559067036
vertex 6.296097 -24.142138718220473 -2.8902565416931396
endloop
endfacet
facet normal -0.69 5.551115123125783e-17 0.7240773439350248
outer loop
vertex 6.296097 -24.142138718220473 -2.8902565416931396
vertex 6.296097 -14.14213420951739 -2.8902579559067036
vertex 4.423295 -14.142134916624169 -4.676691820789615
endloop
endfacet
facet normal -0.69 5.551115123125783e-17 0.7240773439350248
outer loop
vertex 6.296097 -24.142138718220473 -2.8902565416931396
vertex 4.423295 -14.142134916624169 -4.676691820789615
vertex 4.423295 -24.142138718220473 -4.676691113682834
endloop
endfacet
facet normal 0.724 5.551115123125783e-17 0.6901362184380704
outer loop
vertex -2.361745 -14.142133502410609 -2.685904803250571
vertex -0.5753125000000003 -24.14213164715266 -4.55871034724186
vertex -0.5753125000000003 -14.142132795303826 -4.558706104601172
endloop
endfacet
facet normal 0.28200000000000003 5.551115123125783e-17 0.9602510088513316
outer loop
vertex -0.5753125000000003 -14.142132795303826 -4.558706104601172
vertex -0.5753125000000003 -24.14213164715266 -4.55871034724186
vertex 1.9081849999999998 -24.14213164715266 -5.287383885254593
endloop
endfacet
facet normal 0.28200000000000003 5.551115123125783e-17 0.9602510088513316
outer loop
vertex -0.5753125000000003 -14.142132795303826 -4.558706104601172
vertex 1.9081849999999998 -24.14213164715266 -5.287383885254593
vertex 1.9081849999999998 -14.142137037944511 -5.287389542108844
endloop
endfacet
facet normal -0.23599999999999993 1.1102230246251565e-16 0.9715647173503164
outer loop
vertex 1.9081849999999998 -14.142137037944511 -5.287389542108844
vertex 1.9081849999999998 -24.14213164715266 -5.287383885254593
vertex 4.423295 -24.142138718220473 -4.676691113682834
endloop
endfacet
facet normal -0.23599999999999993 1.1102230246251565e-16 0.9715647173503164
outer loop
vertex 1.9081849999999998 -14.142137037944511 -5.287389542108844
vertex 4.423295 -24.142138718220473 -4.676691113682834
vertex 4.423295 -14.142134916624169 -4.676691820789615
endloop
endfacet
facet normal 0.724 5.551115123125783e-17 0.6901362184380704
outer loop
vertex -0.5753125000000003 -24.14213164715266 -4.55871034724186
vertex -2.361745 -14.142133502410609 -2.685904803250571
vertex -2.361745 -24.14213164715266 -2.685909752998038
endloop
endfacet
facet normal 0.972 1.3877787807814457e-17 0.2361736649163068
outer loop
vertex -2.361745 -24.14213164715266 -2.685909752998038
vertex -2.361745 -14.142133502410609 -2.685904803250571
vertex -2.97244 -14.142134916624169 -0.1707952790345784
endloop
endfacet
facet normal 0.972 1.3877787807814457e-17 0.2361736649163068
outer loop
vertex -2.361745 -24.14213164715266 -2.685909752998038
vertex -2.97244 -14.142134916624169 -0.1707952790345784
vertex -2.97244 -24.14213871822047 -0.17079457192779637
endloop
endfacet
facet normal 0.96 -2.7755575615628914e-17 -0.28142849891224603
outer loop
vertex -2.97244 -24.14213871822047 -0.17079457192779637
vertex -2.97244 -14.142134916624169 -0.1707952790345784
vertex -2.243762 -14.142138452158076 2.312703036528468
endloop
endfacet
facet normal 0.96 -2.7755575615628914e-17 -0.28142849891224603
outer loop
vertex -2.97244 -24.14213871822047 -0.17079457192779637
vertex -2.243762 -14.142138452158076 2.312703036528468
vertex -2.243762 -24.14213164715266 2.312698793887783
endloop
endfacet
facet normal 0.69 -5.551115123125783e-17 -0.7240773439350248
outer loop
vertex -2.243762 -24.14213164715266 2.312698793887783
vertex -2.243762 -14.142138452158076 2.312703036528468
vertex -0.37096009999999974 -14.142139159264854 4.0991369014113825
endloop
endfacet
facet normal 0.69 -5.551115123125783e-17 -0.7240773439350248
outer loop
vertex -2.243762 -24.14213164715266 2.312698793887783
vertex -0.37096009999999974 -14.142139159264854 4.0991369014113825
vertex -0.37096009999999974 -24.14213164715266 4.099133365877478
endloop
endfacet
facet normal -6.798155367234455e-33 0.9998489885977782 -1.1102230246251565e-16
outer loop
vertex 7.024776 -24.14213164715266 -0.40676317587755983
vertex 6.296097 -24.142138718220473 -2.8902565416931396
vertex 6.414081 -24.142138718220473 2.108352005192685
endloop
endfacet
facet normal -6.798155367234455e-33 0.9998489885977782 -1.1102230246251565e-16
outer loop
vertex -2.97244 -24.14213871822047 -0.17079457192779637
vertex -2.243762 -24.14213164715266 2.312698793887783
vertex -2.361745 -24.14213164715266 -2.685909752998038
endloop
endfacet
facet normal -6.798155367234455e-33 0.9998489885977782 -1.1102230246251565e-16
outer loop
vertex -2.361745 -24.14213164715266 -2.685909752998038
vertex -2.243762 -24.14213164715266 2.312698793887783
vertex -0.37096009999999974 -24.14213164715266 4.099133365877478
endloop
endfacet
facet normal -6.798155367234455e-33 0.9998489885977782 -1.1102230246251565e-16
outer loop
vertex -2.361745 -24.14213164715266 -2.685909752998038
vertex -0.37096009999999974 -24.14213164715266 4.099133365877478
vertex -0.5753125000000003 -24.14213164715266 -4.55871034724186
endloop
endfacet
facet normal -6.798155367234455e-33 0.9998489885977782 -1.1102230246251565e-16
outer loop
vertex -0.5753125000000003 -24.14213164715266 -4.55871034724186
vertex -0.37096009999999974 -24.14213164715266 4.099133365877478
vertex 2.1441500000000002 -24.142138718220473 4.709826137449241
endloop
endfacet
facet normal -6.798155367234455e-33 0.9998489885977782 -1.1102230246251565e-16
outer loop
vertex -0.5753125000000003 -24.14213164715266 -4.55871034724186
vertex 2.1441500000000002 -24.142138718220473 4.709826137449241
vertex 1.9081849999999998 -24.14213164715266 -5.287383885254593
endloop
endfacet
facet normal -6.798155367234455e-33 0.9998489885977782 -1.1102230246251565e-16
outer loop
vertex 1.9081849999999998 -24.14213164715266 -5.287383885254593
vertex 2.1441500000000002 -24.142138718220473 4.709826137449241
vertex 4.627648 -24.142138718220473 3.9811525994365016
endloop
endfacet
facet normal -6.798155367234455e-33 0.9998489885977782 -1.1102230246251565e-16
outer loop
vertex 1.9081849999999998 -24.14213164715266 -5.287383885254593
vertex 4.627648 -24.142138718220473 3.9811525994365016
vertex 4.423295 -24.142138718220473 -4.676691113682834
endloop
endfacet
facet normal -6.798155367234455e-33 0.9998489885977782 -1.1102230246251565e-16
outer loop
vertex 4.423295 -24.142138718220473 -4.676691113682834
vertex 4.627648 -24.142138718220473 3.9811525994365016
vertex 6.414081 -24.142138718220473 2.108352005192685
endloop
endfacet
facet normal -6.798155367234455e-33 0.9998489885977782 -1.1102230246251565e-16
outer loop
vertex 4.423295 -24.142138718220473 -4.676691113682834
vertex 6.414081 -24.142138718220473 2.108352005192685
vertex 6.296097 -24.142138718220473 -2.8902565416931396
endloop
endfacet
facet normal -1.0 0.0 6.123233995736766e-17
outer loop
vertex -20.0 -24.20179024628137 4.082481001180535
vertex -20.0 -14.142135623730951 -14.142135623730947
vertex -20.0 -32.366752248642435 -4.082481001180528
endloop
endfacet
facet normal -1.0 -0.0 6.123233995736766e-17
outer loop
vertex -20.0 -46.50888787237338 10.059654622550424
vertex -20.0 -49.49747468305832 21.213203435596427
vertex -20.0 -38.34392587001231 18.224616624911484
endloop
endfacet
facet normal -1.0 -0.0 6.123233995736766e-17
outer loop
vertex -20.0 -14.14213562373095 14.142135623730953
vertex -20.0 -14.142135623730951 -14.142135623730947
vertex -20.0 -24.20179024628137 4.082481001180535
endloop
endfacet
facet normal -1.0 -0.0 6.123233995736766e-17
outer loop
vertex -20.0 -14.14213562373095 14.142135623730953
vertex -20.0 -24.20179024628137 4.082481001180535
vertex -20.0 -27.190372814325624 15.23603405686723
endloop
endfacet
facet normal -1.0 0.0 6.123233995736766e-17
outer loop
vertex -20.0 -14.14213562373095 14.142135623730953
vertex -20.0 -27.190372814325624 15.23603405686723
vertex -20.0 -38.34392587001231 18.224616624911484
endloop
endfacet
facet normal -1.0 0.0 6.123233995736766e-17
outer loop
vertex -20.0 -14.14213562373095 14.142135623730953
vertex -20.0 -38.34392587001231 18.224616624911484
vertex -20.0 -49.49747468305832 21.213203435596427
endloop
endfacet
facet normal -1.0 -0.0 6.123233995736766e-17
outer loop
vertex -20.0 -14.14213562373095 14.142135623730953
vertex -20.0 -49.49747468305832 21.213203435596427
vertex -20.0 -47.32974692144941 24.45743056088375
endloop
endfacet
facet normal -1.0 -0.0 6.123233995736766e-17
outer loop
vertex -20.0 -14.14213562373095 14.142135623730953
vertex -20.0 -47.32974692144941 24.45743056088375
vertex -20.0 -46.568539400434275 28.28427124746191
endloop
endfacet
facet normal -1.0 -0.0 6.123233995736766e-17
outer loop
vertex -20.0 -14.14213562373095 14.142135623730953
vertex -20.0 -46.568539400434275 28.28427124746191
vertex -19.999999999999996 -47.3297398503816 32.111104862972255
endloop
endfacet
facet normal -1.0 -0.0 6.123233995736766e-17
outer loop
vertex -20.0 -14.14213562373095 14.142135623730953
vertex -19.999999999999996 -47.3297398503816 32.111104862972255
vertex -19.999999999999996 -49.49747468305832 35.35533905932738
endloop
endfacet
facet normal -1.0 0.0 6.123233995736766e-17
outer loop
vertex -20.0 -14.14213562373095 14.142135623730953
vertex -19.999999999999996 -49.49747468305832 35.35533905932738
vertex -19.999999999999996 -52.74170887941345 37.523073892004106
endloop
endfacet
facet normal -1.0 0.0 6.123233995736766e-17
outer loop
vertex -20.0 -84.8528137423857 28.284271247461906
vertex -19.999999999999996 -63.63961030678927 49.49747468305833
vertex -19.999999999999996 -49.49747468305832 49.49747468305833
endloop
endfacet
facet normal -1.0 -0.0 6.123233995736766e-17
outer loop
vertex -20.0 -84.8528137423857 28.284271247461906
vertex -19.999999999999996 -49.49747468305832 49.49747468305833
vertex -19.999999999999996 -63.63961030678927 35.35533905932738
endloop
endfacet
facet normal -1.0 0.0 6.123233995736766e-17
outer loop
vertex -20.0 -84.8528137423857 28.284271247461906
vertex -19.999999999999996 -63.63961030678927 35.35533905932738
vertex -19.999999999999996 -65.80733099733037 32.11110486297225
endloop
endfacet
facet normal -1.0 0.0 6.123233995736766e-17
outer loop
vertex -20.0 -84.8528137423857 28.284271247461906
vertex -19.999999999999996 -65.80733099733037 32.11110486297225
vertex -20.0 -70.71067811865476 14.142135623730956
endloop
endfacet
facet normal -1.0 -0.0 6.123233995736766e-17
outer loop
vertex -20.000000000000004 -63.63961030678928 -35.35533905932737
vertex -20.0 -70.71067811865476 14.142135623730956
vertex -20.0 -63.63961030678927 21.21320343559643
endloop
endfacet
facet normal -1.0 -0.0 6.123233995736766e-17
outer loop
vertex -20.000000000000004 -63.63961030678928 -35.35533905932737
vertex -20.0 -63.63961030678927 21.21320343559643
vertex -20.0 -60.39537611043415 19.0454686029197
endloop
endfacet
facet normal -1.0 -0.0 6.123233995736766e-17
outer loop
vertex -20.000000000000004 -63.63961030678928 -35.35533905932737
vertex -20.0 -60.39537611043415 19.0454686029197
vertex -20.0 -56.568542494923804 18.284268152972388
endloop
endfacet
facet normal -1.0 -0.0 6.123233995736766e-17
outer loop
vertex -20.000000000000004 -63.63961030678928 -35.35533905932737
vertex -20.0 -56.568542494923804 18.284268152972388
vertex -20.0 -52.74170180834564 19.045475673987518
endloop
endfacet
facet normal -1.0 -0.0 6.123233995736766e-17
outer loop
vertex -20.000000000000004 -63.63961030678928 -35.35533905932737
vertex -20.0 -52.74170180834564 19.045475673987518
vertex -20.0 -49.49747468305832 21.213203435596427
endloop
endfacet
facet normal -1.0 -0.0 6.123233995736766e-17
outer loop
vertex -20.000000000000004 -63.63961030678928 -35.35533905932737
vertex -20.0 -49.49747468305832 21.213203435596427
vertex -20.0 -46.50888787237338 10.059654622550424
endloop
endfacet
facet normal -1.0 -0.0 6.123233995736766e-17
outer loop
vertex -20.000000000000004 -63.63961030678928 -35.35533905932737
vertex -20.0 -46.50888787237338 10.059654622550424
vertex -20.0 -43.52030106168844 -1.0938941904955848
endloop
endfacet
facet normal -1.0 -0.0 6.123233995736766e-17
outer loop
vertex -20.000000000000004 -63.63961030678928 -35.35533905932737
vertex -20.0 -43.52030106168844 -1.0938941904955848
vertex -20.0 -32.366752248642435 -4.082481001180528
endloop
endfacet
facet normal -1.0 0.0 6.123233995736766e-17
outer loop
vertex -20.000000000000004 -63.63961030678928 -35.35533905932737
vertex -20.0 -32.366752248642435 -4.082481001180528
vertex -20.0 -14.142135623730951 -14.142135623730947
endloop
endfacet
facet normal -1.0 -0.0 6.123233995736766e-17
outer loop
vertex -20.000000000000004 -63.63961030678928 -35.35533905932737
vertex -20.0 -14.142135623730951 -14.142135623730947
vertex -20.000000000000004 -51.075171333241755 -31.430274169774584
endloop
endfacet
facet normal -1.0 -0.0 6.123233995736766e-17
outer loop
vertex -20.000000000000004 -63.63961030678928 -35.35533905932737
vertex -20.000000000000004 -51.075171333241755 -31.430274169774584
vertex -20.000000000000004 -53.08932257304476 -32.59313955570711
endloop
endfacet
facet normal -1.0 -0.0 6.123233995736766e-17
outer loop
vertex -20.000000000000004 -63.63961030678928 -35.35533905932737
vertex -20.000000000000004 -53.08932257304476 -32.59313955570711
vertex -20.000000000000004 -67.23145819677572 -46.73527517943807
endloop
endfacet
facet normal -1.0 0.0 6.123233995736766e-17
outer loop
vertex -20.000000000000004 -63.63961030678928 -35.35533905932737
vertex -20.000000000000004 -67.23145819677572 -46.73527517943807
vertex -20.000000000000004 -84.8528137423857 -56.56854249492379
endloop
endfacet
facet normal -1.0 -0.0 6.123233995736766e-17
outer loop
vertex -19.999999999999996 -49.49747468305832 49.49747468305833
vertex -20.0 -14.14213562373095 14.142135623730953
vertex -19.999999999999996 -52.74170887941345 37.523073892004106
endloop
endfacet
facet normal -1.0 0.0 6.123233995736766e-17
outer loop
vertex -19.999999999999996 -49.49747468305832 49.49747468305833
vertex -19.999999999999996 -52.74170887941345 37.523073892004106
vertex -19.999999999999996 -56.568542494923804 38.28427434195143
endloop
endfacet
facet normal -1.0 0.0 6.123233995736766e-17
outer loop
vertex -19.999999999999996 -49.49747468305832 49.49747468305833
vertex -19.999999999999996 -56.568542494923804 38.28427434195143
vertex -19.999999999999996 -60.39537611043414 37.52305974986848
endloop
endfacet
facet normal -1.0 0.0 6.123233995736766e-17
outer loop
vertex -19.999999999999996 -49.49747468305832 49.49747468305833
vertex -19.999999999999996 -60.39537611043414 37.52305974986848
vertex -19.999999999999996 -63.63961030678927 35.35533905932738
endloop
endfacet
facet normal -1.0 -0.0 6.123233995736766e-17
outer loop
vertex -20.0 -70.71067811865476 14.142135623730956
vertex -19.999999999999996 -65.80733099733037 32.11110486297225
vertex -20.0 -66.56854558941332 28.28427124746191
endloop
endfacet
facet normal -1.0 -0.0 6.123233995736766e-17
outer loop
vertex -20.0 -70.71067811865476 14.142135623730956
vertex -20.0 -66.56854558941332 28.28427124746191
vertex -20.0 -65.80734513946601 24.457437631951553
endloop
endfacet
facet normal -1.0 -0.0 6.123233995736766e-17
outer loop
vertex -20.0 -70.71067811865476 14.142135623730956
vertex -20.0 -65.80734513946601 24.457437631951553
vertex -20.0 -63.63961030678927 21.21320343559643
endloop
endfacet
facet normal -1.0 -0.0 6.123233995736766e-17
outer loop
vertex -20.0 -14.142135623730951 -14.142135623730947
vertex -20.000000000000004 -46.73527800786519 -38.947184120886675
vertex -20.000000000000004 -45.57240979350554 -36.9330357095108
endloop
endfacet
facet normal -1.0 -0.0 6.123233995736766e-17
outer loop
vertex -20.0 -14.142135623730951 -14.142135623730947
vertex -20.000000000000004 -45.57240979350554 -36.9330357095108
vertex -20.000000000000004 -45.57240767218521 -34.60729291683047
endloop
endfacet
facet normal -1.0 -0.0 6.123233995736766e-17
outer loop
vertex -20.0 -14.142135623730951 -14.142135623730947
vertex -20.000000000000004 -45.57240767218521 -34.60729291683047
vertex -20.000000000000004 -46.73528225050588 -32.59314662677493
endloop
endfacet
facet normal -1.0 0.0 6.123233995736766e-17
outer loop
vertex -20.0 -14.142135623730951 -14.142135623730947
vertex -20.000000000000004 -46.73528225050588 -32.59314662677493
vertex -20.000000000000004 -48.74942641924108 -31.43027416977459
endloop
endfacet
facet normal -1.0 0.0 6.123233995736766e-17
outer loop
vertex -20.0 -14.142135623730951 -14.142135623730947
vertex -20.000000000000004 -48.74942641924108 -31.43027416977459
vertex -20.000000000000004 -51.075171333241755 -31.430274169774584
endloop
endfacet
facet normal -1.0 -0.0 6.123233995736766e-17
outer loop
vertex -20.000000000000004 -77.78174593052023 -63.639610306789265
vertex -20.000000000000004 -84.8528137423857 -56.56854249492379
vertex -20.000000000000004 -67.23145819677572 -46.73527517943807
endloop
endfacet
facet normal -1.0 -0.0 6.123233995736766e-17
outer loop
vertex -20.000000000000004 -77.78174593052023 -63.639610306789265
vertex -20.000000000000004 -67.23145819677572 -46.73527517943807
vertex -20.000000000000004 -68.39433065377605 -48.74943349030888
endloop
endfacet
facet normal -1.0 -0.0 6.123233995736766e-17
outer loop
vertex -20.000000000000004 -77.78174593052023 -63.639610306789265
vertex -20.000000000000004 -68.39433065377605 -48.74943349030888
vertex -20.000000000000004 -68.39432358270824 -51.07517133324174
endloop
endfacet
facet normal -1.0 -0.0 6.123233995736766e-17
outer loop
vertex -20.000000000000004 -77.78174593052023 -63.639610306789265
vertex -20.000000000000004 -68.39432358270824 -51.07517133324174
vertex -20.000000000000004 -67.2314581967757 -53.089322573044754
endloop
endfacet
facet normal -1.0 0.0 6.123233995736766e-17
outer loop
vertex -20.000000000000004 -77.78174593052023 -63.639610306789265
vertex -20.000000000000004 -67.2314581967757 -53.089322573044754
vertex -20.000000000000004 -65.21730483565236 -54.252190080297616
endloop
endfacet
facet normal -1.0 0.0 6.123233995736766e-17
outer loop
vertex -20.000000000000004 -77.78174593052023 -63.639610306789265
vertex -20.000000000000004 -65.21730483565236 -54.252190080297616
vertex -20.000000000000004 -74.53750890573798 -65.80733382575748
endloop
endfacet
facet normal -1.0 -0.0 6.123233995736766e-17
outer loop
vertex -20.000000000000004 -66.88384782654629 -65.80734181606412
vertex -20.000000000000004 -70.71067953286833 -66.56854417519975
vertex -20.000000000000004 -63.63961030678928 -63.63961030678927
endloop
endfacet
facet normal -1.0 0.0 6.123233995736766e-17
outer loop
vertex -20.000000000000004 -63.63961030678928 -63.63961030678927
vertex -20.000000000000004 -70.71067953286833 -66.56854417519975
vertex -20.000000000000004 -60.87741363159615 -53.08931974461764
endloop
endfacet
facet normal -1.0 -0.0 6.123233995736766e-17
outer loop
vertex -20.000000000000004 -63.63961030678928 -63.63961030678927
vertex -20.000000000000004 -60.87741363159615 -53.08931974461764
vertex -20.0 -14.142135623730951 -14.142135623730947
endloop
endfacet
facet normal -1.0 -0.0 6.123233995736766e-17
outer loop
vertex -20.0 -14.142135623730951 -14.142135623730947
vertex -20.000000000000004 -60.87741363159615 -53.08931974461764
vertex -20.000000000000004 -46.73527800786519 -38.947184120886675
endloop
endfacet
facet normal -1.0 -0.0 6.123233995736766e-17
outer loop
vertex -20.000000000000004 -60.87741363159615 -53.08931974461764
vertex -20.000000000000004 -70.71067953286833 -66.56854417519975
vertex -20.000000000000004 -62.89156911403985 -54.252195030045094
endloop
endfacet
facet normal -1.0 0.0 6.123233995736766e-17
outer loop
vertex -20.000000000000004 -62.89156911403985 -54.252195030045094
vertex -20.000000000000004 -70.71067953286833 -66.56854417519975
vertex -20.000000000000004 -74.53750890573798 -65.80733382575748
endloop
endfacet
facet normal -1.0 -0.0 6.123233995736766e-17
outer loop
vertex -20.000000000000004 -62.89156911403985 -54.252195030045094
vertex -20.000000000000004 -74.53750890573798 -65.80733382575748
vertex -20.000000000000004 -65.21730483565236 -54.252190080297616
endloop
endfacet
facet normal 1.0 -0.0 -6.123233995736766e-17
outer loop
vertex 20.0 -32.366752248642435 -4.08248100118053
vertex 20.0 -14.142135623730951 -14.142135623730951
vertex 20.0 -24.20179024628137 4.0824810011805335
endloop
endfacet
facet normal 1.0 0.0 -6.123233995736766e-17
outer loop
vertex 20.0 -38.34392587001231 18.224616624911484
vertex 20.0 -49.49747468305832 21.213203435596427
vertex 20.0 -46.50888787237338 10.05965462255042
endloop
endfacet
facet normal 1.0 -0.0 -6.123233995736766e-17
outer loop
vertex 20.0 -14.14213562373095 14.14213562373095
vertex 20.000000000000004 -52.74170887941345 37.523073892004106
vertex 20.000000000000004 -49.49747468305832 35.35533905932738
endloop
endfacet
facet normal 1.0 0.0 -6.123233995736766e-17
outer loop
vertex 20.0 -14.14213562373095 14.14213562373095
vertex 20.000000000000004 -49.49747468305832 35.35533905932738
vertex 20.000000000000004 -47.3297398503816 32.111104862972255
endloop
endfacet
facet normal 1.0 0.0 -6.123233995736766e-17
outer loop
vertex 20.0 -14.14213562373095 14.14213562373095
vertex 20.000000000000004 -47.3297398503816 32.111104862972255
vertex 20.0 -46.568539400434275 28.28427124746191
endloop
endfacet
facet normal 1.0 0.0 -6.123233995736766e-17
outer loop
vertex 20.0 -14.14213562373095 14.14213562373095
vertex 20.0 -46.568539400434275 28.28427124746191
vertex 20.0 -47.32974692144941 24.45743056088375
endloop
endfacet
facet normal 1.0 0.0 -6.123233995736766e-17
outer loop
vertex 20.0 -14.14213562373095 14.14213562373095
vertex 20.0 -47.32974692144941 24.45743056088375
vertex 20.0 -49.49747468305832 21.213203435596427
endloop
endfacet
facet normal 1.0 -0.0 -6.123233995736766e-17
outer loop
vertex 20.0 -14.14213562373095 14.14213562373095
vertex 20.0 -49.49747468305832 21.213203435596427
vertex 20.0 -38.34392587001231 18.224616624911484
endloop
endfacet
facet normal 1.0 -0.0 -6.123233995736766e-17
outer loop
vertex 20.0 -14.14213562373095 14.14213562373095
vertex 20.0 -38.34392587001231 18.224616624911484
vertex 20.0 -27.190372814325624 15.236034056867226
endloop
endfacet
facet normal 1.0 0.0 -6.123233995736766e-17
outer loop
vertex 20.0 -14.14213562373095 14.14213562373095
vertex 20.0 -27.190372814325624 15.236034056867226
vertex 20.0 -24.20179024628137 4.0824810011805335
endloop
endfacet
facet normal 1.0 0.0 -6.123233995736766e-17
outer loop
vertex 20.0 -14.14213562373095 14.14213562373095
vertex 20.0 -24.20179024628137 4.0824810011805335
vertex 20.0 -14.142135623730951 -14.142135623730951
endloop
endfacet
facet normal 1.0 -0.0 -6.123233995736766e-17
outer loop
vertex 20.0 -84.8528137423857 28.284271247461906
vertex 20.0 -70.71067811865476 14.142135623730953
vertex 20.000000000000004 -65.80733099733037 32.11110486297225
endloop
endfacet
facet normal 1.0 -0.0 -6.123233995736766e-17
outer loop
vertex 20.0 -84.8528137423857 28.284271247461906
vertex 20.000000000000004 -65.80733099733037 32.11110486297225
vertex 20.000000000000004 -63.63961030678927 35.35533905932738
endloop
endfacet
facet normal 1.0 -0.0 -6.123233995736766e-17
outer loop
vertex 20.0 -84.8528137423857 28.284271247461906
vertex 20.000000000000004 -63.63961030678927 35.35533905932738
vertex 20.000000000000004 -49.49747468305832 49.49747468305833
endloop
endfacet
facet normal 1.0 -0.0 -6.123233995736766e-17
outer loop
vertex 20.0 -84.8528137423857 28.284271247461906
vertex 20.000000000000004 -49.49747468305832 49.49747468305833
vertex 20.000000000000004 -63.63961030678927 49.49747468305833
endloop
endfacet
facet normal 1.0 0.0 -6.123233995736766e-17
outer loop
vertex 19.999999999999996 -63.63961030678928 -35.35533905932737
vertex 19.999999999999996 -84.8528137423857 -56.56854249492379
vertex 19.999999999999996 -67.23145819677572 -46.73527517943807
endloop
endfacet
facet normal 1.0 -0.0 -6.123233995736766e-17
outer loop
vertex 19.999999999999996 -63.63961030678928 -35.35533905932737
vertex 19.999999999999996 -67.23145819677572 -46.73527517943807
vertex 19.999999999999996 -53.08932257304476 -32.59313955570711
endloop
endfacet
facet normal 1.0 0.0 -6.123233995736766e-17
outer loop
vertex 19.999999999999996 -63.63961030678928 -35.35533905932737
vertex 19.999999999999996 -53.08932257304476 -32.59313955570711
vertex 19.999999999999996 -51.075171333241755 -31.430274169774584
endloop
endfacet
facet normal 1.0 0.0 -6.123233995736766e-17
outer loop
vertex 19.999999999999996 -63.63961030678928 -35.35533905932737
vertex 19.999999999999996 -51.075171333241755 -31.430274169774584
vertex 20.0 -14.142135623730951 -14.142135623730951
endloop
endfacet
facet normal 1.0 -0.0 -6.123233995736766e-17
outer loop
vertex 19.999999999999996 -63.63961030678928 -35.35533905932737
vertex 20.0 -14.142135623730951 -14.142135623730951
vertex 20.0 -32.366752248642435 -4.08248100118053
endloop
endfacet
facet normal 1.0 -0.0 -6.123233995736766e-17
outer loop
vertex 19.999999999999996 -63.63961030678928 -35.35533905932737
vertex 20.0 -32.366752248642435 -4.08248100118053
vertex 20.0 -43.52030106168844 -1.0938941904955874
endloop
endfacet
facet normal 1.0 -0.0 -6.123233995736766e-17
outer loop
vertex 19.999999999999996 -63.63961030678928 -35.35533905932737
vertex 20.0 -43.52030106168844 -1.0938941904955874
vertex 20.0 -46.50888787237338 10.05965462255042
endloop
endfacet
facet normal 1.0 -0.0 -6.123233995736766e-17
outer loop
vertex 19.999999999999996 -63.63961030678928 -35.35533905932737
vertex 20.0 -46.50888787237338 10.05965462255042
vertex 20.0 -49.49747468305832 21.213203435596427
endloop
endfacet
facet normal 1.0 -0.0 -6.123233995736766e-17
outer loop
vertex 19.999999999999996 -63.63961030678928 -35.35533905932737
vertex 20.0 -49.49747468305832 21.213203435596427
vertex 20.0 -52.74170180834564 19.045475673987518
endloop
endfacet
facet normal 1.0 -0.0 -6.123233995736766e-17
outer loop
vertex 19.999999999999996 -63.63961030678928 -35.35533905932737
vertex 20.0 -52.74170180834564 19.045475673987518
vertex 20.0 -56.568542494923804 18.284268152972388
endloop
endfacet
facet normal 1.0 -0.0 -6.123233995736766e-17
outer loop
vertex 19.999999999999996 -63.63961030678928 -35.35533905932737
vertex 20.0 -56.568542494923804 18.284268152972388
vertex 20.0 -60.39537611043415 19.0454686029197
endloop
endfacet
facet normal 1.0 -0.0 -6.123233995736766e-17
outer loop
vertex 19.999999999999996 -63.63961030678928 -35.35533905932737
vertex 20.0 -60.39537611043415 19.0454686029197
vertex 20.0 -63.63961030678927 21.21320343559643
endloop
endfacet
facet normal 1.0 -0.0 -6.123233995736766e-17
outer loop
vertex 19.999999999999996 -63.63961030678928 -35.35533905932737
vertex 20.0 -63.63961030678927 21.21320343559643
vertex 20.0 -70.71067811865476 14.142135623730953
endloop
endfacet
facet normal 1.0 0.0 -6.123233995736766e-17
outer loop
vertex 20.000000000000004 -49.49747468305832 49.49747468305833
vertex 20.000000000000004 -63.63961030678927 35.35533905932738
vertex 20.000000000000004 -60.39537611043414 37.52305974986848
endloop
endfacet
facet normal 1.0 0.0 -6.123233995736766e-17
outer loop
vertex 20.000000000000004 -49.49747468305832 49.49747468305833
vertex 20.000000000000004 -60.39537611043414 37.52305974986848
vertex 20.000000000000004 -56.568542494923804 38.28427434195143
endloop
endfacet
facet normal 1.0 0.0 -6.123233995736766e-17
outer loop
vertex 20.000000000000004 -49.49747468305832 49.49747468305833
vertex 20.000000000000004 -56.568542494923804 38.28427434195143
vertex 20.000000000000004 -52.74170887941345 37.523073892004106
endloop
endfacet
facet normal 1.0 0.0 -6.123233995736766e-17
outer loop
vertex 20.000000000000004 -49.49747468305832 49.49747468305833
vertex 20.000000000000004 -52.74170887941345 37.523073892004106
vertex 20.0 -14.14213562373095 14.14213562373095
endloop
endfacet
facet normal 1.0 -0.0 -6.123233995736766e-17
outer loop
vertex 20.0 -70.71067811865476 14.142135623730953
vertex 20.0 -63.63961030678927 21.21320343559643
vertex 20.0 -65.80734513946601 24.457437631951553
endloop
endfacet
facet normal 1.0 -0.0 -6.123233995736766e-17
outer loop
vertex 20.0 -70.71067811865476 14.142135623730953
vertex 20.0 -65.80734513946601 24.457437631951553
vertex 20.0 -66.56854558941332 28.28427124746191
endloop
endfacet
facet normal 1.0 -0.0 -6.123233995736766e-17
outer loop
vertex 20.0 -70.71067811865476 14.142135623730953
vertex 20.0 -66.56854558941332 28.28427124746191
vertex 20.000000000000004 -65.80733099733037 32.11110486297225
endloop
endfacet
facet normal 1.0 -0.0 -6.123233995736766e-17
outer loop
vertex 20.0 -14.142135623730951 -14.142135623730951
vertex 19.999999999999996 -51.075171333241755 -31.430274169774584
vertex 19.999999999999996 -48.74942641924108 -31.43027416977459
endloop
endfacet
facet normal 1.0 -0.0 -6.123233995736766e-17
outer loop
vertex 20.0 -14.142135623730951 -14.142135623730951
vertex 19.999999999999996 -48.74942641924108 -31.43027416977459
vertex 19.999999999999996 -46.73528225050588 -32.59314662677493
endloop
endfacet
facet normal 1.0 0.0 -6.123233995736766e-17
outer loop
vertex 20.0 -14.142135623730951 -14.142135623730951
vertex 19.999999999999996 -46.73528225050588 -32.59314662677493
vertex 19.999999999999996 -45.57240767218521 -34.60729291683047
endloop
endfacet
facet normal 1.0 0.0 -6.123233995736766e-17
outer loop
vertex 20.0 -14.142135623730951 -14.142135623730951
vertex 19.999999999999996 -45.57240767218521 -34.60729291683047
vertex 19.999999999999996 -45.57240979350554 -36.9330357095108
endloop
endfacet
facet normal 1.0 0.0 -6.123233995736766e-17
outer loop
vertex 20.0 -14.142135623730951 -14.142135623730951
vertex 19.999999999999996 -45.57240979350554 -36.9330357095108
vertex 19.999999999999996 -46.73527800786519 -38.947184120886675
endloop
endfacet
facet normal 1.0 -0.0 -6.123233995736766e-17
outer loop
vertex 19.999999999999996 -77.78174593052023 -63.639610306789265
vertex 19.999999999999996 -74.53750890573798 -65.80733382575748
vertex 19.999999999999996 -65.21730483565236 -54.252190080297616
endloop
endfacet
facet normal 1.0 -0.0 -6.123233995736766e-17
outer loop
vertex 19.999999999999996 -77.78174593052023 -63.639610306789265
vertex 19.999999999999996 -65.21730483565236 -54.252190080297616
vertex 19.999999999999996 -67.2314581967757 -53.089322573044754
endloop
endfacet
facet normal 1.0 -0.0 -6.123233995736766e-17
outer loop
vertex 19.999999999999996 -77.78174593052023 -63.639610306789265
vertex 19.999999999999996 -67.2314581967757 -53.089322573044754
vertex 19.999999999999996 -68.39432358270824 -51.07517133324174
endloop
endfacet
facet normal 1.0 -0.0 -6.123233995736766e-17
outer loop
vertex 19.999999999999996 -77.78174593052023 -63.639610306789265
vertex 19.999999999999996 -68.39432358270824 -51.07517133324174
vertex 19.999999999999996 -68.39433065377605 -48.74943349030888
endloop
endfacet
facet normal 1.0 -0.0 -6.123233995736766e-17
outer loop
vertex 19.999999999999996 -77.78174593052023 -63.639610306789265
vertex 19.999999999999996 -68.39433065377605 -48.74943349030888
vertex 19.999999999999996 -67.23145819677572 -46.73527517943807
endloop
endfacet
facet normal 1.0 -0.0 -6.123233995736766e-17
outer loop
vertex 19.999999999999996 -77.78174593052023 -63.639610306789265
vertex 19.999999999999996 -67.23145819677572 -46.73527517943807
vertex 19.999999999999996 -84.8528137423857 -56.56854249492379
endloop
endfacet
facet normal 1.0 -0.0 -6.123233995736766e-17
outer loop
vertex 19.999999999999996 -66.88384782654629 -65.80734181606412
vertex 19.999999999999996 -63.63961030678928 -63.63961030678927
vertex 19.999999999999996 -70.71067953286833 -66.56854417519975
endloop
endfacet
facet normal 1.0 0.0 -6.123233995736766e-17
outer loop
vertex 19.999999999999996 -70.71067953286833 -66.56854417519975
vertex 19.999999999999996 -63.63961030678928 -63.63961030678927
vertex 19.999999999999996 -60.87741363159615 -53.08931974461764
endloop
endfacet
facet normal 1.0 -0.0 -6.123233995736766e-17
outer loop
vertex 19.999999999999996 -63.63961030678928 -63.63961030678927
vertex 20.0 -14.142135623730951 -14.142135623730951
vertex 19.999999999999996 -60.87741363159615 -53.08931974461764
endloop
endfacet
facet normal 1.0 0.0 -6.123233995736766e-17
outer loop
vertex 19.999999999999996 -60.87741363159615 -53.08931974461764
vertex 20.0 -14.142135623730951 -14.142135623730951
vertex 19.999999999999996 -46.73527800786519 -38.947184120886675
endloop
endfacet
facet normal 1.0 0.0 -6.123233995736766e-17
outer loop
vertex 19.999999999999996 -65.21730483565236 -54.252190080297616
vertex 19.999999999999996 -74.53750890573798 -65.80733382575748
vertex 19.999999999999996 -62.89156911403985 -54.252195030045094
endloop
endfacet
facet normal 1.0 -0.0 -6.123233995736766e-17
outer loop
vertex 19.999999999999996 -62.89156911403985 -54.252195030045094
vertex 19.999999999999996 -74.53750890573798 -65.80733382575748
vertex 19.999999999999996 -70.71067953286833 -66.56854417519975
endloop
endfacet
facet normal 1.0 -0.0 -6.123233995736766e-17
outer loop
vertex 19.999999999999996 -62.89156911403985 -54.252195030045094
vertex 19.999999999999996 -70.71067953286833 -66.56854417519975
vertex 19.999999999999996 -60.87741363159615 -53.08931974461764
endloop
endfacet
facet normal -4.329780281177467e-17 0.7071067811865475 -0.7071067811865476
outer loop
vertex -20.000000000000004 -63.63961030678928 -63.63961030678927
vertex -20.0 -14.142135623730951 -14.142135623730947
vertex 19.999999999999996 -63.63961030678928 -63.63961030678927
endloop
endfacet
facet normal -4.329780281177467e-17 0.7071067811865475 -0.7071067811865476
outer loop
vertex 19.999999999999996 -63.63961030678928 -63.63961030678927
vertex -20.0 -14.142135623730951 -14.142135623730947
vertex 20.0 -14.142135623730951 -14.142135623730951
endloop
endfacet
facet normal 4.329780281177466e-17 0.7071067811865476 0.7071067811865475
outer loop
vertex -20.0 -14.14213562373095 14.142135623730953
vertex -19.999999999999996 -49.49747468305832 49.49747468305833
vertex 20.0 -14.14213562373095 14.14213562373095
endloop
endfacet
facet normal 4.329780281177466e-17 0.7071067811865476 0.7071067811865475
outer loop
vertex 20.0 -14.14213562373095 14.14213562373095
vertex -19.999999999999996 -49.49747468305832 49.49747468305833
vertex 20.000000000000004 -49.49747468305832 49.49747468305833
endloop
endfacet
facet normal 4.329780281177467e-17 -0.7071067811865475 0.7071067811865476
outer loop
vertex 8.215111687064799e-16 -70.71067811865476 42.42640687119285
vertex 10.000000000000002 -77.78174593052023 35.35533905932738
vertex 20.000000000000004 -63.63961030678927 49.49747468305833
endloop
endfacet
facet normal 4.329780281177467e-17 -0.7071067811865475 0.7071067811865476
outer loop
vertex -19.999999999999996 -63.63961030678927 49.49747468305833
vertex -20.0 -84.8528137423857 28.284271247461906
vertex -9.999999999999998 -77.78174593052023 35.35533905932738
endloop
endfacet
facet normal 4.329780281177467e-17 -0.7071067811865475 0.7071067811865476
outer loop
vertex -19.999999999999996 -63.63961030678927 49.49747468305833
vertex -9.999999999999998 -77.78174593052023 35.35533905932738
vertex 8.215111687064799e-16 -70.71067811865476 42.42640687119285
endloop
endfacet
facet normal 4.329780281177467e-17 -0.7071067811865475 0.7071067811865476
outer loop
vertex -19.999999999999996 -63.63961030678927 49.49747468305833
vertex 8.215111687064799e-16 -70.71067811865476 42.42640687119285
vertex 20.000000000000004 -63.63961030678927 49.49747468305833
endloop
endfacet
facet normal 4.329780281177467e-17 -0.7071067811865475 0.7071067811865476
outer loop
vertex 20.000000000000004 -63.63961030678927 49.49747468305833
vertex 10.000000000000002 -77.78174593052023 35.35533905932738
vertex 20.0 -84.8528137423857 28.284271247461906
endloop
endfacet
facet normal 4.329780281177467e-17 -0.7071067811865475 0.7071067811865476
outer loop
vertex 20.0 -84.8528137423857 28.284271247461906
vertex 10.000000000000002 -77.78174593052023 35.35533905932738
vertex -9.999999999999998 -77.78174593052023 35.35533905932738
endloop
endfacet
facet normal 4.329780281177467e-17 -0.7071067811865475 0.7071067811865476
outer loop
vertex 20.0 -84.8528137423857 28.284271247461906
vertex -9.999999999999998 -77.78174593052023 35.35533905932738
vertex -20.0 -84.8528137423857 28.284271247461906
endloop
endfacet
facet normal 4.329780281177467e-17 -0.7071067811865475 0.7071067811865476
outer loop
vertex -9.999999999999998 -70.71067811865476 28.284271247461906
vertex 10.000000000000002 -70.71067811865476 28.284271247461906
vertex -1.387823859411267e-15 -63.63961030678927 35.35533905932738
endloop
endfacet
facet normal 0.707 -0.49992449429888913 -0.4999244942988891
outer loop
vertex -1.387823859411267e-15 -63.63961030678927 35.35533905932738
vertex 8.215111687064799e-16 -70.71067811865476 42.42640687119285
vertex -9.999999999999998 -70.71067811865476 28.284271247461906
endloop
endfacet
facet normal 0.707 -0.49992449429888913 -0.4999244942988891
outer loop
vertex -9.999999999999998 -70.71067811865476 28.284271247461906
vertex 8.215111687064799e-16 -70.71067811865476 42.42640687119285
vertex -9.999999999999998 -77.78174593052023 35.35533905932738
endloop
endfacet
facet normal -0.707 -0.49992449429888913 -0.49992449429888897
outer loop
vertex 10.000000000000002 -70.71067811865476 28.284271247461906
vertex 10.000000000000002 -77.78174593052023 35.35533905932738
vertex -1.387823859411267e-15 -63.63961030678927 35.35533905932738
endloop
endfacet
facet normal -0.707 -0.49992449429888913 -0.49992449429888897
outer loop
vertex -1.387823859411267e-15 -63.63961030678927 35.35533905932738
vertex 10.000000000000002 -77.78174593052023 35.35533905932738
vertex 8.215111687064799e-16 -70.71067811865476 42.42640687119285
endloop
endfacet
facet normal 4.329780281177466e-17 0.7071067811865476 0.7071067811865475
outer loop
vertex -9.999999999999998 -70.71067811865476 28.284271247461906
vertex -9.999999999999998 -77.78174593052023 35.35533905932738
vertex 10.000000000000002 -70.71067811865476 28.284271247461906
endloop
endfacet
facet normal 4.329780281177466e-17 0.7071067811865476 0.7071067811865475
outer loop
vertex 10.000000000000002 -70.71067811865476 28.284271247461906
vertex -9.999999999999998 -77.78174593052023 35.35533905932738
vertex 10.000000000000002 -77.78174593052023 35.35533905932738
endloop
endfacet
facet normal -5.0918216106647005e-17 0.5557859300126262 -0.8315575746753798
outer loop
vertex 20.000000000000004 -63.63961030678927 35.35533905932738
vertex -19.999999999999996 -60.39537611043414 37.52305974986848
vertex 20.000000000000004 -60.39537611043414 37.52305974986848
endloop
endfacet
facet normal -6.005405249993146e-17 0.1944543648263004 -0.9807571055057414
outer loop
vertex 20.000000000000004 -60.39537611043414 37.52305974986848
vertex -19.999999999999996 -60.39537611043414 37.52305974986848
vertex -19.999999999999996 -56.568542494923804 38.28427434195143
endloop
endfacet
facet normal -6.005405249993146e-17 0.1944543648263004 -0.9807571055057414
outer loop
vertex 20.000000000000004 -60.39537611043414 37.52305974986848
vertex -19.999999999999996 -56.568542494923804 38.28427434195143
vertex 20.000000000000004 -56.568542494923804 38.28427434195143
endloop
endfacet
facet normal -6.005405249993146e-17 -0.19445436482630057 -0.9807571055057414
outer loop
vertex 20.000000000000004 -56.568542494923804 38.28427434195143
vertex -19.999999999999996 -56.568542494923804 38.28427434195143
vertex -19.999999999999996 -52.74170887941345 37.523073892004106
endloop
endfacet
facet normal -6.005405249993146e-17 -0.19445436482630057 -0.9807571055057414
outer loop
vertex 20.000000000000004 -56.568542494923804 38.28427434195143
vertex -19.999999999999996 -52.74170887941345 37.523073892004106
vertex 20.000000000000004 -52.74170887941345 37.523073892004106
endloop
endfacet
facet normal -5.0918216106647005e-17 -0.5557859300126264 -0.8315575746753798
outer loop
vertex 20.000000000000004 -52.74170887941345 37.523073892004106
vertex -19.999999999999996 -52.74170887941345 37.523073892004106
vertex -19.999999999999996 -49.49747468305832 35.35533905932738
endloop
endfacet
facet normal -5.0918216106647005e-17 -0.5557859300126264 -0.8315575746753798
outer loop
vertex 20.000000000000004 -52.74170887941345 37.523073892004106
vertex -19.999999999999996 -49.49747468305832 35.35533905932738
vertex 20.000000000000004 -49.49747468305832 35.35533905932738
endloop
endfacet
facet normal -5.0918216106647005e-17 0.5557859300126262 -0.8315575746753798
outer loop
vertex -19.999999999999996 -60.39537611043414 37.52305974986848
vertex 20.000000000000004 -63.63961030678927 35.35533905932738
vertex -19.999999999999996 -63.63961030678927 35.35533905932738
endloop
endfacet
facet normal -3.403207301005489e-17 0.8315575746753798 -0.5557859300126264
outer loop
vertex -19.999999999999996 -63.63961030678927 35.35533905932738
vertex 20.000000000000004 -63.63961030678927 35.35533905932738
vertex 20.000000000000004 -65.80733099733037 32.11110486297225
endloop
endfacet
facet normal -3.403207301005489e-17 0.8315575746753798 -0.5557859300126264
outer loop
vertex -19.999999999999996 -63.63961030678927 35.35533905932738
vertex 20.000000000000004 -65.80733099733037 32.11110486297225
vertex -19.999999999999996 -65.80733099733037 32.11110486297225
endloop
endfacet
facet normal -1.1906895773238033e-17 0.9807571055057414 -0.19445436482630057
outer loop
vertex -19.999999999999996 -65.80733099733037 32.11110486297225
vertex 20.000000000000004 -65.80733099733037 32.11110486297225
vertex 20.0 -66.56854558941332 28.28427124746191
endloop
endfacet
facet normal -1.1906895773238033e-17 0.9807571055057414 -0.19445436482630057
outer loop
vertex -19.999999999999996 -65.80733099733037 32.11110486297225
vertex 20.0 -66.56854558941332 28.28427124746191
vertex -20.0 -66.56854558941332 28.28427124746191
endloop
endfacet
facet normal 1.1906895773238024e-17 0.9807571055057414 0.1944543648263004
outer loop
vertex -20.0 -66.56854558941332 28.28427124746191
vertex 20.0 -66.56854558941332 28.28427124746191
vertex 20.0 -65.80734513946601 24.457437631951553
endloop
endfacet
facet normal 1.1906895773238024e-17 0.9807571055057414 0.1944543648263004
outer loop
vertex -20.0 -66.56854558941332 28.28427124746191
vertex 20.0 -65.80734513946601 24.457437631951553
vertex -20.0 -65.80734513946601 24.457437631951553
endloop
endfacet
facet normal 3.403207301005488e-17 0.8315575746753798 0.5557859300126262
outer loop
vertex -20.0 -65.80734513946601 24.457437631951553
vertex 20.0 -65.80734513946601 24.457437631951553
vertex 20.0 -63.63961030678927 21.21320343559643
endloop
endfacet
facet normal 3.403207301005488e-17 0.8315575746753798 0.5557859300126262
outer loop
vertex -20.0 -65.80734513946601 24.457437631951553
vertex 20.0 -63.63961030678927 21.21320343559643
vertex -20.0 -63.63961030678927 21.21320343559643
endloop
endfacet
facet normal -4.329780281177466e-17 -0.7071067811865476 -0.7071067811865475
outer loop
vertex 19.999999999999996 -84.8528137423857 -56.56854249492379
vertex -20.000000000000004 -84.8528137423857 -56.56854249492379
vertex 19.999999999999996 -77.78174593052023 -63.639610306789265
endloop
endfacet
facet normal -4.329780281177466e-17 -0.7071067811865476 -0.7071067811865475
outer loop
vertex 19.999999999999996 -77.78174593052023 -63.639610306789265
vertex -20.000000000000004 -84.8528137423857 -56.56854249492379
vertex -20.000000000000004 -77.78174593052023 -63.639610306789265
endloop
endfacet
facet normal -5.0918216106647005e-17 -0.5557859300126264 -0.8315575746753798
outer loop
vertex 19.999999999999996 -77.78174593052023 -63.639610306789265
vertex -20.000000000000004 -77.78174593052023 -63.639610306789265
vertex 19.999999999999996 -74.53750890573798 -65.80733382575748
endloop
endfacet
facet normal -5.0918216106647005e-17 -0.5557859300126264 -0.8315575746753798
outer loop
vertex 19.999999999999996 -74.53750890573798 -65.80733382575748
vertex -20.000000000000004 -77.78174593052023 -63.639610306789265
vertex -20.000000000000004 -74.53750890573798 -65.80733382575748
endloop
endfacet
facet normal -6.005405249993146e-17 -0.19445436482630057 -0.9807571055057414
outer loop
vertex 19.999999999999996 -74.53750890573798 -65.80733382575748
vertex -20.000000000000004 -74.53750890573798 -65.80733382575748
vertex 19.999999999999996 -70.71067953286833 -66.56854417519975
endloop
endfacet
facet normal -6.005405249993146e-17 -0.19445436482630057 -0.9807571055057414
outer loop
vertex 19.999999999999996 -70.71067953286833 -66.56854417519975
vertex -20.000000000000004 -74.53750890573798 -65.80733382575748
vertex -20.000000000000004 -70.71067953286833 -66.56854417519975
endloop
endfacet
facet normal -6.005405249993146e-17 0.1944543648263004 -0.9807571055057414
outer loop
vertex 19.999999999999996 -70.71067953286833 -66.56854417519975
vertex -20.000000000000004 -70.71067953286833 -66.56854417519975
vertex 19.999999999999996 -66.88384782654629 -65.80734181606412
endloop
endfacet
facet normal -6.005405249993146e-17 0.1944543648263004 -0.9807571055057414
outer loop
vertex 19.999999999999996 -66.88384782654629 -65.80734181606412
vertex -20.000000000000004 -70.71067953286833 -66.56854417519975
vertex -20.000000000000004 -66.88384782654629 -65.80734181606412
endloop
endfacet
facet normal -5.0918216106647005e-17 0.5557859300126262 -0.8315575746753798
outer loop
vertex 19.999999999999996 -66.88384782654629 -65.80734181606412
vertex -20.000000000000004 -66.88384782654629 -65.80734181606412
vertex 19.999999999999996 -63.63961030678928 -63.63961030678927
endloop
endfacet
facet normal -5.0918216106647005e-17 0.5557859300126262 -0.8315575746753798
outer loop
vertex 19.999999999999996 -63.63961030678928 -63.63961030678927
vertex -20.000000000000004 -66.88384782654629 -65.80734181606412
vertex -20.000000000000004 -63.63961030678928 -63.63961030678927
endloop
endfacet
facet normal 6.122309317584938e-17 1.1102230246251565e-16 0.9998489885977782
outer loop
vertex -19.999999999999996 -63.63961030678927 49.49747468305833
vertex 20.000000000000004 -63.63961030678927 49.49747468305833
vertex -19.999999999999996 -49.49747468305832 49.49747468305833
endloop
endfacet
facet normal 6.122309317584938e-17 1.1102230246251565e-16 0.9998489885977782
outer loop
vertex -19.999999999999996 -49.49747468305832 49.49747468305833
vertex 20.000000000000004 -63.63961030678927 49.49747468305833
vertex 20.000000000000004 -49.49747468305832 49.49747468305833
endloop
endfacet
facet normal -8.659560562354932e-18 -0.9899494936611666 -0.1414213562373095
outer loop
vertex -20.000000000000004 -63.63961030678928 -35.35533905932737
vertex 19.999999999999996 -63.63961030678928 -35.35533905932737
vertex -3.826834000000001 -66.01000194295406 -18.762597606173824
endloop
endfacet
facet normal -8.659560562354932e-18 -0.9899494936611666 -0.1414213562373095
outer loop
vertex -20.000000000000004 -63.63961030678928 -35.35533905932737
vertex -3.826834000000001 -66.01000194295406 -18.762597606173824
vertex -7.071068000000001 -66.3165680879375 -16.616648733425457
endloop
endfacet
facet normal -8.659560562354932e-18 -0.9899494936611666 -0.1414213562373095
outer loop
vertex -20.000000000000004 -63.63961030678928 -35.35533905932737
vertex -7.071068000000001 -66.3165680879375 -16.616648733425457
vertex -9.238795 -66.77536725184258 -13.405026301818658
endloop
endfacet
facet normal -8.659560562354932e-18 -0.9899494936611666 -0.1414213562373095
outer loop
vertex -20.000000000000004 -63.63961030678928 -35.35533905932737
vertex -9.238795 -66.77536725184258 -13.405026301818658
vertex -20.0 -70.71067811865476 14.142135623730956
endloop
endfacet
facet normal -8.659560562354932e-18 -0.9899494936611666 -0.1414213562373095
outer loop
vertex 20.0 -70.71067811865476 14.142135623730953
vertex -20.0 -70.71067811865476 14.142135623730956
vertex -8.708592788752897e-16 -68.73077913133241 0.28284271247462556
endloop
endfacet
facet normal -8.659560562354932e-18 -0.9899494936611666 -0.1414213562373095
outer loop
vertex 20.0 -70.71067811865476 14.142135623730953
vertex -8.708592788752897e-16 -68.73077913133241 0.28284271247462556
vertex 3.826834 -68.62312919496458 -0.47070684210025626
endloop
endfacet
facet normal -8.659560562354932e-18 -0.9899494936611666 -0.1414213562373095
outer loop
vertex 20.0 -70.71067811865476 14.142135623730953
vertex 3.826834 -68.62312919496458 -0.47070684210025626
vertex 7.071068 -68.31657012104895 -2.6166486437808136
endloop
endfacet
facet normal -8.659560562354932e-18 -0.9899494936611666 -0.1414213562373095
outer loop
vertex 20.0 -70.71067811865476 14.142135623730953
vertex 7.071068 -68.31657012104895 -2.6166486437808136
vertex 9.238795 -67.85776388607607 -5.828278146455433
endloop
endfacet
facet normal -8.659560562354932e-18 -0.9899494936611666 -0.1414213562373095
outer loop
vertex 20.0 -70.71067811865476 14.142135623730953
vertex 9.238795 -67.85776388607607 -5.828278146455433
vertex 10.0 -67.31656556895932 -9.616652224137042
endloop
endfacet
facet normal -8.659560562354932e-18 -0.9899494936611666 -0.1414213562373095
outer loop
vertex 20.0 -70.71067811865476 14.142135623730953
vertex 10.0 -67.31656556895932 -9.616652224137042
vertex 9.238795 -66.77536725184258 -13.405026301818658
endloop
endfacet
facet normal -8.659560562354932e-18 -0.9899494936611666 -0.1414213562373095
outer loop
vertex 19.999999999999996 -63.63961030678928 -35.35533905932737
vertex 20.0 -70.71067811865476 14.142135623730953
vertex 9.238795 -66.77536725184258 -13.405026301818658
endloop
endfacet
facet normal -8.659560562354932e-18 -0.9899494936611666 -0.1414213562373095
outer loop
vertex 19.999999999999996 -63.63961030678928 -35.35533905932737
vertex 9.238795 -66.77536725184258 -13.405026301818658
vertex 7.0710679999999995 -66.3165680879375 -16.616648733425457
endloop
endfacet
facet normal -8.659560562354932e-18 -0.9899494936611666 -0.1414213562373095
outer loop
vertex 19.999999999999996 -63.63961030678928 -35.35533905932737
vertex 7.0710679999999995 -66.3165680879375 -16.616648733425457
vertex 3.8268339999999985 -66.01000194295406 -18.762597606173824
endloop
endfacet
facet normal -8.659560562354932e-18 -0.9899494936611666 -0.1414213562373095
outer loop
vertex 19.999999999999996 -63.63961030678928 -35.35533905932737
vertex 3.8268339999999985 -66.01000194295406 -18.762597606173824
vertex -2.4196253576049803e-15 -65.90235200658623 -19.516147160748705
endloop
endfacet
facet normal -8.659560562354932e-18 -0.9899494936611666 -0.1414213562373095
outer loop
vertex 19.999999999999996 -63.63961030678928 -35.35533905932737
vertex -2.4196253576049803e-15 -65.90235200658623 -19.516147160748705
vertex -3.826834000000001 -66.01000194295406 -18.762597606173824
endloop
endfacet
facet normal -8.659560562354932e-18 -0.9899494936611666 -0.1414213562373095
outer loop
vertex -20.0 -70.71067811865476 14.142135623730956
vertex -9.238795 -66.77536725184258 -13.405026301818658
vertex -10.0 -67.31656556895932 -9.616652224137042
endloop
endfacet
facet normal -8.659560562354932e-18 -0.9899494936611666 -0.1414213562373095
outer loop
vertex -20.0 -70.71067811865476 14.142135623730956
vertex -10.0 -67.31656556895932 -9.616652224137042
vertex -9.238795 -67.85776388607607 -5.828278146455431
endloop
endfacet
facet normal -8.659560562354932e-18 -0.9899494936611666 -0.1414213562373095
outer loop
vertex -20.0 -70.71067811865476 14.142135623730956
vertex -9.238795 -67.85776388607607 -5.828278146455431
vertex -7.071068 -68.31657012104895 -2.6166486437808127
endloop
endfacet
facet normal -8.659560562354932e-18 -0.9899494936611666 -0.1414213562373095
outer loop
vertex -20.0 -70.71067811865476 14.142135623730956
vertex -7.071068 -68.31657012104895 -2.6166486437808127
vertex -3.826834 -68.62312919496458 -0.4707068421002558
endloop
endfacet
facet normal -8.659560562354932e-18 -0.9899494936611666 -0.1414213562373095
outer loop
vertex -20.0 -70.71067811865476 14.142135623730956
vertex -3.826834 -68.62312919496458 -0.4707068421002558
vertex -8.708592788752897e-16 -68.73077913133241 0.28284271247462556
endloop
endfacet
facet normal -0.981 0.027577164466275325 -0.19304015126392743
outer loop
vertex 10.0 -52.46732316404183 -7.4953318805774005
vertex 9.238795 -67.85776388607607 -5.828278146455433
vertex 9.238795 -53.008521481158574 -3.706957802895794
endloop
endfacet
facet normal -0.831 0.07848885271170675 -0.5494219689819474
outer loop
vertex 9.238795 -53.008521481158574 -3.706957802895794
vertex 9.238795 -67.85776388607607 -5.828278146455433
vertex 7.071068 -68.31657012104895 -2.6166486437808136
endloop
endfacet
facet normal -0.831 0.07848885271170675 -0.5494219689819474
outer loop
vertex 9.238795 -53.008521481158574 -3.706957802895794
vertex 7.071068 -68.31657012104895 -2.6166486437808136
vertex 7.071068 -53.467327716131464 -0.4953283002211717
endloop
endfacet
facet normal -0.556 0.11737972567696686 -0.8230722933011414
outer loop
vertex 7.071068 -53.467327716131464 -0.4953283002211717
vertex 7.071068 -68.31657012104895 -2.6166486437808136
vertex 3.826834 -68.62312919496458 -0.47070684210025626
endloop
endfacet
facet normal -0.556 0.11737972567696686 -0.8230722933011414
outer loop
vertex 7.071068 -53.467327716131464 -0.4953283002211717
vertex 3.826834 -68.62312919496458 -0.47070684210025626
vertex 3.826834 -53.77388679004709 1.6506135014593857
endloop
endfacet
facet normal -0.19500000000000006 0.13930003589374979 -0.9708576105691298
outer loop
vertex 3.826834 -53.77388679004709 1.6506135014593857
vertex 3.826834 -68.62312919496458 -0.47070684210025626
vertex -8.708592788752897e-16 -68.73077913133241 0.28284271247462556
endloop
endfacet
facet normal -0.19500000000000006 0.13930003589374979 -0.9708576105691298
outer loop
vertex 3.826834 -53.77388679004709 1.6506135014593857
vertex -8.708592788752897e-16 -68.73077913133241 0.28284271247462556
vertex -7.409658704399657e-16 -53.88153672641492 2.4041630560342675
endloop
endfacet
facet normal -0.981 0.027577164466275325 -0.19304015126392743
outer loop
vertex 9.238795 -67.85776388607607 -5.828278146455433
vertex 10.0 -52.46732316404183 -7.4953318805774005
vertex 10.0 -67.31656556895932 -9.616652224137042
endloop
endfacet
facet normal -0.981 -0.027577164466275325 0.19304015126392754
outer loop
vertex 10.0 -67.31656556895932 -9.616652224137042
vertex 10.0 -52.46732316404183 -7.4953318805774005
vertex 9.238795 -51.92612484692508 -11.283705958259013
endloop
endfacet
facet normal -0.981 -0.027577164466275325 0.19304015126392754
outer loop
vertex 10.0 -67.31656556895932 -9.616652224137042
vertex 9.238795 -51.92612484692508 -11.283705958259013
vertex 9.238795 -66.77536725184258 -13.405026301818658
endloop
endfacet
facet normal -0.831 -0.07848885271170675 0.5494219689819474
outer loop
vertex 9.238795 -66.77536725184258 -13.405026301818658
vertex 9.238795 -51.92612484692508 -11.283705958259013
vertex 7.0710679999999995 -51.46732568302 -14.495328389865815
endloop
endfacet
facet normal -0.831 -0.07848885271170675 0.5494219689819474
outer loop
vertex 9.238795 -66.77536725184258 -13.405026301818658
vertex 7.0710679999999995 -51.46732568302 -14.495328389865815
vertex 7.0710679999999995 -66.3165680879375 -16.616648733425457
endloop
endfacet
facet normal -0.556 -0.11737972567696686 0.8230722933011414
outer loop
vertex 7.0710679999999995 -66.3165680879375 -16.616648733425457
vertex 7.0710679999999995 -51.46732568302 -14.495328389865815
vertex 3.826833999999999 -51.16075953803657 -16.641277262614185
endloop
endfacet
facet normal -0.556 -0.11737972567696686 0.8230722933011414
outer loop
vertex 7.0710679999999995 -66.3165680879375 -16.616648733425457
vertex 3.826833999999999 -51.16075953803657 -16.641277262614185
vertex 3.8268339999999985 -66.01000194295406 -18.762597606173824
endloop
endfacet
facet normal -0.19499999999999995 -0.13930003589374979 0.9708576105691298
outer loop
vertex 3.8268339999999985 -66.01000194295406 -18.762597606173824
vertex 3.826833999999999 -51.16075953803657 -16.641277262614185
vertex -2.2897319491696563e-15 -51.05310960166874 -17.394826817189063
endloop
endfacet
facet normal -0.19499999999999995 -0.13930003589374979 0.9708576105691298
outer loop
vertex 3.8268339999999985 -66.01000194295406 -18.762597606173824
vertex -2.2897319491696563e-15 -51.05310960166874 -17.394826817189063
vertex -2.4196253576049803e-15 -65.90235200658623 -19.516147160748705
endloop
endfacet
facet normal 0.981 -0.027577164466275325 0.19304015126392743
outer loop
vertex -10.0 -52.46732316404183 -7.495331880577399
vertex -9.238795 -66.77536725184258 -13.405026301818658
vertex -9.238795 -51.92612484692508 -11.283705958259013
endloop
endfacet
facet normal 0.831 -0.07848885271170675 0.5494219689819474
outer loop
vertex -9.238795 -51.92612484692508 -11.283705958259013
vertex -9.238795 -66.77536725184258 -13.405026301818658
vertex -7.071068000000001 -66.3165680879375 -16.616648733425457
endloop
endfacet
facet normal 0.831 -0.07848885271170675 0.5494219689819474
outer loop
vertex -9.238795 -51.92612484692508 -11.283705958259013
vertex -7.071068000000001 -66.3165680879375 -16.616648733425457
vertex -7.071068000000001 -51.46732568302 -14.495328389865815
endloop
endfacet
facet normal 0.556 -0.11737972567696686 0.8230722933011414
outer loop
vertex -7.071068000000001 -51.46732568302 -14.495328389865815
vertex -7.071068000000001 -66.3165680879375 -16.616648733425457
vertex -3.826834000000001 -66.01000194295406 -18.762597606173824
endloop
endfacet
facet normal 0.556 -0.11737972567696686 0.8230722933011414
outer loop
vertex -7.071068000000001 -51.46732568302 -14.495328389865815
vertex -3.826834000000001 -66.01000194295406 -18.762597606173824
vertex -3.8268340000000007 -51.16075953803657 -16.641277262614185
endloop
endfacet
facet normal 0.19500000000000006 -0.13930003589374979 0.9708576105691298
outer loop
vertex -3.8268340000000007 -51.16075953803657 -16.641277262614185
vertex -3.826834000000001 -66.01000194295406 -18.762597606173824
vertex -2.4196253576049803e-15 -65.90235200658623 -19.516147160748705
endloop
endfacet
facet normal 0.19500000000000006 -0.13930003589374979 0.9708576105691298
outer loop
vertex -3.8268340000000007 -51.16075953803657 -16.641277262614185
vertex -2.4196253576049803e-15 -65.90235200658623 -19.516147160748705
vertex -2.2897319491696563e-15 -51.05310960166874 -17.394826817189063
endloop
endfacet
facet normal 0.981 -0.027577164466275325 0.19304015126392743
outer loop
vertex -9.238795 -66.77536725184258 -13.405026301818658
vertex -10.0 -52.46732316404183 -7.495331880577399
vertex -10.0 -67.31656556895932 -9.616652224137042
endloop
endfacet
facet normal 0.981 0.027577164466275325 -0.19304015126392754
outer loop
vertex -10.0 -67.31656556895932 -9.616652224137042
vertex -10.0 -52.46732316404183 -7.495331880577399
vertex -9.238795 -53.008521481158574 -3.706957802895793
endloop
endfacet
facet normal 0.981 0.027577164466275325 -0.19304015126392754
outer loop
vertex -10.0 -67.31656556895932 -9.616652224137042
vertex -9.238795 -53.008521481158574 -3.706957802895793
vertex -9.238795 -67.85776388607607 -5.828278146455431
endloop
endfacet
facet normal 0.831 0.07848885271170675 -0.5494219689819474
outer loop
vertex -9.238795 -67.85776388607607 -5.828278146455431
vertex -9.238795 -53.008521481158574 -3.706957802895793
vertex -7.071068 -53.467327716131464 -0.4953283002211708
endloop
endfacet
facet normal 0.831 0.07848885271170675 -0.5494219689819474
outer loop
vertex -9.238795 -67.85776388607607 -5.828278146455431
vertex -7.071068 -53.467327716131464 -0.4953283002211708
vertex -7.071068 -68.31657012104895 -2.6166486437808127
endloop
endfacet
facet normal 0.556 0.11737972567696686 -0.8230722933011414
outer loop
vertex -7.071068 -68.31657012104895 -2.6166486437808127
vertex -7.071068 -53.467327716131464 -0.4953283002211708
vertex -3.826834 -53.77388679004709 1.6506135014593861
endloop
endfacet
facet normal 0.556 0.11737972567696686 -0.8230722933011414
outer loop
vertex -7.071068 -68.31657012104895 -2.6166486437808127
vertex -3.826834 -53.77388679004709 1.6506135014593861
vertex -3.826834 -68.62312919496458 -0.4707068421002558
endloop
endfacet
facet normal 0.19499999999999995 0.13930003589374979 -0.9708576105691298
outer loop
vertex -3.826834 -68.62312919496458 -0.4707068421002558
vertex -3.826834 -53.77388679004709 1.6506135014593861
vertex -7.409658704399657e-16 -53.88153672641492 2.4041630560342675
endloop
endfacet
facet normal 0.19499999999999995 0.13930003589374979 -0.9708576105691298
outer loop
vertex -3.826834 -68.62312919496458 -0.4707068421002558
vertex -7.409658704399657e-16 -53.88153672641492 2.4041630560342675
vertex -8.708592788752897e-16 -68.73077913133241 0.28284271247462556
endloop
endfacet
facet normal -8.659560562354932e-18 -0.9899494936611666 -0.1414213562373095
outer loop
vertex -9.238795 -51.92612484692508 -11.283705958259013
vertex -9.238795 -53.008521481158574 -3.706957802895793
vertex -10.0 -52.46732316404183 -7.495331880577399
endloop
endfacet
facet normal -8.659560562354932e-18 -0.9899494936611666 -0.1414213562373095
outer loop
vertex -9.238795 -53.008521481158574 -3.706957802895793
vertex -9.238795 -51.92612484692508 -11.283705958259013
vertex -7.071068 -53.467327716131464 -0.4953283002211708
endloop
endfacet
facet normal -8.659560562354932e-18 -0.9899494936611666 -0.1414213562373095
outer loop
vertex -7.071068 -53.467327716131464 -0.4953283002211708
vertex -9.238795 -51.92612484692508 -11.283705958259013
vertex -7.071068000000001 -51.46732568302 -14.495328389865815
endloop
endfacet
facet normal -8.659560562354932e-18 -0.9899494936611666 -0.1414213562373095
outer loop
vertex -7.071068 -53.467327716131464 -0.4953283002211708
vertex -7.071068000000001 -51.46732568302 -14.495328389865815
vertex -3.826834 -53.77388679004709 1.6506135014593861
endloop
endfacet
facet normal -8.659560562354932e-18 -0.9899494936611666 -0.1414213562373095
outer loop
vertex -3.826834 -53.77388679004709 1.6506135014593861
vertex -7.071068000000001 -51.46732568302 -14.495328389865815
vertex -3.8268340000000007 -51.16075953803657 -16.641277262614185
endloop
endfacet
facet normal -8.659560562354932e-18 -0.9899494936611666 -0.1414213562373095
outer loop
vertex -3.826834 -53.77388679004709 1.6506135014593861
vertex -3.8268340000000007 -51.16075953803657 -16.641277262614185
vertex -7.409658704399657e-16 -53.88153672641492 2.4041630560342675
endloop
endfacet
facet normal -8.659560562354932e-18 -0.9899494936611666 -0.1414213562373095
outer loop
vertex -7.409658704399657e-16 -53.88153672641492 2.4041630560342675
vertex -3.8268340000000007 -51.16075953803657 -16.641277262614185
vertex -2.2897319491696563e-15 -51.05310960166874 -17.394826817189063
endloop
endfacet
facet normal -8.659560562354932e-18 -0.9899494936611666 -0.1414213562373095
outer loop
vertex -7.409658704399657e-16 -53.88153672641492 2.4041630560342675
vertex -2.2897319491696563e-15 -51.05310960166874 -17.394826817189063
vertex 3.826834 -53.77388679004709 1.6506135014593857
endloop
endfacet
facet normal -8.659560562354932e-18 -0.9899494936611666 -0.1414213562373095
outer loop
vertex 3.826834 -53.77388679004709 1.6506135014593857
vertex -2.2897319491696563e-15 -51.05310960166874 -17.394826817189063
vertex 3.826833999999999 -51.16075953803657 -16.641277262614185
endloop
endfacet
facet normal -8.659560562354932e-18 -0.9899494936611666 -0.1414213562373095
outer loop
vertex 3.826834 -53.77388679004709 1.6506135014593857
vertex 3.826833999999999 -51.16075953803657 -16.641277262614185
vertex 7.071068 -53.467327716131464 -0.4953283002211717
endloop
endfacet
facet normal -8.659560562354932e-18 -0.9899494936611666 -0.1414213562373095
outer loop
vertex 7.071068 -53.467327716131464 -0.4953283002211717
vertex 3.826833999999999 -51.16075953803657 -16.641277262614185
vertex 7.0710679999999995 -51.46732568302 -14.495328389865815
endloop
endfacet
facet normal -8.659560562354932e-18 -0.9899494936611666 -0.1414213562373095
outer loop
vertex 7.071068 -53.467327716131464 -0.4953283002211717
vertex 7.0710679999999995 -51.46732568302 -14.495328389865815
vertex 9.238795 -53.008521481158574 -3.706957802895794
endloop
endfacet
facet normal -8.659560562354932e-18 -0.9899494936611666 -0.1414213562373095
outer loop
vertex 9.238795 -53.008521481158574 -3.706957802895794
vertex 7.0710679999999995 -51.46732568302 -14.495328389865815
vertex 9.238795 -51.92612484692508 -11.283705958259013
endloop
endfacet
facet normal -8.659560562354932e-18 -0.9899494936611666 -0.1414213562373095
outer loop
vertex 9.238795 -53.008521481158574 -3.706957802895794
vertex 9.238795 -51.92612484692508 -11.283705958259013
vertex 10.0 -52.46732316404183 -7.4953318805774005
endloop
endfacet
facet normal 3.061154658792469e-17 0.8662058069535208 0.4999244942988891
outer loop
vertex 19.999999999999996 -67.2314581967757 -53.089322573044754
vertex -20.000000000000004 -68.39432358270824 -51.07517133324174
vertex 19.999999999999996 -68.39432358270824 -51.07517133324174
endloop
endfacet
facet normal -6.798155367234455e-33 0.9998489885977782 -1.1102230246251565e-16
outer loop
vertex 19.999999999999996 -68.39432358270824 -51.07517133324174
vertex -20.000000000000004 -68.39432358270824 -51.07517133324174
vertex -20.000000000000004 -68.39433065377605 -48.74943349030888
endloop
endfacet
facet normal -6.798155367234455e-33 0.9998489885977782 -1.1102230246251565e-16
outer loop
vertex 19.999999999999996 -68.39432358270824 -51.07517133324174
vertex -20.000000000000004 -68.39433065377605 -48.74943349030888
vertex 19.999999999999996 -68.39433065377605 -48.74943349030888
endloop
endfacet
facet normal -3.0611546587924696e-17 0.8662058069535207 -0.4999244942988892
outer loop
vertex 19.999999999999996 -68.39433065377605 -48.74943349030888
vertex -20.000000000000004 -68.39433065377605 -48.74943349030888
vertex -20.000000000000004 -67.23145819677572 -46.73527517943807
endloop
endfacet
facet normal -3.0611546587924696e-17 0.8662058069535207 -0.4999244942988892
outer loop
vertex 19.999999999999996 -68.39433065377605 -48.74943349030888
vertex -20.000000000000004 -67.23145819677572 -46.73527517943807
vertex 19.999999999999996 -67.23145819677572 -46.73527517943807
endloop
endfacet
facet normal 3.061154658792469e-17 0.8662058069535208 0.4999244942988891
outer loop
vertex -20.000000000000004 -68.39432358270824 -51.07517133324174
vertex 19.999999999999996 -67.2314581967757 -53.089322573044754
vertex -20.000000000000004 -67.2314581967757 -53.089322573044754
endloop
endfacet
facet normal 5.303980844442396e-17 0.4999244942988892 0.8662058069535207
outer loop
vertex -20.000000000000004 -67.2314581967757 -53.089322573044754
vertex 19.999999999999996 -67.2314581967757 -53.089322573044754
vertex 19.999999999999996 -65.21730483565236 -54.252190080297616
endloop
endfacet
facet normal 5.303980844442396e-17 0.4999244942988892 0.8662058069535207
outer loop
vertex -20.000000000000004 -67.2314581967757 -53.089322573044754
vertex 19.999999999999996 -65.21730483565236 -54.252190080297616
vertex -20.000000000000004 -65.21730483565236 -54.252190080297616
endloop
endfacet
facet normal 6.122309317584938e-17 1.1102230246251565e-16 0.9998489885977782
outer loop
vertex -20.000000000000004 -65.21730483565236 -54.252190080297616
vertex 19.999999999999996 -65.21730483565236 -54.252190080297616
vertex 19.999999999999996 -62.89156911403985 -54.252195030045094
endloop
endfacet
facet normal 6.122309317584938e-17 1.1102230246251565e-16 0.9998489885977782
outer loop
vertex -20.000000000000004 -65.21730483565236 -54.252190080297616
vertex 19.999999999999996 -62.89156911403985 -54.252195030045094
vertex -20.000000000000004 -62.89156911403985 -54.252195030045094
endloop
endfacet
facet normal 5.3039808444423967e-17 -0.4999244942988891 0.8662058069535208
outer loop
vertex -20.000000000000004 -62.89156911403985 -54.252195030045094
vertex 19.999999999999996 -62.89156911403985 -54.252195030045094
vertex 19.999999999999996 -60.87741363159615 -53.08931974461764
endloop
endfacet
facet normal 5.3039808444423967e-17 -0.4999244942988891 0.8662058069535208
outer loop
vertex -20.000000000000004 -62.89156911403985 -54.252195030045094
vertex 19.999999999999996 -60.87741363159615 -53.08931974461764
vertex -20.000000000000004 -60.87741363159615 -53.08931974461764
endloop
endfacet
facet normal -4.329780281177467e-17 0.7071067811865475 -0.7071067811865476
outer loop
vertex 19.999999999999996 -53.08932257304476 -32.59313955570711
vertex 19.999999999999996 -67.23145819677572 -46.73527517943807
vertex -20.000000000000004 -53.08932257304476 -32.59313955570711
endloop
endfacet
facet normal -4.329780281177467e-17 0.7071067811865475 -0.7071067811865476
outer loop
vertex -20.000000000000004 -53.08932257304476 -32.59313955570711
vertex 19.999999999999996 -67.23145819677572 -46.73527517943807
vertex -20.000000000000004 -67.23145819677572 -46.73527517943807
endloop
endfacet
facet normal -3.061154658792469e-17 -0.8662058069535208 -0.4999244942988891
outer loop
vertex 19.999999999999996 -46.73528225050588 -32.59314662677493
vertex -20.000000000000004 -45.57240767218521 -34.60729291683047
vertex 19.999999999999996 -45.57240767218521 -34.60729291683047
endloop
endfacet
facet normal 6.798155367234455e-33 -0.9998489885977782 1.1102230246251565e-16
outer loop
vertex 19.999999999999996 -45.57240767218521 -34.60729291683047
vertex -20.000000000000004 -45.57240767218521 -34.60729291683047
vertex -20.000000000000004 -45.57240979350554 -36.9330357095108
endloop
endfacet
facet normal 6.798155367234455e-33 -0.9998489885977782 1.1102230246251565e-16
outer loop
vertex 19.999999999999996 -45.57240767218521 -34.60729291683047
vertex -20.000000000000004 -45.57240979350554 -36.9330357095108
vertex 19.999999999999996 -45.57240979350554 -36.9330357095108
endloop
endfacet
facet normal 3.0611546587924696e-17 -0.8662058069535207 0.4999244942988892
outer loop
vertex 19.999999999999996 -45.57240979350554 -36.9330357095108
vertex -20.000000000000004 -45.57240979350554 -36.9330357095108
vertex -20.000000000000004 -46.73527800786519 -38.947184120886675
endloop
endfacet
facet normal 3.0611546587924696e-17 -0.8662058069535207 0.4999244942988892
outer loop
vertex 19.999999999999996 -45.57240979350554 -36.9330357095108
vertex -20.000000000000004 -46.73527800786519 -38.947184120886675
vertex 19.999999999999996 -46.73527800786519 -38.947184120886675
endloop
endfacet
facet normal -3.061154658792469e-17 -0.8662058069535208 -0.4999244942988891
outer loop
vertex -20.000000000000004 -45.57240767218521 -34.60729291683047
vertex 19.999999999999996 -46.73528225050588 -32.59314662677493
vertex -20.000000000000004 -46.73528225050588 -32.59314662677493
endloop
endfacet
facet normal -5.303980844442396e-17 -0.4999244942988892 -0.8662058069535207
outer loop
vertex -20.000000000000004 -46.73528225050588 -32.59314662677493
vertex 19.999999999999996 -46.73528225050588 -32.59314662677493
vertex 19.999999999999996 -48.74942641924108 -31.43027416977459
endloop
endfacet
facet normal -5.303980844442396e-17 -0.4999244942988892 -0.8662058069535207
outer loop
vertex -20.000000000000004 -46.73528225050588 -32.59314662677493
vertex 19.999999999999996 -48.74942641924108 -31.43027416977459
vertex -20.000000000000004 -48.74942641924108 -31.43027416977459
endloop
endfacet
facet normal -6.122309317584938e-17 -1.1102230246251565e-16 -0.9998489885977782
outer loop
vertex -20.000000000000004 -48.74942641924108 -31.43027416977459
vertex 19.999999999999996 -48.74942641924108 -31.43027416977459
vertex 19.999999999999996 -51.075171333241755 -31.430274169774584
endloop
endfacet
facet normal -6.122309317584938e-17 -1.1102230246251565e-16 -0.9998489885977782
outer loop
vertex -20.000000000000004 -48.74942641924108 -31.43027416977459
vertex 19.999999999999996 -51.075171333241755 -31.430274169774584
vertex -20.000000000000004 -51.075171333241755 -31.430274169774584
endloop
endfacet
facet normal -5.3039808444423967e-17 0.4999244942988891 -0.8662058069535208
outer loop
vertex -20.000000000000004 -51.075171333241755 -31.430274169774584
vertex 19.999999999999996 -51.075171333241755 -31.430274169774584
vertex 19.999999999999996 -53.08932257304476 -32.59313955570711
endloop
endfacet
facet normal -5.3039808444423967e-17 0.4999244942988891 -0.8662058069535208
outer loop
vertex -20.000000000000004 -51.075171333241755 -31.430274169774584
vertex 19.999999999999996 -53.08932257304476 -32.59313955570711
vertex -20.000000000000004 -53.08932257304476 -32.59313955570711
endloop
endfacet
facet normal 4.329780281177467e-17 -0.7071067811865475 0.7071067811865476
outer loop
vertex 19.999999999999996 -60.87741363159615 -53.08931974461764
vertex 19.999999999999996 -46.73527800786519 -38.947184120886675
vertex -20.000000000000004 -60.87741363159615 -53.08931974461764
endloop
endfacet
facet normal 4.329780281177467e-17 -0.7071067811865475 0.7071067811865476
outer loop
vertex -20.000000000000004 -60.87741363159615 -53.08931974461764
vertex 19.999999999999996 -46.73527800786519 -38.947184120886675
vertex -20.000000000000004 -46.73527800786519 -38.947184120886675
endloop
endfacet
facet normal 4.329780281177467e-17 -0.7071067811865475 0.7071067811865476
outer loop
vertex -20.0 -24.20179024628137 4.082481001180535
vertex -20.0 -32.366752248642435 -4.082481001180528
vertex 20.0 -24.20179024628137 4.0824810011805335
endloop
endfacet
facet normal 4.329780281177467e-17 -0.7071067811865475 0.7071067811865476
outer loop
vertex 20.0 -24.20179024628137 4.0824810011805335
vertex -20.0 -32.366752248642435 -4.082481001180528
vertex 20.0 -32.366752248642435 -4.08248100118053
endloop
endfacet
facet normal 5.91447986408842e-17 0.2588010819142764 0.965907863100824
outer loop
vertex 20.0 -32.366752248642435 -4.08248100118053
vertex -20.0 -32.366752248642435 -4.082481001180528
vertex 20.0 -43.52030106168844 -1.0938941904955874
endloop
endfacet
facet normal 5.91447986408842e-17 0.2588010819142764 0.965907863100824
outer loop
vertex 20.0 -43.52030106168844 -1.0938941904955874
vertex -20.0 -32.366752248642435 -4.082481001180528
vertex -20.0 -43.52030106168844 -1.0938941904955848
endloop
endfacet
facet normal 1.5846995829109525e-17 0.9659078631008239 0.25880108191427637
outer loop
vertex 20.0 -43.52030106168844 -1.0938941904955874
vertex -20.0 -43.52030106168844 -1.0938941904955848
vertex 20.0 -46.50888787237338 10.05965462255042
endloop
endfacet
facet normal 1.5846995829109525e-17 0.9659078631008239 0.25880108191427637
outer loop
vertex 20.0 -46.50888787237338 10.05965462255042
vertex -20.0 -43.52030106168844 -1.0938941904955848
vertex -20.0 -46.50888787237338 10.059654622550424
endloop
endfacet
facet normal -4.329780281177467e-17 0.7071067811865475 -0.7071067811865476
outer loop
vertex 20.0 -46.50888787237338 10.05965462255042
vertex -20.0 -46.50888787237338 10.059654622550424
vertex 20.0 -38.34392587001231 18.224616624911484
endloop
endfacet
facet normal -4.329780281177467e-17 0.7071067811865475 -0.7071067811865476
outer loop
vertex 20.0 -38.34392587001231 18.224616624911484
vertex -20.0 -46.50888787237338 10.059654622550424
vertex -20.0 -38.34392587001231 18.224616624911484
endloop
endfacet
facet normal -5.91447986408842e-17 -0.2588010819142764 -0.965907863100824
outer loop
vertex 20.0 -38.34392587001231 18.224616624911484
vertex -20.0 -38.34392587001231 18.224616624911484
vertex 20.0 -27.190372814325624 15.236034056867226
endloop
endfacet
facet normal -5.91447986408842e-17 -0.2588010819142764 -0.965907863100824
outer loop
vertex 20.0 -27.190372814325624 15.236034056867226
vertex -20.0 -38.34392587001231 18.224616624911484
vertex -20.0 -27.190372814325624 15.23603405686723
endloop
endfacet
facet normal -1.5846995829109525e-17 -0.9659078631008239 -0.25880108191427637
outer loop
vertex 20.0 -27.190372814325624 15.236034056867226
vertex -20.0 -27.190372814325624 15.23603405686723
vertex 20.0 -24.20179024628137 4.0824810011805335
endloop
endfacet
facet normal -1.5846995829109525e-17 -0.9659078631008239 -0.25880108191427637
outer loop
vertex 20.0 -24.20179024628137 4.0824810011805335
vertex -20.0 -27.190372814325624 15.23603405686723
vertex -20.0 -24.20179024628137 4.082481001180535
endloop
endfacet
facet normal 5.0918216106647005e-17 -0.5557859300126262 0.8315575746753798
outer loop
vertex 20.0 -49.49747468305832 21.213203435596427
vertex -20.0 -52.74170180834564 19.045475673987518
vertex 20.0 -52.74170180834564 19.045475673987518
endloop
endfacet
facet normal 6.005405249993146e-17 -0.1944543648263004 0.9807571055057414
outer loop
vertex 20.0 -52.74170180834564 19.045475673987518
vertex -20.0 -52.74170180834564 19.045475673987518
vertex -20.0 -56.568542494923804 18.284268152972388
endloop
endfacet
facet normal 6.005405249993146e-17 -0.1944543648263004 0.9807571055057414
outer loop
vertex 20.0 -52.74170180834564 19.045475673987518
vertex -20.0 -56.568542494923804 18.284268152972388
vertex 20.0 -56.568542494923804 18.284268152972388
endloop
endfacet
facet normal 6.005405249993146e-17 0.19445436482630057 0.9807571055057414
outer loop
vertex 20.0 -56.568542494923804 18.284268152972388
vertex -20.0 -56.568542494923804 18.284268152972388
vertex -20.0 -60.39537611043415 19.0454686029197
endloop
endfacet
facet normal 6.005405249993146e-17 0.19445436482630057 0.9807571055057414
outer loop
vertex 20.0 -56.568542494923804 18.284268152972388
vertex -20.0 -60.39537611043415 19.0454686029197
vertex 20.0 -60.39537611043415 19.0454686029197
endloop
endfacet
facet normal 5.0918216106647005e-17 0.5557859300126264 0.8315575746753798
outer loop
vertex 20.0 -60.39537611043415 19.0454686029197
vertex -20.0 -60.39537611043415 19.0454686029197
vertex -20.0 -63.63961030678927 21.21320343559643
endloop
endfacet
facet normal 5.0918216106647005e-17 0.5557859300126264 0.8315575746753798
outer loop
vertex 20.0 -60.39537611043415 19.0454686029197
vertex -20.0 -63.63961030678927 21.21320343559643
vertex 20.0 -63.63961030678927 21.21320343559643
endloop
endfacet
facet normal 5.0918216106647005e-17 -0.5557859300126262 0.8315575746753798
outer loop
vertex -20.0 -52.74170180834564 19.045475673987518
vertex 20.0 -49.49747468305832 21.213203435596427
vertex -20.0 -49.49747468305832 21.213203435596427
endloop
endfacet
facet normal 3.403207301005489e-17 -0.8315575746753798 0.5557859300126264
outer loop
vertex -20.0 -49.49747468305832 21.213203435596427
vertex 20.0 -49.49747468305832 21.213203435596427
vertex 20.0 -47.32974692144941 24.45743056088375
endloop
endfacet
facet normal 3.403207301005489e-17 -0.8315575746753798 0.5557859300126264
outer loop
vertex -20.0 -49.49747468305832 21.213203435596427
vertex 20.0 -47.32974692144941 24.45743056088375
vertex -20.0 -47.32974692144941 24.45743056088375
endloop
endfacet
facet normal 1.1906895773238033e-17 -0.9807571055057414 0.19445436482630057
outer loop
vertex -20.0 -47.32974692144941 24.45743056088375
vertex 20.0 -47.32974692144941 24.45743056088375
vertex 20.0 -46.568539400434275 28.28427124746191
endloop
endfacet
facet normal 1.1906895773238033e-17 -0.9807571055057414 0.19445436482630057
outer loop
vertex -20.0 -47.32974692144941 24.45743056088375
vertex 20.0 -46.568539400434275 28.28427124746191
vertex -20.0 -46.568539400434275 28.28427124746191
endloop
endfacet
facet normal -1.1906895773238024e-17 -0.9807571055057414 -0.1944543648263004
outer loop
vertex -20.0 -46.568539400434275 28.28427124746191
vertex 20.0 -46.568539400434275 28.28427124746191
vertex 20.000000000000004 -47.3297398503816 32.111104862972255
endloop
endfacet
facet normal -1.1906895773238024e-17 -0.9807571055057414 -0.1944543648263004
outer loop
vertex -20.0 -46.568539400434275 28.28427124746191
vertex 20.000000000000004 -47.3297398503816 32.111104862972255
vertex -19.999999999999996 -47.3297398503816 32.111104862972255
endloop
endfacet
facet normal -3.403207301005488e-17 -0.8315575746753798 -0.5557859300126262
outer loop
vertex -19.999999999999996 -47.3297398503816 32.111104862972255
vertex 20.000000000000004 -47.3297398503816 32.111104862972255
vertex 20.000000000000004 -49.49747468305832 35.35533905932738
endloop
endfacet
facet normal -3.403207301005488e-17 -0.8315575746753798 -0.5557859300126262
outer loop
vertex -19.999999999999996 -47.3297398503816 32.111104862972255
vertex 20.000000000000004 -49.49747468305832 35.35533905932738
vertex -19.999999999999996 -49.49747468305832 35.35533905932738
endloop
endfacet
facet normal -4.329780281177466e-17 -0.7071067811865476 -0.7071067811865475
outer loop
vertex 20.0 -84.8528137423857 28.284271247461906
vertex -20.0 -84.8528137423857 28.284271247461906
vertex 20.0 -70.71067811865476 14.142135623730953
endloop
endfacet
facet normal -4.329780281177466e-17 -0.7071067811865476 -0.7071067811865475
outer loop
vertex 20.0 -70.71067811865476 14.142135623730953
vertex -20.0 -84.8528137423857 28.284271247461906
vertex -20.0 -70.71067811865476 14.142135623730956
endloop
endfacet
facet normal 4.329780281177467e-17 -0.7071067811865475 0.7071067811865476
outer loop
vertex -20.000000000000004 -63.63961030678928 -35.35533905932737
vertex -20.000000000000004 -84.8528137423857 -56.56854249492379
vertex 19.999999999999996 -63.63961030678928 -35.35533905932737
endloop
endfacet
facet normal 4.329780281177467e-17 -0.7071067811865475 0.7071067811865476
outer loop
vertex 19.999999999999996 -63.63961030678928 -35.35533905932737
vertex -20.000000000000004 -84.8528137423857 -56.56854249492379
vertex 19.999999999999996 -84.8528137423857 -56.56854249492379
endloop
endfacet
endsolid CATIA STL