solid CATIA STL
facet normal 0.0 0.0 1.0
outer loop
vertex 15.185132753188297 13.015826645589899 20.0
vertex 13.015826645589899 -15.185132753188297 20.0
vertex 19.28288235942022 2.3548463223022633 20.0
endloop
endfacet
facet normal 0.0 0.0 1.0
outer loop
vertex 15.185132753188297 13.015826645589899 20.0
vertex 19.28288235942022 2.3548463223022633 20.0
vertex 21.693046075983247 5.42326026899575 20.0
endloop
endfacet
facet normal 0.0 -0.0 1.0
outer loop
vertex 15.185132753188297 13.015826645589899 20.0
vertex 21.693046075983247 5.42326026899575 20.0
vertex 25.09397451680858 7.335781910516543 20.0
endloop
endfacet
facet normal 0.0 -0.0 1.0
outer loop
vertex 15.185132753188297 13.015826645589899 20.0
vertex 25.09397451680858 7.335781910516543 20.0
vertex 28.967925165690986 7.801241791197528 20.0
endloop
endfacet
facet normal 0.0 -0.0 1.0
outer loop
vertex 15.185132753188297 13.015826645589899 20.0
vertex 28.967925165690986 7.801241791197528 20.0
vertex 32.72511182867886 6.748770931759578 20.0
endloop
endfacet
facet normal 0.0 -0.0 1.0
outer loop
vertex 15.185132753188297 13.015826645589899 20.0
vertex 32.72511182867886 6.748770931759578 20.0
vertex 49.89400547476144 3.2539541613973526 20.0
endloop
endfacet
facet normal 0.0 0.0 1.0
outer loop
vertex 15.185132753188297 13.015826645589899 20.0
vertex 49.89400547476144 3.2539541613973526 20.0
vertex 47.98148383324065 6.654882602222685 20.0
endloop
endfacet
facet normal 0.0 0.0 0.9999999
outer loop
vertex 15.185132753188297 13.015826645589899 20.0
vertex 47.98148383324065 6.654882602222685 20.0
vertex 47.516023952559664 10.528833251105091 20.0
endloop
endfacet
facet normal 0.0 0.0 1.0
outer loop
vertex 15.185132753188297 13.015826645589899 20.0
vertex 47.516023952559664 10.528833251105091 20.0
vertex 48.56848721943124 14.286013406179643 20.0
endloop
endfacet
facet normal 0.0 0.0 1.0
outer loop
vertex 15.185132753188297 13.015826645589899 20.0
vertex 48.56848721943124 14.286013406179643 20.0
vertex 50.97865852856064 17.35443386078645 20.0
endloop
endfacet
facet normal 0.0 -0.0 1.0
outer loop
vertex 15.185132753188297 13.015826645589899 20.0
vertex 50.97865852856064 17.35443386078645 20.0
vertex 51.83850907814355 18.09144853667965 20.0
endloop
endfacet
facet normal 0.0 0.0 1.0
outer loop
vertex 15.185132753188297 13.015826645589899 20.0
vertex 51.83850907814355 18.09144853667965 20.0
vertex 53.1314419491335 22.260222767507422 20.0
endloop
endfacet
facet normal 0.0 0.0 1.0
outer loop
vertex 15.185132753188297 13.015826645589899 20.0
vertex 53.1314419491335 22.260222767507422 20.0
vertex 55.69854186112963 25.79014432352386 20.0
endloop
endfacet
facet normal 0.0 -0.0 0.9999999
outer loop
vertex 15.185132753188297 13.015826645589899 20.0
vertex 55.69854186112963 25.79014432352386 20.0
vertex 59.26604364060106 28.304760780295787 20.0
endloop
endfacet
facet normal 0.0 0.0 1.0
outer loop
vertex 81.34892403493724 43.386087151966244 20.0
vertex 15.185132753188297 13.015826645589899 20.0
vertex 59.26604364060106 28.304760780295787 20.0
endloop
endfacet
facet normal 0.0 0.0 1.0
outer loop
vertex 81.34892403493724 43.386087151966244 20.0
vertex 59.26604364060106 28.304760780295787 20.0
vertex 63.453480535602516 29.535909234415215 20.0
endloop
endfacet
facet normal 0.0 0.0 1.0
outer loop
vertex 81.34892403493724 43.386087151966244 20.0
vertex 63.453480535602516 29.535909234415215 20.0
vertex 67.81428383715598 29.352273026764784 20.0
endloop
endfacet
facet normal 0.0 -0.0 1.0
outer loop
vertex 81.34892403493724 43.386087151966244 20.0
vertex 67.81428383715598 29.352273026764784 20.0
vertex 71.88340345411486 27.773462695952205 20.0
endloop
endfacet
facet normal 0.0 -0.0 0.9999999
outer loop
vertex 81.34892403493724 43.386087151966244 20.0
vertex 71.88340345411486 27.773462695952205 20.0
vertex 75.22687652265738 24.96784124778232 20.0
endloop
endfacet
facet normal -0.0 0.0 1.0
outer loop
vertex 81.34892403493724 43.386087151966244 20.0
vertex 75.22687652265738 24.96784124778232 20.0
vertex 77.488142058059 21.234600273668168 20.0
endloop
endfacet
facet normal -0.0 0.0 1.0
outer loop
vertex 81.34892403493724 43.386087151966244 20.0
vertex 77.488142058059 21.234600273668168 20.0
vertex 78.42603523799885 16.971895033621376 20.0
endloop
endfacet
facet normal 0.0 0.0 1.0
outer loop
vertex 81.34891903493698 -48.8093574209625 20.0
vertex 81.34892403493724 43.386087151966244 20.0
vertex 78.42603523799885 16.971895033621376 20.0
endloop
endfacet
facet normal 0.0 0.0 1.0
outer loop
vertex 81.34891903493698 -48.8093574209625 20.0
vertex 78.42603523799885 16.971895033621376 20.0
vertex 77.94056416190331 12.63430981533752 20.0
endloop
endfacet
facet normal 0.0 0.0 0.9999999
outer loop
vertex 81.34891903493698 -48.8093574209625 20.0
vertex 77.94056416190331 12.63430981533752 20.0
vertex 76.08346785370163 8.684430378220014 20.0
endloop
endfacet
facet normal 0.0 0.0 0.9999999
outer loop
vertex 81.34891903493698 -48.8093574209625 20.0
vertex 76.08346785370163 8.684430378220014 20.0
vertex 64.08440213881046 -10.924404400754572 20.0
endloop
endfacet
facet normal 0.0 0.0 1.0
outer loop
vertex 81.34891903493698 -48.8093574209625 20.0
vertex 64.08440213881046 -10.924404400754572 20.0
vertex 66.20874726407877 -22.274314534264377 20.0
endloop
endfacet
facet normal 0.0 0.0 1.0
outer loop
vertex 81.34891903493698 -48.8093574209625 20.0
vertex 66.20874726407877 -22.274314534264377 20.0
vertex 57.44161086902551 -29.789002048095703 20.0
endloop
endfacet
facet normal 0.0 0.0 1.0
outer loop
vertex 81.34891903493698 -48.8093574209625 20.0
vertex 57.44161086902551 -29.789002048095703 20.0
vertex 46.55012934870393 -25.953779428417228 20.0
endloop
endfacet
facet normal 0.0 0.0 0.9999999
outer loop
vertex 81.34891903493698 -48.8093574209625 20.0
vertex 46.55012934870393 -25.953779428417228 20.0
vertex 13.015826645589899 -15.185132753188297 20.0
endloop
endfacet
facet normal 0.0 0.0 1.0
outer loop
vertex 13.015826645589899 -15.185132753188297 20.0
vertex 46.55012934870393 -25.953779428417228 20.0
vertex 31.30794428074781 -11.674394125713343 20.0
endloop
endfacet
facet normal 0.0 0.0 1.0
outer loop
vertex 13.015826645589899 -15.185132753188297 20.0
vertex 31.30794428074781 -11.674394125713343 20.0
vertex 27.433993631865405 -12.139854006394325 20.0
endloop
endfacet
facet normal 0.0 0.0 1.0
outer loop
vertex 13.015826645589899 -15.185132753188297 20.0
vertex 27.433993631865405 -12.139854006394325 20.0
vertex 23.676806968877536 -11.087383146956377 20.0
endloop
endfacet
facet normal 0.0 0.0 1.0
outer loop
vertex 13.015826645589899 -15.185132753188297 20.0
vertex 23.676806968877536 -11.087383146956377 20.0
vertex 20.608393022184046 -8.677219430393347 20.0
endloop
endfacet
facet normal 0.0 0.0 1.0
outer loop
vertex 13.015826645589899 -15.185132753188297 20.0
vertex 20.608393022184046 -8.677219430393347 20.0
vertex 18.695871380663256 -5.276290989568016 20.0
endloop
endfacet
facet normal 0.0 0.0 1.0
outer loop
vertex 13.015826645589899 -15.185132753188297 20.0
vertex 18.695871380663256 -5.276290989568016 20.0
vertex 18.230411499982267 -1.4023403406856083 20.0
endloop
endfacet
facet normal 0.0 0.0 0.9999999
outer loop
vertex 13.015826645589899 -15.185132753188297 20.0
vertex 18.230411499982267 -1.4023403406856083 20.0
vertex 19.28288235942022 2.3548463223022633 20.0
endloop
endfacet
facet normal 0.0 0.0 1.0
outer loop
vertex 49.89400547476144 3.2539541613973526 20.0
vertex 32.72511182867886 6.748770931759578 20.0
vertex 35.793525775372345 4.338607215196552 20.0
endloop
endfacet
facet normal 0.0 0.0 1.0
outer loop
vertex 49.89400547476144 3.2539541613973526 20.0
vertex 35.793525775372345 4.338607215196552 20.0
vertex 37.70604741689314 0.9376787743712178 20.0
endloop
endfacet
facet normal 0.0 0.0 1.0
outer loop
vertex 49.89400547476144 3.2539541613973526 20.0
vertex 37.70604741689314 0.9376787743712178 20.0
vertex 38.171507297574124 -2.9362718745111884 20.0
endloop
endfacet
facet normal 0.0 0.0 1.0
outer loop
vertex 49.89400547476144 3.2539541613973526 20.0
vertex 38.171507297574124 -2.9362718745111884 20.0
vertex 37.11903643813618 -6.693458537499064 20.0
endloop
endfacet
facet normal 0.0 0.0 1.0
outer loop
vertex 49.89400547476144 3.2539541613973526 20.0
vertex 37.11903643813618 -6.693458537499064 20.0
vertex 34.708872721573144 -9.761872484192546 20.0
endloop
endfacet
facet normal 0.0 0.0 1.0
outer loop
vertex 64.08440213881046 -10.924404400754572 20.0
vertex 76.08346785370163 8.684430378220014 20.0
vertex 73.0528168600542 5.543487935910086 20.0
endloop
endfacet
facet normal 0.0 0.0 1.0
outer loop
vertex 64.08440213881046 -10.924404400754572 20.0
vertex 73.0528168600542 5.543487935910086 20.0
vertex 69.17180829566571 3.546459975929743 20.0
endloop
endfacet
facet normal 0.0 0.0 0.9999999
outer loop
vertex 64.08440213881046 -10.924404400754572 20.0
vertex 69.17180829566571 3.546459975929743 20.0
vertex 64.85433572373346 2.9063157834913547 20.0
endloop
endfacet
facet normal 0.0 0.0 1.0
outer loop
vertex 64.08440213881046 -10.924404400754572 20.0
vertex 64.85433572373346 2.9063157834913547 20.0
vertex 63.99448517415054 2.169301107598155 20.0
endloop
endfacet
facet normal 0.0 0.0 0.9999999
outer loop
vertex 64.08440213881046 -10.924404400754572 20.0
vertex 63.99448517415054 2.169301107598155 20.0
vertex 60.59354914075884 0.25677295816403856 20.0
endloop
endfacet
facet normal 0.0 0.0 1.0
outer loop
vertex 64.08440213881046 -10.924404400754572 20.0
vertex 60.59354914075884 0.25677295816403856 20.0
vertex 56.7196060844428 -0.20868041460362363 20.0
endloop
endfacet
facet normal 0.0 0.0 1.0
outer loop
vertex 64.08440213881046 -10.924404400754572 20.0
vertex 56.7196060844428 -0.20868041460362363 20.0
vertex 52.96242592936825 0.8437828522679496 20.0
endloop
endfacet
facet normal 0.0 0.0 1.0
outer loop
vertex 31.30794428074781 -11.674394125713343 20.0
vertex 46.55012934870393 -25.953779428417228 20.0
vertex 34.708872721573144 -9.761872484192546 20.0
endloop
endfacet
facet normal 0.0 0.0 1.0
outer loop
vertex 34.708872721573144 -9.761872484192546 20.0
vertex 46.55012934870393 -25.953779428417228 20.0
vertex 44.42578422343561 -14.603869294907408 20.0
endloop
endfacet
facet normal 0.0 0.0 1.0
outer loop
vertex 34.708872721573144 -9.761872484192546 20.0
vertex 44.42578422343561 -14.603869294907408 20.0
vertex 49.89400547476144 3.2539541613973526 20.0
endloop
endfacet
facet normal 0.0 0.0 1.0
outer loop
vertex 49.89400547476144 3.2539541613973526 20.0
vertex 44.42578422343561 -14.603869294907408 20.0
vertex 53.19292061848887 -7.089181781076082 20.0
endloop
endfacet
facet normal 0.0 0.0 1.0
outer loop
vertex 49.89400547476144 3.2539541613973526 20.0
vertex 53.19292061848887 -7.089181781076082 20.0
vertex 52.96242592936825 0.8437828522679496 20.0
endloop
endfacet
facet normal 0.0 0.0 1.0
outer loop
vertex 52.96242592936825 0.8437828522679496 20.0
vertex 53.19292061848887 -7.089181781076082 20.0
vertex 64.08440213881046 -10.924404400754572 20.0
endloop
endfacet
facet normal 0.0 0.0 -0.9999999
outer loop
vertex 15.185132753188297 13.015826645589899 0.0
vertex 59.26604364060106 28.304760780295787 0.0
vertex 55.69854186112963 25.79014432352386 0.0
endloop
endfacet
facet normal 0.0 -0.0 -1.0
outer loop
vertex 15.185132753188297 13.015826645589899 0.0
vertex 55.69854186112963 25.79014432352386 0.0
vertex 53.1314419491335 22.260222767507422 0.0
endloop
endfacet
facet normal 0.0 -0.0 -1.0
outer loop
vertex 15.185132753188297 13.015826645589899 0.0
vertex 53.1314419491335 22.260222767507422 0.0
vertex 51.83850907814355 18.09144853667965 0.0
endloop
endfacet
facet normal 0.0 -0.0 -1.0
outer loop
vertex 15.185132753188297 13.015826645589899 0.0
vertex 51.83850907814355 18.09144853667965 0.0
vertex 50.97865852856064 17.35443386078645 0.0
endloop
endfacet
facet normal 0.0 -0.0 -1.0
outer loop
vertex 15.185132753188297 13.015826645589899 0.0
vertex 50.97865852856064 17.35443386078645 0.0
vertex 48.56848721943124 14.286013406179643 0.0
endloop
endfacet
facet normal 0.0 -0.0 -1.0
outer loop
vertex 15.185132753188297 13.015826645589899 0.0
vertex 48.56848721943124 14.286013406179643 0.0
vertex 47.516023952559664 10.528833251105091 0.0
endloop
endfacet
facet normal 0.0 -0.0 -0.9999999
outer loop
vertex 15.185132753188297 13.015826645589899 0.0
vertex 47.516023952559664 10.528833251105091 0.0
vertex 47.98148383324065 6.654882602222685 0.0
endloop
endfacet
facet normal 0.0 -0.0 -1.0
outer loop
vertex 15.185132753188297 13.015826645589899 0.0
vertex 47.98148383324065 6.654882602222685 0.0
vertex 49.89400547476144 3.2539541613973526 0.0
endloop
endfacet
facet normal 0.0 0.0 -1.0
outer loop
vertex 15.185132753188297 13.015826645589899 0.0
vertex 49.89400547476144 3.2539541613973526 0.0
vertex 32.72511182867886 6.748770931759578 0.0
endloop
endfacet
facet normal 0.0 0.0 -1.0
outer loop
vertex 15.185132753188297 13.015826645589899 0.0
vertex 32.72511182867886 6.748770931759578 0.0
vertex 28.967925165690986 7.801241791197528 0.0
endloop
endfacet
facet normal 0.0 0.0 -1.0
outer loop
vertex 15.185132753188297 13.015826645589899 0.0
vertex 28.967925165690986 7.801241791197528 0.0
vertex 25.09397451680858 7.335781910516543 0.0
endloop
endfacet
facet normal 0.0 0.0 -1.0
outer loop
vertex 15.185132753188297 13.015826645589899 0.0
vertex 25.09397451680858 7.335781910516543 0.0
vertex 21.693046075983247 5.42326026899575 0.0
endloop
endfacet
facet normal -0.0 0.0 -1.0
outer loop
vertex 15.185132753188297 13.015826645589899 0.0
vertex 21.693046075983247 5.42326026899575 0.0
vertex 19.28288235942022 2.3548463223022633 0.0
endloop
endfacet
facet normal -0.0 0.0 -1.0
outer loop
vertex 15.185132753188297 13.015826645589899 0.0
vertex 19.28288235942022 2.3548463223022633 0.0
vertex 13.015826645589899 -15.185132753188297 0.0
endloop
endfacet
facet normal 0.0 0.0 -1.0
outer loop
vertex 81.34892403493724 43.386087151966244 0.0
vertex 78.42603523799885 16.971895033621376 0.0
vertex 77.488142058059 21.234600273668168 0.0
endloop
endfacet
facet normal 0.0 0.0 -1.0
outer loop
vertex 81.34892403493724 43.386087151966244 0.0
vertex 77.488142058059 21.234600273668168 0.0
vertex 75.22687652265738 24.96784124778232 0.0
endloop
endfacet
facet normal 0.0 0.0 -0.9999999
outer loop
vertex 81.34892403493724 43.386087151966244 0.0
vertex 75.22687652265738 24.96784124778232 0.0
vertex 71.88340345411486 27.773462695952205 0.0
endloop
endfacet
facet normal 0.0 0.0 -1.0
outer loop
vertex 81.34892403493724 43.386087151966244 0.0
vertex 71.88340345411486 27.773462695952205 0.0
vertex 67.81428383715598 29.352273026764784 0.0
endloop
endfacet
facet normal 0.0 0.0 -1.0
outer loop
vertex 81.34892403493724 43.386087151966244 0.0
vertex 67.81428383715598 29.352273026764784 0.0
vertex 63.453480535602516 29.535909234415215 0.0
endloop
endfacet
facet normal 0.0 0.0 -1.0
outer loop
vertex 81.34892403493724 43.386087151966244 0.0
vertex 63.453480535602516 29.535909234415215 0.0
vertex 59.26604364060106 28.304760780295787 0.0
endloop
endfacet
facet normal 0.0 0.0 -1.0
outer loop
vertex 81.34892403493724 43.386087151966244 0.0
vertex 59.26604364060106 28.304760780295787 0.0
vertex 15.185132753188297 13.015826645589899 0.0
endloop
endfacet
facet normal 0.0 0.0 -0.9999999
outer loop
vertex 81.34891903493698 -48.8093574209625 0.0
vertex 13.015826645589899 -15.185132753188297 0.0
vertex 46.55012934870393 -25.953779428417228 0.0
endloop
endfacet
facet normal 0.0 0.0 -1.0
outer loop
vertex 81.34891903493698 -48.8093574209625 0.0
vertex 46.55012934870393 -25.953779428417228 0.0
vertex 57.44161086902551 -29.789002048095703 0.0
endloop
endfacet
facet normal 0.0 0.0 -1.0
outer loop
vertex 81.34891903493698 -48.8093574209625 0.0
vertex 57.44161086902551 -29.789002048095703 0.0
vertex 66.20874726407877 -22.274314534264377 0.0
endloop
endfacet
facet normal 0.0 0.0 -1.0
outer loop
vertex 81.34891903493698 -48.8093574209625 0.0
vertex 66.20874726407877 -22.274314534264377 0.0
vertex 64.08440213881046 -10.924404400754572 0.0
endloop
endfacet
facet normal 0.0 0.0 -0.9999999
outer loop
vertex 81.34891903493698 -48.8093574209625 0.0
vertex 64.08440213881046 -10.924404400754572 0.0
vertex 76.08346785370163 8.684430378220014 0.0
endloop
endfacet
facet normal 0.0 0.0 -0.9999999
outer loop
vertex 81.34891903493698 -48.8093574209625 0.0
vertex 76.08346785370163 8.684430378220014 0.0
vertex 77.94056416190331 12.63430981533752 0.0
endloop
endfacet
facet normal 0.0 0.0 -1.0
outer loop
vertex 81.34891903493698 -48.8093574209625 0.0
vertex 77.94056416190331 12.63430981533752 0.0
vertex 78.42603523799885 16.971895033621376 0.0
endloop
endfacet
facet normal 0.0 0.0 -1.0
outer loop
vertex 81.34891903493698 -48.8093574209625 0.0
vertex 78.42603523799885 16.971895033621376 0.0
vertex 81.34892403493724 43.386087151966244 0.0
endloop
endfacet
facet normal 0.0 0.0 -0.9999999
outer loop
vertex 13.015826645589899 -15.185132753188297 0.0
vertex 19.28288235942022 2.3548463223022633 0.0
vertex 18.230411499982267 -1.4023403406856083 0.0
endloop
endfacet
facet normal 0.0 0.0 -1.0
outer loop
vertex 13.015826645589899 -15.185132753188297 0.0
vertex 18.230411499982267 -1.4023403406856083 0.0
vertex 18.695871380663256 -5.276290989568016 0.0
endloop
endfacet
facet normal 0.0 0.0 -1.0
outer loop
vertex 13.015826645589899 -15.185132753188297 0.0
vertex 18.695871380663256 -5.276290989568016 0.0
vertex 20.608393022184046 -8.677219430393347 0.0
endloop
endfacet
facet normal 0.0 0.0 -1.0
outer loop
vertex 13.015826645589899 -15.185132753188297 0.0
vertex 20.608393022184046 -8.677219430393347 0.0
vertex 23.676806968877536 -11.087383146956377 0.0
endloop
endfacet
facet normal 0.0 -0.0 -1.0
outer loop
vertex 13.015826645589899 -15.185132753188297 0.0
vertex 23.676806968877536 -11.087383146956377 0.0
vertex 27.433993631865405 -12.139854006394325 0.0
endloop
endfacet
facet normal 0.0 -0.0 -1.0
outer loop
vertex 13.015826645589899 -15.185132753188297 0.0
vertex 27.433993631865405 -12.139854006394325 0.0
vertex 31.30794428074781 -11.674394125713343 0.0
endloop
endfacet
facet normal 0.0 -0.0 -1.0
outer loop
vertex 13.015826645589899 -15.185132753188297 0.0
vertex 31.30794428074781 -11.674394125713343 0.0
vertex 46.55012934870393 -25.953779428417228 0.0
endloop
endfacet
facet normal 0.0 0.0 -1.0
outer loop
vertex 49.89400547476144 3.2539541613973526 0.0
vertex 34.708872721573144 -9.761872484192546 0.0
vertex 37.11903643813618 -6.693458537499064 0.0
endloop
endfacet
facet normal 0.0 0.0 -1.0
outer loop
vertex 49.89400547476144 3.2539541613973526 0.0
vertex 37.11903643813618 -6.693458537499064 0.0
vertex 38.171507297574124 -2.9362718745111884 0.0
endloop
endfacet
facet normal 0.0 0.0 -1.0
outer loop
vertex 49.89400547476144 3.2539541613973526 0.0
vertex 38.171507297574124 -2.9362718745111884 0.0
vertex 37.70604741689314 0.9376787743712178 0.0
endloop
endfacet
facet normal 0.0 0.0 -1.0
outer loop
vertex 49.89400547476144 3.2539541613973526 0.0
vertex 37.70604741689314 0.9376787743712178 0.0
vertex 35.793525775372345 4.338607215196552 0.0
endloop
endfacet
facet normal 0.0 0.0 -1.0
outer loop
vertex 49.89400547476144 3.2539541613973526 0.0
vertex 35.793525775372345 4.338607215196552 0.0
vertex 32.72511182867886 6.748770931759578 0.0
endloop
endfacet
facet normal 0.0 0.0 -1.0
outer loop
vertex 64.08440213881046 -10.924404400754572 0.0
vertex 52.96242592936825 0.8437828522679496 0.0
vertex 56.7196060844428 -0.20868041460362363 0.0
endloop
endfacet
facet normal 0.0 0.0 -1.0
outer loop
vertex 64.08440213881046 -10.924404400754572 0.0
vertex 56.7196060844428 -0.20868041460362363 0.0
vertex 60.59354914075884 0.25677295816403856 0.0
endloop
endfacet
facet normal 0.0 0.0 -0.9999999
outer loop
vertex 64.08440213881046 -10.924404400754572 0.0
vertex 60.59354914075884 0.25677295816403856 0.0
vertex 63.99448517415054 2.169301107598155 0.0
endloop
endfacet
facet normal 0.0 0.0 -1.0
outer loop
vertex 64.08440213881046 -10.924404400754572 0.0
vertex 63.99448517415054 2.169301107598155 0.0
vertex 64.85433572373346 2.9063157834913547 0.0
endloop
endfacet
facet normal 0.0 0.0 -0.9999999
outer loop
vertex 64.08440213881046 -10.924404400754572 0.0
vertex 64.85433572373346 2.9063157834913547 0.0
vertex 69.17180829566571 3.546459975929743 0.0
endloop
endfacet
facet normal 0.0 0.0 -1.0
outer loop
vertex 64.08440213881046 -10.924404400754572 0.0
vertex 69.17180829566571 3.546459975929743 0.0
vertex 73.0528168600542 5.543487935910086 0.0
endloop
endfacet
facet normal 0.0 0.0 -1.0
outer loop
vertex 64.08440213881046 -10.924404400754572 0.0
vertex 73.0528168600542 5.543487935910086 0.0
vertex 76.08346785370163 8.684430378220014 0.0
endloop
endfacet
facet normal 0.0 0.0 -1.0
outer loop
vertex 34.708872721573144 -9.761872484192546 0.0
vertex 46.55012934870393 -25.953779428417228 0.0
vertex 31.30794428074781 -11.674394125713343 0.0
endloop
endfacet
facet normal 0.0 0.0 -1.0
outer loop
vertex 46.55012934870393 -25.953779428417228 0.0
vertex 34.708872721573144 -9.761872484192546 0.0
vertex 44.42578422343561 -14.603869294907408 0.0
endloop
endfacet
facet normal 0.0 0.0 -1.0
outer loop
vertex 44.42578422343561 -14.603869294907408 0.0
vertex 34.708872721573144 -9.761872484192546 0.0
vertex 49.89400547476144 3.2539541613973526 0.0
endloop
endfacet
facet normal 0.0 0.0 -1.0
outer loop
vertex 44.42578422343561 -14.603869294907408 0.0
vertex 49.89400547476144 3.2539541613973526 0.0
vertex 53.19292061848887 -7.089181781076082 0.0
endloop
endfacet
facet normal 0.0 0.0 -1.0
outer loop
vertex 53.19292061848887 -7.089181781076082 0.0
vertex 49.89400547476144 3.2539541613973526 0.0
vertex 52.96242592936825 0.8437828522679496 0.0
endloop
endfacet
facet normal 0.0 0.0 -1.0
outer loop
vertex 53.19292061848887 -7.089181781076082 0.0
vertex 52.96242592936825 0.8437828522679496 0.0
vertex 64.08440213881046 -10.924404400754572 0.0
endloop
endfacet
facet normal 0.6177049440550376 0.7864100145872526 0.0
outer loop
vertex 49.89400547476144 3.2539541613973526 0.0
vertex 52.96242592936825 0.8437828522679496 20.0
vertex 52.96242592936825 0.8437828522679496 0.0
endloop
endfacet
facet normal 0.269738195090506 0.9629336683883922 0.0
outer loop
vertex 52.96242592936825 0.8437828522679496 0.0
vertex 52.96242592936825 0.8437828522679496 20.0
vertex 56.7196060844428 -0.20868041460362363 20.0
endloop
endfacet
facet normal 0.269738195090506 0.9629336683883922 0.0
outer loop
vertex 52.96242592936825 0.8437828522679496 0.0
vertex 56.7196060844428 -0.20868041460362363 20.0
vertex 56.7196060844428 -0.20868041460362363 0.0
endloop
endfacet
facet normal -0.11929248876287235 0.9928591268308762 0.0
outer loop
vertex 56.7196060844428 -0.20868041460362363 0.0
vertex 56.7196060844428 -0.20868041460362363 20.0
vertex 60.59354914075884 0.25677295816403856 20.0
endloop
endfacet
facet normal -0.11929248876287235 0.9928591268308762 0.0
outer loop
vertex 56.7196060844428 -0.20868041460362363 0.0
vertex 60.59354914075884 0.25677295816403856 20.0
vertex 60.59354914075884 0.25677295816403856 0.0
endloop
endfacet
facet normal -0.49016325970530206 0.871630706083851 0.0
outer loop
vertex 60.59354914075884 0.25677295816403856 0.0
vertex 60.59354914075884 0.25677295816403856 20.0
vertex 63.99448517415054 2.169301107598155 20.0
endloop
endfacet
facet normal -0.49016325970530206 0.871630706083851 0.0
outer loop
vertex 60.59354914075884 0.25677295816403856 0.0
vertex 63.99448517415054 2.169301107598155 20.0
vertex 63.99448517415054 2.169301107598155 0.0
endloop
endfacet
facet normal 0.6177049440550376 0.7864100145872526 0.0
outer loop
vertex 52.96242592936825 0.8437828522679496 20.0
vertex 49.89400547476144 3.2539541613973526 0.0
vertex 49.89400547476144 3.2539541613973526 20.0
endloop
endfacet
facet normal 0.8716306952373204 0.4901631187005051 0.0
outer loop
vertex 49.89400547476144 3.2539541613973526 20.0
vertex 49.89400547476144 3.2539541613973526 0.0
vertex 47.98148383324065 6.654882602222685 0.0
endloop
endfacet
facet normal 0.8716306952373204 0.4901631187005051 -0.0
outer loop
vertex 49.89400547476144 3.2539541613973526 20.0
vertex 47.98148383324065 6.654882602222685 0.0
vertex 47.98148383324065 6.654882602222685 20.0
endloop
endfacet
facet normal 0.9928590725982736 0.11929270569333311 0.0
outer loop
vertex 47.98148383324065 6.654882602222685 20.0
vertex 47.98148383324065 6.654882602222685 0.0
vertex 47.516023952559664 10.528833251105091 0.0
endloop
endfacet
facet normal 0.9928590725982736 0.11929270569333311 -0.0
outer loop
vertex 47.98148383324065 6.654882602222685 20.0
vertex 47.516023952559664 10.528833251105091 0.0
vertex 47.516023952559664 10.528833251105091 20.0
endloop
endfacet
facet normal 0.9629336683883922 -0.269738195090506 0.0
outer loop
vertex 47.516023952559664 10.528833251105091 20.0
vertex 47.516023952559664 10.528833251105091 0.0
vertex 48.56848721943124 14.286013406179643 0.0
endloop
endfacet
facet normal 0.9629336683883922 -0.269738195090506 -0.0
outer loop
vertex 47.516023952559664 10.528833251105091 20.0
vertex 48.56848721943124 14.286013406179643 0.0
vertex 48.56848721943124 14.286013406179643 20.0
endloop
endfacet
facet normal 0.7864100145872526 -0.6177049440550376 0.0
outer loop
vertex 48.56848721943124 14.286013406179643 20.0
vertex 48.56848721943124 14.286013406179643 0.0
vertex 50.97865852856064 17.35443386078645 0.0
endloop
endfacet
facet normal 0.7864100145872526 -0.6177049440550376 -0.0
outer loop
vertex 48.56848721943124 14.286013406179643 20.0
vertex 50.97865852856064 17.35443386078645 0.0
vertex 50.97865852856064 17.35443386078645 20.0
endloop
endfacet
facet normal -0.6507913322794949 0.7592566376594149 0.0
outer loop
vertex 64.85433572373346 2.9063157834913547 20.0
vertex 64.85433572373346 2.9063157834913547 0.0
vertex 63.99448517415054 2.169301107598155 20.0
endloop
endfacet
facet normal -0.6507913322794949 0.7592566376594149 0.0
outer loop
vertex 63.99448517415054 2.169301107598155 20.0
vertex 64.85433572373346 2.9063157834913547 0.0
vertex 63.99448517415054 2.169301107598155 0.0
endloop
endfacet
facet normal -0.6428035799889894 -0.7660309694598443 0.0
outer loop
vertex 75.22687652265738 24.96784124778232 0.0
vertex 71.88340345411486 27.773462695952205 20.0
vertex 71.88340345411486 27.773462695952205 0.0
endloop
endfacet
facet normal -0.36172531968262184 -0.9322847738250555 0.0
outer loop
vertex 71.88340345411486 27.773462695952205 0.0
vertex 71.88340345411486 27.773462695952205 20.0
vertex 67.81428383715598 29.352273026764784 20.0
endloop
endfacet
facet normal -0.36172531968262184 -0.9322847738250555 0.0
outer loop
vertex 71.88340345411486 27.773462695952205 0.0
vertex 67.81428383715598 29.352273026764784 20.0
vertex 67.81428383715598 29.352273026764784 0.0
endloop
endfacet
facet normal -0.04207096146171552 -0.9991146332266017 0.0
outer loop
vertex 67.81428383715598 29.352273026764784 0.0
vertex 67.81428383715598 29.352273026764784 20.0
vertex 63.453480535602516 29.535909234415215 20.0
endloop
endfacet
facet normal -0.04207096146171552 -0.9991146332266017 0.0
outer loop
vertex 67.81428383715598 29.352273026764784 0.0
vertex 63.453480535602516 29.535909234415215 20.0
vertex 63.453480535602516 29.535909234415215 0.0
endloop
endfacet
facet normal 0.2820702294293895 -0.9593938379502454 0.0
outer loop
vertex 63.453480535602516 29.535909234415215 0.0
vertex 63.453480535602516 29.535909234415215 20.0
vertex 59.26604364060106 28.304760780295787 20.0
endloop
endfacet
facet normal 0.2820702294293895 -0.9593938379502454 0.0
outer loop
vertex 63.453480535602516 29.535909234415215 0.0
vertex 59.26604364060106 28.304760780295787 20.0
vertex 59.26604364060106 28.304760780295787 0.0
endloop
endfacet
facet normal 0.5761300740970305 -0.8173579402943454 0.0
outer loop
vertex 59.26604364060106 28.304760780295787 0.0
vertex 59.26604364060106 28.304760780295787 20.0
vertex 55.69854186112963 25.79014432352386 20.0
endloop
endfacet
facet normal 0.5761300740970305 -0.8173579402943454 0.0
outer loop
vertex 59.26604364060106 28.304760780295787 0.0
vertex 55.69854186112963 25.79014432352386 20.0
vertex 55.69854186112963 25.79014432352386 0.0
endloop
endfacet
facet normal 0.8087485277024213 -0.5881547108420249 -0.0
outer loop
vertex 55.69854186112963 25.79014432352386 0.0
vertex 55.69854186112963 25.79014432352386 20.0
vertex 53.1314419491335 22.260222767507422 20.0
endloop
endfacet
facet normal 0.8087485277024213 -0.5881547108420249 0.0
outer loop
vertex 55.69854186112963 25.79014432352386 0.0
vertex 53.1314419491335 22.260222767507422 20.0
vertex 53.1314419491335 22.260222767507422 0.0
endloop
endfacet
facet normal 0.9551173697004909 -0.29622736678690886 -0.0
outer loop
vertex 53.1314419491335 22.260222767507422 0.0
vertex 53.1314419491335 22.260222767507422 20.0
vertex 51.83850907814355 18.09144853667965 20.0
endloop
endfacet
facet normal 0.9551173697004909 -0.29622736678690886 0.0
outer loop
vertex 53.1314419491335 22.260222767507422 0.0
vertex 51.83850907814355 18.09144853667965 20.0
vertex 51.83850907814355 18.09144853667965 0.0
endloop
endfacet
facet normal -0.6428035799889894 -0.7660309694598443 0.0
outer loop
vertex 71.88340345411486 27.773462695952205 20.0
vertex 75.22687652265738 24.96784124778232 0.0
vertex 75.22687652265738 24.96784124778232 20.0
endloop
endfacet
facet normal -0.8553301082901051 -0.5180834795537655 -0.0
outer loop
vertex 75.22687652265738 24.96784124778232 20.0
vertex 75.22687652265738 24.96784124778232 0.0
vertex 77.488142058059 21.234600273668168 0.0
endloop
endfacet
facet normal -0.8553301082901051 -0.5180834795537655 0.0
outer loop
vertex 75.22687652265738 24.96784124778232 20.0
vertex 77.488142058059 21.234600273668168 0.0
vertex 77.488142058059 21.234600273668168 20.0
endloop
endfacet
facet normal -0.9766394043818218 -0.21488446862612048 -0.0
outer loop
vertex 77.488142058059 21.234600273668168 20.0
vertex 77.488142058059 21.234600273668168 0.0
vertex 78.42603523799885 16.971895033621376 0.0
endloop
endfacet
facet normal -0.9766394043818218 -0.21488446862612048 0.0
outer loop
vertex 77.488142058059 21.234600273668168 20.0
vertex 78.42603523799885 16.971895033621376 0.0
vertex 78.42603523799885 16.971895033621376 20.0
endloop
endfacet
facet normal -0.9937947353936327 0.1112295842433092 -0.0
outer loop
vertex 78.42603523799885 16.971895033621376 20.0
vertex 78.42603523799885 16.971895033621376 0.0
vertex 77.94056416190331 12.63430981533752 0.0
endloop
endfacet
facet normal -0.9937947353936327 0.1112295842433092 0.0
outer loop
vertex 78.42603523799885 16.971895033621376 20.0
vertex 77.94056416190331 12.63430981533752 0.0
vertex 77.94056416190331 12.63430981533752 20.0
endloop
endfacet
facet normal -0.9049666527350864 0.42548267657415084 -0.0
outer loop
vertex 77.94056416190331 12.63430981533752 20.0
vertex 77.94056416190331 12.63430981533752 0.0
vertex 76.08346785370163 8.684430378220014 0.0
endloop
endfacet
facet normal -0.9049666527350864 0.42548267657415084 0.0
outer loop
vertex 77.94056416190331 12.63430981533752 20.0
vertex 76.08346785370163 8.684430378220014 0.0
vertex 76.08346785370163 8.684430378220014 20.0
endloop
endfacet
facet normal -0.7196278778797915 0.6943598362661052 -0.0
outer loop
vertex 76.08346785370163 8.684430378220014 20.0
vertex 76.08346785370163 8.684430378220014 0.0
vertex 73.0528168600542 5.543487935910086 0.0
endloop
endfacet
facet normal -0.7196278778797915 0.6943598362661052 0.0
outer loop
vertex 76.08346785370163 8.684430378220014 20.0
vertex 73.0528168600542 5.543487935910086 0.0
vertex 73.0528168600542 5.543487935910086 20.0
endloop
endfacet
facet normal -0.45754419591411427 0.8891869621917579 0.0
outer loop
vertex 73.0528168600542 5.543487935910086 20.0
vertex 73.0528168600542 5.543487935910086 0.0
vertex 69.17180829566571 3.546459975929743 0.0
endloop
endfacet
facet normal -0.45754419591411427 0.8891869621917579 0.0
outer loop
vertex 73.0528168600542 5.543487935910086 20.0
vertex 69.17180829566571 3.546459975929743 0.0
vertex 69.17180829566571 3.546459975929743 20.0
endloop
endfacet
facet normal -0.1466654574605719 0.9891860726501214 0.0
outer loop
vertex 69.17180829566571 3.546459975929743 20.0
vertex 69.17180829566571 3.546459975929743 0.0
vertex 64.85433572373346 2.9063157834913547 0.0
endloop
endfacet
facet normal -0.1466654574605719 0.9891860726501214 0.0
outer loop
vertex 69.17180829566571 3.546459975929743 20.0
vertex 64.85433572373346 2.9063157834913547 0.0
vertex 64.85433572373346 2.9063157834913547 20.0
endloop
endfacet
facet normal 0.6507913322794949 -0.7592566376594149 0.0
outer loop
vertex 50.97865852856064 17.35443386078645 0.0
vertex 51.83850907814355 18.09144853667965 0.0
vertex 50.97865852856064 17.35443386078645 20.0
endloop
endfacet
facet normal 0.6507913322794949 -0.7592566376594149 0.0
outer loop
vertex 50.97865852856064 17.35443386078645 20.0
vertex 51.83850907814355 18.09144853667965 0.0
vertex 51.83850907814355 18.09144853667965 20.0
endloop
endfacet
facet normal -0.6507913322794949 0.7592566376594149 0.0
outer loop
vertex 57.44161086902551 -29.789002048095703 0.0
vertex 57.44161086902551 -29.789002048095703 20.0
vertex 66.20874726407877 -22.274314534264377 0.0
endloop
endfacet
facet normal -0.6507913322794949 0.7592566376594149 0.0
outer loop
vertex 66.20874726407877 -22.274314534264377 0.0
vertex 57.44161086902551 -29.789002048095703 20.0
vertex 66.20874726407877 -22.274314534264377 20.0
endloop
endfacet
facet normal -0.9829311994713973 -0.18397350502417503 -0.0
outer loop
vertex 66.20874726407877 -22.274314534264377 0.0
vertex 66.20874726407877 -22.274314534264377 20.0
vertex 64.08440213881046 -10.924404400754572 0.0
endloop
endfacet
facet normal -0.9829311994713973 -0.18397350502417503 0.0
outer loop
vertex 64.08440213881046 -10.924404400754572 0.0
vertex 66.20874726407877 -22.274314534264377 20.0
vertex 64.08440213881046 -10.924404400754572 20.0
endloop
endfacet
facet normal -0.33213986719190236 -0.9432301426835898 0.0
outer loop
vertex 64.08440213881046 -10.924404400754572 0.0
vertex 64.08440213881046 -10.924404400754572 20.0
vertex 53.19292061848887 -7.089181781076082 0.0
endloop
endfacet
facet normal -0.33213986719190236 -0.9432301426835898 0.0
outer loop
vertex 53.19292061848887 -7.089181781076082 0.0
vertex 64.08440213881046 -10.924404400754572 20.0
vertex 53.19292061848887 -7.089181781076082 20.0
endloop
endfacet
facet normal 0.6507913322794949 -0.7592566376594149 0.0
outer loop
vertex 53.19292061848887 -7.089181781076082 20.0
vertex 44.42578422343561 -14.603869294907408 20.0
vertex 53.19292061848887 -7.089181781076082 0.0
endloop
endfacet
facet normal 0.6507913322794949 -0.7592566376594149 0.0
outer loop
vertex 53.19292061848887 -7.089181781076082 0.0
vertex 44.42578422343561 -14.603869294907408 20.0
vertex 44.42578422343561 -14.603869294907408 0.0
endloop
endfacet
facet normal 0.9829311994713973 0.18397350502417503 0.0
outer loop
vertex 44.42578422343561 -14.603869294907408 0.0
vertex 44.42578422343561 -14.603869294907408 20.0
vertex 46.55012934870393 -25.953779428417228 0.0
endloop
endfacet
facet normal 0.9829311994713973 0.18397350502417503 -0.0
outer loop
vertex 46.55012934870393 -25.953779428417228 0.0
vertex 44.42578422343561 -14.603869294907408 20.0
vertex 46.55012934870393 -25.953779428417228 20.0
endloop
endfacet
facet normal 0.33213986719190236 0.9432301426835898 0.0
outer loop
vertex 46.55012934870393 -25.953779428417228 0.0
vertex 46.55012934870393 -25.953779428417228 20.0
vertex 57.44161086902551 -29.789002048095703 0.0
endloop
endfacet
facet normal 0.33213986719190236 0.9432301426835898 0.0
outer loop
vertex 57.44161086902551 -29.789002048095703 0.0
vertex 46.55012934870393 -25.953779428417228 20.0
vertex 57.44161086902551 -29.789002048095703 20.0
endloop
endfacet
facet normal -0.6177048030502407 -0.7864100254337831 0.0
outer loop
vertex 35.793525775372345 4.338607215196552 0.0
vertex 32.72511182867886 6.748770931759578 20.0
vertex 32.72511182867886 6.748770931759578 0.0
endloop
endfacet
facet normal -0.2697384011744362 -0.9629335816161979 0.0
outer loop
vertex 32.72511182867886 6.748770931759578 0.0
vertex 32.72511182867886 6.748770931759578 20.0
vertex 28.967925165690986 7.801241791197528 20.0
endloop
endfacet
facet normal -0.2697384011744362 -0.9629335816161979 0.0
outer loop
vertex 32.72511182867886 6.748770931759578 0.0
vertex 28.967925165690986 7.801241791197528 20.0
vertex 28.967925165690986 7.801241791197528 0.0
endloop
endfacet
facet normal 0.11929292262379393 -0.9928590183656708 0.0
outer loop
vertex 28.967925165690986 7.801241791197528 0.0
vertex 28.967925165690986 7.801241791197528 20.0
vertex 25.09397451680858 7.335781910516543 20.0
endloop
endfacet
facet normal 0.11929292262379393 -0.9928590183656708 0.0
outer loop
vertex 28.967925165690986 7.801241791197528 0.0
vertex 25.09397451680858 7.335781910516543 20.0
vertex 25.09397451680858 7.335781910516543 0.0
endloop
endfacet
facet normal 0.49016289092351384 -0.8716308904747201 0.0
outer loop
vertex 25.09397451680858 7.335781910516543 0.0
vertex 25.09397451680858 7.335781910516543 20.0
vertex 21.693046075983247 5.42326026899575 20.0
endloop
endfacet
facet normal 0.49016289092351384 -0.8716308904747201 0.0
outer loop
vertex 25.09397451680858 7.335781910516543 0.0
vertex 21.693046075983247 5.42326026899575 20.0
vertex 21.693046075983247 5.42326026899575 0.0
endloop
endfacet
facet normal -0.6177048030502407 -0.7864100254337831 0.0
outer loop
vertex 32.72511182867886 6.748770931759578 20.0
vertex 35.793525775372345 4.338607215196552 0.0
vertex 35.793525775372345 4.338607215196552 20.0
endloop
endfacet
facet normal -0.8716306952373204 -0.4901631187005051 -0.0
outer loop
vertex 35.793525775372345 4.338607215196552 20.0
vertex 35.793525775372345 4.338607215196552 0.0
vertex 37.70604741689314 0.9376787743712178 0.0
endloop
endfacet
facet normal -0.8716306952373204 -0.4901631187005051 0.0
outer loop
vertex 35.793525775372345 4.338607215196552 20.0
vertex 37.70604741689314 0.9376787743712178 0.0
vertex 37.70604741689314 0.9376787743712178 20.0
endloop
endfacet
facet normal -0.9928590725982736 -0.11929270569333311 -0.0
outer loop
vertex 37.70604741689314 0.9376787743712178 20.0
vertex 37.70604741689314 0.9376787743712178 0.0
vertex 38.171507297574124 -2.9362718745111884 0.0
endloop
endfacet
facet normal -0.9928590725982736 -0.11929270569333311 0.0
outer loop
vertex 37.70604741689314 0.9376787743712178 20.0
vertex 38.171507297574124 -2.9362718745111884 0.0
vertex 38.171507297574124 -2.9362718745111884 20.0
endloop
endfacet
facet normal -0.9629335816161979 0.2697384011744362 -0.0
outer loop
vertex 38.171507297574124 -2.9362718745111884 20.0
vertex 38.171507297574124 -2.9362718745111884 0.0
vertex 37.11903643813618 -6.693458537499064 0.0
endloop
endfacet
facet normal -0.9629335816161979 0.2697384011744362 0.0
outer loop
vertex 38.171507297574124 -2.9362718745111884 20.0
vertex 37.11903643813618 -6.693458537499064 0.0
vertex 37.11903643813618 -6.693458537499064 20.0
endloop
endfacet
facet normal -0.7864100254337831 0.6177048030502407 -0.0
outer loop
vertex 37.11903643813618 -6.693458537499064 20.0
vertex 37.11903643813618 -6.693458537499064 0.0
vertex 34.708872721573144 -9.761872484192546 0.0
endloop
endfacet
facet normal -0.7864100254337831 0.6177048030502407 0.0
outer loop
vertex 37.11903643813618 -6.693458537499064 20.0
vertex 34.708872721573144 -9.761872484192546 0.0
vertex 34.708872721573144 -9.761872484192546 20.0
endloop
endfacet
facet normal 0.617704607812841 0.7864102532107744 0.0
outer loop
vertex 20.608393022184046 -8.677219430393347 0.0
vertex 23.676806968877536 -11.087383146956377 20.0
vertex 23.676806968877536 -11.087383146956377 0.0
endloop
endfacet
facet normal 0.2697386072583664 0.9629334948440036 0.0
outer loop
vertex 23.676806968877536 -11.087383146956377 0.0
vertex 23.676806968877536 -11.087383146956377 20.0
vertex 27.433993631865405 -12.139854006394325 20.0
endloop
endfacet
facet normal 0.2697386072583664 0.9629334948440036 0.0
outer loop
vertex 23.676806968877536 -11.087383146956377 0.0
vertex 27.433993631865405 -12.139854006394325 20.0
vertex 27.433993631865405 -12.139854006394325 0.0
endloop
endfacet
facet normal -0.11929270569333311 0.9928590725982736 0.0
outer loop
vertex 27.433993631865405 -12.139854006394325 0.0
vertex 27.433993631865405 -12.139854006394325 20.0
vertex 31.30794428074781 -11.674394125713343 20.0
endloop
endfacet
facet normal -0.11929270569333311 0.9928590725982736 0.0
outer loop
vertex 27.433993631865405 -12.139854006394325 0.0
vertex 31.30794428074781 -11.674394125713343 20.0
vertex 31.30794428074781 -11.674394125713343 0.0
endloop
endfacet
facet normal -0.4901631187005051 0.8716306952373204 0.0
outer loop
vertex 31.30794428074781 -11.674394125713343 0.0
vertex 31.30794428074781 -11.674394125713343 20.0
vertex 34.708872721573144 -9.761872484192546 20.0
endloop
endfacet
facet normal -0.4901631187005051 0.8716306952373204 0.0
outer loop
vertex 31.30794428074781 -11.674394125713343 0.0
vertex 34.708872721573144 -9.761872484192546 20.0
vertex 34.708872721573144 -9.761872484192546 0.0
endloop
endfacet
facet normal 0.617704607812841 0.7864102532107744 0.0
outer loop
vertex 23.676806968877536 -11.087383146956377 20.0
vertex 20.608393022184046 -8.677219430393347 0.0
vertex 20.608393022184046 -8.677219430393347 20.0
endloop
endfacet
facet normal 0.8716308904747201 0.49016289092351384 0.0
outer loop
vertex 20.608393022184046 -8.677219430393347 20.0
vertex 20.608393022184046 -8.677219430393347 0.0
vertex 18.695871380663256 -5.276290989568016 0.0
endloop
endfacet
facet normal 0.8716308904747201 0.49016289092351384 -0.0
outer loop
vertex 20.608393022184046 -8.677219430393347 20.0
vertex 18.695871380663256 -5.276290989568016 0.0
vertex 18.695871380663256 -5.276290989568016 20.0
endloop
endfacet
facet normal 0.9928590183656708 0.11929292262379393 0.0
outer loop
vertex 18.695871380663256 -5.276290989568016 20.0
vertex 18.695871380663256 -5.276290989568016 0.0
vertex 18.230411499982267 -1.4023403406856083 0.0
endloop
endfacet
facet normal 0.9928590183656708 0.11929292262379393 -0.0
outer loop
vertex 18.695871380663256 -5.276290989568016 20.0
vertex 18.230411499982267 -1.4023403406856083 0.0
vertex 18.230411499982267 -1.4023403406856083 20.0
endloop
endfacet
facet normal 0.9629334948440036 -0.2697386072583664 0.0
outer loop
vertex 18.230411499982267 -1.4023403406856083 20.0
vertex 18.230411499982267 -1.4023403406856083 0.0
vertex 19.28288235942022 2.3548463223022633 0.0
endloop
endfacet
facet normal 0.9629334948440036 -0.2697386072583664 -0.0
outer loop
vertex 18.230411499982267 -1.4023403406856083 20.0
vertex 19.28288235942022 2.3548463223022633 0.0
vertex 19.28288235942022 2.3548463223022633 20.0
endloop
endfacet
facet normal 0.7864102532107744 -0.617704607812841 0.0
outer loop
vertex 19.28288235942022 2.3548463223022633 20.0
vertex 19.28288235942022 2.3548463223022633 0.0
vertex 21.693046075983247 5.42326026899575 0.0
endloop
endfacet
facet normal 0.7864102532107744 -0.617704607812841 -0.0
outer loop
vertex 19.28288235942022 2.3548463223022633 20.0
vertex 21.693046075983247 5.42326026899575 0.0
vertex 21.693046075983247 5.42326026899575 20.0
endloop
endfacet
facet normal -0.41716766629861324 0.9088295899431196 0.0
outer loop
vertex 81.34892403493724 43.386087151966244 20.0
vertex 81.34892403493724 43.386087151966244 0.0
vertex 15.185132753188297 13.015826645589899 20.0
endloop
endfacet
facet normal -0.41716766629861324 0.9088295899431196 0.0
outer loop
vertex 15.185132753188297 13.015826645589899 20.0
vertex 81.34892403493724 43.386087151966244 0.0
vertex 15.185132753188297 13.015826645589899 0.0
endloop
endfacet
facet normal 0.9999999503996236 0.0 -0.0
outer loop
vertex 81.34891903493698 -48.8093574209625 20.0
vertex 81.34891903493698 -48.8093574209625 0.0
vertex 81.34892403493724 43.386087151966244 20.0
endloop
endfacet
facet normal 0.9999999503996236 0.0 0.0
outer loop
vertex 81.34892403493724 43.386087151966244 20.0
vertex 81.34891903493698 -48.8093574209625 0.0
vertex 81.34892403493724 43.386087151966244 0.0
endloop
endfacet
facet normal -0.44150767616385683 -0.8972574423351867 0.0
outer loop
vertex 13.015826645589899 -15.185132753188297 20.0
vertex 13.015826645589899 -15.185132753188297 0.0
vertex 81.34891903493698 -48.8093574209625 20.0
endloop
endfacet
facet normal -0.44150767616385683 -0.8972574423351867 0.0
outer loop
vertex 81.34891903493698 -48.8093574209625 20.0
vertex 13.015826645589899 -15.185132753188297 0.0
vertex 81.34891903493698 -48.8093574209625 0.0
endloop
endfacet
facet normal -0.9970545078699988 0.07669655499821798 0.0
outer loop
vertex 15.185132753188297 13.015826645589899 20.0
vertex 15.185132753188297 13.015826645589899 0.0
vertex 13.015826645589899 -15.185132753188297 20.0
endloop
endfacet
facet normal -0.9970545078699988 0.07669655499821798 -0.0
outer loop
vertex 13.015826645589899 -15.185132753188297 20.0
vertex 15.185132753188297 13.015826645589899 0.0
vertex 13.015826645589899 -15.185132753188297 0.0
endloop
endfacet
endsolid CATIA STL