solid CATIA STL
facet normal 0.0 -0.0 1.0
outer loop
vertex 14.142135247461894 -14.142135999999997 20.0
vertex -14.142135999999997 -14.142135247461894 20.0
vertex 3.8268401798496647 -19.045475775805343 20.0
endloop
endfacet
facet normal 0.0 -0.0 1.0
outer loop
vertex 14.142135247461894 -14.142135999999997 20.0
vertex 3.8268401798496647 -19.045475775805343 20.0
vertex 7.071067247461896 -21.213203623730944 20.0
endloop
endfacet
facet normal -0.0 0.0 1.0
outer loop
vertex 14.142135247461894 -14.142135999999997 20.0
vertex 7.071067247461896 -21.213203623730944 20.0
vertex 9.238794922754128 -24.457430806693342 20.0
endloop
endfacet
facet normal -0.0 0.0 1.0
outer loop
vertex 14.142135247461894 -14.142135999999997 20.0
vertex 9.238794922754128 -24.457430806693342 20.0
vertex 10.000002341951415 -28.284271513524367 20.0
endloop
endfacet
facet normal -0.0 0.0 1.0
outer loop
vertex 14.142135247461894 -14.142135999999997 20.0
vertex 10.000002341951415 -28.284271513524367 20.0
vertex 9.238794719118445 -32.111112179849655 20.0
endloop
endfacet
facet normal -0.0 0.0 1.0
outer loop
vertex 14.142135247461894 -14.142135999999997 20.0
vertex 9.238794719118445 -32.111112179849655 20.0
vertex 7.0710664949237945 -49.497474871192836 20.0
endloop
endfacet
facet normal 0.0 -0.0 1.0
outer loop
vertex 14.142135247461894 -14.142135999999997 20.0
vertex 7.0710664949237945 -49.497474871192836 20.0
vertex 10.315293677886196 -47.32974719590061 20.0
endloop
endfacet
facet normal 0.0 -0.0 0.9999999
outer loop
vertex 14.142135247461894 -14.142135999999997 20.0
vertex 10.315293677886196 -47.32974719590061 20.0
vertex 14.142134384717217 -46.56853977670332 20.0
endloop
endfacet
facet normal 0.0 -0.0 1.0
outer loop
vertex 14.142135247461894 -14.142135999999997 20.0
vertex 14.142134384717217 -46.56853977670332 20.0
vertex 17.968967979974884 -47.32974032846829 20.0
endloop
endfacet
facet normal 0.0 -0.0 1.0
outer loop
vertex 14.142135247461894 -14.142135999999997 20.0
vertex 17.968967979974884 -47.32974032846829 20.0
vertex 21.21320211865474 -49.497475247461885 20.0
endloop
endfacet
facet normal -0.0 0.0 1.0
outer loop
vertex 14.142135247461894 -14.142135999999997 20.0
vertex 21.21320211865474 -49.497475247461885 20.0
vertex 22.01399345597464 -50.298266627393886 20.0
endloop
endfacet
facet normal 0.0 -0.0 1.0
outer loop
vertex 14.142135247461894 -14.142135999999997 20.0
vertex 22.01399345597464 -50.298266627393886 20.0
vertex 26.269651953143647 -51.26766064015303 20.0
endloop
endfacet
facet normal 0.0 -0.0 1.0
outer loop
vertex 14.142135247461894 -14.142135999999997 20.0
vertex 26.269651953143647 -51.26766064015303 20.0
vertex 29.986063712807386 -53.55646639478426 20.0
endloop
endfacet
facet normal -0.0 0.0 0.9999999
outer loop
vertex 14.142135247461894 -14.142135999999997 20.0
vertex 29.986063712807386 -53.55646639478426 20.0
vertex 32.766888319537216 -56.92059769094466 20.0
endloop
endfacet
facet normal 0.0 -0.0 1.0
outer loop
vertex 49.49747261357852 -77.78174724746188 20.0
vertex 14.142135247461894 -14.142135999999997 20.0
vertex 32.766888319537216 -56.92059769094466 20.0
endloop
endfacet
facet normal 0.0 -0.0 1.0
outer loop
vertex 49.49747261357852 -77.78174724746188 20.0
vertex 32.766888319537216 -56.92059769094466 20.0
vertex 34.31557226991707 -61.00127561103783 20.0
endloop
endfacet
facet normal 0.0 -0.0 1.0
outer loop
vertex 49.49747261357852 -77.78174724746188 20.0
vertex 34.31557226991707 -61.00127561103783 20.0
vertex 34.4669354314403 -65.36331835325548 20.0
endloop
endfacet
facet normal -0.0 0.0 1.0
outer loop
vertex 49.49747261357852 -77.78174724746188 20.0
vertex 34.4669354314403 -65.36331835325548 20.0
vertex 33.204862852940494 -69.54154157902967 20.0
endloop
endfacet
facet normal -0.0 0.0 0.9999999
outer loop
vertex 49.49747261357852 -77.78174724746188 20.0
vertex 33.204862852940494 -69.54154157902967 20.0
vertex 30.663938179936547 -73.09034781164083 20.0
endloop
endfacet
facet normal 0.0 0.0 1.0
outer loop
vertex 49.49747261357852 -77.78174724746188 20.0
vertex 30.663938179936547 -73.09034781164083 20.0
vertex 27.115124741048493 -75.63127936687161 20.0
endloop
endfacet
facet normal 0.0 0.0 1.0
outer loop
vertex 49.49747261357852 -77.78174724746188 20.0
vertex 27.115124741048493 -75.63127936687161 20.0
vertex 22.9369085191843 -76.89334465197017 20.0
endloop
endfacet
facet normal 0.0 -0.0 1.0
outer loop
vertex -42.426409128807144 -84.85281261357851 20.0
vertex 49.49747261357852 -77.78174724746188 20.0
vertex 22.9369085191843 -76.89334465197017 20.0
endloop
endfacet
facet normal 0.0 -0.0 1.0
outer loop
vertex -42.426409128807144 -84.85281261357851 20.0
vertex 22.9369085191843 -76.89334465197017 20.0
vertex 18.574865785021068 -76.74198125833183 20.0
endloop
endfacet
facet normal 0.0 -0.0 0.9999999
outer loop
vertex -42.426409128807144 -84.85281261357851 20.0
vertex 18.574865785021068 -76.74198125833183 20.0
vertex 14.49418794733722 -75.19329709080898 20.0
endloop
endfacet
facet normal 0.0 -0.0 0.9999999
outer loop
vertex -42.426409128807144 -84.85281261357851 20.0
vertex 14.49418794733722 -75.19329709080898 20.0
vertex -5.97717534368503 -64.73350433825473 20.0
endloop
endfacet
facet normal 0.0 -0.0 1.0
outer loop
vertex -42.426409128807144 -84.85281261357851 20.0
vertex -5.97717534368503 -64.73350433825473 20.0
vertex -17.13072423624609 -67.72209085218567 20.0
endloop
endfacet
facet normal 0.0 -0.0 1.0
outer loop
vertex -42.426409128807144 -84.85281261357851 20.0
vertex -17.13072423624609 -67.72209085218567 20.0
vertex -25.29568602136821 -59.55712863258568 20.0
endloop
endfacet
facet normal 0.0 0.0 1.0
outer loop
vertex -42.426409128807144 -84.85281261357851 20.0
vertex -25.29568602136821 -59.55712863258568 20.0
vertex -22.307098913929273 -48.40357989905473 20.0
endloop
endfacet
facet normal 0.0 0.0 0.9999999
outer loop
vertex -42.426409128807144 -84.85281261357851 20.0
vertex -22.307098913929273 -48.40357989905473 20.0
vertex -14.142135999999997 -14.142135247461894 20.0
endloop
endfacet
facet normal 0.0 -0.0 1.0
outer loop
vertex -14.142135999999997 -14.142135247461894 20.0
vertex -22.307098913929273 -48.40357989905473 20.0
vertex -9.238796427830334 -32.11111168823044 20.0
endloop
endfacet
facet normal 0.0 -0.0 1.0
outer loop
vertex -14.142135999999997 -14.142135247461894 20.0
vertex -9.238796427830334 -32.11111168823044 20.0
vertex -10.00000384702762 -28.28427098139941 20.0
endloop
endfacet
facet normal 0.0 -0.0 1.0
outer loop
vertex -14.142135999999997 -14.142135247461894 20.0
vertex -10.00000384702762 -28.28427098139941 20.0
vertex -9.238796224194648 -24.457430315074124 20.0
endloop
endfacet
facet normal 0.0 -0.0 1.0
outer loop
vertex -14.142135999999997 -14.142135247461894 20.0
vertex -9.238796224194648 -24.457430315074124 20.0
vertex -7.07106837626905 -21.21320324746189 20.0
endloop
endfacet
facet normal 0.0 -0.0 1.0
outer loop
vertex -14.142135999999997 -14.142135247461894 20.0
vertex -7.07106837626905 -21.21320324746189 20.0
vertex -3.8268411933066497 -19.04547557216966 20.0
endloop
endfacet
facet normal 0.0 -0.0 1.0
outer loop
vertex -14.142135999999997 -14.142135247461894 20.0
vertex -3.8268411933066497 -19.04547557216966 20.0
vertex -4.864756224520761e-07 -18.284268152972373 20.0
endloop
endfacet
facet normal 0.0 -0.0 0.9999999
outer loop
vertex -14.142135999999997 -14.142135247461894 20.0
vertex -4.864756224520761e-07 -18.284268152972373 20.0
vertex 3.8268401798496647 -19.045475775805343 20.0
endloop
endfacet
facet normal 0.0 -0.0 1.0
outer loop
vertex 7.0710664949237945 -49.497474871192836 20.0
vertex 9.238794719118445 -32.111112179849655 20.0
vertex 7.071066871192844 -35.355339247461885 20.0
endloop
endfacet
facet normal 0.0 0.0 1.0
outer loop
vertex 7.0710664949237945 -49.497474871192836 20.0
vertex 7.071066871192844 -35.355339247461885 20.0
vertex 3.8268396882304465 -37.523066922754126 20.0
endloop
endfacet
facet normal 0.0 0.0 1.0
outer loop
vertex 7.0710664949237945 -49.497474871192836 20.0
vertex 3.8268396882304465 -37.523066922754126 20.0
vertex -1.018600581659257e-06 -38.2842743419514 20.0
endloop
endfacet
facet normal 0.0 0.0 1.0
outer loop
vertex 7.0710664949237945 -49.497474871192836 20.0
vertex -1.018600581659257e-06 -38.2842743419514 20.0
vertex -3.8268416849258706 -37.52306671911843 20.0
endloop
endfacet
facet normal 0.0 0.0 1.0
outer loop
vertex 7.0710664949237945 -49.497474871192836 20.0
vertex -3.8268416849258706 -37.52306671911843 20.0
vertex -7.0710687525381 -35.35533887119284 20.0
endloop
endfacet
facet normal 0.0 -0.0 1.0
outer loop
vertex -5.97717534368503 -64.73350433825473 20.0
vertex 14.49418794733722 -75.19329709080898 20.0
vertex 11.13005679915139 -72.41247230506539 20.0
endloop
endfacet
facet normal 0.0 -0.0 1.0
outer loop
vertex -5.97717534368503 -64.73350433825473 20.0
vertex 11.13005679915139 -72.41247230506539 20.0
vertex 8.84125124227965 -68.69606042360863 20.0
endloop
endfacet
facet normal 0.0 -0.0 0.9999999
outer loop
vertex -5.97717534368503 -64.73350433825473 20.0
vertex 8.84125124227965 -68.69606042360863 20.0
vertex 7.8718574559746415 -64.44040187485578 20.0
endloop
endfacet
facet normal 0.0 -0.0 1.0
outer loop
vertex -5.97717534368503 -64.73350433825473 20.0
vertex 7.8718574559746415 -64.44040187485578 20.0
vertex 7.071066118654741 -63.63961049492378 20.0
endloop
endfacet
facet normal 0.0 -0.0 0.9999999
outer loop
vertex -5.97717534368503 -64.73350433825473 20.0
vertex 7.071066118654741 -63.63961049492378 20.0
vertex 4.90333137229489 -60.395376240893384 20.0
endloop
endfacet
facet normal 0.0 -0.0 1.0
outer loop
vertex -5.97717534368503 -64.73350433825473 20.0
vertex 4.90333137229489 -60.395376240893384 20.0
vertex 4.142131024165224 -56.568542605130354 20.0
endloop
endfacet
facet normal 0.0 -0.0 1.0
outer loop
vertex -5.97717534368503 -64.73350433825473 20.0
vertex 4.142131024165224 -56.568542605130354 20.0
vertex 4.903331575930196 -52.741709009872686 20.0
endloop
endfacet
facet normal 0.0 -0.0 1.0
outer loop
vertex -9.238796427830334 -32.11111168823044 20.0
vertex -22.307098913929273 -48.40357989905473 20.0
vertex -7.0710687525381 -35.35533887119284 20.0
endloop
endfacet
facet normal 0.0 0.0 1.0
outer loop
vertex -7.0710687525381 -35.35533887119284 20.0
vertex -22.307098913929273 -48.40357989905473 20.0
vertex -11.153550021368215 -45.414993385123786 20.0
endloop
endfacet
facet normal 0.0 -0.0 1.0
outer loop
vertex -7.0710687525381 -35.35533887119284 20.0
vertex -11.153550021368215 -45.414993385123786 20.0
vertex 7.0710664949237945 -49.497474871192836 20.0
endloop
endfacet
facet normal 0.0 -0.0 1.0
outer loop
vertex 7.0710664949237945 -49.497474871192836 20.0
vertex -11.153550021368215 -45.414993385123786 20.0
vertex -2.9885882362460947 -53.57995560472378 20.0
endloop
endfacet
facet normal 0.0 -0.0 1.0
outer loop
vertex 7.0710664949237945 -49.497474871192836 20.0
vertex -2.9885882362460947 -53.57995560472378 20.0
vertex 4.903331575930196 -52.741709009872686 20.0
endloop
endfacet
facet normal 0.0 0.0 1.0
outer loop
vertex 4.903331575930196 -52.741709009872686 20.0
vertex -2.9885882362460947 -53.57995560472378 20.0
vertex -5.97717534368503 -64.73350433825473 20.0
endloop
endfacet
facet normal 0.0 -0.0 -0.9999999
outer loop
vertex 14.142135247461894 -14.142135999999997 0.0
vertex 32.766888319537216 -56.92059769094466 0.0
vertex 29.986063712807386 -53.55646639478426 0.0
endloop
endfacet
facet normal -0.0 0.0 -1.0
outer loop
vertex 14.142135247461894 -14.142135999999997 0.0
vertex 29.986063712807386 -53.55646639478426 0.0
vertex 26.269651953143647 -51.26766064015303 0.0
endloop
endfacet
facet normal -0.0 0.0 -1.0
outer loop
vertex 14.142135247461894 -14.142135999999997 0.0
vertex 26.269651953143647 -51.26766064015303 0.0
vertex 22.01399345597464 -50.298266627393886 0.0
endloop
endfacet
facet normal -0.0 0.0 -1.0
outer loop
vertex 14.142135247461894 -14.142135999999997 0.0
vertex 22.01399345597464 -50.298266627393886 0.0
vertex 21.21320211865474 -49.497475247461885 0.0
endloop
endfacet
facet normal -0.0 0.0 -1.0
outer loop
vertex 14.142135247461894 -14.142135999999997 0.0
vertex 21.21320211865474 -49.497475247461885 0.0
vertex 17.968967979974884 -47.32974032846829 0.0
endloop
endfacet
facet normal -0.0 0.0 -1.0
outer loop
vertex 14.142135247461894 -14.142135999999997 0.0
vertex 17.968967979974884 -47.32974032846829 0.0
vertex 14.142134384717217 -46.56853977670332 0.0
endloop
endfacet
facet normal -0.0 0.0 -0.9999999
outer loop
vertex 14.142135247461894 -14.142135999999997 0.0
vertex 14.142134384717217 -46.56853977670332 0.0
vertex 10.315293677886196 -47.32974719590061 0.0
endloop
endfacet
facet normal -0.0 0.0 -1.0
outer loop
vertex 14.142135247461894 -14.142135999999997 0.0
vertex 10.315293677886196 -47.32974719590061 0.0
vertex 7.0710664949237945 -49.497474871192836 0.0
endloop
endfacet
facet normal 0.0 -0.0 -1.0
outer loop
vertex 14.142135247461894 -14.142135999999997 0.0
vertex 7.0710664949237945 -49.497474871192836 0.0
vertex 9.238794719118445 -32.111112179849655 0.0
endloop
endfacet
facet normal 0.0 -0.0 -1.0
outer loop
vertex 14.142135247461894 -14.142135999999997 0.0
vertex 9.238794719118445 -32.111112179849655 0.0
vertex 10.000002341951415 -28.284271513524367 0.0
endloop
endfacet
facet normal 0.0 -0.0 -1.0
outer loop
vertex 14.142135247461894 -14.142135999999997 0.0
vertex 10.000002341951415 -28.284271513524367 0.0
vertex 9.238794922754128 -24.457430806693342 0.0
endloop
endfacet
facet normal 0.0 -0.0 -1.0
outer loop
vertex 14.142135247461894 -14.142135999999997 0.0
vertex 9.238794922754128 -24.457430806693342 0.0
vertex 7.071067247461896 -21.213203623730944 0.0
endloop
endfacet
facet normal 0.0 0.0 -1.0
outer loop
vertex 14.142135247461894 -14.142135999999997 0.0
vertex 7.071067247461896 -21.213203623730944 0.0
vertex 3.8268401798496647 -19.045475775805343 0.0
endloop
endfacet
facet normal 0.0 0.0 -1.0
outer loop
vertex 14.142135247461894 -14.142135999999997 0.0
vertex 3.8268401798496647 -19.045475775805343 0.0
vertex -14.142135999999997 -14.142135247461894 0.0
endloop
endfacet
facet normal 0.0 -0.0 -1.0
outer loop
vertex 49.49747261357852 -77.78174724746188 0.0
vertex 22.9369085191843 -76.89334465197017 0.0
vertex 27.115124741048493 -75.63127936687161 0.0
endloop
endfacet
facet normal 0.0 -0.0 -1.0
outer loop
vertex 49.49747261357852 -77.78174724746188 0.0
vertex 27.115124741048493 -75.63127936687161 0.0
vertex 30.663938179936547 -73.09034781164083 0.0
endloop
endfacet
facet normal 0.0 0.0 -0.9999999
outer loop
vertex 49.49747261357852 -77.78174724746188 0.0
vertex 30.663938179936547 -73.09034781164083 0.0
vertex 33.204862852940494 -69.54154157902967 0.0
endloop
endfacet
facet normal 0.0 0.0 -1.0
outer loop
vertex 49.49747261357852 -77.78174724746188 0.0
vertex 33.204862852940494 -69.54154157902967 0.0
vertex 34.4669354314403 -65.36331835325548 0.0
endloop
endfacet
facet normal 0.0 0.0 -1.0
outer loop
vertex 49.49747261357852 -77.78174724746188 0.0
vertex 34.4669354314403 -65.36331835325548 0.0
vertex 34.31557226991707 -61.00127561103783 0.0
endloop
endfacet
facet normal 0.0 0.0 -1.0
outer loop
vertex 49.49747261357852 -77.78174724746188 0.0
vertex 34.31557226991707 -61.00127561103783 0.0
vertex 32.766888319537216 -56.92059769094466 0.0
endloop
endfacet
facet normal 0.0 0.0 -1.0
outer loop
vertex 49.49747261357852 -77.78174724746188 0.0
vertex 32.766888319537216 -56.92059769094466 0.0
vertex 14.142135247461894 -14.142135999999997 0.0
endloop
endfacet
facet normal 0.0 -0.0 -0.9999999
outer loop
vertex -42.426409128807144 -84.85281261357851 0.0
vertex -14.142135999999997 -14.142135247461894 0.0
vertex -22.307098913929273 -48.40357989905473 0.0
endloop
endfacet
facet normal 0.0 -0.0 -1.0
outer loop
vertex -42.426409128807144 -84.85281261357851 0.0
vertex -22.307098913929273 -48.40357989905473 0.0
vertex -25.29568602136821 -59.55712863258568 0.0
endloop
endfacet
facet normal 0.0 -0.0 -1.0
outer loop
vertex -42.426409128807144 -84.85281261357851 0.0
vertex -25.29568602136821 -59.55712863258568 0.0
vertex -17.13072423624609 -67.72209085218567 0.0
endloop
endfacet
facet normal 0.0 -0.0 -1.0
outer loop
vertex -42.426409128807144 -84.85281261357851 0.0
vertex -17.13072423624609 -67.72209085218567 0.0
vertex -5.97717534368503 -64.73350433825473 0.0
endloop
endfacet
facet normal 0.0 -0.0 -0.9999999
outer loop
vertex -42.426409128807144 -84.85281261357851 0.0
vertex -5.97717534368503 -64.73350433825473 0.0
vertex 14.49418794733722 -75.19329709080898 0.0
endloop
endfacet
facet normal 0.0 -0.0 -0.9999999
outer loop
vertex -42.426409128807144 -84.85281261357851 0.0
vertex 14.49418794733722 -75.19329709080898 0.0
vertex 18.574865785021068 -76.74198125833183 0.0
endloop
endfacet
facet normal 0.0 -0.0 -1.0
outer loop
vertex -42.426409128807144 -84.85281261357851 0.0
vertex 18.574865785021068 -76.74198125833183 0.0
vertex 22.9369085191843 -76.89334465197017 0.0
endloop
endfacet
facet normal 0.0 -0.0 -1.0
outer loop
vertex -42.426409128807144 -84.85281261357851 0.0
vertex 22.9369085191843 -76.89334465197017 0.0
vertex 49.49747261357852 -77.78174724746188 0.0
endloop
endfacet
facet normal 0.0 -0.0 -0.9999999
outer loop
vertex -14.142135999999997 -14.142135247461894 0.0
vertex 3.8268401798496647 -19.045475775805343 0.0
vertex -4.864756224520761e-07 -18.284268152972373 0.0
endloop
endfacet
facet normal 0.0 -0.0 -1.0
outer loop
vertex -14.142135999999997 -14.142135247461894 0.0
vertex -4.864756224520761e-07 -18.284268152972373 0.0
vertex -3.8268411933066497 -19.04547557216966 0.0
endloop
endfacet
facet normal 0.0 -0.0 -1.0
outer loop
vertex -14.142135999999997 -14.142135247461894 0.0
vertex -3.8268411933066497 -19.04547557216966 0.0
vertex -7.07106837626905 -21.21320324746189 0.0
endloop
endfacet
facet normal 0.0 -0.0 -1.0
outer loop
vertex -14.142135999999997 -14.142135247461894 0.0
vertex -7.07106837626905 -21.21320324746189 0.0
vertex -9.238796224194648 -24.457430315074124 0.0
endloop
endfacet
facet normal -0.0 0.0 -1.0
outer loop
vertex -14.142135999999997 -14.142135247461894 0.0
vertex -9.238796224194648 -24.457430315074124 0.0
vertex -10.00000384702762 -28.28427098139941 0.0
endloop
endfacet
facet normal -0.0 0.0 -1.0
outer loop
vertex -14.142135999999997 -14.142135247461894 0.0
vertex -10.00000384702762 -28.28427098139941 0.0
vertex -9.238796427830334 -32.11111168823044 0.0
endloop
endfacet
facet normal -0.0 0.0 -1.0
outer loop
vertex -14.142135999999997 -14.142135247461894 0.0
vertex -9.238796427830334 -32.11111168823044 0.0
vertex -22.307098913929273 -48.40357989905473 0.0
endloop
endfacet
facet normal 0.0 -0.0 -1.0
outer loop
vertex 7.0710664949237945 -49.497474871192836 0.0
vertex -7.0710687525381 -35.35533887119284 0.0
vertex -3.8268416849258706 -37.52306671911843 0.0
endloop
endfacet
facet normal 0.0 -0.0 -1.0
outer loop
vertex 7.0710664949237945 -49.497474871192836 0.0
vertex -3.8268416849258706 -37.52306671911843 0.0
vertex -1.018600581659257e-06 -38.2842743419514 0.0
endloop
endfacet
facet normal 0.0 -0.0 -1.0
outer loop
vertex 7.0710664949237945 -49.497474871192836 0.0
vertex -1.018600581659257e-06 -38.2842743419514 0.0
vertex 3.8268396882304465 -37.523066922754126 0.0
endloop
endfacet
facet normal 0.0 -0.0 -1.0
outer loop
vertex 7.0710664949237945 -49.497474871192836 0.0
vertex 3.8268396882304465 -37.523066922754126 0.0
vertex 7.071066871192844 -35.355339247461885 0.0
endloop
endfacet
facet normal 0.0 0.0 -1.0
outer loop
vertex 7.0710664949237945 -49.497474871192836 0.0
vertex 7.071066871192844 -35.355339247461885 0.0
vertex 9.238794719118445 -32.111112179849655 0.0
endloop
endfacet
facet normal 0.0 -0.0 -1.0
outer loop
vertex -5.97717534368503 -64.73350433825473 0.0
vertex 4.903331575930196 -52.741709009872686 0.0
vertex 4.142131024165224 -56.568542605130354 0.0
endloop
endfacet
facet normal 0.0 -0.0 -1.0
outer loop
vertex -5.97717534368503 -64.73350433825473 0.0
vertex 4.142131024165224 -56.568542605130354 0.0
vertex 4.90333137229489 -60.395376240893384 0.0
endloop
endfacet
facet normal 0.0 -0.0 -0.9999999
outer loop
vertex -5.97717534368503 -64.73350433825473 0.0
vertex 4.90333137229489 -60.395376240893384 0.0
vertex 7.071066118654741 -63.63961049492378 0.0
endloop
endfacet
facet normal 0.0 -0.0 -1.0
outer loop
vertex -5.97717534368503 -64.73350433825473 0.0
vertex 7.071066118654741 -63.63961049492378 0.0
vertex 7.8718574559746415 -64.44040187485578 0.0
endloop
endfacet
facet normal 0.0 -0.0 -0.9999999
outer loop
vertex -5.97717534368503 -64.73350433825473 0.0
vertex 7.8718574559746415 -64.44040187485578 0.0
vertex 8.84125124227965 -68.69606042360863 0.0
endloop
endfacet
facet normal 0.0 -0.0 -1.0
outer loop
vertex -5.97717534368503 -64.73350433825473 0.0
vertex 8.84125124227965 -68.69606042360863 0.0
vertex 11.13005679915139 -72.41247230506539 0.0
endloop
endfacet
facet normal 0.0 -0.0 -1.0
outer loop
vertex -5.97717534368503 -64.73350433825473 0.0
vertex 11.13005679915139 -72.41247230506539 0.0
vertex 14.49418794733722 -75.19329709080898 0.0
endloop
endfacet
facet normal 0.0 0.0 -1.0
outer loop
vertex -7.0710687525381 -35.35533887119284 0.0
vertex -22.307098913929273 -48.40357989905473 0.0
vertex -9.238796427830334 -32.11111168823044 0.0
endloop
endfacet
facet normal 0.0 -0.0 -1.0
outer loop
vertex -22.307098913929273 -48.40357989905473 0.0
vertex -7.0710687525381 -35.35533887119284 0.0
vertex -11.153550021368215 -45.414993385123786 0.0
endloop
endfacet
facet normal 0.0 0.0 -1.0
outer loop
vertex -11.153550021368215 -45.414993385123786 0.0
vertex -7.0710687525381 -35.35533887119284 0.0
vertex 7.0710664949237945 -49.497474871192836 0.0
endloop
endfacet
facet normal 0.0 -0.0 -1.0
outer loop
vertex -11.153550021368215 -45.414993385123786 0.0
vertex 7.0710664949237945 -49.497474871192836 0.0
vertex -2.9885882362460947 -53.57995560472378 0.0
endloop
endfacet
facet normal 0.0 -0.0 -1.0
outer loop
vertex -2.9885882362460947 -53.57995560472378 0.0
vertex 7.0710664949237945 -49.497474871192836 0.0
vertex 4.903331575930196 -52.741709009872686 0.0
endloop
endfacet
facet normal 0.0 -0.0 -1.0
outer loop
vertex -2.9885882362460947 -53.57995560472378 0.0
vertex 4.903331575930196 -52.741709009872686 0.0
vertex -5.97717534368503 -64.73350433825473 0.0
endloop
endfacet
facet normal 0.8314694543888006 -0.5555705674093527 0.0
outer loop
vertex 7.0710664949237945 -49.497474871192836 0.0
vertex 4.903331575930196 -52.741709009872686 20.0
vertex 4.903331575930196 -52.741709009872686 0.0
endloop
endfacet
facet normal 0.9807853138756994 -0.19509000920691844 0.0
outer loop
vertex 4.903331575930196 -52.741709009872686 0.0
vertex 4.903331575930196 -52.741709009872686 20.0
vertex 4.142131024165224 -56.568542605130354 20.0
endloop
endfacet
facet normal 0.9807853138756994 -0.19509000920691844 0.0
outer loop
vertex 4.903331575930196 -52.741709009872686 0.0
vertex 4.142131024165224 -56.568542605130354 20.0
vertex 4.142131024165224 -56.568542605130354 0.0
endloop
endfacet
facet normal 0.9807853242569212 0.19508995701689974 0.0
outer loop
vertex 4.142131024165224 -56.568542605130354 0.0
vertex 4.142131024165224 -56.568542605130354 20.0
vertex 4.90333137229489 -60.395376240893384 20.0
endloop
endfacet
facet normal 0.9807853242569212 0.19508995701689974 0.0
outer loop
vertex 4.142131024165224 -56.568542605130354 0.0
vertex 4.90333137229489 -60.395376240893384 20.0
vertex 4.90333137229489 -60.395376240893384 0.0
endloop
endfacet
facet normal 0.8314694839520869 0.5555705231648007 0.0
outer loop
vertex 4.90333137229489 -60.395376240893384 0.0
vertex 4.90333137229489 -60.395376240893384 20.0
vertex 7.071066118654741 -63.63961049492378 20.0
endloop
endfacet
facet normal 0.8314694839520869 0.5555705231648007 0.0
outer loop
vertex 4.90333137229489 -60.395376240893384 0.0
vertex 7.071066118654741 -63.63961049492378 20.0
vertex 7.071066118654741 -63.63961049492378 0.0
endloop
endfacet
facet normal 0.8314694543888006 -0.5555705674093527 0.0
outer loop
vertex 4.903331575930196 -52.741709009872686 20.0
vertex 7.0710664949237945 -49.497474871192836 0.0
vertex 7.0710664949237945 -49.497474871192836 20.0
endloop
endfacet
facet normal 0.5555703817434444 -0.8314694839520831 0.0
outer loop
vertex 7.0710664949237945 -49.497474871192836 20.0
vertex 7.0710664949237945 -49.497474871192836 0.0
vertex 10.315293677886196 -47.32974719590061 0.0
endloop
endfacet
facet normal 0.5555703817434444 -0.8314694839520831 -0.0
outer loop
vertex 7.0710664949237945 -49.497474871192836 20.0
vertex 10.315293677886196 -47.32974719590061 0.0
vertex 10.315293677886196 -47.32974719590061 20.0
endloop
endfacet
facet normal 0.19509016914893595 -0.9807852535462487 0.0
outer loop
vertex 10.315293677886196 -47.32974719590061 20.0
vertex 10.315293677886196 -47.32974719590061 0.0
vertex 14.142134384717217 -46.56853977670332 0.0
endloop
endfacet
facet normal 0.19509016914893595 -0.9807852535462487 -0.0
outer loop
vertex 10.315293677886196 -47.32974719590061 20.0
vertex 14.142134384717217 -46.56853977670332 0.0
vertex 14.142134384717217 -46.56853977670332 20.0
endloop
endfacet
facet normal -0.19509000920691844 -0.9807853138756994 0.0
outer loop
vertex 14.142134384717217 -46.56853977670332 20.0
vertex 14.142134384717217 -46.56853977670332 0.0
vertex 17.968967979974884 -47.32974032846829 0.0
endloop
endfacet
facet normal -0.19509000920691844 -0.9807853138756994 -0.0
outer loop
vertex 14.142134384717217 -46.56853977670332 20.0
vertex 17.968967979974884 -47.32974032846829 0.0
vertex 17.968967979974884 -47.32974032846829 20.0
endloop
endfacet
facet normal -0.5555705674093527 -0.8314694543888006 0.0
outer loop
vertex 17.968967979974884 -47.32974032846829 20.0
vertex 17.968967979974884 -47.32974032846829 0.0
vertex 21.21320211865474 -49.497475247461885 0.0
endloop
endfacet
facet normal -0.5555705674093527 -0.8314694543888006 -0.0
outer loop
vertex 17.968967979974884 -47.32974032846829 20.0
vertex 21.21320211865474 -49.497475247461885 0.0
vertex 21.21320211865474 -49.497475247461885 20.0
endloop
endfacet
facet normal 0.7071067999999998 0.7071067623730947 0.0
outer loop
vertex 7.8718574559746415 -64.44040187485578 20.0
vertex 7.8718574559746415 -64.44040187485578 0.0
vertex 7.071066118654741 -63.63961049492378 20.0
endloop
endfacet
facet normal 0.7071067999999998 0.7071067623730947 0.0
outer loop
vertex 7.071066118654741 -63.63961049492378 20.0
vertex 7.8718574559746415 -64.44040187485578 0.0
vertex 7.071066118654741 -63.63961049492378 0.0
endloop
endfacet
facet normal -0.8130754142717178 0.5821582768673176 0.0
outer loop
vertex 30.663938179936547 -73.09034781164083 0.0
vertex 33.204862852940494 -69.54154157902967 20.0
vertex 33.204862852940494 -69.54154157902967 0.0
endloop
endfacet
facet normal -0.9572817890730749 0.28915684794689317 0.0
outer loop
vertex 33.204862852940494 -69.54154157902967 0.0
vertex 33.204862852940494 -69.54154157902967 20.0
vertex 34.4669354314403 -65.36331835325548 20.0
endloop
endfacet
facet normal -0.9572817890730749 0.28915684794689317 0.0
outer loop
vertex 33.204862852940494 -69.54154157902967 0.0
vertex 34.4669354314403 -65.36331835325548 20.0
vertex 34.4669354314403 -65.36331835325548 0.0
endloop
endfacet
facet normal -0.9993984210795529 -0.03468158112797881 0.0
outer loop
vertex 34.4669354314403 -65.36331835325548 0.0
vertex 34.4669354314403 -65.36331835325548 20.0
vertex 34.31557226991707 -61.00127561103783 20.0
endloop
endfacet
facet normal -0.9993984210795529 -0.03468158112797881 0.0
outer loop
vertex 34.4669354314403 -65.36331835325548 0.0
vertex 34.31557226991707 -61.00127561103783 20.0
vertex 34.31557226991707 -61.00127561103783 0.0
endloop
endfacet
facet normal -0.9349341206515869 -0.35482156173025053 0.0
outer loop
vertex 34.31557226991707 -61.00127561103783 0.0
vertex 34.31557226991707 -61.00127561103783 20.0
vertex 32.766888319537216 -56.92059769094466 20.0
endloop
endfacet
facet normal -0.9349341206515869 -0.35482156173025053 0.0
outer loop
vertex 34.31557226991707 -61.00127561103783 0.0
vertex 32.766888319537216 -56.92059769094466 20.0
vertex 32.766888319537216 -56.92059769094466 0.0
endloop
endfacet
facet normal -0.7707632234440034 -0.6371215882604149 0.0
outer loop
vertex 32.766888319537216 -56.92059769094466 0.0
vertex 32.766888319537216 -56.92059769094466 20.0
vertex 29.986063712807386 -53.55646639478426 20.0
endloop
endfacet
facet normal -0.7707632234440034 -0.6371215882604149 0.0
outer loop
vertex 32.766888319537216 -56.92059769094466 0.0
vertex 29.986063712807386 -53.55646639478426 20.0
vertex 29.986063712807386 -53.55646639478426 0.0
endloop
endfacet
facet normal -0.5243940885377745 -0.8514757687997567 -0.0
outer loop
vertex 29.986063712807386 -53.55646639478426 0.0
vertex 29.986063712807386 -53.55646639478426 20.0
vertex 26.269651953143647 -51.26766064015303 20.0
endloop
endfacet
facet normal -0.5243940885377745 -0.8514757687997567 0.0
outer loop
vertex 29.986063712807386 -53.55646639478426 0.0
vertex 26.269651953143647 -51.26766064015303 20.0
vertex 26.269651953143647 -51.26766064015303 0.0
endloop
endfacet
facet normal -0.22210063956681142 -0.975023665682584 -0.0
outer loop
vertex 26.269651953143647 -51.26766064015303 0.0
vertex 26.269651953143647 -51.26766064015303 20.0
vertex 22.01399345597464 -50.298266627393886 20.0
endloop
endfacet
facet normal -0.22210063956681142 -0.975023665682584 0.0
outer loop
vertex 26.269651953143647 -51.26766064015303 0.0
vertex 22.01399345597464 -50.298266627393886 20.0
vertex 22.01399345597464 -50.298266627393886 0.0
endloop
endfacet
facet normal -0.8130754142717178 0.5821582768673176 0.0
outer loop
vertex 33.204862852940494 -69.54154157902967 20.0
vertex 30.663938179936547 -73.09034781164083 0.0
vertex 30.663938179936547 -73.09034781164083 20.0
endloop
endfacet
facet normal -0.5821583043122341 0.8130755159604821 -0.0
outer loop
vertex 30.663938179936547 -73.09034781164083 20.0
vertex 30.663938179936547 -73.09034781164083 0.0
vertex 27.115124741048493 -75.63127936687161 0.0
endloop
endfacet
facet normal -0.5821583043122341 0.8130755159604821 0.0
outer loop
vertex 30.663938179936547 -73.09034781164083 20.0
vertex 27.115124741048493 -75.63127936687161 0.0
vertex 27.115124741048493 -75.63127936687161 20.0
endloop
endfacet
facet normal -0.28915637274348643 0.9572818044598151 -0.0
outer loop
vertex 27.115124741048493 -75.63127936687161 20.0
vertex 27.115124741048493 -75.63127936687161 0.0
vertex 22.9369085191843 -76.89334465197017 0.0
endloop
endfacet
facet normal -0.28915637274348643 0.9572818044598151 0.0
outer loop
vertex 27.115124741048493 -75.63127936687161 20.0
vertex 22.9369085191843 -76.89334465197017 0.0
vertex 22.9369085191843 -76.89334465197017 20.0
endloop
endfacet
facet normal 0.03468135146573431 0.9993984192340661 -0.0
outer loop
vertex 22.9369085191843 -76.89334465197017 20.0
vertex 22.9369085191843 -76.89334465197017 0.0
vertex 18.574865785021068 -76.74198125833183 0.0
endloop
endfacet
facet normal 0.03468135146573431 0.9993984192340661 0.0
outer loop
vertex 22.9369085191843 -76.89334465197017 20.0
vertex 18.574865785021068 -76.74198125833183 0.0
vertex 18.574865785021068 -76.74198125833183 20.0
endloop
endfacet
facet normal 0.35482161148041286 0.9349341017706503 -0.0
outer loop
vertex 18.574865785021068 -76.74198125833183 20.0
vertex 18.574865785021068 -76.74198125833183 0.0
vertex 14.49418794733722 -75.19329709080898 0.0
endloop
endfacet
facet normal 0.35482161148041286 0.9349341017706503 0.0
outer loop
vertex 18.574865785021068 -76.74198125833183 20.0
vertex 14.49418794733722 -75.19329709080898 0.0
vertex 14.49418794733722 -75.19329709080898 20.0
endloop
endfacet
facet normal 0.6371216292746362 0.7707631895411828 -0.0
outer loop
vertex 14.49418794733722 -75.19329709080898 20.0
vertex 14.49418794733722 -75.19329709080898 0.0
vertex 11.13005679915139 -72.41247230506539 0.0
endloop
endfacet
facet normal 0.6371216292746362 0.7707631895411828 0.0
outer loop
vertex 14.49418794733722 -75.19329709080898 20.0
vertex 11.13005679915139 -72.41247230506539 0.0
vertex 11.13005679915139 -72.41247230506539 20.0
endloop
endfacet
facet normal 0.8514757967040651 0.5243940432286367 0.0
outer loop
vertex 11.13005679915139 -72.41247230506539 20.0
vertex 11.13005679915139 -72.41247230506539 0.0
vertex 8.84125124227965 -68.69606042360863 0.0
endloop
endfacet
facet normal 0.8514757967040651 0.5243940432286367 0.0
outer loop
vertex 11.13005679915139 -72.41247230506539 20.0
vertex 8.84125124227965 -68.69606042360863 0.0
vertex 8.84125124227965 -68.69606042360863 20.0
endloop
endfacet
facet normal 0.9750236775011083 0.22210058768338425 0.0
outer loop
vertex 8.84125124227965 -68.69606042360863 20.0
vertex 8.84125124227965 -68.69606042360863 0.0
vertex 7.8718574559746415 -64.44040187485578 0.0
endloop
endfacet
facet normal 0.9750236775011083 0.22210058768338425 0.0
outer loop
vertex 8.84125124227965 -68.69606042360863 20.0
vertex 7.8718574559746415 -64.44040187485578 0.0
vertex 7.8718574559746415 -64.44040187485578 20.0
endloop
endfacet
facet normal -0.7071067999999998 -0.7071067623730947 0.0
outer loop
vertex 21.21320211865474 -49.497475247461885 0.0
vertex 22.01399345597464 -50.298266627393886 0.0
vertex 21.21320211865474 -49.497475247461885 20.0
endloop
endfacet
facet normal -0.7071067999999998 -0.7071067623730947 0.0
outer loop
vertex 21.21320211865474 -49.497475247461885 20.0
vertex 22.01399345597464 -50.298266627393886 0.0
vertex 22.01399345597464 -50.298266627393886 20.0
endloop
endfacet
facet normal 0.7071067999999998 0.7071067623730947 0.0
outer loop
vertex -25.29568602136821 -59.55712863258568 0.0
vertex -25.29568602136821 -59.55712863258568 20.0
vertex -17.13072423624609 -67.72209085218567 0.0
endloop
endfacet
facet normal 0.7071067999999998 0.7071067623730947 0.0
outer loop
vertex -17.13072423624609 -67.72209085218567 0.0
vertex -25.29568602136821 -59.55712863258568 20.0
vertex -17.13072423624609 -67.72209085218567 20.0
endloop
endfacet
facet normal -0.25881901672686436 0.9659258304992672 -0.0
outer loop
vertex -17.13072423624609 -67.72209085218567 0.0
vertex -17.13072423624609 -67.72209085218567 20.0
vertex -5.97717534368503 -64.73350433825473 0.0
endloop
endfacet
facet normal -0.25881901672686436 0.9659258304992672 0.0
outer loop
vertex -5.97717534368503 -64.73350433825473 0.0
vertex -17.13072423624609 -67.72209085218567 20.0
vertex -5.97717534368503 -64.73350433825473 20.0
endloop
endfacet
facet normal -0.9659258167268642 0.2588190681261725 0.0
outer loop
vertex -5.97717534368503 -64.73350433825473 0.0
vertex -5.97717534368503 -64.73350433825473 20.0
vertex -2.9885882362460947 -53.57995560472378 0.0
endloop
endfacet
facet normal -0.9659258167268642 0.2588190681261725 0.0
outer loop
vertex -2.9885882362460947 -53.57995560472378 0.0
vertex -5.97717534368503 -64.73350433825473 20.0
vertex -2.9885882362460947 -53.57995560472378 20.0
endloop
endfacet
facet normal -0.7071067999999998 -0.7071067623730947 0.0
outer loop
vertex -2.9885882362460947 -53.57995560472378 20.0
vertex -11.153550021368215 -45.414993385123786 20.0
vertex -2.9885882362460947 -53.57995560472378 0.0
endloop
endfacet
facet normal -0.7071067999999998 -0.7071067623730947 0.0
outer loop
vertex -2.9885882362460947 -53.57995560472378 0.0
vertex -11.153550021368215 -45.414993385123786 20.0
vertex -11.153550021368215 -45.414993385123786 0.0
endloop
endfacet
facet normal 0.25881901672686436 -0.9659258304992672 0.0
outer loop
vertex -11.153550021368215 -45.414993385123786 0.0
vertex -11.153550021368215 -45.414993385123786 20.0
vertex -22.307098913929273 -48.40357989905473 0.0
endloop
endfacet
facet normal 0.25881901672686436 -0.9659258304992672 -0.0
outer loop
vertex -22.307098913929273 -48.40357989905473 0.0
vertex -11.153550021368215 -45.414993385123786 20.0
vertex -22.307098913929273 -48.40357989905473 20.0
endloop
endfacet
facet normal 0.9659258167268642 -0.2588190681261725 0.0
outer loop
vertex -22.307098913929273 -48.40357989905473 0.0
vertex -22.307098913929273 -48.40357989905473 20.0
vertex -25.29568602136821 -59.55712863258568 0.0
endloop
endfacet
facet normal 0.9659258167268642 -0.2588190681261725 0.0
outer loop
vertex -25.29568602136821 -59.55712863258568 0.0
vertex -22.307098913929273 -48.40357989905473 20.0
vertex -25.29568602136821 -59.55712863258568 20.0
endloop
endfacet
facet normal -0.8314694543888043 0.5555704259879966 0.0
outer loop
vertex 7.071066871192844 -35.355339247461885 0.0
vertex 9.238794719118445 -32.111112179849655 20.0
vertex 9.238794719118445 -32.111112179849655 0.0
endloop
endfacet
facet normal -0.9807852431650157 0.19509022133895093 0.0
outer loop
vertex 9.238794719118445 -32.111112179849655 0.0
vertex 9.238794719118445 -32.111112179849655 20.0
vertex 10.000002341951415 -28.284271513524367 20.0
endloop
endfacet
facet normal -0.9807852431650157 0.19509022133895093 0.0
outer loop
vertex 9.238794719118445 -32.111112179849655 0.0
vertex 10.000002341951415 -28.284271513524367 20.0
vertex 10.000002341951415 -28.284271513524367 0.0
endloop
endfacet
facet normal -0.9807851828355763 -0.19509038128097228 0.0
outer loop
vertex 10.000002341951415 -28.284271513524367 0.0
vertex 10.000002341951415 -28.284271513524367 20.0
vertex 9.238794922754128 -24.457430806693342 20.0
endloop
endfacet
facet normal -0.9807851828355763 -0.19509038128097228 0.0
outer loop
vertex 10.000002341951415 -28.284271513524367 0.0
vertex 9.238794922754128 -24.457430806693342 20.0
vertex 9.238794922754128 -24.457430806693342 0.0
endloop
endfacet
facet normal -0.8314696960841118 -0.5555701696114044 0.0
outer loop
vertex 9.238794922754128 -24.457430806693342 0.0
vertex 9.238794922754128 -24.457430806693342 20.0
vertex 7.071067247461896 -21.213203623730944 20.0
endloop
endfacet
facet normal -0.8314696960841118 -0.5555701696114044 0.0
outer loop
vertex 9.238794922754128 -24.457430806693342 0.0
vertex 7.071067247461896 -21.213203623730944 20.0
vertex 7.071067247461896 -21.213203623730944 0.0
endloop
endfacet
facet normal -0.8314694543888043 0.5555704259879966 0.0
outer loop
vertex 9.238794719118445 -32.111112179849655 20.0
vertex 7.071066871192844 -35.355339247461885 0.0
vertex 7.071066871192844 -35.355339247461885 20.0
endloop
endfacet
facet normal -0.5555703817434444 0.8314694839520831 -0.0
outer loop
vertex 7.071066871192844 -35.355339247461885 20.0
vertex 7.071066871192844 -35.355339247461885 0.0
vertex 3.8268396882304465 -37.523066922754126 0.0
endloop
endfacet
facet normal -0.5555703817434444 0.8314694839520831 0.0
outer loop
vertex 7.071066871192844 -35.355339247461885 20.0
vertex 3.8268396882304465 -37.523066922754126 0.0
vertex 3.8268396882304465 -37.523066922754126 20.0
endloop
endfacet
facet normal -0.19509016914893595 0.9807852535462487 -0.0
outer loop
vertex 3.8268396882304465 -37.523066922754126 20.0
vertex 3.8268396882304465 -37.523066922754126 0.0
vertex -1.018600581659257e-06 -38.2842743419514 0.0
endloop
endfacet
facet normal -0.19509016914893595 0.9807852535462487 0.0
outer loop
vertex 3.8268396882304465 -37.523066922754126 20.0
vertex -1.018600581659257e-06 -38.2842743419514 0.0
vertex -1.018600581659257e-06 -38.2842743419514 20.0
endloop
endfacet
facet normal 0.19509022133895093 0.9807852431650157 -0.0
outer loop
vertex -1.018600581659257e-06 -38.2842743419514 20.0
vertex -1.018600581659257e-06 -38.2842743419514 0.0
vertex -3.8268416849258706 -37.52306671911843 0.0
endloop
endfacet
facet normal 0.19509022133895093 0.9807852431650157 0.0
outer loop
vertex -1.018600581659257e-06 -38.2842743419514 20.0
vertex -3.8268416849258706 -37.52306671911843 0.0
vertex -3.8268416849258706 -37.52306671911843 20.0
endloop
endfacet
facet normal 0.5555704259879966 0.8314694543888043 -0.0
outer loop
vertex -3.8268416849258706 -37.52306671911843 20.0
vertex -3.8268416849258706 -37.52306671911843 0.0
vertex -7.0710687525381 -35.35533887119284 0.0
endloop
endfacet
facet normal 0.5555704259879966 0.8314694543888043 0.0
outer loop
vertex -3.8268416849258706 -37.52306671911843 20.0
vertex -7.0710687525381 -35.35533887119284 0.0
vertex -7.0710687525381 -35.35533887119284 20.0
endloop
endfacet
facet normal 0.8314696665208443 -0.5555702138559678 0.0
outer loop
vertex -7.07106837626905 -21.21320324746189 0.0
vertex -9.238796224194648 -24.457430315074124 20.0
vertex -9.238796224194648 -24.457430315074124 0.0
endloop
endfacet
facet normal 0.9807851724543319 -0.19509043347098348 0.0
outer loop
vertex -9.238796224194648 -24.457430315074124 0.0
vertex -9.238796224194648 -24.457430315074124 20.0
vertex -10.00000384702762 -28.28427098139941 20.0
endloop
endfacet
facet normal 0.9807851724543319 -0.19509043347098348 0.0
outer loop
vertex -9.238796224194648 -24.457430315074124 0.0
vertex -10.00000384702762 -28.28427098139941 20.0
vertex -10.00000384702762 -28.28427098139941 0.0
endloop
endfacet
facet normal 0.9807852535462487 0.19509016914893595 0.0
outer loop
vertex -10.00000384702762 -28.28427098139941 0.0
vertex -10.00000384702762 -28.28427098139941 20.0
vertex -9.238796427830334 -32.11111168823044 20.0
endloop
endfacet
facet normal 0.9807852535462487 0.19509016914893595 0.0
outer loop
vertex -10.00000384702762 -28.28427098139941 0.0
vertex -9.238796427830334 -32.11111168823044 20.0
vertex -9.238796427830334 -32.11111168823044 0.0
endloop
endfacet
facet normal 0.8314694839520831 0.5555703817434444 0.0
outer loop
vertex -9.238796427830334 -32.11111168823044 0.0
vertex -9.238796427830334 -32.11111168823044 20.0
vertex -7.0710687525381 -35.35533887119284 20.0
endloop
endfacet
facet normal 0.8314694839520831 0.5555703817434444 0.0
outer loop
vertex -9.238796427830334 -32.11111168823044 0.0
vertex -7.0710687525381 -35.35533887119284 20.0
vertex -7.0710687525381 -35.35533887119284 0.0
endloop
endfacet
facet normal 0.8314696665208443 -0.5555702138559678 0.0
outer loop
vertex -9.238796224194648 -24.457430315074124 20.0
vertex -7.07106837626905 -21.21320324746189 0.0
vertex -7.07106837626905 -21.21320324746189 20.0
endloop
endfacet
facet normal 0.5555701696114044 -0.8314696960841118 0.0
outer loop
vertex -7.07106837626905 -21.21320324746189 20.0
vertex -7.07106837626905 -21.21320324746189 0.0
vertex -3.8268411933066497 -19.04547557216966 0.0
endloop
endfacet
facet normal 0.5555701696114044 -0.8314696960841118 -0.0
outer loop
vertex -7.07106837626905 -21.21320324746189 20.0
vertex -3.8268411933066497 -19.04547557216966 0.0
vertex -3.8268411933066497 -19.04547557216966 20.0
endloop
endfacet
facet normal 0.19509038128097228 -0.9807851828355763 0.0
outer loop
vertex -3.8268411933066497 -19.04547557216966 20.0
vertex -3.8268411933066497 -19.04547557216966 0.0
vertex -4.864756224520761e-07 -18.284268152972373 0.0
endloop
endfacet
facet normal 0.19509038128097228 -0.9807851828355763 -0.0
outer loop
vertex -3.8268411933066497 -19.04547557216966 20.0
vertex -4.864756224520761e-07 -18.284268152972373 0.0
vertex -4.864756224520761e-07 -18.284268152972373 20.0
endloop
endfacet
facet normal -0.19509043347098348 -0.9807851724543319 0.0
outer loop
vertex -4.864756224520761e-07 -18.284268152972373 20.0
vertex -4.864756224520761e-07 -18.284268152972373 0.0
vertex 3.8268401798496647 -19.045475775805343 0.0
endloop
endfacet
facet normal -0.19509043347098348 -0.9807851724543319 -0.0
outer loop
vertex -4.864756224520761e-07 -18.284268152972373 20.0
vertex 3.8268401798496647 -19.045475775805343 0.0
vertex 3.8268401798496647 -19.045475775805343 20.0
endloop
endfacet
facet normal -0.5555702138559678 -0.8314696665208443 0.0
outer loop
vertex 3.8268401798496647 -19.045475775805343 20.0
vertex 3.8268401798496647 -19.045475775805343 0.0
vertex 7.071067247461896 -21.213203623730944 0.0
endloop
endfacet
facet normal -0.5555702138559678 -0.8314696665208443 -0.0
outer loop
vertex 3.8268401798496647 -19.045475775805343 20.0
vertex 7.071067247461896 -21.213203623730944 0.0
vertex 7.071067247461896 -21.213203623730944 20.0
endloop
endfacet
facet normal 0.8741573063397751 0.48564296467054757 0.0
outer loop
vertex 49.49747261357852 -77.78174724746188 20.0
vertex 49.49747261357852 -77.78174724746188 0.0
vertex 14.142135247461894 -14.142135999999997 20.0
endloop
endfacet
facet normal 0.8741573063397751 0.48564296467054757 0.0
outer loop
vertex 14.142135247461894 -14.142135999999997 20.0
vertex 49.49747261357852 -77.78174724746188 0.0
vertex 14.142135247461894 -14.142135999999997 0.0
endloop
endfacet
facet normal 0.07669652262556392 -0.997054433928457 -0.0
outer loop
vertex -42.426409128807144 -84.85281261357851 20.0
vertex -42.426409128807144 -84.85281261357851 0.0
vertex 49.49747261357852 -77.78174724746188 20.0
endloop
endfacet
facet normal 0.07669652262556392 -0.997054433928457 0.0
outer loop
vertex 49.49747261357852 -77.78174724746188 20.0
vertex -42.426409128807144 -84.85281261357851 0.0
vertex 49.49747261357852 -77.78174724746188 0.0
endloop
endfacet
facet normal -0.928476660782658 0.37139067882672405 0.0
outer loop
vertex -14.142135999999997 -14.142135247461894 20.0
vertex -14.142135999999997 -14.142135247461894 0.0
vertex -42.426409128807144 -84.85281261357851 20.0
endloop
endfacet
facet normal -0.928476660782658 0.37139067882672405 0.0
outer loop
vertex -42.426409128807144 -84.85281261357851 20.0
vertex -14.142135999999997 -14.142135247461894 0.0
vertex -42.426409128807144 -84.85281261357851 0.0
endloop
endfacet
facet normal 2.6606240488558086e-08 1.0000000266062392 0.0
outer loop
vertex 14.142135247461894 -14.142135999999997 20.0
vertex 14.142135247461894 -14.142135999999997 0.0
vertex -14.142135999999997 -14.142135247461894 20.0
endloop
endfacet
facet normal 2.6606240488558086e-08 1.0000000266062392 -0.0
outer loop
vertex -14.142135999999997 -14.142135247461894 20.0
vertex 14.142135247461894 -14.142135999999997 0.0
vertex -14.142135999999997 -14.142135247461894 0.0
endloop
endfacet
endsolid CATIA STL