solid CATIA STL
facet normal -0.707 -0.707 0.0
outer loop
vertex 0.0 20.0 -20.0
vertex 20.0 0.0 -20.0
vertex 10.28762 9.712376 -7.024776
endloop
endfacet
facet normal -0.707 -0.707 0.0
outer loop
vertex 0.0 20.0 -20.0
vertex 10.28762 9.712376 -7.024776
vertex 8.509172 11.49083 -6.414081
endloop
endfacet
facet normal -0.707 -0.707 0.0
outer loop
vertex 0.0 20.0 -20.0
vertex 8.509172 11.49083 -6.414081
vertex 7.184902 12.8151 -4.627648
endloop
endfacet
facet normal -0.707 -0.707 0.0
outer loop
vertex 0.0 20.0 -20.0
vertex 7.184902 12.8151 -4.627648
vertex 0.0 20.0 20.0
endloop
endfacet
facet normal -0.707 -0.707 0.0
outer loop
vertex 20.0 0.0 20.0
vertex 0.0 20.0 20.0
vertex 10.12077 9.879229 2.97244
endloop
endfacet
facet normal -0.707 -0.707 0.0
outer loop
vertex 20.0 0.0 20.0
vertex 10.12077 9.879229 2.97244
vertex 11.89922 8.100777 2.361745
endloop
endfacet
facet normal -0.707 -0.707 -0.0
outer loop
vertex 20.0 0.0 20.0
vertex 11.89922 8.100777 2.361745
vertex 13.22349 6.776506 0.5753125
endloop
endfacet
facet normal -0.707 -0.707 0.0
outer loop
vertex 20.0 0.0 20.0
vertex 13.22349 6.776506 0.5753125
vertex 13.73875 6.261252 -1.908185
endloop
endfacet
facet normal -0.707 -0.707 0.0
outer loop
vertex 20.0 0.0 20.0
vertex 13.73875 6.261252 -1.908185
vertex 13.30692 6.693079 -4.423295
endloop
endfacet
facet normal -0.707 -0.707 -0.0
outer loop
vertex 20.0 0.0 -20.0
vertex 20.0 0.0 20.0
vertex 13.30692 6.693079 -4.423295
endloop
endfacet
facet normal -0.707 -0.707 0.0
outer loop
vertex 20.0 0.0 -20.0
vertex 13.30692 6.693079 -4.423295
vertex 12.04372 7.956278 -6.296097
endloop
endfacet
facet normal -0.707 -0.707 0.0
outer loop
vertex 20.0 0.0 -20.0
vertex 12.04372 7.956278 -6.296097
vertex 10.28762 9.712376 -7.024776
endloop
endfacet
facet normal -0.707 -0.707 -0.0
outer loop
vertex 0.0 20.0 20.0
vertex 7.184902 12.8151 -4.627648
vertex 6.669648 13.33035 -2.14415
endloop
endfacet
facet normal -0.707 -0.707 0.0
outer loop
vertex 0.0 20.0 20.0
vertex 6.669648 13.33035 -2.14415
vertex 7.101475 12.89853 0.3709601
endloop
endfacet
facet normal -0.707 -0.707 0.0
outer loop
vertex 0.0 20.0 20.0
vertex 7.101475 12.89853 0.3709601
vertex 8.364674 11.63533 2.243762
endloop
endfacet
facet normal -0.707 -0.707 0.0
outer loop
vertex 0.0 20.0 20.0
vertex 8.364674 11.63533 2.243762
vertex 10.12077 9.879229 2.97244
endloop
endfacet
facet normal 0.488 -0.488 0.724
outer loop
vertex 8.509172 11.49083 -6.414081
vertex 14.25597 19.88617 -4.627648
vertex 7.184902 12.8151 -4.627648
endloop
endfacet
facet normal 0.679 -0.679 0.282
outer loop
vertex 7.184902 12.8151 -4.627648
vertex 14.25597 19.88617 -4.627648
vertex 13.74072 20.40142 -2.14415
endloop
endfacet
facet normal 0.679 -0.679 0.282
outer loop
vertex 7.184902 12.8151 -4.627648
vertex 13.74072 20.40142 -2.14415
vertex 6.669648 13.33035 -2.14415
endloop
endfacet
facet normal 0.687 -0.687 -0.236
outer loop
vertex 6.669648 13.33035 -2.14415
vertex 13.74072 20.40142 -2.14415
vertex 14.17254 19.96959 0.3709601
endloop
endfacet
facet normal 0.687 -0.687 -0.236
outer loop
vertex 6.669648 13.33035 -2.14415
vertex 14.17254 19.96959 0.3709601
vertex 7.101475 12.89853 0.3709601
endloop
endfacet
facet normal 0.488 -0.488 0.724
outer loop
vertex 14.25597 19.88617 -4.627648
vertex 8.509172 11.49083 -6.414081
vertex 15.58024 18.5619 -6.414081
endloop
endfacet
facet normal 0.167 -0.167 0.972
outer loop
vertex 15.58024 18.5619 -6.414081
vertex 8.509172 11.49083 -6.414081
vertex 10.28762 9.712376 -7.024776
endloop
endfacet
facet normal 0.167 -0.167 0.972
outer loop
vertex 15.58024 18.5619 -6.414081
vertex 10.28762 9.712376 -7.024776
vertex 17.35869 16.78344 -7.024776
endloop
endfacet
facet normal -0.199 0.199 0.96
outer loop
vertex 17.35869 16.78344 -7.024776
vertex 10.28762 9.712376 -7.024776
vertex 12.04372 7.956278 -6.296097
endloop
endfacet
facet normal -0.199 0.199 0.96
outer loop
vertex 17.35869 16.78344 -7.024776
vertex 12.04372 7.956278 -6.296097
vertex 19.11479 15.02735 -6.296097
endloop
endfacet
facet normal -0.512 0.512 0.69
outer loop
vertex 19.11479 15.02735 -6.296097
vertex 12.04372 7.956278 -6.296097
vertex 13.30692 6.693079 -4.423295
endloop
endfacet
facet normal -0.512 0.512 0.69
outer loop
vertex 19.11479 15.02735 -6.296097
vertex 13.30692 6.693079 -4.423295
vertex 20.37799 13.76415 -4.423295
endloop
endfacet
facet normal -0.488 0.488 -0.724
outer loop
vertex 11.89922 8.100777 2.361745
vertex 20.29456 13.84757 0.5753125
vertex 13.22349 6.776506 0.5753125
endloop
endfacet
facet normal -0.679 0.679 -0.282
outer loop
vertex 13.22349 6.776506 0.5753125
vertex 20.29456 13.84757 0.5753125
vertex 20.80981 13.33232 -1.908185
endloop
endfacet
facet normal -0.679 0.679 -0.282
outer loop
vertex 13.22349 6.776506 0.5753125
vertex 20.80981 13.33232 -1.908185
vertex 13.73875 6.261252 -1.908185
endloop
endfacet
facet normal -0.687 0.687 0.236
outer loop
vertex 13.73875 6.261252 -1.908185
vertex 20.80981 13.33232 -1.908185
vertex 20.37799 13.76415 -4.423295
endloop
endfacet
facet normal -0.687 0.687 0.236
outer loop
vertex 13.73875 6.261252 -1.908185
vertex 20.37799 13.76415 -4.423295
vertex 13.30692 6.693079 -4.423295
endloop
endfacet
facet normal -0.488 0.488 -0.724
outer loop
vertex 20.29456 13.84757 0.5753125
vertex 11.89922 8.100777 2.361745
vertex 18.97029 15.17184 2.361745
endloop
endfacet
facet normal -0.167 0.167 -0.972
outer loop
vertex 18.97029 15.17184 2.361745
vertex 11.89922 8.100777 2.361745
vertex 10.12077 9.879229 2.97244
endloop
endfacet
facet normal -0.167 0.167 -0.972
outer loop
vertex 18.97029 15.17184 2.361745
vertex 10.12077 9.879229 2.97244
vertex 17.19184 16.9503 2.97244
endloop
endfacet
facet normal 0.199 -0.199 -0.96
outer loop
vertex 17.19184 16.9503 2.97244
vertex 10.12077 9.879229 2.97244
vertex 8.364674 11.63533 2.243762
endloop
endfacet
facet normal 0.199 -0.199 -0.96
outer loop
vertex 17.19184 16.9503 2.97244
vertex 8.364674 11.63533 2.243762
vertex 15.43574 18.70639 2.243762
endloop
endfacet
facet normal 0.512 -0.512 -0.69
outer loop
vertex 15.43574 18.70639 2.243762
vertex 8.364674 11.63533 2.243762
vertex 7.101475 12.89853 0.3709601
endloop
endfacet
facet normal 0.512 -0.512 -0.69
outer loop
vertex 15.43574 18.70639 2.243762
vertex 7.101475 12.89853 0.3709601
vertex 14.17254 19.96959 0.3709601
endloop
endfacet
facet normal -0.707 -0.707 0.0
outer loop
vertex 17.35869 16.78344 -7.024776
vertex 19.11479 15.02735 -6.296097
vertex 15.58024 18.5619 -6.414081
endloop
endfacet
facet normal -0.707 -0.707 0.0
outer loop
vertex 17.19184 16.9503 2.97244
vertex 15.43574 18.70639 2.243762
vertex 18.97029 15.17184 2.361745
endloop
endfacet
facet normal -0.707 -0.707 0.0
outer loop
vertex 18.97029 15.17184 2.361745
vertex 15.43574 18.70639 2.243762
vertex 14.17254 19.96959 0.3709601
endloop
endfacet
facet normal -0.707 -0.707 0.0
outer loop
vertex 18.97029 15.17184 2.361745
vertex 14.17254 19.96959 0.3709601
vertex 20.29456 13.84757 0.5753125
endloop
endfacet
facet normal -0.707 -0.707 0.0
outer loop
vertex 20.29456 13.84757 0.5753125
vertex 14.17254 19.96959 0.3709601
vertex 13.74072 20.40142 -2.14415
endloop
endfacet
facet normal -0.707 -0.707 0.0
outer loop
vertex 20.29456 13.84757 0.5753125
vertex 13.74072 20.40142 -2.14415
vertex 20.80981 13.33232 -1.908185
endloop
endfacet
facet normal -0.707 -0.707 0.0
outer loop
vertex 20.80981 13.33232 -1.908185
vertex 13.74072 20.40142 -2.14415
vertex 14.25597 19.88617 -4.627648
endloop
endfacet
facet normal -0.707 -0.707 -0.0
outer loop
vertex 20.80981 13.33232 -1.908185
vertex 14.25597 19.88617 -4.627648
vertex 20.37799 13.76415 -4.423295
endloop
endfacet
facet normal -0.707 -0.707 -0.0
outer loop
vertex 20.37799 13.76415 -4.423295
vertex 14.25597 19.88617 -4.627648
vertex 15.58024 18.5619 -6.414081
endloop
endfacet
facet normal -0.707 -0.707 0.0
outer loop
vertex 20.37799 13.76415 -4.423295
vertex 15.58024 18.5619 -6.414081
vertex 19.11479 15.02735 -6.296097
endloop
endfacet
facet normal 0.0 0.0 1.0
outer loop
vertex 14.2265 20.0 20.0
vertex 20.0 0.0 20.0
vertex 25.7735 20.0 20.0
endloop
endfacet
facet normal 0.0 0.0 1.0
outer loop
vertex 25.7735 40.0 20.0
vertex 20.0 50.0 20.0
vertex 14.2265 40.0 20.0
endloop
endfacet
facet normal 0.0 0.0 1.0
outer loop
vertex 0.0 20.0 20.0
vertex 20.0 0.0 20.0
vertex 14.2265 20.0 20.0
endloop
endfacet
facet normal 0.0 0.0 1.0
outer loop
vertex 0.0 20.0 20.0
vertex 14.2265 20.0 20.0
vertex 8.452994 30.0 20.0
endloop
endfacet
facet normal 0.0 0.0 1.0
outer loop
vertex 0.0 20.0 20.0
vertex 8.452994 30.0 20.0
vertex 14.2265 40.0 20.0
endloop
endfacet
facet normal 0.0 0.0 1.0
outer loop
vertex 0.0 20.0 20.0
vertex 14.2265 40.0 20.0
vertex 20.0 50.0 20.0
endloop
endfacet
facet normal 0.0 0.0 1.0
outer loop
vertex 0.0 20.0 20.0
vertex 20.0 50.0 20.0
vertex 16.17317 50.7612 20.0
endloop
endfacet
facet normal 0.0 0.0 1.0
outer loop
vertex 0.0 20.0 20.0
vertex 16.17317 50.7612 20.0
vertex 12.92893 52.92893 20.0
endloop
endfacet
facet normal 0.0 0.0 1.0
outer loop
vertex 0.0 20.0 20.0
vertex 12.92893 52.92893 20.0
vertex 10.7612 56.17316 20.0
endloop
endfacet
facet normal 0.0 0.0 1.0
outer loop
vertex 0.0 20.0 20.0
vertex 10.7612 56.17316 20.0
vertex 10.0 60.0 20.0
endloop
endfacet
facet normal 0.0 0.0 1.0
outer loop
vertex 0.0 20.0 20.0
vertex 10.0 60.0 20.0
vertex 10.7612 63.82684 20.0
endloop
endfacet
facet normal -0.0 0.0 1.0
outer loop
vertex 40.0 80.0 20.0
vertex 10.0 80.0 20.0
vertex 0.0 70.0 20.0
endloop
endfacet
facet normal 0.0 0.0 1.0
outer loop
vertex 40.0 80.0 20.0
vertex 0.0 70.0 20.0
vertex 20.0 70.0 20.0
endloop
endfacet
facet normal -0.0 0.0 1.0
outer loop
vertex 40.0 80.0 20.0
vertex 20.0 70.0 20.0
vertex 23.82683 69.23879 20.0
endloop
endfacet
facet normal -0.0 0.0 1.0
outer loop
vertex 40.0 80.0 20.0
vertex 23.82683 69.23879 20.0
vertex 40.0 60.0 20.0
endloop
endfacet
facet normal 0.0 0.0 1.0
outer loop
vertex 70.0 20.0 20.0
vertex 40.0 60.0 20.0
vertex 30.0 60.0 20.0
endloop
endfacet
facet normal 0.0 0.0 1.0
outer loop
vertex 70.0 20.0 20.0
vertex 30.0 60.0 20.0
vertex 29.2388 56.17316 20.0
endloop
endfacet
facet normal 0.0 0.0 1.0
outer loop
vertex 70.0 20.0 20.0
vertex 29.2388 56.17316 20.0
vertex 27.07107 52.92893 20.0
endloop
endfacet
facet normal 0.0 0.0 1.0
outer loop
vertex 70.0 20.0 20.0
vertex 27.07107 52.92893 20.0
vertex 23.82683 50.7612 20.0
endloop
endfacet
facet normal 0.0 0.0 1.0
outer loop
vertex 70.0 20.0 20.0
vertex 23.82683 50.7612 20.0
vertex 20.0 50.0 20.0
endloop
endfacet
facet normal 0.0 0.0 1.0
outer loop
vertex 70.0 20.0 20.0
vertex 20.0 50.0 20.0
vertex 25.7735 40.0 20.0
endloop
endfacet
facet normal 0.0 0.0 1.0
outer loop
vertex 70.0 20.0 20.0
vertex 25.7735 40.0 20.0
vertex 31.547 30.0 20.0
endloop
endfacet
facet normal 0.0 0.0 1.0
outer loop
vertex 70.0 20.0 20.0
vertex 31.547 30.0 20.0
vertex 25.7735 20.0 20.0
endloop
endfacet
facet normal -0.0 0.0 1.0
outer loop
vertex 70.0 20.0 20.0
vertex 25.7735 20.0 20.0
vertex 20.0 0.0 20.0
endloop
endfacet
facet normal 0.0 0.0 1.0
outer loop
vertex 70.0 20.0 20.0
vertex 20.0 0.0 20.0
vertex 58.34016 13.89104 20.0
endloop
endfacet
facet normal 0.0 0.0 1.0
outer loop
vertex 70.0 20.0 20.0
vertex 58.34016 13.89104 20.0
vertex 60.58665 14.49299 20.0
endloop
endfacet
facet normal 0.0 0.0 1.0
outer loop
vertex 70.0 20.0 20.0
vertex 60.58665 14.49299 20.0
vertex 80.58665 14.49299 20.0
endloop
endfacet
facet normal 0.0 0.0 1.0
outer loop
vertex 70.0 20.0 20.0
vertex 80.58665 14.49299 20.0
vertex 100.0 20.0 20.0
endloop
endfacet
facet normal 0.0 0.0 1.0
outer loop
vertex 0.0 70.0 20.0
vertex 0.0 20.0 20.0
vertex 10.7612 63.82684 20.0
endloop
endfacet
facet normal 0.0 0.0 1.0
outer loop
vertex 0.0 70.0 20.0
vertex 10.7612 63.82684 20.0
vertex 12.92893 67.07107 20.0
endloop
endfacet
facet normal 0.0 0.0 1.0
outer loop
vertex 0.0 70.0 20.0
vertex 12.92893 67.07107 20.0
vertex 16.17317 69.23879 20.0
endloop
endfacet
facet normal 0.0 0.0 1.0
outer loop
vertex 0.0 70.0 20.0
vertex 16.17317 69.23879 20.0
vertex 20.0 70.0 20.0
endloop
endfacet
facet normal 0.0 0.0 1.0
outer loop
vertex 40.0 60.0 20.0
vertex 23.82683 69.23879 20.0
vertex 27.07107 67.07107 20.0
endloop
endfacet
facet normal 0.0 0.0 1.0
outer loop
vertex 40.0 60.0 20.0
vertex 27.07107 67.07107 20.0
vertex 29.2388 63.82684 20.0
endloop
endfacet
facet normal 0.0 0.0 1.0
outer loop
vertex 40.0 60.0 20.0
vertex 29.2388 63.82684 20.0
vertex 30.0 60.0 20.0
endloop
endfacet
facet normal 0.0 0.0 1.0
outer loop
vertex 20.0 0.0 20.0
vertex 60.58665 5.507014 20.0
vertex 58.34016 6.10896 20.0
endloop
endfacet
facet normal 0.0 0.0 1.0
outer loop
vertex 20.0 0.0 20.0
vertex 58.34016 6.10896 20.0
vertex 56.69561 7.753507 20.0
endloop
endfacet
facet normal 0.0 0.0 1.0
outer loop
vertex 20.0 0.0 20.0
vertex 56.69561 7.753507 20.0
vertex 56.09367 10.0 20.0
endloop
endfacet
facet normal 0.0 0.0 1.0
outer loop
vertex 20.0 0.0 20.0
vertex 56.09367 10.0 20.0
vertex 56.69561 12.24649 20.0
endloop
endfacet
facet normal 0.0 0.0 1.0
outer loop
vertex 20.0 0.0 20.0
vertex 56.69561 12.24649 20.0
vertex 58.34016 13.89104 20.0
endloop
endfacet
facet normal 0.0 0.0 1.0
outer loop
vertex 100.0 10.0 20.0
vertex 100.0 20.0 20.0
vertex 80.58665 14.49299 20.0
endloop
endfacet
facet normal 0.0 0.0 1.0
outer loop
vertex 100.0 10.0 20.0
vertex 80.58665 14.49299 20.0
vertex 82.83315 13.89104 20.0
endloop
endfacet
facet normal 0.0 0.0 1.0
outer loop
vertex 100.0 10.0 20.0
vertex 82.83315 13.89104 20.0
vertex 84.47769 12.24649 20.0
endloop
endfacet
facet normal 0.0 0.0 1.0
outer loop
vertex 100.0 10.0 20.0
vertex 84.47769 12.24649 20.0
vertex 85.07964 10.0 20.0
endloop
endfacet
facet normal -0.0 0.0 1.0
outer loop
vertex 100.0 10.0 20.0
vertex 85.07964 10.0 20.0
vertex 84.47769 7.753507 20.0
endloop
endfacet
facet normal -0.0 0.0 1.0
outer loop
vertex 100.0 10.0 20.0
vertex 84.47769 7.753507 20.0
vertex 99.23879 6.173166 20.0
endloop
endfacet
facet normal 0.0 0.0 1.0
outer loop
vertex 93.82684 0.7612047 20.0
vertex 97.07107 2.928932 20.0
vertex 90.0 0.0 20.0
endloop
endfacet
facet normal 0.0 0.0 1.0
outer loop
vertex 90.0 0.0 20.0
vertex 97.07107 2.928932 20.0
vertex 80.58665 5.507014 20.0
endloop
endfacet
facet normal 0.0 0.0 1.0
outer loop
vertex 90.0 0.0 20.0
vertex 80.58665 5.507014 20.0
vertex 20.0 0.0 20.0
endloop
endfacet
facet normal 0.0 0.0 1.0
outer loop
vertex 20.0 0.0 20.0
vertex 80.58665 5.507014 20.0
vertex 60.58665 5.507014 20.0
endloop
endfacet
facet normal 0.0 0.0 1.0
outer loop
vertex 80.58665 5.507014 20.0
vertex 97.07107 2.928932 20.0
vertex 82.83315 6.10896 20.0
endloop
endfacet
facet normal -0.0 0.0 1.0
outer loop
vertex 82.83315 6.10896 20.0
vertex 97.07107 2.928932 20.0
vertex 99.23879 6.173166 20.0
endloop
endfacet
facet normal 0.0 0.0 1.0
outer loop
vertex 82.83315 6.10896 20.0
vertex 99.23879 6.173166 20.0
vertex 84.47769 7.753507 20.0
endloop
endfacet
facet normal 0.0 0.0 -1.0
outer loop
vertex 25.7735 20.0 -20.0
vertex 20.0 0.0 -20.0
vertex 14.2265 20.0 -20.0
endloop
endfacet
facet normal 0.0 0.0 -1.0
outer loop
vertex 14.2265 40.0 -20.0
vertex 20.0 50.0 -20.0
vertex 25.7735 40.0 -20.0
endloop
endfacet
facet normal 0.0 0.0 -1.0
outer loop
vertex 0.0 20.0 -20.0
vertex 10.7612 63.82684 -20.0
vertex 10.0 60.0 -20.0
endloop
endfacet
facet normal 0.0 0.0 -1.0
outer loop
vertex 0.0 20.0 -20.0
vertex 10.0 60.0 -20.0
vertex 10.7612 56.17316 -20.0
endloop
endfacet
facet normal 0.0 0.0 -1.0
outer loop
vertex 0.0 20.0 -20.0
vertex 10.7612 56.17316 -20.0
vertex 12.92893 52.92893 -20.0
endloop
endfacet
facet normal 0.0 0.0 -1.0
outer loop
vertex 0.0 20.0 -20.0
vertex 12.92893 52.92893 -20.0
vertex 16.17317 50.7612 -20.0
endloop
endfacet
facet normal 0.0 0.0 -1.0
outer loop
vertex 0.0 20.0 -20.0
vertex 16.17317 50.7612 -20.0
vertex 20.0 50.0 -20.0
endloop
endfacet
facet normal 0.0 0.0 -1.0
outer loop
vertex 0.0 20.0 -20.0
vertex 20.0 50.0 -20.0
vertex 14.2265 40.0 -20.0
endloop
endfacet
facet normal 0.0 0.0 -1.0
outer loop
vertex 0.0 20.0 -20.0
vertex 14.2265 40.0 -20.0
vertex 8.452994 30.0 -20.0
endloop
endfacet
facet normal 0.0 0.0 -1.0
outer loop
vertex 0.0 20.0 -20.0
vertex 8.452994 30.0 -20.0
vertex 14.2265 20.0 -20.0
endloop
endfacet
facet normal 0.0 -0.0 -1.0
outer loop
vertex 0.0 20.0 -20.0
vertex 14.2265 20.0 -20.0
vertex 20.0 0.0 -20.0
endloop
endfacet
facet normal 0.0 0.0 -1.0
outer loop
vertex 40.0 80.0 -20.0
vertex 40.0 60.0 -20.0
vertex 23.82683 69.23879 -20.0
endloop
endfacet
facet normal 0.0 0.0 -1.0
outer loop
vertex 40.0 80.0 -20.0
vertex 23.82683 69.23879 -20.0
vertex 20.0 70.0 -20.0
endloop
endfacet
facet normal 0.0 0.0 -1.0
outer loop
vertex 40.0 80.0 -20.0
vertex 20.0 70.0 -20.0
vertex 0.0 70.0 -20.0
endloop
endfacet
facet normal 0.0 0.0 -1.0
outer loop
vertex 40.0 80.0 -20.0
vertex 0.0 70.0 -20.0
vertex 10.0 80.0 -20.0
endloop
endfacet
facet normal -0.0 0.0 -1.0
outer loop
vertex 70.0 20.0 -20.0
vertex 100.0 20.0 -20.0
vertex 80.58665 14.49299 -20.0
endloop
endfacet
facet normal 0.0 0.0 -1.0
outer loop
vertex 70.0 20.0 -20.0
vertex 80.58665 14.49299 -20.0
vertex 60.58665 14.49299 -20.0
endloop
endfacet
facet normal -0.0 0.0 -1.0
outer loop
vertex 70.0 20.0 -20.0
vertex 60.58665 14.49299 -20.0
vertex 58.34016 13.89104 -20.0
endloop
endfacet
facet normal -0.0 0.0 -1.0
outer loop
vertex 70.0 20.0 -20.0
vertex 58.34016 13.89104 -20.0
vertex 20.0 0.0 -20.0
endloop
endfacet
facet normal 0.0 0.0 -1.0
outer loop
vertex 70.0 20.0 -20.0
vertex 20.0 0.0 -20.0
vertex 25.7735 20.0 -20.0
endloop
endfacet
facet normal 0.0 0.0 -1.0
outer loop
vertex 70.0 20.0 -20.0
vertex 25.7735 20.0 -20.0
vertex 31.547 30.0 -20.0
endloop
endfacet
facet normal 0.0 0.0 -1.0
outer loop
vertex 70.0 20.0 -20.0
vertex 31.547 30.0 -20.0
vertex 25.7735 40.0 -20.0
endloop
endfacet
facet normal 0.0 0.0 -1.0
outer loop
vertex 70.0 20.0 -20.0
vertex 25.7735 40.0 -20.0
vertex 20.0 50.0 -20.0
endloop
endfacet
facet normal 0.0 0.0 -1.0
outer loop
vertex 70.0 20.0 -20.0
vertex 20.0 50.0 -20.0
vertex 23.82683 50.7612 -20.0
endloop
endfacet
facet normal 0.0 0.0 -1.0
outer loop
vertex 70.0 20.0 -20.0
vertex 23.82683 50.7612 -20.0
vertex 27.07107 52.92893 -20.0
endloop
endfacet
facet normal 0.0 0.0 -1.0
outer loop
vertex 70.0 20.0 -20.0
vertex 27.07107 52.92893 -20.0
vertex 29.2388 56.17316 -20.0
endloop
endfacet
facet normal 0.0 0.0 -1.0
outer loop
vertex 70.0 20.0 -20.0
vertex 29.2388 56.17316 -20.0
vertex 30.0 60.0 -20.0
endloop
endfacet
facet normal 0.0 0.0 -1.0
outer loop
vertex 70.0 20.0 -20.0
vertex 30.0 60.0 -20.0
vertex 40.0 60.0 -20.0
endloop
endfacet
facet normal -0.0 0.0 -1.0
outer loop
vertex 0.0 70.0 -20.0
vertex 20.0 70.0 -20.0
vertex 16.17317 69.23879 -20.0
endloop
endfacet
facet normal -0.0 0.0 -1.0
outer loop
vertex 0.0 70.0 -20.0
vertex 16.17317 69.23879 -20.0
vertex 12.92893 67.07107 -20.0
endloop
endfacet
facet normal -0.0 0.0 -1.0
outer loop
vertex 0.0 70.0 -20.0
vertex 12.92893 67.07107 -20.0
vertex 10.7612 63.82684 -20.0
endloop
endfacet
facet normal -0.0 0.0 -1.0
outer loop
vertex 0.0 70.0 -20.0
vertex 10.7612 63.82684 -20.0
vertex 0.0 20.0 -20.0
endloop
endfacet
facet normal 0.0 0.0 -1.0
outer loop
vertex 40.0 60.0 -20.0
vertex 30.0 60.0 -20.0
vertex 29.2388 63.82684 -20.0
endloop
endfacet
facet normal 0.0 0.0 -1.0
outer loop
vertex 40.0 60.0 -20.0
vertex 29.2388 63.82684 -20.0
vertex 27.07107 67.07107 -20.0
endloop
endfacet
facet normal 0.0 0.0 -1.0
outer loop
vertex 40.0 60.0 -20.0
vertex 27.07107 67.07107 -20.0
vertex 23.82683 69.23879 -20.0
endloop
endfacet
facet normal 0.0 0.0 -1.0
outer loop
vertex 20.0 0.0 -20.0
vertex 58.34016 13.89104 -20.0
vertex 56.69561 12.24649 -20.0
endloop
endfacet
facet normal 0.0 0.0 -1.0
outer loop
vertex 20.0 0.0 -20.0
vertex 56.69561 12.24649 -20.0
vertex 56.09367 10.0 -20.0
endloop
endfacet
facet normal 0.0 0.0 -1.0
outer loop
vertex 20.0 0.0 -20.0
vertex 56.09367 10.0 -20.0
vertex 56.69561 7.753507 -20.0
endloop
endfacet
facet normal 0.0 0.0 -1.0
outer loop
vertex 20.0 0.0 -20.0
vertex 56.69561 7.753507 -20.0
vertex 58.34016 6.10896 -20.0
endloop
endfacet
facet normal 0.0 0.0 -1.0
outer loop
vertex 20.0 0.0 -20.0
vertex 58.34016 6.10896 -20.0
vertex 60.58665 5.507014 -20.0
endloop
endfacet
facet normal 0.0 0.0 -1.0
outer loop
vertex 100.0 10.0 -20.0
vertex 99.23879 6.173166 -20.0
vertex 84.47769 7.753507 -20.0
endloop
endfacet
facet normal 0.0 0.0 -1.0
outer loop
vertex 100.0 10.0 -20.0
vertex 84.47769 7.753507 -20.0
vertex 85.07964 10.0 -20.0
endloop
endfacet
facet normal 0.0 0.0 -1.0
outer loop
vertex 100.0 10.0 -20.0
vertex 85.07964 10.0 -20.0
vertex 84.47769 12.24649 -20.0
endloop
endfacet
facet normal 0.0 0.0 -1.0
outer loop
vertex 100.0 10.0 -20.0
vertex 84.47769 12.24649 -20.0
vertex 82.83315 13.89104 -20.0
endloop
endfacet
facet normal 0.0 0.0 -1.0
outer loop
vertex 100.0 10.0 -20.0
vertex 82.83315 13.89104 -20.0
vertex 80.58665 14.49299 -20.0
endloop
endfacet
facet normal 0.0 0.0 -1.0
outer loop
vertex 100.0 10.0 -20.0
vertex 80.58665 14.49299 -20.0
vertex 100.0 20.0 -20.0
endloop
endfacet
facet normal 0.0 0.0 -1.0
outer loop
vertex 93.82684 0.7612047 -20.0
vertex 90.0 0.0 -20.0
vertex 97.07107 2.928932 -20.0
endloop
endfacet
facet normal -0.0 0.0 -1.0
outer loop
vertex 97.07107 2.928932 -20.0
vertex 90.0 0.0 -20.0
vertex 80.58665 5.507014 -20.0
endloop
endfacet
facet normal 0.0 0.0 -1.0
outer loop
vertex 90.0 0.0 -20.0
vertex 20.0 0.0 -20.0
vertex 80.58665 5.507014 -20.0
endloop
endfacet
facet normal -0.0 0.0 -1.0
outer loop
vertex 80.58665 5.507014 -20.0
vertex 20.0 0.0 -20.0
vertex 60.58665 5.507014 -20.0
endloop
endfacet
facet normal -0.0 0.0 -1.0
outer loop
vertex 84.47769 7.753507 -20.0
vertex 99.23879 6.173166 -20.0
vertex 82.83315 6.10896 -20.0
endloop
endfacet
facet normal 0.0 0.0 -1.0
outer loop
vertex 82.83315 6.10896 -20.0
vertex 99.23879 6.173166 -20.0
vertex 97.07107 2.928932 -20.0
endloop
endfacet
facet normal 0.0 0.0 -1.0
outer loop
vertex 82.83315 6.10896 -20.0
vertex 97.07107 2.928932 -20.0
vertex 80.58665 5.507014 -20.0
endloop
endfacet
facet normal 0.0 -1.0 0.0
outer loop
vertex 90.0 0.0 20.0
vertex 20.0 0.0 20.0
vertex 90.0 0.0 -20.0
endloop
endfacet
facet normal 0.0 -1.0 0.0
outer loop
vertex 90.0 0.0 -20.0
vertex 20.0 0.0 20.0
vertex 20.0 0.0 -20.0
endloop
endfacet
facet normal -1.0 -0.0 0.0
outer loop
vertex 0.0 20.0 20.0
vertex 0.0 70.0 20.0
vertex 0.0 20.0 -20.0
endloop
endfacet
facet normal -1.0 0.0 0.0
outer loop
vertex 0.0 20.0 -20.0
vertex 0.0 70.0 20.0
vertex 0.0 70.0 -20.0
endloop
endfacet
facet normal 0.0 1.0 0.0
outer loop
vertex 20.0 80.0 1.776357e-15
vertex 30.0 80.0 -10.0
vertex 10.0 80.0 -20.0
endloop
endfacet
facet normal 0.0 1.0 0.0
outer loop
vertex 10.0 80.0 20.0
vertex 40.0 80.0 20.0
vertex 30.0 80.0 10.0
endloop
endfacet
facet normal 0.0 1.0 0.0
outer loop
vertex 10.0 80.0 20.0
vertex 30.0 80.0 10.0
vertex 20.0 80.0 1.776357e-15
endloop
endfacet
facet normal 0.0 1.0 0.0
outer loop
vertex 10.0 80.0 20.0
vertex 20.0 80.0 1.776357e-15
vertex 10.0 80.0 -20.0
endloop
endfacet
facet normal 0.0 1.0 0.0
outer loop
vertex 10.0 80.0 -20.0
vertex 30.0 80.0 -10.0
vertex 40.0 80.0 -20.0
endloop
endfacet
facet normal 0.0 1.0 0.0
outer loop
vertex 40.0 80.0 -20.0
vertex 30.0 80.0 -10.0
vertex 30.0 80.0 10.0
endloop
endfacet
facet normal -0.0 1.0 0.0
outer loop
vertex 40.0 80.0 -20.0
vertex 30.0 80.0 10.0
vertex 40.0 80.0 20.0
endloop
endfacet
facet normal 0.0 1.0 -0.0
outer loop
vertex 30.0 70.0 10.0
vertex 30.0 70.0 -10.0
vertex 20.0 70.0 3.552714e-15
endloop
endfacet
facet normal 0.707 0.0 -0.707
outer loop
vertex 20.0 70.0 3.552714e-15
vertex 20.0 80.0 1.776357e-15
vertex 30.0 70.0 10.0
endloop
endfacet
facet normal 0.707 0.0 -0.707
outer loop
vertex 30.0 70.0 10.0
vertex 20.0 80.0 1.776357e-15
vertex 30.0 80.0 10.0
endloop
endfacet
facet normal 0.707 0.0 0.707
outer loop
vertex 30.0 70.0 -10.0
vertex 30.0 80.0 -10.0
vertex 20.0 70.0 3.552714e-15
endloop
endfacet
facet normal 0.707 0.0 0.707
outer loop
vertex 20.0 70.0 3.552714e-15
vertex 30.0 80.0 -10.0
vertex 20.0 80.0 1.776357e-15
endloop
endfacet
facet normal -1.0 -0.0 0.0
outer loop
vertex 30.0 70.0 10.0
vertex 30.0 80.0 10.0
vertex 30.0 70.0 -10.0
endloop
endfacet
facet normal -1.0 0.0 0.0
outer loop
vertex 30.0 70.0 -10.0
vertex 30.0 80.0 10.0
vertex 30.0 80.0 -10.0
endloop
endfacet
facet normal 0.195 -0.981 0.0
outer loop
vertex 20.0 70.0 -20.0
vertex 16.17317 69.23879 20.0
vertex 16.17317 69.23879 -20.0
endloop
endfacet
facet normal 0.556 -0.831 0.0
outer loop
vertex 16.17317 69.23879 -20.0
vertex 16.17317 69.23879 20.0
vertex 12.92893 67.07107 20.0
endloop
endfacet
facet normal 0.556 -0.831 0.0
outer loop
vertex 16.17317 69.23879 -20.0
vertex 12.92893 67.07107 20.0
vertex 12.92893 67.07107 -20.0
endloop
endfacet
facet normal 0.831 -0.556 0.0
outer loop
vertex 12.92893 67.07107 -20.0
vertex 12.92893 67.07107 20.0
vertex 10.7612 63.82684 20.0
endloop
endfacet
facet normal 0.831 -0.556 0.0
outer loop
vertex 12.92893 67.07107 -20.0
vertex 10.7612 63.82684 20.0
vertex 10.7612 63.82684 -20.0
endloop
endfacet
facet normal 0.981 -0.195 0.0
outer loop
vertex 10.7612 63.82684 -20.0
vertex 10.7612 63.82684 20.0
vertex 10.0 60.0 20.0
endloop
endfacet
facet normal 0.981 -0.195 0.0
outer loop
vertex 10.7612 63.82684 -20.0
vertex 10.0 60.0 20.0
vertex 10.0 60.0 -20.0
endloop
endfacet
facet normal 0.195 -0.981 0.0
outer loop
vertex 16.17317 69.23879 20.0
vertex 20.0 70.0 -20.0
vertex 20.0 70.0 20.0
endloop
endfacet
facet normal -0.195 -0.981 -0.0
outer loop
vertex 20.0 70.0 20.0
vertex 20.0 70.0 -20.0
vertex 23.82683 69.23879 -20.0
endloop
endfacet
facet normal -0.195 -0.981 0.0
outer loop
vertex 20.0 70.0 20.0
vertex 23.82683 69.23879 -20.0
vertex 23.82683 69.23879 20.0
endloop
endfacet
facet normal -0.556 -0.831 -0.0
outer loop
vertex 23.82683 69.23879 20.0
vertex 23.82683 69.23879 -20.0
vertex 27.07107 67.07107 -20.0
endloop
endfacet
facet normal -0.556 -0.831 0.0
outer loop
vertex 23.82683 69.23879 20.0
vertex 27.07107 67.07107 -20.0
vertex 27.07107 67.07107 20.0
endloop
endfacet
facet normal -0.831 -0.556 -0.0
outer loop
vertex 27.07107 67.07107 20.0
vertex 27.07107 67.07107 -20.0
vertex 29.2388 63.82684 -20.0
endloop
endfacet
facet normal -0.831 -0.556 0.0
outer loop
vertex 27.07107 67.07107 20.0
vertex 29.2388 63.82684 -20.0
vertex 29.2388 63.82684 20.0
endloop
endfacet
facet normal -0.981 -0.195 -0.0
outer loop
vertex 29.2388 63.82684 20.0
vertex 29.2388 63.82684 -20.0
vertex 30.0 60.0 -20.0
endloop
endfacet
facet normal -0.981 -0.195 0.0
outer loop
vertex 29.2388 63.82684 20.0
vertex 30.0 60.0 -20.0
vertex 30.0 60.0 20.0
endloop
endfacet
facet normal 1.0 0.0 0.0
outer loop
vertex 100.0 20.0 -20.0
vertex 100.0 20.0 20.0
vertex 100.0 10.0 -20.0
endloop
endfacet
facet normal 1.0 0.0 0.0
outer loop
vertex 100.0 10.0 -20.0
vertex 100.0 20.0 20.0
vertex 100.0 10.0 20.0
endloop
endfacet
facet normal 0.981 -0.195 0.0
outer loop
vertex 100.0 10.0 -20.0
vertex 100.0 10.0 20.0
vertex 99.23879 6.173166 -20.0
endloop
endfacet
facet normal 0.981 -0.195 0.0
outer loop
vertex 99.23879 6.173166 -20.0
vertex 100.0 10.0 20.0
vertex 99.23879 6.173166 20.0
endloop
endfacet
facet normal 0.831 -0.556 0.0
outer loop
vertex 99.23879 6.173166 -20.0
vertex 99.23879 6.173166 20.0
vertex 97.07107 2.928932 -20.0
endloop
endfacet
facet normal 0.831 -0.556 0.0
outer loop
vertex 97.07107 2.928932 -20.0
vertex 99.23879 6.173166 20.0
vertex 97.07107 2.928932 20.0
endloop
endfacet
facet normal 0.556 -0.831 0.0
outer loop
vertex 97.07107 2.928932 -20.0
vertex 97.07107 2.928932 20.0
vertex 93.82684 0.7612047 -20.0
endloop
endfacet
facet normal 0.556 -0.831 0.0
outer loop
vertex 93.82684 0.7612047 -20.0
vertex 97.07107 2.928932 20.0
vertex 93.82684 0.7612047 20.0
endloop
endfacet
facet normal 0.195 -0.981 0.0
outer loop
vertex 93.82684 0.7612047 -20.0
vertex 93.82684 0.7612047 20.0
vertex 90.0 0.0 -20.0
endloop
endfacet
facet normal 0.195 -0.981 0.0
outer loop
vertex 90.0 0.0 -20.0
vertex 93.82684 0.7612047 20.0
vertex 90.0 0.0 20.0
endloop
endfacet
facet normal -0.707 0.707 0.0
outer loop
vertex 10.0 80.0 20.0
vertex 10.0 80.0 -20.0
vertex 0.0 70.0 20.0
endloop
endfacet
facet normal -0.707 0.707 0.0
outer loop
vertex 0.0 70.0 20.0
vertex 10.0 80.0 -20.0
vertex 0.0 70.0 -20.0
endloop
endfacet
facet normal 0.8 0.6 -0.0
outer loop
vertex 70.0 20.0 20.0
vertex 70.0 20.0 -20.0
vertex 59.94328 33.40896 3.826834
endloop
endfacet
facet normal 0.8 0.6 -0.0
outer loop
vertex 70.0 20.0 20.0
vertex 59.94328 33.40896 3.826834
vertex 58.64264 35.14315 7.071068
endloop
endfacet
facet normal 0.8 0.6 -0.0
outer loop
vertex 70.0 20.0 20.0
vertex 58.64264 35.14315 7.071068
vertex 56.6961 37.73853 9.238795
endloop
endfacet
facet normal 0.8 0.6 0.0
outer loop
vertex 70.0 20.0 20.0
vertex 56.6961 37.73853 9.238795
vertex 40.0 60.0 20.0
endloop
endfacet
facet normal 0.8 0.6 0.0
outer loop
vertex 40.0 60.0 -20.0
vertex 40.0 60.0 20.0
vertex 48.4 48.8 8.881784e-16
endloop
endfacet
facet normal 0.8 0.6 -0.0
outer loop
vertex 40.0 60.0 -20.0
vertex 48.4 48.8 8.881784e-16
vertex 48.85672 48.19104 -3.826834
endloop
endfacet
facet normal 0.8 0.6 0.0
outer loop
vertex 40.0 60.0 -20.0
vertex 48.85672 48.19104 -3.826834
vertex 50.15736 46.45686 -7.071068
endloop
endfacet
facet normal 0.8 0.6 0.0
outer loop
vertex 40.0 60.0 -20.0
vertex 50.15736 46.45686 -7.071068
vertex 52.1039 43.86147 -9.238795
endloop
endfacet
facet normal 0.8 0.6 -0.0
outer loop
vertex 40.0 60.0 -20.0
vertex 52.1039 43.86147 -9.238795
vertex 54.4 40.8 -10.0
endloop
endfacet
facet normal 0.8 0.6 0.0
outer loop
vertex 40.0 60.0 -20.0
vertex 54.4 40.8 -10.0
vertex 56.6961 37.73853 -9.238795
endloop
endfacet
facet normal 0.8 0.6 -0.0
outer loop
vertex 70.0 20.0 -20.0
vertex 40.0 60.0 -20.0
vertex 56.6961 37.73853 -9.238795
endloop
endfacet
facet normal 0.8 0.6 0.0
outer loop
vertex 70.0 20.0 -20.0
vertex 56.6961 37.73853 -9.238795
vertex 58.64264 35.14315 -7.071068
endloop
endfacet
facet normal 0.8 0.6 0.0
outer loop
vertex 70.0 20.0 -20.0
vertex 58.64264 35.14315 -7.071068
vertex 59.94328 33.40896 -3.826834
endloop
endfacet
facet normal 0.8 0.6 -0.0
outer loop
vertex 70.0 20.0 -20.0
vertex 59.94328 33.40896 -3.826834
vertex 60.4 32.8 1.224606e-15
endloop
endfacet
facet normal 0.8 0.6 0.0
outer loop
vertex 70.0 20.0 -20.0
vertex 60.4 32.8 1.224606e-15
vertex 59.94328 33.40896 3.826834
endloop
endfacet
facet normal 0.8 0.6 -0.0
outer loop
vertex 40.0 60.0 20.0
vertex 56.6961 37.73853 9.238795
vertex 54.4 40.8 10.0
endloop
endfacet
facet normal 0.8 0.6 0.0
outer loop
vertex 40.0 60.0 20.0
vertex 54.4 40.8 10.0
vertex 52.1039 43.86147 9.238795
endloop
endfacet
facet normal 0.8 0.6 -0.0
outer loop
vertex 40.0 60.0 20.0
vertex 52.1039 43.86147 9.238795
vertex 50.15736 46.45686 7.071068
endloop
endfacet
facet normal 0.8 0.6 -0.0
outer loop
vertex 40.0 60.0 20.0
vertex 50.15736 46.45686 7.071068
vertex 48.85672 48.19104 3.826834
endloop
endfacet
facet normal 0.8 0.6 0.0
outer loop
vertex 40.0 60.0 20.0
vertex 48.85672 48.19104 3.826834
vertex 48.4 48.8 8.881784e-16
endloop
endfacet
facet normal 0.117 -0.156 0.981
outer loop
vertex 42.4 31.8 -10.0
vertex 52.1039 43.86147 -9.238795
vertex 40.1039 34.86147 -9.238795
endloop
endfacet
facet normal 0.333 -0.444 0.831
outer loop
vertex 40.1039 34.86147 -9.238795
vertex 52.1039 43.86147 -9.238795
vertex 50.15736 46.45686 -7.071068
endloop
endfacet
facet normal 0.333 -0.444 0.831
outer loop
vertex 40.1039 34.86147 -9.238795
vertex 50.15736 46.45686 -7.071068
vertex 38.15736 37.45686 -7.071068
endloop
endfacet
facet normal 0.499 -0.665 0.556
outer loop
vertex 38.15736 37.45686 -7.071068
vertex 50.15736 46.45686 -7.071068
vertex 48.85672 48.19104 -3.826834
endloop
endfacet
facet normal 0.499 -0.665 0.556
outer loop
vertex 38.15736 37.45686 -7.071068
vertex 48.85672 48.19104 -3.826834
vertex 36.85672 39.19104 -3.826834
endloop
endfacet
facet normal 0.588 -0.785 0.195
outer loop
vertex 36.85672 39.19104 -3.826834
vertex 48.85672 48.19104 -3.826834
vertex 48.4 48.8 8.881784e-16
endloop
endfacet
facet normal 0.588 -0.785 0.195
outer loop
vertex 36.85672 39.19104 -3.826834
vertex 48.4 48.8 8.881784e-16
vertex 36.4 39.8 8.881784e-16
endloop
endfacet
facet normal 0.117 -0.156 0.981
outer loop
vertex 52.1039 43.86147 -9.238795
vertex 42.4 31.8 -10.0
vertex 54.4 40.8 -10.0
endloop
endfacet
facet normal -0.117 0.156 0.981
outer loop
vertex 54.4 40.8 -10.0
vertex 42.4 31.8 -10.0
vertex 44.6961 28.73853 -9.238795
endloop
endfacet
facet normal -0.117 0.156 0.981
outer loop
vertex 54.4 40.8 -10.0
vertex 44.6961 28.73853 -9.238795
vertex 56.6961 37.73853 -9.238795
endloop
endfacet
facet normal -0.333 0.444 0.831
outer loop
vertex 56.6961 37.73853 -9.238795
vertex 44.6961 28.73853 -9.238795
vertex 46.64264 26.14315 -7.071068
endloop
endfacet
facet normal -0.333 0.444 0.831
outer loop
vertex 56.6961 37.73853 -9.238795
vertex 46.64264 26.14315 -7.071068
vertex 58.64264 35.14315 -7.071068
endloop
endfacet
facet normal -0.499 0.665 0.556
outer loop
vertex 58.64264 35.14315 -7.071068
vertex 46.64264 26.14315 -7.071068
vertex 47.94328 24.40896 -3.826834
endloop
endfacet
facet normal -0.499 0.665 0.556
outer loop
vertex 58.64264 35.14315 -7.071068
vertex 47.94328 24.40896 -3.826834
vertex 59.94328 33.40896 -3.826834
endloop
endfacet
facet normal -0.588 0.785 0.195
outer loop
vertex 59.94328 33.40896 -3.826834
vertex 47.94328 24.40896 -3.826834
vertex 48.4 23.8 1.224606e-15
endloop
endfacet
facet normal -0.588 0.785 0.195
outer loop
vertex 59.94328 33.40896 -3.826834
vertex 48.4 23.8 1.224606e-15
vertex 60.4 32.8 1.224606e-15
endloop
endfacet
facet normal -0.117 0.156 -0.981
outer loop
vertex 42.4 31.8 10.0
vertex 56.6961 37.73853 9.238795
vertex 44.6961 28.73853 9.238795
endloop
endfacet
facet normal -0.333 0.444 -0.831
outer loop
vertex 44.6961 28.73853 9.238795
vertex 56.6961 37.73853 9.238795
vertex 58.64264 35.14315 7.071068
endloop
endfacet
facet normal -0.333 0.444 -0.831
outer loop
vertex 44.6961 28.73853 9.238795
vertex 58.64264 35.14315 7.071068
vertex 46.64264 26.14315 7.071068
endloop
endfacet
facet normal -0.499 0.665 -0.556
outer loop
vertex 46.64264 26.14315 7.071068
vertex 58.64264 35.14315 7.071068
vertex 59.94328 33.40896 3.826834
endloop
endfacet
facet normal -0.499 0.665 -0.556
outer loop
vertex 46.64264 26.14315 7.071068
vertex 59.94328 33.40896 3.826834
vertex 47.94328 24.40896 3.826834
endloop
endfacet
facet normal -0.588 0.785 -0.195
outer loop
vertex 47.94328 24.40896 3.826834
vertex 59.94328 33.40896 3.826834
vertex 60.4 32.8 1.224606e-15
endloop
endfacet
facet normal -0.588 0.785 -0.195
outer loop
vertex 47.94328 24.40896 3.826834
vertex 60.4 32.8 1.224606e-15
vertex 48.4 23.8 1.224606e-15
endloop
endfacet
facet normal -0.117 0.156 -0.981
outer loop
vertex 56.6961 37.73853 9.238795
vertex 42.4 31.8 10.0
vertex 54.4 40.8 10.0
endloop
endfacet
facet normal 0.117 -0.156 -0.981
outer loop
vertex 54.4 40.8 10.0
vertex 42.4 31.8 10.0
vertex 40.1039 34.86147 9.238795
endloop
endfacet
facet normal 0.117 -0.156 -0.981
outer loop
vertex 54.4 40.8 10.0
vertex 40.1039 34.86147 9.238795
vertex 52.1039 43.86147 9.238795
endloop
endfacet
facet normal 0.333 -0.444 -0.831
outer loop
vertex 52.1039 43.86147 9.238795
vertex 40.1039 34.86147 9.238795
vertex 38.15736 37.45686 7.071068
endloop
endfacet
facet normal 0.333 -0.444 -0.831
outer loop
vertex 52.1039 43.86147 9.238795
vertex 38.15736 37.45686 7.071068
vertex 50.15736 46.45686 7.071068
endloop
endfacet
facet normal 0.499 -0.665 -0.556
outer loop
vertex 50.15736 46.45686 7.071068
vertex 38.15736 37.45686 7.071068
vertex 36.85672 39.19104 3.826834
endloop
endfacet
facet normal 0.499 -0.665 -0.556
outer loop
vertex 50.15736 46.45686 7.071068
vertex 36.85672 39.19104 3.826834
vertex 48.85672 48.19104 3.826834
endloop
endfacet
facet normal 0.588 -0.785 -0.195
outer loop
vertex 48.85672 48.19104 3.826834
vertex 36.85672 39.19104 3.826834
vertex 36.4 39.8 8.881784e-16
endloop
endfacet
facet normal 0.588 -0.785 -0.195
outer loop
vertex 48.85672 48.19104 3.826834
vertex 36.4 39.8 8.881784e-16
vertex 48.4 48.8 8.881784e-16
endloop
endfacet
facet normal 0.8 0.6 0.0
outer loop
vertex 44.6961 28.73853 9.238795
vertex 40.1039 34.86147 9.238795
vertex 42.4 31.8 10.0
endloop
endfacet
facet normal 0.8 0.6 -0.0
outer loop
vertex 40.1039 34.86147 9.238795
vertex 44.6961 28.73853 9.238795
vertex 38.15736 37.45686 7.071068
endloop
endfacet
facet normal 0.8 0.6 -0.0
outer loop
vertex 38.15736 37.45686 7.071068
vertex 44.6961 28.73853 9.238795
vertex 46.64264 26.14315 7.071068
endloop
endfacet
facet normal 0.8 0.6 -0.0
outer loop
vertex 38.15736 37.45686 7.071068
vertex 46.64264 26.14315 7.071068
vertex 36.85672 39.19104 3.826834
endloop
endfacet
facet normal 0.8 0.6 -0.0
outer loop
vertex 36.85672 39.19104 3.826834
vertex 46.64264 26.14315 7.071068
vertex 47.94328 24.40896 3.826834
endloop
endfacet
facet normal 0.8 0.6 -0.0
outer loop
vertex 36.85672 39.19104 3.826834
vertex 47.94328 24.40896 3.826834
vertex 36.4 39.8 8.881784e-16
endloop
endfacet
facet normal 0.8 0.6 0.0
outer loop
vertex 36.4 39.8 8.881784e-16
vertex 47.94328 24.40896 3.826834
vertex 48.4 23.8 1.224606e-15
endloop
endfacet
facet normal 0.8 0.6 0.0
outer loop
vertex 36.4 39.8 8.881784e-16
vertex 48.4 23.8 1.224606e-15
vertex 36.85672 39.19104 -3.826834
endloop
endfacet
facet normal 0.8 0.6 -0.0
outer loop
vertex 36.85672 39.19104 -3.826834
vertex 48.4 23.8 1.224606e-15
vertex 47.94328 24.40896 -3.826834
endloop
endfacet
facet normal 0.8 0.6 0.0
outer loop
vertex 36.85672 39.19104 -3.826834
vertex 47.94328 24.40896 -3.826834
vertex 38.15736 37.45686 -7.071068
endloop
endfacet
facet normal 0.8 0.6 0.0
outer loop
vertex 38.15736 37.45686 -7.071068
vertex 47.94328 24.40896 -3.826834
vertex 46.64264 26.14315 -7.071068
endloop
endfacet
facet normal 0.8 0.6 0.0
outer loop
vertex 38.15736 37.45686 -7.071068
vertex 46.64264 26.14315 -7.071068
vertex 40.1039 34.86147 -9.238795
endloop
endfacet
facet normal 0.8 0.6 0.0
outer loop
vertex 40.1039 34.86147 -9.238795
vertex 46.64264 26.14315 -7.071068
vertex 44.6961 28.73853 -9.238795
endloop
endfacet
facet normal 0.8 0.6 -0.0
outer loop
vertex 40.1039 34.86147 -9.238795
vertex 44.6961 28.73853 -9.238795
vertex 42.4 31.8 -10.0
endloop
endfacet
facet normal -0.966 -0.259 -0.0
outer loop
vertex 85.07964 10.0 -20.0
vertex 84.47769 12.24649 20.0
vertex 84.47769 12.24649 -20.0
endloop
endfacet
facet normal -0.707 -0.707 0.0
outer loop
vertex 84.47769 12.24649 -20.0
vertex 84.47769 12.24649 20.0
vertex 82.83315 13.89104 20.0
endloop
endfacet
facet normal -0.707 -0.707 -0.0
outer loop
vertex 84.47769 12.24649 -20.0
vertex 82.83315 13.89104 20.0
vertex 82.83315 13.89104 -20.0
endloop
endfacet
facet normal -0.259 -0.966 0.0
outer loop
vertex 82.83315 13.89104 -20.0
vertex 82.83315 13.89104 20.0
vertex 80.58665 14.49299 20.0
endloop
endfacet
facet normal -0.259 -0.966 -0.0
outer loop
vertex 82.83315 13.89104 -20.0
vertex 80.58665 14.49299 20.0
vertex 80.58665 14.49299 -20.0
endloop
endfacet
facet normal -0.966 -0.259 0.0
outer loop
vertex 84.47769 12.24649 20.0
vertex 85.07964 10.0 -20.0
vertex 85.07964 10.0 20.0
endloop
endfacet
facet normal -0.966 0.259 0.0
outer loop
vertex 85.07964 10.0 20.0
vertex 85.07964 10.0 -20.0
vertex 84.47769 7.753507 -20.0
endloop
endfacet
facet normal -0.966 0.259 0.0
outer loop
vertex 85.07964 10.0 20.0
vertex 84.47769 7.753507 -20.0
vertex 84.47769 7.753507 20.0
endloop
endfacet
facet normal -0.707 0.707 0.0
outer loop
vertex 84.47769 7.753507 20.0
vertex 84.47769 7.753507 -20.0
vertex 82.83315 6.10896 -20.0
endloop
endfacet
facet normal -0.707 0.707 0.0
outer loop
vertex 84.47769 7.753507 20.0
vertex 82.83315 6.10896 -20.0
vertex 82.83315 6.10896 20.0
endloop
endfacet
facet normal -0.259 0.966 0.0
outer loop
vertex 82.83315 6.10896 20.0
vertex 82.83315 6.10896 -20.0
vertex 80.58665 5.507014 -20.0
endloop
endfacet
facet normal -0.259 0.966 0.0
outer loop
vertex 82.83315 6.10896 20.0
vertex 80.58665 5.507014 -20.0
vertex 80.58665 5.507014 20.0
endloop
endfacet
facet normal 0.0 -1.0 0.0
outer loop
vertex 60.58665 14.49299 -20.0
vertex 80.58665 14.49299 -20.0
vertex 60.58665 14.49299 20.0
endloop
endfacet
facet normal 0.0 -1.0 0.0
outer loop
vertex 60.58665 14.49299 20.0
vertex 80.58665 14.49299 -20.0
vertex 80.58665 14.49299 20.0
endloop
endfacet
facet normal 0.966 0.259 0.0
outer loop
vertex 56.09367 10.0 -20.0
vertex 56.69561 7.753507 20.0
vertex 56.69561 7.753507 -20.0
endloop
endfacet
facet normal 0.707 0.707 -0.0
outer loop
vertex 56.69561 7.753507 -20.0
vertex 56.69561 7.753507 20.0
vertex 58.34016 6.10896 20.0
endloop
endfacet
facet normal 0.707 0.707 0.0
outer loop
vertex 56.69561 7.753507 -20.0
vertex 58.34016 6.10896 20.0
vertex 58.34016 6.10896 -20.0
endloop
endfacet
facet normal 0.259 0.966 -0.0
outer loop
vertex 58.34016 6.10896 -20.0
vertex 58.34016 6.10896 20.0
vertex 60.58665 5.507014 20.0
endloop
endfacet
facet normal 0.259 0.966 0.0
outer loop
vertex 58.34016 6.10896 -20.0
vertex 60.58665 5.507014 20.0
vertex 60.58665 5.507014 -20.0
endloop
endfacet
facet normal 0.966 0.259 -0.0
outer loop
vertex 56.69561 7.753507 20.0
vertex 56.09367 10.0 -20.0
vertex 56.09367 10.0 20.0
endloop
endfacet
facet normal 0.966 -0.259 0.0
outer loop
vertex 56.09367 10.0 20.0
vertex 56.09367 10.0 -20.0
vertex 56.69561 12.24649 -20.0
endloop
endfacet
facet normal 0.966 -0.259 0.0
outer loop
vertex 56.09367 10.0 20.0
vertex 56.69561 12.24649 -20.0
vertex 56.69561 12.24649 20.0
endloop
endfacet
facet normal 0.707 -0.707 0.0
outer loop
vertex 56.69561 12.24649 20.0
vertex 56.69561 12.24649 -20.0
vertex 58.34016 13.89104 -20.0
endloop
endfacet
facet normal 0.707 -0.707 0.0
outer loop
vertex 56.69561 12.24649 20.0
vertex 58.34016 13.89104 -20.0
vertex 58.34016 13.89104 20.0
endloop
endfacet
facet normal 0.259 -0.966 0.0
outer loop
vertex 58.34016 13.89104 20.0
vertex 58.34016 13.89104 -20.0
vertex 60.58665 14.49299 -20.0
endloop
endfacet
facet normal 0.259 -0.966 0.0
outer loop
vertex 58.34016 13.89104 20.0
vertex 60.58665 14.49299 -20.0
vertex 60.58665 14.49299 20.0
endloop
endfacet
facet normal 0.0 1.0 0.0
outer loop
vertex 80.58665 5.507014 -20.0
vertex 60.58665 5.507014 -20.0
vertex 80.58665 5.507014 20.0
endloop
endfacet
facet normal 0.0 1.0 0.0
outer loop
vertex 80.58665 5.507014 20.0
vertex 60.58665 5.507014 -20.0
vertex 60.58665 5.507014 20.0
endloop
endfacet
facet normal 0.0 1.0 0.0
outer loop
vertex 14.2265 20.0 20.0
vertex 25.7735 20.0 20.0
vertex 14.2265 20.0 -20.0
endloop
endfacet
facet normal 0.0 1.0 0.0
outer loop
vertex 14.2265 20.0 -20.0
vertex 25.7735 20.0 20.0
vertex 25.7735 20.0 -20.0
endloop
endfacet
facet normal -0.866 0.5 0.0
outer loop
vertex 25.7735 20.0 -20.0
vertex 25.7735 20.0 20.0
vertex 31.547 30.0 -20.0
endloop
endfacet
facet normal -0.866 0.5 0.0
outer loop
vertex 31.547 30.0 -20.0
vertex 25.7735 20.0 20.0
vertex 31.547 30.0 20.0
endloop
endfacet
facet normal -0.866 -0.5 -0.0
outer loop
vertex 31.547 30.0 -20.0
vertex 31.547 30.0 20.0
vertex 25.7735 40.0 -20.0
endloop
endfacet
facet normal -0.866 -0.5 0.0
outer loop
vertex 25.7735 40.0 -20.0
vertex 31.547 30.0 20.0
vertex 25.7735 40.0 20.0
endloop
endfacet
facet normal 0.0 -1.0 -0.0
outer loop
vertex 25.7735 40.0 -20.0
vertex 25.7735 40.0 20.0
vertex 14.2265 40.0 -20.0
endloop
endfacet
facet normal 0.0 -1.0 0.0
outer loop
vertex 14.2265 40.0 -20.0
vertex 25.7735 40.0 20.0
vertex 14.2265 40.0 20.0
endloop
endfacet
facet normal 0.866 -0.5 0.0
outer loop
vertex 14.2265 40.0 -20.0
vertex 14.2265 40.0 20.0
vertex 8.452994 30.0 -20.0
endloop
endfacet
facet normal 0.866 -0.5 0.0
outer loop
vertex 8.452994 30.0 -20.0
vertex 14.2265 40.0 20.0
vertex 8.452994 30.0 20.0
endloop
endfacet
facet normal 0.866 0.5 0.0
outer loop
vertex 8.452994 30.0 -20.0
vertex 8.452994 30.0 20.0
vertex 14.2265 20.0 -20.0
endloop
endfacet
facet normal 0.866 0.5 -0.0
outer loop
vertex 14.2265 20.0 -20.0
vertex 8.452994 30.0 20.0
vertex 14.2265 20.0 20.0
endloop
endfacet
facet normal -0.195 0.981 0.0
outer loop
vertex 20.0 50.0 -20.0
vertex 23.82683 50.7612 20.0
vertex 23.82683 50.7612 -20.0
endloop
endfacet
facet normal -0.556 0.831 0.0
outer loop
vertex 23.82683 50.7612 -20.0
vertex 23.82683 50.7612 20.0
vertex 27.07107 52.92893 20.0
endloop
endfacet
facet normal -0.556 0.831 0.0
outer loop
vertex 23.82683 50.7612 -20.0
vertex 27.07107 52.92893 20.0
vertex 27.07107 52.92893 -20.0
endloop
endfacet
facet normal -0.831 0.556 0.0
outer loop
vertex 27.07107 52.92893 -20.0
vertex 27.07107 52.92893 20.0
vertex 29.2388 56.17316 20.0
endloop
endfacet
facet normal -0.831 0.556 0.0
outer loop
vertex 27.07107 52.92893 -20.0
vertex 29.2388 56.17316 20.0
vertex 29.2388 56.17316 -20.0
endloop
endfacet
facet normal -0.981 0.195 0.0
outer loop
vertex 29.2388 56.17316 -20.0
vertex 29.2388 56.17316 20.0
vertex 30.0 60.0 20.0
endloop
endfacet
facet normal -0.981 0.195 0.0
outer loop
vertex 29.2388 56.17316 -20.0
vertex 30.0 60.0 20.0
vertex 30.0 60.0 -20.0
endloop
endfacet
facet normal -0.195 0.981 0.0
outer loop
vertex 23.82683 50.7612 20.0
vertex 20.0 50.0 -20.0
vertex 20.0 50.0 20.0
endloop
endfacet
facet normal 0.195 0.981 0.0
outer loop
vertex 20.0 50.0 20.0
vertex 20.0 50.0 -20.0
vertex 16.17317 50.7612 -20.0
endloop
endfacet
facet normal 0.195 0.981 -0.0
outer loop
vertex 20.0 50.0 20.0
vertex 16.17317 50.7612 -20.0
vertex 16.17317 50.7612 20.0
endloop
endfacet
facet normal 0.556 0.831 0.0
outer loop
vertex 16.17317 50.7612 20.0
vertex 16.17317 50.7612 -20.0
vertex 12.92893 52.92893 -20.0
endloop
endfacet
facet normal 0.556 0.831 -0.0
outer loop
vertex 16.17317 50.7612 20.0
vertex 12.92893 52.92893 -20.0
vertex 12.92893 52.92893 20.0
endloop
endfacet
facet normal 0.831 0.556 0.0
outer loop
vertex 12.92893 52.92893 20.0
vertex 12.92893 52.92893 -20.0
vertex 10.7612 56.17316 -20.0
endloop
endfacet
facet normal 0.831 0.556 -0.0
outer loop
vertex 12.92893 52.92893 20.0
vertex 10.7612 56.17316 -20.0
vertex 10.7612 56.17316 20.0
endloop
endfacet
facet normal 0.981 0.195 0.0
outer loop
vertex 10.7612 56.17316 20.0
vertex 10.7612 56.17316 -20.0
vertex 10.0 60.0 -20.0
endloop
endfacet
facet normal 0.981 0.195 -0.0
outer loop
vertex 10.7612 56.17316 20.0
vertex 10.0 60.0 -20.0
vertex 10.0 60.0 20.0
endloop
endfacet
facet normal 1.0 0.0 0.0
outer loop
vertex 40.0 80.0 -20.0
vertex 40.0 80.0 20.0
vertex 40.0 60.0 -20.0
endloop
endfacet
facet normal 1.0 0.0 0.0
outer loop
vertex 40.0 60.0 -20.0
vertex 40.0 80.0 20.0
vertex 40.0 60.0 20.0
endloop
endfacet
facet normal 0.0 1.0 0.0
outer loop
vertex 70.0 20.0 20.0
vertex 100.0 20.0 20.0
vertex 70.0 20.0 -20.0
endloop
endfacet
facet normal 0.0 1.0 0.0
outer loop
vertex 70.0 20.0 -20.0
vertex 100.0 20.0 20.0
vertex 100.0 20.0 -20.0
endloop
endfacet
endsolid CATIA STL