solid 
  facet normal  0.000000e+000  0.000000e+000  1.000000e+000
    outer loop
      vertex  7.000000e+001  4.000000e+001  2.000000e+001
      vertex  6.000000e+001  4.577350e+001  2.000000e+001
      vertex  6.000000e+001  3.422650e+001  2.000000e+001
    endloop
  endfacet
  facet normal  0.000000e+000  0.000000e+000  1.000000e+000
    outer loop
      vertex  7.000000e+001  4.000000e+001  2.000000e+001
      vertex  5.000000e+001  6.000000e+001  2.000000e+001
      vertex  6.000000e+001  4.577350e+001  2.000000e+001
    endloop
  endfacet
  facet normal  -0.000000e+000  0.000000e+000  1.000000e+000
    outer loop
      vertex  5.000000e+001  6.000000e+001  2.000000e+001
      vertex  5.000000e+001  5.154700e+001  2.000000e+001
      vertex  6.000000e+001  4.577350e+001  2.000000e+001
    endloop
  endfacet
  facet normal  0.000000e+000  0.000000e+000  1.000000e+000
    outer loop
      vertex  5.000000e+001  6.000000e+001  2.000000e+001
      vertex  4.000000e+001  4.577350e+001  2.000000e+001
      vertex  5.000000e+001  5.154700e+001  2.000000e+001
    endloop
  endfacet
  facet normal  0.000000e+000  0.000000e+000  1.000000e+000
    outer loop
      vertex  0.000000e+000  2.000000e+001  2.000000e+001
      vertex  2.000000e+001  0.000000e+000  2.000000e+001
      vertex  1.076120e+001  1.617317e+001  2.000000e+001
    endloop
  endfacet
  facet normal  0.000000e+000  0.000000e+000  1.000000e+000
    outer loop
      vertex  0.000000e+000  2.000000e+001  2.000000e+001
      vertex  1.076120e+001  1.617317e+001  2.000000e+001
      vertex  1.000000e+001  2.000000e+001  2.000000e+001
    endloop
  endfacet
  facet normal  0.000000e+000  -0.000000e+000  1.000000e+000
    outer loop
      vertex  0.000000e+000  2.000000e+001  2.000000e+001
      vertex  1.000000e+001  2.000000e+001  2.000000e+001
      vertex  1.076120e+001  2.382683e+001  2.000000e+001
    endloop
  endfacet
  facet normal  0.000000e+000  -0.000000e+000  1.000000e+000
    outer loop
      vertex  0.000000e+000  2.000000e+001  2.000000e+001
      vertex  1.076120e+001  2.382683e+001  2.000000e+001
      vertex  1.292893e+001  2.707107e+001  2.000000e+001
    endloop
  endfacet
  facet normal  0.000000e+000  -0.000000e+000  1.000000e+000
    outer loop
      vertex  0.000000e+000  2.000000e+001  2.000000e+001
      vertex  1.292893e+001  2.707107e+001  2.000000e+001
      vertex  1.617317e+001  2.923880e+001  2.000000e+001
    endloop
  endfacet
  facet normal  0.000000e+000  0.000000e+000  1.000000e+000
    outer loop
      vertex  2.000000e+001  0.000000e+000  2.000000e+001
      vertex  7.000000e+001  4.000000e+001  2.000000e+001
      vertex  6.000000e+001  3.422650e+001  2.000000e+001
    endloop
  endfacet
  facet normal  0.000000e+000  0.000000e+000  1.000000e+000
    outer loop
      vertex  2.000000e+001  0.000000e+000  2.000000e+001
      vertex  6.000000e+001  3.422650e+001  2.000000e+001
      vertex  5.000000e+001  2.845300e+001  2.000000e+001
    endloop
  endfacet
  facet normal  0.000000e+000  0.000000e+000  9.999999e-001
    outer loop
      vertex  2.000000e+001  0.000000e+000  2.000000e+001
      vertex  5.000000e+001  2.845300e+001  2.000000e+001
      vertex  2.923880e+001  1.617317e+001  2.000000e+001
    endloop
  endfacet
  facet normal  0.000000e+000  0.000000e+000  1.000000e+000
    outer loop
      vertex  2.000000e+001  0.000000e+000  2.000000e+001
      vertex  2.923880e+001  1.617317e+001  2.000000e+001
      vertex  2.707107e+001  1.292893e+001  2.000000e+001
    endloop
  endfacet
  facet normal  0.000000e+000  0.000000e+000  1.000000e+000
    outer loop
      vertex  2.000000e+001  0.000000e+000  2.000000e+001
      vertex  2.707107e+001  1.292893e+001  2.000000e+001
      vertex  2.382683e+001  1.076120e+001  2.000000e+001
    endloop
  endfacet
  facet normal  0.000000e+000  0.000000e+000  1.000000e+000
    outer loop
      vertex  2.000000e+001  0.000000e+000  2.000000e+001
      vertex  2.382683e+001  1.076120e+001  2.000000e+001
      vertex  2.000000e+001  1.000000e+001  2.000000e+001
    endloop
  endfacet
  facet normal  0.000000e+000  0.000000e+000  1.000000e+000
    outer loop
      vertex  2.000000e+001  0.000000e+000  2.000000e+001
      vertex  2.000000e+001  1.000000e+001  2.000000e+001
      vertex  1.617317e+001  1.076120e+001  2.000000e+001
    endloop
  endfacet
  facet normal  0.000000e+000  0.000000e+000  1.000000e+000
    outer loop
      vertex  2.000000e+001  0.000000e+000  2.000000e+001
      vertex  1.617317e+001  1.076120e+001  2.000000e+001
      vertex  1.292893e+001  1.292893e+001  2.000000e+001
    endloop
  endfacet
  facet normal  0.000000e+000  0.000000e+000  9.999999e-001
    outer loop
      vertex  2.000000e+001  0.000000e+000  2.000000e+001
      vertex  1.292893e+001  1.292893e+001  2.000000e+001
      vertex  1.076120e+001  1.617317e+001  2.000000e+001
    endloop
  endfacet
  facet normal  0.000000e+000  0.000000e+000  1.000000e+000
    outer loop
      vertex  5.000000e+001  2.845300e+001  2.000000e+001
      vertex  4.000000e+001  3.422650e+001  2.000000e+001
      vertex  2.000000e+001  3.000000e+001  2.000000e+001
    endloop
  endfacet
  facet normal  0.000000e+000  0.000000e+000  1.000000e+000
    outer loop
      vertex  5.000000e+001  2.845300e+001  2.000000e+001
      vertex  2.000000e+001  3.000000e+001  2.000000e+001
      vertex  2.382683e+001  2.923880e+001  2.000000e+001
    endloop
  endfacet
  facet normal  0.000000e+000  0.000000e+000  1.000000e+000
    outer loop
      vertex  5.000000e+001  2.845300e+001  2.000000e+001
      vertex  2.382683e+001  2.923880e+001  2.000000e+001
      vertex  2.707107e+001  2.707107e+001  2.000000e+001
    endloop
  endfacet
  facet normal  -0.000000e+000  0.000000e+000  1.000000e+000
    outer loop
      vertex  5.000000e+001  2.845300e+001  2.000000e+001
      vertex  2.707107e+001  2.707107e+001  2.000000e+001
      vertex  2.923880e+001  2.382683e+001  2.000000e+001
    endloop
  endfacet
  facet normal  -0.000000e+000  0.000000e+000  1.000000e+000
    outer loop
      vertex  5.000000e+001  2.845300e+001  2.000000e+001
      vertex  2.923880e+001  2.382683e+001  2.000000e+001
      vertex  3.000000e+001  2.000000e+001  2.000000e+001
    endloop
  endfacet
  facet normal  -0.000000e+000  0.000000e+000  1.000000e+000
    outer loop
      vertex  5.000000e+001  2.845300e+001  2.000000e+001
      vertex  3.000000e+001  2.000000e+001  2.000000e+001
      vertex  2.923880e+001  1.617317e+001  2.000000e+001
    endloop
  endfacet
  facet normal  0.000000e+000  0.000000e+000  1.000000e+000
    outer loop
      vertex  5.000000e+001  6.000000e+001  2.000000e+001
      vertex  0.000000e+000  2.000000e+001  2.000000e+001
      vertex  4.000000e+001  4.577350e+001  2.000000e+001
    endloop
  endfacet
  facet normal  0.000000e+000  0.000000e+000  9.999999e-001
    outer loop
      vertex  4.000000e+001  4.577350e+001  2.000000e+001
      vertex  0.000000e+000  2.000000e+001  2.000000e+001
      vertex  1.617317e+001  2.923880e+001  2.000000e+001
    endloop
  endfacet
  facet normal  0.000000e+000  0.000000e+000  1.000000e+000
    outer loop
      vertex  4.000000e+001  4.577350e+001  2.000000e+001
      vertex  1.617317e+001  2.923880e+001  2.000000e+001
      vertex  4.000000e+001  3.422650e+001  2.000000e+001
    endloop
  endfacet
  facet normal  0.000000e+000  0.000000e+000  1.000000e+000
    outer loop
      vertex  4.000000e+001  3.422650e+001  2.000000e+001
      vertex  1.617317e+001  2.923880e+001  2.000000e+001
      vertex  2.000000e+001  3.000000e+001  2.000000e+001
    endloop
  endfacet
  facet normal  0.000000e+000  0.000000e+000 -1.000000e+000
    outer loop
      vertex  6.000000e+001  3.422650e+001  0.000000e+000
      vertex  6.000000e+001  4.577350e+001  0.000000e+000
      vertex  7.000000e+001  4.000000e+001  0.000000e+000
    endloop
  endfacet
  facet normal  0.000000e+000  0.000000e+000 -1.000000e+000
    outer loop
      vertex  6.000000e+001  4.577350e+001  0.000000e+000
      vertex  5.000000e+001  6.000000e+001  0.000000e+000
      vertex  7.000000e+001  4.000000e+001  0.000000e+000
    endloop
  endfacet
  facet normal  0.000000e+000  0.000000e+000 -1.000000e+000
    outer loop
      vertex  6.000000e+001  4.577350e+001  0.000000e+000
      vertex  5.000000e+001  5.154700e+001  0.000000e+000
      vertex  5.000000e+001  6.000000e+001  0.000000e+000
    endloop
  endfacet
  facet normal  0.000000e+000  0.000000e+000 -1.000000e+000
    outer loop
      vertex  5.000000e+001  5.154700e+001  0.000000e+000
      vertex  4.000000e+001  4.577350e+001  0.000000e+000
      vertex  5.000000e+001  6.000000e+001  0.000000e+000
    endloop
  endfacet
  facet normal  0.000000e+000  0.000000e+000 -1.000000e+000
    outer loop
      vertex  0.000000e+000  2.000000e+001  0.000000e+000
      vertex  1.617317e+001  2.923880e+001  0.000000e+000
      vertex  1.292893e+001  2.707107e+001  0.000000e+000
    endloop
  endfacet
  facet normal  0.000000e+000  0.000000e+000 -1.000000e+000
    outer loop
      vertex  0.000000e+000  2.000000e+001  0.000000e+000
      vertex  1.292893e+001  2.707107e+001  0.000000e+000
      vertex  1.076120e+001  2.382683e+001  0.000000e+000
    endloop
  endfacet
  facet normal  0.000000e+000  0.000000e+000 -1.000000e+000
    outer loop
      vertex  0.000000e+000  2.000000e+001  0.000000e+000
      vertex  1.076120e+001  2.382683e+001  0.000000e+000
      vertex  1.000000e+001  2.000000e+001  0.000000e+000
    endloop
  endfacet
  facet normal  -0.000000e+000  -0.000000e+000 -1.000000e+000
    outer loop
      vertex  0.000000e+000  2.000000e+001  0.000000e+000
      vertex  1.000000e+001  2.000000e+001  0.000000e+000
      vertex  1.076120e+001  1.617317e+001  0.000000e+000
    endloop
  endfacet
  facet normal  -0.000000e+000  -0.000000e+000 -1.000000e+000
    outer loop
      vertex  0.000000e+000  2.000000e+001  0.000000e+000
      vertex  1.076120e+001  1.617317e+001  0.000000e+000
      vertex  2.000000e+001  0.000000e+000  0.000000e+000
    endloop
  endfacet
  facet normal  0.000000e+000  0.000000e+000 -9.999999e-001
    outer loop
      vertex  2.000000e+001  0.000000e+000  0.000000e+000
      vertex  1.076120e+001  1.617317e+001  0.000000e+000
      vertex  1.292893e+001  1.292893e+001  0.000000e+000
    endloop
  endfacet
  facet normal  0.000000e+000  0.000000e+000 -1.000000e+000
    outer loop
      vertex  2.000000e+001  0.000000e+000  0.000000e+000
      vertex  1.292893e+001  1.292893e+001  0.000000e+000
      vertex  1.617317e+001  1.076120e+001  0.000000e+000
    endloop
  endfacet
  facet normal  0.000000e+000  0.000000e+000 -1.000000e+000
    outer loop
      vertex  2.000000e+001  0.000000e+000  0.000000e+000
      vertex  1.617317e+001  1.076120e+001  0.000000e+000
      vertex  2.000000e+001  1.000000e+001  0.000000e+000
    endloop
  endfacet
  facet normal  0.000000e+000  0.000000e+000 -1.000000e+000
    outer loop
      vertex  2.000000e+001  0.000000e+000  0.000000e+000
      vertex  2.000000e+001  1.000000e+001  0.000000e+000
      vertex  2.382683e+001  1.076120e+001  0.000000e+000
    endloop
  endfacet
  facet normal  0.000000e+000  -0.000000e+000 -1.000000e+000
    outer loop
      vertex  2.000000e+001  0.000000e+000  0.000000e+000
      vertex  2.382683e+001  1.076120e+001  0.000000e+000
      vertex  2.707107e+001  1.292893e+001  0.000000e+000
    endloop
  endfacet
  facet normal  0.000000e+000  -0.000000e+000 -1.000000e+000
    outer loop
      vertex  2.000000e+001  0.000000e+000  0.000000e+000
      vertex  2.707107e+001  1.292893e+001  0.000000e+000
      vertex  2.923880e+001  1.617317e+001  0.000000e+000
    endloop
  endfacet
  facet normal  0.000000e+000  -0.000000e+000 -9.999999e-001
    outer loop
      vertex  2.000000e+001  0.000000e+000  0.000000e+000
      vertex  2.923880e+001  1.617317e+001  0.000000e+000
      vertex  5.000000e+001  2.845300e+001  0.000000e+000
    endloop
  endfacet
  facet normal  0.000000e+000  -0.000000e+000 -1.000000e+000
    outer loop
      vertex  2.000000e+001  0.000000e+000  0.000000e+000
      vertex  5.000000e+001  2.845300e+001  0.000000e+000
      vertex  6.000000e+001  3.422650e+001  0.000000e+000
    endloop
  endfacet
  facet normal  0.000000e+000  -0.000000e+000 -1.000000e+000
    outer loop
      vertex  2.000000e+001  0.000000e+000  0.000000e+000
      vertex  6.000000e+001  3.422650e+001  0.000000e+000
      vertex  7.000000e+001  4.000000e+001  0.000000e+000
    endloop
  endfacet
  facet normal  0.000000e+000  0.000000e+000 -1.000000e+000
    outer loop
      vertex  5.000000e+001  2.845300e+001  0.000000e+000
      vertex  2.923880e+001  1.617317e+001  0.000000e+000
      vertex  3.000000e+001  2.000000e+001  0.000000e+000
    endloop
  endfacet
  facet normal  0.000000e+000  0.000000e+000 -1.000000e+000
    outer loop
      vertex  5.000000e+001  2.845300e+001  0.000000e+000
      vertex  3.000000e+001  2.000000e+001  0.000000e+000
      vertex  2.923880e+001  2.382683e+001  0.000000e+000
    endloop
  endfacet
  facet normal  0.000000e+000  0.000000e+000 -1.000000e+000
    outer loop
      vertex  5.000000e+001  2.845300e+001  0.000000e+000
      vertex  2.923880e+001  2.382683e+001  0.000000e+000
      vertex  2.707107e+001  2.707107e+001  0.000000e+000
    endloop
  endfacet
  facet normal  0.000000e+000  0.000000e+000 -1.000000e+000
    outer loop
      vertex  5.000000e+001  2.845300e+001  0.000000e+000
      vertex  2.707107e+001  2.707107e+001  0.000000e+000
      vertex  2.382683e+001  2.923880e+001  0.000000e+000
    endloop
  endfacet
  facet normal  0.000000e+000  0.000000e+000 -1.000000e+000
    outer loop
      vertex  5.000000e+001  2.845300e+001  0.000000e+000
      vertex  2.382683e+001  2.923880e+001  0.000000e+000
      vertex  2.000000e+001  3.000000e+001  0.000000e+000
    endloop
  endfacet
  facet normal  0.000000e+000  0.000000e+000 -1.000000e+000
    outer loop
      vertex  5.000000e+001  2.845300e+001  0.000000e+000
      vertex  2.000000e+001  3.000000e+001  0.000000e+000
      vertex  4.000000e+001  3.422650e+001  0.000000e+000
    endloop
  endfacet
  facet normal  -0.000000e+000  0.000000e+000 -1.000000e+000
    outer loop
      vertex  5.000000e+001  6.000000e+001  0.000000e+000
      vertex  4.000000e+001  4.577350e+001  0.000000e+000
      vertex  0.000000e+000  2.000000e+001  0.000000e+000
    endloop
  endfacet
  facet normal  0.000000e+000  0.000000e+000 -9.999999e-001
    outer loop
      vertex  0.000000e+000  2.000000e+001  0.000000e+000
      vertex  4.000000e+001  4.577350e+001  0.000000e+000
      vertex  1.617317e+001  2.923880e+001  0.000000e+000
    endloop
  endfacet
  facet normal  -0.000000e+000  0.000000e+000 -1.000000e+000
    outer loop
      vertex  4.000000e+001  4.577350e+001  0.000000e+000
      vertex  4.000000e+001  3.422650e+001  0.000000e+000
      vertex  1.617317e+001  2.923880e+001  0.000000e+000
    endloop
  endfacet
  facet normal  0.000000e+000  0.000000e+000 -1.000000e+000
    outer loop
      vertex  1.617317e+001  2.923880e+001  0.000000e+000
      vertex  4.000000e+001  3.422650e+001  0.000000e+000
      vertex  2.000000e+001  3.000000e+001  0.000000e+000
    endloop
  endfacet
  facet normal -1.000000e+000  0.000000e+000  0.000000e+000
    outer loop
      vertex  6.000000e+001  3.422650e+001  0.000000e+000
      vertex  6.000000e+001  3.422650e+001  2.000000e+001
      vertex  6.000000e+001  4.577350e+001  0.000000e+000
    endloop
  endfacet
  facet normal -1.000000e+000  0.000000e+000  0.000000e+000
    outer loop
      vertex  6.000000e+001  4.577350e+001  0.000000e+000
      vertex  6.000000e+001  3.422650e+001  2.000000e+001
      vertex  6.000000e+001  4.577350e+001  2.000000e+001
    endloop
  endfacet
  facet normal -5.000000e-001 -8.660254e-001  -0.000000e+000
    outer loop
      vertex  6.000000e+001  4.577350e+001  0.000000e+000
      vertex  6.000000e+001  4.577350e+001  2.000000e+001
      vertex  5.000000e+001  5.154700e+001  0.000000e+000
    endloop
  endfacet
  facet normal -5.000000e-001 -8.660254e-001  0.000000e+000
    outer loop
      vertex  5.000000e+001  5.154700e+001  0.000000e+000
      vertex  6.000000e+001  4.577350e+001  2.000000e+001
      vertex  5.000000e+001  5.154700e+001  2.000000e+001
    endloop
  endfacet
  facet normal  5.000000e-001 -8.660254e-001  0.000000e+000
    outer loop
      vertex  5.000000e+001  5.154700e+001  0.000000e+000
      vertex  5.000000e+001  5.154700e+001  2.000000e+001
      vertex  4.000000e+001  4.577350e+001  0.000000e+000
    endloop
  endfacet
  facet normal  5.000000e-001 -8.660254e-001  0.000000e+000
    outer loop
      vertex  4.000000e+001  4.577350e+001  0.000000e+000
      vertex  5.000000e+001  5.154700e+001  2.000000e+001
      vertex  4.000000e+001  4.577350e+001  2.000000e+001
    endloop
  endfacet
  facet normal  1.000000e+000  0.000000e+000  0.000000e+000
    outer loop
      vertex  4.000000e+001  4.577350e+001  0.000000e+000
      vertex  4.000000e+001  4.577350e+001  2.000000e+001
      vertex  4.000000e+001  3.422650e+001  0.000000e+000
    endloop
  endfacet
  facet normal  1.000000e+000  0.000000e+000  0.000000e+000
    outer loop
      vertex  4.000000e+001  3.422650e+001  0.000000e+000
      vertex  4.000000e+001  4.577350e+001  2.000000e+001
      vertex  4.000000e+001  3.422650e+001  2.000000e+001
    endloop
  endfacet
  facet normal  5.000000e-001  8.660254e-001  0.000000e+000
    outer loop
      vertex  4.000000e+001  3.422650e+001  0.000000e+000
      vertex  4.000000e+001  3.422650e+001  2.000000e+001
      vertex  5.000000e+001  2.845300e+001  0.000000e+000
    endloop
  endfacet
  facet normal  5.000000e-001  8.660254e-001  -0.000000e+000
    outer loop
      vertex  5.000000e+001  2.845300e+001  0.000000e+000
      vertex  4.000000e+001  3.422650e+001  2.000000e+001
      vertex  5.000000e+001  2.845300e+001  2.000000e+001
    endloop
  endfacet
  facet normal -5.000000e-001  8.660254e-001  0.000000e+000
    outer loop
      vertex  5.000000e+001  2.845300e+001  0.000000e+000
      vertex  5.000000e+001  2.845300e+001  2.000000e+001
      vertex  6.000000e+001  3.422650e+001  0.000000e+000
    endloop
  endfacet
  facet normal -5.000000e-001  8.660254e-001  0.000000e+000
    outer loop
      vertex  6.000000e+001  3.422650e+001  0.000000e+000
      vertex  5.000000e+001  2.845300e+001  2.000000e+001
      vertex  6.000000e+001  3.422650e+001  2.000000e+001
    endloop
  endfacet
  facet normal  1.950901e-001 -9.807853e-001  0.000000e+000
    outer loop
      vertex  2.000000e+001  3.000000e+001  0.000000e+000
      vertex  1.617317e+001  2.923880e+001  2.000000e+001
      vertex  1.617317e+001  2.923880e+001  0.000000e+000
    endloop
  endfacet
  facet normal  5.555703e-001 -8.314695e-001  0.000000e+000
    outer loop
      vertex  1.617317e+001  2.923880e+001  0.000000e+000
      vertex  1.617317e+001  2.923880e+001  2.000000e+001
      vertex  1.292893e+001  2.707107e+001  2.000000e+001
    endloop
  endfacet
  facet normal  5.555703e-001 -8.314695e-001  0.000000e+000
    outer loop
      vertex  1.617317e+001  2.923880e+001  0.000000e+000
      vertex  1.292893e+001  2.707107e+001  2.000000e+001
      vertex  1.292893e+001  2.707107e+001  0.000000e+000
    endloop
  endfacet
  facet normal  8.314696e-001 -5.555701e-001  0.000000e+000
    outer loop
      vertex  1.292893e+001  2.707107e+001  0.000000e+000
      vertex  1.292893e+001  2.707107e+001  2.000000e+001
      vertex  1.076120e+001  2.382683e+001  2.000000e+001
    endloop
  endfacet
  facet normal  8.314696e-001 -5.555701e-001  0.000000e+000
    outer loop
      vertex  1.292893e+001  2.707107e+001  0.000000e+000
      vertex  1.076120e+001  2.382683e+001  2.000000e+001
      vertex  1.076120e+001  2.382683e+001  0.000000e+000
    endloop
  endfacet
  facet normal  9.807853e-001 -1.950904e-001  0.000000e+000
    outer loop
      vertex  1.076120e+001  2.382683e+001  0.000000e+000
      vertex  1.076120e+001  2.382683e+001  2.000000e+001
      vertex  1.000000e+001  2.000000e+001  2.000000e+001
    endloop
  endfacet
  facet normal  9.807853e-001 -1.950904e-001  0.000000e+000
    outer loop
      vertex  1.076120e+001  2.382683e+001  0.000000e+000
      vertex  1.000000e+001  2.000000e+001  2.000000e+001
      vertex  1.000000e+001  2.000000e+001  0.000000e+000
    endloop
  endfacet
  facet normal  1.950901e-001 -9.807853e-001  0.000000e+000
    outer loop
      vertex  1.617317e+001  2.923880e+001  2.000000e+001
      vertex  2.000000e+001  3.000000e+001  0.000000e+000
      vertex  2.000000e+001  3.000000e+001  2.000000e+001
    endloop
  endfacet
  facet normal -1.950901e-001 -9.807853e-001  -0.000000e+000
    outer loop
      vertex  2.000000e+001  3.000000e+001  2.000000e+001
      vertex  2.000000e+001  3.000000e+001  0.000000e+000
      vertex  2.382683e+001  2.923880e+001  0.000000e+000
    endloop
  endfacet
  facet normal -1.950901e-001 -9.807853e-001  0.000000e+000
    outer loop
      vertex  2.000000e+001  3.000000e+001  2.000000e+001
      vertex  2.382683e+001  2.923880e+001  0.000000e+000
      vertex  2.382683e+001  2.923880e+001  2.000000e+001
    endloop
  endfacet
  facet normal -5.555703e-001 -8.314695e-001  -0.000000e+000
    outer loop
      vertex  2.382683e+001  2.923880e+001  2.000000e+001
      vertex  2.382683e+001  2.923880e+001  0.000000e+000
      vertex  2.707107e+001  2.707107e+001  0.000000e+000
    endloop
  endfacet
  facet normal -5.555703e-001 -8.314695e-001  0.000000e+000
    outer loop
      vertex  2.382683e+001  2.923880e+001  2.000000e+001
      vertex  2.707107e+001  2.707107e+001  0.000000e+000
      vertex  2.707107e+001  2.707107e+001  2.000000e+001
    endloop
  endfacet
  facet normal -8.314695e-001 -5.555703e-001  -0.000000e+000
    outer loop
      vertex  2.707107e+001  2.707107e+001  2.000000e+001
      vertex  2.707107e+001  2.707107e+001  0.000000e+000
      vertex  2.923880e+001  2.382683e+001  0.000000e+000
    endloop
  endfacet
  facet normal -8.314695e-001 -5.555703e-001  0.000000e+000
    outer loop
      vertex  2.707107e+001  2.707107e+001  2.000000e+001
      vertex  2.923880e+001  2.382683e+001  0.000000e+000
      vertex  2.923880e+001  2.382683e+001  2.000000e+001
    endloop
  endfacet
  facet normal -9.807853e-001 -1.950901e-001  -0.000000e+000
    outer loop
      vertex  2.923880e+001  2.382683e+001  2.000000e+001
      vertex  2.923880e+001  2.382683e+001  0.000000e+000
      vertex  3.000000e+001  2.000000e+001  0.000000e+000
    endloop
  endfacet
  facet normal -9.807853e-001 -1.950901e-001  0.000000e+000
    outer loop
      vertex  2.923880e+001  2.382683e+001  2.000000e+001
      vertex  3.000000e+001  2.000000e+001  0.000000e+000
      vertex  3.000000e+001  2.000000e+001  2.000000e+001
    endloop
  endfacet
  facet normal -1.950904e-001  9.807853e-001  0.000000e+000
    outer loop
      vertex  2.000000e+001  1.000000e+001  0.000000e+000
      vertex  2.382683e+001  1.076120e+001  2.000000e+001
      vertex  2.382683e+001  1.076120e+001  0.000000e+000
    endloop
  endfacet
  facet normal -5.555701e-001  8.314696e-001  0.000000e+000
    outer loop
      vertex  2.382683e+001  1.076120e+001  0.000000e+000
      vertex  2.382683e+001  1.076120e+001  2.000000e+001
      vertex  2.707107e+001  1.292893e+001  2.000000e+001
    endloop
  endfacet
  facet normal -5.555701e-001  8.314696e-001  0.000000e+000
    outer loop
      vertex  2.382683e+001  1.076120e+001  0.000000e+000
      vertex  2.707107e+001  1.292893e+001  2.000000e+001
      vertex  2.707107e+001  1.292893e+001  0.000000e+000
    endloop
  endfacet
  facet normal -8.314695e-001  5.555703e-001  0.000000e+000
    outer loop
      vertex  2.707107e+001  1.292893e+001  0.000000e+000
      vertex  2.707107e+001  1.292893e+001  2.000000e+001
      vertex  2.923880e+001  1.617317e+001  2.000000e+001
    endloop
  endfacet
  facet normal -8.314695e-001  5.555703e-001  0.000000e+000
    outer loop
      vertex  2.707107e+001  1.292893e+001  0.000000e+000
      vertex  2.923880e+001  1.617317e+001  2.000000e+001
      vertex  2.923880e+001  1.617317e+001  0.000000e+000
    endloop
  endfacet
  facet normal -9.807853e-001  1.950901e-001  0.000000e+000
    outer loop
      vertex  2.923880e+001  1.617317e+001  0.000000e+000
      vertex  2.923880e+001  1.617317e+001  2.000000e+001
      vertex  3.000000e+001  2.000000e+001  2.000000e+001
    endloop
  endfacet
  facet normal -9.807853e-001  1.950901e-001  0.000000e+000
    outer loop
      vertex  2.923880e+001  1.617317e+001  0.000000e+000
      vertex  3.000000e+001  2.000000e+001  2.000000e+001
      vertex  3.000000e+001  2.000000e+001  0.000000e+000
    endloop
  endfacet
  facet normal -1.950904e-001  9.807853e-001  0.000000e+000
    outer loop
      vertex  2.382683e+001  1.076120e+001  2.000000e+001
      vertex  2.000000e+001  1.000000e+001  0.000000e+000
      vertex  2.000000e+001  1.000000e+001  2.000000e+001
    endloop
  endfacet
  facet normal  1.950904e-001  9.807853e-001  0.000000e+000
    outer loop
      vertex  2.000000e+001  1.000000e+001  2.000000e+001
      vertex  2.000000e+001  1.000000e+001  0.000000e+000
      vertex  1.617317e+001  1.076120e+001  0.000000e+000
    endloop
  endfacet
  facet normal  1.950904e-001  9.807853e-001  -0.000000e+000
    outer loop
      vertex  2.000000e+001  1.000000e+001  2.000000e+001
      vertex  1.617317e+001  1.076120e+001  0.000000e+000
      vertex  1.617317e+001  1.076120e+001  2.000000e+001
    endloop
  endfacet
  facet normal  5.555701e-001  8.314696e-001  0.000000e+000
    outer loop
      vertex  1.617317e+001  1.076120e+001  2.000000e+001
      vertex  1.617317e+001  1.076120e+001  0.000000e+000
      vertex  1.292893e+001  1.292893e+001  0.000000e+000
    endloop
  endfacet
  facet normal  5.555701e-001  8.314696e-001  -0.000000e+000
    outer loop
      vertex  1.617317e+001  1.076120e+001  2.000000e+001
      vertex  1.292893e+001  1.292893e+001  0.000000e+000
      vertex  1.292893e+001  1.292893e+001  2.000000e+001
    endloop
  endfacet
  facet normal  8.314696e-001  5.555701e-001  0.000000e+000
    outer loop
      vertex  1.292893e+001  1.292893e+001  2.000000e+001
      vertex  1.292893e+001  1.292893e+001  0.000000e+000
      vertex  1.076120e+001  1.617317e+001  0.000000e+000
    endloop
  endfacet
  facet normal  8.314696e-001  5.555701e-001  -0.000000e+000
    outer loop
      vertex  1.292893e+001  1.292893e+001  2.000000e+001
      vertex  1.076120e+001  1.617317e+001  0.000000e+000
      vertex  1.076120e+001  1.617317e+001  2.000000e+001
    endloop
  endfacet
  facet normal  9.807853e-001  1.950904e-001  0.000000e+000
    outer loop
      vertex  1.076120e+001  1.617317e+001  2.000000e+001
      vertex  1.076120e+001  1.617317e+001  0.000000e+000
      vertex  1.000000e+001  2.000000e+001  0.000000e+000
    endloop
  endfacet
  facet normal  9.807853e-001  1.950904e-001  -0.000000e+000
    outer loop
      vertex  1.076120e+001  1.617317e+001  2.000000e+001
      vertex  1.000000e+001  2.000000e+001  0.000000e+000
      vertex  1.000000e+001  2.000000e+001  2.000000e+001
    endloop
  endfacet
  facet normal -6.246951e-001  7.808688e-001  0.000000e+000
    outer loop
      vertex  5.000000e+001  6.000000e+001  2.000000e+001
      vertex  5.000000e+001  6.000000e+001  0.000000e+000
      vertex  0.000000e+000  2.000000e+001  2.000000e+001
    endloop
  endfacet
  facet normal -6.246951e-001  7.808688e-001  0.000000e+000
    outer loop
      vertex  0.000000e+000  2.000000e+001  2.000000e+001
      vertex  5.000000e+001  6.000000e+001  0.000000e+000
      vertex  0.000000e+000  2.000000e+001  0.000000e+000
    endloop
  endfacet
  facet normal  7.071068e-001  7.071068e-001  -0.000000e+000
    outer loop
      vertex  7.000000e+001  4.000000e+001  2.000000e+001
      vertex  7.000000e+001  4.000000e+001  0.000000e+000
      vertex  5.000000e+001  6.000000e+001  2.000000e+001
    endloop
  endfacet
  facet normal  7.071068e-001  7.071068e-001  0.000000e+000
    outer loop
      vertex  5.000000e+001  6.000000e+001  2.000000e+001
      vertex  7.000000e+001  4.000000e+001  0.000000e+000
      vertex  5.000000e+001  6.000000e+001  0.000000e+000
    endloop
  endfacet
  facet normal  6.246951e-001 -7.808688e-001  0.000000e+000
    outer loop
      vertex  2.000000e+001  0.000000e+000  2.000000e+001
      vertex  2.000000e+001  0.000000e+000  0.000000e+000
      vertex  7.000000e+001  4.000000e+001  2.000000e+001
    endloop
  endfacet
  facet normal  6.246951e-001 -7.808688e-001  0.000000e+000
    outer loop
      vertex  7.000000e+001  4.000000e+001  2.000000e+001
      vertex  2.000000e+001  0.000000e+000  0.000000e+000
      vertex  7.000000e+001  4.000000e+001  0.000000e+000
    endloop
  endfacet
  facet normal -7.071068e-001 -7.071068e-001  0.000000e+000
    outer loop
      vertex  0.000000e+000  2.000000e+001  2.000000e+001
      vertex  0.000000e+000  2.000000e+001  0.000000e+000
      vertex  2.000000e+001  0.000000e+000  2.000000e+001
    endloop
  endfacet
  facet normal -7.071068e-001 -7.071068e-001  -0.000000e+000
    outer loop
      vertex  2.000000e+001  0.000000e+000  2.000000e+001
      vertex  0.000000e+000  2.000000e+001  0.000000e+000
      vertex  2.000000e+001  0.000000e+000  0.000000e+000
    endloop
  endfacet
endsolid
