solid CATIA STL
  facet normal  0.000000e+000  0.000000e+000  1.000000e+000
    outer loop
      vertex  0.000000e+000  2.000000e+001  2.000000e+001
      vertex  2.000000e+001  0.000000e+000  2.000000e+001
      vertex  1.076120e+001  1.617317e+001  2.000000e+001
    endloop
  endfacet
  facet normal  0.000000e+000  0.000000e+000  1.000000e+000
    outer loop
      vertex  0.000000e+000  2.000000e+001  2.000000e+001
      vertex  1.076120e+001  1.617317e+001  2.000000e+001
      vertex  1.000000e+001  2.000000e+001  2.000000e+001
    endloop
  endfacet
  facet normal  0.000000e+000  -0.000000e+000  1.000000e+000
    outer loop
      vertex  0.000000e+000  2.000000e+001  2.000000e+001
      vertex  1.000000e+001  2.000000e+001  2.000000e+001
      vertex  1.076120e+001  2.382683e+001  2.000000e+001
    endloop
  endfacet
  facet normal  0.000000e+000  -0.000000e+000  1.000000e+000
    outer loop
      vertex  0.000000e+000  2.000000e+001  2.000000e+001
      vertex  1.076120e+001  2.382683e+001  2.000000e+001
      vertex  1.292893e+001  2.707107e+001  2.000000e+001
    endloop
  endfacet
  facet normal  0.000000e+000  -0.000000e+000  1.000000e+000
    outer loop
      vertex  0.000000e+000  2.000000e+001  2.000000e+001
      vertex  1.292893e+001  2.707107e+001  2.000000e+001
      vertex  1.617317e+001  2.923880e+001  2.000000e+001
    endloop
  endfacet
  facet normal  0.000000e+000  -0.000000e+000  1.000000e+000
    outer loop
      vertex  0.000000e+000  2.000000e+001  2.000000e+001
      vertex  1.617317e+001  2.923880e+001  2.000000e+001
      vertex  3.000000e+001  4.000000e+001  2.000000e+001
    endloop
  endfacet
  facet normal  0.000000e+000  0.000000e+000  1.000000e+000
    outer loop
      vertex  0.000000e+000  2.000000e+001  2.000000e+001
      vertex  3.000000e+001  4.000000e+001  2.000000e+001
      vertex  2.617317e+001  4.076120e+001  2.000000e+001
    endloop
  endfacet
  facet normal  0.000000e+000  0.000000e+000  9.999999e-001
    outer loop
      vertex  0.000000e+000  2.000000e+001  2.000000e+001
      vertex  2.617317e+001  4.076120e+001  2.000000e+001
      vertex  2.292893e+001  4.292893e+001  2.000000e+001
    endloop
  endfacet
  facet normal  0.000000e+000  0.000000e+000  1.000000e+000
    outer loop
      vertex  0.000000e+000  2.000000e+001  2.000000e+001
      vertex  2.292893e+001  4.292893e+001  2.000000e+001
      vertex  2.076120e+001  4.617316e+001  2.000000e+001
    endloop
  endfacet
  facet normal  0.000000e+000  0.000000e+000  1.000000e+000
    outer loop
      vertex  0.000000e+000  2.000000e+001  2.000000e+001
      vertex  2.076120e+001  4.617316e+001  2.000000e+001
      vertex  2.000000e+001  5.000000e+001  2.000000e+001
    endloop
  endfacet
  facet normal  0.000000e+000  -0.000000e+000  1.000000e+000
    outer loop
      vertex  0.000000e+000  2.000000e+001  2.000000e+001
      vertex  2.000000e+001  5.000000e+001  2.000000e+001
      vertex  2.000000e+001  5.113249e+001  2.000000e+001
    endloop
  endfacet
  facet normal  0.000000e+000  0.000000e+000  1.000000e+000
    outer loop
      vertex  0.000000e+000  2.000000e+001  2.000000e+001
      vertex  2.000000e+001  5.113249e+001  2.000000e+001
      vertex  1.767626e+001  5.482716e+001  2.000000e+001
    endloop
  endfacet
  facet normal  0.000000e+000  0.000000e+000  1.000000e+000
    outer loop
      vertex  0.000000e+000  2.000000e+001  2.000000e+001
      vertex  1.767626e+001  5.482716e+001  2.000000e+001
      vertex  1.666679e+001  5.907349e+001  2.000000e+001
    endloop
  endfacet
  facet normal  0.000000e+000  -0.000000e+000  9.999999e-001
    outer loop
      vertex  0.000000e+000  2.000000e+001  2.000000e+001
      vertex  1.666679e+001  5.907349e+001  2.000000e+001
      vertex  1.707925e+001  6.341863e+001  2.000000e+001
    endloop
  endfacet
  facet normal  0.000000e+000  0.000000e+000  1.000000e+000
    outer loop
      vertex  2.000000e+001  9.000000e+001  2.000000e+001
      vertex  0.000000e+000  2.000000e+001  2.000000e+001
      vertex  1.707925e+001  6.341863e+001  2.000000e+001
    endloop
  endfacet
  facet normal  0.000000e+000  0.000000e+000  1.000000e+000
    outer loop
      vertex  2.000000e+001  9.000000e+001  2.000000e+001
      vertex  1.707925e+001  6.341863e+001  2.000000e+001
      vertex  1.886964e+001  6.739919e+001  2.000000e+001
    endloop
  endfacet
  facet normal  0.000000e+000  0.000000e+000  1.000000e+000
    outer loop
      vertex  2.000000e+001  9.000000e+001  2.000000e+001
      vertex  1.886964e+001  6.739919e+001  2.000000e+001
      vertex  2.184704e+001  7.059065e+001  2.000000e+001
    endloop
  endfacet
  facet normal  0.000000e+000  -0.000000e+000  1.000000e+000
    outer loop
      vertex  2.000000e+001  9.000000e+001  2.000000e+001
      vertex  2.184704e+001  7.059065e+001  2.000000e+001
      vertex  2.569391e+001  7.265268e+001  2.000000e+001
    endloop
  endfacet
  facet normal  0.000000e+000  -0.000000e+000  9.999999e-001
    outer loop
      vertex  2.000000e+001  9.000000e+001  2.000000e+001
      vertex  2.569391e+001  7.265268e+001  2.000000e+001
      vertex  3.000000e+001  7.336536e+001  2.000000e+001
    endloop
  endfacet
  facet normal  -0.000000e+000  -0.000000e+000  1.000000e+000
    outer loop
      vertex  2.000000e+001  9.000000e+001  2.000000e+001
      vertex  3.000000e+001  7.336536e+001  2.000000e+001
      vertex  3.430610e+001  7.265268e+001  2.000000e+001
    endloop
  endfacet
  facet normal  -0.000000e+000  -0.000000e+000  1.000000e+000
    outer loop
      vertex  2.000000e+001  9.000000e+001  2.000000e+001
      vertex  3.430610e+001  7.265268e+001  2.000000e+001
      vertex  3.815296e+001  7.059065e+001  2.000000e+001
    endloop
  endfacet
  facet normal  0.000000e+000  0.000000e+000  1.000000e+000
    outer loop
      vertex  9.000000e+001  3.000000e+001  2.000000e+001
      vertex  2.000000e+001  9.000000e+001  2.000000e+001
      vertex  3.815296e+001  7.059065e+001  2.000000e+001
    endloop
  endfacet
  facet normal  0.000000e+000  0.000000e+000  1.000000e+000
    outer loop
      vertex  9.000000e+001  3.000000e+001  2.000000e+001
      vertex  3.815296e+001  7.059065e+001  2.000000e+001
      vertex  4.113036e+001  6.739919e+001  2.000000e+001
    endloop
  endfacet
  facet normal  0.000000e+000  0.000000e+000  9.999999e-001
    outer loop
      vertex  9.000000e+001  3.000000e+001  2.000000e+001
      vertex  4.113036e+001  6.739919e+001  2.000000e+001
      vertex  4.292075e+001  6.341863e+001  2.000000e+001
    endloop
  endfacet
  facet normal  0.000000e+000  0.000000e+000  9.999999e-001
    outer loop
      vertex  9.000000e+001  3.000000e+001  2.000000e+001
      vertex  4.292075e+001  6.341863e+001  2.000000e+001
      vertex  5.000000e+001  4.154700e+001  2.000000e+001
    endloop
  endfacet
  facet normal  0.000000e+000  0.000000e+000  1.000000e+000
    outer loop
      vertex  9.000000e+001  3.000000e+001  2.000000e+001
      vertex  5.000000e+001  4.154700e+001  2.000000e+001
      vertex  6.000000e+001  3.577350e+001  2.000000e+001
    endloop
  endfacet
  facet normal  0.000000e+000  0.000000e+000  1.000000e+000
    outer loop
      vertex  9.000000e+001  3.000000e+001  2.000000e+001
      vertex  6.000000e+001  3.577350e+001  2.000000e+001
      vertex  6.000000e+001  2.422650e+001  2.000000e+001
    endloop
  endfacet
  facet normal  -0.000000e+000  0.000000e+000  1.000000e+000
    outer loop
      vertex  9.000000e+001  3.000000e+001  2.000000e+001
      vertex  6.000000e+001  2.422650e+001  2.000000e+001
      vertex  5.000000e+001  1.845300e+001  2.000000e+001
    endloop
  endfacet
  facet normal  -0.000000e+000  0.000000e+000  9.999999e-001
    outer loop
      vertex  9.000000e+001  3.000000e+001  2.000000e+001
      vertex  5.000000e+001  1.845300e+001  2.000000e+001
      vertex  2.000000e+001  0.000000e+000  2.000000e+001
    endloop
  endfacet
  facet normal  0.000000e+000  0.000000e+000  1.000000e+000
    outer loop
      vertex  2.000000e+001  0.000000e+000  2.000000e+001
      vertex  5.000000e+001  1.845300e+001  2.000000e+001
      vertex  2.923880e+001  1.617317e+001  2.000000e+001
    endloop
  endfacet
  facet normal  0.000000e+000  0.000000e+000  1.000000e+000
    outer loop
      vertex  2.000000e+001  0.000000e+000  2.000000e+001
      vertex  2.923880e+001  1.617317e+001  2.000000e+001
      vertex  2.707107e+001  1.292893e+001  2.000000e+001
    endloop
  endfacet
  facet normal  0.000000e+000  0.000000e+000  1.000000e+000
    outer loop
      vertex  2.000000e+001  0.000000e+000  2.000000e+001
      vertex  2.707107e+001  1.292893e+001  2.000000e+001
      vertex  2.382683e+001  1.076120e+001  2.000000e+001
    endloop
  endfacet
  facet normal  0.000000e+000  0.000000e+000  1.000000e+000
    outer loop
      vertex  2.000000e+001  0.000000e+000  2.000000e+001
      vertex  2.382683e+001  1.076120e+001  2.000000e+001
      vertex  2.000000e+001  1.000000e+001  2.000000e+001
    endloop
  endfacet
  facet normal  0.000000e+000  0.000000e+000  1.000000e+000
    outer loop
      vertex  2.000000e+001  0.000000e+000  2.000000e+001
      vertex  2.000000e+001  1.000000e+001  2.000000e+001
      vertex  1.617317e+001  1.076120e+001  2.000000e+001
    endloop
  endfacet
  facet normal  0.000000e+000  0.000000e+000  1.000000e+000
    outer loop
      vertex  2.000000e+001  0.000000e+000  2.000000e+001
      vertex  1.617317e+001  1.076120e+001  2.000000e+001
      vertex  1.292893e+001  1.292893e+001  2.000000e+001
    endloop
  endfacet
  facet normal  0.000000e+000  0.000000e+000  9.999999e-001
    outer loop
      vertex  2.000000e+001  0.000000e+000  2.000000e+001
      vertex  1.292893e+001  1.292893e+001  2.000000e+001
      vertex  1.076120e+001  1.617317e+001  2.000000e+001
    endloop
  endfacet
  facet normal  0.000000e+000  0.000000e+000  1.000000e+000
    outer loop
      vertex  3.000000e+001  4.000000e+001  2.000000e+001
      vertex  1.617317e+001  2.923880e+001  2.000000e+001
      vertex  2.000000e+001  3.000000e+001  2.000000e+001
    endloop
  endfacet
  facet normal  -0.000000e+000  0.000000e+000  1.000000e+000
    outer loop
      vertex  3.000000e+001  4.000000e+001  2.000000e+001
      vertex  2.000000e+001  3.000000e+001  2.000000e+001
      vertex  2.382683e+001  2.923880e+001  2.000000e+001
    endloop
  endfacet
  facet normal  -0.000000e+000  0.000000e+000  1.000000e+000
    outer loop
      vertex  3.000000e+001  4.000000e+001  2.000000e+001
      vertex  2.382683e+001  2.923880e+001  2.000000e+001
      vertex  2.707107e+001  2.707107e+001  2.000000e+001
    endloop
  endfacet
  facet normal  -0.000000e+000  0.000000e+000  1.000000e+000
    outer loop
      vertex  3.000000e+001  4.000000e+001  2.000000e+001
      vertex  2.707107e+001  2.707107e+001  2.000000e+001
      vertex  2.923880e+001  2.382683e+001  2.000000e+001
    endloop
  endfacet
  facet normal  -0.000000e+000  0.000000e+000  1.000000e+000
    outer loop
      vertex  3.000000e+001  4.000000e+001  2.000000e+001
      vertex  2.923880e+001  2.382683e+001  2.000000e+001
      vertex  3.000000e+001  2.000000e+001  2.000000e+001
    endloop
  endfacet
  facet normal  0.000000e+000  0.000000e+000  1.000000e+000
    outer loop
      vertex  5.000000e+001  4.154700e+001  2.000000e+001
      vertex  4.292075e+001  6.341863e+001  2.000000e+001
      vertex  4.333321e+001  5.907349e+001  2.000000e+001
    endloop
  endfacet
  facet normal  0.000000e+000  0.000000e+000  1.000000e+000
    outer loop
      vertex  5.000000e+001  4.154700e+001  2.000000e+001
      vertex  4.333321e+001  5.907349e+001  2.000000e+001
      vertex  4.232374e+001  5.482716e+001  2.000000e+001
    endloop
  endfacet
  facet normal  0.000000e+000  0.000000e+000  9.999999e-001
    outer loop
      vertex  5.000000e+001  4.154700e+001  2.000000e+001
      vertex  4.232374e+001  5.482716e+001  2.000000e+001
      vertex  4.000000e+001  5.113249e+001  2.000000e+001
    endloop
  endfacet
  facet normal  0.000000e+000  0.000000e+000  1.000000e+000
    outer loop
      vertex  5.000000e+001  4.154700e+001  2.000000e+001
      vertex  4.000000e+001  5.113249e+001  2.000000e+001
      vertex  4.000000e+001  5.000000e+001  2.000000e+001
    endloop
  endfacet
  facet normal  0.000000e+000  0.000000e+000  9.999999e-001
    outer loop
      vertex  5.000000e+001  4.154700e+001  2.000000e+001
      vertex  4.000000e+001  5.000000e+001  2.000000e+001
      vertex  3.923880e+001  4.617316e+001  2.000000e+001
    endloop
  endfacet
  facet normal  0.000000e+000  0.000000e+000  1.000000e+000
    outer loop
      vertex  5.000000e+001  4.154700e+001  2.000000e+001
      vertex  3.923880e+001  4.617316e+001  2.000000e+001
      vertex  3.707107e+001  4.292893e+001  2.000000e+001
    endloop
  endfacet
  facet normal  0.000000e+000  0.000000e+000  1.000000e+000
    outer loop
      vertex  5.000000e+001  4.154700e+001  2.000000e+001
      vertex  3.707107e+001  4.292893e+001  2.000000e+001
      vertex  3.382684e+001  4.076120e+001  2.000000e+001
    endloop
  endfacet
  facet normal  0.000000e+000  0.000000e+000  1.000000e+000
    outer loop
      vertex  2.923880e+001  1.617317e+001  2.000000e+001
      vertex  5.000000e+001  1.845300e+001  2.000000e+001
      vertex  3.000000e+001  2.000000e+001  2.000000e+001
    endloop
  endfacet
  facet normal  -0.000000e+000  0.000000e+000  1.000000e+000
    outer loop
      vertex  3.000000e+001  2.000000e+001  2.000000e+001
      vertex  5.000000e+001  1.845300e+001  2.000000e+001
      vertex  4.000000e+001  2.422650e+001  2.000000e+001
    endloop
  endfacet
  facet normal  0.000000e+000  0.000000e+000  1.000000e+000
    outer loop
      vertex  3.000000e+001  2.000000e+001  2.000000e+001
      vertex  4.000000e+001  2.422650e+001  2.000000e+001
      vertex  3.000000e+001  4.000000e+001  2.000000e+001
    endloop
  endfacet
  facet normal  0.000000e+000  0.000000e+000  1.000000e+000
    outer loop
      vertex  3.000000e+001  4.000000e+001  2.000000e+001
      vertex  4.000000e+001  2.422650e+001  2.000000e+001
      vertex  4.000000e+001  3.577350e+001  2.000000e+001
    endloop
  endfacet
  facet normal  0.000000e+000  0.000000e+000  1.000000e+000
    outer loop
      vertex  3.000000e+001  4.000000e+001  2.000000e+001
      vertex  4.000000e+001  3.577350e+001  2.000000e+001
      vertex  3.382684e+001  4.076120e+001  2.000000e+001
    endloop
  endfacet
  facet normal  -0.000000e+000  0.000000e+000  1.000000e+000
    outer loop
      vertex  3.382684e+001  4.076120e+001  2.000000e+001
      vertex  4.000000e+001  3.577350e+001  2.000000e+001
      vertex  5.000000e+001  4.154700e+001  2.000000e+001
    endloop
  endfacet
  facet normal  0.000000e+000  0.000000e+000 -9.999999e-001
    outer loop
      vertex  0.000000e+000  2.000000e+001  0.000000e+000
      vertex  1.707925e+001  6.341863e+001  0.000000e+000
      vertex  1.666679e+001  5.907349e+001  0.000000e+000
    endloop
  endfacet
  facet normal  0.000000e+000  -0.000000e+000 -1.000000e+000
    outer loop
      vertex  0.000000e+000  2.000000e+001  0.000000e+000
      vertex  1.666679e+001  5.907349e+001  0.000000e+000
      vertex  1.767626e+001  5.482716e+001  0.000000e+000
    endloop
  endfacet
  facet normal  0.000000e+000  -0.000000e+000 -1.000000e+000
    outer loop
      vertex  0.000000e+000  2.000000e+001  0.000000e+000
      vertex  1.767626e+001  5.482716e+001  0.000000e+000
      vertex  2.000000e+001  5.113249e+001  0.000000e+000
    endloop
  endfacet
  facet normal  0.000000e+000  -0.000000e+000 -1.000000e+000
    outer loop
      vertex  0.000000e+000  2.000000e+001  0.000000e+000
      vertex  2.000000e+001  5.113249e+001  0.000000e+000
      vertex  2.000000e+001  5.000000e+001  0.000000e+000
    endloop
  endfacet
  facet normal  0.000000e+000  -0.000000e+000 -1.000000e+000
    outer loop
      vertex  0.000000e+000  2.000000e+001  0.000000e+000
      vertex  2.000000e+001  5.000000e+001  0.000000e+000
      vertex  2.076120e+001  4.617316e+001  0.000000e+000
    endloop
  endfacet
  facet normal  0.000000e+000  -0.000000e+000 -1.000000e+000
    outer loop
      vertex  0.000000e+000  2.000000e+001  0.000000e+000
      vertex  2.076120e+001  4.617316e+001  0.000000e+000
      vertex  2.292893e+001  4.292893e+001  0.000000e+000
    endloop
  endfacet
  facet normal  0.000000e+000  -0.000000e+000 -9.999999e-001
    outer loop
      vertex  0.000000e+000  2.000000e+001  0.000000e+000
      vertex  2.292893e+001  4.292893e+001  0.000000e+000
      vertex  2.617317e+001  4.076120e+001  0.000000e+000
    endloop
  endfacet
  facet normal  0.000000e+000  -0.000000e+000 -1.000000e+000
    outer loop
      vertex  0.000000e+000  2.000000e+001  0.000000e+000
      vertex  2.617317e+001  4.076120e+001  0.000000e+000
      vertex  3.000000e+001  4.000000e+001  0.000000e+000
    endloop
  endfacet
  facet normal  0.000000e+000  0.000000e+000 -1.000000e+000
    outer loop
      vertex  0.000000e+000  2.000000e+001  0.000000e+000
      vertex  3.000000e+001  4.000000e+001  0.000000e+000
      vertex  1.617317e+001  2.923880e+001  0.000000e+000
    endloop
  endfacet
  facet normal  0.000000e+000  0.000000e+000 -1.000000e+000
    outer loop
      vertex  0.000000e+000  2.000000e+001  0.000000e+000
      vertex  1.617317e+001  2.923880e+001  0.000000e+000
      vertex  1.292893e+001  2.707107e+001  0.000000e+000
    endloop
  endfacet
  facet normal  0.000000e+000  0.000000e+000 -1.000000e+000
    outer loop
      vertex  0.000000e+000  2.000000e+001  0.000000e+000
      vertex  1.292893e+001  2.707107e+001  0.000000e+000
      vertex  1.076120e+001  2.382683e+001  0.000000e+000
    endloop
  endfacet
  facet normal  0.000000e+000  0.000000e+000 -1.000000e+000
    outer loop
      vertex  0.000000e+000  2.000000e+001  0.000000e+000
      vertex  1.076120e+001  2.382683e+001  0.000000e+000
      vertex  1.000000e+001  2.000000e+001  0.000000e+000
    endloop
  endfacet
  facet normal  -0.000000e+000  -0.000000e+000 -1.000000e+000
    outer loop
      vertex  0.000000e+000  2.000000e+001  0.000000e+000
      vertex  1.000000e+001  2.000000e+001  0.000000e+000
      vertex  1.076120e+001  1.617317e+001  0.000000e+000
    endloop
  endfacet
  facet normal  -0.000000e+000  -0.000000e+000 -1.000000e+000
    outer loop
      vertex  0.000000e+000  2.000000e+001  0.000000e+000
      vertex  1.076120e+001  1.617317e+001  0.000000e+000
      vertex  2.000000e+001  0.000000e+000  0.000000e+000
    endloop
  endfacet
  facet normal  0.000000e+000  0.000000e+000 -1.000000e+000
    outer loop
      vertex  2.000000e+001  9.000000e+001  0.000000e+000
      vertex  3.815296e+001  7.059065e+001  0.000000e+000
      vertex  3.430610e+001  7.265268e+001  0.000000e+000
    endloop
  endfacet
  facet normal  0.000000e+000  0.000000e+000 -1.000000e+000
    outer loop
      vertex  2.000000e+001  9.000000e+001  0.000000e+000
      vertex  3.430610e+001  7.265268e+001  0.000000e+000
      vertex  3.000000e+001  7.336536e+001  0.000000e+000
    endloop
  endfacet
  facet normal  -0.000000e+000  0.000000e+000 -9.999999e-001
    outer loop
      vertex  2.000000e+001  9.000000e+001  0.000000e+000
      vertex  3.000000e+001  7.336536e+001  0.000000e+000
      vertex  2.569391e+001  7.265268e+001  0.000000e+000
    endloop
  endfacet
  facet normal  -0.000000e+000  0.000000e+000 -1.000000e+000
    outer loop
      vertex  2.000000e+001  9.000000e+001  0.000000e+000
      vertex  2.569391e+001  7.265268e+001  0.000000e+000
      vertex  2.184704e+001  7.059065e+001  0.000000e+000
    endloop
  endfacet
  facet normal  -0.000000e+000  0.000000e+000 -1.000000e+000
    outer loop
      vertex  2.000000e+001  9.000000e+001  0.000000e+000
      vertex  2.184704e+001  7.059065e+001  0.000000e+000
      vertex  1.886964e+001  6.739919e+001  0.000000e+000
    endloop
  endfacet
  facet normal  -0.000000e+000  0.000000e+000 -1.000000e+000
    outer loop
      vertex  2.000000e+001  9.000000e+001  0.000000e+000
      vertex  1.886964e+001  6.739919e+001  0.000000e+000
      vertex  1.707925e+001  6.341863e+001  0.000000e+000
    endloop
  endfacet
  facet normal  -0.000000e+000  0.000000e+000 -1.000000e+000
    outer loop
      vertex  2.000000e+001  9.000000e+001  0.000000e+000
      vertex  1.707925e+001  6.341863e+001  0.000000e+000
      vertex  0.000000e+000  2.000000e+001  0.000000e+000
    endloop
  endfacet
  facet normal  0.000000e+000  0.000000e+000 -9.999999e-001
    outer loop
      vertex  9.000000e+001  3.000000e+001  0.000000e+000
      vertex  2.000000e+001  0.000000e+000  0.000000e+000
      vertex  5.000000e+001  1.845300e+001  0.000000e+000
    endloop
  endfacet
  facet normal  0.000000e+000  0.000000e+000 -1.000000e+000
    outer loop
      vertex  9.000000e+001  3.000000e+001  0.000000e+000
      vertex  5.000000e+001  1.845300e+001  0.000000e+000
      vertex  6.000000e+001  2.422650e+001  0.000000e+000
    endloop
  endfacet
  facet normal  0.000000e+000  0.000000e+000 -1.000000e+000
    outer loop
      vertex  9.000000e+001  3.000000e+001  0.000000e+000
      vertex  6.000000e+001  2.422650e+001  0.000000e+000
      vertex  6.000000e+001  3.577350e+001  0.000000e+000
    endloop
  endfacet
  facet normal  0.000000e+000  0.000000e+000 -1.000000e+000
    outer loop
      vertex  9.000000e+001  3.000000e+001  0.000000e+000
      vertex  6.000000e+001  3.577350e+001  0.000000e+000
      vertex  5.000000e+001  4.154700e+001  0.000000e+000
    endloop
  endfacet
  facet normal  0.000000e+000  0.000000e+000 -9.999999e-001
    outer loop
      vertex  9.000000e+001  3.000000e+001  0.000000e+000
      vertex  5.000000e+001  4.154700e+001  0.000000e+000
      vertex  4.292075e+001  6.341863e+001  0.000000e+000
    endloop
  endfacet
  facet normal  0.000000e+000  0.000000e+000 -9.999999e-001
    outer loop
      vertex  9.000000e+001  3.000000e+001  0.000000e+000
      vertex  4.292075e+001  6.341863e+001  0.000000e+000
      vertex  4.113036e+001  6.739919e+001  0.000000e+000
    endloop
  endfacet
  facet normal  0.000000e+000  0.000000e+000 -1.000000e+000
    outer loop
      vertex  9.000000e+001  3.000000e+001  0.000000e+000
      vertex  4.113036e+001  6.739919e+001  0.000000e+000
      vertex  3.815296e+001  7.059065e+001  0.000000e+000
    endloop
  endfacet
  facet normal  0.000000e+000  0.000000e+000 -1.000000e+000
    outer loop
      vertex  9.000000e+001  3.000000e+001  0.000000e+000
      vertex  3.815296e+001  7.059065e+001  0.000000e+000
      vertex  2.000000e+001  9.000000e+001  0.000000e+000
    endloop
  endfacet
  facet normal  0.000000e+000  0.000000e+000 -9.999999e-001
    outer loop
      vertex  2.000000e+001  0.000000e+000  0.000000e+000
      vertex  1.076120e+001  1.617317e+001  0.000000e+000
      vertex  1.292893e+001  1.292893e+001  0.000000e+000
    endloop
  endfacet
  facet normal  0.000000e+000  0.000000e+000 -1.000000e+000
    outer loop
      vertex  2.000000e+001  0.000000e+000  0.000000e+000
      vertex  1.292893e+001  1.292893e+001  0.000000e+000
      vertex  1.617317e+001  1.076120e+001  0.000000e+000
    endloop
  endfacet
  facet normal  0.000000e+000  0.000000e+000 -1.000000e+000
    outer loop
      vertex  2.000000e+001  0.000000e+000  0.000000e+000
      vertex  1.617317e+001  1.076120e+001  0.000000e+000
      vertex  2.000000e+001  1.000000e+001  0.000000e+000
    endloop
  endfacet
  facet normal  0.000000e+000  0.000000e+000 -1.000000e+000
    outer loop
      vertex  2.000000e+001  0.000000e+000  0.000000e+000
      vertex  2.000000e+001  1.000000e+001  0.000000e+000
      vertex  2.382683e+001  1.076120e+001  0.000000e+000
    endloop
  endfacet
  facet normal  0.000000e+000  -0.000000e+000 -1.000000e+000
    outer loop
      vertex  2.000000e+001  0.000000e+000  0.000000e+000
      vertex  2.382683e+001  1.076120e+001  0.000000e+000
      vertex  2.707107e+001  1.292893e+001  0.000000e+000
    endloop
  endfacet
  facet normal  0.000000e+000  -0.000000e+000 -1.000000e+000
    outer loop
      vertex  2.000000e+001  0.000000e+000  0.000000e+000
      vertex  2.707107e+001  1.292893e+001  0.000000e+000
      vertex  2.923880e+001  1.617317e+001  0.000000e+000
    endloop
  endfacet
  facet normal  0.000000e+000  -0.000000e+000 -1.000000e+000
    outer loop
      vertex  2.000000e+001  0.000000e+000  0.000000e+000
      vertex  2.923880e+001  1.617317e+001  0.000000e+000
      vertex  5.000000e+001  1.845300e+001  0.000000e+000
    endloop
  endfacet
  facet normal  0.000000e+000  0.000000e+000 -1.000000e+000
    outer loop
      vertex  3.000000e+001  4.000000e+001  0.000000e+000
      vertex  3.000000e+001  2.000000e+001  0.000000e+000
      vertex  2.923880e+001  2.382683e+001  0.000000e+000
    endloop
  endfacet
  facet normal  0.000000e+000  0.000000e+000 -1.000000e+000
    outer loop
      vertex  3.000000e+001  4.000000e+001  0.000000e+000
      vertex  2.923880e+001  2.382683e+001  0.000000e+000
      vertex  2.707107e+001  2.707107e+001  0.000000e+000
    endloop
  endfacet
  facet normal  0.000000e+000  0.000000e+000 -1.000000e+000
    outer loop
      vertex  3.000000e+001  4.000000e+001  0.000000e+000
      vertex  2.707107e+001  2.707107e+001  0.000000e+000
      vertex  2.382683e+001  2.923880e+001  0.000000e+000
    endloop
  endfacet
  facet normal  0.000000e+000  0.000000e+000 -1.000000e+000
    outer loop
      vertex  3.000000e+001  4.000000e+001  0.000000e+000
      vertex  2.382683e+001  2.923880e+001  0.000000e+000
      vertex  2.000000e+001  3.000000e+001  0.000000e+000
    endloop
  endfacet
  facet normal  -0.000000e+000  0.000000e+000 -1.000000e+000
    outer loop
      vertex  3.000000e+001  4.000000e+001  0.000000e+000
      vertex  2.000000e+001  3.000000e+001  0.000000e+000
      vertex  1.617317e+001  2.923880e+001  0.000000e+000
    endloop
  endfacet
  facet normal  0.000000e+000  0.000000e+000 -1.000000e+000
    outer loop
      vertex  5.000000e+001  4.154700e+001  0.000000e+000
      vertex  3.382684e+001  4.076120e+001  0.000000e+000
      vertex  3.707107e+001  4.292893e+001  0.000000e+000
    endloop
  endfacet
  facet normal  0.000000e+000  0.000000e+000 -1.000000e+000
    outer loop
      vertex  5.000000e+001  4.154700e+001  0.000000e+000
      vertex  3.707107e+001  4.292893e+001  0.000000e+000
      vertex  3.923880e+001  4.617316e+001  0.000000e+000
    endloop
  endfacet
  facet normal  0.000000e+000  0.000000e+000 -9.999999e-001
    outer loop
      vertex  5.000000e+001  4.154700e+001  0.000000e+000
      vertex  3.923880e+001  4.617316e+001  0.000000e+000
      vertex  4.000000e+001  5.000000e+001  0.000000e+000
    endloop
  endfacet
  facet normal  0.000000e+000  0.000000e+000 -1.000000e+000
    outer loop
      vertex  5.000000e+001  4.154700e+001  0.000000e+000
      vertex  4.000000e+001  5.000000e+001  0.000000e+000
      vertex  4.000000e+001  5.113249e+001  0.000000e+000
    endloop
  endfacet
  facet normal  0.000000e+000  0.000000e+000 -9.999999e-001
    outer loop
      vertex  5.000000e+001  4.154700e+001  0.000000e+000
      vertex  4.000000e+001  5.113249e+001  0.000000e+000
      vertex  4.232374e+001  5.482716e+001  0.000000e+000
    endloop
  endfacet
  facet normal  0.000000e+000  0.000000e+000 -1.000000e+000
    outer loop
      vertex  5.000000e+001  4.154700e+001  0.000000e+000
      vertex  4.232374e+001  5.482716e+001  0.000000e+000
      vertex  4.333321e+001  5.907349e+001  0.000000e+000
    endloop
  endfacet
  facet normal  0.000000e+000  0.000000e+000 -1.000000e+000
    outer loop
      vertex  5.000000e+001  4.154700e+001  0.000000e+000
      vertex  4.333321e+001  5.907349e+001  0.000000e+000
      vertex  4.292075e+001  6.341863e+001  0.000000e+000
    endloop
  endfacet
  facet normal  -0.000000e+000  0.000000e+000 -1.000000e+000
    outer loop
      vertex  3.000000e+001  2.000000e+001  0.000000e+000
      vertex  5.000000e+001  1.845300e+001  0.000000e+000
      vertex  2.923880e+001  1.617317e+001  0.000000e+000
    endloop
  endfacet
  facet normal  0.000000e+000  0.000000e+000 -1.000000e+000
    outer loop
      vertex  5.000000e+001  1.845300e+001  0.000000e+000
      vertex  3.000000e+001  2.000000e+001  0.000000e+000
      vertex  4.000000e+001  2.422650e+001  0.000000e+000
    endloop
  endfacet
  facet normal  -0.000000e+000  0.000000e+000 -1.000000e+000
    outer loop
      vertex  4.000000e+001  2.422650e+001  0.000000e+000
      vertex  3.000000e+001  2.000000e+001  0.000000e+000
      vertex  3.000000e+001  4.000000e+001  0.000000e+000
    endloop
  endfacet
  facet normal  0.000000e+000  0.000000e+000 -1.000000e+000
    outer loop
      vertex  4.000000e+001  2.422650e+001  0.000000e+000
      vertex  3.000000e+001  4.000000e+001  0.000000e+000
      vertex  4.000000e+001  3.577350e+001  0.000000e+000
    endloop
  endfacet
  facet normal  0.000000e+000  0.000000e+000 -1.000000e+000
    outer loop
      vertex  4.000000e+001  3.577350e+001  0.000000e+000
      vertex  3.000000e+001  4.000000e+001  0.000000e+000
      vertex  3.382684e+001  4.076120e+001  0.000000e+000
    endloop
  endfacet
  facet normal  0.000000e+000  0.000000e+000 -1.000000e+000
    outer loop
      vertex  4.000000e+001  3.577350e+001  0.000000e+000
      vertex  3.382684e+001  4.076120e+001  0.000000e+000
      vertex  5.000000e+001  4.154700e+001  0.000000e+000
    endloop
  endfacet
  facet normal -1.950900e-001  9.807854e-001  0.000000e+000
    outer loop
      vertex  3.000000e+001  4.000000e+001  0.000000e+000
      vertex  3.382684e+001  4.076120e+001  2.000000e+001
      vertex  3.382684e+001  4.076120e+001  0.000000e+000
    endloop
  endfacet
  facet normal -5.555705e-001  8.314694e-001  0.000000e+000
    outer loop
      vertex  3.382684e+001  4.076120e+001  0.000000e+000
      vertex  3.382684e+001  4.076120e+001  2.000000e+001
      vertex  3.707107e+001  4.292893e+001  2.000000e+001
    endloop
  endfacet
  facet normal -5.555705e-001  8.314694e-001  0.000000e+000
    outer loop
      vertex  3.382684e+001  4.076120e+001  0.000000e+000
      vertex  3.707107e+001  4.292893e+001  2.000000e+001
      vertex  3.707107e+001  4.292893e+001  0.000000e+000
    endloop
  endfacet
  facet normal -8.314694e-001  5.555705e-001  0.000000e+000
    outer loop
      vertex  3.707107e+001  4.292893e+001  0.000000e+000
      vertex  3.707107e+001  4.292893e+001  2.000000e+001
      vertex  3.923880e+001  4.617316e+001  2.000000e+001
    endloop
  endfacet
  facet normal -8.314694e-001  5.555705e-001  0.000000e+000
    outer loop
      vertex  3.707107e+001  4.292893e+001  0.000000e+000
      vertex  3.923880e+001  4.617316e+001  2.000000e+001
      vertex  3.923880e+001  4.617316e+001  0.000000e+000
    endloop
  endfacet
  facet normal -9.807854e-001  1.950900e-001  0.000000e+000
    outer loop
      vertex  3.923880e+001  4.617316e+001  0.000000e+000
      vertex  3.923880e+001  4.617316e+001  2.000000e+001
      vertex  4.000000e+001  5.000000e+001  2.000000e+001
    endloop
  endfacet
  facet normal -9.807854e-001  1.950900e-001  0.000000e+000
    outer loop
      vertex  3.923880e+001  4.617316e+001  0.000000e+000
      vertex  4.000000e+001  5.000000e+001  2.000000e+001
      vertex  4.000000e+001  5.000000e+001  0.000000e+000
    endloop
  endfacet
  facet normal -1.950900e-001  9.807854e-001  0.000000e+000
    outer loop
      vertex  3.382684e+001  4.076120e+001  2.000000e+001
      vertex  3.000000e+001  4.000000e+001  0.000000e+000
      vertex  3.000000e+001  4.000000e+001  2.000000e+001
    endloop
  endfacet
  facet normal  1.950901e-001  9.807853e-001  0.000000e+000
    outer loop
      vertex  3.000000e+001  4.000000e+001  2.000000e+001
      vertex  3.000000e+001  4.000000e+001  0.000000e+000
      vertex  2.617317e+001  4.076120e+001  0.000000e+000
    endloop
  endfacet
  facet normal  1.950901e-001  9.807853e-001  -0.000000e+000
    outer loop
      vertex  3.000000e+001  4.000000e+001  2.000000e+001
      vertex  2.617317e+001  4.076120e+001  0.000000e+000
      vertex  2.617317e+001  4.076120e+001  2.000000e+001
    endloop
  endfacet
  facet normal  5.555703e-001  8.314695e-001  0.000000e+000
    outer loop
      vertex  2.617317e+001  4.076120e+001  2.000000e+001
      vertex  2.617317e+001  4.076120e+001  0.000000e+000
      vertex  2.292893e+001  4.292893e+001  0.000000e+000
    endloop
  endfacet
  facet normal  5.555703e-001  8.314695e-001  -0.000000e+000
    outer loop
      vertex  2.617317e+001  4.076120e+001  2.000000e+001
      vertex  2.292893e+001  4.292893e+001  0.000000e+000
      vertex  2.292893e+001  4.292893e+001  2.000000e+001
    endloop
  endfacet
  facet normal  8.314694e-001  5.555705e-001  0.000000e+000
    outer loop
      vertex  2.292893e+001  4.292893e+001  2.000000e+001
      vertex  2.292893e+001  4.292893e+001  0.000000e+000
      vertex  2.076120e+001  4.617316e+001  0.000000e+000
    endloop
  endfacet
  facet normal  8.314694e-001  5.555705e-001  -0.000000e+000
    outer loop
      vertex  2.292893e+001  4.292893e+001  2.000000e+001
      vertex  2.076120e+001  4.617316e+001  0.000000e+000
      vertex  2.076120e+001  4.617316e+001  2.000000e+001
    endloop
  endfacet
  facet normal  9.807854e-001  1.950900e-001  0.000000e+000
    outer loop
      vertex  2.076120e+001  4.617316e+001  2.000000e+001
      vertex  2.076120e+001  4.617316e+001  0.000000e+000
      vertex  2.000000e+001  5.000000e+001  0.000000e+000
    endloop
  endfacet
  facet normal  9.807854e-001  1.950900e-001  -0.000000e+000
    outer loop
      vertex  2.076120e+001  4.617316e+001  2.000000e+001
      vertex  2.000000e+001  5.000000e+001  0.000000e+000
      vertex  2.000000e+001  5.000000e+001  2.000000e+001
    endloop
  endfacet
  facet normal -1.000000e+000  0.000000e+000  0.000000e+000
    outer loop
      vertex  4.000000e+001  5.113249e+001  2.000000e+001
      vertex  4.000000e+001  5.113249e+001  0.000000e+000
      vertex  4.000000e+001  5.000000e+001  2.000000e+001
    endloop
  endfacet
  facet normal -1.000000e+000  0.000000e+000  0.000000e+000
    outer loop
      vertex  4.000000e+001  5.000000e+001  2.000000e+001
      vertex  4.000000e+001  5.113249e+001  0.000000e+000
      vertex  4.000000e+001  5.000000e+001  0.000000e+000
    endloop
  endfacet
  facet normal  1.632831e-001 -9.865792e-001  0.000000e+000
    outer loop
      vertex  3.000000e+001  7.336536e+001  0.000000e+000
      vertex  2.569391e+001  7.265268e+001  2.000000e+001
      vertex  2.569391e+001  7.265268e+001  0.000000e+000
    endloop
  endfacet
  facet normal  4.724357e-001 -8.813652e-001  0.000000e+000
    outer loop
      vertex  2.569391e+001  7.265268e+001  0.000000e+000
      vertex  2.569391e+001  7.265268e+001  2.000000e+001
      vertex  2.184704e+001  7.059065e+001  2.000000e+001
    endloop
  endfacet
  facet normal  4.724357e-001 -8.813652e-001  0.000000e+000
    outer loop
      vertex  2.569391e+001  7.265268e+001  0.000000e+000
      vertex  2.184704e+001  7.059065e+001  2.000000e+001
      vertex  2.184704e+001  7.059065e+001  0.000000e+000
    endloop
  endfacet
  facet normal  7.312050e-001 -6.821578e-001  0.000000e+000
    outer loop
      vertex  2.184704e+001  7.059065e+001  0.000000e+000
      vertex  2.184704e+001  7.059065e+001  2.000000e+001
      vertex  1.886964e+001  6.739919e+001  2.000000e+001
    endloop
  endfacet
  facet normal  7.312050e-001 -6.821578e-001  0.000000e+000
    outer loop
      vertex  2.184704e+001  7.059065e+001  0.000000e+000
      vertex  1.886964e+001  6.739919e+001  2.000000e+001
      vertex  1.886964e+001  6.739919e+001  0.000000e+000
    endloop
  endfacet
  facet normal  9.119950e-001 -4.102015e-001  0.000000e+000
    outer loop
      vertex  1.886964e+001  6.739919e+001  0.000000e+000
      vertex  1.886964e+001  6.739919e+001  2.000000e+001
      vertex  1.707925e+001  6.341863e+001  2.000000e+001
    endloop
  endfacet
  facet normal  9.119950e-001 -4.102015e-001  0.000000e+000
    outer loop
      vertex  1.886964e+001  6.739919e+001  0.000000e+000
      vertex  1.707925e+001  6.341863e+001  2.000000e+001
      vertex  1.707925e+001  6.341863e+001  0.000000e+000
    endloop
  endfacet
  facet normal  9.955249e-001 -9.449888e-002  0.000000e+000
    outer loop
      vertex  1.707925e+001  6.341863e+001  0.000000e+000
      vertex  1.707925e+001  6.341863e+001  2.000000e+001
      vertex  1.666679e+001  5.907349e+001  2.000000e+001
    endloop
  endfacet
  facet normal  9.955249e-001 -9.449888e-002  0.000000e+000
    outer loop
      vertex  1.707925e+001  6.341863e+001  0.000000e+000
      vertex  1.666679e+001  5.907349e+001  2.000000e+001
      vertex  1.666679e+001  5.907349e+001  0.000000e+000
    endloop
  endfacet
  facet normal  9.728869e-001  2.312817e-001  -0.000000e+000
    outer loop
      vertex  1.666679e+001  5.907349e+001  0.000000e+000
      vertex  1.666679e+001  5.907349e+001  2.000000e+001
      vertex  1.767626e+001  5.482716e+001  2.000000e+001
    endloop
  endfacet
  facet normal  9.728869e-001  2.312817e-001  0.000000e+000
    outer loop
      vertex  1.666679e+001  5.907349e+001  0.000000e+000
      vertex  1.767626e+001  5.482716e+001  2.000000e+001
      vertex  1.767626e+001  5.482716e+001  0.000000e+000
    endloop
  endfacet
  facet normal  8.464947e-001  5.323970e-001  -0.000000e+000
    outer loop
      vertex  1.767626e+001  5.482716e+001  0.000000e+000
      vertex  1.767626e+001  5.482716e+001  2.000000e+001
      vertex  2.000000e+001  5.113249e+001  2.000000e+001
    endloop
  endfacet
  facet normal  8.464947e-001  5.323970e-001  0.000000e+000
    outer loop
      vertex  1.767626e+001  5.482716e+001  0.000000e+000
      vertex  2.000000e+001  5.113249e+001  2.000000e+001
      vertex  2.000000e+001  5.113249e+001  0.000000e+000
    endloop
  endfacet
  facet normal  1.632831e-001 -9.865792e-001  0.000000e+000
    outer loop
      vertex  2.569391e+001  7.265268e+001  2.000000e+001
      vertex  3.000000e+001  7.336536e+001  0.000000e+000
      vertex  3.000000e+001  7.336536e+001  2.000000e+001
    endloop
  endfacet
  facet normal -1.632831e-001 -9.865793e-001  -0.000000e+000
    outer loop
      vertex  3.000000e+001  7.336536e+001  2.000000e+001
      vertex  3.000000e+001  7.336536e+001  0.000000e+000
      vertex  3.430610e+001  7.265268e+001  0.000000e+000
    endloop
  endfacet
  facet normal -1.632831e-001 -9.865793e-001  0.000000e+000
    outer loop
      vertex  3.000000e+001  7.336536e+001  2.000000e+001
      vertex  3.430610e+001  7.265268e+001  0.000000e+000
      vertex  3.430610e+001  7.265268e+001  2.000000e+001
    endloop
  endfacet
  facet normal -4.724360e-001 -8.813649e-001  -0.000000e+000
    outer loop
      vertex  3.430610e+001  7.265268e+001  2.000000e+001
      vertex  3.430610e+001  7.265268e+001  0.000000e+000
      vertex  3.815296e+001  7.059065e+001  0.000000e+000
    endloop
  endfacet
  facet normal -4.724360e-001 -8.813649e-001  0.000000e+000
    outer loop
      vertex  3.430610e+001  7.265268e+001  2.000000e+001
      vertex  3.815296e+001  7.059065e+001  0.000000e+000
      vertex  3.815296e+001  7.059065e+001  2.000000e+001
    endloop
  endfacet
  facet normal -7.312048e-001 -6.821580e-001  -0.000000e+000
    outer loop
      vertex  3.815296e+001  7.059065e+001  2.000000e+001
      vertex  3.815296e+001  7.059065e+001  0.000000e+000
      vertex  4.113036e+001  6.739919e+001  0.000000e+000
    endloop
  endfacet
  facet normal -7.312048e-001 -6.821580e-001  0.000000e+000
    outer loop
      vertex  3.815296e+001  7.059065e+001  2.000000e+001
      vertex  4.113036e+001  6.739919e+001  0.000000e+000
      vertex  4.113036e+001  6.739919e+001  2.000000e+001
    endloop
  endfacet
  facet normal -9.119950e-001 -4.102015e-001  -0.000000e+000
    outer loop
      vertex  4.113036e+001  6.739919e+001  2.000000e+001
      vertex  4.113036e+001  6.739919e+001  0.000000e+000
      vertex  4.292075e+001  6.341863e+001  0.000000e+000
    endloop
  endfacet
  facet normal -9.119950e-001 -4.102015e-001  0.000000e+000
    outer loop
      vertex  4.113036e+001  6.739919e+001  2.000000e+001
      vertex  4.292075e+001  6.341863e+001  0.000000e+000
      vertex  4.292075e+001  6.341863e+001  2.000000e+001
    endloop
  endfacet
  facet normal -9.955249e-001 -9.449888e-002  -0.000000e+000
    outer loop
      vertex  4.292075e+001  6.341863e+001  2.000000e+001
      vertex  4.292075e+001  6.341863e+001  0.000000e+000
      vertex  4.333321e+001  5.907349e+001  0.000000e+000
    endloop
  endfacet
  facet normal -9.955249e-001 -9.449888e-002  0.000000e+000
    outer loop
      vertex  4.292075e+001  6.341863e+001  2.000000e+001
      vertex  4.333321e+001  5.907349e+001  0.000000e+000
      vertex  4.333321e+001  5.907349e+001  2.000000e+001
    endloop
  endfacet
  facet normal -9.728869e-001  2.312817e-001  0.000000e+000
    outer loop
      vertex  4.333321e+001  5.907349e+001  2.000000e+001
      vertex  4.333321e+001  5.907349e+001  0.000000e+000
      vertex  4.232374e+001  5.482716e+001  0.000000e+000
    endloop
  endfacet
  facet normal -9.728869e-001  2.312817e-001  0.000000e+000
    outer loop
      vertex  4.333321e+001  5.907349e+001  2.000000e+001
      vertex  4.232374e+001  5.482716e+001  0.000000e+000
      vertex  4.232374e+001  5.482716e+001  2.000000e+001
    endloop
  endfacet
  facet normal -8.464947e-001  5.323970e-001  0.000000e+000
    outer loop
      vertex  4.232374e+001  5.482716e+001  2.000000e+001
      vertex  4.232374e+001  5.482716e+001  0.000000e+000
      vertex  4.000000e+001  5.113249e+001  0.000000e+000
    endloop
  endfacet
  facet normal -8.464947e-001  5.323970e-001  0.000000e+000
    outer loop
      vertex  4.232374e+001  5.482716e+001  2.000000e+001
      vertex  4.000000e+001  5.113249e+001  0.000000e+000
      vertex  4.000000e+001  5.113249e+001  2.000000e+001
    endloop
  endfacet
  facet normal  1.000000e+000  0.000000e+000  0.000000e+000
    outer loop
      vertex  2.000000e+001  5.000000e+001  0.000000e+000
      vertex  2.000000e+001  5.113249e+001  0.000000e+000
      vertex  2.000000e+001  5.000000e+001  2.000000e+001
    endloop
  endfacet
  facet normal  1.000000e+000  -0.000000e+000  0.000000e+000
    outer loop
      vertex  2.000000e+001  5.000000e+001  2.000000e+001
      vertex  2.000000e+001  5.113249e+001  0.000000e+000
      vertex  2.000000e+001  5.113249e+001  2.000000e+001
    endloop
  endfacet
  facet normal -1.000000e+000  0.000000e+000  0.000000e+000
    outer loop
      vertex  6.000000e+001  2.422650e+001  0.000000e+000
      vertex  6.000000e+001  2.422650e+001  2.000000e+001
      vertex  6.000000e+001  3.577350e+001  0.000000e+000
    endloop
  endfacet
  facet normal -1.000000e+000  0.000000e+000  0.000000e+000
    outer loop
      vertex  6.000000e+001  3.577350e+001  0.000000e+000
      vertex  6.000000e+001  2.422650e+001  2.000000e+001
      vertex  6.000000e+001  3.577350e+001  2.000000e+001
    endloop
  endfacet
  facet normal -5.000000e-001 -8.660254e-001  -0.000000e+000
    outer loop
      vertex  6.000000e+001  3.577350e+001  0.000000e+000
      vertex  6.000000e+001  3.577350e+001  2.000000e+001
      vertex  5.000000e+001  4.154700e+001  0.000000e+000
    endloop
  endfacet
  facet normal -5.000000e-001 -8.660254e-001  0.000000e+000
    outer loop
      vertex  5.000000e+001  4.154700e+001  0.000000e+000
      vertex  6.000000e+001  3.577350e+001  2.000000e+001
      vertex  5.000000e+001  4.154700e+001  2.000000e+001
    endloop
  endfacet
  facet normal  5.000000e-001 -8.660254e-001  0.000000e+000
    outer loop
      vertex  5.000000e+001  4.154700e+001  0.000000e+000
      vertex  5.000000e+001  4.154700e+001  2.000000e+001
      vertex  4.000000e+001  3.577350e+001  0.000000e+000
    endloop
  endfacet
  facet normal  5.000000e-001 -8.660254e-001  0.000000e+000
    outer loop
      vertex  4.000000e+001  3.577350e+001  0.000000e+000
      vertex  5.000000e+001  4.154700e+001  2.000000e+001
      vertex  4.000000e+001  3.577350e+001  2.000000e+001
    endloop
  endfacet
  facet normal  1.000000e+000  -0.000000e+000  0.000000e+000
    outer loop
      vertex  4.000000e+001  3.577350e+001  2.000000e+001
      vertex  4.000000e+001  2.422650e+001  2.000000e+001
      vertex  4.000000e+001  3.577350e+001  0.000000e+000
    endloop
  endfacet
  facet normal  1.000000e+000  0.000000e+000  0.000000e+000
    outer loop
      vertex  4.000000e+001  3.577350e+001  0.000000e+000
      vertex  4.000000e+001  2.422650e+001  2.000000e+001
      vertex  4.000000e+001  2.422650e+001  0.000000e+000
    endloop
  endfacet
  facet normal  5.000000e-001  8.660254e-001  0.000000e+000
    outer loop
      vertex  4.000000e+001  2.422650e+001  0.000000e+000
      vertex  4.000000e+001  2.422650e+001  2.000000e+001
      vertex  5.000000e+001  1.845300e+001  0.000000e+000
    endloop
  endfacet
  facet normal  5.000000e-001  8.660254e-001  -0.000000e+000
    outer loop
      vertex  5.000000e+001  1.845300e+001  0.000000e+000
      vertex  4.000000e+001  2.422650e+001  2.000000e+001
      vertex  5.000000e+001  1.845300e+001  2.000000e+001
    endloop
  endfacet
  facet normal -5.000000e-001  8.660254e-001  0.000000e+000
    outer loop
      vertex  5.000000e+001  1.845300e+001  0.000000e+000
      vertex  5.000000e+001  1.845300e+001  2.000000e+001
      vertex  6.000000e+001  2.422650e+001  0.000000e+000
    endloop
  endfacet
  facet normal -5.000000e-001  8.660254e-001  0.000000e+000
    outer loop
      vertex  6.000000e+001  2.422650e+001  0.000000e+000
      vertex  5.000000e+001  1.845300e+001  2.000000e+001
      vertex  6.000000e+001  2.422650e+001  2.000000e+001
    endloop
  endfacet
  facet normal  1.950901e-001 -9.807853e-001  0.000000e+000
    outer loop
      vertex  2.000000e+001  3.000000e+001  0.000000e+000
      vertex  1.617317e+001  2.923880e+001  2.000000e+001
      vertex  1.617317e+001  2.923880e+001  0.000000e+000
    endloop
  endfacet
  facet normal  5.555703e-001 -8.314695e-001  0.000000e+000
    outer loop
      vertex  1.617317e+001  2.923880e+001  0.000000e+000
      vertex  1.617317e+001  2.923880e+001  2.000000e+001
      vertex  1.292893e+001  2.707107e+001  2.000000e+001
    endloop
  endfacet
  facet normal  5.555703e-001 -8.314695e-001  0.000000e+000
    outer loop
      vertex  1.617317e+001  2.923880e+001  0.000000e+000
      vertex  1.292893e+001  2.707107e+001  2.000000e+001
      vertex  1.292893e+001  2.707107e+001  0.000000e+000
    endloop
  endfacet
  facet normal  8.314696e-001 -5.555701e-001  0.000000e+000
    outer loop
      vertex  1.292893e+001  2.707107e+001  0.000000e+000
      vertex  1.292893e+001  2.707107e+001  2.000000e+001
      vertex  1.076120e+001  2.382683e+001  2.000000e+001
    endloop
  endfacet
  facet normal  8.314696e-001 -5.555701e-001  0.000000e+000
    outer loop
      vertex  1.292893e+001  2.707107e+001  0.000000e+000
      vertex  1.076120e+001  2.382683e+001  2.000000e+001
      vertex  1.076120e+001  2.382683e+001  0.000000e+000
    endloop
  endfacet
  facet normal  9.807853e-001 -1.950904e-001  0.000000e+000
    outer loop
      vertex  1.076120e+001  2.382683e+001  0.000000e+000
      vertex  1.076120e+001  2.382683e+001  2.000000e+001
      vertex  1.000000e+001  2.000000e+001  2.000000e+001
    endloop
  endfacet
  facet normal  9.807853e-001 -1.950904e-001  0.000000e+000
    outer loop
      vertex  1.076120e+001  2.382683e+001  0.000000e+000
      vertex  1.000000e+001  2.000000e+001  2.000000e+001
      vertex  1.000000e+001  2.000000e+001  0.000000e+000
    endloop
  endfacet
  facet normal  1.950901e-001 -9.807853e-001  0.000000e+000
    outer loop
      vertex  1.617317e+001  2.923880e+001  2.000000e+001
      vertex  2.000000e+001  3.000000e+001  0.000000e+000
      vertex  2.000000e+001  3.000000e+001  2.000000e+001
    endloop
  endfacet
  facet normal -1.950901e-001 -9.807853e-001  -0.000000e+000
    outer loop
      vertex  2.000000e+001  3.000000e+001  2.000000e+001
      vertex  2.000000e+001  3.000000e+001  0.000000e+000
      vertex  2.382683e+001  2.923880e+001  0.000000e+000
    endloop
  endfacet
  facet normal -1.950901e-001 -9.807853e-001  0.000000e+000
    outer loop
      vertex  2.000000e+001  3.000000e+001  2.000000e+001
      vertex  2.382683e+001  2.923880e+001  0.000000e+000
      vertex  2.382683e+001  2.923880e+001  2.000000e+001
    endloop
  endfacet
  facet normal -5.555703e-001 -8.314695e-001  -0.000000e+000
    outer loop
      vertex  2.382683e+001  2.923880e+001  2.000000e+001
      vertex  2.382683e+001  2.923880e+001  0.000000e+000
      vertex  2.707107e+001  2.707107e+001  0.000000e+000
    endloop
  endfacet
  facet normal -5.555703e-001 -8.314695e-001  0.000000e+000
    outer loop
      vertex  2.382683e+001  2.923880e+001  2.000000e+001
      vertex  2.707107e+001  2.707107e+001  0.000000e+000
      vertex  2.707107e+001  2.707107e+001  2.000000e+001
    endloop
  endfacet
  facet normal -8.314695e-001 -5.555703e-001  -0.000000e+000
    outer loop
      vertex  2.707107e+001  2.707107e+001  2.000000e+001
      vertex  2.707107e+001  2.707107e+001  0.000000e+000
      vertex  2.923880e+001  2.382683e+001  0.000000e+000
    endloop
  endfacet
  facet normal -8.314695e-001 -5.555703e-001  0.000000e+000
    outer loop
      vertex  2.707107e+001  2.707107e+001  2.000000e+001
      vertex  2.923880e+001  2.382683e+001  0.000000e+000
      vertex  2.923880e+001  2.382683e+001  2.000000e+001
    endloop
  endfacet
  facet normal -9.807853e-001 -1.950901e-001  -0.000000e+000
    outer loop
      vertex  2.923880e+001  2.382683e+001  2.000000e+001
      vertex  2.923880e+001  2.382683e+001  0.000000e+000
      vertex  3.000000e+001  2.000000e+001  0.000000e+000
    endloop
  endfacet
  facet normal -9.807853e-001 -1.950901e-001  0.000000e+000
    outer loop
      vertex  2.923880e+001  2.382683e+001  2.000000e+001
      vertex  3.000000e+001  2.000000e+001  0.000000e+000
      vertex  3.000000e+001  2.000000e+001  2.000000e+001
    endloop
  endfacet
  facet normal -1.950904e-001  9.807853e-001  0.000000e+000
    outer loop
      vertex  2.000000e+001  1.000000e+001  0.000000e+000
      vertex  2.382683e+001  1.076120e+001  2.000000e+001
      vertex  2.382683e+001  1.076120e+001  0.000000e+000
    endloop
  endfacet
  facet normal -5.555701e-001  8.314696e-001  0.000000e+000
    outer loop
      vertex  2.382683e+001  1.076120e+001  0.000000e+000
      vertex  2.382683e+001  1.076120e+001  2.000000e+001
      vertex  2.707107e+001  1.292893e+001  2.000000e+001
    endloop
  endfacet
  facet normal -5.555701e-001  8.314696e-001  0.000000e+000
    outer loop
      vertex  2.382683e+001  1.076120e+001  0.000000e+000
      vertex  2.707107e+001  1.292893e+001  2.000000e+001
      vertex  2.707107e+001  1.292893e+001  0.000000e+000
    endloop
  endfacet
  facet normal -8.314695e-001  5.555703e-001  0.000000e+000
    outer loop
      vertex  2.707107e+001  1.292893e+001  0.000000e+000
      vertex  2.707107e+001  1.292893e+001  2.000000e+001
      vertex  2.923880e+001  1.617317e+001  2.000000e+001
    endloop
  endfacet
  facet normal -8.314695e-001  5.555703e-001  0.000000e+000
    outer loop
      vertex  2.707107e+001  1.292893e+001  0.000000e+000
      vertex  2.923880e+001  1.617317e+001  2.000000e+001
      vertex  2.923880e+001  1.617317e+001  0.000000e+000
    endloop
  endfacet
  facet normal -9.807853e-001  1.950901e-001  0.000000e+000
    outer loop
      vertex  2.923880e+001  1.617317e+001  0.000000e+000
      vertex  2.923880e+001  1.617317e+001  2.000000e+001
      vertex  3.000000e+001  2.000000e+001  2.000000e+001
    endloop
  endfacet
  facet normal -9.807853e-001  1.950901e-001  0.000000e+000
    outer loop
      vertex  2.923880e+001  1.617317e+001  0.000000e+000
      vertex  3.000000e+001  2.000000e+001  2.000000e+001
      vertex  3.000000e+001  2.000000e+001  0.000000e+000
    endloop
  endfacet
  facet normal -1.950904e-001  9.807853e-001  0.000000e+000
    outer loop
      vertex  2.382683e+001  1.076120e+001  2.000000e+001
      vertex  2.000000e+001  1.000000e+001  0.000000e+000
      vertex  2.000000e+001  1.000000e+001  2.000000e+001
    endloop
  endfacet
  facet normal  1.950904e-001  9.807853e-001  0.000000e+000
    outer loop
      vertex  2.000000e+001  1.000000e+001  2.000000e+001
      vertex  2.000000e+001  1.000000e+001  0.000000e+000
      vertex  1.617317e+001  1.076120e+001  0.000000e+000
    endloop
  endfacet
  facet normal  1.950904e-001  9.807853e-001  -0.000000e+000
    outer loop
      vertex  2.000000e+001  1.000000e+001  2.000000e+001
      vertex  1.617317e+001  1.076120e+001  0.000000e+000
      vertex  1.617317e+001  1.076120e+001  2.000000e+001
    endloop
  endfacet
  facet normal  5.555701e-001  8.314696e-001  0.000000e+000
    outer loop
      vertex  1.617317e+001  1.076120e+001  2.000000e+001
      vertex  1.617317e+001  1.076120e+001  0.000000e+000
      vertex  1.292893e+001  1.292893e+001  0.000000e+000
    endloop
  endfacet
  facet normal  5.555701e-001  8.314696e-001  -0.000000e+000
    outer loop
      vertex  1.617317e+001  1.076120e+001  2.000000e+001
      vertex  1.292893e+001  1.292893e+001  0.000000e+000
      vertex  1.292893e+001  1.292893e+001  2.000000e+001
    endloop
  endfacet
  facet normal  8.314696e-001  5.555701e-001  0.000000e+000
    outer loop
      vertex  1.292893e+001  1.292893e+001  2.000000e+001
      vertex  1.292893e+001  1.292893e+001  0.000000e+000
      vertex  1.076120e+001  1.617317e+001  0.000000e+000
    endloop
  endfacet
  facet normal  8.314696e-001  5.555701e-001  -0.000000e+000
    outer loop
      vertex  1.292893e+001  1.292893e+001  2.000000e+001
      vertex  1.076120e+001  1.617317e+001  0.000000e+000
      vertex  1.076120e+001  1.617317e+001  2.000000e+001
    endloop
  endfacet
  facet normal  9.807853e-001  1.950904e-001  0.000000e+000
    outer loop
      vertex  1.076120e+001  1.617317e+001  2.000000e+001
      vertex  1.076120e+001  1.617317e+001  0.000000e+000
      vertex  1.000000e+001  2.000000e+001  0.000000e+000
    endloop
  endfacet
  facet normal  9.807853e-001  1.950904e-001  -0.000000e+000
    outer loop
      vertex  1.076120e+001  1.617317e+001  2.000000e+001
      vertex  1.000000e+001  2.000000e+001  0.000000e+000
      vertex  1.000000e+001  2.000000e+001  2.000000e+001
    endloop
  endfacet
  facet normal -9.615240e-001  2.747211e-001  0.000000e+000
    outer loop
      vertex  2.000000e+001  9.000000e+001  2.000000e+001
      vertex  2.000000e+001  9.000000e+001  0.000000e+000
      vertex  0.000000e+000  2.000000e+001  2.000000e+001
    endloop
  endfacet
  facet normal -9.615240e-001  2.747211e-001  0.000000e+000
    outer loop
      vertex  0.000000e+000  2.000000e+001  2.000000e+001
      vertex  2.000000e+001  9.000000e+001  0.000000e+000
      vertex  0.000000e+000  2.000000e+001  0.000000e+000
    endloop
  endfacet
  facet normal  6.507913e-001  7.592566e-001  -0.000000e+000
    outer loop
      vertex  9.000000e+001  3.000000e+001  2.000000e+001
      vertex  9.000000e+001  3.000000e+001  0.000000e+000
      vertex  2.000000e+001  9.000000e+001  2.000000e+001
    endloop
  endfacet
  facet normal  6.507913e-001  7.592566e-001  0.000000e+000
    outer loop
      vertex  2.000000e+001  9.000000e+001  2.000000e+001
      vertex  9.000000e+001  3.000000e+001  0.000000e+000
      vertex  2.000000e+001  9.000000e+001  0.000000e+000
    endloop
  endfacet
  facet normal  3.939193e-001 -9.191450e-001  0.000000e+000
    outer loop
      vertex  2.000000e+001  0.000000e+000  2.000000e+001
      vertex  2.000000e+001  0.000000e+000  0.000000e+000
      vertex  9.000000e+001  3.000000e+001  2.000000e+001
    endloop
  endfacet
  facet normal  3.939193e-001 -9.191450e-001  0.000000e+000
    outer loop
      vertex  9.000000e+001  3.000000e+001  2.000000e+001
      vertex  2.000000e+001  0.000000e+000  0.000000e+000
      vertex  9.000000e+001  3.000000e+001  0.000000e+000
    endloop
  endfacet
  facet normal -7.071068e-001 -7.071068e-001  0.000000e+000
    outer loop
      vertex  0.000000e+000  2.000000e+001  2.000000e+001
      vertex  0.000000e+000  2.000000e+001  0.000000e+000
      vertex  2.000000e+001  0.000000e+000  2.000000e+001
    endloop
  endfacet
  facet normal -7.071068e-001 -7.071068e-001  -0.000000e+000
    outer loop
      vertex  2.000000e+001  0.000000e+000  2.000000e+001
      vertex  0.000000e+000  2.000000e+001  0.000000e+000
      vertex  2.000000e+001  0.000000e+000  0.000000e+000
    endloop
  endfacet
endsolid CATIA STL
