solid CATIA STL
  facet normal  0.000000e+000  1.000000e+000  0.000000e+000
    outer loop
      vertex  2.000000e+001  3.000000e+001  5.000000e+000
      vertex  2.250000e+001  3.000000e+001  4.330127e+000
      vertex  1.750000e+001  3.000000e+001  4.330127e+000
    endloop
  endfacet
  facet normal  -0.000000e+000  1.000000e+000  0.000000e+000
    outer loop
      vertex  2.000000e+001  3.000000e+001 -5.000000e+000
      vertex  1.750000e+001  3.000000e+001 -4.330127e+000
      vertex  2.250000e+001  3.000000e+001 -4.330127e+000
    endloop
  endfacet
  facet normal  0.000000e+000  1.000000e+000  0.000000e+000
    outer loop
      vertex  2.250000e+001  3.000000e+001 -4.330127e+000
      vertex  1.750000e+001  3.000000e+001 -4.330127e+000
      vertex  1.566987e+001  3.000000e+001 -2.500000e+000
    endloop
  endfacet
  facet normal  -0.000000e+000  1.000000e+000  0.000000e+000
    outer loop
      vertex  2.250000e+001  3.000000e+001 -4.330127e+000
      vertex  1.566987e+001  3.000000e+001 -2.500000e+000
      vertex  2.433013e+001  3.000000e+001 -2.500000e+000
    endloop
  endfacet
  facet normal  0.000000e+000  1.000000e+000  0.000000e+000
    outer loop
      vertex  2.433013e+001  3.000000e+001 -2.500000e+000
      vertex  1.566987e+001  3.000000e+001 -2.500000e+000
      vertex  1.500000e+001  3.000000e+001 -5.665498e-015
    endloop
  endfacet
  facet normal  -0.000000e+000  1.000000e+000  0.000000e+000
    outer loop
      vertex  2.433013e+001  3.000000e+001 -2.500000e+000
      vertex  1.500000e+001  3.000000e+001 -5.665498e-015
      vertex  2.500000e+001  3.000000e+001  6.123032e-016
    endloop
  endfacet
  facet normal  0.000000e+000  1.000000e+000  0.000000e+000
    outer loop
      vertex  2.500000e+001  3.000000e+001  6.123032e-016
      vertex  1.500000e+001  3.000000e+001 -5.665498e-015
      vertex  1.566987e+001  3.000000e+001  2.500000e+000
    endloop
  endfacet
  facet normal  -0.000000e+000  1.000000e+000  0.000000e+000
    outer loop
      vertex  2.500000e+001  3.000000e+001  6.123032e-016
      vertex  1.566987e+001  3.000000e+001  2.500000e+000
      vertex  2.433013e+001  3.000000e+001  2.500000e+000
    endloop
  endfacet
  facet normal  0.000000e+000  1.000000e+000  0.000000e+000
    outer loop
      vertex  2.433013e+001  3.000000e+001  2.500000e+000
      vertex  1.566987e+001  3.000000e+001  2.500000e+000
      vertex  1.750000e+001  3.000000e+001  4.330127e+000
    endloop
  endfacet
  facet normal  -0.000000e+000  1.000000e+000  0.000000e+000
    outer loop
      vertex  2.433013e+001  3.000000e+001  2.500000e+000
      vertex  1.750000e+001  3.000000e+001  4.330127e+000
      vertex  2.250000e+001  3.000000e+001  4.330127e+000
    endloop
  endfacet
  facet normal  0.000000e+000  1.000000e+000  0.000000e+000
    outer loop
      vertex -2.000000e+001  3.000000e+001 -1.000000e+001
      vertex -2.000000e+001  3.000000e+001  2.000000e+001
      vertex  1.617317e+001  3.000000e+001  9.238795e+000
    endloop
  endfacet
  facet normal  0.000000e+000  1.000000e+000  0.000000e+000
    outer loop
      vertex -2.000000e+001  3.000000e+001 -1.000000e+001
      vertex  1.617317e+001  3.000000e+001  9.238795e+000
      vertex  1.292893e+001  3.000000e+001  7.071068e+000
    endloop
  endfacet
  facet normal  0.000000e+000  1.000000e+000  0.000000e+000
    outer loop
      vertex -2.000000e+001  3.000000e+001 -1.000000e+001
      vertex  1.292893e+001  3.000000e+001  7.071068e+000
      vertex  1.076120e+001  3.000000e+001  3.826834e+000
    endloop
  endfacet
  facet normal  0.000000e+000  1.000000e+000  0.000000e+000
    outer loop
      vertex -2.000000e+001  3.000000e+001 -1.000000e+001
      vertex  1.076120e+001  3.000000e+001  3.826834e+000
      vertex  1.000000e+001  3.000000e+001  0.000000e+000
    endloop
  endfacet
  facet normal  0.000000e+000  9.999999e-001  0.000000e+000
    outer loop
      vertex -2.000000e+001  3.000000e+001 -1.000000e+001
      vertex  1.000000e+001  3.000000e+001  0.000000e+000
      vertex  1.076120e+001  3.000000e+001 -3.826834e+000
    endloop
  endfacet
  facet normal  0.000000e+000  1.000000e+000  0.000000e+000
    outer loop
      vertex -2.000000e+001  3.000000e+001 -1.000000e+001
      vertex  1.076120e+001  3.000000e+001 -3.826834e+000
      vertex  1.292893e+001  3.000000e+001 -7.071068e+000
    endloop
  endfacet
  facet normal  0.000000e+000  1.000000e+000  0.000000e+000
    outer loop
      vertex -2.000000e+001  3.000000e+001 -1.000000e+001
      vertex  1.292893e+001  3.000000e+001 -7.071068e+000
      vertex  1.617317e+001  3.000000e+001 -9.238795e+000
    endloop
  endfacet
  facet normal  0.000000e+000  9.999999e-001  0.000000e+000
    outer loop
      vertex -2.000000e+001  3.000000e+001 -1.000000e+001
      vertex  1.617317e+001  3.000000e+001 -9.238795e+000
      vertex  2.000000e+001  3.000000e+001 -1.000000e+001
    endloop
  endfacet
  facet normal  0.000000e+000  1.000000e+000  0.000000e+000
    outer loop
      vertex -2.000000e+001  3.000000e+001 -1.000000e+001
      vertex  2.000000e+001  3.000000e+001 -1.000000e+001
      vertex -1.000000e+001  3.000000e+001 -2.000000e+001
    endloop
  endfacet
  facet normal  0.000000e+000  1.000000e+000  0.000000e+000
    outer loop
      vertex  5.000000e+001  3.000000e+001 -2.000000e+001
      vertex -1.000000e+001  3.000000e+001 -2.000000e+001
      vertex  2.000000e+001  3.000000e+001 -1.000000e+001
    endloop
  endfacet
  facet normal  -0.000000e+000  1.000000e+000  0.000000e+000
    outer loop
      vertex  5.000000e+001  3.000000e+001 -2.000000e+001
      vertex  2.000000e+001  3.000000e+001 -1.000000e+001
      vertex  2.382683e+001  3.000000e+001 -9.238795e+000
    endloop
  endfacet
  facet normal  -0.000000e+000  1.000000e+000  0.000000e+000
    outer loop
      vertex  5.000000e+001  3.000000e+001 -2.000000e+001
      vertex  2.382683e+001  3.000000e+001 -9.238795e+000
      vertex  2.707107e+001  3.000000e+001 -7.071068e+000
    endloop
  endfacet
  facet normal  -0.000000e+000  1.000000e+000  0.000000e+000
    outer loop
      vertex  5.000000e+001  3.000000e+001 -2.000000e+001
      vertex  2.707107e+001  3.000000e+001 -7.071068e+000
      vertex  2.923880e+001  3.000000e+001 -3.826834e+000
    endloop
  endfacet
  facet normal  -0.000000e+000  1.000000e+000  0.000000e+000
    outer loop
      vertex  5.000000e+001  3.000000e+001 -2.000000e+001
      vertex  2.923880e+001  3.000000e+001 -3.826834e+000
      vertex  3.000000e+001  3.000000e+001  1.224606e-015
    endloop
  endfacet
  facet normal  -0.000000e+000  1.000000e+000  -0.000000e+000
    outer loop
      vertex  5.000000e+001  3.000000e+001 -2.000000e+001
      vertex  3.000000e+001  3.000000e+001  1.224606e-015
      vertex  2.923880e+001  3.000000e+001  3.826834e+000
    endloop
  endfacet
  facet normal  -0.000000e+000  1.000000e+000  -0.000000e+000
    outer loop
      vertex  5.000000e+001  3.000000e+001 -2.000000e+001
      vertex  2.923880e+001  3.000000e+001  3.826834e+000
      vertex  2.707107e+001  3.000000e+001  7.071068e+000
    endloop
  endfacet
  facet normal  0.000000e+000  1.000000e+000  -0.000000e+000
    outer loop
      vertex  5.000000e+001  3.000000e+001  2.000000e+001
      vertex  5.000000e+001  3.000000e+001 -2.000000e+001
      vertex  2.707107e+001  3.000000e+001  7.071068e+000
    endloop
  endfacet
  facet normal  0.000000e+000  1.000000e+000  -0.000000e+000
    outer loop
      vertex  5.000000e+001  3.000000e+001  2.000000e+001
      vertex  2.707107e+001  3.000000e+001  7.071068e+000
      vertex  2.382683e+001  3.000000e+001  9.238795e+000
    endloop
  endfacet
  facet normal  0.000000e+000  1.000000e+000  -0.000000e+000
    outer loop
      vertex  5.000000e+001  3.000000e+001  2.000000e+001
      vertex  2.382683e+001  3.000000e+001  9.238795e+000
      vertex  2.000000e+001  3.000000e+001  1.000000e+001
    endloop
  endfacet
  facet normal  0.000000e+000  1.000000e+000  -0.000000e+000
    outer loop
      vertex  5.000000e+001  3.000000e+001  2.000000e+001
      vertex  2.000000e+001  3.000000e+001  1.000000e+001
      vertex  1.617317e+001  3.000000e+001  9.238795e+000
    endloop
  endfacet
  facet normal  0.000000e+000  1.000000e+000  -0.000000e+000
    outer loop
      vertex  5.000000e+001  3.000000e+001  2.000000e+001
      vertex  1.617317e+001  3.000000e+001  9.238795e+000
      vertex -2.000000e+001  3.000000e+001  2.000000e+001
    endloop
  endfacet
  facet normal  9.659259e-001  0.000000e+000  2.588188e-001
    outer loop
      vertex  2.500000e+001  2.500000e+001  6.123032e-016
      vertex  2.500000e+001  3.000000e+001  6.123032e-016
      vertex  2.433013e+001  2.500000e+001  2.500000e+000
    endloop
  endfacet
  facet normal  9.659259e-001  -0.000000e+000  2.588188e-001
    outer loop
      vertex  2.433013e+001  2.500000e+001  2.500000e+000
      vertex  2.500000e+001  3.000000e+001  6.123032e-016
      vertex  2.433013e+001  3.000000e+001  2.500000e+000
    endloop
  endfacet
  facet normal  7.071066e-001  0.000000e+000  7.071068e-001
    outer loop
      vertex  2.433013e+001  2.500000e+001  2.500000e+000
      vertex  2.433013e+001  3.000000e+001  2.500000e+000
      vertex  2.250000e+001  2.500000e+001  4.330127e+000
    endloop
  endfacet
  facet normal  7.071066e-001  -0.000000e+000  7.071068e-001
    outer loop
      vertex  2.250000e+001  2.500000e+001  4.330127e+000
      vertex  2.433013e+001  3.000000e+001  2.500000e+000
      vertex  2.250000e+001  3.000000e+001  4.330127e+000
    endloop
  endfacet
  facet normal  2.588190e-001  0.000000e+000  9.659259e-001
    outer loop
      vertex  2.250000e+001  2.500000e+001  4.330127e+000
      vertex  2.250000e+001  3.000000e+001  4.330127e+000
      vertex  2.000000e+001  2.500000e+001  5.000000e+000
    endloop
  endfacet
  facet normal  2.588190e-001  -0.000000e+000  9.659259e-001
    outer loop
      vertex  2.000000e+001  2.500000e+001  5.000000e+000
      vertex  2.250000e+001  3.000000e+001  4.330127e+000
      vertex  2.000000e+001  3.000000e+001  5.000000e+000
    endloop
  endfacet
  facet normal -2.588190e-001  0.000000e+000  9.659259e-001
    outer loop
      vertex  2.000000e+001  2.500000e+001  5.000000e+000
      vertex  2.000000e+001  3.000000e+001  5.000000e+000
      vertex  1.750000e+001  2.500000e+001  4.330127e+000
    endloop
  endfacet
  facet normal -2.588190e-001  0.000000e+000  9.659259e-001
    outer loop
      vertex  1.750000e+001  2.500000e+001  4.330127e+000
      vertex  2.000000e+001  3.000000e+001  5.000000e+000
      vertex  1.750000e+001  3.000000e+001  4.330127e+000
    endloop
  endfacet
  facet normal -7.071069e-001  0.000000e+000  7.071067e-001
    outer loop
      vertex  1.750000e+001  2.500000e+001  4.330127e+000
      vertex  1.750000e+001  3.000000e+001  4.330127e+000
      vertex  1.566987e+001  2.500000e+001  2.500000e+000
    endloop
  endfacet
  facet normal -7.071069e-001  0.000000e+000  7.071067e-001
    outer loop
      vertex  1.566987e+001  2.500000e+001  2.500000e+000
      vertex  1.750000e+001  3.000000e+001  4.330127e+000
      vertex  1.566987e+001  3.000000e+001  2.500000e+000
    endloop
  endfacet
  facet normal -9.659259e-001  0.000000e+000  2.588192e-001
    outer loop
      vertex  1.566987e+001  2.500000e+001  2.500000e+000
      vertex  1.566987e+001  3.000000e+001  2.500000e+000
      vertex  1.500000e+001  2.500000e+001  0.000000e+000
    endloop
  endfacet
  facet normal -9.659259e-001  2.932679e-016  2.588192e-001
    outer loop
      vertex  1.500000e+001  2.500000e+001  0.000000e+000
      vertex  1.566987e+001  3.000000e+001  2.500000e+000
      vertex  1.500000e+001  3.000000e+001 -5.665498e-015
    endloop
  endfacet
  facet normal -9.659259e-001 -2.932679e-016 -2.588192e-001
    outer loop
      vertex  1.500000e+001  2.500000e+001  0.000000e+000
      vertex  1.500000e+001  3.000000e+001 -5.665498e-015
      vertex  1.566987e+001  2.500000e+001 -2.500000e+000
    endloop
  endfacet
  facet normal -9.659259e-001  0.000000e+000 -2.588192e-001
    outer loop
      vertex  1.566987e+001  2.500000e+001 -2.500000e+000
      vertex  1.500000e+001  3.000000e+001 -5.665498e-015
      vertex  1.566987e+001  3.000000e+001 -2.500000e+000
    endloop
  endfacet
  facet normal -7.071069e-001  -0.000000e+000 -7.071067e-001
    outer loop
      vertex  1.566987e+001  2.500000e+001 -2.500000e+000
      vertex  1.566987e+001  3.000000e+001 -2.500000e+000
      vertex  1.750000e+001  2.500000e+001 -4.330127e+000
    endloop
  endfacet
  facet normal -7.071069e-001  0.000000e+000 -7.071067e-001
    outer loop
      vertex  1.750000e+001  2.500000e+001 -4.330127e+000
      vertex  1.566987e+001  3.000000e+001 -2.500000e+000
      vertex  1.750000e+001  3.000000e+001 -4.330127e+000
    endloop
  endfacet
  facet normal -2.588190e-001  -0.000000e+000 -9.659259e-001
    outer loop
      vertex  1.750000e+001  2.500000e+001 -4.330127e+000
      vertex  1.750000e+001  3.000000e+001 -4.330127e+000
      vertex  2.000000e+001  2.500000e+001 -5.000000e+000
    endloop
  endfacet
  facet normal -2.588190e-001  0.000000e+000 -9.659259e-001
    outer loop
      vertex  2.000000e+001  2.500000e+001 -5.000000e+000
      vertex  1.750000e+001  3.000000e+001 -4.330127e+000
      vertex  2.000000e+001  3.000000e+001 -5.000000e+000
    endloop
  endfacet
  facet normal  2.588190e-001  0.000000e+000 -9.659259e-001
    outer loop
      vertex  2.000000e+001  2.500000e+001 -5.000000e+000
      vertex  2.000000e+001  3.000000e+001 -5.000000e+000
      vertex  2.250000e+001  2.500000e+001 -4.330127e+000
    endloop
  endfacet
  facet normal  2.588190e-001  0.000000e+000 -9.659259e-001
    outer loop
      vertex  2.250000e+001  2.500000e+001 -4.330127e+000
      vertex  2.000000e+001  3.000000e+001 -5.000000e+000
      vertex  2.250000e+001  3.000000e+001 -4.330127e+000
    endloop
  endfacet
  facet normal  7.071066e-001  0.000000e+000 -7.071068e-001
    outer loop
      vertex  2.250000e+001  2.500000e+001 -4.330127e+000
      vertex  2.250000e+001  3.000000e+001 -4.330127e+000
      vertex  2.433013e+001  2.500000e+001 -2.500000e+000
    endloop
  endfacet
  facet normal  7.071066e-001  0.000000e+000 -7.071068e-001
    outer loop
      vertex  2.433013e+001  2.500000e+001 -2.500000e+000
      vertex  2.250000e+001  3.000000e+001 -4.330127e+000
      vertex  2.433013e+001  3.000000e+001 -2.500000e+000
    endloop
  endfacet
  facet normal  9.659259e-001  0.000000e+000 -2.588188e-001
    outer loop
      vertex  2.433013e+001  2.500000e+001 -2.500000e+000
      vertex  2.433013e+001  3.000000e+001 -2.500000e+000
      vertex  2.500000e+001  2.500000e+001  6.123032e-016
    endloop
  endfacet
  facet normal  9.659259e-001  0.000000e+000 -2.588188e-001
    outer loop
      vertex  2.500000e+001  2.500000e+001  6.123032e-016
      vertex  2.433013e+001  3.000000e+001 -2.500000e+000
      vertex  2.500000e+001  3.000000e+001  6.123032e-016
    endloop
  endfacet
  facet normal  1.950904e-001  0.000000e+000  9.807853e-001
    outer loop
      vertex  2.000000e+001  2.500000e+001 -1.000000e+001
      vertex  1.617317e+001  3.000000e+001 -9.238795e+000
      vertex  1.617317e+001  2.500000e+001 -9.238795e+000
    endloop
  endfacet
  facet normal  5.555701e-001  -0.000000e+000  8.314696e-001
    outer loop
      vertex  1.617317e+001  2.500000e+001 -9.238795e+000
      vertex  1.617317e+001  3.000000e+001 -9.238795e+000
      vertex  1.292893e+001  3.000000e+001 -7.071068e+000
    endloop
  endfacet
  facet normal  5.555701e-001  0.000000e+000  8.314696e-001
    outer loop
      vertex  1.617317e+001  2.500000e+001 -9.238795e+000
      vertex  1.292893e+001  3.000000e+001 -7.071068e+000
      vertex  1.292893e+001  2.500000e+001 -7.071068e+000
    endloop
  endfacet
  facet normal  8.314696e-001  -0.000000e+000  5.555702e-001
    outer loop
      vertex  1.292893e+001  2.500000e+001 -7.071068e+000
      vertex  1.292893e+001  3.000000e+001 -7.071068e+000
      vertex  1.076120e+001  3.000000e+001 -3.826834e+000
    endloop
  endfacet
  facet normal  8.314696e-001  0.000000e+000  5.555702e-001
    outer loop
      vertex  1.292893e+001  2.500000e+001 -7.071068e+000
      vertex  1.076120e+001  3.000000e+001 -3.826834e+000
      vertex  1.076120e+001  2.500000e+001 -3.826834e+000
    endloop
  endfacet
  facet normal  9.807853e-001  -0.000000e+000  1.950903e-001
    outer loop
      vertex  1.076120e+001  2.500000e+001 -3.826834e+000
      vertex  1.076120e+001  3.000000e+001 -3.826834e+000
      vertex  1.000000e+001  3.000000e+001  0.000000e+000
    endloop
  endfacet
  facet normal  9.807853e-001  0.000000e+000  1.950903e-001
    outer loop
      vertex  1.076120e+001  2.500000e+001 -3.826834e+000
      vertex  1.000000e+001  3.000000e+001  0.000000e+000
      vertex  1.000000e+001  2.500000e+001  0.000000e+000
    endloop
  endfacet
  facet normal  1.950904e-001  -0.000000e+000  9.807853e-001
    outer loop
      vertex  1.617317e+001  3.000000e+001 -9.238795e+000
      vertex  2.000000e+001  2.500000e+001 -1.000000e+001
      vertex  2.000000e+001  3.000000e+001 -1.000000e+001
    endloop
  endfacet
  facet normal -1.950904e-001  0.000000e+000  9.807853e-001
    outer loop
      vertex  2.000000e+001  3.000000e+001 -1.000000e+001
      vertex  2.000000e+001  2.500000e+001 -1.000000e+001
      vertex  2.382683e+001  2.500000e+001 -9.238795e+000
    endloop
  endfacet
  facet normal -1.950904e-001  0.000000e+000  9.807853e-001
    outer loop
      vertex  2.000000e+001  3.000000e+001 -1.000000e+001
      vertex  2.382683e+001  2.500000e+001 -9.238795e+000
      vertex  2.382683e+001  3.000000e+001 -9.238795e+000
    endloop
  endfacet
  facet normal -5.555701e-001  0.000000e+000  8.314696e-001
    outer loop
      vertex  2.382683e+001  3.000000e+001 -9.238795e+000
      vertex  2.382683e+001  2.500000e+001 -9.238795e+000
      vertex  2.707107e+001  2.500000e+001 -7.071068e+000
    endloop
  endfacet
  facet normal -5.555701e-001  0.000000e+000  8.314696e-001
    outer loop
      vertex  2.382683e+001  3.000000e+001 -9.238795e+000
      vertex  2.707107e+001  2.500000e+001 -7.071068e+000
      vertex  2.707107e+001  3.000000e+001 -7.071068e+000
    endloop
  endfacet
  facet normal -8.314694e-001  0.000000e+000  5.555704e-001
    outer loop
      vertex  2.707107e+001  3.000000e+001 -7.071068e+000
      vertex  2.707107e+001  2.500000e+001 -7.071068e+000
      vertex  2.923880e+001  2.500000e+001 -3.826834e+000
    endloop
  endfacet
  facet normal -8.314694e-001  0.000000e+000  5.555704e-001
    outer loop
      vertex  2.707107e+001  3.000000e+001 -7.071068e+000
      vertex  2.923880e+001  2.500000e+001 -3.826834e+000
      vertex  2.923880e+001  3.000000e+001 -3.826834e+000
    endloop
  endfacet
  facet normal -9.807854e-001  0.000000e+000  1.950901e-001
    outer loop
      vertex  2.923880e+001  3.000000e+001 -3.826834e+000
      vertex  2.923880e+001  2.500000e+001 -3.826834e+000
      vertex  3.000000e+001  2.500000e+001  1.224606e-015
    endloop
  endfacet
  facet normal -9.807854e-001  0.000000e+000  1.950901e-001
    outer loop
      vertex  2.923880e+001  3.000000e+001 -3.826834e+000
      vertex  3.000000e+001  2.500000e+001  1.224606e-015
      vertex  3.000000e+001  3.000000e+001  1.224606e-015
    endloop
  endfacet
  facet normal -1.950904e-001  -0.000000e+000 -9.807853e-001
    outer loop
      vertex  2.000000e+001  2.500000e+001  1.000000e+001
      vertex  2.382683e+001  3.000000e+001  9.238795e+000
      vertex  2.382683e+001  2.500000e+001  9.238795e+000
    endloop
  endfacet
  facet normal -5.555701e-001  0.000000e+000 -8.314696e-001
    outer loop
      vertex  2.382683e+001  2.500000e+001  9.238795e+000
      vertex  2.382683e+001  3.000000e+001  9.238795e+000
      vertex  2.707107e+001  3.000000e+001  7.071068e+000
    endloop
  endfacet
  facet normal -5.555701e-001  -0.000000e+000 -8.314696e-001
    outer loop
      vertex  2.382683e+001  2.500000e+001  9.238795e+000
      vertex  2.707107e+001  3.000000e+001  7.071068e+000
      vertex  2.707107e+001  2.500000e+001  7.071068e+000
    endloop
  endfacet
  facet normal -8.314694e-001  0.000000e+000 -5.555704e-001
    outer loop
      vertex  2.707107e+001  2.500000e+001  7.071068e+000
      vertex  2.707107e+001  3.000000e+001  7.071068e+000
      vertex  2.923880e+001  3.000000e+001  3.826834e+000
    endloop
  endfacet
  facet normal -8.314694e-001  -0.000000e+000 -5.555704e-001
    outer loop
      vertex  2.707107e+001  2.500000e+001  7.071068e+000
      vertex  2.923880e+001  3.000000e+001  3.826834e+000
      vertex  2.923880e+001  2.500000e+001  3.826834e+000
    endloop
  endfacet
  facet normal -9.807854e-001  0.000000e+000 -1.950901e-001
    outer loop
      vertex  2.923880e+001  2.500000e+001  3.826834e+000
      vertex  2.923880e+001  3.000000e+001  3.826834e+000
      vertex  3.000000e+001  3.000000e+001  1.224606e-015
    endloop
  endfacet
  facet normal -9.807854e-001  -0.000000e+000 -1.950901e-001
    outer loop
      vertex  2.923880e+001  2.500000e+001  3.826834e+000
      vertex  3.000000e+001  3.000000e+001  1.224606e-015
      vertex  3.000000e+001  2.500000e+001  1.224606e-015
    endloop
  endfacet
  facet normal -1.950904e-001  0.000000e+000 -9.807853e-001
    outer loop
      vertex  2.382683e+001  3.000000e+001  9.238795e+000
      vertex  2.000000e+001  2.500000e+001  1.000000e+001
      vertex  2.000000e+001  3.000000e+001  1.000000e+001
    endloop
  endfacet
  facet normal  1.950904e-001  0.000000e+000 -9.807853e-001
    outer loop
      vertex  2.000000e+001  3.000000e+001  1.000000e+001
      vertex  2.000000e+001  2.500000e+001  1.000000e+001
      vertex  1.617317e+001  2.500000e+001  9.238795e+000
    endloop
  endfacet
  facet normal  1.950904e-001  0.000000e+000 -9.807853e-001
    outer loop
      vertex  2.000000e+001  3.000000e+001  1.000000e+001
      vertex  1.617317e+001  2.500000e+001  9.238795e+000
      vertex  1.617317e+001  3.000000e+001  9.238795e+000
    endloop
  endfacet
  facet normal  5.555701e-001  0.000000e+000 -8.314696e-001
    outer loop
      vertex  1.617317e+001  3.000000e+001  9.238795e+000
      vertex  1.617317e+001  2.500000e+001  9.238795e+000
      vertex  1.292893e+001  2.500000e+001  7.071068e+000
    endloop
  endfacet
  facet normal  5.555701e-001  0.000000e+000 -8.314696e-001
    outer loop
      vertex  1.617317e+001  3.000000e+001  9.238795e+000
      vertex  1.292893e+001  2.500000e+001  7.071068e+000
      vertex  1.292893e+001  3.000000e+001  7.071068e+000
    endloop
  endfacet
  facet normal  8.314696e-001  0.000000e+000 -5.555702e-001
    outer loop
      vertex  1.292893e+001  3.000000e+001  7.071068e+000
      vertex  1.292893e+001  2.500000e+001  7.071068e+000
      vertex  1.076120e+001  2.500000e+001  3.826834e+000
    endloop
  endfacet
  facet normal  8.314696e-001  0.000000e+000 -5.555702e-001
    outer loop
      vertex  1.292893e+001  3.000000e+001  7.071068e+000
      vertex  1.076120e+001  2.500000e+001  3.826834e+000
      vertex  1.076120e+001  3.000000e+001  3.826834e+000
    endloop
  endfacet
  facet normal  9.807853e-001  0.000000e+000 -1.950903e-001
    outer loop
      vertex  1.076120e+001  3.000000e+001  3.826834e+000
      vertex  1.076120e+001  2.500000e+001  3.826834e+000
      vertex  1.000000e+001  2.500000e+001  0.000000e+000
    endloop
  endfacet
  facet normal  9.807853e-001  0.000000e+000 -1.950903e-001
    outer loop
      vertex  1.076120e+001  3.000000e+001  3.826834e+000
      vertex  1.000000e+001  2.500000e+001  0.000000e+000
      vertex  1.000000e+001  3.000000e+001  0.000000e+000
    endloop
  endfacet
  facet normal  0.000000e+000  1.000000e+000  0.000000e+000
    outer loop
      vertex  1.292893e+001  2.500000e+001  7.071068e+000
      vertex  1.617317e+001  2.500000e+001  9.238795e+000
      vertex  2.000000e+001  2.500000e+001  5.000000e+000
    endloop
  endfacet
  facet normal  0.000000e+000  1.000000e+000  -0.000000e+000
    outer loop
      vertex  2.000000e+001  2.500000e+001  5.000000e+000
      vertex  1.617317e+001  2.500000e+001  9.238795e+000
      vertex  2.000000e+001  2.500000e+001  1.000000e+001
    endloop
  endfacet
  facet normal  0.000000e+000  1.000000e+000  0.000000e+000
    outer loop
      vertex  2.000000e+001  2.500000e+001  5.000000e+000
      vertex  2.000000e+001  2.500000e+001  1.000000e+001
      vertex  2.707107e+001  2.500000e+001  7.071068e+000
    endloop
  endfacet
  facet normal  0.000000e+000  1.000000e+000  0.000000e+000
    outer loop
      vertex  2.707107e+001  2.500000e+001  7.071068e+000
      vertex  2.000000e+001  2.500000e+001  1.000000e+001
      vertex  2.382683e+001  2.500000e+001  9.238795e+000
    endloop
  endfacet
  facet normal  0.000000e+000  1.000000e+000  0.000000e+000
    outer loop
      vertex  2.000000e+001  2.500000e+001  5.000000e+000
      vertex  2.707107e+001  2.500000e+001  7.071068e+000
      vertex  2.250000e+001  2.500000e+001  4.330127e+000
    endloop
  endfacet
  facet normal  -0.000000e+000  1.000000e+000  0.000000e+000
    outer loop
      vertex  2.250000e+001  2.500000e+001  4.330127e+000
      vertex  2.707107e+001  2.500000e+001  7.071068e+000
      vertex  2.923880e+001  2.500000e+001  3.826834e+000
    endloop
  endfacet
  facet normal  0.000000e+000  1.000000e+000  0.000000e+000
    outer loop
      vertex  2.250000e+001  2.500000e+001  4.330127e+000
      vertex  2.923880e+001  2.500000e+001  3.826834e+000
      vertex  2.433013e+001  2.500000e+001  2.500000e+000
    endloop
  endfacet
  facet normal  -0.000000e+000  9.999999e-001  0.000000e+000
    outer loop
      vertex  2.433013e+001  2.500000e+001  2.500000e+000
      vertex  2.923880e+001  2.500000e+001  3.826834e+000
      vertex  3.000000e+001  2.500000e+001  1.224606e-015
    endloop
  endfacet
  facet normal  0.000000e+000  1.000000e+000  0.000000e+000
    outer loop
      vertex  2.433013e+001  2.500000e+001  2.500000e+000
      vertex  3.000000e+001  2.500000e+001  1.224606e-015
      vertex  2.500000e+001  2.500000e+001  6.123032e-016
    endloop
  endfacet
  facet normal  0.000000e+000  1.000000e+000  0.000000e+000
    outer loop
      vertex  2.500000e+001  2.500000e+001  6.123032e-016
      vertex  3.000000e+001  2.500000e+001  1.224606e-015
      vertex  2.433013e+001  2.500000e+001 -2.500000e+000
    endloop
  endfacet
  facet normal  -0.000000e+000  9.999999e-001  0.000000e+000
    outer loop
      vertex  2.433013e+001  2.500000e+001 -2.500000e+000
      vertex  3.000000e+001  2.500000e+001  1.224606e-015
      vertex  2.923880e+001  2.500000e+001 -3.826834e+000
    endloop
  endfacet
  facet normal  0.000000e+000  1.000000e+000  0.000000e+000
    outer loop
      vertex  2.433013e+001  2.500000e+001 -2.500000e+000
      vertex  2.923880e+001  2.500000e+001 -3.826834e+000
      vertex  2.250000e+001  2.500000e+001 -4.330127e+000
    endloop
  endfacet
  facet normal  0.000000e+000  1.000000e+000  0.000000e+000
    outer loop
      vertex  2.250000e+001  2.500000e+001 -4.330127e+000
      vertex  2.923880e+001  2.500000e+001 -3.826834e+000
      vertex  2.000000e+001  2.500000e+001 -5.000000e+000
    endloop
  endfacet
  facet normal  -0.000000e+000  9.999999e-001  0.000000e+000
    outer loop
      vertex  2.000000e+001  2.500000e+001 -5.000000e+000
      vertex  2.923880e+001  2.500000e+001 -3.826834e+000
      vertex  2.707107e+001  2.500000e+001 -7.071068e+000
    endloop
  endfacet
  facet normal  0.000000e+000  1.000000e+000  0.000000e+000
    outer loop
      vertex  2.000000e+001  2.500000e+001 -5.000000e+000
      vertex  2.707107e+001  2.500000e+001 -7.071068e+000
      vertex  2.000000e+001  2.500000e+001 -1.000000e+001
    endloop
  endfacet
  facet normal  0.000000e+000  1.000000e+000  0.000000e+000
    outer loop
      vertex  2.000000e+001  2.500000e+001 -1.000000e+001
      vertex  2.707107e+001  2.500000e+001 -7.071068e+000
      vertex  2.382683e+001  2.500000e+001 -9.238795e+000
    endloop
  endfacet
  facet normal  0.000000e+000  1.000000e+000  0.000000e+000
    outer loop
      vertex  1.292893e+001  2.500000e+001  7.071068e+000
      vertex  2.000000e+001  2.500000e+001  5.000000e+000
      vertex  1.076120e+001  2.500000e+001  3.826834e+000
    endloop
  endfacet
  facet normal  0.000000e+000  1.000000e+000  0.000000e+000
    outer loop
      vertex  1.076120e+001  2.500000e+001  3.826834e+000
      vertex  2.000000e+001  2.500000e+001  5.000000e+000
      vertex  1.750000e+001  2.500000e+001  4.330127e+000
    endloop
  endfacet
  facet normal  0.000000e+000  9.999999e-001  0.000000e+000
    outer loop
      vertex  1.076120e+001  2.500000e+001  3.826834e+000
      vertex  1.750000e+001  2.500000e+001  4.330127e+000
      vertex  1.000000e+001  2.500000e+001  0.000000e+000
    endloop
  endfacet
  facet normal  0.000000e+000  1.000000e+000  0.000000e+000
    outer loop
      vertex  1.000000e+001  2.500000e+001  0.000000e+000
      vertex  1.750000e+001  2.500000e+001  4.330127e+000
      vertex  1.566987e+001  2.500000e+001  2.500000e+000
    endloop
  endfacet
  facet normal  0.000000e+000  1.000000e+000  0.000000e+000
    outer loop
      vertex  1.000000e+001  2.500000e+001  0.000000e+000
      vertex  1.566987e+001  2.500000e+001  2.500000e+000
      vertex  1.500000e+001  2.500000e+001  0.000000e+000
    endloop
  endfacet
  facet normal  0.000000e+000  1.000000e+000  0.000000e+000
    outer loop
      vertex  1.000000e+001  2.500000e+001  0.000000e+000
      vertex  1.500000e+001  2.500000e+001  0.000000e+000
      vertex  1.076120e+001  2.500000e+001 -3.826834e+000
    endloop
  endfacet
  facet normal  0.000000e+000  1.000000e+000  0.000000e+000
    outer loop
      vertex  1.076120e+001  2.500000e+001 -3.826834e+000
      vertex  1.500000e+001  2.500000e+001  0.000000e+000
      vertex  1.566987e+001  2.500000e+001 -2.500000e+000
    endloop
  endfacet
  facet normal  0.000000e+000  1.000000e+000  0.000000e+000
    outer loop
      vertex  1.076120e+001  2.500000e+001 -3.826834e+000
      vertex  1.566987e+001  2.500000e+001 -2.500000e+000
      vertex  1.750000e+001  2.500000e+001 -4.330127e+000
    endloop
  endfacet
  facet normal  0.000000e+000  9.999999e-001  0.000000e+000
    outer loop
      vertex  1.076120e+001  2.500000e+001 -3.826834e+000
      vertex  1.750000e+001  2.500000e+001 -4.330127e+000
      vertex  1.292893e+001  2.500000e+001 -7.071068e+000
    endloop
  endfacet
  facet normal  0.000000e+000  1.000000e+000  0.000000e+000
    outer loop
      vertex  1.292893e+001  2.500000e+001 -7.071068e+000
      vertex  1.750000e+001  2.500000e+001 -4.330127e+000
      vertex  2.000000e+001  2.500000e+001 -5.000000e+000
    endloop
  endfacet
  facet normal  0.000000e+000  1.000000e+000  0.000000e+000
    outer loop
      vertex  1.292893e+001  2.500000e+001 -7.071068e+000
      vertex  2.000000e+001  2.500000e+001 -5.000000e+000
      vertex  1.617317e+001  2.500000e+001 -9.238795e+000
    endloop
  endfacet
  facet normal  -0.000000e+000  1.000000e+000  0.000000e+000
    outer loop
      vertex  1.617317e+001  2.500000e+001 -9.238795e+000
      vertex  2.000000e+001  2.500000e+001 -5.000000e+000
      vertex  2.000000e+001  2.500000e+001 -1.000000e+001
    endloop
  endfacet
  facet normal  1.000000e+000  0.000000e+000  -0.000000e+000
    outer loop
      vertex  5.000000e+001 -5.000000e+001  1.000000e+001
      vertex  5.000000e+001 -2.000000e+001 -1.000000e+001
      vertex  5.000000e+001  1.000000e+001  0.000000e+000
    endloop
  endfacet
  facet normal  1.000000e+000  0.000000e+000  0.000000e+000
    outer loop
      vertex  5.000000e+001 -5.000000e+001  1.000000e+001
      vertex  5.000000e+001 -5.000000e+001 -2.000000e+001
      vertex  5.000000e+001 -2.000000e+001 -1.000000e+001
    endloop
  endfacet
  facet normal  1.000000e+000  0.000000e+000  0.000000e+000
    outer loop
      vertex  5.000000e+001  0.000000e+000 -1.000000e+001
      vertex  5.000000e+001  1.000000e+001  0.000000e+000
      vertex  5.000000e+001 -2.000000e+001 -1.000000e+001
    endloop
  endfacet
  facet normal  1.000000e+000  0.000000e+000  0.000000e+000
    outer loop
      vertex  5.000000e+001 -2.000000e+001 -1.000000e+001
      vertex  5.000000e+001 -5.000000e+001 -2.000000e+001
      vertex  5.000000e+001 -2.000000e+001 -2.000000e+001
    endloop
  endfacet
  facet normal  1.000000e+000  -0.000000e+000  0.000000e+000
    outer loop
      vertex  5.000000e+001 -4.000000e+001  2.000000e+001
      vertex  5.000000e+001 -4.382684e+001  1.923880e+001
      vertex  5.000000e+001  1.000000e+001  1.000000e+001
    endloop
  endfacet
  facet normal  1.000000e+000  0.000000e+000  -0.000000e+000
    outer loop
      vertex  5.000000e+001 -4.000000e+001  2.000000e+001
      vertex  5.000000e+001  1.000000e+001  1.000000e+001
      vertex  5.000000e+001  2.000000e+001  1.000000e+001
    endloop
  endfacet
  facet normal  1.000000e+000  0.000000e+000  -0.000000e+000
    outer loop
      vertex  5.000000e+001 -4.000000e+001  2.000000e+001
      vertex  5.000000e+001  2.000000e+001  1.000000e+001
      vertex  5.000000e+001  3.000000e+001  2.000000e+001
    endloop
  endfacet
  facet normal  1.000000e+000  0.000000e+000  0.000000e+000
    outer loop
      vertex  5.000000e+001  1.000000e+001  1.000000e+001
      vertex  5.000000e+001 -4.382684e+001  1.923880e+001
      vertex  5.000000e+001 -4.707107e+001  1.707107e+001
    endloop
  endfacet
  facet normal  1.000000e+000  0.000000e+000  0.000000e+000
    outer loop
      vertex  5.000000e+001  1.000000e+001  1.000000e+001
      vertex  5.000000e+001 -4.707107e+001  1.707107e+001
      vertex  5.000000e+001 -4.923880e+001  1.382683e+001
    endloop
  endfacet
  facet normal  9.999999e-001  0.000000e+000  0.000000e+000
    outer loop
      vertex  5.000000e+001  1.000000e+001  1.000000e+001
      vertex  5.000000e+001 -4.923880e+001  1.382683e+001
      vertex  5.000000e+001 -5.000000e+001  1.000000e+001
    endloop
  endfacet
  facet normal  1.000000e+000  -0.000000e+000  0.000000e+000
    outer loop
      vertex  5.000000e+001  1.000000e+001  1.000000e+001
      vertex  5.000000e+001 -5.000000e+001  1.000000e+001
      vertex  5.000000e+001  1.000000e+001  0.000000e+000
    endloop
  endfacet
  facet normal  1.000000e+000  -0.000000e+000  0.000000e+000
    outer loop
      vertex  5.000000e+001  3.000000e+001  2.000000e+001
      vertex  5.000000e+001  2.000000e+001  1.000000e+001
      vertex  5.000000e+001  3.000000e+001 -2.000000e+001
    endloop
  endfacet
  facet normal  1.000000e+000  0.000000e+000  0.000000e+000
    outer loop
      vertex  5.000000e+001  3.000000e+001 -2.000000e+001
      vertex  5.000000e+001  2.000000e+001  1.000000e+001
      vertex  5.000000e+001  2.000000e+001  0.000000e+000
    endloop
  endfacet
  facet normal  1.000000e+000  0.000000e+000  0.000000e+000
    outer loop
      vertex  5.000000e+001  3.000000e+001 -2.000000e+001
      vertex  5.000000e+001  2.000000e+001  0.000000e+000
      vertex  5.000000e+001  0.000000e+000 -2.000000e+001
    endloop
  endfacet
  facet normal  1.000000e+000  0.000000e+000  0.000000e+000
    outer loop
      vertex  5.000000e+001  0.000000e+000 -2.000000e+001
      vertex  5.000000e+001  2.000000e+001  0.000000e+000
      vertex  5.000000e+001  1.000000e+001  0.000000e+000
    endloop
  endfacet
  facet normal  1.000000e+000  0.000000e+000  0.000000e+000
    outer loop
      vertex  5.000000e+001  0.000000e+000 -2.000000e+001
      vertex  5.000000e+001  1.000000e+001  0.000000e+000
      vertex  5.000000e+001  0.000000e+000 -1.000000e+001
    endloop
  endfacet
  facet normal  0.000000e+000  -0.000000e+000 -1.000000e+000
    outer loop
      vertex -1.000000e+001 -5.000000e+001 -2.000000e+001
      vertex  5.000000e+001 -2.000000e+001 -2.000000e+001
      vertex  5.000000e+001 -5.000000e+001 -2.000000e+001
    endloop
  endfacet
  facet normal  0.000000e+000  0.000000e+000 -1.000000e+000
    outer loop
      vertex  5.000000e+001 -2.000000e+001 -2.000000e+001
      vertex -1.000000e+001 -5.000000e+001 -2.000000e+001
      vertex  2.500000e+001 -2.000000e+001 -2.000000e+001
    endloop
  endfacet
  facet normal  -0.000000e+000  0.000000e+000 -1.000000e+000
    outer loop
      vertex  2.500000e+001 -2.000000e+001 -2.000000e+001
      vertex -1.000000e+001 -5.000000e+001 -2.000000e+001
      vertex -1.000000e+001  3.000000e+001 -2.000000e+001
    endloop
  endfacet
  facet normal  0.000000e+000  0.000000e+000 -1.000000e+000
    outer loop
      vertex  2.500000e+001 -2.000000e+001 -2.000000e+001
      vertex -1.000000e+001  3.000000e+001 -2.000000e+001
      vertex  2.500000e+001  0.000000e+000 -2.000000e+001
    endloop
  endfacet
  facet normal  0.000000e+000  0.000000e+000 -1.000000e+000
    outer loop
      vertex  2.500000e+001  0.000000e+000 -2.000000e+001
      vertex -1.000000e+001  3.000000e+001 -2.000000e+001
      vertex  5.000000e+001  3.000000e+001 -2.000000e+001
    endloop
  endfacet
  facet normal  0.000000e+000  -0.000000e+000 -1.000000e+000
    outer loop
      vertex  2.500000e+001  0.000000e+000 -2.000000e+001
      vertex  5.000000e+001  3.000000e+001 -2.000000e+001
      vertex  5.000000e+001  0.000000e+000 -2.000000e+001
    endloop
  endfacet
  facet normal  0.000000e+000  1.000000e+000  -0.000000e+000
    outer loop
      vertex  5.000000e+001 -2.000000e+001 -1.000000e+001
      vertex  5.000000e+001 -2.000000e+001 -2.000000e+001
      vertex  2.500000e+001 -2.000000e+001 -1.000000e+001
    endloop
  endfacet
  facet normal  0.000000e+000  1.000000e+000  0.000000e+000
    outer loop
      vertex  2.500000e+001 -2.000000e+001 -1.000000e+001
      vertex  5.000000e+001 -2.000000e+001 -2.000000e+001
      vertex  2.500000e+001 -2.000000e+001 -2.000000e+001
    endloop
  endfacet
  facet normal  0.000000e+000 -1.000000e+000  -0.000000e+000
    outer loop
      vertex  5.000000e+001  0.000000e+000 -2.000000e+001
      vertex  5.000000e+001  0.000000e+000 -1.000000e+001
      vertex  2.500000e+001  0.000000e+000 -2.000000e+001
    endloop
  endfacet
  facet normal  0.000000e+000 -1.000000e+000  0.000000e+000
    outer loop
      vertex  2.500000e+001  0.000000e+000 -2.000000e+001
      vertex  5.000000e+001  0.000000e+000 -1.000000e+001
      vertex  2.500000e+001  0.000000e+000 -1.000000e+001
    endloop
  endfacet
  facet normal  1.000000e+000  0.000000e+000  0.000000e+000
    outer loop
      vertex  2.500000e+001 -2.000000e+001 -2.000000e+001
      vertex  2.500000e+001  0.000000e+000 -2.000000e+001
      vertex  2.500000e+001 -2.000000e+001 -1.000000e+001
    endloop
  endfacet
  facet normal  1.000000e+000  -0.000000e+000  0.000000e+000
    outer loop
      vertex  2.500000e+001 -2.000000e+001 -1.000000e+001
      vertex  2.500000e+001  0.000000e+000 -2.000000e+001
      vertex  2.500000e+001  0.000000e+000 -1.000000e+001
    endloop
  endfacet
  facet normal  0.000000e+000  0.000000e+000 -1.000000e+000
    outer loop
      vertex  5.000000e+001 -2.000000e+001 -1.000000e+001
      vertex  2.500000e+001 -2.000000e+001 -1.000000e+001
      vertex  5.000000e+001  0.000000e+000 -1.000000e+001
    endloop
  endfacet
  facet normal  -0.000000e+000  0.000000e+000 -1.000000e+000
    outer loop
      vertex  5.000000e+001  0.000000e+000 -1.000000e+001
      vertex  2.500000e+001 -2.000000e+001 -1.000000e+001
      vertex  2.500000e+001  0.000000e+000 -1.000000e+001
    endloop
  endfacet
  facet normal  0.000000e+000 -1.000000e+000  0.000000e+000
    outer loop
      vertex  3.000000e+001 -5.000000e+001 -3.552714e-015
      vertex  4.000000e+001 -5.000000e+001 -1.000000e+001
      vertex  5.000000e+001 -5.000000e+001  1.000000e+001
    endloop
  endfacet
  facet normal  0.000000e+000 -1.000000e+000  0.000000e+000
    outer loop
      vertex -2.000000e+001 -5.000000e+001 -1.000000e+001
      vertex -1.000000e+001 -5.000000e+001 -2.000000e+001
      vertex  2.000000e+001 -5.000000e+001 -1.000000e+001
    endloop
  endfacet
  facet normal  0.000000e+000 -1.000000e+000  0.000000e+000
    outer loop
      vertex -2.000000e+001 -5.000000e+001 -1.000000e+001
      vertex  2.000000e+001 -5.000000e+001 -1.000000e+001
      vertex  3.000000e+001 -5.000000e+001 -3.552714e-015
    endloop
  endfacet
  facet normal  -0.000000e+000 -1.000000e+000  0.000000e+000
    outer loop
      vertex -2.000000e+001 -5.000000e+001 -1.000000e+001
      vertex  3.000000e+001 -5.000000e+001 -3.552714e-015
      vertex  5.000000e+001 -5.000000e+001  1.000000e+001
    endloop
  endfacet
  facet normal  -0.000000e+000 -1.000000e+000  0.000000e+000
    outer loop
      vertex -2.000000e+001 -5.000000e+001 -1.000000e+001
      vertex  5.000000e+001 -5.000000e+001  1.000000e+001
      vertex -2.000000e+001 -5.000000e+001  1.000000e+001
    endloop
  endfacet
  facet normal  0.000000e+000 -1.000000e+000  0.000000e+000
    outer loop
      vertex  5.000000e+001 -5.000000e+001  1.000000e+001
      vertex  4.000000e+001 -5.000000e+001 -1.000000e+001
      vertex  5.000000e+001 -5.000000e+001 -2.000000e+001
    endloop
  endfacet
  facet normal  0.000000e+000 -1.000000e+000  0.000000e+000
    outer loop
      vertex  5.000000e+001 -5.000000e+001 -2.000000e+001
      vertex  4.000000e+001 -5.000000e+001 -1.000000e+001
      vertex  2.000000e+001 -5.000000e+001 -1.000000e+001
    endloop
  endfacet
  facet normal  0.000000e+000 -1.000000e+000  -0.000000e+000
    outer loop
      vertex  5.000000e+001 -5.000000e+001 -2.000000e+001
      vertex  2.000000e+001 -5.000000e+001 -1.000000e+001
      vertex -1.000000e+001 -5.000000e+001 -2.000000e+001
    endloop
  endfacet
  facet normal  7.071067e-001  0.000000e+000 -7.071067e-001
    outer loop
      vertex  2.000000e+001 -5.000000e+001 -1.000000e+001
      vertex  2.000000e+001 -2.500000e+001 -1.000000e+001
      vertex  3.000000e+001 -5.000000e+001 -3.552714e-015
    endloop
  endfacet
  facet normal  7.071067e-001  1.004859e-016 -7.071067e-001
    outer loop
      vertex  3.000000e+001 -5.000000e+001 -3.552714e-015
      vertex  2.000000e+001 -2.500000e+001 -1.000000e+001
      vertex  3.000000e+001 -2.500000e+001  0.000000e+000
    endloop
  endfacet
  facet normal -7.071067e-001  1.004859e-016 -7.071067e-001
    outer loop
      vertex  3.000000e+001 -5.000000e+001 -3.552714e-015
      vertex  3.000000e+001 -2.500000e+001  0.000000e+000
      vertex  4.000000e+001 -5.000000e+001 -1.000000e+001
    endloop
  endfacet
  facet normal -7.071067e-001  0.000000e+000 -7.071067e-001
    outer loop
      vertex  4.000000e+001 -5.000000e+001 -1.000000e+001
      vertex  3.000000e+001 -2.500000e+001  0.000000e+000
      vertex  4.000000e+001 -2.500000e+001 -1.000000e+001
    endloop
  endfacet
  facet normal  0.000000e+000  0.000000e+000  1.000000e+000
    outer loop
      vertex  4.000000e+001 -5.000000e+001 -1.000000e+001
      vertex  4.000000e+001 -2.500000e+001 -1.000000e+001
      vertex  2.000000e+001 -5.000000e+001 -1.000000e+001
    endloop
  endfacet
  facet normal  0.000000e+000  0.000000e+000  1.000000e+000
    outer loop
      vertex  2.000000e+001 -5.000000e+001 -1.000000e+001
      vertex  4.000000e+001 -2.500000e+001 -1.000000e+001
      vertex  2.000000e+001 -2.500000e+001 -1.000000e+001
    endloop
  endfacet
  facet normal  0.000000e+000 -1.000000e+000  0.000000e+000
    outer loop
      vertex  2.000000e+001 -2.500000e+001 -1.000000e+001
      vertex  4.000000e+001 -2.500000e+001 -1.000000e+001
      vertex  3.000000e+001 -2.500000e+001  0.000000e+000
    endloop
  endfacet
  facet normal -1.000000e+000  0.000000e+000  0.000000e+000
    outer loop
      vertex -2.000000e+001 -5.000000e+001 -1.000000e+001
      vertex -2.000000e+001 -5.000000e+001  1.000000e+001
      vertex -2.000000e+001 -4.000000e+001  2.000000e+001
    endloop
  endfacet
  facet normal -9.999999e-001  0.000000e+000  0.000000e+000
    outer loop
      vertex -2.000000e+001 -4.000000e+001  2.000000e+001
      vertex -2.000000e+001 -5.000000e+001  1.000000e+001
      vertex -2.000000e+001 -4.923880e+001  1.382683e+001
    endloop
  endfacet
  facet normal -1.000000e+000  0.000000e+000  0.000000e+000
    outer loop
      vertex -2.000000e+001 -4.000000e+001  2.000000e+001
      vertex -2.000000e+001 -4.923880e+001  1.382683e+001
      vertex -2.000000e+001 -4.382684e+001  1.923880e+001
    endloop
  endfacet
  facet normal -1.000000e+000  0.000000e+000  0.000000e+000
    outer loop
      vertex -2.000000e+001 -4.382684e+001  1.923880e+001
      vertex -2.000000e+001 -4.923880e+001  1.382683e+001
      vertex -2.000000e+001 -4.707107e+001  1.707107e+001
    endloop
  endfacet
  facet normal -1.000000e+000  -0.000000e+000  0.000000e+000
    outer loop
      vertex -2.000000e+001 -4.000000e+001  2.000000e+001
      vertex -2.000000e+001  3.000000e+001  2.000000e+001
      vertex -2.000000e+001 -5.000000e+001 -1.000000e+001
    endloop
  endfacet
  facet normal -1.000000e+000  0.000000e+000  0.000000e+000
    outer loop
      vertex -2.000000e+001 -5.000000e+001 -1.000000e+001
      vertex -2.000000e+001  3.000000e+001  2.000000e+001
      vertex -2.000000e+001  3.000000e+001 -1.000000e+001
    endloop
  endfacet
  facet normal -7.071068e-001  0.000000e+000 -7.071068e-001
    outer loop
      vertex -2.000000e+001  3.000000e+001 -1.000000e+001
      vertex -1.000000e+001  3.000000e+001 -2.000000e+001
      vertex -2.000000e+001 -5.000000e+001 -1.000000e+001
    endloop
  endfacet
  facet normal -7.071068e-001  0.000000e+000 -7.071068e-001
    outer loop
      vertex -2.000000e+001 -5.000000e+001 -1.000000e+001
      vertex -1.000000e+001  3.000000e+001 -2.000000e+001
      vertex -1.000000e+001 -5.000000e+001 -2.000000e+001
    endloop
  endfacet
  facet normal  0.000000e+000  0.000000e+000  1.000000e+000
    outer loop
      vertex -2.000000e+001  3.000000e+001  2.000000e+001
      vertex -2.000000e+001 -4.000000e+001  2.000000e+001
      vertex -1.000000e+001  1.000000e+001  2.000000e+001
    endloop
  endfacet
  facet normal  0.000000e+000  -0.000000e+000  1.000000e+000
    outer loop
      vertex -2.000000e+001  3.000000e+001  2.000000e+001
      vertex -1.000000e+001  1.000000e+001  2.000000e+001
      vertex -9.238795e+000  1.382683e+001  2.000000e+001
    endloop
  endfacet
  facet normal  0.000000e+000  -0.000000e+000  1.000000e+000
    outer loop
      vertex -2.000000e+001  3.000000e+001  2.000000e+001
      vertex -9.238795e+000  1.382683e+001  2.000000e+001
      vertex -7.071068e+000  1.707107e+001  2.000000e+001
    endloop
  endfacet
  facet normal  0.000000e+000  -0.000000e+000  1.000000e+000
    outer loop
      vertex -2.000000e+001  3.000000e+001  2.000000e+001
      vertex -7.071068e+000  1.707107e+001  2.000000e+001
      vertex -3.826834e+000  1.923880e+001  2.000000e+001
    endloop
  endfacet
  facet normal  0.000000e+000  -0.000000e+000  1.000000e+000
    outer loop
      vertex -2.000000e+001  3.000000e+001  2.000000e+001
      vertex -3.826834e+000  1.923880e+001  2.000000e+001
      vertex  6.123032e-016  2.000000e+001  2.000000e+001
    endloop
  endfacet
  facet normal  0.000000e+000  -0.000000e+000  1.000000e+000
    outer loop
      vertex -2.000000e+001  3.000000e+001  2.000000e+001
      vertex  6.123032e-016  2.000000e+001  2.000000e+001
      vertex  5.000000e+001  3.000000e+001  2.000000e+001
    endloop
  endfacet
  facet normal  0.000000e+000  0.000000e+000  1.000000e+000
    outer loop
      vertex -2.000000e+001 -4.000000e+001  2.000000e+001
      vertex  5.000000e+001 -4.000000e+001  2.000000e+001
      vertex -1.836910e-015  0.000000e+000  2.000000e+001
    endloop
  endfacet
  facet normal  0.000000e+000  0.000000e+000  1.000000e+000
    outer loop
      vertex -2.000000e+001 -4.000000e+001  2.000000e+001
      vertex -1.836910e-015  0.000000e+000  2.000000e+001
      vertex -3.826834e+000  7.612047e-001  2.000000e+001
    endloop
  endfacet
  facet normal  0.000000e+000  0.000000e+000  1.000000e+000
    outer loop
      vertex -2.000000e+001 -4.000000e+001  2.000000e+001
      vertex -3.826834e+000  7.612047e-001  2.000000e+001
      vertex -7.071068e+000  2.928932e+000  2.000000e+001
    endloop
  endfacet
  facet normal  0.000000e+000  0.000000e+000  1.000000e+000
    outer loop
      vertex -2.000000e+001 -4.000000e+001  2.000000e+001
      vertex -7.071068e+000  2.928932e+000  2.000000e+001
      vertex -9.238795e+000  6.173166e+000  2.000000e+001
    endloop
  endfacet
  facet normal  0.000000e+000  0.000000e+000  1.000000e+000
    outer loop
      vertex -2.000000e+001 -4.000000e+001  2.000000e+001
      vertex -9.238795e+000  6.173166e+000  2.000000e+001
      vertex -1.000000e+001  1.000000e+001  2.000000e+001
    endloop
  endfacet
  facet normal  0.000000e+000  0.000000e+000  1.000000e+000
    outer loop
      vertex  5.000000e+001 -4.000000e+001  2.000000e+001
      vertex  7.071068e+000  1.707107e+001  2.000000e+001
      vertex  9.238795e+000  1.382683e+001  2.000000e+001
    endloop
  endfacet
  facet normal  0.000000e+000  0.000000e+000  1.000000e+000
    outer loop
      vertex  5.000000e+001 -4.000000e+001  2.000000e+001
      vertex  9.238795e+000  1.382683e+001  2.000000e+001
      vertex  1.000000e+001  1.000000e+001  2.000000e+001
    endloop
  endfacet
  facet normal  0.000000e+000  0.000000e+000  1.000000e+000
    outer loop
      vertex  5.000000e+001 -4.000000e+001  2.000000e+001
      vertex  1.000000e+001  1.000000e+001  2.000000e+001
      vertex  9.238795e+000  6.173166e+000  2.000000e+001
    endloop
  endfacet
  facet normal  0.000000e+000  0.000000e+000  9.999999e-001
    outer loop
      vertex  5.000000e+001 -4.000000e+001  2.000000e+001
      vertex  9.238795e+000  6.173166e+000  2.000000e+001
      vertex  7.071068e+000  2.928932e+000  2.000000e+001
    endloop
  endfacet
  facet normal  0.000000e+000  0.000000e+000  9.999999e-001
    outer loop
      vertex  5.000000e+001 -4.000000e+001  2.000000e+001
      vertex  7.071068e+000  2.928932e+000  2.000000e+001
      vertex  3.826834e+000  7.612047e-001  2.000000e+001
    endloop
  endfacet
  facet normal  0.000000e+000  0.000000e+000  1.000000e+000
    outer loop
      vertex  5.000000e+001 -4.000000e+001  2.000000e+001
      vertex  3.826834e+000  7.612047e-001  2.000000e+001
      vertex -1.836910e-015  0.000000e+000  2.000000e+001
    endloop
  endfacet
  facet normal  -0.000000e+000  0.000000e+000  1.000000e+000
    outer loop
      vertex  5.000000e+001  3.000000e+001  2.000000e+001
      vertex  6.123032e-016  2.000000e+001  2.000000e+001
      vertex  3.826834e+000  1.923880e+001  2.000000e+001
    endloop
  endfacet
  facet normal  -0.000000e+000  0.000000e+000  1.000000e+000
    outer loop
      vertex  5.000000e+001  3.000000e+001  2.000000e+001
      vertex  3.826834e+000  1.923880e+001  2.000000e+001
      vertex  7.071068e+000  1.707107e+001  2.000000e+001
    endloop
  endfacet
  facet normal  -0.000000e+000  0.000000e+000  9.999999e-001
    outer loop
      vertex  5.000000e+001  3.000000e+001  2.000000e+001
      vertex  7.071068e+000  1.707107e+001  2.000000e+001
      vertex  5.000000e+001 -4.000000e+001  2.000000e+001
    endloop
  endfacet
  facet normal  0.000000e+000 -9.807853e-001  1.950901e-001
    outer loop
      vertex -2.000000e+001 -5.000000e+001  1.000000e+001
      vertex  5.000000e+001 -5.000000e+001  1.000000e+001
      vertex -2.000000e+001 -4.923880e+001  1.382683e+001
    endloop
  endfacet
  facet normal  0.000000e+000 -9.807853e-001  1.950901e-001
    outer loop
      vertex -2.000000e+001 -4.923880e+001  1.382683e+001
      vertex  5.000000e+001 -5.000000e+001  1.000000e+001
      vertex  5.000000e+001 -4.923880e+001  1.382683e+001
    endloop
  endfacet
  facet normal  0.000000e+000 -8.314694e-001  5.555704e-001
    outer loop
      vertex -2.000000e+001 -4.923880e+001  1.382683e+001
      vertex  5.000000e+001 -4.923880e+001  1.382683e+001
      vertex -2.000000e+001 -4.707107e+001  1.707107e+001
    endloop
  endfacet
  facet normal  0.000000e+000 -8.314694e-001  5.555704e-001
    outer loop
      vertex -2.000000e+001 -4.707107e+001  1.707107e+001
      vertex  5.000000e+001 -4.923880e+001  1.382683e+001
      vertex  5.000000e+001 -4.707107e+001  1.707107e+001
    endloop
  endfacet
  facet normal  0.000000e+000 -5.555706e-001  8.314694e-001
    outer loop
      vertex -2.000000e+001 -4.707107e+001  1.707107e+001
      vertex  5.000000e+001 -4.707107e+001  1.707107e+001
      vertex -2.000000e+001 -4.382684e+001  1.923880e+001
    endloop
  endfacet
  facet normal  0.000000e+000 -5.555706e-001  8.314694e-001
    outer loop
      vertex -2.000000e+001 -4.382684e+001  1.923880e+001
      vertex  5.000000e+001 -4.707107e+001  1.707107e+001
      vertex  5.000000e+001 -4.382684e+001  1.923880e+001
    endloop
  endfacet
  facet normal  0.000000e+000 -1.950900e-001  9.807853e-001
    outer loop
      vertex -2.000000e+001 -4.382684e+001  1.923880e+001
      vertex  5.000000e+001 -4.382684e+001  1.923880e+001
      vertex -2.000000e+001 -4.000000e+001  2.000000e+001
    endloop
  endfacet
  facet normal  0.000000e+000 -1.950900e-001  9.807853e-001
    outer loop
      vertex -2.000000e+001 -4.000000e+001  2.000000e+001
      vertex  5.000000e+001 -4.382684e+001  1.923880e+001
      vertex  5.000000e+001 -4.000000e+001  2.000000e+001
    endloop
  endfacet
  facet normal  0.000000e+000  0.000000e+000 -1.000000e+000
    outer loop
      vertex  5.000000e+001  1.000000e+001  1.000000e+001
      vertex  2.500000e+001  1.000000e+001  1.000000e+001
      vertex  5.000000e+001  2.000000e+001  1.000000e+001
    endloop
  endfacet
  facet normal  -0.000000e+000  0.000000e+000 -1.000000e+000
    outer loop
      vertex  5.000000e+001  2.000000e+001  1.000000e+001
      vertex  2.500000e+001  1.000000e+001  1.000000e+001
      vertex  2.500000e+001  2.000000e+001  1.000000e+001
    endloop
  endfacet
  facet normal  0.000000e+000 -1.000000e+000  -0.000000e+000
    outer loop
      vertex  5.000000e+001  2.000000e+001  0.000000e+000
      vertex  5.000000e+001  2.000000e+001  1.000000e+001
      vertex  2.500000e+001  2.000000e+001  0.000000e+000
    endloop
  endfacet
  facet normal  0.000000e+000 -1.000000e+000  0.000000e+000
    outer loop
      vertex  2.500000e+001  2.000000e+001  0.000000e+000
      vertex  5.000000e+001  2.000000e+001  1.000000e+001
      vertex  2.500000e+001  2.000000e+001  1.000000e+001
    endloop
  endfacet
  facet normal  0.000000e+000  0.000000e+000  1.000000e+000
    outer loop
      vertex  2.500000e+001  1.000000e+001  0.000000e+000
      vertex  5.000000e+001  1.000000e+001  0.000000e+000
      vertex  2.500000e+001  2.000000e+001  0.000000e+000
    endloop
  endfacet
  facet normal  -0.000000e+000  0.000000e+000  1.000000e+000
    outer loop
      vertex  2.500000e+001  2.000000e+001  0.000000e+000
      vertex  5.000000e+001  1.000000e+001  0.000000e+000
      vertex  5.000000e+001  2.000000e+001  0.000000e+000
    endloop
  endfacet
  facet normal  0.000000e+000  1.000000e+000  -0.000000e+000
    outer loop
      vertex  5.000000e+001  1.000000e+001  1.000000e+001
      vertex  5.000000e+001  1.000000e+001  0.000000e+000
      vertex  2.500000e+001  1.000000e+001  1.000000e+001
    endloop
  endfacet
  facet normal  0.000000e+000  1.000000e+000  0.000000e+000
    outer loop
      vertex  2.500000e+001  1.000000e+001  1.000000e+001
      vertex  5.000000e+001  1.000000e+001  0.000000e+000
      vertex  2.500000e+001  1.000000e+001  0.000000e+000
    endloop
  endfacet
  facet normal  1.000000e+000  0.000000e+000  0.000000e+000
    outer loop
      vertex  2.500000e+001  1.000000e+001  0.000000e+000
      vertex  2.500000e+001  2.000000e+001  0.000000e+000
      vertex  2.500000e+001  1.000000e+001  1.000000e+001
    endloop
  endfacet
  facet normal  1.000000e+000  -0.000000e+000  0.000000e+000
    outer loop
      vertex  2.500000e+001  1.000000e+001  1.000000e+001
      vertex  2.500000e+001  2.000000e+001  0.000000e+000
      vertex  2.500000e+001  2.000000e+001  1.000000e+001
    endloop
  endfacet
  facet normal -1.950903e-001  9.807853e-001  0.000000e+000
    outer loop
      vertex -1.836910e-015  0.000000e+000  0.000000e+000
      vertex  3.826834e+000  7.612047e-001  2.000000e+001
      vertex  3.826834e+000  7.612047e-001  0.000000e+000
    endloop
  endfacet
  facet normal -5.555702e-001  8.314696e-001  0.000000e+000
    outer loop
      vertex  3.826834e+000  7.612047e-001  0.000000e+000
      vertex  3.826834e+000  7.612047e-001  2.000000e+001
      vertex  7.071068e+000  2.928932e+000  2.000000e+001
    endloop
  endfacet
  facet normal -5.555702e-001  8.314696e-001  0.000000e+000
    outer loop
      vertex  3.826834e+000  7.612047e-001  0.000000e+000
      vertex  7.071068e+000  2.928932e+000  2.000000e+001
      vertex  7.071068e+000  2.928932e+000  0.000000e+000
    endloop
  endfacet
  facet normal -8.314697e-001  5.555702e-001  0.000000e+000
    outer loop
      vertex  7.071068e+000  2.928932e+000  0.000000e+000
      vertex  7.071068e+000  2.928932e+000  2.000000e+001
      vertex  9.238795e+000  6.173166e+000  2.000000e+001
    endloop
  endfacet
  facet normal -8.314697e-001  5.555702e-001  0.000000e+000
    outer loop
      vertex  7.071068e+000  2.928932e+000  0.000000e+000
      vertex  9.238795e+000  6.173166e+000  2.000000e+001
      vertex  9.238795e+000  6.173166e+000  0.000000e+000
    endloop
  endfacet
  facet normal -9.807853e-001  1.950903e-001  0.000000e+000
    outer loop
      vertex  9.238795e+000  6.173166e+000  0.000000e+000
      vertex  9.238795e+000  6.173166e+000  2.000000e+001
      vertex  1.000000e+001  1.000000e+001  2.000000e+001
    endloop
  endfacet
  facet normal -9.807853e-001  1.950903e-001  0.000000e+000
    outer loop
      vertex  9.238795e+000  6.173166e+000  0.000000e+000
      vertex  1.000000e+001  1.000000e+001  2.000000e+001
      vertex  1.000000e+001  1.000000e+001  0.000000e+000
    endloop
  endfacet
  facet normal -1.950903e-001  9.807853e-001  0.000000e+000
    outer loop
      vertex  3.826834e+000  7.612047e-001  2.000000e+001
      vertex -1.836910e-015  0.000000e+000  0.000000e+000
      vertex -1.836910e-015  0.000000e+000  2.000000e+001
    endloop
  endfacet
  facet normal  1.950903e-001  9.807853e-001  0.000000e+000
    outer loop
      vertex -1.836910e-015  0.000000e+000  2.000000e+001
      vertex -1.836910e-015  0.000000e+000  0.000000e+000
      vertex -3.826834e+000  7.612047e-001  0.000000e+000
    endloop
  endfacet
  facet normal  1.950903e-001  9.807853e-001  -0.000000e+000
    outer loop
      vertex -1.836910e-015  0.000000e+000  2.000000e+001
      vertex -3.826834e+000  7.612047e-001  0.000000e+000
      vertex -3.826834e+000  7.612047e-001  2.000000e+001
    endloop
  endfacet
  facet normal  5.555702e-001  8.314696e-001  0.000000e+000
    outer loop
      vertex -3.826834e+000  7.612047e-001  2.000000e+001
      vertex -3.826834e+000  7.612047e-001  0.000000e+000
      vertex -7.071068e+000  2.928932e+000  0.000000e+000
    endloop
  endfacet
  facet normal  5.555702e-001  8.314696e-001  -0.000000e+000
    outer loop
      vertex -3.826834e+000  7.612047e-001  2.000000e+001
      vertex -7.071068e+000  2.928932e+000  0.000000e+000
      vertex -7.071068e+000  2.928932e+000  2.000000e+001
    endloop
  endfacet
  facet normal  8.314697e-001  5.555702e-001  0.000000e+000
    outer loop
      vertex -7.071068e+000  2.928932e+000  2.000000e+001
      vertex -7.071068e+000  2.928932e+000  0.000000e+000
      vertex -9.238795e+000  6.173166e+000  0.000000e+000
    endloop
  endfacet
  facet normal  8.314697e-001  5.555702e-001  -0.000000e+000
    outer loop
      vertex -7.071068e+000  2.928932e+000  2.000000e+001
      vertex -9.238795e+000  6.173166e+000  0.000000e+000
      vertex -9.238795e+000  6.173166e+000  2.000000e+001
    endloop
  endfacet
  facet normal  9.807853e-001  1.950903e-001  0.000000e+000
    outer loop
      vertex -9.238795e+000  6.173166e+000  2.000000e+001
      vertex -9.238795e+000  6.173166e+000  0.000000e+000
      vertex -1.000000e+001  1.000000e+001  0.000000e+000
    endloop
  endfacet
  facet normal  9.807853e-001  1.950903e-001  -0.000000e+000
    outer loop
      vertex -9.238795e+000  6.173166e+000  2.000000e+001
      vertex -1.000000e+001  1.000000e+001  0.000000e+000
      vertex -1.000000e+001  1.000000e+001  2.000000e+001
    endloop
  endfacet
  facet normal  1.950901e-001 -9.807854e-001  0.000000e+000
    outer loop
      vertex  6.123032e-016  2.000000e+001  0.000000e+000
      vertex -3.826834e+000  1.923880e+001  2.000000e+001
      vertex -3.826834e+000  1.923880e+001  0.000000e+000
    endloop
  endfacet
  facet normal  5.555704e-001 -8.314694e-001  0.000000e+000
    outer loop
      vertex -3.826834e+000  1.923880e+001  0.000000e+000
      vertex -3.826834e+000  1.923880e+001  2.000000e+001
      vertex -7.071068e+000  1.707107e+001  2.000000e+001
    endloop
  endfacet
  facet normal  5.555704e-001 -8.314694e-001  0.000000e+000
    outer loop
      vertex -3.826834e+000  1.923880e+001  0.000000e+000
      vertex -7.071068e+000  1.707107e+001  2.000000e+001
      vertex -7.071068e+000  1.707107e+001  0.000000e+000
    endloop
  endfacet
  facet normal  8.314696e-001 -5.555703e-001  0.000000e+000
    outer loop
      vertex -7.071068e+000  1.707107e+001  0.000000e+000
      vertex -7.071068e+000  1.707107e+001  2.000000e+001
      vertex -9.238795e+000  1.382683e+001  2.000000e+001
    endloop
  endfacet
  facet normal  8.314696e-001 -5.555703e-001  0.000000e+000
    outer loop
      vertex -7.071068e+000  1.707107e+001  0.000000e+000
      vertex -9.238795e+000  1.382683e+001  2.000000e+001
      vertex -9.238795e+000  1.382683e+001  0.000000e+000
    endloop
  endfacet
  facet normal  9.807853e-001 -1.950903e-001  0.000000e+000
    outer loop
      vertex -9.238795e+000  1.382683e+001  0.000000e+000
      vertex -9.238795e+000  1.382683e+001  2.000000e+001
      vertex -1.000000e+001  1.000000e+001  2.000000e+001
    endloop
  endfacet
  facet normal  9.807853e-001 -1.950903e-001  0.000000e+000
    outer loop
      vertex -9.238795e+000  1.382683e+001  0.000000e+000
      vertex -1.000000e+001  1.000000e+001  2.000000e+001
      vertex -1.000000e+001  1.000000e+001  0.000000e+000
    endloop
  endfacet
  facet normal  1.950901e-001 -9.807854e-001  0.000000e+000
    outer loop
      vertex -3.826834e+000  1.923880e+001  2.000000e+001
      vertex  6.123032e-016  2.000000e+001  0.000000e+000
      vertex  6.123032e-016  2.000000e+001  2.000000e+001
    endloop
  endfacet
  facet normal -1.950901e-001 -9.807854e-001  -0.000000e+000
    outer loop
      vertex  6.123032e-016  2.000000e+001  2.000000e+001
      vertex  6.123032e-016  2.000000e+001  0.000000e+000
      vertex  3.826834e+000  1.923880e+001  0.000000e+000
    endloop
  endfacet
  facet normal -1.950901e-001 -9.807854e-001  0.000000e+000
    outer loop
      vertex  6.123032e-016  2.000000e+001  2.000000e+001
      vertex  3.826834e+000  1.923880e+001  0.000000e+000
      vertex  3.826834e+000  1.923880e+001  2.000000e+001
    endloop
  endfacet
  facet normal -5.555704e-001 -8.314694e-001  -0.000000e+000
    outer loop
      vertex  3.826834e+000  1.923880e+001  2.000000e+001
      vertex  3.826834e+000  1.923880e+001  0.000000e+000
      vertex  7.071068e+000  1.707107e+001  0.000000e+000
    endloop
  endfacet
  facet normal -5.555704e-001 -8.314694e-001  0.000000e+000
    outer loop
      vertex  3.826834e+000  1.923880e+001  2.000000e+001
      vertex  7.071068e+000  1.707107e+001  0.000000e+000
      vertex  7.071068e+000  1.707107e+001  2.000000e+001
    endloop
  endfacet
  facet normal -8.314696e-001 -5.555703e-001  -0.000000e+000
    outer loop
      vertex  7.071068e+000  1.707107e+001  2.000000e+001
      vertex  7.071068e+000  1.707107e+001  0.000000e+000
      vertex  9.238795e+000  1.382683e+001  0.000000e+000
    endloop
  endfacet
  facet normal -8.314696e-001 -5.555703e-001  0.000000e+000
    outer loop
      vertex  7.071068e+000  1.707107e+001  2.000000e+001
      vertex  9.238795e+000  1.382683e+001  0.000000e+000
      vertex  9.238795e+000  1.382683e+001  2.000000e+001
    endloop
  endfacet
  facet normal -9.807853e-001 -1.950903e-001  -0.000000e+000
    outer loop
      vertex  9.238795e+000  1.382683e+001  2.000000e+001
      vertex  9.238795e+000  1.382683e+001  0.000000e+000
      vertex  1.000000e+001  1.000000e+001  0.000000e+000
    endloop
  endfacet
  facet normal -9.807853e-001 -1.950903e-001  0.000000e+000
    outer loop
      vertex  9.238795e+000  1.382683e+001  2.000000e+001
      vertex  1.000000e+001  1.000000e+001  0.000000e+000
      vertex  1.000000e+001  1.000000e+001  2.000000e+001
    endloop
  endfacet
  facet normal  0.000000e+000  0.000000e+000  1.000000e+000
    outer loop
      vertex -3.826834e+000  1.923880e+001  0.000000e+000
      vertex  3.826834e+000  1.923880e+001  0.000000e+000
      vertex  6.123032e-016  2.000000e+001  0.000000e+000
    endloop
  endfacet
  facet normal  -0.000000e+000  0.000000e+000  1.000000e+000
    outer loop
      vertex  3.826834e+000  1.923880e+001  0.000000e+000
      vertex -3.826834e+000  1.923880e+001  0.000000e+000
      vertex  7.071068e+000  1.707107e+001  0.000000e+000
    endloop
  endfacet
  facet normal  0.000000e+000  0.000000e+000  9.999999e-001
    outer loop
      vertex  7.071068e+000  1.707107e+001  0.000000e+000
      vertex -3.826834e+000  1.923880e+001  0.000000e+000
      vertex -7.071068e+000  1.707107e+001  0.000000e+000
    endloop
  endfacet
  facet normal  -0.000000e+000  0.000000e+000  1.000000e+000
    outer loop
      vertex  7.071068e+000  1.707107e+001  0.000000e+000
      vertex -7.071068e+000  1.707107e+001  0.000000e+000
      vertex  9.238795e+000  1.382683e+001  0.000000e+000
    endloop
  endfacet
  facet normal  0.000000e+000  0.000000e+000  1.000000e+000
    outer loop
      vertex  9.238795e+000  1.382683e+001  0.000000e+000
      vertex -7.071068e+000  1.707107e+001  0.000000e+000
      vertex -9.238795e+000  1.382683e+001  0.000000e+000
    endloop
  endfacet
  facet normal  -0.000000e+000  0.000000e+000  1.000000e+000
    outer loop
      vertex  9.238795e+000  1.382683e+001  0.000000e+000
      vertex -9.238795e+000  1.382683e+001  0.000000e+000
      vertex  1.000000e+001  1.000000e+001  0.000000e+000
    endloop
  endfacet
  facet normal  0.000000e+000  0.000000e+000  1.000000e+000
    outer loop
      vertex  1.000000e+001  1.000000e+001  0.000000e+000
      vertex -9.238795e+000  1.382683e+001  0.000000e+000
      vertex -1.000000e+001  1.000000e+001  0.000000e+000
    endloop
  endfacet
  facet normal  -0.000000e+000  0.000000e+000  1.000000e+000
    outer loop
      vertex  1.000000e+001  1.000000e+001  0.000000e+000
      vertex -1.000000e+001  1.000000e+001  0.000000e+000
      vertex  9.238795e+000  6.173166e+000  0.000000e+000
    endloop
  endfacet
  facet normal  0.000000e+000  0.000000e+000  1.000000e+000
    outer loop
      vertex  9.238795e+000  6.173166e+000  0.000000e+000
      vertex -1.000000e+001  1.000000e+001  0.000000e+000
      vertex -9.238795e+000  6.173166e+000  0.000000e+000
    endloop
  endfacet
  facet normal  -0.000000e+000  0.000000e+000  9.999999e-001
    outer loop
      vertex  9.238795e+000  6.173166e+000  0.000000e+000
      vertex -9.238795e+000  6.173166e+000  0.000000e+000
      vertex  7.071068e+000  2.928932e+000  0.000000e+000
    endloop
  endfacet
  facet normal  0.000000e+000  0.000000e+000  1.000000e+000
    outer loop
      vertex  7.071068e+000  2.928932e+000  0.000000e+000
      vertex -9.238795e+000  6.173166e+000  0.000000e+000
      vertex -7.071068e+000  2.928932e+000  0.000000e+000
    endloop
  endfacet
  facet normal  -0.000000e+000  0.000000e+000  9.999999e-001
    outer loop
      vertex  7.071068e+000  2.928932e+000  0.000000e+000
      vertex -7.071068e+000  2.928932e+000  0.000000e+000
      vertex  3.826834e+000  7.612047e-001  0.000000e+000
    endloop
  endfacet
  facet normal  0.000000e+000  0.000000e+000  1.000000e+000
    outer loop
      vertex  3.826834e+000  7.612047e-001  0.000000e+000
      vertex -7.071068e+000  2.928932e+000  0.000000e+000
      vertex -3.826834e+000  7.612047e-001  0.000000e+000
    endloop
  endfacet
  facet normal  -0.000000e+000  0.000000e+000  1.000000e+000
    outer loop
      vertex  3.826834e+000  7.612047e-001  0.000000e+000
      vertex -3.826834e+000  7.612047e-001  0.000000e+000
      vertex -1.836910e-015  0.000000e+000  0.000000e+000
    endloop
  endfacet
endsolid CATIA STL
