solid CATIA STL
facet normal -0.9899399999999999 -0.14142 0.0
outer loop
vertex 12.0 16.0 -20.0
vertex 16.0 -12.0 -20.0
vertex 14.057521600000001 1.5973288000000014 -7.024776
endloop
endfacet
facet normal -0.9899399999999999 -0.14142 0.0
outer loop
vertex 12.0 16.0 -20.0
vertex 14.057521600000001 1.5973288000000014 -7.024776
vertex 13.7018356 4.087160800000001 -6.414081
endloop
endfacet
facet normal -0.9899399999999999 -0.14142 0.0
outer loop
vertex 12.0 16.0 -20.0
vertex 13.7018356 4.087160800000001 -6.414081
vertex 13.4369816 5.941138799999999 -4.627648
endloop
endfacet
facet normal -0.9899399999999999 -0.14142 0.0
outer loop
vertex 12.0 16.0 -20.0
vertex 13.4369816 5.941138799999999 -4.627648
vertex 12.0 16.0 20.0
endloop
endfacet
facet normal -0.9899399999999999 -0.14142 0.0
outer loop
vertex 16.0 -12.0 20.0
vertex 12.0 16.0 20.0
vertex 14.024153400000001 1.8309212000000006 2.97244
endloop
endfacet
facet normal -0.9899399999999999 -0.14142 0.0
outer loop
vertex 16.0 -12.0 20.0
vertex 14.024153400000001 1.8309212000000006 2.97244
vertex 14.379842199999999 -0.658910399999999 2.361745
endloop
endfacet
facet normal -0.9899399999999999 -0.14142 -0.0
outer loop
vertex 16.0 -12.0 20.0
vertex 14.379842199999999 -0.658910399999999 2.361745
vertex 14.6446956 -2.512889199999999 0.5753125
endloop
endfacet
facet normal -0.9899399999999999 -0.14142 0.0
outer loop
vertex 16.0 -12.0 20.0
vertex 14.6446956 -2.512889199999999 0.5753125
vertex 14.7477512 -3.2342483999999994 -1.908185
endloop
endfacet
facet normal -0.9899399999999999 -0.14142 0.0
outer loop
vertex 16.0 -12.0 20.0
vertex 14.7477512 -3.2342483999999994 -1.908185
vertex 14.6613834 -2.6296887999999994 -4.423295
endloop
endfacet
facet normal -0.9899399999999999 -0.14142 -0.0
outer loop
vertex 16.0 -12.0 -20.0
vertex 16.0 -12.0 20.0
vertex 14.6613834 -2.6296887999999994 -4.423295
endloop
endfacet
facet normal -0.9899399999999999 -0.14142 0.0
outer loop
vertex 16.0 -12.0 -20.0
vertex 14.6613834 -2.6296887999999994 -4.423295
vertex 14.408742800000002 -0.8612095999999987 -6.296097
endloop
endfacet
facet normal -0.9899399999999999 -0.14142 0.0
outer loop
vertex 16.0 -12.0 -20.0
vertex 14.408742800000002 -0.8612095999999987 -6.296097
vertex 14.057521600000001 1.5973288000000014 -7.024776
endloop
endfacet
facet normal -0.9899399999999999 -0.14142 -0.0
outer loop
vertex 12.0 16.0 20.0
vertex 13.4369816 5.941138799999999 -4.627648
vertex 13.3339284 6.6624912 -2.14415
endloop
endfacet
facet normal -0.9899399999999999 -0.14142 0.0
outer loop
vertex 12.0 16.0 20.0
vertex 13.3339284 6.6624912 -2.14415
vertex 13.420297999999999 6.057938999999999 0.3709601
endloop
endfacet
facet normal -0.9899399999999999 -0.14142 0.0
outer loop
vertex 12.0 16.0 20.0
vertex 13.420297999999999 6.057938999999999 0.3709601
vertex 13.6729372 4.289459599999999 2.243762
endloop
endfacet
facet normal -0.9899399999999999 -0.14142 0.0
outer loop
vertex 12.0 16.0 20.0
vertex 13.6729372 4.289459599999999 2.243762
vertex 14.024153400000001 1.8309212000000006 2.97244
endloop
endfacet
facet normal 0.09762000000000004 -0.68334 0.7236
outer loop
vertex 13.7018356 4.087160800000001 -6.414081
vertex 23.336478 7.355354000000002 -4.627648
vertex 13.4369816 5.941138799999999 -4.627648
endloop
endfacet
facet normal 0.1357000000000001 -0.9499 0.2815
outer loop
vertex 13.4369816 5.941138799999999 -4.627648
vertex 23.336478 7.355354000000002 -4.627648
vertex 23.233428 8.076704000000003 -2.14415
endloop
endfacet
facet normal 0.1357000000000001 -0.9499 0.2815
outer loop
vertex 13.4369816 5.941138799999999 -4.627648
vertex 23.233428 8.076704000000003 -2.14415
vertex 13.3339284 6.6624912 -2.14415
endloop
endfacet
facet normal 0.13742000000000004 -0.96194 -0.236
outer loop
vertex 13.3339284 6.6624912 -2.14415
vertex 23.233428 8.076704000000003 -2.14415
vertex 23.319786 7.4721480000000025 0.3709601
endloop
endfacet
facet normal 0.13742000000000004 -0.96194 -0.236
outer loop
vertex 13.3339284 6.6624912 -2.14415
vertex 23.319786 7.4721480000000025 0.3709601
vertex 13.420297999999999 6.057938999999999 0.3709601
endloop
endfacet
facet normal 0.09762000000000004 -0.68334 0.7236
outer loop
vertex 23.336478 7.355354000000002 -4.627648
vertex 13.7018356 4.087160800000001 -6.414081
vertex 23.601332 5.501376000000002 -6.414081
endloop
endfacet
facet normal 0.03336 -0.23352 0.9718
outer loop
vertex 23.601332 5.501376000000002 -6.414081
vertex 13.7018356 4.087160800000001 -6.414081
vertex 14.057521600000001 1.5973288000000014 -7.024776
endloop
endfacet
facet normal 0.03336 -0.23352 0.9718
outer loop
vertex 23.601332 5.501376000000002 -6.414081
vertex 14.057521600000001 1.5973288000000014 -7.024776
vertex 23.957016 3.0115380000000016 -7.024776
endloop
endfacet
facet normal -0.03982000000000001 0.27874 0.9595
outer loop
vertex 23.957016 3.0115380000000016 -7.024776
vertex 14.057521600000001 1.5973288000000014 -7.024776
vertex 14.408742800000002 -0.8612095999999987 -6.296097
endloop
endfacet
facet normal -0.03982000000000001 0.27874 0.9595
outer loop
vertex 23.957016 3.0115380000000016 -7.024776
vertex 14.408742800000002 -0.8612095999999987 -6.296097
vertex 24.308242 0.5530060000000017 -6.296097
endloop
endfacet
facet normal -0.10234000000000004 0.71638 0.6902
outer loop
vertex 24.308242 0.5530060000000017 -6.296097
vertex 14.408742800000002 -0.8612095999999987 -6.296097
vertex 14.6613834 -2.6296887999999994 -4.423295
endloop
endfacet
facet normal -0.10234000000000004 0.71638 0.6902
outer loop
vertex 24.308242 0.5530060000000017 -6.296097
vertex 14.6613834 -2.6296887999999994 -4.423295
vertex 24.560882 -1.2154739999999986 -4.423295
endloop
endfacet
facet normal -0.09762000000000004 0.68334 -0.7236
outer loop
vertex 14.379842199999999 -0.658910399999999 2.361745
vertex 24.54419 -1.0986799999999999 0.5753125
vertex 14.6446956 -2.512889199999999 0.5753125
endloop
endfacet
facet normal -0.1357000000000001 0.9499 -0.2815
outer loop
vertex 14.6446956 -2.512889199999999 0.5753125
vertex 24.54419 -1.0986799999999999 0.5753125
vertex 24.64724 -1.8200299999999991 -1.908185
endloop
endfacet
facet normal -0.1357000000000001 0.9499 -0.2815
outer loop
vertex 14.6446956 -2.512889199999999 0.5753125
vertex 24.64724 -1.8200299999999991 -1.908185
vertex 14.7477512 -3.2342483999999994 -1.908185
endloop
endfacet
facet normal -0.13742000000000004 0.96194 0.236
outer loop
vertex 14.7477512 -3.2342483999999994 -1.908185
vertex 24.64724 -1.8200299999999991 -1.908185
vertex 24.560882 -1.2154739999999986 -4.423295
endloop
endfacet
facet normal -0.13742000000000004 0.96194 0.236
outer loop
vertex 14.7477512 -3.2342483999999994 -1.908185
vertex 24.560882 -1.2154739999999986 -4.423295
vertex 14.6613834 -2.6296887999999994 -4.423295
endloop
endfacet
facet normal -0.09762000000000004 0.68334 -0.7236
outer loop
vertex 24.54419 -1.0986799999999999 0.5753125
vertex 14.379842199999999 -0.658910399999999 2.361745
vertex 24.279336 0.7552980000000016 2.361745
endloop
endfacet
facet normal -0.03336 0.23352 -0.9718
outer loop
vertex 24.279336 0.7552980000000016 2.361745
vertex 14.379842199999999 -0.658910399999999 2.361745
vertex 14.024153400000001 1.8309212000000006 2.97244
endloop
endfacet
facet normal -0.03336 0.23352 -0.9718
outer loop
vertex 24.279336 0.7552980000000016 2.361745
vertex 14.024153400000001 1.8309212000000006 2.97244
vertex 23.923651999999997 3.2451360000000005 2.97244
endloop
endfacet
facet normal 0.03982000000000001 -0.27874 -0.9595
outer loop
vertex 23.923651999999997 3.2451360000000005 2.97244
vertex 14.024153400000001 1.8309212000000006 2.97244
vertex 13.6729372 4.289459599999999 2.243762
endloop
endfacet
facet normal 0.03982000000000001 -0.27874 -0.9595
outer loop
vertex 23.923651999999997 3.2451360000000005 2.97244
vertex 13.6729372 4.289459599999999 2.243762
vertex 23.572426 5.703668 2.243762
endloop
endfacet
facet normal 0.10234000000000004 -0.71638 -0.6902
outer loop
vertex 23.572426 5.703668 2.243762
vertex 13.6729372 4.289459599999999 2.243762
vertex 13.420297999999999 6.057938999999999 0.3709601
endloop
endfacet
facet normal 0.10234000000000004 -0.71638 -0.6902
outer loop
vertex 23.572426 5.703668 2.243762
vertex 13.420297999999999 6.057938999999999 0.3709601
vertex 23.319786 7.4721480000000025 0.3709601
endloop
endfacet
facet normal -0.9899399999999999 -0.14142 0.0
outer loop
vertex 23.957016 3.0115380000000016 -7.024776
vertex 24.308242 0.5530060000000017 -6.296097
vertex 23.601332 5.501376000000002 -6.414081
endloop
endfacet
facet normal -0.9899399999999999 -0.14142 0.0
outer loop
vertex 23.923651999999997 3.2451360000000005 2.97244
vertex 23.572426 5.703668 2.243762
vertex 24.279336 0.7552980000000016 2.361745
endloop
endfacet
facet normal -0.9899399999999999 -0.14142 0.0
outer loop
vertex 24.279336 0.7552980000000016 2.361745
vertex 23.572426 5.703668 2.243762
vertex 23.319786 7.4721480000000025 0.3709601
endloop
endfacet
facet normal -0.9899399999999999 -0.14142 0.0
outer loop
vertex 24.279336 0.7552980000000016 2.361745
vertex 23.319786 7.4721480000000025 0.3709601
vertex 24.54419 -1.0986799999999999 0.5753125
endloop
endfacet
facet normal -0.9899399999999999 -0.14142 0.0
outer loop
vertex 24.54419 -1.0986799999999999 0.5753125
vertex 23.319786 7.4721480000000025 0.3709601
vertex 23.233428 8.076704000000003 -2.14415
endloop
endfacet
facet normal -0.9899399999999999 -0.14142 0.0
outer loop
vertex 24.54419 -1.0986799999999999 0.5753125
vertex 23.233428 8.076704000000003 -2.14415
vertex 24.64724 -1.8200299999999991 -1.908185
endloop
endfacet
facet normal -0.9899399999999999 -0.14142 0.0
outer loop
vertex 24.64724 -1.8200299999999991 -1.908185
vertex 23.233428 8.076704000000003 -2.14415
vertex 23.336478 7.355354000000002 -4.627648
endloop
endfacet
facet normal -0.9899399999999999 -0.14142 -0.0
outer loop
vertex 24.64724 -1.8200299999999991 -1.908185
vertex 23.336478 7.355354000000002 -4.627648
vertex 24.560882 -1.2154739999999986 -4.423295
endloop
endfacet
facet normal -0.9899399999999999 -0.14142 -0.0
outer loop
vertex 24.560882 -1.2154739999999986 -4.423295
vertex 23.336478 7.355354000000002 -4.627648
vertex 23.601332 5.501376000000002 -6.414081
endloop
endfacet
facet normal -0.9899399999999999 -0.14142 0.0
outer loop
vertex 24.560882 -1.2154739999999986 -4.423295
vertex 23.601332 5.501376000000002 -6.414081
vertex 24.308242 0.5530060000000017 -6.296097
endloop
endfacet
facet normal 0.0 -0.0 1.0
outer loop
vertex 23.3812 7.4641 20.0
vertex 16.0 -12.0 20.0
vertex 32.6188 0.5359000000000016 20.0
endloop
endfacet
facet normal 0.0 0.0 1.0
outer loop
vertex 44.6188 16.5359 20.0
vertex 46.0 28.0 20.0
vertex 35.3812 23.464100000000002 20.0
endloop
endfacet
facet normal 0.0 0.0 1.0
outer loop
vertex 12.0 16.0 20.0
vertex 16.0 -12.0 20.0
vertex 23.3812 7.4641 20.0
endloop
endfacet
facet normal 0.0 0.0 1.0
outer loop
vertex 12.0 16.0 20.0
vertex 23.3812 7.4641 20.0
vertex 24.7623952 18.9282036 20.0
endloop
endfacet
facet normal 0.0 -0.0 1.0
outer loop
vertex 12.0 16.0 20.0
vertex 24.7623952 18.9282036 20.0
vertex 35.3812 23.464100000000002 20.0
endloop
endfacet
facet normal 0.0 -0.0 1.0
outer loop
vertex 12.0 16.0 20.0
vertex 35.3812 23.464100000000002 20.0
vertex 46.0 28.0 20.0
endloop
endfacet
facet normal 0.0 0.0 1.0
outer loop
vertex 12.0 16.0 20.0
vertex 46.0 28.0 20.0
vertex 43.395256 30.905058000000004 20.0
endloop
endfacet
facet normal 0.0 0.0 1.0
outer loop
vertex 12.0 16.0 20.0
vertex 43.395256 30.905058000000004 20.0
vertex 42.100502 34.585786000000006 20.0
endloop
endfacet
facet normal 0.0 0.0 1.0
outer loop
vertex 12.0 16.0 20.0
vertex 42.100502 34.585786000000006 20.0
vertex 42.312856000000004 38.48180800000001 20.0
endloop
endfacet
facet normal 0.0 0.0 1.0
outer loop
vertex 12.0 16.0 20.0
vertex 42.312856000000004 38.48180800000001 20.0
vertex 44.0 42.0 20.0
endloop
endfacet
facet normal 0.0 -0.0 1.0
outer loop
vertex 12.0 16.0 20.0
vertex 44.0 42.0 20.0
vertex 46.905064 44.604752000000005 20.0
endloop
endfacet
facet normal 0.0 0.0 1.0
outer loop
vertex 80.0 40.0 20.0
vertex 56.0 58.0 20.0
vertex 42.0 56.0 20.0
endloop
endfacet
facet normal 0.0 0.0 1.0
outer loop
vertex 80.0 40.0 20.0
vertex 42.0 56.0 20.0
vertex 58.0 44.0 20.0
endloop
endfacet
facet normal 0.0 0.0 1.0
outer loop
vertex 80.0 40.0 20.0
vertex 58.0 44.0 20.0
vertex 60.604738 41.094933999999995 20.0
endloop
endfacet
facet normal 0.0 0.0 1.0
outer loop
vertex 80.0 40.0 20.0
vertex 60.604738 41.094933999999995 20.0
vertex 68.0 24.0 20.0
endloop
endfacet
facet normal 0.0 0.0 1.0
outer loop
vertex 68.0 -26.0 20.0
vertex 68.0 24.0 20.0
vertex 60.0 30.0 20.0
endloop
endfacet
facet normal 0.0 0.0 1.0
outer loop
vertex 68.0 -26.0 20.0
vertex 60.0 30.0 20.0
vertex 57.094936000000004 27.395248000000006 20.0
endloop
endfacet
facet normal 0.0 0.0 1.0
outer loop
vertex 68.0 -26.0 20.0
vertex 57.094936000000004 27.395248000000006 20.0
vertex 53.414214 26.100502000000002 20.0
endloop
endfacet
facet normal 0.0 0.0 1.0
outer loop
vertex 68.0 -26.0 20.0
vertex 53.414214 26.100502000000002 20.0
vertex 49.518184000000005 26.312862000000003 20.0
endloop
endfacet
facet normal 0.0 0.0 1.0
outer loop
vertex 68.0 -26.0 20.0
vertex 49.518184000000005 26.312862000000003 20.0
vertex 46.0 28.0 20.0
endloop
endfacet
facet normal 0.0 0.0 1.0
outer loop
vertex 68.0 -26.0 20.0
vertex 46.0 28.0 20.0
vertex 44.6188 16.5359 20.0
endloop
endfacet
facet normal 0.0 0.0 1.0
outer loop
vertex 68.0 -26.0 20.0
vertex 44.6188 16.5359 20.0
vertex 43.2376 5.0718 20.0
endloop
endfacet
facet normal 0.0 0.0 1.0
outer loop
vertex 68.0 -26.0 20.0
vertex 43.2376 5.0718 20.0
vertex 32.6188 0.5359000000000016 20.0
endloop
endfacet
facet normal 0.0 0.0 1.0
outer loop
vertex 68.0 -26.0 20.0
vertex 32.6188 0.5359000000000016 20.0
vertex 16.0 -12.0 20.0
endloop
endfacet
facet normal 0.0 0.0 1.0
outer loop
vertex 68.0 -26.0 20.0
vertex 16.0 -12.0 20.0
vertex 55.006752 -23.891263999999996 20.0
endloop
endfacet
facet normal 0.0 0.0 1.0
outer loop
vertex 68.0 -26.0 20.0
vertex 55.006752 -23.891263999999996 20.0
vertex 57.165114 -24.757598 20.0
endloop
endfacet
facet normal 0.0 0.0 1.0
outer loop
vertex 68.0 -26.0 20.0
vertex 57.165114 -24.757598 20.0
vertex 73.16511400000002 -36.757598 20.0
endloop
endfacet
facet normal 0.0 -0.0 1.0
outer loop
vertex 68.0 -26.0 20.0
vertex 73.16511400000002 -36.757598 20.0
vertex 92.0 -44.0 20.0
endloop
endfacet
facet normal 0.0 0.0 1.0
outer loop
vertex 42.0 56.0 20.0
vertex 12.0 16.0 20.0
vertex 46.905064 44.604752000000005 20.0
endloop
endfacet
facet normal 0.0 -0.0 1.0
outer loop
vertex 42.0 56.0 20.0
vertex 46.905064 44.604752000000005 20.0
vertex 50.585786000000006 45.89949800000001 20.0
endloop
endfacet
facet normal 0.0 -0.0 1.0
outer loop
vertex 42.0 56.0 20.0
vertex 50.585786000000006 45.89949800000001 20.0
vertex 54.481809999999996 45.687129999999996 20.0
endloop
endfacet
facet normal 0.0 -0.0 1.0
outer loop
vertex 42.0 56.0 20.0
vertex 54.481809999999996 45.687129999999996 20.0
vertex 58.0 44.0 20.0
endloop
endfacet
facet normal 0.0 0.0 1.0
outer loop
vertex 68.0 24.0 20.0
vertex 60.604738 41.094933999999995 20.0
vertex 61.89949800000001 37.414214 20.0
endloop
endfacet
facet normal 0.0 0.0 1.0
outer loop
vertex 68.0 24.0 20.0
vertex 61.89949800000001 37.414214 20.0
vertex 61.687144 33.518192 20.0
endloop
endfacet
facet normal 0.0 0.0 1.0
outer loop
vertex 68.0 24.0 20.0
vertex 61.687144 33.518192 20.0
vertex 60.0 30.0 20.0
endloop
endfacet
facet normal 0.0 0.0 1.0
outer loop
vertex 16.0 -12.0 20.0
vertex 51.773528400000004 -31.9463788 20.0
vertex 50.337504 -30.116927999999998 20.0
endloop
endfacet
facet normal 0.0 0.0 1.0
outer loop
vertex 16.0 -12.0 20.0
vertex 50.337504 -30.116927999999998 20.0
vertex 50.00859220000001 -27.8145604 20.0
endloop
endfacet
facet normal 0.0 0.0 1.0
outer loop
vertex 16.0 -12.0 20.0
vertex 50.00859220000001 -27.8145604 20.0
vertex 50.874936000000005 -25.656202 20.0
endloop
endfacet
facet normal 0.0 -0.0 1.0
outer loop
vertex 16.0 -12.0 20.0
vertex 50.874936000000005 -25.656202 20.0
vertex 52.704382 -24.220174 20.0
endloop
endfacet
facet normal 0.0 -0.0 1.0
outer loop
vertex 16.0 -12.0 20.0
vertex 52.704382 -24.220174 20.0
vertex 55.006752 -23.891263999999996 20.0
endloop
endfacet
facet normal 0.0 0.0 1.0
outer loop
vertex 86.0 -52.0 20.0
vertex 92.0 -44.0 20.0
vertex 73.16511400000002 -36.757598 20.0
endloop
endfacet
facet normal 0.0 0.0 1.0
outer loop
vertex 86.0 -52.0 20.0
vertex 73.16511400000002 -36.757598 20.0
vertex 74.601144 -38.587058 20.0
endloop
endfacet
facet normal 0.0 0.0 1.0
outer loop
vertex 86.0 -52.0 20.0
vertex 74.601144 -38.587058 20.0
vertex 74.93004599999999 -40.889421999999996 20.0
endloop
endfacet
facet normal 0.0 0.0 1.0
outer loop
vertex 86.0 -52.0 20.0
vertex 74.93004599999999 -40.889421999999996 20.0
vertex 74.063712 -43.047784 20.0
endloop
endfacet
facet normal 0.0 0.0 1.0
outer loop
vertex 86.0 -52.0 20.0
vertex 74.063712 -43.047784 20.0
vertex 72.23425619999999 -44.4838084 20.0
endloop
endfacet
facet normal 0.0 0.0 1.0
outer loop
vertex 86.0 -52.0 20.0
vertex 72.23425619999999 -44.4838084 20.0
vertex 83.0949316 -54.60474119999999 20.0
endloop
endfacet
facet normal 0.0 0.0 1.0
outer loop
vertex 75.51819482 -55.68714024 20.0
vertex 79.4142152 -55.899496400000004 20.0
vertex 72.0 -54.0 20.0
endloop
endfacet
facet normal 0.0 -0.0 1.0
outer loop
vertex 72.0 -54.0 20.0
vertex 79.4142152 -55.899496400000004 20.0
vertex 67.7735284 -43.9463788 20.0
endloop
endfacet
facet normal 0.0 0.0 1.0
outer loop
vertex 72.0 -54.0 20.0
vertex 67.7735284 -43.9463788 20.0
vertex 16.0 -12.0 20.0
endloop
endfacet
facet normal 0.0 0.0 1.0
outer loop
vertex 16.0 -12.0 20.0
vertex 67.7735284 -43.9463788 20.0
vertex 51.773528400000004 -31.9463788 20.0
endloop
endfacet
facet normal 0.0 0.0 1.0
outer loop
vertex 67.7735284 -43.9463788 20.0
vertex 79.4142152 -55.899496400000004 20.0
vertex 69.931896 -44.812722 20.0
endloop
endfacet
facet normal 0.0 0.0 1.0
outer loop
vertex 69.931896 -44.812722 20.0
vertex 79.4142152 -55.899496400000004 20.0
vertex 83.0949316 -54.60474119999999 20.0
endloop
endfacet
facet normal 0.0 0.0 1.0
outer loop
vertex 69.931896 -44.812722 20.0
vertex 83.0949316 -54.60474119999999 20.0
vertex 72.23425619999999 -44.4838084 20.0
endloop
endfacet
facet normal 0.0 0.0 -1.0
outer loop
vertex 32.6188 0.5359000000000016 -20.0
vertex 16.0 -12.0 -20.0
vertex 23.3812 7.4641 -20.0
endloop
endfacet
facet normal 0.0 -0.0 -1.0
outer loop
vertex 35.3812 23.464100000000002 -20.0
vertex 46.0 28.0 -20.0
vertex 44.6188 16.5359 -20.0
endloop
endfacet
facet normal 0.0 0.0 -1.0
outer loop
vertex 12.0 16.0 -20.0
vertex 46.905064 44.604752000000005 -20.0
vertex 44.0 42.0 -20.0
endloop
endfacet
facet normal 0.0 -0.0 -1.0
outer loop
vertex 12.0 16.0 -20.0
vertex 44.0 42.0 -20.0
vertex 42.312856000000004 38.48180800000001 -20.0
endloop
endfacet
facet normal 0.0 -0.0 -1.0
outer loop
vertex 12.0 16.0 -20.0
vertex 42.312856000000004 38.48180800000001 -20.0
vertex 42.100502 34.585786000000006 -20.0
endloop
endfacet
facet normal 0.0 -0.0 -1.0
outer loop
vertex 12.0 16.0 -20.0
vertex 42.100502 34.585786000000006 -20.0
vertex 43.395256 30.905058000000004 -20.0
endloop
endfacet
facet normal 0.0 -0.0 -1.0
outer loop
vertex 12.0 16.0 -20.0
vertex 43.395256 30.905058000000004 -20.0
vertex 46.0 28.0 -20.0
endloop
endfacet
facet normal 0.0 0.0 -1.0
outer loop
vertex 12.0 16.0 -20.0
vertex 46.0 28.0 -20.0
vertex 35.3812 23.464100000000002 -20.0
endloop
endfacet
facet normal 0.0 0.0 -1.0
outer loop
vertex 12.0 16.0 -20.0
vertex 35.3812 23.464100000000002 -20.0
vertex 24.7623952 18.9282036 -20.0
endloop
endfacet
facet normal 0.0 -0.0 -1.0
outer loop
vertex 12.0 16.0 -20.0
vertex 24.7623952 18.9282036 -20.0
vertex 23.3812 7.4641 -20.0
endloop
endfacet
facet normal -0.0 0.0 -1.0
outer loop
vertex 12.0 16.0 -20.0
vertex 23.3812 7.4641 -20.0
vertex 16.0 -12.0 -20.0
endloop
endfacet
facet normal 0.0 0.0 -1.0
outer loop
vertex 80.0 40.0 -20.0
vertex 68.0 24.0 -20.0
vertex 60.604738 41.094933999999995 -20.0
endloop
endfacet
facet normal 0.0 0.0 -1.0
outer loop
vertex 80.0 40.0 -20.0
vertex 60.604738 41.094933999999995 -20.0
vertex 58.0 44.0 -20.0
endloop
endfacet
facet normal 0.0 0.0 -1.0
outer loop
vertex 80.0 40.0 -20.0
vertex 58.0 44.0 -20.0
vertex 42.0 56.0 -20.0
endloop
endfacet
facet normal 0.0 0.0 -1.0
outer loop
vertex 80.0 40.0 -20.0
vertex 42.0 56.0 -20.0
vertex 56.0 58.0 -20.0
endloop
endfacet
facet normal 0.0 0.0 -1.0
outer loop
vertex 68.0 -26.0 -20.0
vertex 92.0 -44.0 -20.0
vertex 73.16511400000002 -36.757598 -20.0
endloop
endfacet
facet normal 0.0 0.0 -1.0
outer loop
vertex 68.0 -26.0 -20.0
vertex 73.16511400000002 -36.757598 -20.0
vertex 57.165114 -24.757598 -20.0
endloop
endfacet
facet normal 0.0 0.0 -1.0
outer loop
vertex 68.0 -26.0 -20.0
vertex 57.165114 -24.757598 -20.0
vertex 55.006752 -23.891263999999996 -20.0
endloop
endfacet
facet normal 0.0 0.0 -1.0
outer loop
vertex 68.0 -26.0 -20.0
vertex 55.006752 -23.891263999999996 -20.0
vertex 16.0 -12.0 -20.0
endloop
endfacet
facet normal 0.0 0.0 -1.0
outer loop
vertex 68.0 -26.0 -20.0
vertex 16.0 -12.0 -20.0
vertex 32.6188 0.5359000000000016 -20.0
endloop
endfacet
facet normal 0.0 0.0 -1.0
outer loop
vertex 68.0 -26.0 -20.0
vertex 32.6188 0.5359000000000016 -20.0
vertex 43.2376 5.0718 -20.0
endloop
endfacet
facet normal 0.0 0.0 -1.0
outer loop
vertex 68.0 -26.0 -20.0
vertex 43.2376 5.0718 -20.0
vertex 44.6188 16.5359 -20.0
endloop
endfacet
facet normal 0.0 0.0 -1.0
outer loop
vertex 68.0 -26.0 -20.0
vertex 44.6188 16.5359 -20.0
vertex 46.0 28.0 -20.0
endloop
endfacet
facet normal 0.0 0.0 -1.0
outer loop
vertex 68.0 -26.0 -20.0
vertex 46.0 28.0 -20.0
vertex 49.518184000000005 26.312862000000003 -20.0
endloop
endfacet
facet normal 0.0 0.0 -1.0
outer loop
vertex 68.0 -26.0 -20.0
vertex 49.518184000000005 26.312862000000003 -20.0
vertex 53.414214 26.100502000000002 -20.0
endloop
endfacet
facet normal 0.0 0.0 -1.0
outer loop
vertex 68.0 -26.0 -20.0
vertex 53.414214 26.100502000000002 -20.0
vertex 57.094936000000004 27.395248000000006 -20.0
endloop
endfacet
facet normal 0.0 0.0 -1.0
outer loop
vertex 68.0 -26.0 -20.0
vertex 57.094936000000004 27.395248000000006 -20.0
vertex 60.0 30.0 -20.0
endloop
endfacet
facet normal 0.0 0.0 -1.0
outer loop
vertex 68.0 -26.0 -20.0
vertex 60.0 30.0 -20.0
vertex 68.0 24.0 -20.0
endloop
endfacet
facet normal 0.0 0.0 -1.0
outer loop
vertex 42.0 56.0 -20.0
vertex 58.0 44.0 -20.0
vertex 54.481809999999996 45.687129999999996 -20.0
endloop
endfacet
facet normal 0.0 0.0 -1.0
outer loop
vertex 42.0 56.0 -20.0
vertex 54.481809999999996 45.687129999999996 -20.0
vertex 50.585786000000006 45.89949800000001 -20.0
endloop
endfacet
facet normal 0.0 0.0 -1.0
outer loop
vertex 42.0 56.0 -20.0
vertex 50.585786000000006 45.89949800000001 -20.0
vertex 46.905064 44.604752000000005 -20.0
endloop
endfacet
facet normal 0.0 0.0 -1.0
outer loop
vertex 42.0 56.0 -20.0
vertex 46.905064 44.604752000000005 -20.0
vertex 12.0 16.0 -20.0
endloop
endfacet
facet normal 0.0 0.0 -1.0
outer loop
vertex 68.0 24.0 -20.0
vertex 60.0 30.0 -20.0
vertex 61.687144 33.518192 -20.0
endloop
endfacet
facet normal 0.0 0.0 -1.0
outer loop
vertex 68.0 24.0 -20.0
vertex 61.687144 33.518192 -20.0
vertex 61.89949800000001 37.414214 -20.0
endloop
endfacet
facet normal 0.0 0.0 -1.0
outer loop
vertex 68.0 24.0 -20.0
vertex 61.89949800000001 37.414214 -20.0
vertex 60.604738 41.094933999999995 -20.0
endloop
endfacet
facet normal 0.0 0.0 -1.0
outer loop
vertex 16.0 -12.0 -20.0
vertex 55.006752 -23.891263999999996 -20.0
vertex 52.704382 -24.220174 -20.0
endloop
endfacet
facet normal 0.0 0.0 -1.0
outer loop
vertex 16.0 -12.0 -20.0
vertex 52.704382 -24.220174 -20.0
vertex 50.874936000000005 -25.656202 -20.0
endloop
endfacet
facet normal 0.0 -0.0 -1.0
outer loop
vertex 16.0 -12.0 -20.0
vertex 50.874936000000005 -25.656202 -20.0
vertex 50.00859220000001 -27.8145604 -20.0
endloop
endfacet
facet normal 0.0 -0.0 -1.0
outer loop
vertex 16.0 -12.0 -20.0
vertex 50.00859220000001 -27.8145604 -20.0
vertex 50.337504 -30.116927999999998 -20.0
endloop
endfacet
facet normal 0.0 -0.0 -1.0
outer loop
vertex 16.0 -12.0 -20.0
vertex 50.337504 -30.116927999999998 -20.0
vertex 51.773528400000004 -31.9463788 -20.0
endloop
endfacet
facet normal 0.0 0.0 -1.0
outer loop
vertex 86.0 -52.0 -20.0
vertex 83.0949316 -54.60474119999999 -20.0
vertex 72.23425619999999 -44.4838084 -20.0
endloop
endfacet
facet normal 0.0 0.0 -1.0
outer loop
vertex 86.0 -52.0 -20.0
vertex 72.23425619999999 -44.4838084 -20.0
vertex 74.063712 -43.047784 -20.0
endloop
endfacet
facet normal 0.0 0.0 -1.0
outer loop
vertex 86.0 -52.0 -20.0
vertex 74.063712 -43.047784 -20.0
vertex 74.93004599999999 -40.889421999999996 -20.0
endloop
endfacet
facet normal 0.0 0.0 -1.0
outer loop
vertex 86.0 -52.0 -20.0
vertex 74.93004599999999 -40.889421999999996 -20.0
vertex 74.601144 -38.587058 -20.0
endloop
endfacet
facet normal 0.0 0.0 -1.0
outer loop
vertex 86.0 -52.0 -20.0
vertex 74.601144 -38.587058 -20.0
vertex 73.16511400000002 -36.757598 -20.0
endloop
endfacet
facet normal 0.0 0.0 -1.0
outer loop
vertex 86.0 -52.0 -20.0
vertex 73.16511400000002 -36.757598 -20.0
vertex 92.0 -44.0 -20.0
endloop
endfacet
facet normal 0.0 0.0 -1.0
outer loop
vertex 75.51819482 -55.68714024 -20.0
vertex 72.0 -54.0 -20.0
vertex 79.4142152 -55.899496400000004 -20.0
endloop
endfacet
facet normal 0.0 0.0 -1.0
outer loop
vertex 79.4142152 -55.899496400000004 -20.0
vertex 72.0 -54.0 -20.0
vertex 67.7735284 -43.9463788 -20.0
endloop
endfacet
facet normal 0.0 0.0 -1.0
outer loop
vertex 72.0 -54.0 -20.0
vertex 16.0 -12.0 -20.0
vertex 67.7735284 -43.9463788 -20.0
endloop
endfacet
facet normal 0.0 0.0 -1.0
outer loop
vertex 67.7735284 -43.9463788 -20.0
vertex 16.0 -12.0 -20.0
vertex 51.773528400000004 -31.9463788 -20.0
endloop
endfacet
facet normal 0.0 0.0 -1.0
outer loop
vertex 72.23425619999999 -44.4838084 -20.0
vertex 83.0949316 -54.60474119999999 -20.0
vertex 69.931896 -44.812722 -20.0
endloop
endfacet
facet normal 0.0 0.0 -1.0
outer loop
vertex 69.931896 -44.812722 -20.0
vertex 83.0949316 -54.60474119999999 -20.0
vertex 79.4142152 -55.899496400000004 -20.0
endloop
endfacet
facet normal 0.0 0.0 -1.0
outer loop
vertex 69.931896 -44.812722 -20.0
vertex 79.4142152 -55.899496400000004 -20.0
vertex 67.7735284 -43.9463788 -20.0
endloop
endfacet
facet normal -0.6 -0.8 0.0
outer loop
vertex 72.0 -54.0 20.0
vertex 16.0 -12.0 20.0
vertex 72.0 -54.0 -20.0
endloop
endfacet
facet normal -0.6 -0.8 0.0
outer loop
vertex 72.0 -54.0 -20.0
vertex 16.0 -12.0 20.0
vertex 16.0 -12.0 -20.0
endloop
endfacet
facet normal -0.8 0.6 0.0
outer loop
vertex 12.0 16.0 20.0
vertex 42.0 56.0 20.0
vertex 12.0 16.0 -20.0
endloop
endfacet
facet normal -0.8 0.6 0.0
outer loop
vertex 12.0 16.0 -20.0
vertex 42.0 56.0 20.0
vertex 42.0 56.0 -20.0
endloop
endfacet
facet normal 0.6 0.8 0.0
outer loop
vertex 64.0 52.0 1.776357e-15
vertex 72.0 46.0 -10.0
vertex 56.0 58.0 -20.0
endloop
endfacet
facet normal 0.6 0.8 0.0
outer loop
vertex 56.0 58.0 20.0
vertex 80.0 40.0 20.0
vertex 72.0 46.0 10.0
endloop
endfacet
facet normal 0.6 0.8 0.0
outer loop
vertex 56.0 58.0 20.0
vertex 72.0 46.0 10.0
vertex 64.0 52.0 1.776357e-15
endloop
endfacet
facet normal 0.6 0.8 0.0
outer loop
vertex 56.0 58.0 20.0
vertex 64.0 52.0 1.776357e-15
vertex 56.0 58.0 -20.0
endloop
endfacet
facet normal 0.6 0.8 0.0
outer loop
vertex 56.0 58.0 -20.0
vertex 72.0 46.0 -10.0
vertex 80.0 40.0 -20.0
endloop
endfacet
facet normal 0.6 0.8 0.0
outer loop
vertex 80.0 40.0 -20.0
vertex 72.0 46.0 -10.0
vertex 72.0 46.0 10.0
endloop
endfacet
facet normal 0.6 0.8 0.0
outer loop
vertex 80.0 40.0 -20.0
vertex 72.0 46.0 10.0
vertex 80.0 40.0 20.0
endloop
endfacet
facet normal 0.6 0.8 -0.0
outer loop
vertex 66.0 38.0 10.0
vertex 66.0 38.0 -10.0
vertex 58.0 44.0 3.552714e-15
endloop
endfacet
facet normal 0.56568 -0.42425999999999997 -0.7071
outer loop
vertex 58.0 44.0 3.552714e-15
vertex 64.0 52.0 1.776357e-15
vertex 66.0 38.0 10.0
endloop
endfacet
facet normal 0.56568 -0.42425999999999997 -0.7071
outer loop
vertex 66.0 38.0 10.0
vertex 64.0 52.0 1.776357e-15
vertex 72.0 46.0 10.0
endloop
endfacet
facet normal 0.56568 -0.42425999999999997 0.7071
outer loop
vertex 66.0 38.0 -10.0
vertex 72.0 46.0 -10.0
vertex 58.0 44.0 3.552714e-15
endloop
endfacet
facet normal 0.56568 -0.42425999999999997 0.7071
outer loop
vertex 58.0 44.0 3.552714e-15
vertex 72.0 46.0 -10.0
vertex 64.0 52.0 1.776357e-15
endloop
endfacet
facet normal -0.8 0.6 0.0
outer loop
vertex 66.0 38.0 10.0
vertex 72.0 46.0 10.0
vertex 66.0 38.0 -10.0
endloop
endfacet
facet normal -0.8 0.6 0.0
outer loop
vertex 66.0 38.0 -10.0
vertex 72.0 46.0 10.0
vertex 72.0 46.0 -10.0
endloop
endfacet
facet normal -0.4324 -0.9017 0.0
outer loop
vertex 58.0 44.0 -20.0
vertex 54.481809999999996 45.687129999999996 20.0
vertex 54.481809999999996 45.687129999999996 -20.0
endloop
endfacet
facet normal -0.054420000000000024 -0.99856 0.0
outer loop
vertex 54.481809999999996 45.687129999999996 -20.0
vertex 54.481809999999996 45.687129999999996 20.0
vertex 50.585786000000006 45.89949800000001 20.0
endloop
endfacet
facet normal -0.054420000000000024 -0.99856 0.0
outer loop
vertex 54.481809999999996 45.687129999999996 -20.0
vertex 50.585786000000006 45.89949800000001 20.0
vertex 50.585786000000006 45.89949800000001 -20.0
endloop
endfacet
facet normal 0.33184 -0.94338 0.0
outer loop
vertex 50.585786000000006 45.89949800000001 -20.0
vertex 50.585786000000006 45.89949800000001 20.0
vertex 46.905064 44.604752000000005 20.0
endloop
endfacet
facet normal 0.33184 -0.94338 0.0
outer loop
vertex 50.585786000000006 45.89949800000001 -20.0
vertex 46.905064 44.604752000000005 20.0
vertex 46.905064 44.604752000000005 -20.0
endloop
endfacet
facet normal 0.6675800000000001 -0.74456 0.0
outer loop
vertex 46.905064 44.604752000000005 -20.0
vertex 46.905064 44.604752000000005 20.0
vertex 44.0 42.0 20.0
endloop
endfacet
facet normal 0.6675800000000001 -0.74456 0.0
outer loop
vertex 46.905064 44.604752000000005 -20.0
vertex 44.0 42.0 20.0
vertex 44.0 42.0 -20.0
endloop
endfacet
facet normal -0.4324 -0.9017 0.0
outer loop
vertex 54.481809999999996 45.687129999999996 20.0
vertex 58.0 44.0 -20.0
vertex 58.0 44.0 20.0
endloop
endfacet
facet normal -0.74456 -0.6675800000000001 -0.0
outer loop
vertex 58.0 44.0 20.0
vertex 58.0 44.0 -20.0
vertex 60.604738 41.094933999999995 -20.0
endloop
endfacet
facet normal -0.74456 -0.6675800000000001 0.0
outer loop
vertex 58.0 44.0 20.0
vertex 60.604738 41.094933999999995 -20.0
vertex 60.604738 41.094933999999995 20.0
endloop
endfacet
facet normal -0.94338 -0.33184 -0.0
outer loop
vertex 60.604738 41.094933999999995 20.0
vertex 60.604738 41.094933999999995 -20.0
vertex 61.89949800000001 37.414214 -20.0
endloop
endfacet
facet normal -0.94338 -0.33184 0.0
outer loop
vertex 60.604738 41.094933999999995 20.0
vertex 61.89949800000001 37.414214 -20.0
vertex 61.89949800000001 37.414214 20.0
endloop
endfacet
facet normal -0.99856 0.054420000000000024 -0.0
outer loop
vertex 61.89949800000001 37.414214 20.0
vertex 61.89949800000001 37.414214 -20.0
vertex 61.687144 33.518192 -20.0
endloop
endfacet
facet normal -0.99856 0.054420000000000024 0.0
outer loop
vertex 61.89949800000001 37.414214 20.0
vertex 61.687144 33.518192 -20.0
vertex 61.687144 33.518192 20.0
endloop
endfacet
facet normal -0.9017 0.4324 -0.0
outer loop
vertex 61.687144 33.518192 20.0
vertex 61.687144 33.518192 -20.0
vertex 60.0 30.0 -20.0
endloop
endfacet
facet normal -0.9017 0.4324 0.0
outer loop
vertex 61.687144 33.518192 20.0
vertex 60.0 30.0 -20.0
vertex 60.0 30.0 20.0
endloop
endfacet
facet normal 0.8 -0.6 0.0
outer loop
vertex 92.0 -44.0 -20.0
vertex 92.0 -44.0 20.0
vertex 86.0 -52.0 -20.0
endloop
endfacet
facet normal 0.8 -0.6 0.0
outer loop
vertex 86.0 -52.0 -20.0
vertex 92.0 -44.0 20.0
vertex 86.0 -52.0 20.0
endloop
endfacet
facet normal 0.6675800000000001 -0.74456 0.0
outer loop
vertex 86.0 -52.0 -20.0
vertex 86.0 -52.0 20.0
vertex 83.0949316 -54.60474119999999 -20.0
endloop
endfacet
facet normal 0.6675800000000001 -0.74456 0.0
outer loop
vertex 83.0949316 -54.60474119999999 -20.0
vertex 86.0 -52.0 20.0
vertex 83.0949316 -54.60474119999999 20.0
endloop
endfacet
facet normal 0.33184 -0.94338 0.0
outer loop
vertex 83.0949316 -54.60474119999999 -20.0
vertex 83.0949316 -54.60474119999999 20.0
vertex 79.4142152 -55.899496400000004 -20.0
endloop
endfacet
facet normal 0.33184 -0.94338 0.0
outer loop
vertex 79.4142152 -55.899496400000004 -20.0
vertex 83.0949316 -54.60474119999999 20.0
vertex 79.4142152 -55.899496400000004 20.0
endloop
endfacet
facet normal -0.054420000000000024 -0.99856 0.0
outer loop
vertex 79.4142152 -55.899496400000004 -20.0
vertex 79.4142152 -55.899496400000004 20.0
vertex 75.51819482 -55.68714024 -20.0
endloop
endfacet
facet normal -0.054420000000000024 -0.99856 0.0
outer loop
vertex 75.51819482 -55.68714024 -20.0
vertex 79.4142152 -55.899496400000004 20.0
vertex 75.51819482 -55.68714024 20.0
endloop
endfacet
facet normal -0.4324 -0.9017 0.0
outer loop
vertex 75.51819482 -55.68714024 -20.0
vertex 75.51819482 -55.68714024 20.0
vertex 72.0 -54.0 -20.0
endloop
endfacet
facet normal -0.4324 -0.9017 0.0
outer loop
vertex 72.0 -54.0 -20.0
vertex 75.51819482 -55.68714024 20.0
vertex 72.0 -54.0 20.0
endloop
endfacet
facet normal -0.14142 0.9899399999999999 0.0
outer loop
vertex 56.0 58.0 20.0
vertex 56.0 58.0 -20.0
vertex 42.0 56.0 20.0
endloop
endfacet
facet normal -0.14142 0.9899399999999999 0.0
outer loop
vertex 42.0 56.0 20.0
vertex 56.0 58.0 -20.0
vertex 42.0 56.0 -20.0
endloop
endfacet
facet normal 1.0 0.0 -0.0
outer loop
vertex 68.0 -26.0 20.0
vertex 68.0 -26.0 -20.0
vertex 68.0 -9.238799999999994 3.826834
endloop
endfacet
facet normal 1.0 0.0 -0.0
outer loop
vertex 68.0 -26.0 20.0
vertex 68.0 -9.238799999999994 3.826834
vertex 68.000002 -7.071064 7.071068
endloop
endfacet
facet normal 1.0 0.0 -0.0
outer loop
vertex 68.0 -26.0 20.0
vertex 68.000002 -7.071064 7.071068
vertex 67.999998 -3.826836 9.238795
endloop
endfacet
facet normal 1.0 0.0 0.0
outer loop
vertex 68.0 -26.0 20.0
vertex 67.999998 -3.826836 9.238795
vertex 68.0 24.0 20.0
endloop
endfacet
facet normal 1.0 0.0 0.0
outer loop
vertex 68.0 24.0 -20.0
vertex 68.0 24.0 20.0
vertex 68.0 10.0 8.881784e-16
endloop
endfacet
facet normal 1.0 0.0 -0.0
outer loop
vertex 68.0 24.0 -20.0
vertex 68.0 10.0 8.881784e-16
vertex 68.0 9.238800000000001 -3.826834
endloop
endfacet
facet normal 1.0 0.0 0.0
outer loop
vertex 68.0 24.0 -20.0
vertex 68.0 9.238800000000001 -3.826834
vertex 68.000004 7.071072000000008 -7.071068
endloop
endfacet
facet normal 1.0 0.0 0.0
outer loop
vertex 68.0 24.0 -20.0
vertex 68.000004 7.071072000000008 -7.071068
vertex 68.000002 3.826836 -9.238795
endloop
endfacet
facet normal 1.0 0.0 -0.0
outer loop
vertex 68.0 24.0 -20.0
vertex 68.000002 3.826836 -9.238795
vertex 68.0 0.0 -10.0
endloop
endfacet
facet normal 1.0 0.0 0.0
outer loop
vertex 68.0 24.0 -20.0
vertex 68.0 0.0 -10.0
vertex 67.999998 -3.826836 -9.238795
endloop
endfacet
facet normal 1.0 0.0 -0.0
outer loop
vertex 68.0 -26.0 -20.0
vertex 68.0 24.0 -20.0
vertex 67.999998 -3.826836 -9.238795
endloop
endfacet
facet normal 1.0 0.0 0.0
outer loop
vertex 68.0 -26.0 -20.0
vertex 67.999998 -3.826836 -9.238795
vertex 68.000002 -7.071064 -7.071068
endloop
endfacet
facet normal 1.0 0.0 0.0
outer loop
vertex 68.0 -26.0 -20.0
vertex 68.000002 -7.071064 -7.071068
vertex 68.0 -9.238799999999994 -3.826834
endloop
endfacet
facet normal 1.0 0.0 -0.0
outer loop
vertex 68.0 -26.0 -20.0
vertex 68.0 -9.238799999999994 -3.826834
vertex 68.0 -9.999999999999996 1.224606e-15
endloop
endfacet
facet normal 1.0 0.0 0.0
outer loop
vertex 68.0 -26.0 -20.0
vertex 68.0 -9.999999999999996 1.224606e-15
vertex 68.0 -9.238799999999994 3.826834
endloop
endfacet
facet normal 1.0 0.0 -0.0
outer loop
vertex 68.0 24.0 20.0
vertex 67.999998 -3.826836 9.238795
vertex 68.0 0.0 10.0
endloop
endfacet
facet normal 1.0 0.0 0.0
outer loop
vertex 68.0 24.0 20.0
vertex 68.0 0.0 10.0
vertex 68.000002 3.826836 9.238795
endloop
endfacet
facet normal 1.0 0.0 -0.0
outer loop
vertex 68.0 24.0 20.0
vertex 68.000002 3.826836 9.238795
vertex 68.000004 7.071072000000008 7.071068
endloop
endfacet
facet normal 1.0 0.0 -0.0
outer loop
vertex 68.0 24.0 20.0
vertex 68.000004 7.071072000000008 7.071068
vertex 68.0 9.238800000000001 3.826834
endloop
endfacet
facet normal 1.0 0.0 0.0
outer loop
vertex 68.0 24.0 20.0
vertex 68.0 9.238800000000001 3.826834
vertex 68.0 10.0 8.881784e-16
endloop
endfacet
facet normal 2.0000000000006124e-05 -0.19513999999999998 0.9808
outer loop
vertex 53.0 3.552713678800501e-15 -10.0
vertex 68.000002 3.826836 -9.238795
vertex 53.000001999999995 3.8268359999999966 -9.238795
endloop
endfacet
facet normal -6.0000000000004494e-05 -0.55558 0.8315
outer loop
vertex 53.000001999999995 3.8268359999999966 -9.238795
vertex 68.000002 3.826836 -9.238795
vertex 68.000004 7.071072000000008 -7.071068
endloop
endfacet
facet normal -6.0000000000004494e-05 -0.55558 0.8315
outer loop
vertex 53.000001999999995 3.8268359999999966 -9.238795
vertex 68.000004 7.071072000000008 -7.071068
vertex 53.000004 7.0710720000000045 -7.071068
endloop
endfacet
facet normal 5.551115123125783e-17 -0.8315000000000001 0.5556
outer loop
vertex 53.000004 7.0710720000000045 -7.071068
vertex 68.000004 7.071072000000008 -7.071068
vertex 68.0 9.238800000000001 -3.826834
endloop
endfacet
facet normal 5.551115123125783e-17 -0.8315000000000001 0.5556
outer loop
vertex 53.000004 7.0710720000000045 -7.071068
vertex 68.0 9.238800000000001 -3.826834
vertex 53.0 9.238800000000001 -3.826834
endloop
endfacet
facet normal 4.0000000000095515e-05 -0.98078 0.1951
outer loop
vertex 53.0 9.238800000000001 -3.826834
vertex 68.0 9.238800000000001 -3.826834
vertex 68.0 10.0 8.881784e-16
endloop
endfacet
facet normal 4.0000000000095515e-05 -0.98078 0.1951
outer loop
vertex 53.0 9.238800000000001 -3.826834
vertex 68.0 10.0 8.881784e-16
vertex 53.0 10.0 8.881784e-16
endloop
endfacet
facet normal 2.0000000000006124e-05 -0.19513999999999998 0.9808
outer loop
vertex 68.000002 3.826836 -9.238795
vertex 53.0 3.552713678800501e-15 -10.0
vertex 68.0 0.0 -10.0
endloop
endfacet
facet normal -2.0000000000006124e-05 0.19513999999999998 0.9808
outer loop
vertex 68.0 0.0 -10.0
vertex 53.0 3.552713678800501e-15 -10.0
vertex 52.999998000000005 -3.8268359999999966 -9.238795
endloop
endfacet
facet normal -2.0000000000006124e-05 0.19513999999999998 0.9808
outer loop
vertex 68.0 0.0 -10.0
vertex 52.999998000000005 -3.8268359999999966 -9.238795
vertex 67.999998 -3.826836 -9.238795
endloop
endfacet
facet normal 6.0000000000004494e-05 0.55558 0.8315
outer loop
vertex 67.999998 -3.826836 -9.238795
vertex 52.999998000000005 -3.8268359999999966 -9.238795
vertex 53.000002 -7.071064 -7.071068
endloop
endfacet
facet normal 6.0000000000004494e-05 0.55558 0.8315
outer loop
vertex 67.999998 -3.826836 -9.238795
vertex 53.000002 -7.071064 -7.071068
vertex 68.000002 -7.071064 -7.071068
endloop
endfacet
facet normal -5.551115123125783e-17 0.8315000000000001 0.5556
outer loop
vertex 68.000002 -7.071064 -7.071068
vertex 53.000002 -7.071064 -7.071068
vertex 53.0 -9.238799999999998 -3.826834
endloop
endfacet
facet normal -5.551115123125783e-17 0.8315000000000001 0.5556
outer loop
vertex 68.000002 -7.071064 -7.071068
vertex 53.0 -9.238799999999998 -3.826834
vertex 68.0 -9.238799999999994 -3.826834
endloop
endfacet
facet normal -4.0000000000095515e-05 0.98078 0.1951
outer loop
vertex 68.0 -9.238799999999994 -3.826834
vertex 53.0 -9.238799999999998 -3.826834
vertex 53.0 -9.999999999999996 1.224606e-15
endloop
endfacet
facet normal -4.0000000000095515e-05 0.98078 0.1951
outer loop
vertex 68.0 -9.238799999999994 -3.826834
vertex 53.0 -9.999999999999996 1.224606e-15
vertex 68.0 -9.999999999999996 1.224606e-15
endloop
endfacet
facet normal -2.0000000000006124e-05 0.19513999999999998 -0.9808
outer loop
vertex 53.0 3.552713678800501e-15 10.0
vertex 67.999998 -3.826836 9.238795
vertex 52.999998000000005 -3.8268359999999966 9.238795
endloop
endfacet
facet normal 6.0000000000004494e-05 0.55558 -0.8315
outer loop
vertex 52.999998000000005 -3.8268359999999966 9.238795
vertex 67.999998 -3.826836 9.238795
vertex 68.000002 -7.071064 7.071068
endloop
endfacet
facet normal 6.0000000000004494e-05 0.55558 -0.8315
outer loop
vertex 52.999998000000005 -3.8268359999999966 9.238795
vertex 68.000002 -7.071064 7.071068
vertex 53.000002 -7.071064 7.071068
endloop
endfacet
facet normal -5.551115123125783e-17 0.8315000000000001 -0.5556
outer loop
vertex 53.000002 -7.071064 7.071068
vertex 68.000002 -7.071064 7.071068
vertex 68.0 -9.238799999999994 3.826834
endloop
endfacet
facet normal -5.551115123125783e-17 0.8315000000000001 -0.5556
outer loop
vertex 53.000002 -7.071064 7.071068
vertex 68.0 -9.238799999999994 3.826834
vertex 53.0 -9.238799999999998 3.826834
endloop
endfacet
facet normal -4.0000000000095515e-05 0.98078 -0.1951
outer loop
vertex 53.0 -9.238799999999998 3.826834
vertex 68.0 -9.238799999999994 3.826834
vertex 68.0 -9.999999999999996 1.224606e-15
endloop
endfacet
facet normal -4.0000000000095515e-05 0.98078 -0.1951
outer loop
vertex 53.0 -9.238799999999998 3.826834
vertex 68.0 -9.999999999999996 1.224606e-15
vertex 53.0 -9.999999999999996 1.224606e-15
endloop
endfacet
facet normal -2.0000000000006124e-05 0.19513999999999998 -0.9808
outer loop
vertex 67.999998 -3.826836 9.238795
vertex 53.0 3.552713678800501e-15 10.0
vertex 68.0 0.0 10.0
endloop
endfacet
facet normal 2.0000000000006124e-05 -0.19513999999999998 -0.9808
outer loop
vertex 68.0 0.0 10.0
vertex 53.0 3.552713678800501e-15 10.0
vertex 53.000001999999995 3.8268359999999966 9.238795
endloop
endfacet
facet normal 2.0000000000006124e-05 -0.19513999999999998 -0.9808
outer loop
vertex 68.0 0.0 10.0
vertex 53.000001999999995 3.8268359999999966 9.238795
vertex 68.000002 3.826836 9.238795
endloop
endfacet
facet normal -6.0000000000004494e-05 -0.55558 -0.8315
outer loop
vertex 68.000002 3.826836 9.238795
vertex 53.000001999999995 3.8268359999999966 9.238795
vertex 53.000004 7.0710720000000045 7.071068
endloop
endfacet
facet normal -6.0000000000004494e-05 -0.55558 -0.8315
outer loop
vertex 68.000002 3.826836 9.238795
vertex 53.000004 7.0710720000000045 7.071068
vertex 68.000004 7.071072000000008 7.071068
endloop
endfacet
facet normal 5.551115123125783e-17 -0.8315000000000001 -0.5556
outer loop
vertex 68.000004 7.071072000000008 7.071068
vertex 53.000004 7.0710720000000045 7.071068
vertex 53.0 9.238800000000001 3.826834
endloop
endfacet
facet normal 5.551115123125783e-17 -0.8315000000000001 -0.5556
outer loop
vertex 68.000004 7.071072000000008 7.071068
vertex 53.0 9.238800000000001 3.826834
vertex 68.0 9.238800000000001 3.826834
endloop
endfacet
facet normal 4.0000000000095515e-05 -0.98078 -0.1951
outer loop
vertex 68.0 9.238800000000001 3.826834
vertex 53.0 9.238800000000001 3.826834
vertex 53.0 10.0 8.881784e-16
endloop
endfacet
facet normal 4.0000000000095515e-05 -0.98078 -0.1951
outer loop
vertex 68.0 9.238800000000001 3.826834
vertex 53.0 10.0 8.881784e-16
vertex 68.0 10.0 8.881784e-16
endloop
endfacet
facet normal 1.0 0.0 0.0
outer loop
vertex 52.999998000000005 -3.8268359999999966 9.238795
vertex 53.000001999999995 3.8268359999999966 9.238795
vertex 53.0 3.552713678800501e-15 10.0
endloop
endfacet
facet normal 1.0 0.0 -0.0
outer loop
vertex 53.000001999999995 3.8268359999999966 9.238795
vertex 52.999998000000005 -3.8268359999999966 9.238795
vertex 53.000004 7.0710720000000045 7.071068
endloop
endfacet
facet normal 1.0 0.0 -0.0
outer loop
vertex 53.000004 7.0710720000000045 7.071068
vertex 52.999998000000005 -3.8268359999999966 9.238795
vertex 53.000002 -7.071064 7.071068
endloop
endfacet
facet normal 1.0 0.0 -0.0
outer loop
vertex 53.000004 7.0710720000000045 7.071068
vertex 53.000002 -7.071064 7.071068
vertex 53.0 9.238800000000001 3.826834
endloop
endfacet
facet normal 1.0 0.0 -0.0
outer loop
vertex 53.0 9.238800000000001 3.826834
vertex 53.000002 -7.071064 7.071068
vertex 53.0 -9.238799999999998 3.826834
endloop
endfacet
facet normal 1.0 0.0 -0.0
outer loop
vertex 53.0 9.238800000000001 3.826834
vertex 53.0 -9.238799999999998 3.826834
vertex 53.0 10.0 8.881784e-16
endloop
endfacet
facet normal 1.0 0.0 0.0
outer loop
vertex 53.0 10.0 8.881784e-16
vertex 53.0 -9.238799999999998 3.826834
vertex 53.0 -9.999999999999996 1.224606e-15
endloop
endfacet
facet normal 1.0 0.0 0.0
outer loop
vertex 53.0 10.0 8.881784e-16
vertex 53.0 -9.999999999999996 1.224606e-15
vertex 53.0 9.238800000000001 -3.826834
endloop
endfacet
facet normal 1.0 0.0 -0.0
outer loop
vertex 53.0 9.238800000000001 -3.826834
vertex 53.0 -9.999999999999996 1.224606e-15
vertex 53.0 -9.238799999999998 -3.826834
endloop
endfacet
facet normal 1.0 0.0 0.0
outer loop
vertex 53.0 9.238800000000001 -3.826834
vertex 53.0 -9.238799999999998 -3.826834
vertex 53.000004 7.0710720000000045 -7.071068
endloop
endfacet
facet normal 1.0 0.0 0.0
outer loop
vertex 53.000004 7.0710720000000045 -7.071068
vertex 53.0 -9.238799999999998 -3.826834
vertex 53.000002 -7.071064 -7.071068
endloop
endfacet
facet normal 1.0 0.0 0.0
outer loop
vertex 53.000004 7.0710720000000045 -7.071068
vertex 53.000002 -7.071064 -7.071068
vertex 53.000001999999995 3.8268359999999966 -9.238795
endloop
endfacet
facet normal 1.0 0.0 0.0
outer loop
vertex 53.000001999999995 3.8268359999999966 -9.238795
vertex 53.000002 -7.071064 -7.071068
vertex 52.999998000000005 -3.8268359999999966 -9.238795
endloop
endfacet
facet normal 1.0 0.0 -0.0
outer loop
vertex 53.000001999999995 3.8268359999999966 -9.238795
vertex 52.999998000000005 -3.8268359999999966 -9.238795
vertex 53.0 3.552713678800501e-15 -10.0
endloop
endfacet
facet normal -0.928 0.37249999999999994 -0.0
outer loop
vertex 74.063712 -43.047784 -20.0
vertex 74.93004599999999 -40.889421999999996 20.0
vertex 74.93004599999999 -40.889421999999996 -20.0
endloop
endfacet
facet normal -0.9899399999999999 -0.14142 0.0
outer loop
vertex 74.93004599999999 -40.889421999999996 -20.0
vertex 74.93004599999999 -40.889421999999996 20.0
vertex 74.601144 -38.587058 20.0
endloop
endfacet
facet normal -0.9899399999999999 -0.14142 -0.0
outer loop
vertex 74.93004599999999 -40.889421999999996 -20.0
vertex 74.601144 -38.587058 20.0
vertex 74.601144 -38.587058 -20.0
endloop
endfacet
facet normal -0.78658 -0.6174400000000001 0.0
outer loop
vertex 74.601144 -38.587058 -20.0
vertex 74.601144 -38.587058 20.0
vertex 73.16511400000002 -36.757598 20.0
endloop
endfacet
facet normal -0.78658 -0.6174400000000001 -0.0
outer loop
vertex 74.601144 -38.587058 -20.0
vertex 73.16511400000002 -36.757598 20.0
vertex 73.16511400000002 -36.757598 -20.0
endloop
endfacet
facet normal -0.928 0.37249999999999994 0.0
outer loop
vertex 74.93004599999999 -40.889421999999996 20.0
vertex 74.063712 -43.047784 -20.0
vertex 74.063712 -43.047784 20.0
endloop
endfacet
facet normal -0.6174400000000001 0.78658 0.0
outer loop
vertex 74.063712 -43.047784 20.0
vertex 74.063712 -43.047784 -20.0
vertex 72.23425619999999 -44.4838084 -20.0
endloop
endfacet
facet normal -0.6174400000000001 0.78658 0.0
outer loop
vertex 74.063712 -43.047784 20.0
vertex 72.23425619999999 -44.4838084 -20.0
vertex 72.23425619999999 -44.4838084 20.0
endloop
endfacet
facet normal -0.14142 0.9899399999999999 0.0
outer loop
vertex 72.23425619999999 -44.4838084 20.0
vertex 72.23425619999999 -44.4838084 -20.0
vertex 69.931896 -44.812722 -20.0
endloop
endfacet
facet normal -0.14142 0.9899399999999999 0.0
outer loop
vertex 72.23425619999999 -44.4838084 20.0
vertex 69.931896 -44.812722 -20.0
vertex 69.931896 -44.812722 20.0
endloop
endfacet
facet normal 0.37249999999999994 0.928 0.0
outer loop
vertex 69.931896 -44.812722 20.0
vertex 69.931896 -44.812722 -20.0
vertex 67.7735284 -43.9463788 -20.0
endloop
endfacet
facet normal 0.37249999999999994 0.928 0.0
outer loop
vertex 69.931896 -44.812722 20.0
vertex 67.7735284 -43.9463788 -20.0
vertex 67.7735284 -43.9463788 20.0
endloop
endfacet
facet normal -0.6 -0.8 0.0
outer loop
vertex 57.165114 -24.757598 -20.0
vertex 73.16511400000002 -36.757598 -20.0
vertex 57.165114 -24.757598 20.0
endloop
endfacet
facet normal -0.6 -0.8 0.0
outer loop
vertex 57.165114 -24.757598 20.0
vertex 73.16511400000002 -36.757598 -20.0
vertex 73.16511400000002 -36.757598 20.0
endloop
endfacet
facet normal 0.928 -0.37249999999999994 0.0
outer loop
vertex 50.874936000000005 -25.656202 -20.0
vertex 50.00859220000001 -27.8145604 20.0
vertex 50.00859220000001 -27.8145604 -20.0
endloop
endfacet
facet normal 0.9899399999999999 0.14142 -0.0
outer loop
vertex 50.00859220000001 -27.8145604 -20.0
vertex 50.00859220000001 -27.8145604 20.0
vertex 50.337504 -30.116927999999998 20.0
endloop
endfacet
facet normal 0.9899399999999999 0.14142 0.0
outer loop
vertex 50.00859220000001 -27.8145604 -20.0
vertex 50.337504 -30.116927999999998 20.0
vertex 50.337504 -30.116927999999998 -20.0
endloop
endfacet
facet normal 0.78658 0.6174400000000001 -0.0
outer loop
vertex 50.337504 -30.116927999999998 -20.0
vertex 50.337504 -30.116927999999998 20.0
vertex 51.773528400000004 -31.9463788 20.0
endloop
endfacet
facet normal 0.78658 0.6174400000000001 0.0
outer loop
vertex 50.337504 -30.116927999999998 -20.0
vertex 51.773528400000004 -31.9463788 20.0
vertex 51.773528400000004 -31.9463788 -20.0
endloop
endfacet
facet normal 0.928 -0.37249999999999994 -0.0
outer loop
vertex 50.00859220000001 -27.8145604 20.0
vertex 50.874936000000005 -25.656202 -20.0
vertex 50.874936000000005 -25.656202 20.0
endloop
endfacet
facet normal 0.6174400000000001 -0.78658 0.0
outer loop
vertex 50.874936000000005 -25.656202 20.0
vertex 50.874936000000005 -25.656202 -20.0
vertex 52.704382 -24.220174 -20.0
endloop
endfacet
facet normal 0.6174400000000001 -0.78658 0.0
outer loop
vertex 50.874936000000005 -25.656202 20.0
vertex 52.704382 -24.220174 -20.0
vertex 52.704382 -24.220174 20.0
endloop
endfacet
facet normal 0.14142 -0.9899399999999999 0.0
outer loop
vertex 52.704382 -24.220174 20.0
vertex 52.704382 -24.220174 -20.0
vertex 55.006752 -23.891263999999996 -20.0
endloop
endfacet
facet normal 0.14142 -0.9899399999999999 0.0
outer loop
vertex 52.704382 -24.220174 20.0
vertex 55.006752 -23.891263999999996 -20.0
vertex 55.006752 -23.891263999999996 20.0
endloop
endfacet
facet normal -0.37249999999999994 -0.928 0.0
outer loop
vertex 55.006752 -23.891263999999996 20.0
vertex 55.006752 -23.891263999999996 -20.0
vertex 57.165114 -24.757598 -20.0
endloop
endfacet
facet normal -0.37249999999999994 -0.928 0.0
outer loop
vertex 55.006752 -23.891263999999996 20.0
vertex 57.165114 -24.757598 -20.0
vertex 57.165114 -24.757598 20.0
endloop
endfacet
facet normal 0.6 0.8 0.0
outer loop
vertex 67.7735284 -43.9463788 -20.0
vertex 51.773528400000004 -31.9463788 -20.0
vertex 67.7735284 -43.9463788 20.0
endloop
endfacet
facet normal 0.6 0.8 0.0
outer loop
vertex 67.7735284 -43.9463788 20.0
vertex 51.773528400000004 -31.9463788 -20.0
vertex 51.773528400000004 -31.9463788 20.0
endloop
endfacet
facet normal 0.6 0.8 0.0
outer loop
vertex 23.3812 7.4641 20.0
vertex 32.6188 0.5359000000000016 20.0
vertex 23.3812 7.4641 -20.0
endloop
endfacet
facet normal 0.6 0.8 0.0
outer loop
vertex 23.3812 7.4641 -20.0
vertex 32.6188 0.5359000000000016 20.0
vertex 32.6188 0.5359000000000016 -20.0
endloop
endfacet
facet normal -0.3928000000000001 0.9196 0.0
outer loop
vertex 32.6188 0.5359000000000016 -20.0
vertex 32.6188 0.5359000000000016 20.0
vertex 43.2376 5.0718 -20.0
endloop
endfacet
facet normal -0.3928000000000001 0.9196 0.0
outer loop
vertex 43.2376 5.0718 -20.0
vertex 32.6188 0.5359000000000016 20.0
vertex 43.2376 5.0718 20.0
endloop
endfacet
facet normal -0.9928000000000001 0.11959999999999993 -0.0
outer loop
vertex 43.2376 5.0718 -20.0
vertex 43.2376 5.0718 20.0
vertex 44.6188 16.5359 -20.0
endloop
endfacet
facet normal -0.9928000000000001 0.11959999999999993 0.0
outer loop
vertex 44.6188 16.5359 -20.0
vertex 43.2376 5.0718 20.0
vertex 44.6188 16.5359 20.0
endloop
endfacet
facet normal -0.6 -0.8 -0.0
outer loop
vertex 44.6188 16.5359 -20.0
vertex 44.6188 16.5359 20.0
vertex 35.3812 23.464100000000002 -20.0
endloop
endfacet
facet normal -0.6 -0.8 0.0
outer loop
vertex 35.3812 23.464100000000002 -20.0
vertex 44.6188 16.5359 20.0
vertex 35.3812 23.464100000000002 20.0
endloop
endfacet
facet normal 0.3928000000000001 -0.9196 0.0
outer loop
vertex 35.3812 23.464100000000002 -20.0
vertex 35.3812 23.464100000000002 20.0
vertex 24.7623952 18.9282036 -20.0
endloop
endfacet
facet normal 0.3928000000000001 -0.9196 0.0
outer loop
vertex 24.7623952 18.9282036 -20.0
vertex 35.3812 23.464100000000002 20.0
vertex 24.7623952 18.9282036 20.0
endloop
endfacet
facet normal 0.9928000000000001 -0.11959999999999993 0.0
outer loop
vertex 24.7623952 18.9282036 -20.0
vertex 24.7623952 18.9282036 20.0
vertex 23.3812 7.4641 -20.0
endloop
endfacet
facet normal 0.9928000000000001 -0.11959999999999993 -0.0
outer loop
vertex 23.3812 7.4641 -20.0
vertex 24.7623952 18.9282036 20.0
vertex 23.3812 7.4641 20.0
endloop
endfacet
facet normal 0.4324 0.9017 0.0
outer loop
vertex 46.0 28.0 -20.0
vertex 49.518184000000005 26.312862000000003 20.0
vertex 49.518184000000005 26.312862000000003 -20.0
endloop
endfacet
facet normal 0.054420000000000024 0.99856 0.0
outer loop
vertex 49.518184000000005 26.312862000000003 -20.0
vertex 49.518184000000005 26.312862000000003 20.0
vertex 53.414214 26.100502000000002 20.0
endloop
endfacet
facet normal 0.054420000000000024 0.99856 0.0
outer loop
vertex 49.518184000000005 26.312862000000003 -20.0
vertex 53.414214 26.100502000000002 20.0
vertex 53.414214 26.100502000000002 -20.0
endloop
endfacet
facet normal -0.33184 0.94338 0.0
outer loop
vertex 53.414214 26.100502000000002 -20.0
vertex 53.414214 26.100502000000002 20.0
vertex 57.094936000000004 27.395248000000006 20.0
endloop
endfacet
facet normal -0.33184 0.94338 0.0
outer loop
vertex 53.414214 26.100502000000002 -20.0
vertex 57.094936000000004 27.395248000000006 20.0
vertex 57.094936000000004 27.395248000000006 -20.0
endloop
endfacet
facet normal -0.6675800000000001 0.74456 0.0
outer loop
vertex 57.094936000000004 27.395248000000006 -20.0
vertex 57.094936000000004 27.395248000000006 20.0
vertex 60.0 30.0 20.0
endloop
endfacet
facet normal -0.6675800000000001 0.74456 0.0
outer loop
vertex 57.094936000000004 27.395248000000006 -20.0
vertex 60.0 30.0 20.0
vertex 60.0 30.0 -20.0
endloop
endfacet
facet normal 0.4324 0.9017 0.0
outer loop
vertex 49.518184000000005 26.312862000000003 20.0
vertex 46.0 28.0 -20.0
vertex 46.0 28.0 20.0
endloop
endfacet
facet normal 0.74456 0.6675800000000001 0.0
outer loop
vertex 46.0 28.0 20.0
vertex 46.0 28.0 -20.0
vertex 43.395256 30.905058000000004 -20.0
endloop
endfacet
facet normal 0.74456 0.6675800000000001 -0.0
outer loop
vertex 46.0 28.0 20.0
vertex 43.395256 30.905058000000004 -20.0
vertex 43.395256 30.905058000000004 20.0
endloop
endfacet
facet normal 0.94338 0.33184 0.0
outer loop
vertex 43.395256 30.905058000000004 20.0
vertex 43.395256 30.905058000000004 -20.0
vertex 42.100502 34.585786000000006 -20.0
endloop
endfacet
facet normal 0.94338 0.33184 -0.0
outer loop
vertex 43.395256 30.905058000000004 20.0
vertex 42.100502 34.585786000000006 -20.0
vertex 42.100502 34.585786000000006 20.0
endloop
endfacet
facet normal 0.99856 -0.054420000000000024 0.0
outer loop
vertex 42.100502 34.585786000000006 20.0
vertex 42.100502 34.585786000000006 -20.0
vertex 42.312856000000004 38.48180800000001 -20.0
endloop
endfacet
facet normal 0.99856 -0.054420000000000024 -0.0
outer loop
vertex 42.100502 34.585786000000006 20.0
vertex 42.312856000000004 38.48180800000001 -20.0
vertex 42.312856000000004 38.48180800000001 20.0
endloop
endfacet
facet normal 0.9017 -0.4324 0.0
outer loop
vertex 42.312856000000004 38.48180800000001 20.0
vertex 42.312856000000004 38.48180800000001 -20.0
vertex 44.0 42.0 -20.0
endloop
endfacet
facet normal 0.9017 -0.4324 -0.0
outer loop
vertex 42.312856000000004 38.48180800000001 20.0
vertex 44.0 42.0 -20.0
vertex 44.0 42.0 20.0
endloop
endfacet
facet normal 0.8 -0.6 0.0
outer loop
vertex 80.0 40.0 -20.0
vertex 80.0 40.0 20.0
vertex 68.0 24.0 -20.0
endloop
endfacet
facet normal 0.8 -0.6 0.0
outer loop
vertex 68.0 24.0 -20.0
vertex 80.0 40.0 20.0
vertex 68.0 24.0 20.0
endloop
endfacet
facet normal 0.6 0.8 0.0
outer loop
vertex 68.0 -26.0 20.0
vertex 92.0 -44.0 20.0
vertex 68.0 -26.0 -20.0
endloop
endfacet
facet normal 0.6 0.8 0.0
outer loop
vertex 68.0 -26.0 -20.0
vertex 92.0 -44.0 20.0
vertex 92.0 -44.0 -20.0
endloop
endfacet
endsolid CATIA STL