solid CATIA STL
facet normal 0.9999904099540154 -1.1102230246251565e-16 0.0
outer loop
vertex -14.142135623730951 -14.14213562373095 -20.0
vertex -14.14213562373095 14.142135623730951 -20.0
vertex -14.142132795303826 0.4067589332368744 -7.024776
endloop
endfacet
facet normal 0.9999904099540154 -1.1102230246251565e-16 0.0
outer loop
vertex -14.142135623730951 -14.14213562373095 -20.0
vertex -14.142132795303826 0.4067589332368744 -7.024776
vertex -14.142137037944511 -2.1083505909791196 -6.414081
endloop
endfacet
facet normal 0.9999904099540154 -1.1102230246251565e-16 0.0
outer loop
vertex -14.142135623730951 -14.14213562373095 -20.0
vertex -14.142137037944511 -2.1083505909791196 -6.414081
vertex -14.142137037944511 -3.981151185222936 -4.627648
endloop
endfacet
facet normal 0.9999904099540154 -1.1102230246251565e-16 0.0
outer loop
vertex -14.142135623730951 -14.14213562373095 -20.0
vertex -14.142137037944511 -3.981151185222936 -4.627648
vertex -14.142135623730951 -14.14213562373095 20.0
endloop
endfacet
facet normal 0.9999904099540154 -1.1102230246251565e-16 0.0
outer loop
vertex -14.14213562373095 14.142135623730951 20.0
vertex -14.142135623730951 -14.14213562373095 20.0
vertex -14.142134916624169 0.17079527903458125 2.97244
endloop
endfacet
facet normal 0.9999904099540154 -1.1102230246251565e-16 0.0
outer loop
vertex -14.14213562373095 14.142135623730951 20.0
vertex -14.142134916624169 0.17079527903458125 2.97244
vertex -14.142133502410607 2.6859048032505735 2.361745
endloop
endfacet
facet normal 0.9999904099540154 -1.1102230246251565e-16 -0.0
outer loop
vertex -14.14213562373095 14.142135623730951 20.0
vertex -14.142133502410607 2.6859048032505735 2.361745
vertex -14.142132795303826 4.558706104601175 0.5753125
endloop
endfacet
facet normal 0.9999904099540154 -1.1102230246251565e-16 0.0
outer loop
vertex -14.14213562373095 14.142135623730951 20.0
vertex -14.142132795303826 4.558706104601175 0.5753125
vertex -14.142137037944511 5.287389542108847 -1.908185
endloop
endfacet
facet normal 0.9999904099540154 -1.1102230246251565e-16 0.0
outer loop
vertex -14.14213562373095 14.142135623730951 20.0
vertex -14.142137037944511 5.287389542108847 -1.908185
vertex -14.142134916624169 4.6766918207896175 -4.423295
endloop
endfacet
facet normal 0.9999904099540154 -1.1102230246251565e-16 -0.0
outer loop
vertex -14.14213562373095 14.142135623730951 -20.0
vertex -14.14213562373095 14.142135623730951 20.0
vertex -14.142134916624169 4.6766918207896175 -4.423295
endloop
endfacet
facet normal 0.9999904099540154 -1.1102230246251565e-16 0.0
outer loop
vertex -14.14213562373095 14.142135623730951 -20.0
vertex -14.142134916624169 4.6766918207896175 -4.423295
vertex -14.142134209517389 2.890257955906706 -6.296097
endloop
endfacet
facet normal 0.9999904099540154 -1.1102230246251565e-16 0.0
outer loop
vertex -14.14213562373095 14.142135623730951 -20.0
vertex -14.142134209517389 2.890257955906706 -6.296097
vertex -14.142132795303826 0.4067589332368744 -7.024776
endloop
endfacet
facet normal 0.9999904099540154 -1.1102230246251565e-16 -0.0
outer loop
vertex -14.142135623730951 -14.14213562373095 20.0
vertex -14.142137037944511 -3.981151185222936 -4.627648
vertex -14.142134209517387 -4.709827551662798 -2.14415
endloop
endfacet
facet normal 0.9999904099540154 -1.1102230246251565e-16 0.0
outer loop
vertex -14.142135623730951 -14.14213562373095 20.0
vertex -14.142134209517387 -4.709827551662798 -2.14415
vertex -14.142139159264856 -4.09913690141138 0.3709601
endloop
endfacet
facet normal 0.9999904099540154 -1.1102230246251565e-16 0.0
outer loop
vertex -14.142135623730951 -14.14213562373095 20.0
vertex -14.142139159264856 -4.09913690141138 0.3709601
vertex -14.142138452158076 -2.3127030365284673 2.243762
endloop
endfacet
facet normal 0.9999904099540154 -1.1102230246251565e-16 0.0
outer loop
vertex -14.142135623730951 -14.14213562373095 20.0
vertex -14.142138452158076 -2.3127030365284673 2.243762
vertex -14.142134916624169 0.17079527903458125 2.97244
endloop
endfacet
facet normal 5.551115123125783e-17 0.6902776397943076 0.7236
outer loop
vertex -14.142137037944511 -2.1083505909791196 -6.414081
vertex -24.142138718220473 -3.9811525994364967 -4.627648
vertex -14.142137037944511 -3.981151185222936 -4.627648
endloop
endfacet
facet normal 5.551115123125783e-17 0.9595439020701451 0.2815
outer loop
vertex -14.142137037944511 -3.981151185222936 -4.627648
vertex -24.142138718220473 -3.9811525994364967 -4.627648
vertex -24.142138718220473 -4.709826137449237 -2.14415
endloop
endfacet
facet normal 5.551115123125783e-17 0.9595439020701451 0.2815
outer loop
vertex -14.142137037944511 -3.981151185222936 -4.627648
vertex -24.142138718220473 -4.709826137449237 -2.14415
vertex -14.142134209517387 -4.709827551662798 -2.14415
endloop
endfacet
facet normal 1.1102230246251565e-16 0.9717061387065536 -0.236
outer loop
vertex -14.142134209517387 -4.709827551662798 -2.14415
vertex -24.142138718220473 -4.709826137449237 -2.14415
vertex -24.14213164715266 -4.099133365877474 0.3709601
endloop
endfacet
facet normal 1.1102230246251565e-16 0.9717061387065536 -0.236
outer loop
vertex -14.142134209517387 -4.709827551662798 -2.14415
vertex -24.14213164715266 -4.099133365877474 0.3709601
vertex -14.142139159264856 -4.09913690141138 0.3709601
endloop
endfacet
facet normal 5.551115123125783e-17 0.6902776397943076 0.7236
outer loop
vertex -24.142138718220473 -3.9811525994364967 -4.627648
vertex -14.142137037944511 -2.1083505909791196 -6.414081
vertex -24.142138718220473 -2.108352005192682 -6.414081
endloop
endfacet
facet normal 2.7755575615628914e-17 0.23589082220383226 0.9718
outer loop
vertex -24.142138718220473 -2.108352005192682 -6.414081
vertex -14.142137037944511 -2.1083505909791196 -6.414081
vertex -14.142132795303826 0.4067589332368744 -7.024776
endloop
endfacet
facet normal 2.7755575615628914e-17 0.23589082220383226 0.9718
outer loop
vertex -24.142138718220473 -2.108352005192682 -6.414081
vertex -14.142132795303826 0.4067589332368744 -7.024776
vertex -24.14213164715266 0.40676317587756294 -7.024776
endloop
endfacet
facet normal -2.7755575615628914e-17 -0.28156992026848326 0.9595
outer loop
vertex -24.14213164715266 0.40676317587756294 -7.024776
vertex -14.142132795303826 0.4067589332368744 -7.024776
vertex -14.142134209517389 2.890257955906706 -6.296097
endloop
endfacet
facet normal -2.7755575615628914e-17 -0.28156992026848326 0.9595
outer loop
vertex -24.14213164715266 0.40676317587756294 -7.024776
vertex -14.142134209517389 2.890257955906706 -6.296097
vertex -24.142138718220473 2.8902565416931427 -6.296097
endloop
endfacet
facet normal -5.551115123125783e-17 -0.7236530798663128 0.6902
outer loop
vertex -24.142138718220473 2.8902565416931427 -6.296097
vertex -14.142134209517389 2.890257955906706 -6.296097
vertex -14.142134916624169 4.6766918207896175 -4.423295
endloop
endfacet
facet normal -5.551115123125783e-17 -0.7236530798663128 0.6902
outer loop
vertex -24.142138718220473 2.8902565416931427 -6.296097
vertex -14.142134916624169 4.6766918207896175 -4.423295
vertex -24.142138718220473 4.676691113682837 -4.423295
endloop
endfacet
facet normal -5.551115123125783e-17 -0.6902776397943076 -0.7236
outer loop
vertex -14.142133502410607 2.6859048032505735 2.361745
vertex -24.14213164715266 4.558710347241863 0.5753125
vertex -14.142132795303826 4.558706104601175 0.5753125
endloop
endfacet
facet normal -5.551115123125783e-17 -0.9595439020701451 -0.2815
outer loop
vertex -14.142132795303826 4.558706104601175 0.5753125
vertex -24.14213164715266 4.558710347241863 0.5753125
vertex -24.14213164715266 5.287383885254599 -1.908185
endloop
endfacet
facet normal -5.551115123125783e-17 -0.9595439020701451 -0.2815
outer loop
vertex -14.142132795303826 4.558706104601175 0.5753125
vertex -24.14213164715266 5.287383885254599 -1.908185
vertex -14.142137037944511 5.287389542108847 -1.908185
endloop
endfacet
facet normal -1.1102230246251565e-16 -0.9717061387065536 0.236
outer loop
vertex -14.142137037944511 5.287389542108847 -1.908185
vertex -24.14213164715266 5.287383885254599 -1.908185
vertex -24.142138718220473 4.676691113682837 -4.423295
endloop
endfacet
facet normal -1.1102230246251565e-16 -0.9717061387065536 0.236
outer loop
vertex -14.142137037944511 5.287389542108847 -1.908185
vertex -24.142138718220473 4.676691113682837 -4.423295
vertex -14.142134916624169 4.6766918207896175 -4.423295
endloop
endfacet
facet normal -5.551115123125783e-17 -0.6902776397943076 -0.7236
outer loop
vertex -24.14213164715266 4.558710347241863 0.5753125
vertex -14.142133502410607 2.6859048032505735 2.361745
vertex -24.14213164715266 2.685909752998043 2.361745
endloop
endfacet
facet normal -2.7755575615628914e-17 -0.23589082220383226 -0.9718
outer loop
vertex -24.14213164715266 2.685909752998043 2.361745
vertex -14.142133502410607 2.6859048032505735 2.361745
vertex -14.142134916624169 0.17079527903458125 2.97244
endloop
endfacet
facet normal -2.7755575615628914e-17 -0.23589082220383226 -0.9718
outer loop
vertex -24.14213164715266 2.685909752998043 2.361745
vertex -14.142134916624169 0.17079527903458125 2.97244
vertex -24.14213871822047 0.17079457192780012 2.97244
endloop
endfacet
facet normal 2.7755575615628914e-17 0.28156992026848326 -0.9595
outer loop
vertex -24.14213871822047 0.17079457192780012 2.97244
vertex -14.142134916624169 0.17079527903458125 2.97244
vertex -14.142138452158076 -2.3127030365284673 2.243762
endloop
endfacet
facet normal 2.7755575615628914e-17 0.28156992026848326 -0.9595
outer loop
vertex -24.14213871822047 0.17079457192780012 2.97244
vertex -14.142138452158076 -2.3127030365284673 2.243762
vertex -24.14213164715266 -2.3126987938877797 2.243762
endloop
endfacet
facet normal 5.551115123125783e-17 0.7236530798663128 -0.6902
outer loop
vertex -24.14213164715266 -2.3126987938877797 2.243762
vertex -14.142138452158076 -2.3127030365284673 2.243762
vertex -14.142139159264856 -4.09913690141138 0.3709601
endloop
endfacet
facet normal 5.551115123125783e-17 0.7236530798663128 -0.6902
outer loop
vertex -24.14213164715266 -2.3126987938877797 2.243762
vertex -14.142139159264856 -4.09913690141138 0.3709601
vertex -24.14213164715266 -4.099133365877474 0.3709601
endloop
endfacet
facet normal 0.9999904099540154 -1.1102230246251565e-16 0.0
outer loop
vertex -24.14213164715266 0.40676317587756294 -7.024776
vertex -24.142138718220473 2.8902565416931427 -6.296097
vertex -24.142138718220473 -2.108352005192682 -6.414081
endloop
endfacet
facet normal 0.9999904099540154 -1.1102230246251565e-16 0.0
outer loop
vertex -24.14213871822047 0.17079457192780012 2.97244
vertex -24.14213164715266 -2.3126987938877797 2.243762
vertex -24.14213164715266 2.685909752998043 2.361745
endloop
endfacet
facet normal 0.9999904099540154 -1.1102230246251565e-16 0.0
outer loop
vertex -24.14213164715266 2.685909752998043 2.361745
vertex -24.14213164715266 -2.3126987938877797 2.243762
vertex -24.14213164715266 -4.099133365877474 0.3709601
endloop
endfacet
facet normal 0.9999904099540154 -1.1102230246251565e-16 0.0
outer loop
vertex -24.14213164715266 2.685909752998043 2.361745
vertex -24.14213164715266 -4.099133365877474 0.3709601
vertex -24.14213164715266 4.558710347241863 0.5753125
endloop
endfacet
facet normal 0.9999904099540154 -1.1102230246251565e-16 0.0
outer loop
vertex -24.14213164715266 4.558710347241863 0.5753125
vertex -24.14213164715266 -4.099133365877474 0.3709601
vertex -24.142138718220473 -4.709826137449237 -2.14415
endloop
endfacet
facet normal 0.9999904099540154 -1.1102230246251565e-16 0.0
outer loop
vertex -24.14213164715266 4.558710347241863 0.5753125
vertex -24.142138718220473 -4.709826137449237 -2.14415
vertex -24.14213164715266 5.287383885254599 -1.908185
endloop
endfacet
facet normal 0.9999904099540154 -1.1102230246251565e-16 0.0
outer loop
vertex -24.14213164715266 5.287383885254599 -1.908185
vertex -24.142138718220473 -4.709826137449237 -2.14415
vertex -24.142138718220473 -3.9811525994364967 -4.627648
endloop
endfacet
facet normal 0.9999904099540154 -1.1102230246251565e-16 -0.0
outer loop
vertex -24.14213164715266 5.287383885254599 -1.908185
vertex -24.142138718220473 -3.9811525994364967 -4.627648
vertex -24.142138718220473 4.676691113682837 -4.423295
endloop
endfacet
facet normal 0.9999904099540154 -1.1102230246251565e-16 -0.0
outer loop
vertex -24.142138718220473 4.676691113682837 -4.423295
vertex -24.142138718220473 -3.9811525994364967 -4.627648
vertex -24.142138718220473 -2.108352005192682 -6.414081
endloop
endfacet
facet normal 0.9999904099540154 -1.1102230246251565e-16 0.0
outer loop
vertex -24.142138718220473 4.676691113682837 -4.423295
vertex -24.142138718220473 -2.108352005192682 -6.414081
vertex -24.142138718220473 2.8902565416931427 -6.296097
endloop
endfacet
facet normal 0.0 0.0 1.0
outer loop
vertex -24.20179024628137 -4.082481001180531 20.0
vertex -14.14213562373095 14.142135623730951 20.0
vertex -32.36675224864243 4.082481001180534 20.0
endloop
endfacet
facet normal -0.0 0.0 1.0
outer loop
vertex -46.50888787237338 -10.059654622550415 20.0
vertex -49.49747468305833 -21.21320343559642 20.0
vertex -38.34392587001232 -18.22461662491148 20.0
endloop
endfacet
facet normal -0.0 0.0 1.0
outer loop
vertex -14.142135623730951 -14.14213562373095 20.0
vertex -14.14213562373095 14.142135623730951 20.0
vertex -24.20179024628137 -4.082481001180531 20.0
endloop
endfacet
facet normal -0.0 0.0 1.0
outer loop
vertex -14.142135623730951 -14.14213562373095 20.0
vertex -24.20179024628137 -4.082481001180531 20.0
vertex -27.190372814325627 -15.236034056867222 20.0
endloop
endfacet
facet normal 0.0 0.0 1.0
outer loop
vertex -14.142135623730951 -14.14213562373095 20.0
vertex -27.190372814325627 -15.236034056867222 20.0
vertex -38.34392587001232 -18.22461662491148 20.0
endloop
endfacet
facet normal 0.0 0.0 1.0
outer loop
vertex -14.142135623730951 -14.14213562373095 20.0
vertex -38.34392587001232 -18.22461662491148 20.0
vertex -49.49747468305833 -21.21320343559642 20.0
endloop
endfacet
facet normal -0.0 0.0 1.0
outer loop
vertex -14.142135623730951 -14.14213562373095 20.0
vertex -49.49747468305833 -21.21320343559642 20.0
vertex -47.32974692144941 -24.45743056088374 20.0
endloop
endfacet
facet normal -0.0 0.0 1.0
outer loop
vertex -14.142135623730951 -14.14213562373095 20.0
vertex -47.32974692144941 -24.45743056088374 20.0
vertex -46.56853940043428 -28.2842712474619 20.0
endloop
endfacet
facet normal -0.0 0.0 1.0
outer loop
vertex -14.142135623730951 -14.14213562373095 20.0
vertex -46.56853940043428 -28.2842712474619 20.0
vertex -47.3297398503816 -32.11110486297224 20.0
endloop
endfacet
facet normal -0.0 0.0 1.0
outer loop
vertex -14.142135623730951 -14.14213562373095 20.0
vertex -47.3297398503816 -32.11110486297224 20.0
vertex -49.49747468305833 -35.35533905932737 20.0
endloop
endfacet
facet normal 0.0 0.0 1.0
outer loop
vertex -14.142135623730951 -14.14213562373095 20.0
vertex -49.49747468305833 -35.35533905932737 20.0
vertex -52.74170887941345 -37.52307389200409 20.0
endloop
endfacet
facet normal 0.0 -0.0 1.0
outer loop
vertex -84.8528137423857 -28.284271247461895 20.0
vertex -63.63961030678928 -49.49747468305832 20.0
vertex -49.49747468305833 -49.49747468305832 20.0
endloop
endfacet
facet normal -0.0 0.0 1.0
outer loop
vertex -84.8528137423857 -28.284271247461895 20.0
vertex -49.49747468305833 -49.49747468305832 20.0
vertex -63.63961030678928 -35.35533905932737 20.0
endloop
endfacet
facet normal 0.0 -0.0 1.0
outer loop
vertex -84.8528137423857 -28.284271247461895 20.0
vertex -63.63961030678928 -35.35533905932737 20.0
vertex -65.80733099733038 -32.11110486297224 20.0
endloop
endfacet
facet normal 0.0 -0.0 1.0
outer loop
vertex -84.8528137423857 -28.284271247461895 20.0
vertex -65.80733099733038 -32.11110486297224 20.0
vertex -70.71067811865476 -14.142135623730944 20.0
endloop
endfacet
facet normal -0.0 0.0 1.0
outer loop
vertex -63.63961030678927 35.35533905932738 20.0
vertex -70.71067811865476 -14.142135623730944 20.0
vertex -63.63961030678928 -21.21320343559642 20.0
endloop
endfacet
facet normal -0.0 0.0 1.0
outer loop
vertex -63.63961030678927 35.35533905932738 20.0
vertex -63.63961030678928 -21.21320343559642 20.0
vertex -60.39537611043416 -19.04546860291969 20.0
endloop
endfacet
facet normal -0.0 0.0 1.0
outer loop
vertex -63.63961030678927 35.35533905932738 20.0
vertex -60.39537611043416 -19.04546860291969 20.0
vertex -56.568542494923804 -18.284268152972377 20.0
endloop
endfacet
facet normal -0.0 0.0 1.0
outer loop
vertex -63.63961030678927 35.35533905932738 20.0
vertex -56.568542494923804 -18.284268152972377 20.0
vertex -52.741701808345645 -19.045475673987507 20.0
endloop
endfacet
facet normal -0.0 0.0 1.0
outer loop
vertex -63.63961030678927 35.35533905932738 20.0
vertex -52.741701808345645 -19.045475673987507 20.0
vertex -49.49747468305833 -21.21320343559642 20.0
endloop
endfacet
facet normal -0.0 0.0 1.0
outer loop
vertex -63.63961030678927 35.35533905932738 20.0
vertex -49.49747468305833 -21.21320343559642 20.0
vertex -46.50888787237338 -10.059654622550415 20.0
endloop
endfacet
facet normal -0.0 0.0 1.0
outer loop
vertex -63.63961030678927 35.35533905932738 20.0
vertex -46.50888787237338 -10.059654622550415 20.0
vertex -43.52030106168844 1.0938941904955932 20.0
endloop
endfacet
facet normal -0.0 0.0 1.0
outer loop
vertex -63.63961030678927 35.35533905932738 20.0
vertex -43.52030106168844 1.0938941904955932 20.0
vertex -32.36675224864243 4.082481001180534 20.0
endloop
endfacet
facet normal 0.0 -0.0 1.0
outer loop
vertex -63.63961030678927 35.35533905932738 20.0
vertex -32.36675224864243 4.082481001180534 20.0
vertex -14.14213562373095 14.142135623730951 20.0
endloop
endfacet
facet normal -0.0 0.0 1.0
outer loop
vertex -63.63961030678927 35.35533905932738 20.0
vertex -14.14213562373095 14.142135623730951 20.0
vertex -51.07517133324175 31.430274169774595 20.0
endloop
endfacet
facet normal -0.0 0.0 1.0
outer loop
vertex -63.63961030678927 35.35533905932738 20.0
vertex -51.07517133324175 31.430274169774595 20.0
vertex -53.089322573044754 32.59313955570712 20.0
endloop
endfacet
facet normal -0.0 0.0 1.0
outer loop
vertex -63.63961030678927 35.35533905932738 20.0
vertex -53.089322573044754 32.59313955570712 20.0
vertex -67.23145819677572 46.73527517943808 20.0
endloop
endfacet
facet normal 0.0 0.0 1.0
outer loop
vertex -63.63961030678927 35.35533905932738 20.0
vertex -67.23145819677572 46.73527517943808 20.0
vertex -84.85281374238569 56.568542494923804 20.0
endloop
endfacet
facet normal -0.0 0.0 1.0
outer loop
vertex -49.49747468305833 -49.49747468305832 20.0
vertex -14.142135623730951 -14.14213562373095 20.0
vertex -52.74170887941345 -37.52307389200409 20.0
endloop
endfacet
facet normal 0.0 0.0 1.0
outer loop
vertex -49.49747468305833 -49.49747468305832 20.0
vertex -52.74170887941345 -37.52307389200409 20.0
vertex -56.568542494923804 -38.284274341951416 20.0
endloop
endfacet
facet normal 0.0 0.0 1.0
outer loop
vertex -49.49747468305833 -49.49747468305832 20.0
vertex -56.568542494923804 -38.284274341951416 20.0
vertex -60.39537611043414 -37.523059749868466 20.0
endloop
endfacet
facet normal 0.0 0.0 1.0
outer loop
vertex -49.49747468305833 -49.49747468305832 20.0
vertex -60.39537611043414 -37.523059749868466 20.0
vertex -63.63961030678928 -35.35533905932737 20.0
endloop
endfacet
facet normal -0.0 0.0 1.0
outer loop
vertex -70.71067811865476 -14.142135623730944 20.0
vertex -65.80733099733038 -32.11110486297224 20.0
vertex -66.56854558941333 -28.2842712474619 20.0
endloop
endfacet
facet normal -0.0 0.0 1.0
outer loop
vertex -70.71067811865476 -14.142135623730944 20.0
vertex -66.56854558941333 -28.2842712474619 20.0
vertex -65.80734513946601 -24.457437631951542 20.0
endloop
endfacet
facet normal -0.0 0.0 1.0
outer loop
vertex -70.71067811865476 -14.142135623730944 20.0
vertex -65.80734513946601 -24.457437631951542 20.0
vertex -63.63961030678928 -21.21320343559642 20.0
endloop
endfacet
facet normal -0.0 0.0 1.0
outer loop
vertex -14.14213562373095 14.142135623730951 20.0
vertex -46.73527800786519 38.94718412088669 20.0
vertex -45.572409793505535 36.933035709510804 20.0
endloop
endfacet
facet normal -0.0 0.0 1.0
outer loop
vertex -14.14213562373095 14.142135623730951 20.0
vertex -45.572409793505535 36.933035709510804 20.0
vertex -45.5724076721852 34.607292916830474 20.0
endloop
endfacet
facet normal -0.0 0.0 1.0
outer loop
vertex -14.14213562373095 14.142135623730951 20.0
vertex -45.5724076721852 34.607292916830474 20.0
vertex -46.73528225050588 32.59314662677493 20.0
endloop
endfacet
facet normal 0.0 0.0 1.0
outer loop
vertex -14.14213562373095 14.142135623730951 20.0
vertex -46.73528225050588 32.59314662677493 20.0
vertex -48.749426419241075 31.4302741697746 20.0
endloop
endfacet
facet normal 0.0 0.0 1.0
outer loop
vertex -14.14213562373095 14.142135623730951 20.0
vertex -48.749426419241075 31.4302741697746 20.0
vertex -51.07517133324175 31.430274169774595 20.0
endloop
endfacet
facet normal -0.0 0.0 1.0
outer loop
vertex -77.78174593052022 63.63961030678928 20.0
vertex -84.85281374238569 56.568542494923804 20.0
vertex -67.23145819677572 46.73527517943808 20.0
endloop
endfacet
facet normal -0.0 0.0 1.0
outer loop
vertex -77.78174593052022 63.63961030678928 20.0
vertex -67.23145819677572 46.73527517943808 20.0
vertex -68.39433065377604 48.7494334903089 20.0
endloop
endfacet
facet normal -0.0 0.0 1.0
outer loop
vertex -77.78174593052022 63.63961030678928 20.0
vertex -68.39433065377604 48.7494334903089 20.0
vertex -68.39432358270822 51.075171333241755 20.0
endloop
endfacet
facet normal -0.0 0.0 1.0
outer loop
vertex -77.78174593052022 63.63961030678928 20.0
vertex -68.39432358270822 51.075171333241755 20.0
vertex -67.2314581967757 53.08932257304476 20.0
endloop
endfacet
facet normal 0.0 -0.0 1.0
outer loop
vertex -77.78174593052022 63.63961030678928 20.0
vertex -67.2314581967757 53.08932257304476 20.0
vertex -65.21730483565234 54.25219008029763 20.0
endloop
endfacet
facet normal 0.0 -0.0 1.0
outer loop
vertex -77.78174593052022 63.63961030678928 20.0
vertex -65.21730483565234 54.25219008029763 20.0
vertex -74.53750890573797 65.8073338257575 20.0
endloop
endfacet
facet normal -0.0 0.0 1.0
outer loop
vertex -66.88384782654627 65.80734181606414 20.0
vertex -70.71067953286831 66.56854417519976 20.0
vertex -63.63961030678927 63.63961030678928 20.0
endloop
endfacet
facet normal 0.0 0.0 1.0
outer loop
vertex -63.63961030678927 63.63961030678928 20.0
vertex -70.71067953286831 66.56854417519976 20.0
vertex -60.87741363159614 53.08931974461765 20.0
endloop
endfacet
facet normal -0.0 0.0 1.0
outer loop
vertex -63.63961030678927 63.63961030678928 20.0
vertex -60.87741363159614 53.08931974461765 20.0
vertex -14.14213562373095 14.142135623730951 20.0
endloop
endfacet
facet normal -0.0 0.0 1.0
outer loop
vertex -14.14213562373095 14.142135623730951 20.0
vertex -60.87741363159614 53.08931974461765 20.0
vertex -46.73527800786519 38.94718412088669 20.0
endloop
endfacet
facet normal -0.0 0.0 1.0
outer loop
vertex -60.87741363159614 53.08931974461765 20.0
vertex -70.71067953286831 66.56854417519976 20.0
vertex -62.89156911403983 54.25219503004511 20.0
endloop
endfacet
facet normal 0.0 -0.0 1.0
outer loop
vertex -62.89156911403983 54.25219503004511 20.0
vertex -70.71067953286831 66.56854417519976 20.0
vertex -74.53750890573797 65.8073338257575 20.0
endloop
endfacet
facet normal -0.0 0.0 1.0
outer loop
vertex -62.89156911403983 54.25219503004511 20.0
vertex -74.53750890573797 65.8073338257575 20.0
vertex -65.21730483565234 54.25219008029763 20.0
endloop
endfacet
facet normal -0.0 0.0 -1.0
outer loop
vertex -32.36675224864243 4.082481001180534 -20.0
vertex -14.14213562373095 14.142135623730951 -20.0
vertex -24.20179024628137 -4.082481001180531 -20.0
endloop
endfacet
facet normal 0.0 0.0 -1.0
outer loop
vertex -38.34392587001232 -18.22461662491148 -20.0
vertex -49.49747468305833 -21.21320343559642 -20.0
vertex -46.50888787237338 -10.059654622550415 -20.0
endloop
endfacet
facet normal -0.0 0.0 -1.0
outer loop
vertex -14.142135623730951 -14.14213562373095 -20.0
vertex -52.74170887941345 -37.52307389200409 -20.0
vertex -49.49747468305833 -35.35533905932737 -20.0
endloop
endfacet
facet normal 0.0 0.0 -1.0
outer loop
vertex -14.142135623730951 -14.14213562373095 -20.0
vertex -49.49747468305833 -35.35533905932737 -20.0
vertex -47.3297398503816 -32.11110486297224 -20.0
endloop
endfacet
facet normal 0.0 0.0 -1.0
outer loop
vertex -14.142135623730951 -14.14213562373095 -20.0
vertex -47.3297398503816 -32.11110486297224 -20.0
vertex -46.56853940043428 -28.2842712474619 -20.0
endloop
endfacet
facet normal 0.0 0.0 -1.0
outer loop
vertex -14.142135623730951 -14.14213562373095 -20.0
vertex -46.56853940043428 -28.2842712474619 -20.0
vertex -47.32974692144941 -24.45743056088374 -20.0
endloop
endfacet
facet normal 0.0 0.0 -1.0
outer loop
vertex -14.142135623730951 -14.14213562373095 -20.0
vertex -47.32974692144941 -24.45743056088374 -20.0
vertex -49.49747468305833 -21.21320343559642 -20.0
endloop
endfacet
facet normal -0.0 0.0 -1.0
outer loop
vertex -14.142135623730951 -14.14213562373095 -20.0
vertex -49.49747468305833 -21.21320343559642 -20.0
vertex -38.34392587001232 -18.22461662491148 -20.0
endloop
endfacet
facet normal -0.0 0.0 -1.0
outer loop
vertex -14.142135623730951 -14.14213562373095 -20.0
vertex -38.34392587001232 -18.22461662491148 -20.0
vertex -27.190372814325627 -15.236034056867222 -20.0
endloop
endfacet
facet normal 0.0 0.0 -1.0
outer loop
vertex -14.142135623730951 -14.14213562373095 -20.0
vertex -27.190372814325627 -15.236034056867222 -20.0
vertex -24.20179024628137 -4.082481001180531 -20.0
endloop
endfacet
facet normal 0.0 0.0 -1.0
outer loop
vertex -14.142135623730951 -14.14213562373095 -20.0
vertex -24.20179024628137 -4.082481001180531 -20.0
vertex -14.14213562373095 14.142135623730951 -20.0
endloop
endfacet
facet normal -0.0 0.0 -1.0
outer loop
vertex -84.8528137423857 -28.284271247461895 -20.0
vertex -70.71067811865476 -14.142135623730944 -20.0
vertex -65.80733099733038 -32.11110486297224 -20.0
endloop
endfacet
facet normal -0.0 0.0 -1.0
outer loop
vertex -84.8528137423857 -28.284271247461895 -20.0
vertex -65.80733099733038 -32.11110486297224 -20.0
vertex -63.63961030678928 -35.35533905932737 -20.0
endloop
endfacet
facet normal -0.0 0.0 -1.0
outer loop
vertex -84.8528137423857 -28.284271247461895 -20.0
vertex -63.63961030678928 -35.35533905932737 -20.0
vertex -49.49747468305833 -49.49747468305832 -20.0
endloop
endfacet
facet normal -0.0 0.0 -1.0
outer loop
vertex -84.8528137423857 -28.284271247461895 -20.0
vertex -49.49747468305833 -49.49747468305832 -20.0
vertex -63.63961030678928 -49.49747468305832 -20.0
endloop
endfacet
facet normal 0.0 -0.0 -1.0
outer loop
vertex -63.63961030678927 35.35533905932738 -20.0
vertex -84.85281374238569 56.568542494923804 -20.0
vertex -67.23145819677572 46.73527517943808 -20.0
endloop
endfacet
facet normal -0.0 0.0 -1.0
outer loop
vertex -63.63961030678927 35.35533905932738 -20.0
vertex -67.23145819677572 46.73527517943808 -20.0
vertex -53.089322573044754 32.59313955570712 -20.0
endloop
endfacet
facet normal 0.0 -0.0 -1.0
outer loop
vertex -63.63961030678927 35.35533905932738 -20.0
vertex -53.089322573044754 32.59313955570712 -20.0
vertex -51.07517133324175 31.430274169774595 -20.0
endloop
endfacet
facet normal 0.0 -0.0 -1.0
outer loop
vertex -63.63961030678927 35.35533905932738 -20.0
vertex -51.07517133324175 31.430274169774595 -20.0
vertex -14.14213562373095 14.142135623730951 -20.0
endloop
endfacet
facet normal -0.0 0.0 -1.0
outer loop
vertex -63.63961030678927 35.35533905932738 -20.0
vertex -14.14213562373095 14.142135623730951 -20.0
vertex -32.36675224864243 4.082481001180534 -20.0
endloop
endfacet
facet normal -0.0 0.0 -1.0
outer loop
vertex -63.63961030678927 35.35533905932738 -20.0
vertex -32.36675224864243 4.082481001180534 -20.0
vertex -43.52030106168844 1.0938941904955932 -20.0
endloop
endfacet
facet normal -0.0 0.0 -1.0
outer loop
vertex -63.63961030678927 35.35533905932738 -20.0
vertex -43.52030106168844 1.0938941904955932 -20.0
vertex -46.50888787237338 -10.059654622550415 -20.0
endloop
endfacet
facet normal -0.0 0.0 -1.0
outer loop
vertex -63.63961030678927 35.35533905932738 -20.0
vertex -46.50888787237338 -10.059654622550415 -20.0
vertex -49.49747468305833 -21.21320343559642 -20.0
endloop
endfacet
facet normal -0.0 0.0 -1.0
outer loop
vertex -63.63961030678927 35.35533905932738 -20.0
vertex -49.49747468305833 -21.21320343559642 -20.0
vertex -52.741701808345645 -19.045475673987507 -20.0
endloop
endfacet
facet normal -0.0 0.0 -1.0
outer loop
vertex -63.63961030678927 35.35533905932738 -20.0
vertex -52.741701808345645 -19.045475673987507 -20.0
vertex -56.568542494923804 -18.284268152972377 -20.0
endloop
endfacet
facet normal -0.0 0.0 -1.0
outer loop
vertex -63.63961030678927 35.35533905932738 -20.0
vertex -56.568542494923804 -18.284268152972377 -20.0
vertex -60.39537611043416 -19.04546860291969 -20.0
endloop
endfacet
facet normal -0.0 0.0 -1.0
outer loop
vertex -63.63961030678927 35.35533905932738 -20.0
vertex -60.39537611043416 -19.04546860291969 -20.0
vertex -63.63961030678928 -21.21320343559642 -20.0
endloop
endfacet
facet normal -0.0 0.0 -1.0
outer loop
vertex -63.63961030678927 35.35533905932738 -20.0
vertex -63.63961030678928 -21.21320343559642 -20.0
vertex -70.71067811865476 -14.142135623730944 -20.0
endloop
endfacet
facet normal 0.0 -0.0 -1.0
outer loop
vertex -49.49747468305833 -49.49747468305832 -20.0
vertex -63.63961030678928 -35.35533905932737 -20.0
vertex -60.39537611043414 -37.523059749868466 -20.0
endloop
endfacet
facet normal 0.0 -0.0 -1.0
outer loop
vertex -49.49747468305833 -49.49747468305832 -20.0
vertex -60.39537611043414 -37.523059749868466 -20.0
vertex -56.568542494923804 -38.284274341951416 -20.0
endloop
endfacet
facet normal 0.0 -0.0 -1.0
outer loop
vertex -49.49747468305833 -49.49747468305832 -20.0
vertex -56.568542494923804 -38.284274341951416 -20.0
vertex -52.74170887941345 -37.52307389200409 -20.0
endloop
endfacet
facet normal 0.0 -0.0 -1.0
outer loop
vertex -49.49747468305833 -49.49747468305832 -20.0
vertex -52.74170887941345 -37.52307389200409 -20.0
vertex -14.142135623730951 -14.14213562373095 -20.0
endloop
endfacet
facet normal -0.0 0.0 -1.0
outer loop
vertex -70.71067811865476 -14.142135623730944 -20.0
vertex -63.63961030678928 -21.21320343559642 -20.0
vertex -65.80734513946601 -24.457437631951542 -20.0
endloop
endfacet
facet normal -0.0 0.0 -1.0
outer loop
vertex -70.71067811865476 -14.142135623730944 -20.0
vertex -65.80734513946601 -24.457437631951542 -20.0
vertex -66.56854558941333 -28.2842712474619 -20.0
endloop
endfacet
facet normal -0.0 0.0 -1.0
outer loop
vertex -70.71067811865476 -14.142135623730944 -20.0
vertex -66.56854558941333 -28.2842712474619 -20.0
vertex -65.80733099733038 -32.11110486297224 -20.0
endloop
endfacet
facet normal -0.0 0.0 -1.0
outer loop
vertex -14.14213562373095 14.142135623730951 -20.0
vertex -51.07517133324175 31.430274169774595 -20.0
vertex -48.749426419241075 31.4302741697746 -20.0
endloop
endfacet
facet normal -0.0 0.0 -1.0
outer loop
vertex -14.14213562373095 14.142135623730951 -20.0
vertex -48.749426419241075 31.4302741697746 -20.0
vertex -46.73528225050588 32.59314662677493 -20.0
endloop
endfacet
facet normal 0.0 0.0 -1.0
outer loop
vertex -14.14213562373095 14.142135623730951 -20.0
vertex -46.73528225050588 32.59314662677493 -20.0
vertex -45.5724076721852 34.607292916830474 -20.0
endloop
endfacet
facet normal 0.0 0.0 -1.0
outer loop
vertex -14.14213562373095 14.142135623730951 -20.0
vertex -45.5724076721852 34.607292916830474 -20.0
vertex -45.572409793505535 36.933035709510804 -20.0
endloop
endfacet
facet normal 0.0 0.0 -1.0
outer loop
vertex -14.14213562373095 14.142135623730951 -20.0
vertex -45.572409793505535 36.933035709510804 -20.0
vertex -46.73527800786519 38.94718412088669 -20.0
endloop
endfacet
facet normal -0.0 0.0 -1.0
outer loop
vertex -77.78174593052022 63.63961030678928 -20.0
vertex -74.53750890573797 65.8073338257575 -20.0
vertex -65.21730483565234 54.25219008029763 -20.0
endloop
endfacet
facet normal -0.0 0.0 -1.0
outer loop
vertex -77.78174593052022 63.63961030678928 -20.0
vertex -65.21730483565234 54.25219008029763 -20.0
vertex -67.2314581967757 53.08932257304476 -20.0
endloop
endfacet
facet normal -0.0 0.0 -1.0
outer loop
vertex -77.78174593052022 63.63961030678928 -20.0
vertex -67.2314581967757 53.08932257304476 -20.0
vertex -68.39432358270822 51.075171333241755 -20.0
endloop
endfacet
facet normal -0.0 0.0 -1.0
outer loop
vertex -77.78174593052022 63.63961030678928 -20.0
vertex -68.39432358270822 51.075171333241755 -20.0
vertex -68.39433065377604 48.7494334903089 -20.0
endloop
endfacet
facet normal -0.0 0.0 -1.0
outer loop
vertex -77.78174593052022 63.63961030678928 -20.0
vertex -68.39433065377604 48.7494334903089 -20.0
vertex -67.23145819677572 46.73527517943808 -20.0
endloop
endfacet
facet normal -0.0 0.0 -1.0
outer loop
vertex -77.78174593052022 63.63961030678928 -20.0
vertex -67.23145819677572 46.73527517943808 -20.0
vertex -84.85281374238569 56.568542494923804 -20.0
endloop
endfacet
facet normal -0.0 0.0 -1.0
outer loop
vertex -66.88384782654627 65.80734181606414 -20.0
vertex -63.63961030678927 63.63961030678928 -20.0
vertex -70.71067953286831 66.56854417519976 -20.0
endloop
endfacet
facet normal 0.0 -0.0 -1.0
outer loop
vertex -70.71067953286831 66.56854417519976 -20.0
vertex -63.63961030678927 63.63961030678928 -20.0
vertex -60.87741363159614 53.08931974461765 -20.0
endloop
endfacet
facet normal -0.0 0.0 -1.0
outer loop
vertex -63.63961030678927 63.63961030678928 -20.0
vertex -14.14213562373095 14.142135623730951 -20.0
vertex -60.87741363159614 53.08931974461765 -20.0
endloop
endfacet
facet normal 0.0 -0.0 -1.0
outer loop
vertex -60.87741363159614 53.08931974461765 -20.0
vertex -14.14213562373095 14.142135623730951 -20.0
vertex -46.73527800786519 38.94718412088669 -20.0
endloop
endfacet
facet normal 0.0 -0.0 -1.0
outer loop
vertex -65.21730483565234 54.25219008029763 -20.0
vertex -74.53750890573797 65.8073338257575 -20.0
vertex -62.89156911403983 54.25219503004511 -20.0
endloop
endfacet
facet normal -0.0 0.0 -1.0
outer loop
vertex -62.89156911403983 54.25219503004511 -20.0
vertex -74.53750890573797 65.8073338257575 -20.0
vertex -70.71067953286831 66.56854417519976 -20.0
endloop
endfacet
facet normal -0.0 0.0 -1.0
outer loop
vertex -62.89156911403983 54.25219503004511 -20.0
vertex -70.71067953286831 66.56854417519976 -20.0
vertex -60.87741363159614 53.08931974461765 -20.0
endloop
endfacet
facet normal 0.7071067811865476 0.7071067811865475 0.0
outer loop
vertex -63.63961030678927 63.63961030678928 20.0
vertex -14.14213562373095 14.142135623730951 20.0
vertex -63.63961030678927 63.63961030678928 -20.0
endloop
endfacet
facet normal 0.7071067811865476 0.7071067811865475 0.0
outer loop
vertex -63.63961030678927 63.63961030678928 -20.0
vertex -14.14213562373095 14.142135623730951 20.0
vertex -14.14213562373095 14.142135623730951 -20.0
endloop
endfacet
facet normal 0.7071067811865475 -0.7071067811865476 0.0
outer loop
vertex -14.142135623730951 -14.14213562373095 20.0
vertex -49.49747468305833 -49.49747468305832 20.0
vertex -14.142135623730951 -14.14213562373095 -20.0
endloop
endfacet
facet normal 0.7071067811865475 -0.7071067811865476 0.0
outer loop
vertex -14.142135623730951 -14.14213562373095 -20.0
vertex -49.49747468305833 -49.49747468305832 20.0
vertex -49.49747468305833 -49.49747468305832 -20.0
endloop
endfacet
facet normal -0.7071067811865476 -0.7071067811865475 0.0
outer loop
vertex -70.71067811865476 -42.426406871192846 1.776357e-15
vertex -77.78174593052023 -35.35533905932737 -10.0
vertex -63.63961030678928 -49.49747468305832 -20.0
endloop
endfacet
facet normal -0.7071067811865476 -0.7071067811865475 0.0
outer loop
vertex -63.63961030678928 -49.49747468305832 20.0
vertex -84.8528137423857 -28.284271247461895 20.0
vertex -77.78174593052023 -35.35533905932737 10.0
endloop
endfacet
facet normal -0.7071067811865476 -0.7071067811865475 0.0
outer loop
vertex -63.63961030678928 -49.49747468305832 20.0
vertex -77.78174593052023 -35.35533905932737 10.0
vertex -70.71067811865476 -42.426406871192846 1.776357e-15
endloop
endfacet
facet normal -0.7071067811865476 -0.7071067811865475 0.0
outer loop
vertex -63.63961030678928 -49.49747468305832 20.0
vertex -70.71067811865476 -42.426406871192846 1.776357e-15
vertex -63.63961030678928 -49.49747468305832 -20.0
endloop
endfacet
facet normal -0.7071067811865476 -0.7071067811865475 0.0
outer loop
vertex -63.63961030678928 -49.49747468305832 -20.0
vertex -77.78174593052023 -35.35533905932737 -10.0
vertex -84.8528137423857 -28.284271247461895 -20.0
endloop
endfacet
facet normal -0.7071067811865476 -0.7071067811865475 0.0
outer loop
vertex -84.8528137423857 -28.284271247461895 -20.0
vertex -77.78174593052023 -35.35533905932737 -10.0
vertex -77.78174593052023 -35.35533905932737 10.0
endloop
endfacet
facet normal -0.7071067811865476 -0.7071067811865475 0.0
outer loop
vertex -84.8528137423857 -28.284271247461895 -20.0
vertex -77.78174593052023 -35.35533905932737 10.0
vertex -84.8528137423857 -28.284271247461895 20.0
endloop
endfacet
facet normal -0.7071067811865476 -0.7071067811865475 -0.0
outer loop
vertex -70.71067811865476 -28.284271247461895 10.0
vertex -70.71067811865476 -28.284271247461895 -10.0
vertex -63.63961030678928 -35.35533905932737 3.552714e-15
endloop
endfacet
facet normal -0.49999520497700767 0.4999952049770078 -0.7071
outer loop
vertex -63.63961030678928 -35.35533905932737 3.552714e-15
vertex -70.71067811865476 -42.426406871192846 1.776357e-15
vertex -70.71067811865476 -28.284271247461895 10.0
endloop
endfacet
facet normal -0.49999520497700767 0.4999952049770078 -0.7071
outer loop
vertex -70.71067811865476 -28.284271247461895 10.0
vertex -70.71067811865476 -42.426406871192846 1.776357e-15
vertex -77.78174593052023 -35.35533905932737 10.0
endloop
endfacet
facet normal -0.49999520497700767 0.4999952049770078 0.7071
outer loop
vertex -70.71067811865476 -28.284271247461895 -10.0
vertex -77.78174593052023 -35.35533905932737 -10.0
vertex -63.63961030678928 -35.35533905932737 3.552714e-15
endloop
endfacet
facet normal -0.49999520497700767 0.4999952049770078 0.7071
outer loop
vertex -63.63961030678928 -35.35533905932737 3.552714e-15
vertex -77.78174593052023 -35.35533905932737 -10.0
vertex -70.71067811865476 -42.426406871192846 1.776357e-15
endloop
endfacet
facet normal 0.7071067811865475 -0.7071067811865476 0.0
outer loop
vertex -70.71067811865476 -28.284271247461895 10.0
vertex -77.78174593052023 -35.35533905932737 10.0
vertex -70.71067811865476 -28.284271247461895 -10.0
endloop
endfacet
facet normal 0.7071067811865475 -0.7071067811865476 0.0
outer loop
vertex -70.71067811865476 -28.284271247461895 -10.0
vertex -77.78174593052023 -35.35533905932737 10.0
vertex -77.78174593052023 -35.35533905932737 -10.0
endloop
endfacet
facet normal 0.5555737979782704 0.8314868639972611 0.0
outer loop
vertex -63.63961030678928 -35.35533905932737 -20.0
vertex -60.39537611043414 -37.523059749868466 20.0
vertex -60.39537611043414 -37.523059749868466 -20.0
endloop
endfacet
facet normal 0.1950907609293685 0.9808278161838602 0.0
outer loop
vertex -60.39537611043414 -37.523059749868466 -20.0
vertex -60.39537611043414 -37.523059749868466 20.0
vertex -56.568542494923804 -38.284274341951416 20.0
endloop
endfacet
facet normal 0.1950907609293685 0.9808278161838602 0.0
outer loop
vertex -60.39537611043414 -37.523059749868466 -20.0
vertex -56.568542494923804 -38.284274341951416 20.0
vertex -56.568542494923804 -38.284274341951416 -20.0
endloop
endfacet
facet normal -0.19509076092936845 0.9808278161838601 0.0
outer loop
vertex -56.568542494923804 -38.284274341951416 -20.0
vertex -56.568542494923804 -38.284274341951416 20.0
vertex -52.74170887941345 -37.52307389200409 20.0
endloop
endfacet
facet normal -0.19509076092936845 0.9808278161838601 0.0
outer loop
vertex -56.568542494923804 -38.284274341951416 -20.0
vertex -52.74170887941345 -37.52307389200409 20.0
vertex -52.74170887941345 -37.52307389200409 -20.0
endloop
endfacet
facet normal -0.5555737979782703 0.8314868639972612 0.0
outer loop
vertex -52.74170887941345 -37.52307389200409 -20.0
vertex -52.74170887941345 -37.52307389200409 20.0
vertex -49.49747468305833 -35.35533905932737 20.0
endloop
endfacet
facet normal -0.5555737979782703 0.8314868639972612 0.0
outer loop
vertex -52.74170887941345 -37.52307389200409 -20.0
vertex -49.49747468305833 -35.35533905932737 20.0
vertex -49.49747468305833 -35.35533905932737 -20.0
endloop
endfacet
facet normal 0.5555737979782704 0.8314868639972611 0.0
outer loop
vertex -60.39537611043414 -37.523059749868466 20.0
vertex -63.63961030678928 -35.35533905932737 -20.0
vertex -63.63961030678928 -35.35533905932737 20.0
endloop
endfacet
facet normal 0.8314868639972612 0.5555737979782703 -0.0
outer loop
vertex -63.63961030678928 -35.35533905932737 20.0
vertex -63.63961030678928 -35.35533905932737 -20.0
vertex -65.80733099733038 -32.11110486297224 -20.0
endloop
endfacet
facet normal 0.8314868639972612 0.5555737979782703 0.0
outer loop
vertex -63.63961030678928 -35.35533905932737 20.0
vertex -65.80733099733038 -32.11110486297224 -20.0
vertex -65.80733099733038 -32.11110486297224 20.0
endloop
endfacet
facet normal 0.9808278161838601 0.19509076092936845 -0.0
outer loop
vertex -65.80733099733038 -32.11110486297224 20.0
vertex -65.80733099733038 -32.11110486297224 -20.0
vertex -66.56854558941333 -28.2842712474619 -20.0
endloop
endfacet
facet normal 0.9808278161838601 0.19509076092936845 0.0
outer loop
vertex -65.80733099733038 -32.11110486297224 20.0
vertex -66.56854558941333 -28.2842712474619 -20.0
vertex -66.56854558941333 -28.2842712474619 20.0
endloop
endfacet
facet normal 0.9808278161838602 -0.1950907609293685 -0.0
outer loop
vertex -66.56854558941333 -28.2842712474619 20.0
vertex -66.56854558941333 -28.2842712474619 -20.0
vertex -65.80734513946601 -24.457437631951542 -20.0
endloop
endfacet
facet normal 0.9808278161838602 -0.1950907609293685 0.0
outer loop
vertex -66.56854558941333 -28.2842712474619 20.0
vertex -65.80734513946601 -24.457437631951542 -20.0
vertex -65.80734513946601 -24.457437631951542 20.0
endloop
endfacet
facet normal 0.8314868639972611 -0.5555737979782704 -0.0
outer loop
vertex -65.80734513946601 -24.457437631951542 20.0
vertex -65.80734513946601 -24.457437631951542 -20.0
vertex -63.63961030678928 -21.21320343559642 -20.0
endloop
endfacet
facet normal 0.8314868639972611 -0.5555737979782704 0.0
outer loop
vertex -65.80734513946601 -24.457437631951542 20.0
vertex -63.63961030678928 -21.21320343559642 -20.0
vertex -63.63961030678928 -21.21320343559642 20.0
endloop
endfacet
facet normal -0.7071067811865475 0.7071067811865476 0.0
outer loop
vertex -84.85281374238569 56.568542494923804 -20.0
vertex -84.85281374238569 56.568542494923804 20.0
vertex -77.78174593052022 63.63961030678928 -20.0
endloop
endfacet
facet normal -0.7071067811865475 0.7071067811865476 0.0
outer loop
vertex -77.78174593052022 63.63961030678928 -20.0
vertex -84.85281374238569 56.568542494923804 20.0
vertex -77.78174593052022 63.63961030678928 20.0
endloop
endfacet
facet normal -0.5555737979782703 0.8314868639972612 0.0
outer loop
vertex -77.78174593052022 63.63961030678928 -20.0
vertex -77.78174593052022 63.63961030678928 20.0
vertex -74.53750890573797 65.8073338257575 -20.0
endloop
endfacet
facet normal -0.5555737979782703 0.8314868639972612 0.0
outer loop
vertex -74.53750890573797 65.8073338257575 -20.0
vertex -77.78174593052022 63.63961030678928 20.0
vertex -74.53750890573797 65.8073338257575 20.0
endloop
endfacet
facet normal -0.19509076092936845 0.9808278161838601 0.0
outer loop
vertex -74.53750890573797 65.8073338257575 -20.0
vertex -74.53750890573797 65.8073338257575 20.0
vertex -70.71067953286831 66.56854417519976 -20.0
endloop
endfacet
facet normal -0.19509076092936845 0.9808278161838601 0.0
outer loop
vertex -70.71067953286831 66.56854417519976 -20.0
vertex -74.53750890573797 65.8073338257575 20.0
vertex -70.71067953286831 66.56854417519976 20.0
endloop
endfacet
facet normal 0.1950907609293685 0.9808278161838602 0.0
outer loop
vertex -70.71067953286831 66.56854417519976 -20.0
vertex -70.71067953286831 66.56854417519976 20.0
vertex -66.88384782654627 65.80734181606414 -20.0
endloop
endfacet
facet normal 0.1950907609293685 0.9808278161838602 0.0
outer loop
vertex -66.88384782654627 65.80734181606414 -20.0
vertex -70.71067953286831 66.56854417519976 20.0
vertex -66.88384782654627 65.80734181606414 20.0
endloop
endfacet
facet normal 0.5555737979782704 0.8314868639972611 0.0
outer loop
vertex -66.88384782654627 65.80734181606414 -20.0
vertex -66.88384782654627 65.80734181606414 20.0
vertex -63.63961030678927 63.63961030678928 -20.0
endloop
endfacet
facet normal 0.5555737979782704 0.8314868639972611 0.0
outer loop
vertex -63.63961030678927 63.63961030678928 -20.0
vertex -66.88384782654627 65.80734181606414 20.0
vertex -63.63961030678927 63.63961030678928 20.0
endloop
endfacet
facet normal -1.1102230246251565e-16 -0.9999904099540154 0.0
outer loop
vertex -63.63961030678928 -49.49747468305832 20.0
vertex -63.63961030678928 -49.49747468305832 -20.0
vertex -49.49747468305833 -49.49747468305832 20.0
endloop
endfacet
facet normal -1.1102230246251565e-16 -0.9999904099540154 0.0
outer loop
vertex -49.49747468305833 -49.49747468305832 20.0
vertex -63.63961030678928 -49.49747468305832 -20.0
vertex -49.49747468305833 -49.49747468305832 -20.0
endloop
endfacet
facet normal -0.9899494936611666 0.14142135623730967 -0.0
outer loop
vertex -63.63961030678927 35.35533905932738 20.0
vertex -63.63961030678927 35.35533905932738 -20.0
vertex -66.01000194295406 18.762597606173834 3.826834
endloop
endfacet
facet normal -0.9899494936611666 0.14142135623730967 -0.0
outer loop
vertex -63.63961030678927 35.35533905932738 20.0
vertex -66.01000194295406 18.762597606173834 3.826834
vertex -66.3165680879375 16.616648733425468 7.071068
endloop
endfacet
facet normal -0.9899494936611666 0.14142135623730967 -0.0
outer loop
vertex -63.63961030678927 35.35533905932738 20.0
vertex -66.3165680879375 16.616648733425468 7.071068
vertex -66.77536725184257 13.405026301818669 9.238795
endloop
endfacet
facet normal -0.9899494936611666 0.14142135623730967 0.0
outer loop
vertex -63.63961030678927 35.35533905932738 20.0
vertex -66.77536725184257 13.405026301818669 9.238795
vertex -70.71067811865476 -14.142135623730944 20.0
endloop
endfacet
facet normal -0.9899494936611666 0.14142135623730967 0.0
outer loop
vertex -70.71067811865476 -14.142135623730944 -20.0
vertex -70.71067811865476 -14.142135623730944 20.0
vertex -68.73077913133241 -0.28284271247461135 8.881784e-16
endloop
endfacet
facet normal -0.9899494936611666 0.14142135623730967 -0.0
outer loop
vertex -70.71067811865476 -14.142135623730944 -20.0
vertex -68.73077913133241 -0.28284271247461135 8.881784e-16
vertex -68.62312919496458 0.47070684210026315 -3.826834
endloop
endfacet
facet normal -0.9899494936611666 0.14142135623730967 0.0
outer loop
vertex -70.71067811865476 -14.142135623730944 -20.0
vertex -68.62312919496458 0.47070684210026315 -3.826834
vertex -68.31657012104895 2.6166486437808274 -7.071068
endloop
endfacet
facet normal -0.9899494936611666 0.14142135623730967 0.0
outer loop
vertex -70.71067811865476 -14.142135623730944 -20.0
vertex -68.31657012104895 2.6166486437808274 -7.071068
vertex -67.85776388607607 5.828278146455446 -9.238795
endloop
endfacet
facet normal -0.9899494936611666 0.14142135623730967 -0.0
outer loop
vertex -70.71067811865476 -14.142135623730944 -20.0
vertex -67.85776388607607 5.828278146455446 -9.238795
vertex -67.31656556895932 9.616652224137052 -10.0
endloop
endfacet
facet normal -0.9899494936611666 0.14142135623730967 0.0
outer loop
vertex -70.71067811865476 -14.142135623730944 -20.0
vertex -67.31656556895932 9.616652224137052 -10.0
vertex -66.77536725184257 13.405026301818669 -9.238795
endloop
endfacet
facet normal -0.9899494936611666 0.14142135623730967 -0.0
outer loop
vertex -63.63961030678927 35.35533905932738 -20.0
vertex -70.71067811865476 -14.142135623730944 -20.0
vertex -66.77536725184257 13.405026301818669 -9.238795
endloop
endfacet
facet normal -0.9899494936611666 0.14142135623730967 0.0
outer loop
vertex -63.63961030678927 35.35533905932738 -20.0
vertex -66.77536725184257 13.405026301818669 -9.238795
vertex -66.3165680879375 16.616648733425468 -7.071068
endloop
endfacet
facet normal -0.9899494936611666 0.14142135623730967 0.0
outer loop
vertex -63.63961030678927 35.35533905932738 -20.0
vertex -66.3165680879375 16.616648733425468 -7.071068
vertex -66.01000194295406 18.762597606173834 -3.826834
endloop
endfacet
facet normal -0.9899494936611666 0.14142135623730967 -0.0
outer loop
vertex -63.63961030678927 35.35533905932738 -20.0
vertex -66.01000194295406 18.762597606173834 -3.826834
vertex -65.90235200658623 19.516147160748716 1.224606e-15
endloop
endfacet
facet normal -0.9899494936611666 0.14142135623730967 0.0
outer loop
vertex -63.63961030678927 35.35533905932738 -20.0
vertex -65.90235200658623 19.516147160748716 1.224606e-15
vertex -66.01000194295406 18.762597606173834 3.826834
endloop
endfacet
facet normal -0.9899494936611666 0.14142135623730967 -0.0
outer loop
vertex -70.71067811865476 -14.142135623730944 20.0
vertex -66.77536725184257 13.405026301818669 9.238795
vertex -67.31656556895932 9.616652224137052 10.0
endloop
endfacet
facet normal -0.9899494936611666 0.14142135623730967 0.0
outer loop
vertex -70.71067811865476 -14.142135623730944 20.0
vertex -67.31656556895932 9.616652224137052 10.0
vertex -67.85776388607607 5.828278146455446 9.238795
endloop
endfacet
facet normal -0.9899494936611666 0.14142135623730967 -0.0
outer loop
vertex -70.71067811865476 -14.142135623730944 20.0
vertex -67.85776388607607 5.828278146455446 9.238795
vertex -68.31657012104895 2.6166486437808274 7.071068
endloop
endfacet
facet normal -0.9899494936611666 0.14142135623730967 -0.0
outer loop
vertex -70.71067811865476 -14.142135623730944 20.0
vertex -68.31657012104895 2.6166486437808274 7.071068
vertex -68.62312919496458 0.47070684210026315 3.826834
endloop
endfacet
facet normal -0.9899494936611666 0.14142135623730967 0.0
outer loop
vertex -70.71067811865476 -14.142135623730944 20.0
vertex -68.62312919496458 0.47070684210026315 3.826834
vertex -68.73077913133241 -0.28284271247461135 8.881784e-16
endloop
endfacet
facet normal 0.027577164466275367 0.19318157262016478 0.9808
outer loop
vertex -52.46732316404183 7.495331880577407 -10.0
vertex -67.85776388607607 5.828278146455446 -9.238795
vertex -53.008521481158574 3.7069578028958006 -9.238795
endloop
endfacet
facet normal 0.07863027406794412 0.5499876544068967 0.8315
outer loop
vertex -53.008521481158574 3.7069578028958006 -9.238795
vertex -67.85776388607607 5.828278146455446 -9.238795
vertex -68.31657012104895 2.6166486437808274 -7.071068
endloop
endfacet
facet normal 0.07863027406794412 0.5499876544068967 0.8315
outer loop
vertex -53.008521481158574 3.7069578028958006 -9.238795
vertex -68.31657012104895 2.6166486437808274 -7.071068
vertex -53.467327716131464 0.49532830022117835 -7.071068
endloop
endfacet
facet normal 0.11759185771132297 0.82314300397926 0.5556
outer loop
vertex -53.467327716131464 0.49532830022117835 -7.071068
vertex -68.31657012104895 2.6166486437808274 -7.071068
vertex -68.62312919496458 0.47070684210026315 -3.826834
endloop
endfacet
facet normal 0.11759185771132297 0.82314300397926 0.5556
outer loop
vertex -53.467327716131464 0.49532830022117835 -7.071068
vertex -68.62312919496458 0.47070684210026315 -3.826834
vertex -53.77388679004709 -1.6506135014593788 -3.826834
endloop
endfacet
facet normal 0.13866363979068197 0.9709283212472484 0.1951
outer loop
vertex -53.77388679004709 -1.6506135014593788 -3.826834
vertex -68.62312919496458 0.47070684210026315 -3.826834
vertex -68.73077913133241 -0.28284271247461135 8.881784e-16
endloop
endfacet
facet normal 0.13866363979068197 0.9709283212472484 0.1951
outer loop
vertex -53.77388679004709 -1.6506135014593788 -3.826834
vertex -68.73077913133241 -0.28284271247461135 8.881784e-16
vertex -53.88153672641492 -2.4041630560342533 8.881784e-16
endloop
endfacet
facet normal 0.027577164466275367 0.19318157262016478 0.9808
outer loop
vertex -67.85776388607607 5.828278146455446 -9.238795
vertex -52.46732316404183 7.495331880577407 -10.0
vertex -67.31656556895932 9.616652224137052 -10.0
endloop
endfacet
facet normal -0.027577164466275367 -0.19318157262016478 0.9808
outer loop
vertex -67.31656556895932 9.616652224137052 -10.0
vertex -52.46732316404183 7.495331880577407 -10.0
vertex -51.92612484692508 11.28370595825902 -9.238795
endloop
endfacet
facet normal -0.027577164466275367 -0.19318157262016478 0.9808
outer loop
vertex -67.31656556895932 9.616652224137052 -10.0
vertex -51.92612484692508 11.28370595825902 -9.238795
vertex -66.77536725184257 13.405026301818669 -9.238795
endloop
endfacet
facet normal -0.07863027406794412 -0.5499876544068967 0.8315
outer loop
vertex -66.77536725184257 13.405026301818669 -9.238795
vertex -51.92612484692508 11.28370595825902 -9.238795
vertex -51.46732568301999 14.495328389865826 -7.071068
endloop
endfacet
facet normal -0.07863027406794412 -0.5499876544068967 0.8315
outer loop
vertex -66.77536725184257 13.405026301818669 -9.238795
vertex -51.46732568301999 14.495328389865826 -7.071068
vertex -66.3165680879375 16.616648733425468 -7.071068
endloop
endfacet
facet normal -0.11759185771132297 -0.82314300397926 0.5556
outer loop
vertex -66.3165680879375 16.616648733425468 -7.071068
vertex -51.46732568301999 14.495328389865826 -7.071068
vertex -51.16075953803657 16.641277262614196 -3.826834
endloop
endfacet
facet normal -0.11759185771132297 -0.82314300397926 0.5556
outer loop
vertex -66.3165680879375 16.616648733425468 -7.071068
vertex -51.16075953803657 16.641277262614196 -3.826834
vertex -66.01000194295406 18.762597606173834 -3.826834
endloop
endfacet
facet normal -0.13866363979068197 -0.9709283212472484 0.1951
outer loop
vertex -66.01000194295406 18.762597606173834 -3.826834
vertex -51.16075953803657 16.641277262614196 -3.826834
vertex -51.05310960166873 17.394826817189074 1.224606e-15
endloop
endfacet
facet normal -0.13866363979068197 -0.9709283212472484 0.1951
outer loop
vertex -66.01000194295406 18.762597606173834 -3.826834
vertex -51.05310960166873 17.394826817189074 1.224606e-15
vertex -65.90235200658623 19.516147160748716 1.224606e-15
endloop
endfacet
facet normal -0.027577164466275367 -0.19318157262016478 -0.9808
outer loop
vertex -52.46732316404183 7.495331880577407 10.0
vertex -66.77536725184257 13.405026301818669 9.238795
vertex -51.92612484692508 11.28370595825902 9.238795
endloop
endfacet
facet normal -0.07863027406794412 -0.5499876544068967 -0.8315
outer loop
vertex -51.92612484692508 11.28370595825902 9.238795
vertex -66.77536725184257 13.405026301818669 9.238795
vertex -66.3165680879375 16.616648733425468 7.071068
endloop
endfacet
facet normal -0.07863027406794412 -0.5499876544068967 -0.8315
outer loop
vertex -51.92612484692508 11.28370595825902 9.238795
vertex -66.3165680879375 16.616648733425468 7.071068
vertex -51.46732568301999 14.495328389865826 7.071068
endloop
endfacet
facet normal -0.11759185771132297 -0.82314300397926 -0.5556
outer loop
vertex -51.46732568301999 14.495328389865826 7.071068
vertex -66.3165680879375 16.616648733425468 7.071068
vertex -66.01000194295406 18.762597606173834 3.826834
endloop
endfacet
facet normal -0.11759185771132297 -0.82314300397926 -0.5556
outer loop
vertex -51.46732568301999 14.495328389865826 7.071068
vertex -66.01000194295406 18.762597606173834 3.826834
vertex -51.16075953803657 16.641277262614196 3.826834
endloop
endfacet
facet normal -0.13866363979068197 -0.9709283212472484 -0.1951
outer loop
vertex -51.16075953803657 16.641277262614196 3.826834
vertex -66.01000194295406 18.762597606173834 3.826834
vertex -65.90235200658623 19.516147160748716 1.224606e-15
endloop
endfacet
facet normal -0.13866363979068197 -0.9709283212472484 -0.1951
outer loop
vertex -51.16075953803657 16.641277262614196 3.826834
vertex -65.90235200658623 19.516147160748716 1.224606e-15
vertex -51.05310960166873 17.394826817189074 1.224606e-15
endloop
endfacet
facet normal -0.027577164466275367 -0.19318157262016478 -0.9808
outer loop
vertex -66.77536725184257 13.405026301818669 9.238795
vertex -52.46732316404183 7.495331880577407 10.0
vertex -67.31656556895932 9.616652224137052 10.0
endloop
endfacet
facet normal 0.027577164466275367 0.19318157262016478 -0.9808
outer loop
vertex -67.31656556895932 9.616652224137052 10.0
vertex -52.46732316404183 7.495331880577407 10.0
vertex -53.008521481158574 3.7069578028958006 9.238795
endloop
endfacet
facet normal 0.027577164466275367 0.19318157262016478 -0.9808
outer loop
vertex -67.31656556895932 9.616652224137052 10.0
vertex -53.008521481158574 3.7069578028958006 9.238795
vertex -67.85776388607607 5.828278146455446 9.238795
endloop
endfacet
facet normal 0.07863027406794412 0.5499876544068967 -0.8315
outer loop
vertex -67.85776388607607 5.828278146455446 9.238795
vertex -53.008521481158574 3.7069578028958006 9.238795
vertex -53.467327716131464 0.49532830022117835 7.071068
endloop
endfacet
facet normal 0.07863027406794412 0.5499876544068967 -0.8315
outer loop
vertex -67.85776388607607 5.828278146455446 9.238795
vertex -53.467327716131464 0.49532830022117835 7.071068
vertex -68.31657012104895 2.6166486437808274 7.071068
endloop
endfacet
facet normal 0.11759185771132297 0.82314300397926 -0.5556
outer loop
vertex -68.31657012104895 2.6166486437808274 7.071068
vertex -53.467327716131464 0.49532830022117835 7.071068
vertex -53.77388679004709 -1.6506135014593788 3.826834
endloop
endfacet
facet normal 0.11759185771132297 0.82314300397926 -0.5556
outer loop
vertex -68.31657012104895 2.6166486437808274 7.071068
vertex -53.77388679004709 -1.6506135014593788 3.826834
vertex -68.62312919496458 0.47070684210026315 3.826834
endloop
endfacet
facet normal 0.13866363979068197 0.9709283212472484 -0.1951
outer loop
vertex -68.62312919496458 0.47070684210026315 3.826834
vertex -53.77388679004709 -1.6506135014593788 3.826834
vertex -53.88153672641492 -2.4041630560342533 8.881784e-16
endloop
endfacet
facet normal 0.13866363979068197 0.9709283212472484 -0.1951
outer loop
vertex -68.62312919496458 0.47070684210026315 3.826834
vertex -53.88153672641492 -2.4041630560342533 8.881784e-16
vertex -68.73077913133241 -0.28284271247461135 8.881784e-16
endloop
endfacet
facet normal -0.9899494936611666 0.14142135623730967 0.0
outer loop
vertex -51.92612484692508 11.28370595825902 9.238795
vertex -53.008521481158574 3.7069578028958006 9.238795
vertex -52.46732316404183 7.495331880577407 10.0
endloop
endfacet
facet normal -0.9899494936611666 0.14142135623730967 -0.0
outer loop
vertex -53.008521481158574 3.7069578028958006 9.238795
vertex -51.92612484692508 11.28370595825902 9.238795
vertex -53.467327716131464 0.49532830022117835 7.071068
endloop
endfacet
facet normal -0.9899494936611666 0.14142135623730967 -0.0
outer loop
vertex -53.467327716131464 0.49532830022117835 7.071068
vertex -51.92612484692508 11.28370595825902 9.238795
vertex -51.46732568301999 14.495328389865826 7.071068
endloop
endfacet
facet normal -0.9899494936611666 0.14142135623730967 -0.0
outer loop
vertex -53.467327716131464 0.49532830022117835 7.071068
vertex -51.46732568301999 14.495328389865826 7.071068
vertex -53.77388679004709 -1.6506135014593788 3.826834
endloop
endfacet
facet normal -0.9899494936611666 0.14142135623730967 -0.0
outer loop
vertex -53.77388679004709 -1.6506135014593788 3.826834
vertex -51.46732568301999 14.495328389865826 7.071068
vertex -51.16075953803657 16.641277262614196 3.826834
endloop
endfacet
facet normal -0.9899494936611666 0.14142135623730967 -0.0
outer loop
vertex -53.77388679004709 -1.6506135014593788 3.826834
vertex -51.16075953803657 16.641277262614196 3.826834
vertex -53.88153672641492 -2.4041630560342533 8.881784e-16
endloop
endfacet
facet normal -0.9899494936611666 0.14142135623730967 0.0
outer loop
vertex -53.88153672641492 -2.4041630560342533 8.881784e-16
vertex -51.16075953803657 16.641277262614196 3.826834
vertex -51.05310960166873 17.394826817189074 1.224606e-15
endloop
endfacet
facet normal -0.9899494936611666 0.14142135623730967 0.0
outer loop
vertex -53.88153672641492 -2.4041630560342533 8.881784e-16
vertex -51.05310960166873 17.394826817189074 1.224606e-15
vertex -53.77388679004709 -1.6506135014593788 -3.826834
endloop
endfacet
facet normal -0.9899494936611666 0.14142135623730967 -0.0
outer loop
vertex -53.77388679004709 -1.6506135014593788 -3.826834
vertex -51.05310960166873 17.394826817189074 1.224606e-15
vertex -51.16075953803657 16.641277262614196 -3.826834
endloop
endfacet
facet normal -0.9899494936611666 0.14142135623730967 0.0
outer loop
vertex -53.77388679004709 -1.6506135014593788 -3.826834
vertex -51.16075953803657 16.641277262614196 -3.826834
vertex -53.467327716131464 0.49532830022117835 -7.071068
endloop
endfacet
facet normal -0.9899494936611666 0.14142135623730967 0.0
outer loop
vertex -53.467327716131464 0.49532830022117835 -7.071068
vertex -51.16075953803657 16.641277262614196 -3.826834
vertex -51.46732568301999 14.495328389865826 -7.071068
endloop
endfacet
facet normal -0.9899494936611666 0.14142135623730967 0.0
outer loop
vertex -53.467327716131464 0.49532830022117835 -7.071068
vertex -51.46732568301999 14.495328389865826 -7.071068
vertex -53.008521481158574 3.7069578028958006 -9.238795
endloop
endfacet
facet normal -0.9899494936611666 0.14142135623730967 0.0
outer loop
vertex -53.008521481158574 3.7069578028958006 -9.238795
vertex -51.46732568301999 14.495328389865826 -7.071068
vertex -51.92612484692508 11.28370595825902 -9.238795
endloop
endfacet
facet normal -0.9899494936611666 0.14142135623730967 -0.0
outer loop
vertex -53.008521481158574 3.7069578028958006 -9.238795
vertex -51.92612484692508 11.28370595825902 -9.238795
vertex -52.46732316404183 7.495331880577407 -10.0
endloop
endfacet
facet normal 0.8659936749191647 -0.4999952049770078 -0.0
outer loop
vertex -67.2314581967757 53.08932257304476 -20.0
vertex -68.39432358270822 51.075171333241755 20.0
vertex -68.39432358270822 51.075171333241755 -20.0
endloop
endfacet
facet normal 0.9999904099540154 -1.1102230246251565e-16 0.0
outer loop
vertex -68.39432358270822 51.075171333241755 -20.0
vertex -68.39432358270822 51.075171333241755 20.0
vertex -68.39433065377604 48.7494334903089 20.0
endloop
endfacet
facet normal 0.9999904099540154 -1.1102230246251565e-16 -0.0
outer loop
vertex -68.39432358270822 51.075171333241755 -20.0
vertex -68.39433065377604 48.7494334903089 20.0
vertex -68.39433065377604 48.7494334903089 -20.0
endloop
endfacet
facet normal 0.8659936749191648 0.49999520497700767 0.0
outer loop
vertex -68.39433065377604 48.7494334903089 -20.0
vertex -68.39433065377604 48.7494334903089 20.0
vertex -67.23145819677572 46.73527517943808 20.0
endloop
endfacet
facet normal 0.8659936749191648 0.49999520497700767 -0.0
outer loop
vertex -68.39433065377604 48.7494334903089 -20.0
vertex -67.23145819677572 46.73527517943808 20.0
vertex -67.23145819677572 46.73527517943808 -20.0
endloop
endfacet
facet normal 0.8659936749191647 -0.4999952049770078 0.0
outer loop
vertex -68.39432358270822 51.075171333241755 20.0
vertex -67.2314581967757 53.08932257304476 -20.0
vertex -67.2314581967757 53.08932257304476 20.0
endloop
endfacet
facet normal 0.49999520497700767 -0.8659936749191648 0.0
outer loop
vertex -67.2314581967757 53.08932257304476 20.0
vertex -67.2314581967757 53.08932257304476 -20.0
vertex -65.21730483565234 54.25219008029763 -20.0
endloop
endfacet
facet normal 0.49999520497700767 -0.8659936749191648 0.0
outer loop
vertex -67.2314581967757 53.08932257304476 20.0
vertex -65.21730483565234 54.25219008029763 -20.0
vertex -65.21730483565234 54.25219008029763 20.0
endloop
endfacet
facet normal -1.1102230246251565e-16 -0.9999904099540154 0.0
outer loop
vertex -65.21730483565234 54.25219008029763 20.0
vertex -65.21730483565234 54.25219008029763 -20.0
vertex -62.89156911403983 54.25219503004511 -20.0
endloop
endfacet
facet normal -1.1102230246251565e-16 -0.9999904099540154 0.0
outer loop
vertex -65.21730483565234 54.25219008029763 20.0
vertex -62.89156911403983 54.25219503004511 -20.0
vertex -62.89156911403983 54.25219503004511 20.0
endloop
endfacet
facet normal -0.4999952049770078 -0.8659936749191647 0.0
outer loop
vertex -62.89156911403983 54.25219503004511 20.0
vertex -62.89156911403983 54.25219503004511 -20.0
vertex -60.87741363159614 53.08931974461765 -20.0
endloop
endfacet
facet normal -0.4999952049770078 -0.8659936749191647 0.0
outer loop
vertex -62.89156911403983 54.25219503004511 20.0
vertex -60.87741363159614 53.08931974461765 -20.0
vertex -60.87741363159614 53.08931974461765 20.0
endloop
endfacet
facet normal 0.7071067811865476 0.7071067811865475 0.0
outer loop
vertex -53.089322573044754 32.59313955570712 -20.0
vertex -67.23145819677572 46.73527517943808 -20.0
vertex -53.089322573044754 32.59313955570712 20.0
endloop
endfacet
facet normal 0.7071067811865476 0.7071067811865475 0.0
outer loop
vertex -53.089322573044754 32.59313955570712 20.0
vertex -67.23145819677572 46.73527517943808 -20.0
vertex -67.23145819677572 46.73527517943808 20.0
endloop
endfacet
facet normal -0.8659936749191647 0.4999952049770078 0.0
outer loop
vertex -46.73528225050588 32.59314662677493 -20.0
vertex -45.5724076721852 34.607292916830474 20.0
vertex -45.5724076721852 34.607292916830474 -20.0
endloop
endfacet
facet normal -0.9999904099540154 1.1102230246251565e-16 -0.0
outer loop
vertex -45.5724076721852 34.607292916830474 -20.0
vertex -45.5724076721852 34.607292916830474 20.0
vertex -45.572409793505535 36.933035709510804 20.0
endloop
endfacet
facet normal -0.9999904099540154 1.1102230246251565e-16 0.0
outer loop
vertex -45.5724076721852 34.607292916830474 -20.0
vertex -45.572409793505535 36.933035709510804 20.0
vertex -45.572409793505535 36.933035709510804 -20.0
endloop
endfacet
facet normal -0.8659936749191648 -0.49999520497700767 -0.0
outer loop
vertex -45.572409793505535 36.933035709510804 -20.0
vertex -45.572409793505535 36.933035709510804 20.0
vertex -46.73527800786519 38.94718412088669 20.0
endloop
endfacet
facet normal -0.8659936749191648 -0.49999520497700767 0.0
outer loop
vertex -45.572409793505535 36.933035709510804 -20.0
vertex -46.73527800786519 38.94718412088669 20.0
vertex -46.73527800786519 38.94718412088669 -20.0
endloop
endfacet
facet normal -0.8659936749191647 0.4999952049770078 -0.0
outer loop
vertex -45.5724076721852 34.607292916830474 20.0
vertex -46.73528225050588 32.59314662677493 -20.0
vertex -46.73528225050588 32.59314662677493 20.0
endloop
endfacet
facet normal -0.49999520497700767 0.8659936749191648 0.0
outer loop
vertex -46.73528225050588 32.59314662677493 20.0
vertex -46.73528225050588 32.59314662677493 -20.0
vertex -48.749426419241075 31.4302741697746 -20.0
endloop
endfacet
facet normal -0.49999520497700767 0.8659936749191648 0.0
outer loop
vertex -46.73528225050588 32.59314662677493 20.0
vertex -48.749426419241075 31.4302741697746 -20.0
vertex -48.749426419241075 31.4302741697746 20.0
endloop
endfacet
facet normal 1.1102230246251565e-16 0.9999904099540154 0.0
outer loop
vertex -48.749426419241075 31.4302741697746 20.0
vertex -48.749426419241075 31.4302741697746 -20.0
vertex -51.07517133324175 31.430274169774595 -20.0
endloop
endfacet
facet normal 1.1102230246251565e-16 0.9999904099540154 0.0
outer loop
vertex -48.749426419241075 31.4302741697746 20.0
vertex -51.07517133324175 31.430274169774595 -20.0
vertex -51.07517133324175 31.430274169774595 20.0
endloop
endfacet
facet normal 0.4999952049770078 0.8659936749191647 0.0
outer loop
vertex -51.07517133324175 31.430274169774595 20.0
vertex -51.07517133324175 31.430274169774595 -20.0
vertex -53.089322573044754 32.59313955570712 -20.0
endloop
endfacet
facet normal 0.4999952049770078 0.8659936749191647 0.0
outer loop
vertex -51.07517133324175 31.430274169774595 20.0
vertex -53.089322573044754 32.59313955570712 -20.0
vertex -53.089322573044754 32.59313955570712 20.0
endloop
endfacet
facet normal -0.7071067811865476 -0.7071067811865475 0.0
outer loop
vertex -60.87741363159614 53.08931974461765 -20.0
vertex -46.73527800786519 38.94718412088669 -20.0
vertex -60.87741363159614 53.08931974461765 20.0
endloop
endfacet
facet normal -0.7071067811865476 -0.7071067811865475 0.0
outer loop
vertex -60.87741363159614 53.08931974461765 20.0
vertex -46.73527800786519 38.94718412088669 -20.0
vertex -46.73527800786519 38.94718412088669 20.0
endloop
endfacet
facet normal -0.7071067811865476 -0.7071067811865475 0.0
outer loop
vertex -24.20179024628137 -4.082481001180531 20.0
vertex -32.36675224864243 4.082481001180534 20.0
vertex -24.20179024628137 -4.082481001180531 -20.0
endloop
endfacet
facet normal -0.7071067811865476 -0.7071067811865475 0.0
outer loop
vertex -24.20179024628137 -4.082481001180531 -20.0
vertex -32.36675224864243 4.082481001180534 20.0
vertex -32.36675224864243 4.082481001180534 -20.0
endloop
endfacet
facet normal 0.25880108191427637 -0.9659078631008239 0.0
outer loop
vertex -32.36675224864243 4.082481001180534 -20.0
vertex -32.36675224864243 4.082481001180534 20.0
vertex -43.52030106168844 1.0938941904955932 -20.0
endloop
endfacet
facet normal 0.25880108191427637 -0.9659078631008239 0.0
outer loop
vertex -43.52030106168844 1.0938941904955932 -20.0
vertex -32.36675224864243 4.082481001180534 20.0
vertex -43.52030106168844 1.0938941904955932 20.0
endloop
endfacet
facet normal 0.965907863100824 -0.2588010819142764 -0.0
outer loop
vertex -43.52030106168844 1.0938941904955932 -20.0
vertex -43.52030106168844 1.0938941904955932 20.0
vertex -46.50888787237338 -10.059654622550415 -20.0
endloop
endfacet
facet normal 0.965907863100824 -0.2588010819142764 0.0
outer loop
vertex -46.50888787237338 -10.059654622550415 -20.0
vertex -43.52030106168844 1.0938941904955932 20.0
vertex -46.50888787237338 -10.059654622550415 20.0
endloop
endfacet
facet normal 0.7071067811865476 0.7071067811865475 -0.0
outer loop
vertex -46.50888787237338 -10.059654622550415 -20.0
vertex -46.50888787237338 -10.059654622550415 20.0
vertex -38.34392587001232 -18.22461662491148 -20.0
endloop
endfacet
facet normal 0.7071067811865476 0.7071067811865475 0.0
outer loop
vertex -38.34392587001232 -18.22461662491148 -20.0
vertex -46.50888787237338 -10.059654622550415 20.0
vertex -38.34392587001232 -18.22461662491148 20.0
endloop
endfacet
facet normal -0.25880108191427637 0.9659078631008239 0.0
outer loop
vertex -38.34392587001232 -18.22461662491148 -20.0
vertex -38.34392587001232 -18.22461662491148 20.0
vertex -27.190372814325627 -15.236034056867222 -20.0
endloop
endfacet
facet normal -0.25880108191427637 0.9659078631008239 0.0
outer loop
vertex -27.190372814325627 -15.236034056867222 -20.0
vertex -38.34392587001232 -18.22461662491148 20.0
vertex -27.190372814325627 -15.236034056867222 20.0
endloop
endfacet
facet normal -0.965907863100824 0.2588010819142764 0.0
outer loop
vertex -27.190372814325627 -15.236034056867222 -20.0
vertex -27.190372814325627 -15.236034056867222 20.0
vertex -24.20179024628137 -4.082481001180531 -20.0
endloop
endfacet
facet normal -0.965907863100824 0.2588010819142764 -0.0
outer loop
vertex -24.20179024628137 -4.082481001180531 -20.0
vertex -27.190372814325627 -15.236034056867222 20.0
vertex -24.20179024628137 -4.082481001180531 20.0
endloop
endfacet
facet normal -0.5555737979782704 -0.8314868639972611 0.0
outer loop
vertex -49.49747468305833 -21.21320343559642 -20.0
vertex -52.741701808345645 -19.045475673987507 20.0
vertex -52.741701808345645 -19.045475673987507 -20.0
endloop
endfacet
facet normal -0.1950907609293685 -0.9808278161838602 0.0
outer loop
vertex -52.741701808345645 -19.045475673987507 -20.0
vertex -52.741701808345645 -19.045475673987507 20.0
vertex -56.568542494923804 -18.284268152972377 20.0
endloop
endfacet
facet normal -0.1950907609293685 -0.9808278161838602 0.0
outer loop
vertex -52.741701808345645 -19.045475673987507 -20.0
vertex -56.568542494923804 -18.284268152972377 20.0
vertex -56.568542494923804 -18.284268152972377 -20.0
endloop
endfacet
facet normal 0.19509076092936845 -0.9808278161838601 0.0
outer loop
vertex -56.568542494923804 -18.284268152972377 -20.0
vertex -56.568542494923804 -18.284268152972377 20.0
vertex -60.39537611043416 -19.04546860291969 20.0
endloop
endfacet
facet normal 0.19509076092936845 -0.9808278161838601 0.0
outer loop
vertex -56.568542494923804 -18.284268152972377 -20.0
vertex -60.39537611043416 -19.04546860291969 20.0
vertex -60.39537611043416 -19.04546860291969 -20.0
endloop
endfacet
facet normal 0.5555737979782703 -0.8314868639972612 0.0
outer loop
vertex -60.39537611043416 -19.04546860291969 -20.0
vertex -60.39537611043416 -19.04546860291969 20.0
vertex -63.63961030678928 -21.21320343559642 20.0
endloop
endfacet
facet normal 0.5555737979782703 -0.8314868639972612 0.0
outer loop
vertex -60.39537611043416 -19.04546860291969 -20.0
vertex -63.63961030678928 -21.21320343559642 20.0
vertex -63.63961030678928 -21.21320343559642 -20.0
endloop
endfacet
facet normal -0.5555737979782704 -0.8314868639972611 0.0
outer loop
vertex -52.741701808345645 -19.045475673987507 20.0
vertex -49.49747468305833 -21.21320343559642 -20.0
vertex -49.49747468305833 -21.21320343559642 20.0
endloop
endfacet
facet normal -0.8314868639972612 -0.5555737979782703 0.0
outer loop
vertex -49.49747468305833 -21.21320343559642 20.0
vertex -49.49747468305833 -21.21320343559642 -20.0
vertex -47.32974692144941 -24.45743056088374 -20.0
endloop
endfacet
facet normal -0.8314868639972612 -0.5555737979782703 -0.0
outer loop
vertex -49.49747468305833 -21.21320343559642 20.0
vertex -47.32974692144941 -24.45743056088374 -20.0
vertex -47.32974692144941 -24.45743056088374 20.0
endloop
endfacet
facet normal -0.9808278161838601 -0.19509076092936845 0.0
outer loop
vertex -47.32974692144941 -24.45743056088374 20.0
vertex -47.32974692144941 -24.45743056088374 -20.0
vertex -46.56853940043428 -28.2842712474619 -20.0
endloop
endfacet
facet normal -0.9808278161838601 -0.19509076092936845 -0.0
outer loop
vertex -47.32974692144941 -24.45743056088374 20.0
vertex -46.56853940043428 -28.2842712474619 -20.0
vertex -46.56853940043428 -28.2842712474619 20.0
endloop
endfacet
facet normal -0.9808278161838602 0.1950907609293685 0.0
outer loop
vertex -46.56853940043428 -28.2842712474619 20.0
vertex -46.56853940043428 -28.2842712474619 -20.0
vertex -47.3297398503816 -32.11110486297224 -20.0
endloop
endfacet
facet normal -0.9808278161838602 0.1950907609293685 -0.0
outer loop
vertex -46.56853940043428 -28.2842712474619 20.0
vertex -47.3297398503816 -32.11110486297224 -20.0
vertex -47.3297398503816 -32.11110486297224 20.0
endloop
endfacet
facet normal -0.8314868639972611 0.5555737979782704 0.0
outer loop
vertex -47.3297398503816 -32.11110486297224 20.0
vertex -47.3297398503816 -32.11110486297224 -20.0
vertex -49.49747468305833 -35.35533905932737 -20.0
endloop
endfacet
facet normal -0.8314868639972611 0.5555737979782704 -0.0
outer loop
vertex -47.3297398503816 -32.11110486297224 20.0
vertex -49.49747468305833 -35.35533905932737 -20.0
vertex -49.49747468305833 -35.35533905932737 20.0
endloop
endfacet
facet normal -0.7071067811865475 0.7071067811865476 0.0
outer loop
vertex -84.8528137423857 -28.284271247461895 -20.0
vertex -84.8528137423857 -28.284271247461895 20.0
vertex -70.71067811865476 -14.142135623730944 -20.0
endloop
endfacet
facet normal -0.7071067811865475 0.7071067811865476 0.0
outer loop
vertex -70.71067811865476 -14.142135623730944 -20.0
vertex -84.8528137423857 -28.284271247461895 20.0
vertex -70.71067811865476 -14.142135623730944 20.0
endloop
endfacet
facet normal -0.7071067811865476 -0.7071067811865475 0.0
outer loop
vertex -63.63961030678927 35.35533905932738 20.0
vertex -84.85281374238569 56.568542494923804 20.0
vertex -63.63961030678927 35.35533905932738 -20.0
endloop
endfacet
facet normal -0.7071067811865476 -0.7071067811865475 0.0
outer loop
vertex -63.63961030678927 35.35533905932738 -20.0
vertex -84.85281374238569 56.568542494923804 20.0
vertex -84.85281374238569 56.568542494923804 -20.0
endloop
endfacet
endsolid CATIA STL