solid 3
   facet normal 1.000000e+00 0.000000e+00 0.000000e+00
      outer loop
         vertex 1.000000e+04 1.000000e+04 1.000000e+04
         vertex 1.000000e+04 0.000000e+00 1.000000e+04
         vertex 1.000000e+04 1.000000e+04 0.000000e+00
      endloop
   endfacet
   facet normal 1.000000e+00 0.000000e+00 0.000000e+00
      outer loop
         vertex 1.000000e+04 1.000000e+04 0.000000e+00
         vertex 1.000000e+04 0.000000e+00 1.000000e+04
         vertex 1.000000e+04 0.000000e+00 0.000000e+00
      endloop
   endfacet
   facet normal -0.000000e+00 1.000000e+00 0.000000e+00
      outer loop
         vertex 3.631515e-13 1.000000e+04 1.000000e+04
         vertex 1.000000e+04 1.000000e+04 1.000000e+04
         vertex 3.631515e-13 1.000000e+04 0.000000e+00
      endloop
   endfacet
   facet normal 0.000000e+00 1.000000e+00 0.000000e+00
      outer loop
         vertex 3.631515e-13 1.000000e+04 0.000000e+00
         vertex 1.000000e+04 1.000000e+04 1.000000e+04
         vertex 1.000000e+04 1.000000e+04 0.000000e+00
      endloop
   endfacet
   facet normal -1.000000e+00 2.458382e-24 1.224647e-16
      outer loop
         vertex 0.000000e+00 4.618130e+03 2.034643e+03
         vertex -2.491719e-13 1.000000e+04 0.000000e+00
         vertex -1.257885e-13 2.839070e+03 1.007503e+03
      endloop
   endfacet
   facet normal -1.000000e+00 0.000000e+00 1.224647e-16
      outer loop
         vertex -1.257885e-13 2.839070e+03 1.007503e+03
         vertex -2.491719e-13 1.000000e+04 0.000000e+00
         vertex -2.491719e-13 0.000000e+00 0.000000e+00
      endloop
   endfacet
   facet normal -1.000000e+00 2.375891e-24 1.224647e-16
      outer loop
         vertex -1.257885e-13 2.839070e+03 1.007503e+03
         vertex -2.491719e-13 0.000000e+00 0.000000e+00
         vertex 1.257885e-13 2.839070e+03 3.061784e+03
      endloop
   endfacet
   facet normal -1.000000e+00 -5.151645e-24 1.224647e-16
      outer loop
         vertex 1.257885e-13 2.839070e+03 3.061784e+03
         vertex -2.491719e-13 0.000000e+00 0.000000e+00
         vertex 9.754749e-13 0.000000e+00 1.000000e+04
      endloop
   endfacet
   facet normal -1.000000e+00 2.835856e-23 1.224647e-16
      outer loop
         vertex 1.257885e-13 2.839070e+03 3.061784e+03
         vertex 9.754749e-13 0.000000e+00 1.000000e+04
         vertex 0.000000e+00 4.618130e+03 2.034643e+03
      endloop
   endfacet
   facet normal -1.000000e+00 0.000000e+00 1.224647e-16
      outer loop
         vertex 0.000000e+00 4.618130e+03 2.034643e+03
         vertex 9.754749e-13 0.000000e+00 1.000000e+04
         vertex 9.754749e-13 1.000000e+04 1.000000e+04
      endloop
   endfacet
   facet normal -1.000000e+00 -4.039748e-24 1.224647e-16
      outer loop
         vertex 0.000000e+00 4.618130e+03 2.034643e+03
         vertex 9.754749e-13 1.000000e+04 1.000000e+04
         vertex -2.491719e-13 1.000000e+04 0.000000e+00
      endloop
   endfacet
   facet normal -0.000000e+00 -1.000000e+00 -0.000000e+00
      outer loop
         vertex 1.000000e+04 0.000000e+00 1.000000e+04
         vertex 3.631515e-13 0.000000e+00 1.000000e+04
         vertex 1.000000e+04 0.000000e+00 0.000000e+00
      endloop
   endfacet
   facet normal 0.000000e+00 -1.000000e+00 0.000000e+00
      outer loop
         vertex 1.000000e+04 0.000000e+00 0.000000e+00
         vertex 3.631515e-13 0.000000e+00 1.000000e+04
         vertex 3.631515e-13 0.000000e+00 0.000000e+00
      endloop
   endfacet
   facet normal 1.224647e-16 -2.874711e-24 1.000000e+00
      outer loop
         vertex 3.631515e-13 0.000000e+00 1.000000e+04
         vertex 1.000000e+04 0.000000e+00 1.000000e+04
         vertex 7.891096e+03 3.144628e+03 1.000000e+04
      endloop
   endfacet
   facet normal 1.224647e-16 0.000000e+00 1.000000e+00
      outer loop
         vertex 7.891096e+03 3.144628e+03 1.000000e+04
         vertex 1.000000e+04 0.000000e+00 1.000000e+04
         vertex 1.000000e+04 1.000000e+04 1.000000e+04
      endloop
   endfacet
   facet normal 1.224647e-16 9.409605e-25 1.000000e+00
      outer loop
         vertex 7.891096e+03 3.144628e+03 1.000000e+04
         vertex 1.000000e+04 1.000000e+04 1.000000e+04
         vertex 6.584661e+03 5.407441e+03 1.000000e+04
      endloop
   endfacet
   facet normal 1.224647e-16 1.854018e-24 1.000000e+00
      outer loop
         vertex 6.584661e+03 5.407441e+03 1.000000e+04
         vertex 1.000000e+04 1.000000e+04 1.000000e+04
         vertex 3.631515e-13 1.000000e+04 1.000000e+04
      endloop
   endfacet
   facet normal 1.224647e-16 -7.972776e-24 1.000000e+00
      outer loop
         vertex 6.584661e+03 5.407441e+03 1.000000e+04
         vertex 3.631515e-13 1.000000e+04 1.000000e+04
         vertex 5.278225e+03 3.144628e+03 1.000000e+04
      endloop
   endfacet
   facet normal 1.224647e-16 0.000000e+00 1.000000e+00
      outer loop
         vertex 5.278225e+03 3.144628e+03 1.000000e+04
         vertex 3.631515e-13 1.000000e+04 1.000000e+04
         vertex 3.631515e-13 0.000000e+00 1.000000e+04
      endloop
   endfacet
   facet normal 1.224647e-16 2.355556e-23 1.000000e+00
      outer loop
         vertex 5.278225e+03 3.144628e+03 1.000000e+04
         vertex 3.631515e-13 0.000000e+00 1.000000e+04
         vertex 7.891096e+03 3.144628e+03 1.000000e+04
      endloop
   endfacet
   facet normal 0.000000e+00 0.000000e+00 -1.000000e+00
      outer loop
         vertex 6.584661e+03 5.407441e+03 0.000000e+00
         vertex 1.000000e+04 1.000000e+04 0.000000e+00
         vertex 7.891096e+03 3.144628e+03 0.000000e+00
      endloop
   endfacet
   facet normal 0.000000e+00 0.000000e+00 -1.000000e+00
      outer loop
         vertex 7.891096e+03 3.144628e+03 0.000000e+00
         vertex 1.000000e+04 1.000000e+04 0.000000e+00
         vertex 1.000000e+04 0.000000e+00 0.000000e+00
      endloop
   endfacet
   facet normal -0.000000e+00 -0.000000e+00 -1.000000e+00
      outer loop
         vertex 7.891096e+03 3.144628e+03 0.000000e+00
         vertex 1.000000e+04 0.000000e+00 0.000000e+00
         vertex 5.278225e+03 3.144628e+03 0.000000e+00
      endloop
   endfacet
   facet normal 0.000000e+00 -0.000000e+00 -1.000000e+00
      outer loop
         vertex 5.278225e+03 3.144628e+03 0.000000e+00
         vertex 1.000000e+04 0.000000e+00 0.000000e+00
         vertex 3.631515e-13 0.000000e+00 0.000000e+00
      endloop
   endfacet
   facet normal -0.000000e+00 0.000000e+00 -1.000000e+00
      outer loop
         vertex 5.278225e+03 3.144628e+03 0.000000e+00
         vertex 3.631515e-13 0.000000e+00 0.000000e+00
         vertex 6.584661e+03 5.407441e+03 0.000000e+00
      endloop
   endfacet
   facet normal -0.000000e+00 0.000000e+00 -1.000000e+00
      outer loop
         vertex 6.584661e+03 5.407441e+03 0.000000e+00
         vertex 3.631515e-13 0.000000e+00 0.000000e+00
         vertex 3.631515e-13 1.000000e+04 0.000000e+00
      endloop
   endfacet
   facet normal 0.000000e+00 0.000000e+00 -1.000000e+00
      outer loop
         vertex 6.584661e+03 5.407441e+03 0.000000e+00
         vertex 3.631515e-13 1.000000e+04 0.000000e+00
         vertex 1.000000e+04 1.000000e+04 0.000000e+00
      endloop
   endfacet
   facet normal 8.660254e-01 -5.000000e-01 0.000000e+00
      outer loop
         vertex 6.584661e+03 5.407441e+03 1.000000e+04
         vertex 5.278225e+03 3.144628e+03 1.000000e+04
         vertex 6.584661e+03 5.407441e+03 0.000000e+00
      endloop
   endfacet
   facet normal 8.660254e-01 -5.000000e-01 0.000000e+00
      outer loop
         vertex 6.584661e+03 5.407441e+03 0.000000e+00
         vertex 5.278225e+03 3.144628e+03 1.000000e+04
         vertex 5.278225e+03 3.144628e+03 0.000000e+00
      endloop
   endfacet
   facet normal -0.000000e+00 1.000000e+00 0.000000e+00
      outer loop
         vertex 5.278225e+03 3.144628e+03 1.000000e+04
         vertex 7.891096e+03 3.144628e+03 1.000000e+04
         vertex 5.278225e+03 3.144628e+03 0.000000e+00
      endloop
   endfacet
   facet normal 0.000000e+00 1.000000e+00 0.000000e+00
      outer loop
         vertex 5.278225e+03 3.144628e+03 0.000000e+00
         vertex 7.891096e+03 3.144628e+03 1.000000e+04
         vertex 7.891096e+03 3.144628e+03 0.000000e+00
      endloop
   endfacet
   facet normal -8.660254e-01 -5.000000e-01 -0.000000e+00
      outer loop
         vertex 7.891096e+03 3.144628e+03 1.000000e+04
         vertex 6.584661e+03 5.407441e+03 1.000000e+04
         vertex 7.891096e+03 3.144628e+03 0.000000e+00
      endloop
   endfacet
   facet normal -8.660254e-01 -5.000000e-01 0.000000e+00
      outer loop
         vertex 7.891096e+03 3.144628e+03 0.000000e+00
         vertex 6.584661e+03 5.407441e+03 1.000000e+04
         vertex 6.584661e+03 5.407441e+03 0.000000e+00
      endloop
   endfacet
   facet normal -0.000000e+00 -5.000001e-01 -8.660254e-01
      outer loop
         vertex 1.195804e+03 4.618130e+03 2.034643e+03
         vertex 1.195804e+03 2.839070e+03 3.061784e+03
         vertex -8.093776e-14 4.618130e+03 2.034643e+03
      endloop
   endfacet
   facet normal 0.000000e+00 -5.000001e-01 -8.660254e-01
      outer loop
         vertex -8.093776e-14 4.618130e+03 2.034643e+03
         vertex 1.195804e+03 2.839070e+03 3.061784e+03
         vertex 5.851961e-13 2.839070e+03 3.061784e+03
      endloop
   endfacet
   facet normal 0.000000e+00 1.000000e+00 0.000000e+00
      outer loop
         vertex 1.195804e+03 2.839070e+03 3.061784e+03
         vertex 1.195804e+03 2.839070e+03 1.007503e+03
         vertex 5.851961e-13 2.839070e+03 3.061784e+03
      endloop
   endfacet
   facet normal 0.000000e+00 1.000000e+00 0.000000e+00
      outer loop
         vertex 5.851961e-13 2.839070e+03 3.061784e+03
         vertex 1.195804e+03 2.839070e+03 1.007503e+03
         vertex 3.631515e-13 2.839070e+03 1.007503e+03
      endloop
   endfacet
   facet normal 0.000000e+00 -4.999999e-01 8.660255e-01
      outer loop
         vertex 1.195804e+03 2.839070e+03 1.007503e+03
         vertex 1.195804e+03 4.618130e+03 2.034643e+03
         vertex 3.631515e-13 2.839070e+03 1.007503e+03
      endloop
   endfacet
   facet normal 0.000000e+00 -4.999999e-01 8.660255e-01
      outer loop
         vertex 3.631515e-13 2.839070e+03 1.007503e+03
         vertex 1.195804e+03 4.618130e+03 2.034643e+03
         vertex -8.093776e-14 4.618130e+03 2.034643e+03
      endloop
   endfacet
   facet normal -1.000000e+00 -0.000000e+00 0.000000e+00
      outer loop
         vertex 1.195804e+03 4.618130e+03 2.034643e+03
         vertex 1.195804e+03 2.839070e+03 1.007503e+03
         vertex 1.195804e+03 2.839070e+03 3.061784e+03
      endloop
   endfacet
endsolid