solid 5
   facet normal -1.000000e+00 0.000000e+00 0.000000e+00
      outer loop
         vertex 0.000000e+00 0.000000e+00 0.000000e+00
         vertex 0.000000e+00 0.000000e+00 2.366858e+03
         vertex 0.000000e+00 2.524970e+03 2.366858e+03
      endloop
   endfacet
   facet normal -1.000000e+00 0.000000e+00 0.000000e+00
      outer loop
         vertex 0.000000e+00 2.524970e+03 1.000000e+04
         vertex 0.000000e+00 1.000000e+04 1.000000e+04
         vertex 0.000000e+00 2.524970e+03 2.366858e+03
      endloop
   endfacet
   facet normal -1.000000e+00 0.000000e+00 0.000000e+00
      outer loop
         vertex 0.000000e+00 2.524970e+03 2.366858e+03
         vertex 0.000000e+00 1.000000e+04 1.000000e+04
         vertex 0.000000e+00 1.000000e+04 0.000000e+00
      endloop
   endfacet
   facet normal -1.000000e+00 0.000000e+00 -0.000000e+00
      outer loop
         vertex 0.000000e+00 2.524970e+03 2.366858e+03
         vertex 0.000000e+00 1.000000e+04 0.000000e+00
         vertex 0.000000e+00 0.000000e+00 0.000000e+00
      endloop
   endfacet
   facet normal 0.000000e+00 1.000000e+00 -0.000000e+00
      outer loop
         vertex 1.000000e+04 1.000000e+04 0.000000e+00
         vertex 0.000000e+00 1.000000e+04 0.000000e+00
         vertex 1.000000e+04 1.000000e+04 1.000000e+04
      endloop
   endfacet
   facet normal 0.000000e+00 1.000000e+00 0.000000e+00
      outer loop
         vertex 1.000000e+04 1.000000e+04 1.000000e+04
         vertex 0.000000e+00 1.000000e+04 0.000000e+00
         vertex 0.000000e+00 1.000000e+04 1.000000e+04
      endloop
   endfacet
   facet normal 1.000000e+00 -0.000000e+00 0.000000e+00
      outer loop
         vertex 1.000000e+04 0.000000e+00 7.851392e+03
         vertex 1.000000e+04 0.000000e+00 0.000000e+00
         vertex 1.000000e+04 1.183870e+03 7.851392e+03
      endloop
   endfacet
   facet normal 1.000000e+00 0.000000e+00 0.000000e+00
      outer loop
         vertex 1.000000e+04 1.183870e+03 7.851392e+03
         vertex 1.000000e+04 0.000000e+00 0.000000e+00
         vertex 1.000000e+04 1.000000e+04 0.000000e+00
      endloop
   endfacet
   facet normal 1.000000e+00 -0.000000e+00 0.000000e+00
      outer loop
         vertex 1.000000e+04 1.183870e+03 7.851392e+03
         vertex 1.000000e+04 1.000000e+04 0.000000e+00
         vertex 1.000000e+04 1.183870e+03 1.000000e+04
      endloop
   endfacet
   facet normal 1.000000e+00 -0.000000e+00 0.000000e+00
      outer loop
         vertex 1.000000e+04 1.183870e+03 1.000000e+04
         vertex 1.000000e+04 1.000000e+04 0.000000e+00
         vertex 1.000000e+04 1.000000e+04 1.000000e+04
      endloop
   endfacet
   facet normal -0.000000e+00 -1.000000e+00 -0.000000e+00
      outer loop
         vertex 7.105745e+03 0.000000e+00 1.000000e+04
         vertex 1.544314e+03 0.000000e+00 1.000000e+04
         vertex 7.105745e+03 0.000000e+00 7.851392e+03
      endloop
   endfacet
   facet normal -0.000000e+00 -1.000000e+00 0.000000e+00
      outer loop
         vertex 7.105745e+03 0.000000e+00 7.851392e+03
         vertex 1.544314e+03 0.000000e+00 1.000000e+04
         vertex 1.544314e+03 0.000000e+00 2.366858e+03
      endloop
   endfacet
   facet normal 0.000000e+00 -1.000000e+00 0.000000e+00
      outer loop
         vertex 0.000000e+00 0.000000e+00 2.366858e+03
         vertex 0.000000e+00 0.000000e+00 0.000000e+00
         vertex 1.544314e+03 0.000000e+00 2.366858e+03
      endloop
   endfacet
   facet normal 0.000000e+00 -1.000000e+00 -0.000000e+00
      outer loop
         vertex 1.544314e+03 0.000000e+00 2.366858e+03
         vertex 0.000000e+00 0.000000e+00 0.000000e+00
         vertex 1.000000e+04 0.000000e+00 0.000000e+00
      endloop
   endfacet
   facet normal 0.000000e+00 -1.000000e+00 0.000000e+00
      outer loop
         vertex 1.544314e+03 0.000000e+00 2.366858e+03
         vertex 1.000000e+04 0.000000e+00 0.000000e+00
         vertex 7.105745e+03 0.000000e+00 7.851392e+03
      endloop
   endfacet
   facet normal 0.000000e+00 -1.000000e+00 0.000000e+00
      outer loop
         vertex 7.105745e+03 0.000000e+00 7.851392e+03
         vertex 1.000000e+04 0.000000e+00 0.000000e+00
         vertex 1.000000e+04 0.000000e+00 7.851392e+03
      endloop
   endfacet
   facet normal -0.000000e+00 -0.000000e+00 -1.000000e+00
      outer loop
         vertex 1.000000e+04 1.000000e+04 0.000000e+00
         vertex 1.000000e+04 0.000000e+00 0.000000e+00
         vertex 0.000000e+00 1.000000e+04 0.000000e+00
      endloop
   endfacet
   facet normal 0.000000e+00 0.000000e+00 -1.000000e+00
      outer loop
         vertex 0.000000e+00 1.000000e+04 0.000000e+00
         vertex 1.000000e+04 0.000000e+00 0.000000e+00
         vertex 0.000000e+00 0.000000e+00 0.000000e+00
      endloop
   endfacet
   facet normal 0.000000e+00 0.000000e+00 1.000000e+00
      outer loop
         vertex 7.105745e+03 1.183870e+03 1.000000e+04
         vertex 1.000000e+04 1.183870e+03 1.000000e+04
         vertex 1.000000e+04 1.000000e+04 1.000000e+04
      endloop
   endfacet
   facet normal 0.000000e+00 -0.000000e+00 1.000000e+00
      outer loop
         vertex 1.544314e+03 0.000000e+00 1.000000e+04
         vertex 7.105745e+03 0.000000e+00 1.000000e+04
         vertex 0.000000e+00 2.524970e+03 1.000000e+04
      endloop
   endfacet
   facet normal 0.000000e+00 0.000000e+00 1.000000e+00
      outer loop
         vertex 0.000000e+00 2.524970e+03 1.000000e+04
         vertex 7.105745e+03 0.000000e+00 1.000000e+04
         vertex 7.105745e+03 1.183870e+03 1.000000e+04
      endloop
   endfacet
   facet normal -0.000000e+00 0.000000e+00 1.000000e+00
      outer loop
         vertex 0.000000e+00 2.524970e+03 1.000000e+04
         vertex 7.105745e+03 1.183870e+03 1.000000e+04
         vertex 0.000000e+00 1.000000e+04 1.000000e+04
      endloop
   endfacet
   facet normal -0.000000e+00 0.000000e+00 1.000000e+00
      outer loop
         vertex 0.000000e+00 1.000000e+04 1.000000e+04
         vertex 7.105745e+03 1.183870e+03 1.000000e+04
         vertex 1.000000e+04 1.000000e+04 1.000000e+04
      endloop
   endfacet
   facet normal -8.530899e-01 -5.217640e-01 0.000000e+00
      outer loop
         vertex 0.000000e+00 2.524970e+03 2.366858e+03
         vertex 1.544314e+03 4.440892e-13 2.366858e+03
         vertex 0.000000e+00 2.524970e+03 1.000000e+04
      endloop
   endfacet
   facet normal -8.530899e-01 -5.217640e-01 -7.862587e-17
      outer loop
         vertex 0.000000e+00 2.524970e+03 1.000000e+04
         vertex 1.544314e+03 4.440892e-13 2.366858e+03
         vertex 1.544314e+03 -4.440892e-13 1.000000e+04
      endloop
   endfacet
   facet normal 0.000000e+00 0.000000e+00 1.000000e+00
      outer loop
         vertex 1.544314e+03 0.000000e+00 2.366858e+03
         vertex 0.000000e+00 2.524970e+03 2.366858e+03
         vertex 0.000000e+00 0.000000e+00 2.366858e+03
      endloop
   endfacet
   facet normal 0.000000e+00 -1.000000e+00 0.000000e+00
      outer loop
         vertex 7.105745e+03 1.183870e+03 1.000000e+04
         vertex 7.105745e+03 1.183870e+03 7.851392e+03
         vertex 1.000000e+04 1.183870e+03 1.000000e+04
      endloop
   endfacet
   facet normal 0.000000e+00 -1.000000e+00 -0.000000e+00
      outer loop
         vertex 1.000000e+04 1.183870e+03 1.000000e+04
         vertex 7.105745e+03 1.183870e+03 7.851392e+03
         vertex 1.000000e+04 1.183870e+03 7.851392e+03
      endloop
   endfacet
   facet normal -0.000000e+00 0.000000e+00 1.000000e+00
      outer loop
         vertex 7.105745e+03 1.183870e+03 7.851392e+03
         vertex 7.105745e+03 0.000000e+00 7.851392e+03
         vertex 1.000000e+04 1.183870e+03 7.851392e+03
      endloop
   endfacet
   facet normal 0.000000e+00 0.000000e+00 1.000000e+00
      outer loop
         vertex 1.000000e+04 1.183870e+03 7.851392e+03
         vertex 7.105745e+03 0.000000e+00 7.851392e+03
         vertex 1.000000e+04 0.000000e+00 7.851392e+03
      endloop
   endfacet
   facet normal 1.000000e+00 0.000000e+00 0.000000e+00
      outer loop
         vertex 7.105745e+03 0.000000e+00 7.851392e+03
         vertex 7.105745e+03 1.183870e+03 7.851392e+03
         vertex 7.105745e+03 0.000000e+00 1.000000e+04
      endloop
   endfacet
   facet normal 1.000000e+00 -0.000000e+00 0.000000e+00
      outer loop
         vertex 7.105745e+03 0.000000e+00 1.000000e+04
         vertex 7.105745e+03 1.183870e+03 7.851392e+03
         vertex 7.105745e+03 1.183870e+03 1.000000e+04
      endloop
   endfacet
endsolid