solid 9
   facet normal 0.000000e+00 0.000000e+00 -1.000000e+00
      outer loop
         vertex 3.061617e-13 5.000000e+03 0.000000e+00
         vertex 3.236104e+03 5.480103e+03 0.000000e+00
         vertex 5.212306e+03 5.480103e+03 0.000000e+00
      endloop
   endfacet
   facet normal -0.000000e+00 0.000000e+00 -1.000000e+00
      outer loop
         vertex 3.236104e+03 5.480103e+03 0.000000e+00
         vertex 3.061617e-13 5.000000e+03 0.000000e+00
         vertex 3.236104e+03 8.912973e+03 0.000000e+00
      endloop
   endfacet
   facet normal -0.000000e+00 0.000000e+00 -1.000000e+00
      outer loop
         vertex 3.236104e+03 8.912973e+03 0.000000e+00
         vertex 3.061617e-13 5.000000e+03 0.000000e+00
         vertex -3.749399e-29 1.000000e+04 0.000000e+00
      endloop
   endfacet
   facet normal 0.000000e+00 0.000000e+00 -1.000000e+00
      outer loop
         vertex 3.236104e+03 8.912973e+03 0.000000e+00
         vertex -3.749399e-29 1.000000e+04 0.000000e+00
         vertex 5.212306e+03 8.912973e+03 0.000000e+00
      endloop
   endfacet
   facet normal 0.000000e+00 0.000000e+00 -1.000000e+00
      outer loop
         vertex 5.212306e+03 8.912973e+03 0.000000e+00
         vertex -3.749399e-29 1.000000e+04 0.000000e+00
         vertex 1.000000e+04 1.000000e+04 0.000000e+00
      endloop
   endfacet
   facet normal 0.000000e+00 0.000000e+00 -1.000000e+00
      outer loop
         vertex 5.212306e+03 8.912973e+03 0.000000e+00
         vertex 1.000000e+04 1.000000e+04 0.000000e+00
         vertex 5.212306e+03 5.480103e+03 0.000000e+00
      endloop
   endfacet
   facet normal 0.000000e+00 0.000000e+00 -1.000000e+00
      outer loop
         vertex 5.212306e+03 5.480103e+03 0.000000e+00
         vertex 1.000000e+04 1.000000e+04 0.000000e+00
         vertex 1.000000e+04 5.000000e+03 0.000000e+00
      endloop
   endfacet
   facet normal 0.000000e+00 -0.000000e+00 -1.000000e+00
      outer loop
         vertex 5.212306e+03 5.480103e+03 0.000000e+00
         vertex 1.000000e+04 5.000000e+03 0.000000e+00
         vertex 3.061617e-13 5.000000e+03 0.000000e+00
      endloop
   endfacet
   facet normal 0.000000e+00 1.000000e+00 0.000000e+00
      outer loop
         vertex 1.000000e+04 1.000000e+04 1.000000e+04
         vertex 1.000000e+04 1.000000e+04 0.000000e+00
         vertex -6.123234e-13 1.000000e+04 1.000000e+04
      endloop
   endfacet
   facet normal 0.000000e+00 1.000000e+00 0.000000e+00
      outer loop
         vertex -6.123234e-13 1.000000e+04 1.000000e+04
         vertex 1.000000e+04 1.000000e+04 0.000000e+00
         vertex -3.749399e-29 1.000000e+04 0.000000e+00
      endloop
   endfacet
   facet normal -6.123234e-17 1.224647e-16 1.000000e+00
      outer loop
         vertex 5.212306e+03 8.912973e+03 1.000000e+04
         vertex 1.000000e+04 1.000000e+04 1.000000e+04
         vertex -3.749399e-29 1.000000e+04 1.000000e+04
      endloop
   endfacet
   facet normal -6.123234e-17 1.224647e-16 1.000000e+00
      outer loop
         vertex 1.000000e+04 1.000000e+04 1.000000e+04
         vertex 5.212306e+03 8.912973e+03 1.000000e+04
         vertex 1.000000e+04 0.000000e+00 1.000000e+04
      endloop
   endfacet
   facet normal -6.123235e-17 1.224647e-16 1.000000e+00
      outer loop
         vertex 1.000000e+04 0.000000e+00 1.000000e+04
         vertex 5.212306e+03 8.912973e+03 1.000000e+04
         vertex 5.212306e+03 5.480103e+03 1.000000e+04
      endloop
   endfacet
   facet normal -6.123234e-17 1.224647e-16 1.000000e+00
      outer loop
         vertex 1.000000e+04 0.000000e+00 1.000000e+04
         vertex 5.212306e+03 5.480103e+03 1.000000e+04
         vertex 6.123234e-13 0.000000e+00 1.000000e+04
      endloop
   endfacet
   facet normal -6.123234e-17 1.224647e-16 1.000000e+00
      outer loop
         vertex 6.123234e-13 0.000000e+00 1.000000e+04
         vertex 5.212306e+03 5.480103e+03 1.000000e+04
         vertex 3.236104e+03 5.480103e+03 1.000000e+04
      endloop
   endfacet
   facet normal -6.123233e-17 1.224647e-16 1.000000e+00
      outer loop
         vertex 6.123234e-13 0.000000e+00 1.000000e+04
         vertex 3.236104e+03 5.480103e+03 1.000000e+04
         vertex -3.749399e-29 1.000000e+04 1.000000e+04
      endloop
   endfacet
   facet normal -6.123234e-17 1.224647e-16 1.000000e+00
      outer loop
         vertex -3.749399e-29 1.000000e+04 1.000000e+04
         vertex 3.236104e+03 5.480103e+03 1.000000e+04
         vertex 3.236104e+03 8.912973e+03 1.000000e+04
      endloop
   endfacet
   facet normal -6.123235e-17 1.224646e-16 1.000000e+00
      outer loop
         vertex -3.749399e-29 1.000000e+04 1.000000e+04
         vertex 3.236104e+03 8.912973e+03 1.000000e+04
         vertex 5.212306e+03 8.912973e+03 1.000000e+04
      endloop
   endfacet
   facet normal 6.123234e-17 -1.000000e+00 1.224647e-16
      outer loop
         vertex 1.000000e+04 7.498799e-29 0.000000e+00
         vertex 1.000000e+04 1.224647e-12 1.000000e+04
         vertex 7.127649e-29 -6.123234e-13 0.000000e+00
      endloop
   endfacet
   facet normal 6.123234e-17 -1.000000e+00 1.224647e-16
      outer loop
         vertex 7.127649e-29 -6.123234e-13 0.000000e+00
         vertex 1.000000e+04 1.224647e-12 1.000000e+04
         vertex -6.123234e-13 6.123234e-13 1.000000e+04
      endloop
   endfacet
   facet normal 0.000000e+00 0.000000e+00 -1.000000e+00
      outer loop
         vertex 1.000000e+04 0.000000e+00 0.000000e+00
         vertex 6.123234e-13 0.000000e+00 0.000000e+00
         vertex 1.000000e+04 6.506426e+02 0.000000e+00
      endloop
   endfacet
   facet normal -0.000000e+00 0.000000e+00 -1.000000e+00
      outer loop
         vertex 1.000000e+04 6.506426e+02 0.000000e+00
         vertex 6.123234e-13 0.000000e+00 0.000000e+00
         vertex 5.724830e-13 6.506426e+02 0.000000e+00
      endloop
   endfacet
   facet normal 1.000000e+00 0.000000e+00 0.000000e+00
      outer loop
         vertex 1.000000e+04 2.857676e+03 1.754790e+03
         vertex 1.000000e+04 5.000000e+03 0.000000e+00
         vertex 1.000000e+04 1.000000e+04 0.000000e+00
      endloop
   endfacet
   facet normal 1.000000e+00 0.000000e+00 -0.000000e+00
      outer loop
         vertex 1.000000e+04 6.756499e-29 0.000000e+00
         vertex 1.000000e+04 6.506426e+02 0.000000e+00
         vertex 1.000000e+04 -5.517100e-13 1.000000e+04
      endloop
   endfacet
   facet normal 1.000000e+00 0.000000e+00 0.000000e+00
      outer loop
         vertex 1.000000e+04 -5.517100e-13 1.000000e+04
         vertex 1.000000e+04 6.506426e+02 0.000000e+00
         vertex 1.000000e+04 2.857676e+03 1.754790e+03
      endloop
   endfacet
   facet normal 1.000000e+00 -0.000000e+00 0.000000e+00
      outer loop
         vertex 1.000000e+04 -5.517100e-13 1.000000e+04
         vertex 1.000000e+04 2.857676e+03 1.754790e+03
         vertex 1.000000e+04 1.000000e+04 1.000000e+04
      endloop
   endfacet
   facet normal 1.000000e+00 0.000000e+00 0.000000e+00
      outer loop
         vertex 1.000000e+04 1.000000e+04 1.000000e+04
         vertex 1.000000e+04 2.857676e+03 1.754790e+03
         vertex 1.000000e+04 1.000000e+04 0.000000e+00
      endloop
   endfacet
   facet normal -1.000000e+00 -6.123232e-17 -6.123239e-17
      outer loop
         vertex 3.298913e-13 2.857676e+03 1.754790e+03
         vertex 5.724830e-13 6.506426e+02 0.000000e+00
         vertex 6.123234e-13 -1.499760e-28 0.000000e+00
      endloop
   endfacet
   facet normal -1.000000e+00 -6.123234e-17 -6.123234e-17
      outer loop
         vertex 0.000000e+00 1.000000e+04 0.000000e+00
         vertex 3.061617e-13 5.000000e+03 0.000000e+00
         vertex -6.123234e-13 1.000000e+04 1.000000e+04
      endloop
   endfacet
   facet normal -1.000000e+00 -6.123233e-17 -6.123234e-17
      outer loop
         vertex -6.123234e-13 1.000000e+04 1.000000e+04
         vertex 3.061617e-13 5.000000e+03 0.000000e+00
         vertex 3.298913e-13 2.857676e+03 1.754790e+03
      endloop
   endfacet
   facet normal -1.000000e+00 -6.123234e-17 -6.123234e-17
      outer loop
         vertex -6.123234e-13 1.000000e+04 1.000000e+04
         vertex 3.298913e-13 2.857676e+03 1.754790e+03
         vertex 9.860761e-29 -5.517100e-13 1.000000e+04
      endloop
   endfacet
   facet normal -1.000000e+00 -6.123235e-17 -6.123234e-17
      outer loop
         vertex 9.860761e-29 -5.517100e-13 1.000000e+04
         vertex 3.298913e-13 2.857676e+03 1.754790e+03
         vertex 6.123234e-13 -1.499760e-28 0.000000e+00
      endloop
   endfacet
   facet normal -0.000000e+00 -6.336658e-01 -7.736069e-01
      outer loop
         vertex 1.000000e+04 5.000000e+03 0.000000e+00
         vertex 1.000000e+04 2.857676e+03 1.754790e+03
         vertex 0.000000e+00 5.000000e+03 0.000000e+00
      endloop
   endfacet
   facet normal 0.000000e+00 -6.336658e-01 -7.736069e-01
      outer loop
         vertex 0.000000e+00 5.000000e+03 0.000000e+00
         vertex 1.000000e+04 2.857676e+03 1.754790e+03
         vertex 0.000000e+00 2.857676e+03 1.754790e+03
      endloop
   endfacet
   facet normal 0.000000e+00 6.223489e-01 -7.827400e-01
      outer loop
         vertex 1.000000e+04 2.857676e+03 1.754790e+03
         vertex 1.000000e+04 6.506426e+02 0.000000e+00
         vertex -3.552714e-12 2.857676e+03 1.754790e+03
      endloop
   endfacet
   facet normal 0.000000e+00 6.223489e-01 -7.827400e-01
      outer loop
         vertex -3.552714e-12 2.857676e+03 1.754790e+03
         vertex 1.000000e+04 6.506426e+02 0.000000e+00
         vertex -3.552714e-12 6.506426e+02 0.000000e+00
      endloop
   endfacet
   facet normal -0.000000e+00 -1.000000e+00 -0.000000e+00
      outer loop
         vertex 5.212306e+03 8.912973e+03 1.000000e+04
         vertex 3.236104e+03 8.912973e+03 1.000000e+04
         vertex 5.212306e+03 8.912973e+03 0.000000e+00
      endloop
   endfacet
   facet normal 0.000000e+00 -1.000000e+00 0.000000e+00
      outer loop
         vertex 5.212306e+03 8.912973e+03 0.000000e+00
         vertex 3.236104e+03 8.912973e+03 1.000000e+04
         vertex 3.236104e+03 8.912973e+03 0.000000e+00
      endloop
   endfacet
   facet normal 1.000000e+00 0.000000e+00 0.000000e+00
      outer loop
         vertex 3.236104e+03 8.912973e+03 1.000000e+04
         vertex 3.236104e+03 5.480103e+03 1.000000e+04
         vertex 3.236104e+03 8.912973e+03 0.000000e+00
      endloop
   endfacet
   facet normal 1.000000e+00 0.000000e+00 0.000000e+00
      outer loop
         vertex 3.236104e+03 8.912973e+03 0.000000e+00
         vertex 3.236104e+03 5.480103e+03 1.000000e+04
         vertex 3.236104e+03 5.480103e+03 0.000000e+00
      endloop
   endfacet
   facet normal 0.000000e+00 1.000000e+00 0.000000e+00
      outer loop
         vertex 3.236104e+03 5.480103e+03 1.000000e+04
         vertex 5.212306e+03 5.480103e+03 1.000000e+04
         vertex 3.236104e+03 5.480103e+03 0.000000e+00
      endloop
   endfacet
   facet normal 0.000000e+00 1.000000e+00 0.000000e+00
      outer loop
         vertex 3.236104e+03 5.480103e+03 0.000000e+00
         vertex 5.212306e+03 5.480103e+03 1.000000e+04
         vertex 5.212306e+03 5.480103e+03 0.000000e+00
      endloop
   endfacet
   facet normal -1.000000e+00 0.000000e+00 0.000000e+00
      outer loop
         vertex 5.212306e+03 5.480103e+03 1.000000e+04
         vertex 5.212306e+03 8.912973e+03 1.000000e+04
         vertex 5.212306e+03 5.480103e+03 0.000000e+00
      endloop
   endfacet
   facet normal -1.000000e+00 0.000000e+00 0.000000e+00
      outer loop
         vertex 5.212306e+03 5.480103e+03 0.000000e+00
         vertex 5.212306e+03 8.912973e+03 1.000000e+04
         vertex 5.212306e+03 8.912973e+03 0.000000e+00
      endloop
   endfacet
endsolid