solid 14
   facet normal -3.749399e-33 -6.123234e-17 1.000000e+00
      outer loop
         vertex 1.000000e+04 1.000000e+04 1.000000e+04
         vertex 0.000000e+00 1.000000e+04 1.000000e+04
         vertex 1.000000e+04 6.123234e-13 1.000000e+04
      endloop
   endfacet
   facet normal 3.749399e-33 -6.123234e-17 1.000000e+00
      outer loop
         vertex 1.000000e+04 6.123234e-13 1.000000e+04
         vertex 0.000000e+00 1.000000e+04 1.000000e+04
         vertex 0.000000e+00 -3.749399e-29 1.000000e+04
      endloop
   endfacet
   facet normal 1.000000e+00 0.000000e+00 -0.000000e+00
      outer loop
         vertex 1.000000e+04 1.000000e+04 0.000000e+00
         vertex 1.000000e+04 1.000000e+04 1.000000e+04
         vertex 1.000000e+04 6.123234e-13 0.000000e+00
      endloop
   endfacet
   facet normal 1.000000e+00 0.000000e+00 -0.000000e+00
      outer loop
         vertex 1.000000e+04 6.123234e-13 0.000000e+00
         vertex 1.000000e+04 1.000000e+04 1.000000e+04
         vertex 1.000000e+04 0.000000e+00 1.000000e+04
      endloop
   endfacet
   facet normal 0.000000e+00 0.000000e+00 -1.000000e+00
      outer loop
         vertex 0.000000e+00 1.000000e+04 0.000000e+00
         vertex 1.000000e+04 1.000000e+04 0.000000e+00
         vertex 0.000000e+00 -3.749399e-29 0.000000e+00
      endloop
   endfacet
   facet normal 0.000000e+00 0.000000e+00 -1.000000e+00
      outer loop
         vertex 0.000000e+00 -3.749399e-29 0.000000e+00
         vertex 1.000000e+04 1.000000e+04 0.000000e+00
         vertex 1.000000e+04 6.123234e-13 0.000000e+00
      endloop
   endfacet
   facet normal -1.000000e+00 -6.123234e-17 -7.498799e-33
      outer loop
         vertex 0.000000e+00 1.000000e+04 1.000000e+04
         vertex 7.498799e-29 1.000000e+04 0.000000e+00
         vertex 6.123234e-13 0.000000e+00 1.000000e+04
      endloop
   endfacet
   facet normal -1.000000e+00 -6.123234e-17 -3.749399e-33
      outer loop
         vertex 6.123234e-13 0.000000e+00 1.000000e+04
         vertex 7.498799e-29 1.000000e+04 0.000000e+00
         vertex 6.123234e-13 6.123234e-13 0.000000e+00
      endloop
   endfacet
   facet normal 0.000000e+00 1.000000e+00 0.000000e+00
      outer loop
         vertex 6.955993e+03 1.000000e+04 5.358784e+03
         vertex 3.354543e+03 1.000000e+04 5.520648e+03
         vertex 3.354543e+03 1.000000e+04 8.127225e+03
      endloop
   endfacet
   facet normal 0.000000e+00 1.000000e+00 0.000000e+00
      outer loop
         vertex 5.016604e+03 1.000000e+04 5.358784e+03
         vertex 4.046909e+03 1.000000e+04 3.679224e+03
         vertex -3.749399e-29 1.000000e+04 0.000000e+00
      endloop
   endfacet
   facet normal 0.000000e+00 1.000000e+00 0.000000e+00
      outer loop
         vertex -3.749399e-29 1.000000e+04 0.000000e+00
         vertex 4.046909e+03 1.000000e+04 3.679224e+03
         vertex 5.016604e+03 1.000000e+04 1.999663e+03
      endloop
   endfacet
   facet normal 0.000000e+00 1.000000e+00 0.000000e+00
      outer loop
         vertex -3.749399e-29 1.000000e+04 0.000000e+00
         vertex 5.016604e+03 1.000000e+04 1.999663e+03
         vertex 1.000000e+04 1.000000e+04 0.000000e+00
      endloop
   endfacet
   facet normal -0.000000e+00 1.000000e+00 0.000000e+00
      outer loop
         vertex 5.016604e+03 1.000000e+04 1.999663e+03
         vertex 6.955993e+03 1.000000e+04 1.999663e+03
         vertex 1.000000e+04 1.000000e+04 0.000000e+00
      endloop
   endfacet
   facet normal 0.000000e+00 1.000000e+00 0.000000e+00
      outer loop
         vertex 1.000000e+04 1.000000e+04 0.000000e+00
         vertex 6.955993e+03 1.000000e+04 1.999663e+03
         vertex 7.925688e+03 1.000000e+04 3.679224e+03
      endloop
   endfacet
   facet normal 0.000000e+00 1.000000e+00 -0.000000e+00
      outer loop
         vertex 1.000000e+04 1.000000e+04 0.000000e+00
         vertex 7.925688e+03 1.000000e+04 3.679224e+03
         vertex 1.000000e+04 1.000000e+04 1.000000e+04
      endloop
   endfacet
   facet normal 0.000000e+00 1.000000e+00 -0.000000e+00
      outer loop
         vertex 7.925688e+03 1.000000e+04 3.679224e+03
         vertex 6.955993e+03 1.000000e+04 5.358784e+03
         vertex 1.000000e+04 1.000000e+04 1.000000e+04
      endloop
   endfacet
   facet normal 0.000000e+00 1.000000e+00 0.000000e+00
      outer loop
         vertex 1.000000e+04 1.000000e+04 1.000000e+04
         vertex 6.955993e+03 1.000000e+04 5.358784e+03
         vertex 3.354543e+03 1.000000e+04 8.127225e+03
      endloop
   endfacet
   facet normal 0.000000e+00 1.000000e+00 0.000000e+00
      outer loop
         vertex 1.000000e+04 1.000000e+04 1.000000e+04
         vertex 3.354543e+03 1.000000e+04 8.127225e+03
         vertex 0.000000e+00 1.000000e+04 1.000000e+04
      endloop
   endfacet
   facet normal 0.000000e+00 1.000000e+00 0.000000e+00
      outer loop
         vertex 0.000000e+00 1.000000e+04 1.000000e+04
         vertex 3.354543e+03 1.000000e+04 8.127225e+03
         vertex 1.097181e+03 1.000000e+04 6.823936e+03
      endloop
   endfacet
   facet normal 0.000000e+00 1.000000e+00 0.000000e+00
      outer loop
         vertex 0.000000e+00 1.000000e+04 1.000000e+04
         vertex 1.097181e+03 1.000000e+04 6.823936e+03
         vertex -3.749399e-29 1.000000e+04 0.000000e+00
      endloop
   endfacet
   facet normal 0.000000e+00 1.000000e+00 0.000000e+00
      outer loop
         vertex -3.749399e-29 1.000000e+04 0.000000e+00
         vertex 1.097181e+03 1.000000e+04 6.823936e+03
         vertex 3.354543e+03 1.000000e+04 5.520648e+03
      endloop
   endfacet
   facet normal 0.000000e+00 1.000000e+00 0.000000e+00
      outer loop
         vertex -3.749399e-29 1.000000e+04 0.000000e+00
         vertex 3.354543e+03 1.000000e+04 5.520648e+03
         vertex 5.016604e+03 1.000000e+04 5.358784e+03
      endloop
   endfacet
   facet normal 0.000000e+00 1.000000e+00 -0.000000e+00
      outer loop
         vertex 5.016604e+03 1.000000e+04 5.358784e+03
         vertex 3.354543e+03 1.000000e+04 5.520648e+03
         vertex 6.955993e+03 1.000000e+04 5.358784e+03
      endloop
   endfacet
   facet normal 6.123234e-17 -1.000000e+00 -6.123234e-17
      outer loop
         vertex -3.749399e-29 1.224647e-12 0.000000e+00
         vertex 4.046909e+03 1.247161e-12 3.679224e+03
         vertex 0.000000e+00 6.123234e-13 1.000000e+04
      endloop
   endfacet
   facet normal 6.123232e-17 -1.000000e+00 -6.123235e-17
      outer loop
         vertex 0.000000e+00 6.123234e-13 1.000000e+04
         vertex 4.046909e+03 1.247161e-12 3.679224e+03
         vertex 5.016604e+03 1.203694e-12 5.358784e+03
      endloop
   endfacet
   facet normal 6.123234e-17 -1.000000e+00 -6.123233e-17
      outer loop
         vertex 0.000000e+00 6.123234e-13 1.000000e+04
         vertex 5.016604e+03 1.203694e-12 5.358784e+03
         vertex 1.000000e+04 1.224647e-12 1.000000e+04
      endloop
   endfacet
   facet normal 6.123236e-17 -1.000000e+00 -6.123236e-17
      outer loop
         vertex 5.016604e+03 1.203694e-12 5.358784e+03
         vertex 6.955993e+03 1.322448e-12 5.358784e+03
         vertex 1.000000e+04 1.224647e-12 1.000000e+04
      endloop
   endfacet
   facet normal 6.123232e-17 -1.000000e+00 -6.123233e-17
      outer loop
         vertex 1.000000e+04 1.224647e-12 1.000000e+04
         vertex 6.955993e+03 1.322448e-12 5.358784e+03
         vertex 7.925688e+03 1.484668e-12 3.679224e+03
      endloop
   endfacet
   facet normal 6.123231e-17 -1.000000e+00 -6.123233e-17
      outer loop
         vertex 1.000000e+04 1.224647e-12 1.000000e+04
         vertex 7.925688e+03 1.484668e-12 3.679224e+03
         vertex 1.000000e+04 1.836970e-12 0.000000e+00
      endloop
   endfacet
   facet normal 6.123231e-17 -1.000000e+00 -6.123233e-17
      outer loop
         vertex 1.000000e+04 1.836970e-12 0.000000e+00
         vertex 7.925688e+03 1.484668e-12 3.679224e+03
         vertex 6.955993e+03 1.528134e-12 1.999663e+03
      endloop
   endfacet
   facet normal 6.123233e-17 -1.000000e+00 -6.123230e-17
      outer loop
         vertex 1.000000e+04 1.836970e-12 0.000000e+00
         vertex 6.955993e+03 1.528134e-12 1.999663e+03
         vertex -3.749399e-29 1.224647e-12 0.000000e+00
      endloop
   endfacet
   facet normal 6.123236e-17 -1.000000e+00 -6.123242e-17
      outer loop
         vertex -3.749399e-29 1.224647e-12 0.000000e+00
         vertex 6.955993e+03 1.528134e-12 1.999663e+03
         vertex 5.016604e+03 1.409381e-12 1.999663e+03
      endloop
   endfacet
   facet normal 6.123232e-17 -1.000000e+00 -6.123232e-17
      outer loop
         vertex -3.749399e-29 1.224647e-12 0.000000e+00
         vertex 5.016604e+03 1.409381e-12 1.999663e+03
         vertex 4.046909e+03 1.247161e-12 3.679224e+03
      endloop
   endfacet
   facet normal -8.660254e-01 0.000000e+00 4.999999e-01
      outer loop
         vertex 7.925688e+03 1.000000e+04 3.679224e+03
         vertex 6.955993e+03 1.000000e+04 1.999663e+03
         vertex 7.925688e+03 0.000000e+00 3.679224e+03
      endloop
   endfacet
   facet normal -8.660254e-01 0.000000e+00 4.999999e-01
      outer loop
         vertex 7.925688e+03 0.000000e+00 3.679224e+03
         vertex 6.955993e+03 1.000000e+04 1.999663e+03
         vertex 6.955993e+03 0.000000e+00 1.999663e+03
      endloop
   endfacet
   facet normal 0.000000e+00 0.000000e+00 1.000000e+00
      outer loop
         vertex 6.955993e+03 1.000000e+04 1.999663e+03
         vertex 5.016604e+03 1.000000e+04 1.999663e+03
         vertex 6.955993e+03 0.000000e+00 1.999663e+03
      endloop
   endfacet
   facet normal 0.000000e+00 0.000000e+00 1.000000e+00
      outer loop
         vertex 6.955993e+03 0.000000e+00 1.999663e+03
         vertex 5.016604e+03 1.000000e+04 1.999663e+03
         vertex 5.016604e+03 0.000000e+00 1.999663e+03
      endloop
   endfacet
   facet normal 8.660254e-01 0.000000e+00 4.999999e-01
      outer loop
         vertex 5.016604e+03 1.000000e+04 1.999663e+03
         vertex 4.046909e+03 1.000000e+04 3.679224e+03
         vertex 5.016604e+03 0.000000e+00 1.999663e+03
      endloop
   endfacet
   facet normal 8.660254e-01 0.000000e+00 4.999999e-01
      outer loop
         vertex 5.016604e+03 0.000000e+00 1.999663e+03
         vertex 4.046909e+03 1.000000e+04 3.679224e+03
         vertex 4.046909e+03 0.000000e+00 3.679224e+03
      endloop
   endfacet
   facet normal 8.660254e-01 0.000000e+00 -5.000000e-01
      outer loop
         vertex 4.046909e+03 1.000000e+04 3.679224e+03
         vertex 5.016604e+03 1.000000e+04 5.358784e+03
         vertex 4.046909e+03 -3.552714e-12 3.679224e+03
      endloop
   endfacet
   facet normal 8.660254e-01 0.000000e+00 -5.000000e-01
      outer loop
         vertex 4.046909e+03 -3.552714e-12 3.679224e+03
         vertex 5.016604e+03 1.000000e+04 5.358784e+03
         vertex 5.016604e+03 -3.552714e-12 5.358784e+03
      endloop
   endfacet
   facet normal 0.000000e+00 0.000000e+00 -1.000000e+00
      outer loop
         vertex 5.016604e+03 1.000000e+04 5.358784e+03
         vertex 6.955993e+03 1.000000e+04 5.358784e+03
         vertex 5.016604e+03 0.000000e+00 5.358784e+03
      endloop
   endfacet
   facet normal 0.000000e+00 0.000000e+00 -1.000000e+00
      outer loop
         vertex 5.016604e+03 0.000000e+00 5.358784e+03
         vertex 6.955993e+03 1.000000e+04 5.358784e+03
         vertex 6.955993e+03 0.000000e+00 5.358784e+03
      endloop
   endfacet
   facet normal -8.660254e-01 -0.000000e+00 -5.000000e-01
      outer loop
         vertex 6.955993e+03 1.000000e+04 5.358784e+03
         vertex 7.925688e+03 1.000000e+04 3.679224e+03
         vertex 6.955993e+03 -3.552714e-12 5.358784e+03
      endloop
   endfacet
   facet normal -8.660254e-01 0.000000e+00 -5.000000e-01
      outer loop
         vertex 6.955993e+03 -3.552714e-12 5.358784e+03
         vertex 7.925688e+03 1.000000e+04 3.679224e+03
         vertex 7.925688e+03 -3.552714e-12 3.679224e+03
      endloop
   endfacet
   facet normal 5.000000e-01 -0.000000e+00 8.660254e-01
      outer loop
         vertex 1.097181e+03 3.726307e+03 6.823936e+03
         vertex 3.354543e+03 3.726307e+03 5.520648e+03
         vertex 1.097181e+03 1.000000e+04 6.823936e+03
      endloop
   endfacet
   facet normal 5.000000e-01 0.000000e+00 8.660254e-01
      outer loop
         vertex 1.097181e+03 1.000000e+04 6.823936e+03
         vertex 3.354543e+03 3.726307e+03 5.520648e+03
         vertex 3.354543e+03 1.000000e+04 5.520648e+03
      endloop
   endfacet
   facet normal -1.000000e+00 0.000000e+00 0.000000e+00
      outer loop
         vertex 3.354543e+03 3.726307e+03 5.520648e+03
         vertex 3.354543e+03 3.726307e+03 8.127225e+03
         vertex 3.354543e+03 1.000000e+04 5.520648e+03
      endloop
   endfacet
   facet normal -1.000000e+00 0.000000e+00 0.000000e+00
      outer loop
         vertex 3.354543e+03 1.000000e+04 5.520648e+03
         vertex 3.354543e+03 3.726307e+03 8.127225e+03
         vertex 3.354543e+03 1.000000e+04 8.127225e+03
      endloop
   endfacet
   facet normal 5.000000e-01 0.000000e+00 -8.660254e-01
      outer loop
         vertex 3.354543e+03 3.726307e+03 8.127225e+03
         vertex 1.097181e+03 3.726307e+03 6.823936e+03
         vertex 3.354543e+03 1.000000e+04 8.127225e+03
      endloop
   endfacet
   facet normal 5.000000e-01 0.000000e+00 -8.660254e-01
      outer loop
         vertex 3.354543e+03 1.000000e+04 8.127225e+03
         vertex 1.097181e+03 3.726307e+03 6.823936e+03
         vertex 1.097181e+03 1.000000e+04 6.823936e+03
      endloop
   endfacet
   facet normal -0.000000e+00 1.000000e+00 0.000000e+00
      outer loop
         vertex 1.097181e+03 3.726307e+03 6.823936e+03
         vertex 3.354543e+03 3.726307e+03 8.127225e+03
         vertex 3.354543e+03 3.726307e+03 5.520648e+03
      endloop
   endfacet
endsolid