solid 16
   facet normal -1.836970e-16 -6.123234e-17 1.000000e+00
      outer loop
         vertex 0.000000e+00 1.000000e+04 1.000000e+04
         vertex 9.860761e-29 2.809634e-29 1.000000e+04
         vertex 3.941493e+03 1.000000e+04 1.000000e+04
      endloop
   endfacet
   facet normal -1.836970e-16 -6.123234e-17 1.000000e+00
      outer loop
         vertex 3.941493e+03 1.000000e+04 1.000000e+04
         vertex 9.860761e-29 2.809634e-29 1.000000e+04
         vertex 3.941493e+03 2.809634e-29 1.000000e+04
      endloop
   endfacet
   facet normal 0.000000e+00 0.000000e+00 -1.000000e+00
      outer loop
         vertex 9.860761e-29 2.809634e-29 0.000000e+00
         vertex 0.000000e+00 1.000000e+04 0.000000e+00
         vertex 1.000000e+04 2.809634e-29 0.000000e+00
      endloop
   endfacet
   facet normal 0.000000e+00 0.000000e+00 -1.000000e+00
      outer loop
         vertex 1.000000e+04 2.809634e-29 0.000000e+00
         vertex 0.000000e+00 1.000000e+04 0.000000e+00
         vertex 1.000000e+04 1.000000e+04 0.000000e+00
      endloop
   endfacet
   facet normal -6.123234e-17 -1.000000e+00 -6.123230e-17
      outer loop
         vertex 3.968475e+03 -2.241147e-13 9.691595e+03
         vertex 3.941493e+03 -2.413468e-13 1.000000e+04
         vertex 0.000000e+00 2.809634e-29 1.000000e+04
      endloop
   endfacet
   facet normal -6.123241e-17 -1.000000e+00 -6.123236e-17
      outer loop
         vertex 7.078044e+03 -3.635017e-13 8.858389e+03
         vertex 6.859137e+03 -3.366932e-13 8.639481e+03
         vertex 1.000000e+04 1.405783e-28 0.000000e+00
      endloop
   endfacet
   facet normal -6.123233e-17 -1.000000e+00 -6.123234e-17
      outer loop
         vertex 1.000000e+04 1.405783e-28 0.000000e+00
         vertex 6.859137e+03 -3.366932e-13 8.639481e+03
         vertex 6.605541e+03 -3.102920e-13 8.461911e+03
      endloop
   endfacet
   facet normal -6.123230e-17 -1.000000e+00 -6.123232e-17
      outer loop
         vertex 1.000000e+04 1.405783e-28 0.000000e+00
         vertex 6.605541e+03 -3.102920e-13 8.461911e+03
         vertex 6.324964e+03 -2.851002e-13 8.331076e+03
      endloop
   endfacet
   facet normal -6.123229e-17 -1.000000e+00 -6.123238e-17
      outer loop
         vertex 5.409120e+03 -2.241147e-13 8.250950e+03
         vertex 0.000000e+00 6.123234e-13 0.000000e+00
         vertex 5.717525e+03 -2.413468e-13 8.223968e+03
      endloop
   endfacet
   facet normal -6.123234e-17 -1.000000e+00 -6.123234e-17
      outer loop
         vertex 5.717525e+03 -2.413468e-13 8.223968e+03
         vertex 0.000000e+00 6.123234e-13 0.000000e+00
         vertex 1.000000e+04 1.405783e-28 0.000000e+00
      endloop
   endfacet
   facet normal -6.123227e-17 -1.000000e+00 -6.123230e-17
      outer loop
         vertex 5.717525e+03 -2.413468e-13 8.223968e+03
         vertex 1.000000e+04 1.405783e-28 0.000000e+00
         vertex 6.025930e+03 -2.618833e-13 8.250950e+03
      endloop
   endfacet
   facet normal -6.123242e-17 -1.000000e+00 -6.123238e-17
      outer loop
         vertex 6.025930e+03 -2.618833e-13 8.250950e+03
         vertex 1.000000e+04 1.405783e-28 0.000000e+00
         vertex 6.324964e+03 -2.851002e-13 8.331076e+03
      endloop
   endfacet
   facet normal -6.123234e-17 -1.000000e+00 -6.123233e-17
      outer loop
         vertex 7.493557e+03 -4.588480e-13 1.000000e+04
         vertex 7.466575e+03 -4.383115e-13 9.691595e+03
         vertex 1.000000e+04 -6.123234e-13 1.000000e+04
      endloop
   endfacet
   facet normal -6.123234e-17 -1.000000e+00 -6.123239e-17
      outer loop
         vertex 1.000000e+04 -6.123234e-13 1.000000e+04
         vertex 7.466575e+03 -4.383115e-13 9.691595e+03
         vertex 7.386449e+03 -4.150947e-13 9.392561e+03
      endloop
   endfacet
   facet normal -6.123235e-17 -1.000000e+00 -6.123234e-17
      outer loop
         vertex 1.000000e+04 -6.123234e-13 1.000000e+04
         vertex 7.386449e+03 -4.150947e-13 9.392561e+03
         vertex 1.000000e+04 1.405783e-28 0.000000e+00
      endloop
   endfacet
   facet normal -6.123219e-17 -1.000000e+00 -6.123230e-17
      outer loop
         vertex 1.000000e+04 1.405783e-28 0.000000e+00
         vertex 7.386449e+03 -4.150947e-13 9.392561e+03
         vertex 7.255614e+03 -3.899029e-13 9.111984e+03
      endloop
   endfacet
   facet normal -6.123233e-17 -1.000000e+00 -6.123234e-17
      outer loop
         vertex 1.000000e+04 1.405783e-28 0.000000e+00
         vertex 7.255614e+03 -3.899029e-13 9.111984e+03
         vertex 7.078044e+03 -3.635017e-13 8.858389e+03
      endloop
   endfacet
   facet normal -6.123241e-17 -1.000000e+00 -6.123230e-17
      outer loop
         vertex 5.409120e+03 -2.241147e-13 8.250950e+03
         vertex 5.110086e+03 -2.107104e-13 8.331076e+03
         vertex 0.000000e+00 6.123234e-13 0.000000e+00
      endloop
   endfacet
   facet normal -6.123236e-17 -1.000000e+00 -6.123233e-17
      outer loop
         vertex 0.000000e+00 6.123234e-13 0.000000e+00
         vertex 5.110086e+03 -2.107104e-13 8.331076e+03
         vertex 4.829509e+03 -2.015414e-13 8.461911e+03
      endloop
   endfacet
   facet normal -6.123236e-17 -1.000000e+00 -6.123233e-17
      outer loop
         vertex 0.000000e+00 6.123234e-13 0.000000e+00
         vertex 4.829509e+03 -2.015414e-13 8.461911e+03
         vertex 4.575914e+03 -1.968861e-13 8.639481e+03
      endloop
   endfacet
   facet normal -6.123230e-17 -1.000000e+00 -6.123236e-17
      outer loop
         vertex 4.575914e+03 -1.968861e-13 8.639481e+03
         vertex 4.357006e+03 -1.968861e-13 8.858389e+03
         vertex 0.000000e+00 6.123234e-13 0.000000e+00
      endloop
   endfacet
   facet normal -6.123232e-17 -1.000000e+00 -6.123235e-17
      outer loop
         vertex 0.000000e+00 6.123234e-13 0.000000e+00
         vertex 4.357006e+03 -1.968861e-13 8.858389e+03
         vertex 4.179436e+03 -2.015414e-13 9.111984e+03
      endloop
   endfacet
   facet normal -6.123234e-17 -1.000000e+00 -6.123234e-17
      outer loop
         vertex 0.000000e+00 6.123234e-13 0.000000e+00
         vertex 4.179436e+03 -2.015414e-13 9.111984e+03
         vertex 0.000000e+00 2.809634e-29 1.000000e+04
      endloop
   endfacet
   facet normal -6.123235e-17 -1.000000e+00 -6.123239e-17
      outer loop
         vertex 0.000000e+00 2.809634e-29 1.000000e+04
         vertex 4.179436e+03 -2.015414e-13 9.111984e+03
         vertex 4.048601e+03 -2.107104e-13 9.392561e+03
      endloop
   endfacet
   facet normal -6.123234e-17 -1.000000e+00 -6.123233e-17
      outer loop
         vertex 0.000000e+00 2.809634e-29 1.000000e+04
         vertex 4.048601e+03 -2.107104e-13 9.392561e+03
         vertex 3.968475e+03 -2.241147e-13 9.691595e+03
      endloop
   endfacet
   facet normal -1.836970e-16 -6.123234e-17 1.000000e+00
      outer loop
         vertex 1.000000e+04 2.809634e-29 1.000000e+04
         vertex 1.000000e+04 1.000000e+04 1.000000e+04
         vertex 7.493557e+03 2.809634e-29 1.000000e+04
      endloop
   endfacet
   facet normal -1.836970e-16 -6.123234e-17 1.000000e+00
      outer loop
         vertex 7.493557e+03 2.809634e-29 1.000000e+04
         vertex 1.000000e+04 1.000000e+04 1.000000e+04
         vertex 7.493557e+03 1.000000e+04 1.000000e+04
      endloop
   endfacet
   facet normal 0.000000e+00 1.000000e+00 0.000000e+00
      outer loop
         vertex 7.466575e+03 1.000000e+04 9.691595e+03
         vertex 7.493557e+03 1.000000e+04 1.000000e+04
         vertex 1.000000e+04 1.000000e+04 1.000000e+04
      endloop
   endfacet
   facet normal -0.000000e+00 1.000000e+00 0.000000e+00
      outer loop
         vertex 6.025930e+03 1.000000e+04 8.250950e+03
         vertex 6.324964e+03 1.000000e+04 8.331076e+03
         vertex 1.000000e+04 1.000000e+04 0.000000e+00
      endloop
   endfacet
   facet normal 0.000000e+00 1.000000e+00 0.000000e+00
      outer loop
         vertex 1.000000e+04 1.000000e+04 0.000000e+00
         vertex 6.324964e+03 1.000000e+04 8.331076e+03
         vertex 6.605541e+03 1.000000e+04 8.461911e+03
      endloop
   endfacet
   facet normal 0.000000e+00 1.000000e+00 0.000000e+00
      outer loop
         vertex 1.000000e+04 1.000000e+04 0.000000e+00
         vertex 6.605541e+03 1.000000e+04 8.461911e+03
         vertex 6.859137e+03 1.000000e+04 8.639481e+03
      endloop
   endfacet
   facet normal 0.000000e+00 1.000000e+00 0.000000e+00
      outer loop
         vertex 4.829509e+03 1.000000e+04 8.461911e+03
         vertex 0.000000e+00 1.000000e+04 0.000000e+00
         vertex 4.575914e+03 1.000000e+04 8.639481e+03
      endloop
   endfacet
   facet normal 0.000000e+00 1.000000e+00 0.000000e+00
      outer loop
         vertex 4.575914e+03 1.000000e+04 8.639481e+03
         vertex 0.000000e+00 1.000000e+04 0.000000e+00
         vertex 4.357006e+03 1.000000e+04 8.858389e+03
      endloop
   endfacet
   facet normal -0.000000e+00 1.000000e+00 0.000000e+00
      outer loop
         vertex 6.859137e+03 1.000000e+04 8.639481e+03
         vertex 7.078044e+03 1.000000e+04 8.858389e+03
         vertex 1.000000e+04 1.000000e+04 0.000000e+00
      endloop
   endfacet
   facet normal 0.000000e+00 1.000000e+00 0.000000e+00
      outer loop
         vertex 1.000000e+04 1.000000e+04 0.000000e+00
         vertex 7.078044e+03 1.000000e+04 8.858389e+03
         vertex 7.255614e+03 1.000000e+04 9.111984e+03
      endloop
   endfacet
   facet normal 0.000000e+00 1.000000e+00 -0.000000e+00
      outer loop
         vertex 1.000000e+04 1.000000e+04 0.000000e+00
         vertex 7.255614e+03 1.000000e+04 9.111984e+03
         vertex 1.000000e+04 1.000000e+04 1.000000e+04
      endloop
   endfacet
   facet normal 0.000000e+00 1.000000e+00 0.000000e+00
      outer loop
         vertex 1.000000e+04 1.000000e+04 1.000000e+04
         vertex 7.255614e+03 1.000000e+04 9.111984e+03
         vertex 7.386449e+03 1.000000e+04 9.392561e+03
      endloop
   endfacet
   facet normal 0.000000e+00 1.000000e+00 0.000000e+00
      outer loop
         vertex 1.000000e+04 1.000000e+04 1.000000e+04
         vertex 7.386449e+03 1.000000e+04 9.392561e+03
         vertex 7.466575e+03 1.000000e+04 9.691595e+03
      endloop
   endfacet
   facet normal 0.000000e+00 1.000000e+00 0.000000e+00
      outer loop
         vertex 3.941493e+03 1.000000e+04 1.000000e+04
         vertex 3.968475e+03 1.000000e+04 9.691595e+03
         vertex 0.000000e+00 1.000000e+04 1.000000e+04
      endloop
   endfacet
   facet normal 0.000000e+00 1.000000e+00 0.000000e+00
      outer loop
         vertex 0.000000e+00 1.000000e+04 1.000000e+04
         vertex 3.968475e+03 1.000000e+04 9.691595e+03
         vertex 4.048601e+03 1.000000e+04 9.392561e+03
      endloop
   endfacet
   facet normal 0.000000e+00 1.000000e+00 0.000000e+00
      outer loop
         vertex 0.000000e+00 1.000000e+04 1.000000e+04
         vertex 4.048601e+03 1.000000e+04 9.392561e+03
         vertex 0.000000e+00 1.000000e+04 0.000000e+00
      endloop
   endfacet
   facet normal 0.000000e+00 1.000000e+00 0.000000e+00
      outer loop
         vertex 0.000000e+00 1.000000e+04 0.000000e+00
         vertex 4.048601e+03 1.000000e+04 9.392561e+03
         vertex 4.179436e+03 1.000000e+04 9.111984e+03
      endloop
   endfacet
   facet normal 0.000000e+00 1.000000e+00 0.000000e+00
      outer loop
         vertex 0.000000e+00 1.000000e+04 0.000000e+00
         vertex 4.179436e+03 1.000000e+04 9.111984e+03
         vertex 4.357006e+03 1.000000e+04 8.858389e+03
      endloop
   endfacet
   facet normal 0.000000e+00 1.000000e+00 0.000000e+00
      outer loop
         vertex 4.829509e+03 1.000000e+04 8.461911e+03
         vertex 5.110086e+03 1.000000e+04 8.331076e+03
         vertex 0.000000e+00 1.000000e+04 0.000000e+00
      endloop
   endfacet
   facet normal 0.000000e+00 1.000000e+00 0.000000e+00
      outer loop
         vertex 0.000000e+00 1.000000e+04 0.000000e+00
         vertex 5.110086e+03 1.000000e+04 8.331076e+03
         vertex 5.409120e+03 1.000000e+04 8.250950e+03
      endloop
   endfacet
   facet normal 0.000000e+00 1.000000e+00 0.000000e+00
      outer loop
         vertex 0.000000e+00 1.000000e+04 0.000000e+00
         vertex 5.409120e+03 1.000000e+04 8.250950e+03
         vertex 1.000000e+04 1.000000e+04 0.000000e+00
      endloop
   endfacet
   facet normal 0.000000e+00 1.000000e+00 0.000000e+00
      outer loop
         vertex 1.000000e+04 1.000000e+04 0.000000e+00
         vertex 5.409120e+03 1.000000e+04 8.250950e+03
         vertex 5.717525e+03 1.000000e+04 8.223968e+03
      endloop
   endfacet
   facet normal 0.000000e+00 1.000000e+00 0.000000e+00
      outer loop
         vertex 1.000000e+04 1.000000e+04 0.000000e+00
         vertex 5.717525e+03 1.000000e+04 8.223968e+03
         vertex 6.025930e+03 1.000000e+04 8.250950e+03
      endloop
   endfacet
   facet normal -1.000000e+00 6.123235e-17 -1.836970e-16
      outer loop
         vertex -2.449294e-12 2.809634e-29 1.000000e+04
         vertex -1.836970e-12 1.000000e+04 1.000000e+04
         vertex -6.123234e-13 2.809634e-29 0.000000e+00
      endloop
   endfacet
   facet normal -1.000000e+00 6.123234e-17 -1.836970e-16
      outer loop
         vertex -6.123234e-13 2.809634e-29 0.000000e+00
         vertex -1.836970e-12 1.000000e+04 1.000000e+04
         vertex 0.000000e+00 1.000000e+04 0.000000e+00
      endloop
   endfacet
   facet normal 1.000000e+00 0.000000e+00 -0.000000e+00
      outer loop
         vertex 1.000000e+04 1.000000e+04 0.000000e+00
         vertex 1.000000e+04 1.000000e+04 1.000000e+04
         vertex 1.000000e+04 3.596706e+03 5.951273e+03
      endloop
   endfacet
   facet normal 1.000000e+00 0.000000e+00 -0.000000e+00
      outer loop
         vertex 1.000000e+04 3.596706e+03 5.951273e+03
         vertex 1.000000e+04 1.000000e+04 1.000000e+04
         vertex 1.000000e+04 2.809634e-29 1.000000e+04
      endloop
   endfacet
   facet normal 1.000000e+00 0.000000e+00 0.000000e+00
      outer loop
         vertex 1.000000e+04 3.596706e+03 5.951273e+03
         vertex 1.000000e+04 2.809634e-29 1.000000e+04
         vertex 1.000000e+04 1.874192e+03 4.956780e+03
      endloop
   endfacet
   facet normal 1.000000e+00 0.000000e+00 0.000000e+00
      outer loop
         vertex 1.000000e+04 1.874192e+03 4.956780e+03
         vertex 1.000000e+04 2.809634e-29 1.000000e+04
         vertex 1.000000e+04 2.809634e-29 0.000000e+00
      endloop
   endfacet
   facet normal 1.000000e+00 0.000000e+00 0.000000e+00
      outer loop
         vertex 1.000000e+04 1.874192e+03 4.956780e+03
         vertex 1.000000e+04 2.809634e-29 0.000000e+00
         vertex 1.000000e+04 3.596706e+03 3.962286e+03
      endloop
   endfacet
   facet normal 1.000000e+00 0.000000e+00 0.000000e+00
      outer loop
         vertex 1.000000e+04 3.596706e+03 3.962286e+03
         vertex 1.000000e+04 2.809634e-29 0.000000e+00
         vertex 1.000000e+04 1.000000e+04 0.000000e+00
      endloop
   endfacet
   facet normal 1.000000e+00 -0.000000e+00 0.000000e+00
      outer loop
         vertex 1.000000e+04 3.596706e+03 3.962286e+03
         vertex 1.000000e+04 1.000000e+04 0.000000e+00
         vertex 1.000000e+04 3.596706e+03 5.951273e+03
      endloop
   endfacet
   facet normal 0.000000e+00 4.999999e-01 -8.660254e-01
      outer loop
         vertex 4.259007e+03 1.874192e+03 4.956780e+03
         vertex 4.259007e+03 3.596706e+03 5.951273e+03
         vertex 1.000000e+04 1.874192e+03 4.956780e+03
      endloop
   endfacet
   facet normal 0.000000e+00 4.999999e-01 -8.660254e-01
      outer loop
         vertex 1.000000e+04 1.874192e+03 4.956780e+03
         vertex 4.259007e+03 3.596706e+03 5.951273e+03
         vertex 1.000000e+04 3.596706e+03 5.951273e+03
      endloop
   endfacet
   facet normal 0.000000e+00 -1.000000e+00 0.000000e+00
      outer loop
         vertex 4.259007e+03 3.596706e+03 5.951273e+03
         vertex 4.259007e+03 3.596706e+03 3.962286e+03
         vertex 1.000000e+04 3.596706e+03 5.951273e+03
      endloop
   endfacet
   facet normal 0.000000e+00 -1.000000e+00 -0.000000e+00
      outer loop
         vertex 1.000000e+04 3.596706e+03 5.951273e+03
         vertex 4.259007e+03 3.596706e+03 3.962286e+03
         vertex 1.000000e+04 3.596706e+03 3.962286e+03
      endloop
   endfacet
   facet normal -0.000000e+00 4.999999e-01 8.660254e-01
      outer loop
         vertex 4.259007e+03 3.596706e+03 3.962286e+03
         vertex 4.259007e+03 1.874192e+03 4.956780e+03
         vertex 1.000000e+04 3.596706e+03 3.962286e+03
      endloop
   endfacet
   facet normal 0.000000e+00 4.999999e-01 8.660254e-01
      outer loop
         vertex 1.000000e+04 3.596706e+03 3.962286e+03
         vertex 4.259007e+03 1.874192e+03 4.956780e+03
         vertex 1.000000e+04 1.874192e+03 4.956780e+03
      endloop
   endfacet
   facet normal 1.000000e+00 -0.000000e+00 0.000000e+00
      outer loop
         vertex 4.259007e+03 1.874192e+03 4.956780e+03
         vertex 4.259007e+03 3.596706e+03 3.962286e+03
         vertex 4.259007e+03 3.596706e+03 5.951273e+03
      endloop
   endfacet
   facet normal 9.961947e-01 -5.336733e-18 8.715547e-02
      outer loop
         vertex 3.941493e+03 1.000000e+04 1.000000e+04
         vertex 3.941493e+03 2.809634e-29 1.000000e+04
         vertex 3.968475e+03 1.000000e+04 9.691595e+03
      endloop
   endfacet
   facet normal 9.961947e-01 0.000000e+00 8.715547e-02
      outer loop
         vertex 3.968475e+03 1.000000e+04 9.691595e+03
         vertex 3.941493e+03 2.809634e-29 1.000000e+04
         vertex 3.968475e+03 2.809634e-29 9.691595e+03
      endloop
   endfacet
   facet normal 9.659259e-01 0.000000e+00 2.588187e-01
      outer loop
         vertex 3.968475e+03 1.000000e+04 9.691595e+03
         vertex 3.968475e+03 2.809634e-29 9.691595e+03
         vertex 4.048601e+03 1.000000e+04 9.392561e+03
      endloop
   endfacet
   facet normal 9.659259e-01 0.000000e+00 2.588187e-01
      outer loop
         vertex 4.048601e+03 1.000000e+04 9.392561e+03
         vertex 3.968475e+03 2.809634e-29 9.691595e+03
         vertex 4.048601e+03 2.809634e-29 9.392561e+03
      endloop
   endfacet
   facet normal 9.063076e-01 0.000000e+00 4.226188e-01
      outer loop
         vertex 4.048601e+03 1.000000e+04 9.392561e+03
         vertex 4.048601e+03 2.809634e-29 9.392561e+03
         vertex 4.179436e+03 1.000000e+04 9.111984e+03
      endloop
   endfacet
   facet normal 9.063076e-01 0.000000e+00 4.226188e-01
      outer loop
         vertex 4.179436e+03 1.000000e+04 9.111984e+03
         vertex 4.048601e+03 2.809634e-29 9.392561e+03
         vertex 4.179436e+03 2.809634e-29 9.111984e+03
      endloop
   endfacet
   facet normal 8.191520e-01 0.000000e+00 5.735765e-01
      outer loop
         vertex 4.179436e+03 1.000000e+04 9.111984e+03
         vertex 4.179436e+03 2.809634e-29 9.111984e+03
         vertex 4.357006e+03 1.000000e+04 8.858389e+03
      endloop
   endfacet
   facet normal 8.191520e-01 0.000000e+00 5.735765e-01
      outer loop
         vertex 4.357006e+03 1.000000e+04 8.858389e+03
         vertex 4.179436e+03 2.809634e-29 9.111984e+03
         vertex 4.357006e+03 2.809634e-29 8.858389e+03
      endloop
   endfacet
   facet normal 7.071064e-01 0.000000e+00 7.071072e-01
      outer loop
         vertex 4.357006e+03 1.000000e+04 8.858389e+03
         vertex 4.357006e+03 2.809634e-29 8.858389e+03
         vertex 4.575914e+03 1.000000e+04 8.639481e+03
      endloop
   endfacet
   facet normal 7.071064e-01 0.000000e+00 7.071072e-01
      outer loop
         vertex 4.575914e+03 1.000000e+04 8.639481e+03
         vertex 4.357006e+03 2.809634e-29 8.858389e+03
         vertex 4.575914e+03 2.809634e-29 8.639481e+03
      endloop
   endfacet
   facet normal 5.735765e-01 0.000000e+00 8.191520e-01
      outer loop
         vertex 4.575914e+03 1.000000e+04 8.639481e+03
         vertex 4.575914e+03 2.809634e-29 8.639481e+03
         vertex 4.829509e+03 1.000000e+04 8.461911e+03
      endloop
   endfacet
   facet normal 5.735765e-01 0.000000e+00 8.191520e-01
      outer loop
         vertex 4.829509e+03 1.000000e+04 8.461911e+03
         vertex 4.575914e+03 2.809634e-29 8.639481e+03
         vertex 4.829509e+03 2.809634e-29 8.461911e+03
      endloop
   endfacet
   facet normal 4.226183e-01 0.000000e+00 9.063078e-01
      outer loop
         vertex 4.829509e+03 1.000000e+04 8.461911e+03
         vertex 4.829509e+03 2.809634e-29 8.461911e+03
         vertex 5.110086e+03 1.000000e+04 8.331076e+03
      endloop
   endfacet
   facet normal 4.226183e-01 0.000000e+00 9.063078e-01
      outer loop
         vertex 5.110086e+03 1.000000e+04 8.331076e+03
         vertex 4.829509e+03 2.809634e-29 8.461911e+03
         vertex 5.110086e+03 2.809634e-29 8.331076e+03
      endloop
   endfacet
   facet normal 2.588194e-01 0.000000e+00 9.659257e-01
      outer loop
         vertex 5.110086e+03 1.000000e+04 8.331076e+03
         vertex 5.110086e+03 2.809634e-29 8.331076e+03
         vertex 5.409120e+03 1.000000e+04 8.250950e+03
      endloop
   endfacet
   facet normal 2.588194e-01 0.000000e+00 9.659257e-01
      outer loop
         vertex 5.409120e+03 1.000000e+04 8.250950e+03
         vertex 5.110086e+03 2.809634e-29 8.331076e+03
         vertex 5.409120e+03 2.809634e-29 8.250950e+03
      endloop
   endfacet
   facet normal 8.715579e-02 0.000000e+00 9.961947e-01
      outer loop
         vertex 5.409120e+03 1.000000e+04 8.250950e+03
         vertex 5.409120e+03 2.809634e-29 8.250950e+03
         vertex 5.717525e+03 1.000000e+04 8.223968e+03
      endloop
   endfacet
   facet normal 8.715579e-02 0.000000e+00 9.961947e-01
      outer loop
         vertex 5.717525e+03 1.000000e+04 8.223968e+03
         vertex 5.409120e+03 2.809634e-29 8.250950e+03
         vertex 5.717525e+03 2.809634e-29 8.223968e+03
      endloop
   endfacet
   facet normal -8.715579e-02 0.000000e+00 9.961947e-01
      outer loop
         vertex 5.717525e+03 1.000000e+04 8.223968e+03
         vertex 5.717525e+03 2.809634e-29 8.223968e+03
         vertex 6.025930e+03 1.000000e+04 8.250950e+03
      endloop
   endfacet
   facet normal -8.715579e-02 0.000000e+00 9.961947e-01
      outer loop
         vertex 6.025930e+03 1.000000e+04 8.250950e+03
         vertex 5.717525e+03 2.809634e-29 8.223968e+03
         vertex 6.025930e+03 2.809634e-29 8.250950e+03
      endloop
   endfacet
   facet normal -2.588194e-01 0.000000e+00 9.659257e-01
      outer loop
         vertex 6.025930e+03 1.000000e+04 8.250950e+03
         vertex 6.025930e+03 2.809634e-29 8.250950e+03
         vertex 6.324964e+03 1.000000e+04 8.331076e+03
      endloop
   endfacet
   facet normal -2.588194e-01 0.000000e+00 9.659257e-01
      outer loop
         vertex 6.324964e+03 1.000000e+04 8.331076e+03
         vertex 6.025930e+03 2.809634e-29 8.250950e+03
         vertex 6.324964e+03 2.809634e-29 8.331076e+03
      endloop
   endfacet
   facet normal -4.226177e-01 0.000000e+00 9.063081e-01
      outer loop
         vertex 6.324964e+03 1.000000e+04 8.331076e+03
         vertex 6.324964e+03 2.809634e-29 8.331076e+03
         vertex 6.605541e+03 1.000000e+04 8.461911e+03
      endloop
   endfacet
   facet normal -4.226177e-01 0.000000e+00 9.063081e-01
      outer loop
         vertex 6.605541e+03 1.000000e+04 8.461911e+03
         vertex 6.324964e+03 2.809634e-29 8.331076e+03
         vertex 6.605541e+03 2.809634e-29 8.461911e+03
      endloop
   endfacet
   facet normal -5.735765e-01 0.000000e+00 8.191520e-01
      outer loop
         vertex 6.605541e+03 1.000000e+04 8.461911e+03
         vertex 6.605541e+03 2.809634e-29 8.461911e+03
         vertex 6.859137e+03 1.000000e+04 8.639481e+03
      endloop
   endfacet
   facet normal -5.735765e-01 0.000000e+00 8.191520e-01
      outer loop
         vertex 6.859137e+03 1.000000e+04 8.639481e+03
         vertex 6.605541e+03 2.809634e-29 8.461911e+03
         vertex 6.859137e+03 2.809634e-29 8.639481e+03
      endloop
   endfacet
   facet normal -7.071072e-01 0.000000e+00 7.071064e-01
      outer loop
         vertex 6.859137e+03 1.000000e+04 8.639481e+03
         vertex 6.859137e+03 2.809634e-29 8.639481e+03
         vertex 7.078044e+03 1.000000e+04 8.858389e+03
      endloop
   endfacet
   facet normal -7.071072e-01 0.000000e+00 7.071064e-01
      outer loop
         vertex 7.078044e+03 1.000000e+04 8.858389e+03
         vertex 6.859137e+03 2.809634e-29 8.639481e+03
         vertex 7.078044e+03 2.809634e-29 8.858389e+03
      endloop
   endfacet
   facet normal -8.191520e-01 0.000000e+00 5.735765e-01
      outer loop
         vertex 7.078044e+03 1.000000e+04 8.858389e+03
         vertex 7.078044e+03 2.809634e-29 8.858389e+03
         vertex 7.255614e+03 1.000000e+04 9.111984e+03
      endloop
   endfacet
   facet normal -8.191520e-01 0.000000e+00 5.735765e-01
      outer loop
         vertex 7.255614e+03 1.000000e+04 9.111984e+03
         vertex 7.078044e+03 2.809634e-29 8.858389e+03
         vertex 7.255614e+03 2.809634e-29 9.111984e+03
      endloop
   endfacet
   facet normal -9.063076e-01 0.000000e+00 4.226188e-01
      outer loop
         vertex 7.255614e+03 1.000000e+04 9.111984e+03
         vertex 7.255614e+03 2.809634e-29 9.111984e+03
         vertex 7.386449e+03 1.000000e+04 9.392561e+03
      endloop
   endfacet
   facet normal -9.063076e-01 0.000000e+00 4.226188e-01
      outer loop
         vertex 7.386449e+03 1.000000e+04 9.392561e+03
         vertex 7.255614e+03 2.809634e-29 9.111984e+03
         vertex 7.386449e+03 2.809634e-29 9.392561e+03
      endloop
   endfacet
   facet normal -9.659259e-01 0.000000e+00 2.588187e-01
      outer loop
         vertex 7.386449e+03 1.000000e+04 9.392561e+03
         vertex 7.386449e+03 2.809634e-29 9.392561e+03
         vertex 7.466575e+03 1.000000e+04 9.691595e+03
      endloop
   endfacet
   facet normal -9.659259e-01 0.000000e+00 2.588187e-01
      outer loop
         vertex 7.466575e+03 1.000000e+04 9.691595e+03
         vertex 7.386449e+03 2.809634e-29 9.392561e+03
         vertex 7.466575e+03 2.809634e-29 9.691595e+03
      endloop
   endfacet
   facet normal -9.961947e-01 0.000000e+00 8.715547e-02
      outer loop
         vertex 7.466575e+03 1.000000e+04 9.691595e+03
         vertex 7.466575e+03 2.809634e-29 9.691595e+03
         vertex 7.493557e+03 1.000000e+04 1.000000e+04
      endloop
   endfacet
   facet normal -9.961947e-01 -5.336734e-18 8.715547e-02
      outer loop
         vertex 7.493557e+03 1.000000e+04 1.000000e+04
         vertex 7.466575e+03 2.809634e-29 9.691595e+03
         vertex 7.493557e+03 2.809634e-29 1.000000e+04
      endloop
   endfacet
endsolid