solid 35
   facet normal -1.000000e+00 -0.000000e+00 -6.123234e-17
      outer loop
         vertex -6.123234e-13 1.000000e+04 1.000000e+04
         vertex 0.000000e+00 1.000000e+04 0.000000e+00
         vertex -6.123234e-13 3.749399e-29 1.000000e+04
      endloop
   endfacet
   facet normal -1.000000e+00 0.000000e+00 -6.123234e-17
      outer loop
         vertex -6.123234e-13 3.749399e-29 1.000000e+04
         vertex 0.000000e+00 1.000000e+04 0.000000e+00
         vertex 0.000000e+00 0.000000e+00 0.000000e+00
      endloop
   endfacet
   facet normal -6.123234e-17 0.000000e+00 1.000000e+00
      outer loop
         vertex 1.000000e+04 1.000000e+04 1.000000e+04
         vertex 0.000000e+00 1.000000e+04 1.000000e+04
         vertex 1.000000e+04 0.000000e+00 1.000000e+04
      endloop
   endfacet
   facet normal -6.123234e-17 0.000000e+00 1.000000e+00
      outer loop
         vertex 1.000000e+04 0.000000e+00 1.000000e+04
         vertex 0.000000e+00 1.000000e+04 1.000000e+04
         vertex 0.000000e+00 0.000000e+00 1.000000e+04
      endloop
   endfacet
   facet normal 1.000000e+00 0.000000e+00 0.000000e+00
      outer loop
         vertex 1.000000e+04 0.000000e+00 0.000000e+00
         vertex 1.000000e+04 1.000000e+04 0.000000e+00
         vertex 1.000000e+04 9.192746e+03 2.750713e+03
      endloop
   endfacet
   facet normal 1.000000e+00 -0.000000e+00 0.000000e+00
      outer loop
         vertex 1.000000e+04 9.192746e+03 2.750713e+03
         vertex 1.000000e+04 1.000000e+04 0.000000e+00
         vertex 1.000000e+04 1.000000e+04 1.000000e+04
      endloop
   endfacet
   facet normal 1.000000e+00 0.000000e+00 -0.000000e+00
      outer loop
         vertex 1.000000e+04 9.192746e+03 2.750713e+03
         vertex 1.000000e+04 1.000000e+04 1.000000e+04
         vertex 1.000000e+04 7.376380e+03 5.896750e+03
      endloop
   endfacet
   facet normal 1.000000e+00 0.000000e+00 -0.000000e+00
      outer loop
         vertex 1.000000e+04 7.376380e+03 5.896750e+03
         vertex 1.000000e+04 1.000000e+04 1.000000e+04
         vertex 1.000000e+04 3.749399e-29 1.000000e+04
      endloop
   endfacet
   facet normal 1.000000e+00 0.000000e+00 0.000000e+00
      outer loop
         vertex 1.000000e+04 7.376380e+03 5.896750e+03
         vertex 1.000000e+04 3.749399e-29 1.000000e+04
         vertex 1.000000e+04 5.560015e+03 2.750713e+03
      endloop
   endfacet
   facet normal 1.000000e+00 0.000000e+00 0.000000e+00
      outer loop
         vertex 1.000000e+04 5.560015e+03 2.750713e+03
         vertex 1.000000e+04 3.749399e-29 1.000000e+04
         vertex 1.000000e+04 0.000000e+00 0.000000e+00
      endloop
   endfacet
   facet normal 1.000000e+00 -0.000000e+00 0.000000e+00
      outer loop
         vertex 1.000000e+04 5.560015e+03 2.750713e+03
         vertex 1.000000e+04 0.000000e+00 0.000000e+00
         vertex 1.000000e+04 9.192746e+03 2.750713e+03
      endloop
   endfacet
   facet normal 0.000000e+00 0.000000e+00 -1.000000e+00
      outer loop
         vertex 1.000000e+04 0.000000e+00 0.000000e+00
         vertex 8.678595e+03 0.000000e+00 0.000000e+00
         vertex 8.678595e+03 4.693121e+03 0.000000e+00
      endloop
   endfacet
   facet normal 0.000000e+00 0.000000e+00 -1.000000e+00
      outer loop
         vertex 4.456466e+03 0.000000e+00 0.000000e+00
         vertex 0.000000e+00 0.000000e+00 0.000000e+00
         vertex 4.456466e+03 4.693121e+03 0.000000e+00
      endloop
   endfacet
   facet normal -0.000000e+00 0.000000e+00 -1.000000e+00
      outer loop
         vertex 4.456466e+03 4.693121e+03 0.000000e+00
         vertex 0.000000e+00 0.000000e+00 0.000000e+00
         vertex 0.000000e+00 1.000000e+04 0.000000e+00
      endloop
   endfacet
   facet normal 0.000000e+00 0.000000e+00 -1.000000e+00
      outer loop
         vertex 4.456466e+03 4.693121e+03 0.000000e+00
         vertex 0.000000e+00 1.000000e+04 0.000000e+00
         vertex 8.678595e+03 4.693121e+03 0.000000e+00
      endloop
   endfacet
   facet normal 0.000000e+00 0.000000e+00 -1.000000e+00
      outer loop
         vertex 8.678595e+03 4.693121e+03 0.000000e+00
         vertex 0.000000e+00 1.000000e+04 0.000000e+00
         vertex 1.000000e+04 1.000000e+04 0.000000e+00
      endloop
   endfacet
   facet normal 0.000000e+00 0.000000e+00 -1.000000e+00
      outer loop
         vertex 8.678595e+03 4.693121e+03 0.000000e+00
         vertex 1.000000e+04 1.000000e+04 0.000000e+00
         vertex 1.000000e+04 0.000000e+00 0.000000e+00
      endloop
   endfacet
   facet normal 0.000000e+00 1.000000e+00 0.000000e+00
      outer loop
         vertex 1.000000e+04 1.000000e+04 1.000000e+04
         vertex 1.000000e+04 1.000000e+04 0.000000e+00
         vertex 0.000000e+00 1.000000e+04 1.000000e+04
      endloop
   endfacet
   facet normal 0.000000e+00 1.000000e+00 0.000000e+00
      outer loop
         vertex 0.000000e+00 1.000000e+04 1.000000e+04
         vertex 1.000000e+04 1.000000e+04 0.000000e+00
         vertex 0.000000e+00 1.000000e+04 0.000000e+00
      endloop
   endfacet
   facet normal 0.000000e+00 -1.000000e+00 0.000000e+00
      outer loop
         vertex 8.678595e+03 6.123234e-13 0.000000e+00
         vertex 1.000000e+04 6.123234e-13 0.000000e+00
         vertex 8.678595e+03 6.123234e-13 3.071105e+03
      endloop
   endfacet
   facet normal 0.000000e+00 -1.000000e+00 0.000000e+00
      outer loop
         vertex 8.678595e+03 6.123234e-13 3.071105e+03
         vertex 1.000000e+04 6.123234e-13 0.000000e+00
         vertex 1.000000e+04 6.123234e-13 1.000000e+04
      endloop
   endfacet
   facet normal 0.000000e+00 -1.000000e+00 0.000000e+00
      outer loop
         vertex 8.678595e+03 6.123234e-13 3.071105e+03
         vertex 1.000000e+04 6.123234e-13 1.000000e+04
         vertex 4.456466e+03 6.123234e-13 3.071105e+03
      endloop
   endfacet
   facet normal 0.000000e+00 -1.000000e+00 0.000000e+00
      outer loop
         vertex 4.456466e+03 6.123234e-13 3.071105e+03
         vertex 1.000000e+04 6.123234e-13 1.000000e+04
         vertex 0.000000e+00 6.123234e-13 1.000000e+04
      endloop
   endfacet
   facet normal -0.000000e+00 -1.000000e+00 -0.000000e+00
      outer loop
         vertex 4.456466e+03 6.123234e-13 3.071105e+03
         vertex 0.000000e+00 6.123234e-13 1.000000e+04
         vertex 4.456466e+03 6.123234e-13 0.000000e+00
      endloop
   endfacet
   facet normal 0.000000e+00 -1.000000e+00 0.000000e+00
      outer loop
         vertex 4.456466e+03 6.123234e-13 0.000000e+00
         vertex 0.000000e+00 6.123234e-13 1.000000e+04
         vertex 0.000000e+00 6.123234e-13 0.000000e+00
      endloop
   endfacet
   facet normal 1.000000e+00 0.000000e+00 -0.000000e+00
      outer loop
         vertex 4.456466e+03 4.693121e+03 0.000000e+00
         vertex 4.456466e+03 4.693121e+03 3.071105e+03
         vertex 4.456466e+03 8.881784e-13 0.000000e+00
      endloop
   endfacet
   facet normal 1.000000e+00 0.000000e+00 0.000000e+00
      outer loop
         vertex 4.456466e+03 8.881784e-13 0.000000e+00
         vertex 4.456466e+03 4.693121e+03 3.071105e+03
         vertex 4.456466e+03 8.881784e-13 3.071105e+03
      endloop
   endfacet
   facet normal 0.000000e+00 0.000000e+00 -1.000000e+00
      outer loop
         vertex 4.456466e+03 4.693121e+03 3.071105e+03
         vertex 8.678595e+03 4.693121e+03 3.071105e+03
         vertex 4.456466e+03 8.881784e-13 3.071105e+03
      endloop
   endfacet
   facet normal 0.000000e+00 0.000000e+00 -1.000000e+00
      outer loop
         vertex 4.456466e+03 8.881784e-13 3.071105e+03
         vertex 8.678595e+03 4.693121e+03 3.071105e+03
         vertex 8.678595e+03 8.881784e-13 3.071105e+03
      endloop
   endfacet
   facet normal -1.000000e+00 -0.000000e+00 -0.000000e+00
      outer loop
         vertex 8.678595e+03 4.693121e+03 3.071105e+03
         vertex 8.678595e+03 4.693121e+03 0.000000e+00
         vertex 8.678595e+03 8.881784e-13 3.071105e+03
      endloop
   endfacet
   facet normal -1.000000e+00 0.000000e+00 0.000000e+00
      outer loop
         vertex 8.678595e+03 8.881784e-13 3.071105e+03
         vertex 8.678595e+03 4.693121e+03 0.000000e+00
         vertex 8.678595e+03 8.881784e-13 0.000000e+00
      endloop
   endfacet
   facet normal 0.000000e+00 -1.000000e+00 0.000000e+00
      outer loop
         vertex 8.678595e+03 4.693121e+03 0.000000e+00
         vertex 8.678595e+03 4.693121e+03 3.071105e+03
         vertex 4.456466e+03 4.693121e+03 0.000000e+00
      endloop
   endfacet
   facet normal 0.000000e+00 -1.000000e+00 0.000000e+00
      outer loop
         vertex 4.456466e+03 4.693121e+03 0.000000e+00
         vertex 8.678595e+03 4.693121e+03 3.071105e+03
         vertex 4.456466e+03 4.693121e+03 3.071105e+03
      endloop
   endfacet
   facet normal 0.000000e+00 -8.660254e-01 -5.000000e-01
      outer loop
         vertex 4.181134e+03 7.376380e+03 5.896750e+03
         vertex 4.181134e+03 9.192746e+03 2.750713e+03
         vertex 1.000000e+04 7.376380e+03 5.896750e+03
      endloop
   endfacet
   facet normal 0.000000e+00 -8.660254e-01 -5.000000e-01
      outer loop
         vertex 1.000000e+04 7.376380e+03 5.896750e+03
         vertex 4.181134e+03 9.192746e+03 2.750713e+03
         vertex 1.000000e+04 9.192746e+03 2.750713e+03
      endloop
   endfacet
   facet normal -0.000000e+00 0.000000e+00 1.000000e+00
      outer loop
         vertex 4.181134e+03 9.192746e+03 2.750713e+03
         vertex 4.181134e+03 5.560015e+03 2.750713e+03
         vertex 1.000000e+04 9.192746e+03 2.750713e+03
      endloop
   endfacet
   facet normal 0.000000e+00 0.000000e+00 1.000000e+00
      outer loop
         vertex 1.000000e+04 9.192746e+03 2.750713e+03
         vertex 4.181134e+03 5.560015e+03 2.750713e+03
         vertex 1.000000e+04 5.560015e+03 2.750713e+03
      endloop
   endfacet
   facet normal 0.000000e+00 8.660254e-01 -5.000000e-01
      outer loop
         vertex 4.181134e+03 5.560015e+03 2.750713e+03
         vertex 4.181134e+03 7.376380e+03 5.896750e+03
         vertex 1.000000e+04 5.560015e+03 2.750713e+03
      endloop
   endfacet
   facet normal 0.000000e+00 8.660254e-01 -5.000000e-01
      outer loop
         vertex 1.000000e+04 5.560015e+03 2.750713e+03
         vertex 4.181134e+03 7.376380e+03 5.896750e+03
         vertex 1.000000e+04 7.376380e+03 5.896750e+03
      endloop
   endfacet
   facet normal 1.000000e+00 0.000000e+00 0.000000e+00
      outer loop
         vertex 4.181134e+03 7.376380e+03 5.896750e+03
         vertex 4.181134e+03 5.560015e+03 2.750713e+03
         vertex 4.181134e+03 9.192746e+03 2.750713e+03
      endloop
   endfacet
endsolid