solid 56
   facet normal -1.000000e+00 -7.498799e-33 -4.591690e-49
      outer loop
         vertex 7.498799e-29 -2.007113e-13 3.277865e+03
         vertex 7.498799e-29 -6.123234e-13 1.000000e+04
         vertex 5.628952e-29 2.493528e+03 3.277865e+03
      endloop
   endfacet
   facet normal -1.000000e+00 -7.498799e-33 -7.219012e-41
      outer loop
         vertex 5.628952e-29 2.493528e+03 3.277865e+03
         vertex 7.498799e-29 -6.123234e-13 1.000000e+04
         vertex 0.000000e+00 1.000000e+04 1.000000e+04
      endloop
   endfacet
   facet normal -1.000000e+00 -7.498799e-33 -0.000000e+00
      outer loop
         vertex 5.628952e-29 2.493528e+03 3.277865e+03
         vertex 0.000000e+00 1.000000e+04 1.000000e+04
         vertex 5.628952e-29 2.493528e+03 0.000000e+00
      endloop
   endfacet
   facet normal -1.000000e+00 -7.498799e-33 0.000000e+00
      outer loop
         vertex 5.628952e-29 2.493528e+03 0.000000e+00
         vertex 0.000000e+00 1.000000e+04 1.000000e+04
         vertex 0.000000e+00 1.000000e+04 0.000000e+00
      endloop
   endfacet
   facet normal 0.000000e+00 -6.123234e-17 1.000000e+00
      outer loop
         vertex 1.000000e+04 5.339785e+03 1.000000e+04
         vertex 1.000000e+04 1.000000e+04 1.000000e+04
         vertex 5.602156e+03 5.339785e+03 1.000000e+04
      endloop
   endfacet
   facet normal 0.000000e+00 -6.123234e-17 1.000000e+00
      outer loop
         vertex 5.602156e+03 5.339785e+03 1.000000e+04
         vertex 1.000000e+04 1.000000e+04 1.000000e+04
         vertex 0.000000e+00 1.000000e+04 1.000000e+04
      endloop
   endfacet
   facet normal 2.541461e-24 -6.123234e-17 1.000000e+00
      outer loop
         vertex 5.602156e+03 5.339785e+03 1.000000e+04
         vertex 0.000000e+00 1.000000e+04 1.000000e+04
         vertex 5.602156e+03 4.200944e-29 1.000000e+04
      endloop
   endfacet
   facet normal 4.591690e-49 -6.123234e-17 1.000000e+00
      outer loop
         vertex 5.602156e+03 4.200944e-29 1.000000e+04
         vertex 0.000000e+00 1.000000e+04 1.000000e+04
         vertex 0.000000e+00 0.000000e+00 1.000000e+04
      endloop
   endfacet
   facet normal 1.000000e+00 -0.000000e+00 0.000000e+00
      outer loop
         vertex 1.000000e+04 -5.337888e-13 8.717432e+03
         vertex 1.000000e+04 -3.749399e-29 0.000000e+00
         vertex 1.000000e+04 5.339785e+03 8.717432e+03
      endloop
   endfacet
   facet normal 1.000000e+00 0.000000e+00 0.000000e+00
      outer loop
         vertex 1.000000e+04 5.339785e+03 8.717432e+03
         vertex 1.000000e+04 -3.749399e-29 0.000000e+00
         vertex 1.000000e+04 1.000000e+04 0.000000e+00
      endloop
   endfacet
   facet normal 1.000000e+00 -0.000000e+00 0.000000e+00
      outer loop
         vertex 1.000000e+04 5.339785e+03 8.717432e+03
         vertex 1.000000e+04 1.000000e+04 0.000000e+00
         vertex 1.000000e+04 5.339785e+03 1.000000e+04
      endloop
   endfacet
   facet normal 1.000000e+00 -0.000000e+00 0.000000e+00
      outer loop
         vertex 1.000000e+04 5.339785e+03 1.000000e+04
         vertex 1.000000e+04 1.000000e+04 0.000000e+00
         vertex 1.000000e+04 1.000000e+04 1.000000e+04
      endloop
   endfacet
   facet normal 0.000000e+00 0.000000e+00 -1.000000e+00
      outer loop
         vertex 0.000000e+00 2.493528e+03 0.000000e+00
         vertex 0.000000e+00 1.000000e+04 0.000000e+00
         vertex 3.819046e+03 2.493528e+03 0.000000e+00
      endloop
   endfacet
   facet normal 0.000000e+00 0.000000e+00 -1.000000e+00
      outer loop
         vertex 3.819046e+03 2.493528e+03 0.000000e+00
         vertex 0.000000e+00 1.000000e+04 0.000000e+00
         vertex 1.000000e+04 1.000000e+04 0.000000e+00
      endloop
   endfacet
   facet normal 0.000000e+00 0.000000e+00 -1.000000e+00
      outer loop
         vertex 3.819046e+03 2.493528e+03 0.000000e+00
         vertex 1.000000e+04 1.000000e+04 0.000000e+00
         vertex 3.819046e+03 2.863826e-29 0.000000e+00
      endloop
   endfacet
   facet normal 0.000000e+00 0.000000e+00 -1.000000e+00
      outer loop
         vertex 3.819046e+03 2.863826e-29 0.000000e+00
         vertex 1.000000e+04 1.000000e+04 0.000000e+00
         vertex 1.000000e+04 7.498799e-29 0.000000e+00
      endloop
   endfacet
   facet normal 0.000000e+00 1.000000e+00 0.000000e+00
      outer loop
         vertex 1.000000e+04 1.000000e+04 1.000000e+04
         vertex 1.000000e+04 1.000000e+04 0.000000e+00
         vertex 0.000000e+00 1.000000e+04 1.000000e+04
      endloop
   endfacet
   facet normal 0.000000e+00 1.000000e+00 0.000000e+00
      outer loop
         vertex 0.000000e+00 1.000000e+04 1.000000e+04
         vertex 1.000000e+04 1.000000e+04 0.000000e+00
         vertex 0.000000e+00 1.000000e+04 0.000000e+00
      endloop
   endfacet
   facet normal 0.000000e+00 -1.000000e+00 -6.123234e-17
      outer loop
         vertex 3.819046e+03 4.116121e-13 3.277865e+03
         vertex 3.819046e+03 6.123234e-13 0.000000e+00
         vertex 1.000000e+04 6.123234e-13 0.000000e+00
      endloop
   endfacet
   facet normal 0.000000e+00 -1.000000e+00 -6.123234e-17
      outer loop
         vertex 0.000000e+00 0.000000e+00 1.000000e+04
         vertex 0.000000e+00 4.116121e-13 3.277865e+03
         vertex 5.602156e+03 0.000000e+00 1.000000e+04
      endloop
   endfacet
   facet normal 0.000000e+00 -1.000000e+00 -6.123234e-17
      outer loop
         vertex 5.602156e+03 0.000000e+00 1.000000e+04
         vertex 0.000000e+00 4.116121e-13 3.277865e+03
         vertex 3.819046e+03 4.116121e-13 3.277865e+03
      endloop
   endfacet
   facet normal -1.325214e-24 -1.000000e+00 -6.123234e-17
      outer loop
         vertex 5.602156e+03 0.000000e+00 1.000000e+04
         vertex 3.819046e+03 4.116121e-13 3.277865e+03
         vertex 1.000000e+04 7.853463e-14 8.717432e+03
      endloop
   endfacet
   facet normal -5.321089e-25 -1.000000e+00 -6.123234e-17
      outer loop
         vertex 1.000000e+04 7.853463e-14 8.717432e+03
         vertex 3.819046e+03 4.116121e-13 3.277865e+03
         vertex 1.000000e+04 6.123234e-13 0.000000e+00
      endloop
   endfacet
   facet normal 0.000000e+00 0.000000e+00 -1.000000e+00
      outer loop
         vertex 0.000000e+00 2.493528e+03 3.277865e+03
         vertex 3.819046e+03 2.493528e+03 3.277865e+03
         vertex 0.000000e+00 4.440892e-13 3.277865e+03
      endloop
   endfacet
   facet normal 0.000000e+00 0.000000e+00 -1.000000e+00
      outer loop
         vertex 0.000000e+00 4.440892e-13 3.277865e+03
         vertex 3.819046e+03 2.493528e+03 3.277865e+03
         vertex 3.819046e+03 4.440892e-13 3.277865e+03
      endloop
   endfacet
   facet normal -1.000000e+00 -0.000000e+00 -0.000000e+00
      outer loop
         vertex 3.819046e+03 2.493528e+03 3.277865e+03
         vertex 3.819046e+03 2.493528e+03 0.000000e+00
         vertex 3.819046e+03 2.433779e-13 3.277865e+03
      endloop
   endfacet
   facet normal -1.000000e+00 0.000000e+00 0.000000e+00
      outer loop
         vertex 3.819046e+03 2.433779e-13 3.277865e+03
         vertex 3.819046e+03 2.493528e+03 0.000000e+00
         vertex 3.819046e+03 4.440892e-13 0.000000e+00
      endloop
   endfacet
   facet normal 0.000000e+00 -1.000000e+00 0.000000e+00
      outer loop
         vertex 3.819046e+03 2.493528e+03 0.000000e+00
         vertex 3.819046e+03 2.493528e+03 3.277865e+03
         vertex 0.000000e+00 2.493528e+03 0.000000e+00
      endloop
   endfacet
   facet normal 0.000000e+00 -1.000000e+00 0.000000e+00
      outer loop
         vertex 0.000000e+00 2.493528e+03 0.000000e+00
         vertex 3.819046e+03 2.493528e+03 3.277865e+03
         vertex 0.000000e+00 2.493528e+03 3.277865e+03
      endloop
   endfacet
   facet normal 2.799725e-01 0.000000e+00 9.600080e-01
      outer loop
         vertex 1.000000e+04 5.339785e+03 8.717432e+03
         vertex 5.602156e+03 5.339785e+03 1.000000e+04
         vertex 1.000000e+04 -1.776357e-12 8.717432e+03
      endloop
   endfacet
   facet normal 2.799725e-01 -1.815438e-16 9.600080e-01
      outer loop
         vertex 1.000000e+04 -1.776357e-12 8.717432e+03
         vertex 5.602156e+03 5.339785e+03 1.000000e+04
         vertex 5.602156e+03 -1.776357e-12 1.000000e+04
      endloop
   endfacet
   facet normal 0.000000e+00 -1.000000e+00 0.000000e+00
      outer loop
         vertex 5.602156e+03 5.339785e+03 1.000000e+04
         vertex 1.000000e+04 5.339785e+03 8.717432e+03
         vertex 1.000000e+04 5.339785e+03 1.000000e+04
      endloop
   endfacet
endsolid