solid 63
   facet normal 2.520978e-49 -6.123234e-17 1.000000e+00
      outer loop
         vertex 1.000000e+04 3.749399e-29 1.000000e+04
         vertex 1.000000e+04 1.000000e+04 1.000000e+04
         vertex 6.880769e+03 2.465190e-29 1.000000e+04
      endloop
   endfacet
   facet normal 0.000000e+00 -6.123234e-17 1.000000e+00
      outer loop
         vertex 6.880769e+03 2.465190e-29 1.000000e+04
         vertex 1.000000e+04 1.000000e+04 1.000000e+04
         vertex 6.880769e+03 1.000000e+04 1.000000e+04
      endloop
   endfacet
   facet normal 0.000000e+00 0.000000e+00 -1.000000e+00
      outer loop
         vertex 1.000000e+04 6.123234e-13 0.000000e+00
         vertex 0.000000e+00 1.224647e-12 0.000000e+00
         vertex 1.000000e+04 1.066773e+03 0.000000e+00
      endloop
   endfacet
   facet normal -0.000000e+00 0.000000e+00 -1.000000e+00
      outer loop
         vertex 1.000000e+04 1.066773e+03 0.000000e+00
         vertex 0.000000e+00 1.224647e-12 0.000000e+00
         vertex 0.000000e+00 1.066773e+03 0.000000e+00
      endloop
   endfacet
   facet normal -6.123234e-17 -1.000000e+00 -6.123236e-17
      outer loop
         vertex 3.130483e+03 4.206366e-13 1.000000e+04
         vertex 0.000000e+00 6.123234e-13 1.000000e+04
         vertex 3.130483e+03 5.281085e-13 8.244852e+03
      endloop
   endfacet
   facet normal -6.123233e-17 -1.000000e+00 -6.123234e-17
      outer loop
         vertex 3.130483e+03 5.281085e-13 8.244852e+03
         vertex 0.000000e+00 6.123234e-13 1.000000e+04
         vertex 0.000000e+00 1.224647e-12 0.000000e+00
      endloop
   endfacet
   facet normal -6.123234e-17 -1.000000e+00 -6.123234e-17
      outer loop
         vertex 3.130483e+03 5.281085e-13 8.244852e+03
         vertex 0.000000e+00 1.224647e-12 0.000000e+00
         vertex 6.880769e+03 2.984697e-13 8.244852e+03
      endloop
   endfacet
   facet normal -6.123234e-17 -1.000000e+00 -6.123234e-17
      outer loop
         vertex 6.880769e+03 2.984697e-13 8.244852e+03
         vertex 0.000000e+00 1.224647e-12 0.000000e+00
         vertex 1.000000e+04 6.123234e-13 0.000000e+00
      endloop
   endfacet
   facet normal -6.123234e-17 -1.000000e+00 -6.123234e-17
      outer loop
         vertex 6.880769e+03 2.984697e-13 8.244852e+03
         vertex 1.000000e+04 6.123234e-13 0.000000e+00
         vertex 6.880769e+03 1.909978e-13 1.000000e+04
      endloop
   endfacet
   facet normal -6.123234e-17 -1.000000e+00 -6.123234e-17
      outer loop
         vertex 6.880769e+03 1.909978e-13 1.000000e+04
         vertex 1.000000e+04 6.123234e-13 0.000000e+00
         vertex 1.000000e+04 1.972152e-28 1.000000e+04
      endloop
   endfacet
   facet normal 0.000000e+00 -6.123234e-17 1.000000e+00
      outer loop
         vertex 0.000000e+00 1.000000e+04 1.000000e+04
         vertex 0.000000e+00 6.123234e-13 1.000000e+04
         vertex 3.130483e+03 1.000000e+04 1.000000e+04
      endloop
   endfacet
   facet normal 0.000000e+00 -6.123234e-17 1.000000e+00
      outer loop
         vertex 3.130483e+03 1.000000e+04 1.000000e+04
         vertex 0.000000e+00 6.123234e-13 1.000000e+04
         vertex 3.130483e+03 0.000000e+00 1.000000e+04
      endloop
   endfacet
   facet normal -0.000000e+00 1.000000e+00 0.000000e+00
      outer loop
         vertex 6.880769e+03 1.000000e+04 1.000000e+04
         vertex 1.000000e+04 1.000000e+04 1.000000e+04
         vertex 6.880769e+03 1.000000e+04 8.244852e+03
      endloop
   endfacet
   facet normal -0.000000e+00 1.000000e+00 0.000000e+00
      outer loop
         vertex 6.880769e+03 1.000000e+04 8.244852e+03
         vertex 1.000000e+04 1.000000e+04 1.000000e+04
         vertex 1.000000e+04 1.000000e+04 0.000000e+00
      endloop
   endfacet
   facet normal 0.000000e+00 1.000000e+00 0.000000e+00
      outer loop
         vertex 6.880769e+03 1.000000e+04 8.244852e+03
         vertex 1.000000e+04 1.000000e+04 0.000000e+00
         vertex 3.130483e+03 1.000000e+04 8.244852e+03
      endloop
   endfacet
   facet normal 0.000000e+00 1.000000e+00 0.000000e+00
      outer loop
         vertex 3.130483e+03 1.000000e+04 8.244852e+03
         vertex 1.000000e+04 1.000000e+04 0.000000e+00
         vertex 0.000000e+00 1.000000e+04 0.000000e+00
      endloop
   endfacet
   facet normal 0.000000e+00 1.000000e+00 -0.000000e+00
      outer loop
         vertex 3.130483e+03 1.000000e+04 8.244852e+03
         vertex 0.000000e+00 1.000000e+04 0.000000e+00
         vertex 3.130483e+03 1.000000e+04 1.000000e+04
      endloop
   endfacet
   facet normal 0.000000e+00 1.000000e+00 0.000000e+00
      outer loop
         vertex 3.130483e+03 1.000000e+04 1.000000e+04
         vertex 0.000000e+00 1.000000e+04 0.000000e+00
         vertex -3.749399e-29 1.000000e+04 1.000000e+04
      endloop
   endfacet
   facet normal 0.000000e+00 0.000000e+00 -1.000000e+00
      outer loop
         vertex 0.000000e+00 1.000000e+04 0.000000e+00
         vertex 1.000000e+04 1.000000e+04 0.000000e+00
         vertex 0.000000e+00 4.428305e+03 0.000000e+00
      endloop
   endfacet
   facet normal 0.000000e+00 0.000000e+00 -1.000000e+00
      outer loop
         vertex 0.000000e+00 4.428305e+03 0.000000e+00
         vertex 1.000000e+04 1.000000e+04 0.000000e+00
         vertex 1.000000e+04 4.428305e+03 0.000000e+00
      endloop
   endfacet
   facet normal -1.000000e+00 6.123234e-17 0.000000e+00
      outer loop
         vertex 6.532103e-14 1.066773e+03 0.000000e+00
         vertex 0.000000e+00 1.224647e-12 0.000000e+00
         vertex 6.532103e-14 1.066773e+03 2.265505e+03
      endloop
   endfacet
   facet normal -1.000000e+00 6.123234e-17 0.000000e+00
      outer loop
         vertex 6.532103e-14 1.066773e+03 2.265505e+03
         vertex 0.000000e+00 1.224647e-12 0.000000e+00
         vertex -3.749399e-29 6.123234e-13 1.000000e+04
      endloop
   endfacet
   facet normal -1.000000e+00 6.123234e-17 -3.297226e-25
      outer loop
         vertex 6.532103e-14 1.066773e+03 2.265505e+03
         vertex -3.749399e-29 6.123234e-13 1.000000e+04
         vertex 2.711555e-13 4.428305e+03 2.265505e+03
      endloop
   endfacet
   facet normal -1.000000e+00 6.123234e-17 2.211642e-24
      outer loop
         vertex 2.711555e-13 4.428305e+03 2.265505e+03
         vertex -3.749399e-29 6.123234e-13 1.000000e+04
         vertex 6.123234e-13 1.000000e+04 1.000000e+04
      endloop
   endfacet
   facet normal -1.000000e+00 6.123234e-17 0.000000e+00
      outer loop
         vertex 2.711555e-13 4.428305e+03 2.265505e+03
         vertex 6.123234e-13 1.000000e+04 1.000000e+04
         vertex 2.711555e-13 4.428305e+03 0.000000e+00
      endloop
   endfacet
   facet normal -1.000000e+00 6.123234e-17 0.000000e+00
      outer loop
         vertex 2.711555e-13 4.428305e+03 0.000000e+00
         vertex 6.123234e-13 1.000000e+04 1.000000e+04
         vertex 6.123234e-13 1.000000e+04 0.000000e+00
      endloop
   endfacet
   facet normal 1.000000e+00 0.000000e+00 0.000000e+00
      outer loop
         vertex 1.000000e+04 6.123234e-13 0.000000e+00
         vertex 1.000000e+04 1.066773e+03 0.000000e+00
         vertex 1.000000e+04 1.066773e+03 2.265505e+03
      endloop
   endfacet
   facet normal 1.000000e+00 0.000000e+00 0.000000e+00
      outer loop
         vertex 1.000000e+04 4.428305e+03 0.000000e+00
         vertex 1.000000e+04 1.000000e+04 0.000000e+00
         vertex 1.000000e+04 4.428305e+03 2.265505e+03
      endloop
   endfacet
   facet normal 1.000000e+00 -0.000000e+00 0.000000e+00
      outer loop
         vertex 1.000000e+04 4.428305e+03 2.265505e+03
         vertex 1.000000e+04 1.000000e+04 0.000000e+00
         vertex 1.000000e+04 1.000000e+04 1.000000e+04
      endloop
   endfacet
   facet normal 1.000000e+00 0.000000e+00 -0.000000e+00
      outer loop
         vertex 1.000000e+04 4.428305e+03 2.265505e+03
         vertex 1.000000e+04 1.000000e+04 1.000000e+04
         vertex 1.000000e+04 1.066773e+03 2.265505e+03
      endloop
   endfacet
   facet normal 1.000000e+00 0.000000e+00 -0.000000e+00
      outer loop
         vertex 1.000000e+04 1.066773e+03 2.265505e+03
         vertex 1.000000e+04 1.000000e+04 1.000000e+04
         vertex 1.000000e+04 0.000000e+00 1.000000e+04
      endloop
   endfacet
   facet normal 1.000000e+00 0.000000e+00 0.000000e+00
      outer loop
         vertex 1.000000e+04 1.066773e+03 2.265505e+03
         vertex 1.000000e+04 0.000000e+00 1.000000e+04
         vertex 1.000000e+04 6.123234e-13 0.000000e+00
      endloop
   endfacet
   facet normal 0.000000e+00 1.000000e+00 0.000000e+00
      outer loop
         vertex 0.000000e+00 1.066773e+03 0.000000e+00
         vertex 5.102029e-30 1.066773e+03 2.265505e+03
         vertex 1.000000e+04 1.066773e+03 0.000000e+00
      endloop
   endfacet
   facet normal 0.000000e+00 1.000000e+00 -0.000000e+00
      outer loop
         vertex 1.000000e+04 1.066773e+03 0.000000e+00
         vertex 5.102029e-30 1.066773e+03 2.265505e+03
         vertex 1.000000e+04 1.066773e+03 2.265505e+03
      endloop
   endfacet
   facet normal 0.000000e+00 0.000000e+00 -1.000000e+00
      outer loop
         vertex 0.000000e+00 1.066773e+03 2.265505e+03
         vertex 0.000000e+00 4.428305e+03 2.265505e+03
         vertex 1.000000e+04 1.066773e+03 2.265505e+03
      endloop
   endfacet
   facet normal 0.000000e+00 0.000000e+00 -1.000000e+00
      outer loop
         vertex 1.000000e+04 1.066773e+03 2.265505e+03
         vertex 0.000000e+00 4.428305e+03 2.265505e+03
         vertex 1.000000e+04 4.428305e+03 2.265505e+03
      endloop
   endfacet
   facet normal 0.000000e+00 -1.000000e+00 0.000000e+00
      outer loop
         vertex -8.494282e-30 4.428305e+03 2.265505e+03
         vertex 0.000000e+00 4.428305e+03 0.000000e+00
         vertex 1.000000e+04 4.428305e+03 2.265505e+03
      endloop
   endfacet
   facet normal 0.000000e+00 -1.000000e+00 -0.000000e+00
      outer loop
         vertex 1.000000e+04 4.428305e+03 2.265505e+03
         vertex 0.000000e+00 4.428305e+03 0.000000e+00
         vertex 1.000000e+04 4.428305e+03 0.000000e+00
      endloop
   endfacet
   facet normal -1.000000e+00 -0.000000e+00 -0.000000e+00
      outer loop
         vertex 6.880769e+03 1.000000e+04 1.000000e+04
         vertex 6.880769e+03 1.000000e+04 8.244852e+03
         vertex 6.880769e+03 -3.749399e-29 1.000000e+04
      endloop
   endfacet
   facet normal -1.000000e+00 0.000000e+00 0.000000e+00
      outer loop
         vertex 6.880769e+03 -3.749399e-29 1.000000e+04
         vertex 6.880769e+03 1.000000e+04 8.244852e+03
         vertex 6.880769e+03 1.074718e-13 8.244852e+03
      endloop
   endfacet
   facet normal 0.000000e+00 0.000000e+00 1.000000e+00
      outer loop
         vertex 6.880769e+03 1.000000e+04 8.244852e+03
         vertex 3.130483e+03 1.000000e+04 8.244852e+03
         vertex 6.880769e+03 0.000000e+00 8.244852e+03
      endloop
   endfacet
   facet normal 0.000000e+00 0.000000e+00 1.000000e+00
      outer loop
         vertex 6.880769e+03 0.000000e+00 8.244852e+03
         vertex 3.130483e+03 1.000000e+04 8.244852e+03
         vertex 3.130483e+03 0.000000e+00 8.244852e+03
      endloop
   endfacet
   facet normal 1.000000e+00 0.000000e+00 -0.000000e+00
      outer loop
         vertex 3.130483e+03 1.000000e+04 8.244852e+03
         vertex 3.130483e+03 1.000000e+04 1.000000e+04
         vertex 3.130483e+03 1.074718e-13 8.244852e+03
      endloop
   endfacet
   facet normal 1.000000e+00 0.000000e+00 -0.000000e+00
      outer loop
         vertex 3.130483e+03 1.074718e-13 8.244852e+03
         vertex 3.130483e+03 1.000000e+04 1.000000e+04
         vertex 3.130483e+03 -3.749399e-29 1.000000e+04
      endloop
   endfacet
endsolid