solid 64
   facet normal 0.000000e+00 0.000000e+00 -1.000000e+00
      outer loop
         vertex 1.000000e+04 0.000000e+00 0.000000e+00
         vertex 8.084958e+03 0.000000e+00 0.000000e+00
         vertex 8.084958e+03 2.961537e+03 0.000000e+00
      endloop
   endfacet
   facet normal 0.000000e+00 0.000000e+00 -1.000000e+00
      outer loop
         vertex -1.813418e-13 2.961537e+03 0.000000e+00
         vertex -6.123234e-13 1.000000e+04 0.000000e+00
         vertex 8.084958e+03 2.961537e+03 0.000000e+00
      endloop
   endfacet
   facet normal 0.000000e+00 0.000000e+00 -1.000000e+00
      outer loop
         vertex 8.084958e+03 2.961537e+03 0.000000e+00
         vertex -6.123234e-13 1.000000e+04 0.000000e+00
         vertex 1.000000e+04 1.000000e+04 0.000000e+00
      endloop
   endfacet
   facet normal 0.000000e+00 0.000000e+00 -1.000000e+00
      outer loop
         vertex 8.084958e+03 2.961537e+03 0.000000e+00
         vertex 1.000000e+04 1.000000e+04 0.000000e+00
         vertex 1.000000e+04 0.000000e+00 0.000000e+00
      endloop
   endfacet
   facet normal 0.000000e+00 1.000000e+00 0.000000e+00
      outer loop
         vertex 1.000000e+04 1.000000e+04 1.000000e+04
         vertex 1.000000e+04 1.000000e+04 0.000000e+00
         vertex 6.123234e-13 1.000000e+04 1.000000e+04
      endloop
   endfacet
   facet normal 0.000000e+00 1.000000e+00 0.000000e+00
      outer loop
         vertex 6.123234e-13 1.000000e+04 1.000000e+04
         vertex 1.000000e+04 1.000000e+04 0.000000e+00
         vertex -3.749399e-29 1.000000e+04 0.000000e+00
      endloop
   endfacet
   facet normal 6.123234e-17 -6.123234e-17 1.000000e+00
      outer loop
         vertex 1.000000e+04 0.000000e+00 1.000000e+04
         vertex 1.000000e+04 1.000000e+04 1.000000e+04
         vertex -3.749399e-29 0.000000e+00 1.000000e+04
      endloop
   endfacet
   facet normal 6.123234e-17 -6.123234e-17 1.000000e+00
      outer loop
         vertex -3.749399e-29 0.000000e+00 1.000000e+04
         vertex 1.000000e+04 1.000000e+04 1.000000e+04
         vertex -6.123234e-13 1.000000e+04 1.000000e+04
      endloop
   endfacet
   facet normal 6.123233e-17 -1.000000e+00 -6.123234e-17
      outer loop
         vertex 8.084958e+03 -1.172625e-13 0.000000e+00
         vertex 1.000000e+04 0.000000e+00 0.000000e+00
         vertex 8.084958e+03 -3.853890e-13 4.378838e+03
      endloop
   endfacet
   facet normal 6.123233e-17 -1.000000e+00 -6.123234e-17
      outer loop
         vertex 8.084958e+03 -3.853890e-13 4.378838e+03
         vertex 1.000000e+04 0.000000e+00 0.000000e+00
         vertex 1.000000e+04 -6.123234e-13 1.000000e+04
      endloop
   endfacet
   facet normal 6.123234e-17 -1.000000e+00 -6.123234e-17
      outer loop
         vertex 8.084958e+03 -3.853890e-13 4.378838e+03
         vertex 1.000000e+04 -6.123234e-13 1.000000e+04
         vertex 2.681265e-13 -8.804499e-13 4.378838e+03
      endloop
   endfacet
   facet normal 6.123234e-17 -1.000000e+00 -6.123234e-17
      outer loop
         vertex 2.681265e-13 -8.804499e-13 4.378838e+03
         vertex 1.000000e+04 -6.123234e-13 1.000000e+04
         vertex 6.123234e-13 -1.224647e-12 1.000000e+04
      endloop
   endfacet
   facet normal 1.000000e+00 0.000000e+00 -0.000000e+00
      outer loop
         vertex 1.000000e+04 6.681488e+03 8.376554e+03
         vertex 1.000000e+04 1.000000e+04 1.000000e+04
         vertex 1.000000e+04 2.929328e+03 8.376554e+03
      endloop
   endfacet
   facet normal 1.000000e+00 0.000000e+00 -0.000000e+00
      outer loop
         vertex 1.000000e+04 2.929328e+03 8.376554e+03
         vertex 1.000000e+04 1.000000e+04 1.000000e+04
         vertex 1.000000e+04 0.000000e+00 1.000000e+04
      endloop
   endfacet
   facet normal 1.000000e+00 0.000000e+00 0.000000e+00
      outer loop
         vertex 1.000000e+04 2.929328e+03 8.376554e+03
         vertex 1.000000e+04 0.000000e+00 1.000000e+04
         vertex 1.000000e+04 2.929328e+03 4.914385e+03
      endloop
   endfacet
   facet normal 1.000000e+00 0.000000e+00 0.000000e+00
      outer loop
         vertex 1.000000e+04 2.929328e+03 4.914385e+03
         vertex 1.000000e+04 0.000000e+00 1.000000e+04
         vertex 1.000000e+04 0.000000e+00 0.000000e+00
      endloop
   endfacet
   facet normal 1.000000e+00 -0.000000e+00 0.000000e+00
      outer loop
         vertex 1.000000e+04 2.929328e+03 4.914385e+03
         vertex 1.000000e+04 0.000000e+00 0.000000e+00
         vertex 1.000000e+04 6.681488e+03 4.914385e+03
      endloop
   endfacet
   facet normal 1.000000e+00 0.000000e+00 0.000000e+00
      outer loop
         vertex 1.000000e+04 6.681488e+03 4.914385e+03
         vertex 1.000000e+04 0.000000e+00 0.000000e+00
         vertex 1.000000e+04 1.000000e+04 0.000000e+00
      endloop
   endfacet
   facet normal 1.000000e+00 -0.000000e+00 0.000000e+00
      outer loop
         vertex 1.000000e+04 6.681488e+03 4.914385e+03
         vertex 1.000000e+04 1.000000e+04 0.000000e+00
         vertex 1.000000e+04 6.681488e+03 8.376554e+03
      endloop
   endfacet
   facet normal 1.000000e+00 -0.000000e+00 0.000000e+00
      outer loop
         vertex 1.000000e+04 6.681488e+03 8.376554e+03
         vertex 1.000000e+04 1.000000e+04 0.000000e+00
         vertex 1.000000e+04 1.000000e+04 1.000000e+04
      endloop
   endfacet
   facet normal -1.000000e+00 -6.123233e-17 6.123234e-17
      outer loop
         vertex 8.804499e-13 0.000000e+00 4.378838e+03
         vertex 1.224647e-12 0.000000e+00 1.000000e+04
         vertex 6.991081e-13 2.961537e+03 4.378838e+03
      endloop
   endfacet
   facet normal -1.000000e+00 -6.123234e-17 6.123233e-17
      outer loop
         vertex 6.991081e-13 2.961537e+03 4.378838e+03
         vertex 1.224647e-12 0.000000e+00 1.000000e+04
         vertex 6.123234e-13 1.000000e+04 1.000000e+04
      endloop
   endfacet
   facet normal -1.000000e+00 -6.123235e-17 6.123235e-17
      outer loop
         vertex 6.991081e-13 2.961537e+03 4.378838e+03
         vertex 6.123234e-13 1.000000e+04 1.000000e+04
         vertex 4.309816e-13 2.961537e+03 0.000000e+00
      endloop
   endfacet
   facet normal -1.000000e+00 -6.123234e-17 6.123234e-17
      outer loop
         vertex 4.309816e-13 2.961537e+03 0.000000e+00
         vertex 6.123234e-13 1.000000e+04 1.000000e+04
         vertex 0.000000e+00 1.000000e+04 0.000000e+00
      endloop
   endfacet
   facet normal 0.000000e+00 -1.000000e+00 0.000000e+00
      outer loop
         vertex 8.084958e+03 2.961537e+03 0.000000e+00
         vertex 8.084958e+03 2.961537e+03 4.378838e+03
         vertex -3.031374e-29 2.961537e+03 0.000000e+00
      endloop
   endfacet
   facet normal 0.000000e+00 -1.000000e+00 0.000000e+00
      outer loop
         vertex -3.031374e-29 2.961537e+03 0.000000e+00
         vertex 8.084958e+03 2.961537e+03 4.378838e+03
         vertex 2.681265e-13 2.961537e+03 4.378838e+03
      endloop
   endfacet
   facet normal -0.000000e+00 -0.000000e+00 -1.000000e+00
      outer loop
         vertex 8.084958e+03 2.961537e+03 4.378838e+03
         vertex 8.084958e+03 0.000000e+00 4.378838e+03
         vertex -1.813418e-13 2.961537e+03 4.378838e+03
      endloop
   endfacet
   facet normal 0.000000e+00 0.000000e+00 -1.000000e+00
      outer loop
         vertex -1.813418e-13 2.961537e+03 4.378838e+03
         vertex 8.084958e+03 0.000000e+00 4.378838e+03
         vertex -3.031374e-29 9.860761e-29 4.378838e+03
      endloop
   endfacet
   facet normal -1.000000e+00 0.000000e+00 0.000000e+00
      outer loop
         vertex 8.084958e+03 0.000000e+00 4.378838e+03
         vertex 8.084958e+03 2.961537e+03 4.378838e+03
         vertex 8.084958e+03 0.000000e+00 0.000000e+00
      endloop
   endfacet
   facet normal -1.000000e+00 0.000000e+00 0.000000e+00
      outer loop
         vertex 8.084958e+03 0.000000e+00 0.000000e+00
         vertex 8.084958e+03 2.961537e+03 4.378838e+03
         vertex 8.084958e+03 2.961537e+03 0.000000e+00
      endloop
   endfacet
   facet normal 0.000000e+00 -1.000000e+00 0.000000e+00
      outer loop
         vertex 5.180464e+03 6.681488e+03 8.376554e+03
         vertex 5.180464e+03 6.681488e+03 4.914385e+03
         vertex 1.000000e+04 6.681488e+03 8.376554e+03
      endloop
   endfacet
   facet normal 0.000000e+00 -1.000000e+00 -0.000000e+00
      outer loop
         vertex 1.000000e+04 6.681488e+03 8.376554e+03
         vertex 5.180464e+03 6.681488e+03 4.914385e+03
         vertex 1.000000e+04 6.681488e+03 4.914385e+03
      endloop
   endfacet
   facet normal -0.000000e+00 0.000000e+00 1.000000e+00
      outer loop
         vertex 5.180464e+03 6.681488e+03 4.914385e+03
         vertex 5.180464e+03 2.929328e+03 4.914385e+03
         vertex 1.000000e+04 6.681488e+03 4.914385e+03
      endloop
   endfacet
   facet normal 0.000000e+00 0.000000e+00 1.000000e+00
      outer loop
         vertex 1.000000e+04 6.681488e+03 4.914385e+03
         vertex 5.180464e+03 2.929328e+03 4.914385e+03
         vertex 1.000000e+04 2.929328e+03 4.914385e+03
      endloop
   endfacet
   facet normal 0.000000e+00 1.000000e+00 0.000000e+00
      outer loop
         vertex 5.180464e+03 2.929328e+03 4.914385e+03
         vertex 5.180464e+03 2.929328e+03 8.376554e+03
         vertex 1.000000e+04 2.929328e+03 4.914385e+03
      endloop
   endfacet
   facet normal 0.000000e+00 1.000000e+00 -0.000000e+00
      outer loop
         vertex 1.000000e+04 2.929328e+03 4.914385e+03
         vertex 5.180464e+03 2.929328e+03 8.376554e+03
         vertex 1.000000e+04 2.929328e+03 8.376554e+03
      endloop
   endfacet
   facet normal 0.000000e+00 0.000000e+00 -1.000000e+00
      outer loop
         vertex 5.180464e+03 2.929328e+03 8.376554e+03
         vertex 5.180464e+03 6.681488e+03 8.376554e+03
         vertex 1.000000e+04 2.929328e+03 8.376554e+03
      endloop
   endfacet
   facet normal 0.000000e+00 0.000000e+00 -1.000000e+00
      outer loop
         vertex 1.000000e+04 2.929328e+03 8.376554e+03
         vertex 5.180464e+03 6.681488e+03 8.376554e+03
         vertex 1.000000e+04 6.681488e+03 8.376554e+03
      endloop
   endfacet
   facet normal 1.000000e+00 -0.000000e+00 0.000000e+00
      outer loop
         vertex 5.180464e+03 2.929328e+03 8.376554e+03
         vertex 5.180464e+03 2.929328e+03 4.914385e+03
         vertex 5.180464e+03 6.681488e+03 8.376554e+03
      endloop
   endfacet
   facet normal 1.000000e+00 0.000000e+00 0.000000e+00
      outer loop
         vertex 5.180464e+03 6.681488e+03 8.376554e+03
         vertex 5.180464e+03 2.929328e+03 4.914385e+03
         vertex 5.180464e+03 6.681488e+03 4.914385e+03
      endloop
   endfacet
endsolid