solid 65
   facet normal -1.000000e+00 -6.123232e-17 -0.000000e+00
      outer loop
         vertex 1.124625e-13 8.163348e+03 1.000000e+04
         vertex 0.000000e+00 1.000000e+04 1.000000e+04
         vertex 1.124625e-13 8.163348e+03 7.075071e+03
      endloop
   endfacet
   facet normal -1.000000e+00 -6.123232e-17 5.368879e-33
      outer loop
         vertex 1.124625e-13 8.163348e+03 7.075071e+03
         vertex 0.000000e+00 1.000000e+04 1.000000e+04
         vertex -3.749399e-29 1.000000e+04 0.000000e+00
      endloop
   endfacet
   facet normal -1.000000e+00 -6.123234e-17 -5.294108e-24
      outer loop
         vertex 1.124625e-13 8.163348e+03 7.075071e+03
         vertex -3.749399e-29 1.000000e+04 0.000000e+00
         vertex 6.123234e-13 0.000000e+00 7.075071e+03
      endloop
   endfacet
   facet normal -1.000000e+00 -6.123234e-17 -0.000000e+00
      outer loop
         vertex 6.123234e-13 0.000000e+00 7.075071e+03
         vertex -3.749399e-29 1.000000e+04 0.000000e+00
         vertex 6.123234e-13 0.000000e+00 0.000000e+00
      endloop
   endfacet
   facet normal 6.123232e-17 -1.000000e+00 6.123234e-17
      outer loop
         vertex 4.162608e+02 -1.517886e-13 7.104843e+03
         vertex 1.096673e-29 -1.791002e-13 7.075071e+03
         vertex 3.749399e-29 -6.123234e-13 0.000000e+00
      endloop
   endfacet
   facet normal 6.123234e-17 -1.000000e+00 6.123234e-17
      outer loop
         vertex 2.660609e+03 8.851437e-14 8.784941e+03
         vertex 1.000000e+04 0.000000e+00 0.000000e+00
         vertex 2.806449e+03 1.213870e-13 9.175952e+03
      endloop
   endfacet
   facet normal 6.123234e-17 -1.000000e+00 6.123234e-17
      outer loop
         vertex 2.806449e+03 1.213870e-13 9.175952e+03
         vertex 1.000000e+04 0.000000e+00 0.000000e+00
         vertex 1.000000e+04 6.123234e-13 1.000000e+04
      endloop
   endfacet
   facet normal 6.123234e-17 -1.000000e+00 6.123235e-17
      outer loop
         vertex 2.806449e+03 1.213870e-13 9.175952e+03
         vertex 1.000000e+04 6.123234e-13 1.000000e+04
         vertex 2.895157e+03 1.517886e-13 9.583739e+03
      endloop
   endfacet
   facet normal 6.123234e-17 -1.000000e+00 6.123232e-17
      outer loop
         vertex 2.895157e+03 1.517886e-13 9.583739e+03
         vertex 1.000000e+04 6.123234e-13 1.000000e+04
         vertex 2.924929e+03 1.791002e-13 1.000000e+04
      endloop
   endfacet
   facet normal 6.123232e-17 -1.000000e+00 6.123232e-17
      outer loop
         vertex 2.660609e+03 8.851437e-14 8.784941e+03
         vertex 2.460607e+03 5.383981e-14 8.418664e+03
         vertex 1.000000e+04 0.000000e+00 0.000000e+00
      endloop
   endfacet
   facet normal 6.123234e-17 -1.000000e+00 6.123234e-17
      outer loop
         vertex 1.000000e+04 0.000000e+00 0.000000e+00
         vertex 2.460607e+03 5.383981e-14 8.418664e+03
         vertex 2.210514e+03 1.806921e-14 8.084579e+03
      endloop
   endfacet
   facet normal 6.123236e-17 -1.000000e+00 6.123236e-17
      outer loop
         vertex 1.000000e+04 0.000000e+00 0.000000e+00
         vertex 2.210514e+03 1.806921e-14 8.084579e+03
         vertex 1.915421e+03 -1.806921e-14 7.789486e+03
      endloop
   endfacet
   facet normal 6.123234e-17 -1.000000e+00 6.123234e-17
      outer loop
         vertex 1.915421e+03 -1.806921e-14 7.789486e+03
         vertex 1.581336e+03 -5.383981e-14 7.539393e+03
         vertex 1.000000e+04 0.000000e+00 0.000000e+00
      endloop
   endfacet
   facet normal 6.123232e-17 -1.000000e+00 6.123232e-17
      outer loop
         vertex 1.000000e+04 0.000000e+00 0.000000e+00
         vertex 1.581336e+03 -5.383981e-14 7.539393e+03
         vertex 1.215059e+03 -8.851437e-14 7.339391e+03
      endloop
   endfacet
   facet normal 6.123234e-17 -1.000000e+00 6.123234e-17
      outer loop
         vertex 1.000000e+04 0.000000e+00 0.000000e+00
         vertex 1.215059e+03 -8.851437e-14 7.339391e+03
         vertex 3.749399e-29 -6.123234e-13 0.000000e+00
      endloop
   endfacet
   facet normal 6.123234e-17 -1.000000e+00 6.123234e-17
      outer loop
         vertex 3.749399e-29 -6.123234e-13 0.000000e+00
         vertex 1.215059e+03 -8.851437e-14 7.339391e+03
         vertex 8.240477e+02 -1.213870e-13 7.193551e+03
      endloop
   endfacet
   facet normal 6.123235e-17 -1.000000e+00 6.123234e-17
      outer loop
         vertex 3.749399e-29 -6.123234e-13 0.000000e+00
         vertex 8.240477e+02 -1.213870e-13 7.193551e+03
         vertex 4.162608e+02 -1.517886e-13 7.104843e+03
      endloop
   endfacet
   facet normal 1.000000e+00 0.000000e+00 0.000000e+00
      outer loop
         vertex 1.000000e+04 1.000000e+04 1.000000e+04
         vertex 1.000000e+04 0.000000e+00 1.000000e+04
         vertex 1.000000e+04 1.000000e+04 0.000000e+00
      endloop
   endfacet
   facet normal 1.000000e+00 0.000000e+00 0.000000e+00
      outer loop
         vertex 1.000000e+04 1.000000e+04 0.000000e+00
         vertex 1.000000e+04 0.000000e+00 1.000000e+04
         vertex 1.000000e+04 0.000000e+00 0.000000e+00
      endloop
   endfacet
   facet normal -0.000000e+00 1.000000e+00 0.000000e+00
      outer loop
         vertex 0.000000e+00 1.000000e+04 1.000000e+04
         vertex 1.000000e+04 1.000000e+04 1.000000e+04
         vertex 3.749399e-29 1.000000e+04 0.000000e+00
      endloop
   endfacet
   facet normal 0.000000e+00 1.000000e+00 0.000000e+00
      outer loop
         vertex 3.749399e-29 1.000000e+04 0.000000e+00
         vertex 1.000000e+04 1.000000e+04 1.000000e+04
         vertex 1.000000e+04 1.000000e+04 0.000000e+00
      endloop
   endfacet
   facet normal -9.516424e-26 6.123234e-17 1.000000e+00
      outer loop
         vertex 5.019243e+03 5.534920e+03 1.000000e+04
         vertex 3.476039e+03 8.207829e+03 1.000000e+04
         vertex 2.924929e+03 8.163348e+03 1.000000e+04
      endloop
   endfacet
   facet normal -0.000000e+00 6.123233e-17 1.000000e+00
      outer loop
         vertex 0.000000e+00 8.163348e+03 1.000000e+04
         vertex 2.924929e+03 8.163348e+03 1.000000e+04
         vertex 0.000000e+00 1.000000e+04 1.000000e+04
      endloop
   endfacet
   facet normal 8.890832e-25 6.123233e-17 1.000000e+00
      outer loop
         vertex 0.000000e+00 1.000000e+04 1.000000e+04
         vertex 2.924929e+03 8.163348e+03 1.000000e+04
         vertex 3.476039e+03 8.207829e+03 1.000000e+04
      endloop
   endfacet
   facet normal -0.000000e+00 6.123233e-17 1.000000e+00
      outer loop
         vertex 0.000000e+00 1.000000e+04 1.000000e+04
         vertex 3.476039e+03 8.207829e+03 1.000000e+04
         vertex 1.000000e+04 1.000000e+04 1.000000e+04
      endloop
   endfacet
   facet normal 0.000000e+00 6.123233e-17 1.000000e+00
      outer loop
         vertex 1.000000e+04 1.000000e+04 1.000000e+04
         vertex 3.476039e+03 8.207829e+03 1.000000e+04
         vertex 6.562448e+03 8.207829e+03 1.000000e+04
      endloop
   endfacet
   facet normal -5.083524e-24 6.123234e-17 1.000000e+00
      outer loop
         vertex 1.000000e+04 1.000000e+04 1.000000e+04
         vertex 6.562448e+03 8.207829e+03 1.000000e+04
         vertex 1.000000e+04 0.000000e+00 1.000000e+04
      endloop
   endfacet
   facet normal 2.102517e-24 6.123234e-17 1.000000e+00
      outer loop
         vertex 1.000000e+04 0.000000e+00 1.000000e+04
         vertex 6.562448e+03 8.207829e+03 1.000000e+04
         vertex 5.019243e+03 5.534920e+03 1.000000e+04
      endloop
   endfacet
   facet normal 0.000000e+00 6.123234e-17 1.000000e+00
      outer loop
         vertex 1.000000e+04 0.000000e+00 1.000000e+04
         vertex 5.019243e+03 5.534920e+03 1.000000e+04
         vertex 2.924929e+03 0.000000e+00 1.000000e+04
      endloop
   endfacet
   facet normal -2.660694e-24 6.123234e-17 1.000000e+00
      outer loop
         vertex 2.924929e+03 0.000000e+00 1.000000e+04
         vertex 5.019243e+03 5.534920e+03 1.000000e+04
         vertex 2.924929e+03 8.163348e+03 1.000000e+04
      endloop
   endfacet
   facet normal 0.000000e+00 -0.000000e+00 -1.000000e+00
      outer loop
         vertex 1.000000e+04 1.000000e+04 0.000000e+00
         vertex 1.000000e+04 0.000000e+00 0.000000e+00
         vertex 5.019243e+03 5.534920e+03 0.000000e+00
      endloop
   endfacet
   facet normal 0.000000e+00 -0.000000e+00 -1.000000e+00
      outer loop
         vertex 5.019243e+03 5.534920e+03 0.000000e+00
         vertex 1.000000e+04 0.000000e+00 0.000000e+00
         vertex 0.000000e+00 0.000000e+00 0.000000e+00
      endloop
   endfacet
   facet normal -0.000000e+00 0.000000e+00 -1.000000e+00
      outer loop
         vertex 5.019243e+03 5.534920e+03 0.000000e+00
         vertex 0.000000e+00 0.000000e+00 0.000000e+00
         vertex 3.476039e+03 8.207829e+03 0.000000e+00
      endloop
   endfacet
   facet normal -0.000000e+00 0.000000e+00 -1.000000e+00
      outer loop
         vertex 3.476039e+03 8.207829e+03 0.000000e+00
         vertex 0.000000e+00 0.000000e+00 0.000000e+00
         vertex 0.000000e+00 1.000000e+04 0.000000e+00
      endloop
   endfacet
   facet normal 0.000000e+00 0.000000e+00 -1.000000e+00
      outer loop
         vertex 3.476039e+03 8.207829e+03 0.000000e+00
         vertex 0.000000e+00 1.000000e+04 0.000000e+00
         vertex 6.562448e+03 8.207829e+03 0.000000e+00
      endloop
   endfacet
   facet normal 0.000000e+00 0.000000e+00 -1.000000e+00
      outer loop
         vertex 6.562448e+03 8.207829e+03 0.000000e+00
         vertex 0.000000e+00 1.000000e+04 0.000000e+00
         vertex 1.000000e+04 1.000000e+04 0.000000e+00
      endloop
   endfacet
   facet normal 0.000000e+00 -0.000000e+00 -1.000000e+00
      outer loop
         vertex 6.562448e+03 8.207829e+03 0.000000e+00
         vertex 1.000000e+04 1.000000e+04 0.000000e+00
         vertex 5.019243e+03 5.534920e+03 0.000000e+00
      endloop
   endfacet
   facet normal -8.660254e-01 5.000000e-01 0.000000e+00
      outer loop
         vertex 5.019243e+03 5.534920e+03 1.000000e+04
         vertex 6.562448e+03 8.207829e+03 1.000000e+04
         vertex 5.019243e+03 5.534920e+03 0.000000e+00
      endloop
   endfacet
   facet normal -8.660254e-01 5.000000e-01 0.000000e+00
      outer loop
         vertex 5.019243e+03 5.534920e+03 0.000000e+00
         vertex 6.562448e+03 8.207829e+03 1.000000e+04
         vertex 6.562448e+03 8.207829e+03 0.000000e+00
      endloop
   endfacet
   facet normal 0.000000e+00 -1.000000e+00 -0.000000e+00
      outer loop
         vertex 6.562448e+03 8.207829e+03 1.000000e+04
         vertex 3.476039e+03 8.207829e+03 1.000000e+04
         vertex 6.562448e+03 8.207829e+03 0.000000e+00
      endloop
   endfacet
   facet normal 0.000000e+00 -1.000000e+00 0.000000e+00
      outer loop
         vertex 6.562448e+03 8.207829e+03 0.000000e+00
         vertex 3.476039e+03 8.207829e+03 1.000000e+04
         vertex 3.476039e+03 8.207829e+03 0.000000e+00
      endloop
   endfacet
   facet normal 8.660254e-01 5.000000e-01 0.000000e+00
      outer loop
         vertex 3.476039e+03 8.207829e+03 1.000000e+04
         vertex 5.019243e+03 5.534920e+03 1.000000e+04
         vertex 3.476039e+03 8.207829e+03 0.000000e+00
      endloop
   endfacet
   facet normal 8.660254e-01 5.000000e-01 0.000000e+00
      outer loop
         vertex 3.476039e+03 8.207829e+03 0.000000e+00
         vertex 5.019243e+03 5.534920e+03 1.000000e+04
         vertex 5.019243e+03 5.534920e+03 0.000000e+00
      endloop
   endfacet
   facet normal -7.133920e-02 -4.368267e-18 9.974521e-01
      outer loop
         vertex 1.791002e-13 8.163348e+03 7.075071e+03
         vertex 6.789612e-13 0.000000e+00 7.075071e+03
         vertex 4.162608e+02 8.163348e+03 7.104843e+03
      endloop
   endfacet
   facet normal -7.133920e-02 0.000000e+00 9.974521e-01
      outer loop
         vertex 4.162608e+02 8.163348e+03 7.104843e+03
         vertex 6.789612e-13 0.000000e+00 7.075071e+03
         vertex 4.162608e+02 0.000000e+00 7.104843e+03
      endloop
   endfacet
   facet normal -2.125654e-01 0.000000e+00 9.771469e-01
      outer loop
         vertex 4.162608e+02 8.163348e+03 7.104843e+03
         vertex 4.162608e+02 0.000000e+00 7.104843e+03
         vertex 8.240477e+02 8.163348e+03 7.193551e+03
      endloop
   endfacet
   facet normal -2.125654e-01 0.000000e+00 9.771469e-01
      outer loop
         vertex 8.240477e+02 8.163348e+03 7.193551e+03
         vertex 4.162608e+02 0.000000e+00 7.104843e+03
         vertex 8.240477e+02 0.000000e+00 7.193551e+03
      endloop
   endfacet
   facet normal -3.494645e-01 0.000000e+00 9.369496e-01
      outer loop
         vertex 8.240477e+02 8.163348e+03 7.193551e+03
         vertex 8.240477e+02 0.000000e+00 7.193551e+03
         vertex 1.215059e+03 8.163348e+03 7.339391e+03
      endloop
   endfacet
   facet normal -3.494645e-01 0.000000e+00 9.369496e-01
      outer loop
         vertex 1.215059e+03 8.163348e+03 7.339391e+03
         vertex 8.240477e+02 0.000000e+00 7.193551e+03
         vertex 1.215059e+03 0.000000e+00 7.339391e+03
      endloop
   endfacet
   facet normal -4.792490e-01 0.000000e+00 8.776790e-01
      outer loop
         vertex 1.215059e+03 8.163348e+03 7.339391e+03
         vertex 1.215059e+03 0.000000e+00 7.339391e+03
         vertex 1.581336e+03 8.163348e+03 7.539393e+03
      endloop
   endfacet
   facet normal -4.792490e-01 0.000000e+00 8.776790e-01
      outer loop
         vertex 1.581336e+03 8.163348e+03 7.539393e+03
         vertex 1.215059e+03 0.000000e+00 7.339391e+03
         vertex 1.581336e+03 0.000000e+00 7.539393e+03
      endloop
   endfacet
   facet normal -5.992777e-01 0.000000e+00 8.005412e-01
      outer loop
         vertex 1.581336e+03 8.163348e+03 7.539393e+03
         vertex 1.581336e+03 0.000000e+00 7.539393e+03
         vertex 1.915421e+03 8.163348e+03 7.789486e+03
      endloop
   endfacet
   facet normal -5.992777e-01 0.000000e+00 8.005412e-01
      outer loop
         vertex 1.915421e+03 8.163348e+03 7.789486e+03
         vertex 1.581336e+03 0.000000e+00 7.539393e+03
         vertex 1.915421e+03 0.000000e+00 7.789486e+03
      endloop
   endfacet
   facet normal -7.071068e-01 0.000000e+00 7.071068e-01
      outer loop
         vertex 1.915421e+03 8.163348e+03 7.789486e+03
         vertex 1.915421e+03 0.000000e+00 7.789486e+03
         vertex 2.210514e+03 8.163348e+03 8.084579e+03
      endloop
   endfacet
   facet normal -7.071068e-01 0.000000e+00 7.071068e-01
      outer loop
         vertex 2.210514e+03 8.163348e+03 8.084579e+03
         vertex 1.915421e+03 0.000000e+00 7.789486e+03
         vertex 2.210514e+03 0.000000e+00 8.084579e+03
      endloop
   endfacet
   facet normal -8.005412e-01 0.000000e+00 5.992777e-01
      outer loop
         vertex 2.210514e+03 8.163348e+03 8.084579e+03
         vertex 2.210514e+03 0.000000e+00 8.084579e+03
         vertex 2.460607e+03 8.163348e+03 8.418664e+03
      endloop
   endfacet
   facet normal -8.005412e-01 0.000000e+00 5.992777e-01
      outer loop
         vertex 2.460607e+03 8.163348e+03 8.418664e+03
         vertex 2.210514e+03 0.000000e+00 8.084579e+03
         vertex 2.460607e+03 0.000000e+00 8.418664e+03
      endloop
   endfacet
   facet normal -8.776790e-01 0.000000e+00 4.792490e-01
      outer loop
         vertex 2.460607e+03 8.163348e+03 8.418664e+03
         vertex 2.460607e+03 0.000000e+00 8.418664e+03
         vertex 2.660609e+03 8.163348e+03 8.784941e+03
      endloop
   endfacet
   facet normal -8.776790e-01 0.000000e+00 4.792490e-01
      outer loop
         vertex 2.660609e+03 8.163348e+03 8.784941e+03
         vertex 2.460607e+03 0.000000e+00 8.418664e+03
         vertex 2.660609e+03 0.000000e+00 8.784941e+03
      endloop
   endfacet
   facet normal -9.369496e-01 0.000000e+00 3.494645e-01
      outer loop
         vertex 2.660609e+03 8.163348e+03 8.784941e+03
         vertex 2.660609e+03 0.000000e+00 8.784941e+03
         vertex 2.806449e+03 8.163348e+03 9.175952e+03
      endloop
   endfacet
   facet normal -9.369496e-01 0.000000e+00 3.494645e-01
      outer loop
         vertex 2.806449e+03 8.163348e+03 9.175952e+03
         vertex 2.660609e+03 0.000000e+00 8.784941e+03
         vertex 2.806449e+03 0.000000e+00 9.175952e+03
      endloop
   endfacet
   facet normal -9.771469e-01 0.000000e+00 2.125654e-01
      outer loop
         vertex 2.806449e+03 8.163348e+03 9.175952e+03
         vertex 2.806449e+03 0.000000e+00 9.175952e+03
         vertex 2.895157e+03 8.163348e+03 9.583739e+03
      endloop
   endfacet
   facet normal -9.771469e-01 0.000000e+00 2.125654e-01
      outer loop
         vertex 2.895157e+03 8.163348e+03 9.583739e+03
         vertex 2.806449e+03 0.000000e+00 9.175952e+03
         vertex 2.895157e+03 0.000000e+00 9.583739e+03
      endloop
   endfacet
   facet normal -9.974521e-01 0.000000e+00 7.133920e-02
      outer loop
         vertex 2.895157e+03 8.163348e+03 9.583739e+03
         vertex 2.895157e+03 0.000000e+00 9.583739e+03
         vertex 2.924929e+03 8.163348e+03 1.000000e+04
      endloop
   endfacet
   facet normal -9.974521e-01 0.000000e+00 7.133920e-02
      outer loop
         vertex 2.924929e+03 8.163348e+03 1.000000e+04
         vertex 2.895157e+03 0.000000e+00 9.583739e+03
         vertex 2.924929e+03 0.000000e+00 1.000000e+04
      endloop
   endfacet
   facet normal 0.000000e+00 -1.000000e+00 0.000000e+00
      outer loop
         vertex 2.895157e+03 8.163348e+03 9.583739e+03
         vertex 2.924929e+03 8.163348e+03 1.000000e+04
         vertex 0.000000e+00 8.163348e+03 1.000000e+04
      endloop
   endfacet
   facet normal 0.000000e+00 -1.000000e+00 0.000000e+00
      outer loop
         vertex 0.000000e+00 8.163348e+03 1.000000e+04
         vertex 0.000000e+00 8.163348e+03 7.075071e+03
         vertex 4.162608e+02 8.163348e+03 7.104843e+03
      endloop
   endfacet
   facet normal 0.000000e+00 -1.000000e+00 0.000000e+00
      outer loop
         vertex 4.162608e+02 8.163348e+03 7.104843e+03
         vertex 8.240477e+02 8.163348e+03 7.193551e+03
         vertex 0.000000e+00 8.163348e+03 1.000000e+04
      endloop
   endfacet
   facet normal 0.000000e+00 -1.000000e+00 0.000000e+00
      outer loop
         vertex 0.000000e+00 8.163348e+03 1.000000e+04
         vertex 8.240477e+02 8.163348e+03 7.193551e+03
         vertex 1.215059e+03 8.163348e+03 7.339391e+03
      endloop
   endfacet
   facet normal 0.000000e+00 -1.000000e+00 0.000000e+00
      outer loop
         vertex 0.000000e+00 8.163348e+03 1.000000e+04
         vertex 1.215059e+03 8.163348e+03 7.339391e+03
         vertex 1.581336e+03 8.163348e+03 7.539393e+03
      endloop
   endfacet
   facet normal 0.000000e+00 -1.000000e+00 0.000000e+00
      outer loop
         vertex 1.581336e+03 8.163348e+03 7.539393e+03
         vertex 1.915421e+03 8.163348e+03 7.789486e+03
         vertex 0.000000e+00 8.163348e+03 1.000000e+04
      endloop
   endfacet
   facet normal 0.000000e+00 -1.000000e+00 0.000000e+00
      outer loop
         vertex 0.000000e+00 8.163348e+03 1.000000e+04
         vertex 1.915421e+03 8.163348e+03 7.789486e+03
         vertex 2.210514e+03 8.163348e+03 8.084579e+03
      endloop
   endfacet
   facet normal 0.000000e+00 -1.000000e+00 0.000000e+00
      outer loop
         vertex 0.000000e+00 8.163348e+03 1.000000e+04
         vertex 2.210514e+03 8.163348e+03 8.084579e+03
         vertex 2.460607e+03 8.163348e+03 8.418664e+03
      endloop
   endfacet
   facet normal 0.000000e+00 -1.000000e+00 0.000000e+00
      outer loop
         vertex 2.460607e+03 8.163348e+03 8.418664e+03
         vertex 2.660609e+03 8.163348e+03 8.784941e+03
         vertex 0.000000e+00 8.163348e+03 1.000000e+04
      endloop
   endfacet
   facet normal 0.000000e+00 -1.000000e+00 0.000000e+00
      outer loop
         vertex 0.000000e+00 8.163348e+03 1.000000e+04
         vertex 2.660609e+03 8.163348e+03 8.784941e+03
         vertex 2.806449e+03 8.163348e+03 9.175952e+03
      endloop
   endfacet
   facet normal 0.000000e+00 -1.000000e+00 0.000000e+00
      outer loop
         vertex 0.000000e+00 8.163348e+03 1.000000e+04
         vertex 2.806449e+03 8.163348e+03 9.175952e+03
         vertex 2.895157e+03 8.163348e+03 9.583739e+03
      endloop
   endfacet
endsolid