solid 66
   facet normal -6.123234e-17 -1.000000e+00 2.004349e-32
      outer loop
         vertex 1.000000e+04 1.480360e-29 3.948258e+03
         vertex 1.000000e+04 1.361016e-28 1.000000e+04
         vertex 6.828809e+03 1.941795e-13 3.948258e+03
      endloop
   endfacet
   facet normal -6.123234e-17 -1.000000e+00 1.653248e-25
      outer loop
         vertex 6.828809e+03 1.941795e-13 3.948258e+03
         vertex 1.000000e+04 1.361016e-28 1.000000e+04
         vertex 0.000000e+00 6.123234e-13 1.000000e+04
      endloop
   endfacet
   facet normal -6.123234e-17 -1.000000e+00 -0.000000e+00
      outer loop
         vertex 6.828809e+03 1.941795e-13 3.948258e+03
         vertex 0.000000e+00 6.123234e-13 1.000000e+04
         vertex 6.828809e+03 1.941795e-13 0.000000e+00
      endloop
   endfacet
   facet normal -6.123234e-17 -1.000000e+00 0.000000e+00
      outer loop
         vertex 6.828809e+03 1.941795e-13 0.000000e+00
         vertex 0.000000e+00 6.123234e-13 1.000000e+04
         vertex 0.000000e+00 6.123234e-13 0.000000e+00
      endloop
   endfacet
   facet normal -6.123234e-17 0.000000e+00 1.000000e+00
      outer loop
         vertex 8.640440e+03 1.000000e+04 1.000000e+04
         vertex 0.000000e+00 1.000000e+04 1.000000e+04
         vertex 8.640440e+03 8.235753e+03 1.000000e+04
      endloop
   endfacet
   facet normal -6.123234e-17 0.000000e+00 1.000000e+00
      outer loop
         vertex 8.640440e+03 8.235753e+03 1.000000e+04
         vertex 0.000000e+00 1.000000e+04 1.000000e+04
         vertex 0.000000e+00 6.123234e-13 1.000000e+04
      endloop
   endfacet
   facet normal -6.123234e-17 3.664343e-24 1.000000e+00
      outer loop
         vertex 8.640440e+03 8.235753e+03 1.000000e+04
         vertex 0.000000e+00 6.123234e-13 1.000000e+04
         vertex 1.000000e+04 8.235753e+03 1.000000e+04
      endloop
   endfacet
   facet normal -6.123234e-17 0.000000e+00 1.000000e+00
      outer loop
         vertex 1.000000e+04 8.235753e+03 1.000000e+04
         vertex 0.000000e+00 6.123234e-13 1.000000e+04
         vertex 1.000000e+04 9.860761e-29 1.000000e+04
      endloop
   endfacet
   facet normal 0.000000e+00 1.000000e+00 0.000000e+00
      outer loop
         vertex 1.000000e+04 1.000000e+04 6.254314e+03
         vertex 1.000000e+04 1.000000e+04 3.948258e+03
         vertex 8.640440e+03 1.000000e+04 6.254314e+03
      endloop
   endfacet
   facet normal 0.000000e+00 1.000000e+00 0.000000e+00
      outer loop
         vertex 8.640440e+03 1.000000e+04 6.254314e+03
         vertex 1.000000e+04 1.000000e+04 3.948258e+03
         vertex 6.828809e+03 1.000000e+04 3.948258e+03
      endloop
   endfacet
   facet normal 0.000000e+00 1.000000e+00 -0.000000e+00
      outer loop
         vertex 6.828809e+03 1.000000e+04 0.000000e+00
         vertex 0.000000e+00 1.000000e+04 0.000000e+00
         vertex 6.828809e+03 1.000000e+04 3.948258e+03
      endloop
   endfacet
   facet normal 0.000000e+00 1.000000e+00 0.000000e+00
      outer loop
         vertex 6.828809e+03 1.000000e+04 3.948258e+03
         vertex 0.000000e+00 1.000000e+04 0.000000e+00
         vertex 0.000000e+00 1.000000e+04 1.000000e+04
      endloop
   endfacet
   facet normal 0.000000e+00 1.000000e+00 -0.000000e+00
      outer loop
         vertex 6.828809e+03 1.000000e+04 3.948258e+03
         vertex 0.000000e+00 1.000000e+04 1.000000e+04
         vertex 8.640440e+03 1.000000e+04 6.254314e+03
      endloop
   endfacet
   facet normal 0.000000e+00 1.000000e+00 -0.000000e+00
      outer loop
         vertex 8.640440e+03 1.000000e+04 6.254314e+03
         vertex 0.000000e+00 1.000000e+04 1.000000e+04
         vertex 8.640440e+03 1.000000e+04 1.000000e+04
      endloop
   endfacet
   facet normal 0.000000e+00 0.000000e+00 -1.000000e+00
      outer loop
         vertex 0.000000e+00 6.123234e-13 0.000000e+00
         vertex 0.000000e+00 1.000000e+04 0.000000e+00
         vertex 6.828809e+03 1.941795e-13 0.000000e+00
      endloop
   endfacet
   facet normal 0.000000e+00 0.000000e+00 -1.000000e+00
      outer loop
         vertex 6.828809e+03 1.941795e-13 0.000000e+00
         vertex 0.000000e+00 1.000000e+04 0.000000e+00
         vertex 6.828809e+03 1.000000e+04 0.000000e+00
      endloop
   endfacet
   facet normal -1.000000e+00 6.123234e-17 -6.123234e-17
      outer loop
         vertex 0.000000e+00 1.000000e+04 1.000000e+04
         vertex 6.123234e-13 1.000000e+04 0.000000e+00
         vertex -6.123234e-13 6.123234e-13 1.000000e+04
      endloop
   endfacet
   facet normal -1.000000e+00 6.123234e-17 -6.123234e-17
      outer loop
         vertex -6.123234e-13 6.123234e-13 1.000000e+04
         vertex 6.123234e-13 1.000000e+04 0.000000e+00
         vertex 0.000000e+00 6.123234e-13 0.000000e+00
      endloop
   endfacet
   facet normal 1.000000e+00 0.000000e+00 -0.000000e+00
      outer loop
         vertex 1.000000e+04 1.000000e+04 3.948258e+03
         vertex 1.000000e+04 1.000000e+04 6.254314e+03
         vertex 1.000000e+04 8.235753e+03 6.254314e+03
      endloop
   endfacet
   facet normal 1.000000e+00 0.000000e+00 0.000000e+00
      outer loop
         vertex 1.000000e+04 3.711498e-30 1.000000e+04
         vertex 1.000000e+04 6.710119e-29 3.948258e+03
         vertex 1.000000e+04 5.000000e+03 6.135808e+03
      endloop
   endfacet
   facet normal 1.000000e+00 0.000000e+00 0.000000e+00
      outer loop
         vertex 1.000000e+04 1.000000e+04 3.948258e+03
         vertex 1.000000e+04 8.235753e+03 6.254314e+03
         vertex 1.000000e+04 5.000000e+03 6.135808e+03
      endloop
   endfacet
   facet normal 1.000000e+00 0.000000e+00 0.000000e+00
      outer loop
         vertex 1.000000e+04 5.000000e+03 6.135808e+03
         vertex 1.000000e+04 8.235753e+03 6.254314e+03
         vertex 1.000000e+04 8.235753e+03 1.000000e+04
      endloop
   endfacet
   facet normal 1.000000e+00 0.000000e+00 -0.000000e+00
      outer loop
         vertex 1.000000e+04 5.000000e+03 6.135808e+03
         vertex 1.000000e+04 8.235753e+03 1.000000e+04
         vertex 1.000000e+04 3.711498e-30 1.000000e+04
      endloop
   endfacet
   facet normal 3.355639e-17 4.008265e-01 -9.161540e-01
      outer loop
         vertex 6.828809e+03 1.941795e-13 3.948258e+03
         vertex 6.828809e+03 5.000000e+03 6.135808e+03
         vertex 1.000000e+04 -7.130634e-14 3.948258e+03
      endloop
   endfacet
   facet normal 0.000000e+00 4.008265e-01 -9.161540e-01
      outer loop
         vertex 1.000000e+04 -7.130634e-14 3.948258e+03
         vertex 6.828809e+03 5.000000e+03 6.135808e+03
         vertex 1.000000e+04 5.000000e+03 6.135808e+03
      endloop
   endfacet
   facet normal 0.000000e+00 -4.008265e-01 -9.161540e-01
      outer loop
         vertex 6.828809e+03 5.000000e+03 6.135808e+03
         vertex 6.828809e+03 1.000000e+04 3.948258e+03
         vertex 1.000000e+04 5.000000e+03 6.135808e+03
      endloop
   endfacet
   facet normal 0.000000e+00 -4.008265e-01 -9.161540e-01
      outer loop
         vertex 1.000000e+04 5.000000e+03 6.135808e+03
         vertex 6.828809e+03 1.000000e+04 3.948258e+03
         vertex 1.000000e+04 1.000000e+04 3.948258e+03
      endloop
   endfacet
   facet normal 1.000000e+00 -0.000000e+00 0.000000e+00
      outer loop
         vertex 6.828809e+03 1.941795e-13 3.948258e+03
         vertex 6.828809e+03 1.941795e-13 0.000000e+00
         vertex 6.828809e+03 5.000000e+03 6.135808e+03
      endloop
   endfacet
   facet normal 1.000000e+00 0.000000e+00 0.000000e+00
      outer loop
         vertex 6.828809e+03 5.000000e+03 6.135808e+03
         vertex 6.828809e+03 1.941795e-13 0.000000e+00
         vertex 6.828809e+03 1.000000e+04 0.000000e+00
      endloop
   endfacet
   facet normal 1.000000e+00 0.000000e+00 0.000000e+00
      outer loop
         vertex 6.828809e+03 5.000000e+03 6.135808e+03
         vertex 6.828809e+03 1.000000e+04 0.000000e+00
         vertex 6.828809e+03 1.000000e+04 3.948258e+03
      endloop
   endfacet
   facet normal 0.000000e+00 1.000000e+00 -0.000000e+00
      outer loop
         vertex 1.000000e+04 8.235753e+03 6.254314e+03
         vertex 8.640440e+03 8.235753e+03 6.254314e+03
         vertex 1.000000e+04 8.235753e+03 1.000000e+04
      endloop
   endfacet
   facet normal 0.000000e+00 1.000000e+00 0.000000e+00
      outer loop
         vertex 1.000000e+04 8.235753e+03 1.000000e+04
         vertex 8.640440e+03 8.235753e+03 6.254314e+03
         vertex 8.640440e+03 8.235753e+03 1.000000e+04
      endloop
   endfacet
   facet normal 1.000000e+00 0.000000e+00 0.000000e+00
      outer loop
         vertex 8.640440e+03 8.235753e+03 6.254314e+03
         vertex 8.640440e+03 1.000000e+04 6.254314e+03
         vertex 8.640440e+03 8.235753e+03 1.000000e+04
      endloop
   endfacet
   facet normal 1.000000e+00 -0.000000e+00 0.000000e+00
      outer loop
         vertex 8.640440e+03 8.235753e+03 1.000000e+04
         vertex 8.640440e+03 1.000000e+04 6.254314e+03
         vertex 8.640440e+03 1.000000e+04 1.000000e+04
      endloop
   endfacet
   facet normal -0.000000e+00 0.000000e+00 1.000000e+00
      outer loop
         vertex 8.640440e+03 1.000000e+04 6.254314e+03
         vertex 8.640440e+03 8.235753e+03 6.254314e+03
         vertex 1.000000e+04 1.000000e+04 6.254314e+03
      endloop
   endfacet
   facet normal 0.000000e+00 0.000000e+00 1.000000e+00
      outer loop
         vertex 1.000000e+04 1.000000e+04 6.254314e+03
         vertex 8.640440e+03 8.235753e+03 6.254314e+03
         vertex 1.000000e+04 8.235753e+03 6.254314e+03
      endloop
   endfacet
endsolid