solid 79
   facet normal 0.000000e+00 1.000000e+00 0.000000e+00
      outer loop
         vertex 1.000000e+04 1.000000e+04 1.000000e+04
         vertex 1.000000e+04 1.000000e+04 0.000000e+00
         vertex -6.123234e-13 1.000000e+04 1.000000e+04
      endloop
   endfacet
   facet normal 0.000000e+00 1.000000e+00 0.000000e+00
      outer loop
         vertex -6.123234e-13 1.000000e+04 1.000000e+04
         vertex 1.000000e+04 1.000000e+04 0.000000e+00
         vertex -3.749399e-29 1.000000e+04 0.000000e+00
      endloop
   endfacet
   facet normal -6.123234e-17 -7.127649e-33 1.000000e+00
      outer loop
         vertex 1.000000e+04 0.000000e+00 1.000000e+04
         vertex 1.000000e+04 1.000000e+04 1.000000e+04
         vertex -6.061336e-14 0.000000e+00 1.000000e+04
      endloop
   endfacet
   facet normal -6.123234e-17 3.711498e-34 1.000000e+00
      outer loop
         vertex -6.061336e-14 0.000000e+00 1.000000e+04
         vertex 1.000000e+04 1.000000e+04 1.000000e+04
         vertex -3.374459e-28 1.000000e+04 1.000000e+04
      endloop
   endfacet
   facet normal -1.836970e-16 -1.000000e+00 2.513235e-32
      outer loop
         vertex 1.000000e+04 3.749399e-29 0.000000e+00
         vertex 1.000000e+04 2.888175e-28 1.000000e+04
         vertex -3.749399e-29 1.836970e-12 0.000000e+00
      endloop
   endfacet
   facet normal -1.836970e-16 -1.000000e+00 -1.124820e-32
      outer loop
         vertex -3.749399e-29 1.836970e-12 0.000000e+00
         vertex 1.000000e+04 2.888175e-28 1.000000e+04
         vertex -6.123234e-13 1.836970e-12 1.000000e+04
      endloop
   endfacet
   facet normal 0.000000e+00 -0.000000e+00 -1.000000e+00
      outer loop
         vertex 1.000000e+04 1.000000e+04 0.000000e+00
         vertex 1.000000e+04 8.338878e+03 0.000000e+00
         vertex 5.746406e+03 8.338878e+03 0.000000e+00
      endloop
   endfacet
   facet normal -0.000000e+00 -0.000000e+00 -1.000000e+00
      outer loop
         vertex 1.000000e+04 1.661123e+03 0.000000e+00
         vertex 1.000000e+04 0.000000e+00 0.000000e+00
         vertex 5.746406e+03 1.661123e+03 0.000000e+00
      endloop
   endfacet
   facet normal 0.000000e+00 -0.000000e+00 -1.000000e+00
      outer loop
         vertex 5.746406e+03 1.661123e+03 0.000000e+00
         vertex 1.000000e+04 0.000000e+00 0.000000e+00
         vertex -6.061336e-14 0.000000e+00 0.000000e+00
      endloop
   endfacet
   facet normal -0.000000e+00 0.000000e+00 -1.000000e+00
      outer loop
         vertex 5.746406e+03 1.661123e+03 0.000000e+00
         vertex -6.061336e-14 0.000000e+00 0.000000e+00
         vertex 5.746406e+03 8.338878e+03 0.000000e+00
      endloop
   endfacet
   facet normal -0.000000e+00 0.000000e+00 -1.000000e+00
      outer loop
         vertex 5.746406e+03 8.338878e+03 0.000000e+00
         vertex -6.061336e-14 0.000000e+00 0.000000e+00
         vertex -3.374459e-28 1.000000e+04 0.000000e+00
      endloop
   endfacet
   facet normal 0.000000e+00 0.000000e+00 -1.000000e+00
      outer loop
         vertex 5.746406e+03 8.338878e+03 0.000000e+00
         vertex -3.374459e-28 1.000000e+04 0.000000e+00
         vertex 1.000000e+04 1.000000e+04 0.000000e+00
      endloop
   endfacet
   facet normal 1.000000e+00 0.000000e+00 0.000000e+00
      outer loop
         vertex 1.000000e+04 0.000000e+00 0.000000e+00
         vertex 1.000000e+04 1.661123e+03 0.000000e+00
         vertex 1.000000e+04 1.669679e+03 9.780502e+01
      endloop
   endfacet
   facet normal 1.000000e+00 0.000000e+00 -0.000000e+00
      outer loop
         vertex 1.000000e+04 8.338878e+03 0.000000e+00
         vertex 1.000000e+04 1.000000e+04 0.000000e+00
         vertex 1.000000e+04 8.330320e+03 9.780502e+01
      endloop
   endfacet
   facet normal 1.000000e+00 -0.000000e+00 -0.000000e+00
      outer loop
         vertex 1.000000e+04 8.330320e+03 9.780502e+01
         vertex 1.000000e+04 1.000000e+04 0.000000e+00
         vertex 1.000000e+04 8.304910e+03 1.926394e+02
      endloop
   endfacet
   facet normal 1.000000e+00 -0.000000e+00 0.000000e+00
      outer loop
         vertex 1.000000e+04 7.873444e+03 5.546827e+02
         vertex 1.000000e+04 7.968277e+03 5.292721e+02
         vertex 1.000000e+04 1.000000e+04 1.000000e+04
      endloop
   endfacet
   facet normal 1.000000e+00 0.000000e+00 0.000000e+00
      outer loop
         vertex 1.000000e+04 1.000000e+04 1.000000e+04
         vertex 1.000000e+04 7.968277e+03 5.292721e+02
         vertex 1.000000e+04 8.057258e+03 4.877796e+02
      endloop
   endfacet
   facet normal 1.000000e+00 0.000000e+00 0.000000e+00
      outer loop
         vertex 1.000000e+04 1.792896e+03 3.620434e+02
         vertex 1.000000e+04 3.749399e-29 1.000000e+04
         vertex 1.000000e+04 1.736582e+03 2.816200e+02
      endloop
   endfacet
   facet normal 1.000000e+00 0.000000e+00 0.000000e+00
      outer loop
         vertex 1.000000e+04 1.736582e+03 2.816200e+02
         vertex 1.000000e+04 3.749399e-29 1.000000e+04
         vertex 1.000000e+04 0.000000e+00 0.000000e+00
      endloop
   endfacet
   facet normal 1.000000e+00 0.000000e+00 0.000000e+00
      outer loop
         vertex 1.000000e+04 1.736582e+03 2.816200e+02
         vertex 1.000000e+04 0.000000e+00 0.000000e+00
         vertex 1.000000e+04 1.695090e+03 1.926394e+02
      endloop
   endfacet
   facet normal 1.000000e+00 0.000000e+00 0.000000e+00
      outer loop
         vertex 1.000000e+04 1.695090e+03 1.926394e+02
         vertex 1.000000e+04 0.000000e+00 0.000000e+00
         vertex 1.000000e+04 1.669679e+03 9.780502e+01
      endloop
   endfacet
   facet normal 1.000000e+00 0.000000e+00 -0.000000e+00
      outer loop
         vertex 1.000000e+04 1.792896e+03 3.620434e+02
         vertex 1.000000e+04 1.862319e+03 4.314661e+02
         vertex 1.000000e+04 3.749399e-29 1.000000e+04
      endloop
   endfacet
   facet normal 1.000000e+00 0.000000e+00 0.000000e+00
      outer loop
         vertex 1.000000e+04 3.749399e-29 1.000000e+04
         vertex 1.000000e+04 1.862319e+03 4.314661e+02
         vertex 1.000000e+04 1.942742e+03 4.877796e+02
      endloop
   endfacet
   facet normal 1.000000e+00 0.000000e+00 0.000000e+00
      outer loop
         vertex 1.000000e+04 3.749399e-29 1.000000e+04
         vertex 1.000000e+04 1.942742e+03 4.877796e+02
         vertex 1.000000e+04 2.031723e+03 5.292721e+02
      endloop
   endfacet
   facet normal 1.000000e+00 -0.000000e+00 0.000000e+00
      outer loop
         vertex 1.000000e+04 8.057258e+03 4.877796e+02
         vertex 1.000000e+04 8.137681e+03 4.314661e+02
         vertex 1.000000e+04 1.000000e+04 1.000000e+04
      endloop
   endfacet
   facet normal 1.000000e+00 0.000000e+00 0.000000e+00
      outer loop
         vertex 1.000000e+04 1.000000e+04 1.000000e+04
         vertex 1.000000e+04 8.137681e+03 4.314661e+02
         vertex 1.000000e+04 8.207105e+03 3.620434e+02
      endloop
   endfacet
   facet normal 1.000000e+00 0.000000e+00 0.000000e+00
      outer loop
         vertex 1.000000e+04 1.000000e+04 1.000000e+04
         vertex 1.000000e+04 8.207105e+03 3.620434e+02
         vertex 1.000000e+04 1.000000e+04 0.000000e+00
      endloop
   endfacet
   facet normal 1.000000e+00 0.000000e+00 0.000000e+00
      outer loop
         vertex 1.000000e+04 1.000000e+04 0.000000e+00
         vertex 1.000000e+04 8.207105e+03 3.620434e+02
         vertex 1.000000e+04 8.263417e+03 2.816200e+02
      endloop
   endfacet
   facet normal 1.000000e+00 0.000000e+00 0.000000e+00
      outer loop
         vertex 1.000000e+04 1.000000e+04 0.000000e+00
         vertex 1.000000e+04 8.263417e+03 2.816200e+02
         vertex 1.000000e+04 8.304910e+03 1.926394e+02
      endloop
   endfacet
   facet normal 1.000000e+00 0.000000e+00 -0.000000e+00
      outer loop
         vertex 1.000000e+04 2.031723e+03 5.292721e+02
         vertex 1.000000e+04 2.126556e+03 5.546827e+02
         vertex 1.000000e+04 3.749399e-29 1.000000e+04
      endloop
   endfacet
   facet normal 1.000000e+00 0.000000e+00 0.000000e+00
      outer loop
         vertex 1.000000e+04 3.749399e-29 1.000000e+04
         vertex 1.000000e+04 2.126556e+03 5.546827e+02
         vertex 1.000000e+04 2.224362e+03 5.632391e+02
      endloop
   endfacet
   facet normal 1.000000e+00 -0.000000e+00 0.000000e+00
      outer loop
         vertex 1.000000e+04 3.749399e-29 1.000000e+04
         vertex 1.000000e+04 2.224362e+03 5.632391e+02
         vertex 1.000000e+04 1.000000e+04 1.000000e+04
      endloop
   endfacet
   facet normal 1.000000e+00 0.000000e+00 0.000000e+00
      outer loop
         vertex 1.000000e+04 1.000000e+04 1.000000e+04
         vertex 1.000000e+04 2.224362e+03 5.632391e+02
         vertex 1.000000e+04 7.775638e+03 5.632391e+02
      endloop
   endfacet
   facet normal 1.000000e+00 0.000000e+00 0.000000e+00
      outer loop
         vertex 1.000000e+04 1.000000e+04 1.000000e+04
         vertex 1.000000e+04 7.775638e+03 5.632391e+02
         vertex 1.000000e+04 7.873444e+03 5.546827e+02
      endloop
   endfacet
   facet normal -1.000000e+00 1.836970e-16 -6.123235e-17
      outer loop
         vertex -1.836970e-12 0.000000e+00 0.000000e+00
         vertex -1.185055e-12 5.001569e+03 4.358127e+03
         vertex 0.000000e+00 1.000000e+04 0.000000e+00
      endloop
   endfacet
   facet normal -1.000000e+00 1.836970e-16 -6.123233e-17
      outer loop
         vertex 0.000000e+00 1.000000e+04 0.000000e+00
         vertex -1.185055e-12 5.001569e+03 4.358127e+03
         vertex -9.649699e-13 6.485178e+03 5.214689e+03
      endloop
   endfacet
   facet normal -1.000000e+00 1.836970e-16 -6.123234e-17
      outer loop
         vertex 0.000000e+00 1.000000e+04 0.000000e+00
         vertex -9.649699e-13 6.485178e+03 5.214689e+03
         vertex -6.123234e-13 1.000000e+04 1.000000e+04
      endloop
   endfacet
   facet normal -1.000000e+00 1.836971e-16 -6.123239e-17
      outer loop
         vertex -9.649699e-13 6.485178e+03 5.214689e+03
         vertex -1.069869e-12 6.485178e+03 6.927813e+03
         vertex -6.123234e-13 1.000000e+04 1.000000e+04
      endloop
   endfacet
   facet normal -1.000000e+00 1.836970e-16 -6.123228e-17
      outer loop
         vertex -6.123234e-13 1.000000e+04 1.000000e+04
         vertex -1.069869e-12 6.485178e+03 6.927813e+03
         vertex -1.394852e-12 5.001569e+03 7.784375e+03
      endloop
   endfacet
   facet normal -1.000000e+00 1.836970e-16 -6.123237e-17
      outer loop
         vertex -6.123234e-13 1.000000e+04 1.000000e+04
         vertex -1.394852e-12 5.001569e+03 7.784375e+03
         vertex -2.449294e-12 3.749399e-29 1.000000e+04
      endloop
   endfacet
   facet normal -1.000000e+00 1.836970e-16 -6.123230e-17
      outer loop
         vertex -2.449294e-12 3.749399e-29 1.000000e+04
         vertex -1.394852e-12 5.001569e+03 7.784375e+03
         vertex -1.614938e-12 3.517960e+03 6.927813e+03
      endloop
   endfacet
   facet normal -1.000000e+00 1.836970e-16 -6.123235e-17
      outer loop
         vertex -2.449294e-12 3.749399e-29 1.000000e+04
         vertex -1.614938e-12 3.517960e+03 6.927813e+03
         vertex -1.836970e-12 0.000000e+00 0.000000e+00
      endloop
   endfacet
   facet normal -1.000000e+00 1.836971e-16 -6.123239e-17
      outer loop
         vertex -1.836970e-12 0.000000e+00 0.000000e+00
         vertex -1.614938e-12 3.517960e+03 6.927813e+03
         vertex -1.510039e-12 3.517960e+03 5.214689e+03
      endloop
   endfacet
   facet normal -1.000000e+00 1.836970e-16 -6.123232e-17
      outer loop
         vertex -1.836970e-12 0.000000e+00 0.000000e+00
         vertex -1.510039e-12 3.517960e+03 5.214689e+03
         vertex -1.185055e-12 5.001569e+03 4.358127e+03
      endloop
   endfacet
   facet normal 0.000000e+00 5.000000e-01 -8.660254e-01
      outer loop
         vertex 5.646383e+03 5.001569e+03 7.784375e+03
         vertex 5.646383e+03 3.517960e+03 6.927813e+03
         vertex 0.000000e+00 5.001569e+03 7.784375e+03
      endloop
   endfacet
   facet normal 0.000000e+00 5.000000e-01 -8.660254e-01
      outer loop
         vertex 0.000000e+00 5.001569e+03 7.784375e+03
         vertex 5.646383e+03 3.517960e+03 6.927813e+03
         vertex 0.000000e+00 3.517960e+03 6.927813e+03
      endloop
   endfacet
   facet normal 0.000000e+00 1.000000e+00 0.000000e+00
      outer loop
         vertex 5.646383e+03 3.517960e+03 6.927813e+03
         vertex 5.646383e+03 3.517960e+03 5.214689e+03
         vertex 0.000000e+00 3.517960e+03 6.927813e+03
      endloop
   endfacet
   facet normal 0.000000e+00 1.000000e+00 0.000000e+00
      outer loop
         vertex 0.000000e+00 3.517960e+03 6.927813e+03
         vertex 5.646383e+03 3.517960e+03 5.214689e+03
         vertex 0.000000e+00 3.517960e+03 5.214689e+03
      endloop
   endfacet
   facet normal 0.000000e+00 5.000000e-01 8.660254e-01
      outer loop
         vertex 5.646383e+03 3.517960e+03 5.214689e+03
         vertex 5.646383e+03 5.001569e+03 4.358127e+03
         vertex -1.776357e-12 3.517960e+03 5.214689e+03
      endloop
   endfacet
   facet normal 0.000000e+00 5.000000e-01 8.660254e-01
      outer loop
         vertex -1.776357e-12 3.517960e+03 5.214689e+03
         vertex 5.646383e+03 5.001569e+03 4.358127e+03
         vertex -1.776357e-12 5.001569e+03 4.358127e+03
      endloop
   endfacet
   facet normal 0.000000e+00 -5.000000e-01 8.660254e-01
      outer loop
         vertex 5.646383e+03 5.001569e+03 4.358127e+03
         vertex 5.646383e+03 6.485178e+03 5.214689e+03
         vertex 0.000000e+00 5.001569e+03 4.358127e+03
      endloop
   endfacet
   facet normal 0.000000e+00 -5.000000e-01 8.660254e-01
      outer loop
         vertex 0.000000e+00 5.001569e+03 4.358127e+03
         vertex 5.646383e+03 6.485178e+03 5.214689e+03
         vertex 0.000000e+00 6.485178e+03 5.214689e+03
      endloop
   endfacet
   facet normal 0.000000e+00 -1.000000e+00 0.000000e+00
      outer loop
         vertex 5.646383e+03 6.485178e+03 5.214689e+03
         vertex 5.646383e+03 6.485178e+03 6.927813e+03
         vertex 0.000000e+00 6.485178e+03 5.214689e+03
      endloop
   endfacet
   facet normal 0.000000e+00 -1.000000e+00 0.000000e+00
      outer loop
         vertex 0.000000e+00 6.485178e+03 5.214689e+03
         vertex 5.646383e+03 6.485178e+03 6.927813e+03
         vertex 0.000000e+00 6.485178e+03 6.927813e+03
      endloop
   endfacet
   facet normal -0.000000e+00 -5.000000e-01 -8.660254e-01
      outer loop
         vertex 5.646383e+03 6.485178e+03 6.927813e+03
         vertex 5.646383e+03 5.001569e+03 7.784375e+03
         vertex 0.000000e+00 6.485178e+03 6.927813e+03
      endloop
   endfacet
   facet normal 0.000000e+00 -5.000000e-01 -8.660254e-01
      outer loop
         vertex 0.000000e+00 6.485178e+03 6.927813e+03
         vertex 5.646383e+03 5.001569e+03 7.784375e+03
         vertex 0.000000e+00 5.001569e+03 7.784375e+03
      endloop
   endfacet
   facet normal -1.000000e+00 0.000000e+00 -0.000000e+00
      outer loop
         vertex 5.646383e+03 5.001569e+03 7.784375e+03
         vertex 5.646383e+03 6.485178e+03 6.927813e+03
         vertex 5.646383e+03 3.517960e+03 6.927813e+03
      endloop
   endfacet
   facet normal -1.000000e+00 0.000000e+00 0.000000e+00
      outer loop
         vertex 5.646383e+03 3.517960e+03 6.927813e+03
         vertex 5.646383e+03 6.485178e+03 6.927813e+03
         vertex 5.646383e+03 6.485178e+03 5.214689e+03
      endloop
   endfacet
   facet normal -1.000000e+00 0.000000e+00 0.000000e+00
      outer loop
         vertex 5.646383e+03 3.517960e+03 6.927813e+03
         vertex 5.646383e+03 6.485178e+03 5.214689e+03
         vertex 5.646383e+03 3.517960e+03 5.214689e+03
      endloop
   endfacet
   facet normal -1.000000e+00 0.000000e+00 0.000000e+00
      outer loop
         vertex 5.646383e+03 3.517960e+03 5.214689e+03
         vertex 5.646383e+03 6.485178e+03 5.214689e+03
         vertex 5.646383e+03 5.001569e+03 4.358127e+03
      endloop
   endfacet
   facet normal 0.000000e+00 8.715062e-02 -9.961951e-01
      outer loop
         vertex 5.746406e+03 2.224362e+03 5.632391e+02
         vertex 1.000000e+04 2.224362e+03 5.632391e+02
         vertex 5.746406e+03 2.126556e+03 5.546827e+02
      endloop
   endfacet
   facet normal 0.000000e+00 8.715062e-02 -9.961951e-01
      outer loop
         vertex 5.746406e+03 2.126556e+03 5.546827e+02
         vertex 1.000000e+04 2.224362e+03 5.632391e+02
         vertex 1.000000e+04 2.126556e+03 5.546827e+02
      endloop
   endfacet
   facet normal 0.000000e+00 2.588196e-01 -9.659257e-01
      outer loop
         vertex 5.746406e+03 2.126556e+03 5.546827e+02
         vertex 1.000000e+04 2.126556e+03 5.546827e+02
         vertex 5.746406e+03 2.031723e+03 5.292721e+02
      endloop
   endfacet
   facet normal 0.000000e+00 2.588196e-01 -9.659257e-01
      outer loop
         vertex 5.746406e+03 2.031723e+03 5.292721e+02
         vertex 1.000000e+04 2.126556e+03 5.546827e+02
         vertex 1.000000e+04 2.031723e+03 5.292721e+02
      endloop
   endfacet
   facet normal 0.000000e+00 4.226195e-01 -9.063072e-01
      outer loop
         vertex 5.746406e+03 2.031723e+03 5.292721e+02
         vertex 1.000000e+04 2.031723e+03 5.292721e+02
         vertex 5.746406e+03 1.942742e+03 4.877796e+02
      endloop
   endfacet
   facet normal 0.000000e+00 4.226195e-01 -9.063072e-01
      outer loop
         vertex 5.746406e+03 1.942742e+03 4.877796e+02
         vertex 1.000000e+04 2.031723e+03 5.292721e+02
         vertex 1.000000e+04 1.942742e+03 4.877796e+02
      endloop
   endfacet
   facet normal 0.000000e+00 5.735785e-01 -8.191506e-01
      outer loop
         vertex 5.746406e+03 1.942742e+03 4.877796e+02
         vertex 1.000000e+04 1.942742e+03 4.877796e+02
         vertex 5.746406e+03 1.862319e+03 4.314661e+02
      endloop
   endfacet
   facet normal 0.000000e+00 5.735785e-01 -8.191506e-01
      outer loop
         vertex 5.746406e+03 1.862319e+03 4.314661e+02
         vertex 1.000000e+04 1.942742e+03 4.877796e+02
         vertex 1.000000e+04 1.862319e+03 4.314661e+02
      endloop
   endfacet
   facet normal 0.000000e+00 7.071050e-01 -7.071086e-01
      outer loop
         vertex 5.746406e+03 1.862319e+03 4.314661e+02
         vertex 1.000000e+04 1.862319e+03 4.314661e+02
         vertex 5.746406e+03 1.792896e+03 3.620434e+02
      endloop
   endfacet
   facet normal 0.000000e+00 7.071050e-01 -7.071086e-01
      outer loop
         vertex 5.746406e+03 1.792896e+03 3.620434e+02
         vertex 1.000000e+04 1.862319e+03 4.314661e+02
         vertex 1.000000e+04 1.792896e+03 3.620434e+02
      endloop
   endfacet
   facet normal 0.000000e+00 8.191509e-01 -5.735781e-01
      outer loop
         vertex 5.746406e+03 1.792896e+03 3.620434e+02
         vertex 1.000000e+04 1.792896e+03 3.620434e+02
         vertex 5.746406e+03 1.736582e+03 2.816200e+02
      endloop
   endfacet
   facet normal 0.000000e+00 8.191509e-01 -5.735781e-01
      outer loop
         vertex 5.746406e+03 1.736582e+03 2.816200e+02
         vertex 1.000000e+04 1.792896e+03 3.620434e+02
         vertex 1.000000e+04 1.736582e+03 2.816200e+02
      endloop
   endfacet
   facet normal 0.000000e+00 9.063084e-01 -4.226170e-01
      outer loop
         vertex 5.746406e+03 1.736582e+03 2.816200e+02
         vertex 1.000000e+04 1.736582e+03 2.816200e+02
         vertex 5.746406e+03 1.695090e+03 1.926394e+02
      endloop
   endfacet
   facet normal 0.000000e+00 9.063084e-01 -4.226170e-01
      outer loop
         vertex 5.746406e+03 1.695090e+03 1.926394e+02
         vertex 1.000000e+04 1.736582e+03 2.816200e+02
         vertex 1.000000e+04 1.695090e+03 1.926394e+02
      endloop
   endfacet
   facet normal 0.000000e+00 9.659262e-01 -2.588178e-01
      outer loop
         vertex 5.746406e+03 1.695090e+03 1.926394e+02
         vertex 1.000000e+04 1.695090e+03 1.926394e+02
         vertex 5.746406e+03 1.669679e+03 9.780502e+01
      endloop
   endfacet
   facet normal 0.000000e+00 9.659262e-01 -2.588178e-01
      outer loop
         vertex 5.746406e+03 1.669679e+03 9.780502e+01
         vertex 1.000000e+04 1.695090e+03 1.926394e+02
         vertex 1.000000e+04 1.669679e+03 9.780502e+01
      endloop
   endfacet
   facet normal 0.000000e+00 9.961947e-01 -8.715586e-02
      outer loop
         vertex 5.746406e+03 1.669679e+03 9.780502e+01
         vertex 1.000000e+04 1.669679e+03 9.780502e+01
         vertex 5.746406e+03 1.661123e+03 0.000000e+00
      endloop
   endfacet
   facet normal 0.000000e+00 9.961947e-01 -8.715586e-02
      outer loop
         vertex 5.746406e+03 1.661123e+03 0.000000e+00
         vertex 1.000000e+04 1.669679e+03 9.780502e+01
         vertex 1.000000e+04 1.661123e+03 0.000000e+00
      endloop
   endfacet
   facet normal 0.000000e+00 0.000000e+00 -1.000000e+00
      outer loop
         vertex 5.746406e+03 2.224362e+03 5.632391e+02
         vertex 5.746406e+03 7.775638e+03 5.632391e+02
         vertex 1.000000e+04 2.224362e+03 5.632391e+02
      endloop
   endfacet
   facet normal 0.000000e+00 0.000000e+00 -1.000000e+00
      outer loop
         vertex 1.000000e+04 2.224362e+03 5.632391e+02
         vertex 5.746406e+03 7.775638e+03 5.632391e+02
         vertex 1.000000e+04 7.775638e+03 5.632391e+02
      endloop
   endfacet
   facet normal 0.000000e+00 -9.961943e-01 -8.716068e-02
      outer loop
         vertex 5.746406e+03 8.338878e+03 0.000000e+00
         vertex 1.000000e+04 8.338878e+03 0.000000e+00
         vertex 5.746406e+03 8.330320e+03 9.780502e+01
      endloop
   endfacet
   facet normal 0.000000e+00 -9.961943e-01 -8.716068e-02
      outer loop
         vertex 5.746406e+03 8.330320e+03 9.780502e+01
         vertex 1.000000e+04 8.338878e+03 0.000000e+00
         vertex 1.000000e+04 8.330320e+03 9.780502e+01
      endloop
   endfacet
   facet normal 0.000000e+00 -9.659262e-01 -2.588178e-01
      outer loop
         vertex 5.746406e+03 8.330320e+03 9.780502e+01
         vertex 1.000000e+04 8.330320e+03 9.780502e+01
         vertex 5.746406e+03 8.304910e+03 1.926394e+02
      endloop
   endfacet
   facet normal 0.000000e+00 -9.659262e-01 -2.588178e-01
      outer loop
         vertex 5.746406e+03 8.304910e+03 1.926394e+02
         vertex 1.000000e+04 8.330320e+03 9.780502e+01
         vertex 1.000000e+04 8.304910e+03 1.926394e+02
      endloop
   endfacet
   facet normal 0.000000e+00 -9.063074e-01 -4.226190e-01
      outer loop
         vertex 5.746406e+03 8.304910e+03 1.926394e+02
         vertex 1.000000e+04 8.304910e+03 1.926394e+02
         vertex 5.746406e+03 8.263417e+03 2.816200e+02
      endloop
   endfacet
   facet normal 0.000000e+00 -9.063074e-01 -4.226190e-01
      outer loop
         vertex 5.746406e+03 8.263417e+03 2.816200e+02
         vertex 1.000000e+04 8.304910e+03 1.926394e+02
         vertex 1.000000e+04 8.263417e+03 2.816200e+02
      endloop
   endfacet
   facet normal 0.000000e+00 -8.191543e-01 -5.735732e-01
      outer loop
         vertex 5.746406e+03 8.263417e+03 2.816200e+02
         vertex 1.000000e+04 8.263417e+03 2.816200e+02
         vertex 5.746406e+03 8.207105e+03 3.620434e+02
      endloop
   endfacet
   facet normal 0.000000e+00 -8.191543e-01 -5.735732e-01
      outer loop
         vertex 5.746406e+03 8.207105e+03 3.620434e+02
         vertex 1.000000e+04 8.263417e+03 2.816200e+02
         vertex 1.000000e+04 8.207105e+03 3.620434e+02
      endloop
   endfacet
   facet normal 0.000000e+00 -7.071019e-01 -7.071116e-01
      outer loop
         vertex 5.746406e+03 8.207105e+03 3.620434e+02
         vertex 1.000000e+04 8.207105e+03 3.620434e+02
         vertex 5.746406e+03 8.137681e+03 4.314661e+02
      endloop
   endfacet
   facet normal 0.000000e+00 -7.071019e-01 -7.071116e-01
      outer loop
         vertex 5.746406e+03 8.137681e+03 4.314661e+02
         vertex 1.000000e+04 8.207105e+03 3.620434e+02
         vertex 1.000000e+04 8.137681e+03 4.314661e+02
      endloop
   endfacet
   facet normal 0.000000e+00 -5.735797e-01 -8.191498e-01
      outer loop
         vertex 5.746406e+03 8.137681e+03 4.314661e+02
         vertex 1.000000e+04 8.137681e+03 4.314661e+02
         vertex 5.746406e+03 8.057258e+03 4.877796e+02
      endloop
   endfacet
   facet normal 0.000000e+00 -5.735797e-01 -8.191498e-01
      outer loop
         vertex 5.746406e+03 8.057258e+03 4.877796e+02
         vertex 1.000000e+04 8.137681e+03 4.314661e+02
         vertex 1.000000e+04 8.057258e+03 4.877796e+02
      endloop
   endfacet
   facet normal 0.000000e+00 -4.226209e-01 -9.063066e-01
      outer loop
         vertex 5.746406e+03 8.057258e+03 4.877796e+02
         vertex 1.000000e+04 8.057258e+03 4.877796e+02
         vertex 5.746406e+03 7.968277e+03 5.292721e+02
      endloop
   endfacet
   facet normal 0.000000e+00 -4.226209e-01 -9.063066e-01
      outer loop
         vertex 5.746406e+03 7.968277e+03 5.292721e+02
         vertex 1.000000e+04 8.057258e+03 4.877796e+02
         vertex 1.000000e+04 7.968277e+03 5.292721e+02
      endloop
   endfacet
   facet normal 0.000000e+00 -2.588190e-01 -9.659258e-01
      outer loop
         vertex 5.746406e+03 7.968277e+03 5.292721e+02
         vertex 1.000000e+04 7.968277e+03 5.292721e+02
         vertex 5.746406e+03 7.873444e+03 5.546827e+02
      endloop
   endfacet
   facet normal 0.000000e+00 -2.588190e-01 -9.659258e-01
      outer loop
         vertex 5.746406e+03 7.873444e+03 5.546827e+02
         vertex 1.000000e+04 7.968277e+03 5.292721e+02
         vertex 1.000000e+04 7.873444e+03 5.546827e+02
      endloop
   endfacet
   facet normal 0.000000e+00 -8.715062e-02 -9.961951e-01
      outer loop
         vertex 5.746406e+03 7.873444e+03 5.546827e+02
         vertex 1.000000e+04 7.873444e+03 5.546827e+02
         vertex 5.746406e+03 7.775638e+03 5.632391e+02
      endloop
   endfacet
   facet normal 0.000000e+00 -8.715062e-02 -9.961951e-01
      outer loop
         vertex 5.746406e+03 7.775638e+03 5.632391e+02
         vertex 1.000000e+04 7.873444e+03 5.546827e+02
         vertex 1.000000e+04 7.775638e+03 5.632391e+02
      endloop
   endfacet
   facet normal 1.000000e+00 0.000000e+00 0.000000e+00
      outer loop
         vertex 5.746406e+03 1.661123e+03 0.000000e+00
         vertex 5.746406e+03 8.338878e+03 0.000000e+00
         vertex 5.746406e+03 7.775638e+03 5.632391e+02
      endloop
   endfacet
   facet normal 1.000000e+00 0.000000e+00 0.000000e+00
      outer loop
         vertex 5.746406e+03 7.775638e+03 5.632391e+02
         vertex 5.746406e+03 8.338878e+03 0.000000e+00
         vertex 5.746406e+03 8.330320e+03 9.780502e+01
      endloop
   endfacet
   facet normal 1.000000e+00 0.000000e+00 0.000000e+00
      outer loop
         vertex 5.746406e+03 8.330320e+03 9.780502e+01
         vertex 5.746406e+03 8.304910e+03 1.926394e+02
         vertex 5.746406e+03 7.775638e+03 5.632391e+02
      endloop
   endfacet
   facet normal 1.000000e+00 0.000000e+00 0.000000e+00
      outer loop
         vertex 5.746406e+03 7.775638e+03 5.632391e+02
         vertex 5.746406e+03 8.304910e+03 1.926394e+02
         vertex 5.746406e+03 8.263417e+03 2.816200e+02
      endloop
   endfacet
   facet normal 1.000000e+00 0.000000e+00 0.000000e+00
      outer loop
         vertex 5.746406e+03 7.775638e+03 5.632391e+02
         vertex 5.746406e+03 8.263417e+03 2.816200e+02
         vertex 5.746406e+03 8.207105e+03 3.620434e+02
      endloop
   endfacet
   facet normal 1.000000e+00 0.000000e+00 0.000000e+00
      outer loop
         vertex 5.746406e+03 7.968277e+03 5.292721e+02
         vertex 5.746406e+03 7.873444e+03 5.546827e+02
         vertex 5.746406e+03 8.057258e+03 4.877796e+02
      endloop
   endfacet
   facet normal 1.000000e+00 0.000000e+00 0.000000e+00
      outer loop
         vertex 5.746406e+03 8.057258e+03 4.877796e+02
         vertex 5.746406e+03 7.873444e+03 5.546827e+02
         vertex 5.746406e+03 7.775638e+03 5.632391e+02
      endloop
   endfacet
   facet normal 1.000000e+00 0.000000e+00 0.000000e+00
      outer loop
         vertex 5.746406e+03 8.057258e+03 4.877796e+02
         vertex 5.746406e+03 7.775638e+03 5.632391e+02
         vertex 5.746406e+03 8.137681e+03 4.314661e+02
      endloop
   endfacet
   facet normal 1.000000e+00 0.000000e+00 0.000000e+00
      outer loop
         vertex 5.746406e+03 8.137681e+03 4.314661e+02
         vertex 5.746406e+03 7.775638e+03 5.632391e+02
         vertex 5.746406e+03 8.207105e+03 3.620434e+02
      endloop
   endfacet
   facet normal 1.000000e+00 0.000000e+00 0.000000e+00
      outer loop
         vertex 5.746406e+03 7.775638e+03 5.632391e+02
         vertex 5.746406e+03 2.224362e+03 5.632391e+02
         vertex 5.746406e+03 1.661123e+03 0.000000e+00
      endloop
   endfacet
   facet normal 1.000000e+00 0.000000e+00 0.000000e+00
      outer loop
         vertex 5.746406e+03 1.661123e+03 0.000000e+00
         vertex 5.746406e+03 2.224362e+03 5.632391e+02
         vertex 5.746406e+03 2.126556e+03 5.546827e+02
      endloop
   endfacet
   facet normal 1.000000e+00 0.000000e+00 0.000000e+00
      outer loop
         vertex 5.746406e+03 1.661123e+03 0.000000e+00
         vertex 5.746406e+03 2.126556e+03 5.546827e+02
         vertex 5.746406e+03 2.031723e+03 5.292721e+02
      endloop
   endfacet
   facet normal 1.000000e+00 0.000000e+00 0.000000e+00
      outer loop
         vertex 5.746406e+03 2.031723e+03 5.292721e+02
         vertex 5.746406e+03 1.942742e+03 4.877796e+02
         vertex 5.746406e+03 1.661123e+03 0.000000e+00
      endloop
   endfacet
   facet normal 1.000000e+00 0.000000e+00 0.000000e+00
      outer loop
         vertex 5.746406e+03 1.661123e+03 0.000000e+00
         vertex 5.746406e+03 1.942742e+03 4.877796e+02
         vertex 5.746406e+03 1.862319e+03 4.314661e+02
      endloop
   endfacet
   facet normal 1.000000e+00 0.000000e+00 0.000000e+00
      outer loop
         vertex 5.746406e+03 1.661123e+03 0.000000e+00
         vertex 5.746406e+03 1.862319e+03 4.314661e+02
         vertex 5.746406e+03 1.792896e+03 3.620434e+02
      endloop
   endfacet
   facet normal 1.000000e+00 0.000000e+00 0.000000e+00
      outer loop
         vertex 5.746406e+03 1.792896e+03 3.620434e+02
         vertex 5.746406e+03 1.736582e+03 2.816200e+02
         vertex 5.746406e+03 1.661123e+03 0.000000e+00
      endloop
   endfacet
   facet normal 1.000000e+00 0.000000e+00 0.000000e+00
      outer loop
         vertex 5.746406e+03 1.661123e+03 0.000000e+00
         vertex 5.746406e+03 1.736582e+03 2.816200e+02
         vertex 5.746406e+03 1.695090e+03 1.926394e+02
      endloop
   endfacet
   facet normal 1.000000e+00 0.000000e+00 0.000000e+00
      outer loop
         vertex 5.746406e+03 1.661123e+03 0.000000e+00
         vertex 5.746406e+03 1.695090e+03 1.926394e+02
         vertex 5.746406e+03 1.669679e+03 9.780502e+01
      endloop
   endfacet
endsolid