solid 109
   facet normal 1.000000e+00 -0.000000e+00 0.000000e+00
      outer loop
         vertex 1.000000e+04 6.123234e-13 1.000000e+04
         vertex 1.000000e+04 1.224647e-12 0.000000e+00
         vertex 1.000000e+04 1.000000e+04 1.000000e+04
      endloop
   endfacet
   facet normal 1.000000e+00 0.000000e+00 0.000000e+00
      outer loop
         vertex 1.000000e+04 1.000000e+04 1.000000e+04
         vertex 1.000000e+04 1.224647e-12 0.000000e+00
         vertex 1.000000e+04 1.000000e+04 0.000000e+00
      endloop
   endfacet
   facet normal -2.449294e-16 6.123236e-17 1.000000e+00
      outer loop
         vertex 2.417057e+03 2.679147e+03 1.000000e+04
         vertex 0.000000e+00 -1.972152e-28 1.000000e+04
         vertex 1.000000e+04 6.123234e-13 1.000000e+04
      endloop
   endfacet
   facet normal -2.449294e-16 6.123237e-17 1.000000e+00
      outer loop
         vertex 2.417057e+03 2.679147e+03 1.000000e+04
         vertex 7.808804e+02 3.623794e+03 1.000000e+04
         vertex 0.000000e+00 -1.972152e-28 1.000000e+04
      endloop
   endfacet
   facet normal -2.449291e-16 6.123232e-17 1.000000e+00
      outer loop
         vertex 0.000000e+00 -1.972152e-28 1.000000e+04
         vertex 7.808804e+02 3.623794e+03 1.000000e+04
         vertex 7.808804e+02 5.513088e+03 1.000000e+04
      endloop
   endfacet
   facet normal -2.449292e-16 6.123233e-17 1.000000e+00
      outer loop
         vertex 0.000000e+00 -1.972152e-28 1.000000e+04
         vertex 7.808804e+02 5.513088e+03 1.000000e+04
         vertex 0.000000e+00 1.000000e+04 1.000000e+04
      endloop
   endfacet
   facet normal -2.449294e-16 6.123230e-17 1.000000e+00
      outer loop
         vertex 0.000000e+00 1.000000e+04 1.000000e+04
         vertex 7.808804e+02 5.513088e+03 1.000000e+04
         vertex 2.417057e+03 6.457735e+03 1.000000e+04
      endloop
   endfacet
   facet normal -2.449293e-16 6.123232e-17 1.000000e+00
      outer loop
         vertex 0.000000e+00 1.000000e+04 1.000000e+04
         vertex 2.417057e+03 6.457735e+03 1.000000e+04
         vertex 1.000000e+04 1.000000e+04 1.000000e+04
      endloop
   endfacet
   facet normal -2.449294e-16 6.123238e-17 1.000000e+00
      outer loop
         vertex 1.000000e+04 1.000000e+04 1.000000e+04
         vertex 2.417057e+03 6.457735e+03 1.000000e+04
         vertex 4.053233e+03 5.513088e+03 1.000000e+04
      endloop
   endfacet
   facet normal -2.449293e-16 6.123234e-17 1.000000e+00
      outer loop
         vertex 1.000000e+04 1.000000e+04 1.000000e+04
         vertex 4.053233e+03 5.513088e+03 1.000000e+04
         vertex 1.000000e+04 6.123234e-13 1.000000e+04
      endloop
   endfacet
   facet normal -2.449294e-16 6.123232e-17 1.000000e+00
      outer loop
         vertex 1.000000e+04 6.123234e-13 1.000000e+04
         vertex 4.053233e+03 5.513088e+03 1.000000e+04
         vertex 4.053233e+03 3.623794e+03 1.000000e+04
      endloop
   endfacet
   facet normal -2.449294e-16 6.123229e-17 1.000000e+00
      outer loop
         vertex 1.000000e+04 6.123234e-13 1.000000e+04
         vertex 4.053233e+03 3.623794e+03 1.000000e+04
         vertex 2.417057e+03 2.679147e+03 1.000000e+04
      endloop
   endfacet
   facet normal -1.000000e+00 -1.224647e-16 -2.449294e-16
      outer loop
         vertex 0.000000e+00 6.123234e-13 0.000000e+00
         vertex -2.449294e-12 -1.972152e-28 1.000000e+04
         vertex -1.224647e-12 1.000000e+04 0.000000e+00
      endloop
   endfacet
   facet normal -1.000000e+00 -1.224647e-16 -2.449293e-16
      outer loop
         vertex -1.224647e-12 1.000000e+04 0.000000e+00
         vertex -2.449294e-12 -1.972152e-28 1.000000e+04
         vertex -3.673940e-12 1.000000e+04 1.000000e+04
      endloop
   endfacet
   facet normal 0.000000e+00 0.000000e+00 -1.000000e+00
      outer loop
         vertex 0.000000e+00 6.123234e-13 0.000000e+00
         vertex 0.000000e+00 1.000000e+04 0.000000e+00
         vertex 7.808804e+02 5.513088e+03 0.000000e+00
      endloop
   endfacet
   facet normal 0.000000e+00 -0.000000e+00 -1.000000e+00
      outer loop
         vertex 7.808804e+02 5.513088e+03 0.000000e+00
         vertex 7.808804e+02 3.623794e+03 0.000000e+00
         vertex 0.000000e+00 6.123234e-13 0.000000e+00
      endloop
   endfacet
   facet normal 0.000000e+00 0.000000e+00 -1.000000e+00
      outer loop
         vertex 0.000000e+00 6.123234e-13 0.000000e+00
         vertex 7.808804e+02 3.623794e+03 0.000000e+00
         vertex 2.417057e+03 2.679147e+03 0.000000e+00
      endloop
   endfacet
   facet normal 0.000000e+00 0.000000e+00 -1.000000e+00
      outer loop
         vertex 0.000000e+00 6.123234e-13 0.000000e+00
         vertex 2.417057e+03 2.679147e+03 0.000000e+00
         vertex 1.000000e+04 1.224647e-12 0.000000e+00
      endloop
   endfacet
   facet normal 0.000000e+00 0.000000e+00 -1.000000e+00
      outer loop
         vertex 1.000000e+04 1.224647e-12 0.000000e+00
         vertex 2.417057e+03 2.679147e+03 0.000000e+00
         vertex 4.053233e+03 3.623794e+03 0.000000e+00
      endloop
   endfacet
   facet normal 0.000000e+00 0.000000e+00 -1.000000e+00
      outer loop
         vertex 1.000000e+04 1.224647e-12 0.000000e+00
         vertex 4.053233e+03 3.623794e+03 0.000000e+00
         vertex 1.000000e+04 1.000000e+04 0.000000e+00
      endloop
   endfacet
   facet normal 0.000000e+00 0.000000e+00 -1.000000e+00
      outer loop
         vertex 1.000000e+04 1.000000e+04 0.000000e+00
         vertex 4.053233e+03 3.623794e+03 0.000000e+00
         vertex 4.053233e+03 5.513088e+03 0.000000e+00
      endloop
   endfacet
   facet normal -0.000000e+00 0.000000e+00 -1.000000e+00
      outer loop
         vertex 1.000000e+04 1.000000e+04 0.000000e+00
         vertex 4.053233e+03 5.513088e+03 0.000000e+00
         vertex 0.000000e+00 1.000000e+04 0.000000e+00
      endloop
   endfacet
   facet normal 0.000000e+00 0.000000e+00 -1.000000e+00
      outer loop
         vertex 0.000000e+00 1.000000e+04 0.000000e+00
         vertex 4.053233e+03 5.513088e+03 0.000000e+00
         vertex 2.417057e+03 6.457735e+03 0.000000e+00
      endloop
   endfacet
   facet normal 0.000000e+00 0.000000e+00 -1.000000e+00
      outer loop
         vertex 0.000000e+00 1.000000e+04 0.000000e+00
         vertex 2.417057e+03 6.457735e+03 0.000000e+00
         vertex 7.808804e+02 5.513088e+03 0.000000e+00
      endloop
   endfacet
   facet normal 1.224647e-16 -1.000000e+00 6.123232e-17
      outer loop
         vertex 7.372796e+03 1.406315e-12 8.221283e+03
         vertex 1.000000e+04 1.836970e-12 1.000000e+04
         vertex -6.729368e-13 6.123234e-13 1.000000e+04
      endloop
   endfacet
   facet normal 1.224647e-16 -1.000000e+00 6.123229e-17
      outer loop
         vertex 7.372796e+03 1.406315e-12 8.221283e+03
         vertex 8.433413e+03 1.498708e-12 7.608936e+03
         vertex 1.000000e+04 1.836970e-12 1.000000e+04
      endloop
   endfacet
   facet normal 1.224646e-16 -1.000000e+00 6.123235e-17
      outer loop
         vertex 1.000000e+04 1.836970e-12 1.000000e+04
         vertex 8.433413e+03 1.498708e-12 7.608936e+03
         vertex 8.433413e+03 1.423717e-12 6.384242e+03
      endloop
   endfacet
   facet normal 1.224646e-16 -1.000000e+00 6.123233e-17
      outer loop
         vertex 1.000000e+04 1.836970e-12 1.000000e+04
         vertex 8.433413e+03 1.423717e-12 6.384242e+03
         vertex 1.000000e+04 1.224647e-12 0.000000e+00
      endloop
   endfacet
   facet normal 1.224646e-16 -1.000000e+00 6.123233e-17
      outer loop
         vertex 1.000000e+04 1.224647e-12 0.000000e+00
         vertex 8.433413e+03 1.423717e-12 6.384242e+03
         vertex 7.372796e+03 1.256334e-12 5.771895e+03
      endloop
   endfacet
   facet normal 1.224647e-16 -1.000000e+00 6.123235e-17
      outer loop
         vertex 1.000000e+04 1.224647e-12 0.000000e+00
         vertex 7.372796e+03 1.256334e-12 5.771895e+03
         vertex -5.999039e-28 -4.723925e-29 0.000000e+00
      endloop
   endfacet
   facet normal 1.224647e-16 -1.000000e+00 6.123235e-17
      outer loop
         vertex -5.999039e-28 -4.723925e-29 0.000000e+00
         vertex 7.372796e+03 1.256334e-12 5.771895e+03
         vertex 6.312180e+03 1.163941e-12 6.384242e+03
      endloop
   endfacet
   facet normal 1.224647e-16 -1.000000e+00 6.123234e-17
      outer loop
         vertex -5.999039e-28 -4.723925e-29 0.000000e+00
         vertex 6.312180e+03 1.163941e-12 6.384242e+03
         vertex -6.729368e-13 6.123234e-13 1.000000e+04
      endloop
   endfacet
   facet normal 1.224646e-16 -1.000000e+00 6.123227e-17
      outer loop
         vertex -6.729368e-13 6.123234e-13 1.000000e+04
         vertex 6.312180e+03 1.163941e-12 6.384242e+03
         vertex 6.312180e+03 1.238932e-12 7.608936e+03
      endloop
   endfacet
   facet normal 1.224647e-16 -1.000000e+00 6.123236e-17
      outer loop
         vertex -6.729368e-13 6.123234e-13 1.000000e+04
         vertex 6.312180e+03 1.238932e-12 7.608936e+03
         vertex 7.372796e+03 1.406315e-12 8.221283e+03
      endloop
   endfacet
   facet normal 0.000000e+00 1.000000e+00 -0.000000e+00
      outer loop
         vertex 4.507919e+03 1.000000e+04 6.092367e+02
         vertex -5.999039e-28 1.000000e+04 0.000000e+00
         vertex 4.507919e+03 1.000000e+04 3.553489e+03
      endloop
   endfacet
   facet normal 0.000000e+00 1.000000e+00 0.000000e+00
      outer loop
         vertex 4.507919e+03 1.000000e+04 3.553489e+03
         vertex -5.999039e-28 1.000000e+04 0.000000e+00
         vertex -6.729368e-13 1.000000e+04 1.000000e+04
      endloop
   endfacet
   facet normal 0.000000e+00 1.000000e+00 -0.000000e+00
      outer loop
         vertex 4.507919e+03 1.000000e+04 3.553489e+03
         vertex -6.729368e-13 1.000000e+04 1.000000e+04
         vertex 7.031242e+03 1.000000e+04 3.553489e+03
      endloop
   endfacet
   facet normal 0.000000e+00 1.000000e+00 -0.000000e+00
      outer loop
         vertex 7.031242e+03 1.000000e+04 3.553489e+03
         vertex -6.729368e-13 1.000000e+04 1.000000e+04
         vertex 1.000000e+04 1.000000e+04 1.000000e+04
      endloop
   endfacet
   facet normal -0.000000e+00 1.000000e+00 0.000000e+00
      outer loop
         vertex 7.031242e+03 1.000000e+04 3.553489e+03
         vertex 1.000000e+04 1.000000e+04 1.000000e+04
         vertex 7.031242e+03 1.000000e+04 6.092367e+02
      endloop
   endfacet
   facet normal -0.000000e+00 1.000000e+00 0.000000e+00
      outer loop
         vertex 7.031242e+03 1.000000e+04 6.092367e+02
         vertex 1.000000e+04 1.000000e+04 1.000000e+04
         vertex 1.000000e+04 1.000000e+04 0.000000e+00
      endloop
   endfacet
   facet normal 0.000000e+00 1.000000e+00 0.000000e+00
      outer loop
         vertex 7.031242e+03 1.000000e+04 6.092367e+02
         vertex 1.000000e+04 1.000000e+04 0.000000e+00
         vertex 4.507919e+03 1.000000e+04 6.092367e+02
      endloop
   endfacet
   facet normal 0.000000e+00 1.000000e+00 0.000000e+00
      outer loop
         vertex 4.507919e+03 1.000000e+04 6.092367e+02
         vertex 1.000000e+04 1.000000e+04 0.000000e+00
         vertex -5.999039e-28 1.000000e+04 0.000000e+00
      endloop
   endfacet
   facet normal -1.000000e+00 0.000000e+00 0.000000e+00
      outer loop
         vertex 7.031242e+03 8.380607e+03 6.092367e+02
         vertex 7.031242e+03 8.380607e+03 3.553489e+03
         vertex 7.031242e+03 1.000000e+04 6.092367e+02
      endloop
   endfacet
   facet normal -1.000000e+00 0.000000e+00 0.000000e+00
      outer loop
         vertex 7.031242e+03 1.000000e+04 6.092367e+02
         vertex 7.031242e+03 8.380607e+03 3.553489e+03
         vertex 7.031242e+03 1.000000e+04 3.553489e+03
      endloop
   endfacet
   facet normal 0.000000e+00 0.000000e+00 -1.000000e+00
      outer loop
         vertex 7.031242e+03 8.380607e+03 3.553489e+03
         vertex 4.507919e+03 8.380607e+03 3.553489e+03
         vertex 7.031242e+03 1.000000e+04 3.553489e+03
      endloop
   endfacet
   facet normal -0.000000e+00 0.000000e+00 -1.000000e+00
      outer loop
         vertex 7.031242e+03 1.000000e+04 3.553489e+03
         vertex 4.507919e+03 8.380607e+03 3.553489e+03
         vertex 4.507919e+03 1.000000e+04 3.553489e+03
      endloop
   endfacet
   facet normal 1.000000e+00 -0.000000e+00 0.000000e+00
      outer loop
         vertex 4.507919e+03 8.380607e+03 3.553489e+03
         vertex 4.507919e+03 8.380607e+03 6.092367e+02
         vertex 4.507919e+03 1.000000e+04 3.553489e+03
      endloop
   endfacet
   facet normal 1.000000e+00 0.000000e+00 0.000000e+00
      outer loop
         vertex 4.507919e+03 1.000000e+04 3.553489e+03
         vertex 4.507919e+03 8.380607e+03 6.092367e+02
         vertex 4.507919e+03 1.000000e+04 6.092367e+02
      endloop
   endfacet
   facet normal 0.000000e+00 0.000000e+00 1.000000e+00
      outer loop
         vertex 4.507919e+03 8.380607e+03 6.092367e+02
         vertex 7.031242e+03 8.380607e+03 6.092367e+02
         vertex 4.507919e+03 1.000000e+04 6.092367e+02
      endloop
   endfacet
   facet normal -0.000000e+00 0.000000e+00 1.000000e+00
      outer loop
         vertex 4.507919e+03 1.000000e+04 6.092367e+02
         vertex 7.031242e+03 8.380607e+03 6.092367e+02
         vertex 7.031242e+03 1.000000e+04 6.092367e+02
      endloop
   endfacet
   facet normal 0.000000e+00 1.000000e+00 0.000000e+00
      outer loop
         vertex 4.507919e+03 8.380607e+03 6.092367e+02
         vertex 4.507919e+03 8.380607e+03 3.553489e+03
         vertex 7.031242e+03 8.380607e+03 6.092367e+02
      endloop
   endfacet
   facet normal 0.000000e+00 1.000000e+00 -0.000000e+00
      outer loop
         vertex 7.031242e+03 8.380607e+03 6.092367e+02
         vertex 4.507919e+03 8.380607e+03 3.553489e+03
         vertex 7.031242e+03 8.380607e+03 3.553489e+03
      endloop
   endfacet
   facet normal -5.000000e-01 -8.660254e-01 0.000000e+00
      outer loop
         vertex 2.417057e+03 6.457735e+03 0.000000e+00
         vertex 4.053233e+03 5.513088e+03 0.000000e+00
         vertex 2.417057e+03 6.457735e+03 1.000000e+04
      endloop
   endfacet
   facet normal -5.000000e-01 -8.660254e-01 0.000000e+00
      outer loop
         vertex 2.417057e+03 6.457735e+03 1.000000e+04
         vertex 4.053233e+03 5.513088e+03 0.000000e+00
         vertex 4.053233e+03 5.513088e+03 1.000000e+04
      endloop
   endfacet
   facet normal -1.000000e+00 0.000000e+00 0.000000e+00
      outer loop
         vertex 4.053233e+03 5.513088e+03 0.000000e+00
         vertex 4.053233e+03 3.623794e+03 0.000000e+00
         vertex 4.053233e+03 5.513088e+03 1.000000e+04
      endloop
   endfacet
   facet normal -1.000000e+00 -0.000000e+00 0.000000e+00
      outer loop
         vertex 4.053233e+03 5.513088e+03 1.000000e+04
         vertex 4.053233e+03 3.623794e+03 0.000000e+00
         vertex 4.053233e+03 3.623794e+03 1.000000e+04
      endloop
   endfacet
   facet normal -5.000000e-01 8.660254e-01 0.000000e+00
      outer loop
         vertex 4.053233e+03 3.623794e+03 0.000000e+00
         vertex 2.417057e+03 2.679147e+03 0.000000e+00
         vertex 4.053233e+03 3.623794e+03 1.000000e+04
      endloop
   endfacet
   facet normal -5.000000e-01 8.660254e-01 0.000000e+00
      outer loop
         vertex 4.053233e+03 3.623794e+03 1.000000e+04
         vertex 2.417057e+03 2.679147e+03 0.000000e+00
         vertex 2.417057e+03 2.679147e+03 1.000000e+04
      endloop
   endfacet
   facet normal 5.000000e-01 8.660254e-01 -0.000000e+00
      outer loop
         vertex 2.417057e+03 2.679147e+03 0.000000e+00
         vertex 7.808804e+02 3.623794e+03 0.000000e+00
         vertex 2.417057e+03 2.679147e+03 1.000000e+04
      endloop
   endfacet
   facet normal 5.000000e-01 8.660254e-01 0.000000e+00
      outer loop
         vertex 2.417057e+03 2.679147e+03 1.000000e+04
         vertex 7.808804e+02 3.623794e+03 0.000000e+00
         vertex 7.808804e+02 3.623794e+03 1.000000e+04
      endloop
   endfacet
   facet normal 1.000000e+00 0.000000e+00 0.000000e+00
      outer loop
         vertex 7.808804e+02 3.623794e+03 0.000000e+00
         vertex 7.808804e+02 5.513088e+03 0.000000e+00
         vertex 7.808804e+02 3.623794e+03 1.000000e+04
      endloop
   endfacet
   facet normal 1.000000e+00 -0.000000e+00 0.000000e+00
      outer loop
         vertex 7.808804e+02 3.623794e+03 1.000000e+04
         vertex 7.808804e+02 5.513088e+03 0.000000e+00
         vertex 7.808804e+02 5.513088e+03 1.000000e+04
      endloop
   endfacet
   facet normal 5.000000e-01 -8.660254e-01 0.000000e+00
      outer loop
         vertex 7.808804e+02 5.513088e+03 0.000000e+00
         vertex 2.417057e+03 6.457735e+03 0.000000e+00
         vertex 7.808804e+02 5.513088e+03 1.000000e+04
      endloop
   endfacet
   facet normal 5.000000e-01 -8.660254e-01 0.000000e+00
      outer loop
         vertex 7.808804e+02 5.513088e+03 1.000000e+04
         vertex 2.417057e+03 6.457735e+03 0.000000e+00
         vertex 2.417057e+03 6.457735e+03 1.000000e+04
      endloop
   endfacet
   facet normal 5.000000e-01 0.000000e+00 8.660254e-01
      outer loop
         vertex 7.372796e+03 3.895698e+03 5.771895e+03
         vertex 6.312180e+03 3.895698e+03 6.384242e+03
         vertex 7.372796e+03 2.220446e-12 5.771895e+03
      endloop
   endfacet
   facet normal 5.000000e-01 0.000000e+00 8.660254e-01
      outer loop
         vertex 7.372796e+03 2.220446e-12 5.771895e+03
         vertex 6.312180e+03 3.895698e+03 6.384242e+03
         vertex 6.312180e+03 8.881784e-13 6.384242e+03
      endloop
   endfacet
   facet normal 1.000000e+00 0.000000e+00 -0.000000e+00
      outer loop
         vertex 6.312180e+03 3.895698e+03 6.384242e+03
         vertex 6.312180e+03 3.895698e+03 7.608936e+03
         vertex 6.312180e+03 0.000000e+00 6.384242e+03
      endloop
   endfacet
   facet normal 1.000000e+00 0.000000e+00 0.000000e+00
      outer loop
         vertex 6.312180e+03 0.000000e+00 6.384242e+03
         vertex 6.312180e+03 3.895698e+03 7.608936e+03
         vertex 6.312180e+03 0.000000e+00 7.608936e+03
      endloop
   endfacet
   facet normal 5.000000e-01 0.000000e+00 -8.660254e-01
      outer loop
         vertex 6.312180e+03 3.895698e+03 7.608936e+03
         vertex 7.372796e+03 3.895698e+03 8.221283e+03
         vertex 6.312180e+03 0.000000e+00 7.608936e+03
      endloop
   endfacet
   facet normal 5.000000e-01 0.000000e+00 -8.660254e-01
      outer loop
         vertex 6.312180e+03 0.000000e+00 7.608936e+03
         vertex 7.372796e+03 3.895698e+03 8.221283e+03
         vertex 7.372796e+03 0.000000e+00 8.221283e+03
      endloop
   endfacet
   facet normal -4.999999e-01 -0.000000e+00 -8.660255e-01
      outer loop
         vertex 7.372796e+03 3.895698e+03 8.221283e+03
         vertex 8.433413e+03 3.895698e+03 7.608936e+03
         vertex 7.372796e+03 1.776357e-12 8.221283e+03
      endloop
   endfacet
   facet normal -4.999999e-01 0.000000e+00 -8.660255e-01
      outer loop
         vertex 7.372796e+03 1.776357e-12 8.221283e+03
         vertex 8.433413e+03 3.895698e+03 7.608936e+03
         vertex 8.433413e+03 1.776357e-12 7.608936e+03
      endloop
   endfacet
   facet normal -1.000000e+00 -0.000000e+00 -0.000000e+00
      outer loop
         vertex 8.433413e+03 3.895698e+03 7.608936e+03
         vertex 8.433413e+03 3.895698e+03 6.384242e+03
         vertex 8.433413e+03 0.000000e+00 7.608936e+03
      endloop
   endfacet
   facet normal -1.000000e+00 0.000000e+00 0.000000e+00
      outer loop
         vertex 8.433413e+03 0.000000e+00 7.608936e+03
         vertex 8.433413e+03 3.895698e+03 6.384242e+03
         vertex 8.433413e+03 0.000000e+00 6.384242e+03
      endloop
   endfacet
   facet normal -4.999998e-01 0.000000e+00 8.660255e-01
      outer loop
         vertex 8.433413e+03 3.895698e+03 6.384242e+03
         vertex 7.372796e+03 3.895698e+03 5.771895e+03
         vertex 8.433413e+03 0.000000e+00 6.384242e+03
      endloop
   endfacet
   facet normal -4.999998e-01 0.000000e+00 8.660255e-01
      outer loop
         vertex 8.433413e+03 0.000000e+00 6.384242e+03
         vertex 7.372796e+03 3.895698e+03 5.771895e+03
         vertex 7.372796e+03 1.332268e-12 5.771895e+03
      endloop
   endfacet
   facet normal -0.000000e+00 -1.000000e+00 0.000000e+00
      outer loop
         vertex 8.433413e+03 3.895698e+03 6.384242e+03
         vertex 8.433413e+03 3.895698e+03 7.608936e+03
         vertex 7.372796e+03 3.895698e+03 5.771895e+03
      endloop
   endfacet
   facet normal 0.000000e+00 -1.000000e+00 0.000000e+00
      outer loop
         vertex 7.372796e+03 3.895698e+03 5.771895e+03
         vertex 8.433413e+03 3.895698e+03 7.608936e+03
         vertex 7.372796e+03 3.895698e+03 8.221283e+03
      endloop
   endfacet
   facet normal 0.000000e+00 -1.000000e+00 0.000000e+00
      outer loop
         vertex 7.372796e+03 3.895698e+03 5.771895e+03
         vertex 7.372796e+03 3.895698e+03 8.221283e+03
         vertex 6.312180e+03 3.895698e+03 6.384242e+03
      endloop
   endfacet
   facet normal 0.000000e+00 -1.000000e+00 0.000000e+00
      outer loop
         vertex 6.312180e+03 3.895698e+03 6.384242e+03
         vertex 7.372796e+03 3.895698e+03 8.221283e+03
         vertex 6.312180e+03 3.895698e+03 7.608936e+03
      endloop
   endfacet
endsolid