solid 115
   facet normal 6.123235e-17 -1.000000e+00 2.449294e-16
      outer loop
         vertex -6.123234e-13 -2.449294e-12 0.000000e+00
         vertex 1.000000e+04 -1.836970e-12 0.000000e+00
         vertex -1.508273e-13 -6.033093e-13 7.536803e+03
      endloop
   endfacet
   facet normal 6.123234e-17 -1.000000e+00 2.449293e-16
      outer loop
         vertex -1.508273e-13 -6.033093e-13 7.536803e+03
         vertex 1.000000e+04 -1.836970e-12 0.000000e+00
         vertex 1.000000e+04 9.014091e-15 7.536803e+03
      endloop
   endfacet
   facet normal 0.000000e+00 0.000000e+00 -1.000000e+00
      outer loop
         vertex 6.088377e+03 8.180810e+03 0.000000e+00
         vertex 1.000000e+04 1.000000e+04 0.000000e+00
         vertex 6.088377e+03 3.776838e+03 0.000000e+00
      endloop
   endfacet
   facet normal 0.000000e+00 0.000000e+00 -1.000000e+00
      outer loop
         vertex 6.088377e+03 3.776838e+03 0.000000e+00
         vertex 1.000000e+04 1.000000e+04 0.000000e+00
         vertex 1.000000e+04 3.749399e-29 0.000000e+00
      endloop
   endfacet
   facet normal -0.000000e+00 -0.000000e+00 -1.000000e+00
      outer loop
         vertex 6.088377e+03 3.776838e+03 0.000000e+00
         vertex 1.000000e+04 3.749399e-29 0.000000e+00
         vertex 2.025170e+03 3.776838e+03 0.000000e+00
      endloop
   endfacet
   facet normal 0.000000e+00 -0.000000e+00 -1.000000e+00
      outer loop
         vertex 2.025170e+03 3.776838e+03 0.000000e+00
         vertex 1.000000e+04 3.749399e-29 0.000000e+00
         vertex -3.749399e-29 9.860761e-29 0.000000e+00
      endloop
   endfacet
   facet normal -0.000000e+00 0.000000e+00 -1.000000e+00
      outer loop
         vertex 2.025170e+03 3.776838e+03 0.000000e+00
         vertex -3.749399e-29 9.860761e-29 0.000000e+00
         vertex 2.025170e+03 8.180810e+03 0.000000e+00
      endloop
   endfacet
   facet normal -0.000000e+00 0.000000e+00 -1.000000e+00
      outer loop
         vertex 2.025170e+03 8.180810e+03 0.000000e+00
         vertex -3.749399e-29 9.860761e-29 0.000000e+00
         vertex -6.123234e-13 1.000000e+04 0.000000e+00
      endloop
   endfacet
   facet normal 0.000000e+00 0.000000e+00 -1.000000e+00
      outer loop
         vertex 2.025170e+03 8.180810e+03 0.000000e+00
         vertex -6.123234e-13 1.000000e+04 0.000000e+00
         vertex 6.088377e+03 8.180810e+03 0.000000e+00
      endloop
   endfacet
   facet normal 0.000000e+00 0.000000e+00 -1.000000e+00
      outer loop
         vertex 6.088377e+03 8.180810e+03 0.000000e+00
         vertex -6.123234e-13 1.000000e+04 0.000000e+00
         vertex 1.000000e+04 1.000000e+04 0.000000e+00
      endloop
   endfacet
   facet normal 0.000000e+00 1.000000e+00 0.000000e+00
      outer loop
         vertex 1.000000e+04 1.000000e+04 1.000000e+04
         vertex 1.000000e+04 1.000000e+04 0.000000e+00
         vertex 7.127649e-29 1.000000e+04 1.000000e+04
      endloop
   endfacet
   facet normal 0.000000e+00 1.000000e+00 0.000000e+00
      outer loop
         vertex 7.127649e-29 1.000000e+04 1.000000e+04
         vertex 1.000000e+04 1.000000e+04 0.000000e+00
         vertex -6.123234e-13 1.000000e+04 0.000000e+00
      endloop
   endfacet
   facet normal 6.123234e-17 2.449293e-16 1.000000e+00
      outer loop
         vertex -6.123234e-13 1.000000e+04 1.000000e+04
         vertex -1.237526e-13 2.021034e+03 1.000000e+04
         vertex 3.704821e+03 4.340309e+03 1.000000e+04
      endloop
   endfacet
   facet normal 6.123234e-17 2.449293e-16 1.000000e+00
      outer loop
         vertex 3.704821e+03 4.340309e+03 1.000000e+04
         vertex -1.237526e-13 2.021034e+03 1.000000e+04
         vertex 1.000000e+04 2.021034e+03 1.000000e+04
      endloop
   endfacet
   facet normal 6.123235e-17 2.449294e-16 1.000000e+00
      outer loop
         vertex 3.704821e+03 4.340309e+03 1.000000e+04
         vertex 1.000000e+04 2.021034e+03 1.000000e+04
         vertex 6.316848e+03 5.848364e+03 1.000000e+04
      endloop
   endfacet
   facet normal 6.123234e-17 2.449294e-16 1.000000e+00
      outer loop
         vertex 6.316848e+03 5.848364e+03 1.000000e+04
         vertex 1.000000e+04 2.021034e+03 1.000000e+04
         vertex 1.000000e+04 1.000000e+04 1.000000e+04
      endloop
   endfacet
   facet normal 6.123233e-17 2.449294e-16 1.000000e+00
      outer loop
         vertex 6.316848e+03 5.848364e+03 1.000000e+04
         vertex 1.000000e+04 1.000000e+04 1.000000e+04
         vertex 3.704821e+03 7.356419e+03 1.000000e+04
      endloop
   endfacet
   facet normal 6.123235e-17 2.449293e-16 1.000000e+00
      outer loop
         vertex 3.704821e+03 7.356419e+03 1.000000e+04
         vertex 1.000000e+04 1.000000e+04 1.000000e+04
         vertex -6.123234e-13 1.000000e+04 1.000000e+04
      endloop
   endfacet
   facet normal 6.123240e-17 2.449294e-16 1.000000e+00
      outer loop
         vertex 3.704821e+03 7.356419e+03 1.000000e+04
         vertex -6.123234e-13 1.000000e+04 1.000000e+04
         vertex 3.704821e+03 4.340309e+03 1.000000e+04
      endloop
   endfacet
   facet normal 1.000000e+00 0.000000e+00 0.000000e+00
      outer loop
         vertex 1.000000e+04 1.000000e+04 1.000000e+04
         vertex 1.000000e+04 2.021034e+03 1.000000e+04
         vertex 1.000000e+04 1.000000e+04 0.000000e+00
      endloop
   endfacet
   facet normal 1.000000e+00 0.000000e+00 0.000000e+00
      outer loop
         vertex 1.000000e+04 1.000000e+04 0.000000e+00
         vertex 1.000000e+04 2.021034e+03 1.000000e+04
         vertex 1.000000e+04 4.614961e-13 7.536803e+03
      endloop
   endfacet
   facet normal 1.000000e+00 0.000000e+00 0.000000e+00
      outer loop
         vertex 1.000000e+04 1.000000e+04 0.000000e+00
         vertex 1.000000e+04 4.614961e-13 7.536803e+03
         vertex 1.000000e+04 0.000000e+00 0.000000e+00
      endloop
   endfacet
   facet normal -1.000000e+00 -6.123234e-17 6.123234e-17
      outer loop
         vertex -1.237526e-13 2.021034e+03 1.000000e+04
         vertex -6.123234e-13 1.000000e+04 1.000000e+04
         vertex -1.508273e-13 4.614961e-13 7.536803e+03
      endloop
   endfacet
   facet normal -1.000000e+00 -6.123234e-17 6.123234e-17
      outer loop
         vertex -1.508273e-13 4.614961e-13 7.536803e+03
         vertex -6.123234e-13 1.000000e+04 1.000000e+04
         vertex -1.224647e-12 1.000000e+04 0.000000e+00
      endloop
   endfacet
   facet normal -1.000000e+00 -6.123234e-17 6.123234e-17
      outer loop
         vertex -1.508273e-13 4.614961e-13 7.536803e+03
         vertex -1.224647e-12 1.000000e+04 0.000000e+00
         vertex -6.123234e-13 0.000000e+00 0.000000e+00
      endloop
   endfacet
   facet normal 5.150448e-17 -7.730812e-01 6.343070e-01
      outer loop
         vertex 1.000000e+04 4.614961e-13 7.536803e+03
         vertex 1.000000e+04 2.021034e+03 1.000000e+04
         vertex 0.000000e+00 -2.047274e-13 7.536803e+03
      endloop
   endfacet
   facet normal 0.000000e+00 -7.730812e-01 6.343070e-01
      outer loop
         vertex 0.000000e+00 -2.047274e-13 7.536803e+03
         vertex 1.000000e+04 2.021034e+03 1.000000e+04
         vertex 0.000000e+00 2.021034e+03 1.000000e+04
      endloop
   endfacet
   facet normal -5.000000e-01 8.660254e-01 0.000000e+00
      outer loop
         vertex 6.316848e+03 5.848364e+03 6.158195e+03
         vertex 3.704821e+03 4.340309e+03 6.158195e+03
         vertex 6.316848e+03 5.848364e+03 1.000000e+04
      endloop
   endfacet
   facet normal -5.000000e-01 8.660254e-01 0.000000e+00
      outer loop
         vertex 6.316848e+03 5.848364e+03 1.000000e+04
         vertex 3.704821e+03 4.340309e+03 6.158195e+03
         vertex 3.704821e+03 4.340309e+03 1.000000e+04
      endloop
   endfacet
   facet normal 1.000000e+00 0.000000e+00 0.000000e+00
      outer loop
         vertex 3.704821e+03 4.340309e+03 6.158195e+03
         vertex 3.704821e+03 7.356419e+03 6.158195e+03
         vertex 3.704821e+03 4.340309e+03 1.000000e+04
      endloop
   endfacet
   facet normal 1.000000e+00 -0.000000e+00 0.000000e+00
      outer loop
         vertex 3.704821e+03 4.340309e+03 1.000000e+04
         vertex 3.704821e+03 7.356419e+03 6.158195e+03
         vertex 3.704821e+03 7.356419e+03 1.000000e+04
      endloop
   endfacet
   facet normal -5.000000e-01 -8.660254e-01 0.000000e+00
      outer loop
         vertex 3.704821e+03 7.356419e+03 6.158195e+03
         vertex 6.316848e+03 5.848364e+03 6.158195e+03
         vertex 3.704821e+03 7.356419e+03 1.000000e+04
      endloop
   endfacet
   facet normal -5.000000e-01 -8.660254e-01 0.000000e+00
      outer loop
         vertex 3.704821e+03 7.356419e+03 1.000000e+04
         vertex 6.316848e+03 5.848364e+03 6.158195e+03
         vertex 6.316848e+03 5.848364e+03 1.000000e+04
      endloop
   endfacet
   facet normal 0.000000e+00 0.000000e+00 1.000000e+00
      outer loop
         vertex 6.316848e+03 5.848364e+03 6.158195e+03
         vertex 3.704821e+03 7.356419e+03 6.158195e+03
         vertex 3.704821e+03 4.340309e+03 6.158195e+03
      endloop
   endfacet
   facet normal -0.000000e+00 -1.000000e+00 -0.000000e+00
      outer loop
         vertex 6.088377e+03 8.180810e+03 2.081447e+03
         vertex 2.025170e+03 8.180810e+03 2.081447e+03
         vertex 6.088377e+03 8.180810e+03 0.000000e+00
      endloop
   endfacet
   facet normal 0.000000e+00 -1.000000e+00 0.000000e+00
      outer loop
         vertex 6.088377e+03 8.180810e+03 0.000000e+00
         vertex 2.025170e+03 8.180810e+03 2.081447e+03
         vertex 2.025170e+03 8.180810e+03 0.000000e+00
      endloop
   endfacet
   facet normal 1.000000e+00 0.000000e+00 0.000000e+00
      outer loop
         vertex 2.025170e+03 8.180810e+03 2.081447e+03
         vertex 2.025170e+03 3.776838e+03 2.081447e+03
         vertex 2.025170e+03 8.180810e+03 0.000000e+00
      endloop
   endfacet
   facet normal 1.000000e+00 0.000000e+00 0.000000e+00
      outer loop
         vertex 2.025170e+03 8.180810e+03 0.000000e+00
         vertex 2.025170e+03 3.776838e+03 2.081447e+03
         vertex 2.025170e+03 3.776838e+03 0.000000e+00
      endloop
   endfacet
   facet normal -0.000000e+00 1.000000e+00 0.000000e+00
      outer loop
         vertex 2.025170e+03 3.776838e+03 2.081447e+03
         vertex 6.088377e+03 3.776838e+03 2.081447e+03
         vertex 2.025170e+03 3.776838e+03 0.000000e+00
      endloop
   endfacet
   facet normal 0.000000e+00 1.000000e+00 0.000000e+00
      outer loop
         vertex 2.025170e+03 3.776838e+03 0.000000e+00
         vertex 6.088377e+03 3.776838e+03 2.081447e+03
         vertex 6.088377e+03 3.776838e+03 0.000000e+00
      endloop
   endfacet
   facet normal -1.000000e+00 0.000000e+00 0.000000e+00
      outer loop
         vertex 6.088377e+03 3.776838e+03 2.081447e+03
         vertex 6.088377e+03 8.180810e+03 2.081447e+03
         vertex 6.088377e+03 3.776838e+03 0.000000e+00
      endloop
   endfacet
   facet normal -1.000000e+00 0.000000e+00 0.000000e+00
      outer loop
         vertex 6.088377e+03 3.776838e+03 0.000000e+00
         vertex 6.088377e+03 8.180810e+03 2.081447e+03
         vertex 6.088377e+03 8.180810e+03 0.000000e+00
      endloop
   endfacet
   facet normal 0.000000e+00 0.000000e+00 -1.000000e+00
      outer loop
         vertex 6.088377e+03 3.776838e+03 2.081447e+03
         vertex 2.025170e+03 3.776838e+03 2.081447e+03
         vertex 6.088377e+03 8.180810e+03 2.081447e+03
      endloop
   endfacet
   facet normal -0.000000e+00 0.000000e+00 -1.000000e+00
      outer loop
         vertex 6.088377e+03 8.180810e+03 2.081447e+03
         vertex 2.025170e+03 3.776838e+03 2.081447e+03
         vertex 2.025170e+03 8.180810e+03 2.081447e+03
      endloop
   endfacet
endsolid