solid 134
   facet normal 1.224647e-16 -1.000000e+00 1.224647e-16
      outer loop
         vertex 1.126647e-13 -1.224647e-12 0.000000e+00
         vertex 1.000000e+04 7.498799e-29 0.000000e+00
         vertex -8.837513e-14 -8.225671e-13 3.283230e+03
      endloop
   endfacet
   facet normal 1.224647e-16 -1.000000e+00 1.224647e-16
      outer loop
         vertex -8.837513e-14 -8.225671e-13 3.283230e+03
         vertex 1.000000e+04 7.498799e-29 0.000000e+00
         vertex 1.000000e+04 4.020797e-13 3.283230e+03
      endloop
   endfacet
   facet normal 0.000000e+00 0.000000e+00 -1.000000e+00
      outer loop
         vertex 1.000000e+04 1.000000e+04 0.000000e+00
         vertex 5.064816e+03 4.382811e+03 0.000000e+00
         vertex 4.911982e+03 4.710566e+03 0.000000e+00
      endloop
   endfacet
   facet normal -0.000000e+00 0.000000e+00 -1.000000e+00
      outer loop
         vertex 2.755012e+03 5.716377e+03 0.000000e+00
         vertex 2.405698e+03 5.622778e+03 0.000000e+00
         vertex 6.643748e-13 1.000000e+04 0.000000e+00
      endloop
   endfacet
   facet normal 0.000000e+00 0.000000e+00 -1.000000e+00
      outer loop
         vertex 6.643748e-13 1.000000e+04 0.000000e+00
         vertex 2.405698e+03 5.622778e+03 0.000000e+00
         vertex 2.077943e+03 5.469944e+03 0.000000e+00
      endloop
   endfacet
   facet normal 0.000000e+00 0.000000e+00 -1.000000e+00
      outer loop
         vertex 6.643748e-13 1.000000e+04 0.000000e+00
         vertex 2.077943e+03 5.469944e+03 0.000000e+00
         vertex 1.781707e+03 5.262517e+03 0.000000e+00
      endloop
   endfacet
   facet normal -0.000000e+00 0.000000e+00 -1.000000e+00
      outer loop
         vertex 1.781707e+03 5.262517e+03 0.000000e+00
         vertex 1.525991e+03 5.006802e+03 0.000000e+00
         vertex 6.643748e-13 1.000000e+04 0.000000e+00
      endloop
   endfacet
   facet normal 0.000000e+00 0.000000e+00 -1.000000e+00
      outer loop
         vertex 6.643748e-13 1.000000e+04 0.000000e+00
         vertex 1.525991e+03 5.006802e+03 0.000000e+00
         vertex 1.318565e+03 4.710566e+03 0.000000e+00
      endloop
   endfacet
   facet normal 0.000000e+00 0.000000e+00 -1.000000e+00
      outer loop
         vertex 6.643748e-13 1.000000e+04 0.000000e+00
         vertex 1.318565e+03 4.710566e+03 0.000000e+00
         vertex 1.165730e+03 4.382811e+03 0.000000e+00
      endloop
   endfacet
   facet normal 0.000000e+00 0.000000e+00 -1.000000e+00
      outer loop
         vertex 4.911982e+03 4.710566e+03 0.000000e+00
         vertex 4.704555e+03 5.006802e+03 0.000000e+00
         vertex 1.000000e+04 1.000000e+04 0.000000e+00
      endloop
   endfacet
   facet normal 0.000000e+00 0.000000e+00 -1.000000e+00
      outer loop
         vertex 1.000000e+04 1.000000e+04 0.000000e+00
         vertex 4.704555e+03 5.006802e+03 0.000000e+00
         vertex 4.448839e+03 5.262517e+03 0.000000e+00
      endloop
   endfacet
   facet normal 0.000000e+00 0.000000e+00 -1.000000e+00
      outer loop
         vertex 1.000000e+04 1.000000e+04 0.000000e+00
         vertex 4.448839e+03 5.262517e+03 0.000000e+00
         vertex 4.152603e+03 5.469944e+03 0.000000e+00
      endloop
   endfacet
   facet normal 0.000000e+00 0.000000e+00 -1.000000e+00
      outer loop
         vertex 4.911982e+03 2.635906e+03 0.000000e+00
         vertex 5.064816e+03 2.963660e+03 0.000000e+00
         vertex 1.000000e+04 7.498799e-29 0.000000e+00
      endloop
   endfacet
   facet normal -0.000000e+00 0.000000e+00 -1.000000e+00
      outer loop
         vertex 1.165730e+03 4.382811e+03 0.000000e+00
         vertex 1.072132e+03 4.033497e+03 0.000000e+00
         vertex 6.643748e-13 1.000000e+04 0.000000e+00
      endloop
   endfacet
   facet normal 0.000000e+00 0.000000e+00 -1.000000e+00
      outer loop
         vertex 6.643748e-13 1.000000e+04 0.000000e+00
         vertex 1.072132e+03 4.033497e+03 0.000000e+00
         vertex 1.040613e+03 3.673236e+03 0.000000e+00
      endloop
   endfacet
   facet normal 0.000000e+00 -0.000000e+00 -1.000000e+00
      outer loop
         vertex 6.643748e-13 1.000000e+04 0.000000e+00
         vertex 1.040613e+03 3.673236e+03 0.000000e+00
         vertex 1.126647e-13 1.972152e-28 0.000000e+00
      endloop
   endfacet
   facet normal 0.000000e+00 0.000000e+00 -1.000000e+00
      outer loop
         vertex 1.126647e-13 1.972152e-28 0.000000e+00
         vertex 1.040613e+03 3.673236e+03 0.000000e+00
         vertex 1.072132e+03 3.312975e+03 0.000000e+00
      endloop
   endfacet
   facet normal 0.000000e+00 0.000000e+00 -1.000000e+00
      outer loop
         vertex 3.824849e+03 1.723693e+03 0.000000e+00
         vertex 4.152603e+03 1.876527e+03 0.000000e+00
         vertex 1.000000e+04 7.498799e-29 0.000000e+00
      endloop
   endfacet
   facet normal 0.000000e+00 0.000000e+00 -1.000000e+00
      outer loop
         vertex 5.064816e+03 2.963660e+03 0.000000e+00
         vertex 5.158415e+03 3.312975e+03 0.000000e+00
         vertex 1.000000e+04 7.498799e-29 0.000000e+00
      endloop
   endfacet
   facet normal 0.000000e+00 0.000000e+00 -1.000000e+00
      outer loop
         vertex 1.000000e+04 7.498799e-29 0.000000e+00
         vertex 5.158415e+03 3.312975e+03 0.000000e+00
         vertex 5.189933e+03 3.673236e+03 0.000000e+00
      endloop
   endfacet
   facet normal 0.000000e+00 0.000000e+00 -1.000000e+00
      outer loop
         vertex 1.000000e+04 7.498799e-29 0.000000e+00
         vertex 5.189933e+03 3.673236e+03 0.000000e+00
         vertex 1.000000e+04 1.000000e+04 0.000000e+00
      endloop
   endfacet
   facet normal 0.000000e+00 0.000000e+00 -1.000000e+00
      outer loop
         vertex 1.000000e+04 1.000000e+04 0.000000e+00
         vertex 5.189933e+03 3.673236e+03 0.000000e+00
         vertex 5.158415e+03 4.033497e+03 0.000000e+00
      endloop
   endfacet
   facet normal 0.000000e+00 0.000000e+00 -1.000000e+00
      outer loop
         vertex 1.000000e+04 1.000000e+04 0.000000e+00
         vertex 5.158415e+03 4.033497e+03 0.000000e+00
         vertex 5.064816e+03 4.382811e+03 0.000000e+00
      endloop
   endfacet
   facet normal 0.000000e+00 0.000000e+00 -1.000000e+00
      outer loop
         vertex 4.152603e+03 5.469944e+03 0.000000e+00
         vertex 3.824849e+03 5.622778e+03 0.000000e+00
         vertex 1.000000e+04 1.000000e+04 0.000000e+00
      endloop
   endfacet
   facet normal 0.000000e+00 0.000000e+00 -1.000000e+00
      outer loop
         vertex 1.000000e+04 1.000000e+04 0.000000e+00
         vertex 3.824849e+03 5.622778e+03 0.000000e+00
         vertex 3.475534e+03 5.716377e+03 0.000000e+00
      endloop
   endfacet
   facet normal -0.000000e+00 0.000000e+00 -1.000000e+00
      outer loop
         vertex 1.000000e+04 1.000000e+04 0.000000e+00
         vertex 3.475534e+03 5.716377e+03 0.000000e+00
         vertex 6.643748e-13 1.000000e+04 0.000000e+00
      endloop
   endfacet
   facet normal 0.000000e+00 0.000000e+00 -1.000000e+00
      outer loop
         vertex 6.643748e-13 1.000000e+04 0.000000e+00
         vertex 3.475534e+03 5.716377e+03 0.000000e+00
         vertex 3.115273e+03 5.747896e+03 0.000000e+00
      endloop
   endfacet
   facet normal 0.000000e+00 0.000000e+00 -1.000000e+00
      outer loop
         vertex 6.643748e-13 1.000000e+04 0.000000e+00
         vertex 3.115273e+03 5.747896e+03 0.000000e+00
         vertex 2.755012e+03 5.716377e+03 0.000000e+00
      endloop
   endfacet
   facet normal 0.000000e+00 -0.000000e+00 -1.000000e+00
      outer loop
         vertex 1.072132e+03 3.312975e+03 0.000000e+00
         vertex 1.165730e+03 2.963660e+03 0.000000e+00
         vertex 1.126647e-13 1.972152e-28 0.000000e+00
      endloop
   endfacet
   facet normal 0.000000e+00 0.000000e+00 -1.000000e+00
      outer loop
         vertex 1.126647e-13 1.972152e-28 0.000000e+00
         vertex 1.165730e+03 2.963660e+03 0.000000e+00
         vertex 1.318565e+03 2.635906e+03 0.000000e+00
      endloop
   endfacet
   facet normal 0.000000e+00 0.000000e+00 -1.000000e+00
      outer loop
         vertex 1.126647e-13 1.972152e-28 0.000000e+00
         vertex 1.318565e+03 2.635906e+03 0.000000e+00
         vertex 1.525991e+03 2.339670e+03 0.000000e+00
      endloop
   endfacet
   facet normal 0.000000e+00 0.000000e+00 -1.000000e+00
      outer loop
         vertex 4.152603e+03 1.876527e+03 0.000000e+00
         vertex 4.448839e+03 2.083954e+03 0.000000e+00
         vertex 1.000000e+04 7.498799e-29 0.000000e+00
      endloop
   endfacet
   facet normal 0.000000e+00 0.000000e+00 -1.000000e+00
      outer loop
         vertex 1.000000e+04 7.498799e-29 0.000000e+00
         vertex 4.448839e+03 2.083954e+03 0.000000e+00
         vertex 4.704555e+03 2.339670e+03 0.000000e+00
      endloop
   endfacet
   facet normal 0.000000e+00 0.000000e+00 -1.000000e+00
      outer loop
         vertex 1.000000e+04 7.498799e-29 0.000000e+00
         vertex 4.704555e+03 2.339670e+03 0.000000e+00
         vertex 4.911982e+03 2.635906e+03 0.000000e+00
      endloop
   endfacet
   facet normal 0.000000e+00 -0.000000e+00 -1.000000e+00
      outer loop
         vertex 1.525991e+03 2.339670e+03 0.000000e+00
         vertex 1.781707e+03 2.083954e+03 0.000000e+00
         vertex 1.126647e-13 1.972152e-28 0.000000e+00
      endloop
   endfacet
   facet normal 0.000000e+00 0.000000e+00 -1.000000e+00
      outer loop
         vertex 1.126647e-13 1.972152e-28 0.000000e+00
         vertex 1.781707e+03 2.083954e+03 0.000000e+00
         vertex 2.077943e+03 1.876527e+03 0.000000e+00
      endloop
   endfacet
   facet normal 0.000000e+00 0.000000e+00 -1.000000e+00
      outer loop
         vertex 1.126647e-13 1.972152e-28 0.000000e+00
         vertex 2.077943e+03 1.876527e+03 0.000000e+00
         vertex 2.405698e+03 1.723693e+03 0.000000e+00
      endloop
   endfacet
   facet normal 0.000000e+00 -0.000000e+00 -1.000000e+00
      outer loop
         vertex 2.405698e+03 1.723693e+03 0.000000e+00
         vertex 2.755012e+03 1.630094e+03 0.000000e+00
         vertex 1.126647e-13 1.972152e-28 0.000000e+00
      endloop
   endfacet
   facet normal 0.000000e+00 0.000000e+00 -1.000000e+00
      outer loop
         vertex 1.126647e-13 1.972152e-28 0.000000e+00
         vertex 2.755012e+03 1.630094e+03 0.000000e+00
         vertex 3.115273e+03 1.598575e+03 0.000000e+00
      endloop
   endfacet
   facet normal 0.000000e+00 0.000000e+00 -1.000000e+00
      outer loop
         vertex 1.126647e-13 1.972152e-28 0.000000e+00
         vertex 3.115273e+03 1.598575e+03 0.000000e+00
         vertex 1.000000e+04 7.498799e-29 0.000000e+00
      endloop
   endfacet
   facet normal 0.000000e+00 0.000000e+00 -1.000000e+00
      outer loop
         vertex 1.000000e+04 7.498799e-29 0.000000e+00
         vertex 3.115273e+03 1.598575e+03 0.000000e+00
         vertex 3.475534e+03 1.630094e+03 0.000000e+00
      endloop
   endfacet
   facet normal 0.000000e+00 0.000000e+00 -1.000000e+00
      outer loop
         vertex 1.000000e+04 7.498799e-29 0.000000e+00
         vertex 3.475534e+03 1.630094e+03 0.000000e+00
         vertex 3.824849e+03 1.723693e+03 0.000000e+00
      endloop
   endfacet
   facet normal 0.000000e+00 1.000000e+00 0.000000e+00
      outer loop
         vertex 1.000000e+04 1.000000e+04 1.000000e+04
         vertex 1.000000e+04 1.000000e+04 0.000000e+00
         vertex -4.996587e-13 1.000000e+04 1.000000e+04
      endloop
   endfacet
   facet normal 0.000000e+00 1.000000e+00 0.000000e+00
      outer loop
         vertex -4.996587e-13 1.000000e+04 1.000000e+04
         vertex 1.000000e+04 1.000000e+04 0.000000e+00
         vertex 1.126647e-13 1.000000e+04 0.000000e+00
      endloop
   endfacet
   facet normal -6.123234e-17 1.224647e-16 1.000000e+00
      outer loop
         vertex 1.000000e+04 6.123234e-13 1.000000e+04
         vertex 1.000000e+04 1.000000e+04 1.000000e+04
         vertex 1.126647e-13 6.123234e-13 1.000000e+04
      endloop
   endfacet
   facet normal -6.123233e-17 1.224647e-16 1.000000e+00
      outer loop
         vertex 1.126647e-13 6.123234e-13 1.000000e+04
         vertex 1.000000e+04 1.000000e+04 1.000000e+04
         vertex 6.643748e-13 1.000000e+04 1.000000e+04
      endloop
   endfacet
   facet normal 1.224647e-16 -1.000000e+00 1.224647e-16
      outer loop
         vertex 1.000000e+04 1.224647e-12 1.000000e+04
         vertex -4.996587e-13 -1.972152e-28 1.000000e+04
         vertex 1.000000e+04 7.821773e-13 6.386962e+03
      endloop
   endfacet
   facet normal 1.224647e-16 -1.000000e+00 1.224647e-16
      outer loop
         vertex 1.000000e+04 7.821773e-13 6.386962e+03
         vertex -4.996587e-13 -1.972152e-28 1.000000e+04
         vertex -2.784239e-13 -4.424695e-13 6.386962e+03
      endloop
   endfacet
   facet normal 1.000000e+00 0.000000e+00 0.000000e+00
      outer loop
         vertex 1.000000e+04 1.551866e+03 4.835096e+03
         vertex 1.000000e+04 2.010398e-13 3.283230e+03
         vertex 1.000000e+04 7.498799e-29 0.000000e+00
      endloop
   endfacet
   facet normal 1.000000e+00 -0.000000e+00 0.000000e+00
      outer loop
         vertex 1.000000e+04 6.123234e-13 1.000000e+04
         vertex 1.000000e+04 3.910886e-13 6.386962e+03
         vertex 1.000000e+04 1.000000e+04 1.000000e+04
      endloop
   endfacet
   facet normal 1.000000e+00 0.000000e+00 0.000000e+00
      outer loop
         vertex 1.000000e+04 1.000000e+04 1.000000e+04
         vertex 1.000000e+04 3.910886e-13 6.386962e+03
         vertex 1.000000e+04 1.551866e+03 4.835096e+03
      endloop
   endfacet
   facet normal 1.000000e+00 0.000000e+00 0.000000e+00
      outer loop
         vertex 1.000000e+04 1.000000e+04 1.000000e+04
         vertex 1.000000e+04 1.551866e+03 4.835096e+03
         vertex 1.000000e+04 1.000000e+04 0.000000e+00
      endloop
   endfacet
   facet normal 1.000000e+00 0.000000e+00 0.000000e+00
      outer loop
         vertex 1.000000e+04 1.000000e+04 0.000000e+00
         vertex 1.000000e+04 1.551866e+03 4.835096e+03
         vertex 1.000000e+04 7.498799e-29 0.000000e+00
      endloop
   endfacet
   facet normal -1.000000e+00 -1.224646e-16 -6.123220e-17
      outer loop
         vertex -1.064548e-12 5.286695e+03 8.651944e+03
         vertex -1.020650e-12 4.996019e+03 8.516400e+03
         vertex -4.996587e-13 6.123234e-13 1.000000e+04
      endloop
   endfacet
   facet normal -1.000000e+00 -1.224647e-16 -6.123252e-17
      outer loop
         vertex -4.996587e-13 6.123234e-13 1.000000e+04
         vertex -1.020650e-12 4.996019e+03 8.516400e+03
         vertex -9.772117e-13 4.733297e+03 8.332440e+03
      endloop
   endfacet
   facet normal -1.000000e+00 -1.224646e-16 -6.123215e-17
      outer loop
         vertex -4.996587e-13 6.123234e-13 1.000000e+04
         vertex -9.772117e-13 4.733297e+03 8.332440e+03
         vertex -9.355517e-13 4.506510e+03 8.105653e+03
      endloop
   endfacet
   facet normal -1.000000e+00 -1.224646e-16 -6.123255e-17
      outer loop
         vertex -7.907127e-13 4.506510e+03 5.740253e+03
         vertex -3.734483e-13 1.551866e+03 4.835096e+03
         vertex -7.842712e-13 4.322549e+03 6.002975e+03
      endloop
   endfacet
   facet normal -1.000000e+00 -1.224648e-16 -6.123211e-17
      outer loop
         vertex -7.842712e-13 4.322549e+03 6.002975e+03
         vertex -3.734483e-13 1.551866e+03 4.835096e+03
         vertex -7.854705e-13 4.187005e+03 6.293651e+03
      endloop
   endfacet
   facet normal -1.000000e+00 -1.224646e-16 -6.123318e-17
      outer loop
         vertex -3.734483e-13 1.551866e+03 4.835096e+03
         vertex -8.528072e-13 5.286695e+03 5.193961e+03
         vertex -8.856634e-13 5.596492e+03 5.110951e+03
      endloop
   endfacet
   facet normal -1.000000e+00 -1.224646e-16 -6.123244e-17
      outer loop
         vertex -7.854705e-13 4.187005e+03 6.293651e+03
         vertex -3.734483e-13 1.551866e+03 4.835096e+03
         vertex -7.942743e-13 4.103995e+03 6.603448e+03
      endloop
   endfacet
   facet normal -1.000000e+00 -1.224647e-16 -6.123232e-17
      outer loop
         vertex -7.942743e-13 4.103995e+03 6.603448e+03
         vertex -3.734483e-13 1.551866e+03 4.835096e+03
         vertex -2.784239e-13 3.910886e-13 6.386962e+03
      endloop
   endfacet
   facet normal -1.000000e+00 -1.224647e-16 -6.123232e-17
      outer loop
         vertex -7.942743e-13 4.103995e+03 6.603448e+03
         vertex -2.784239e-13 3.910886e-13 6.386962e+03
         vertex -8.104151e-13 4.076042e+03 6.922953e+03
      endloop
   endfacet
   facet normal -1.000000e+00 -1.224646e-16 -6.123240e-17
      outer loop
         vertex -7.907127e-13 4.506510e+03 5.740253e+03
         vertex -8.045993e-13 4.733297e+03 5.513466e+03
         vertex -3.734483e-13 1.551866e+03 4.835096e+03
      endloop
   endfacet
   facet normal -1.000000e+00 -1.224647e-16 -6.123205e-17
      outer loop
         vertex -3.734483e-13 1.551866e+03 4.835096e+03
         vertex -8.045993e-13 4.733297e+03 5.513466e+03
         vertex -8.255093e-13 4.996019e+03 5.329505e+03
      endloop
   endfacet
   facet normal -1.000000e+00 -1.224647e-16 -6.123202e-17
      outer loop
         vertex -3.734483e-13 1.551866e+03 4.835096e+03
         vertex -8.255093e-13 4.996019e+03 5.329505e+03
         vertex -8.528072e-13 5.286695e+03 5.193961e+03
      endloop
   endfacet
   facet normal -1.000000e+00 -1.224647e-16 -6.123232e-17
      outer loop
         vertex -1.094277e-12 7.098697e+03 5.513466e+03
         vertex -1.135937e-12 7.325483e+03 5.740253e+03
         vertex -1.111982e-12 1.000000e+04 0.000000e+00
      endloop
   endfacet
   facet normal -1.000000e+00 -1.224648e-16 -6.123240e-17
      outer loop
         vertex -1.111982e-12 1.000000e+04 0.000000e+00
         vertex -1.135937e-12 7.325483e+03 5.740253e+03
         vertex -1.174553e-12 7.509444e+03 6.002975e+03
      endloop
   endfacet
   facet normal -1.000000e+00 -1.224649e-16 -6.123245e-17
      outer loop
         vertex -1.174553e-12 7.509444e+03 6.002975e+03
         vertex -1.208951e-12 7.644988e+03 6.293651e+03
         vertex -1.111982e-12 1.000000e+04 0.000000e+00
      endloop
   endfacet
   facet normal -1.000000e+00 -1.224642e-16 -6.123216e-17
      outer loop
         vertex -1.111982e-12 1.000000e+04 0.000000e+00
         vertex -1.208951e-12 7.644988e+03 6.293651e+03
         vertex -1.238087e-12 7.727998e+03 6.603448e+03
      endloop
   endfacet
   facet normal -1.000000e+00 -1.224647e-16 -6.123233e-17
      outer loop
         vertex -1.111982e-12 1.000000e+04 0.000000e+00
         vertex -1.238087e-12 7.727998e+03 6.603448e+03
         vertex -1.724305e-12 1.000000e+04 1.000000e+04
      endloop
   endfacet
   facet normal -1.000000e+00 -1.224643e-16 -6.123260e-17
      outer loop
         vertex -1.724305e-12 1.000000e+04 1.000000e+04
         vertex -1.238087e-12 7.727998e+03 6.603448e+03
         vertex -1.261074e-12 7.755951e+03 6.922953e+03
      endloop
   endfacet
   facet normal -1.000000e+00 -1.224649e-16 -6.123215e-17
      outer loop
         vertex -1.724305e-12 1.000000e+04 1.000000e+04
         vertex -1.261074e-12 7.755951e+03 6.922953e+03
         vertex -1.277215e-12 7.727998e+03 7.242457e+03
      endloop
   endfacet
   facet normal -1.000000e+00 -1.224644e-16 -6.123253e-17
      outer loop
         vertex -1.277215e-12 7.727998e+03 7.242457e+03
         vertex -1.286019e-12 7.644988e+03 7.552254e+03
         vertex -1.724305e-12 1.000000e+04 1.000000e+04
      endloop
   endfacet
   facet normal -1.000000e+00 -1.224648e-16 -6.123213e-17
      outer loop
         vertex -1.724305e-12 1.000000e+04 1.000000e+04
         vertex -1.286019e-12 7.644988e+03 7.552254e+03
         vertex -1.287218e-12 7.509444e+03 7.842930e+03
      endloop
   endfacet
   facet normal -1.000000e+00 -1.224645e-16 -6.123247e-17
      outer loop
         vertex -1.724305e-12 1.000000e+04 1.000000e+04
         vertex -1.287218e-12 7.509444e+03 7.842930e+03
         vertex -1.280776e-12 7.325483e+03 8.105653e+03
      endloop
   endfacet
   facet normal -1.000000e+00 -1.224647e-16 -6.123243e-17
      outer loop
         vertex -9.355517e-13 4.506510e+03 8.105653e+03
         vertex -8.969359e-13 4.322549e+03 7.842930e+03
         vertex -4.996587e-13 6.123234e-13 1.000000e+04
      endloop
   endfacet
   facet normal -1.000000e+00 -1.224648e-16 -6.123252e-17
      outer loop
         vertex -4.996587e-13 6.123234e-13 1.000000e+04
         vertex -8.969359e-13 4.322549e+03 7.842930e+03
         vertex -8.625377e-13 4.187005e+03 7.552254e+03
      endloop
   endfacet
   facet normal -1.000000e+00 -1.224647e-16 -6.123234e-17
      outer loop
         vertex -4.996587e-13 6.123234e-13 1.000000e+04
         vertex -8.625377e-13 4.187005e+03 7.552254e+03
         vertex -2.784239e-13 3.910886e-13 6.386962e+03
      endloop
   endfacet
   facet normal -1.000000e+00 -1.224647e-16 -6.123215e-17
      outer loop
         vertex -2.784239e-13 3.910886e-13 6.386962e+03
         vertex -8.625377e-13 4.187005e+03 7.552254e+03
         vertex -8.334024e-13 4.103995e+03 7.242457e+03
      endloop
   endfacet
   facet normal -1.000000e+00 -1.224647e-16 -6.123238e-17
      outer loop
         vertex -2.784239e-13 3.910886e-13 6.386962e+03
         vertex -8.334024e-13 4.103995e+03 7.242457e+03
         vertex -8.104151e-13 4.076042e+03 6.922953e+03
      endloop
   endfacet
   facet normal -1.000000e+00 -1.224647e-16 -6.123236e-17
      outer loop
         vertex -9.230798e-13 5.915997e+03 5.082998e+03
         vertex -9.639195e-13 6.235501e+03 5.110951e+03
         vertex -1.111982e-12 1.000000e+04 0.000000e+00
      endloop
   endfacet
   facet normal -1.000000e+00 -1.224647e-16 -6.123223e-17
      outer loop
         vertex -1.280776e-12 7.325483e+03 8.105653e+03
         vertex -1.266890e-12 7.098697e+03 8.332440e+03
         vertex -1.724305e-12 1.000000e+04 1.000000e+04
      endloop
   endfacet
   facet normal -1.000000e+00 -1.224647e-16 -6.123229e-17
      outer loop
         vertex -1.724305e-12 1.000000e+04 1.000000e+04
         vertex -1.266890e-12 7.098697e+03 8.332440e+03
         vertex -1.245980e-12 6.835974e+03 8.516400e+03
      endloop
   endfacet
   facet normal -1.000000e+00 -1.224648e-16 -6.123210e-17
      outer loop
         vertex -1.724305e-12 1.000000e+04 1.000000e+04
         vertex -1.245980e-12 6.835974e+03 8.516400e+03
         vertex -1.218682e-12 6.545298e+03 8.651944e+03
      endloop
   endfacet
   facet normal -1.000000e+00 -1.224648e-16 -6.123239e-17
      outer loop
         vertex -9.639195e-13 6.235501e+03 5.110951e+03
         vertex -1.006942e-12 6.545298e+03 5.193961e+03
         vertex -1.111982e-12 1.000000e+04 0.000000e+00
      endloop
   endfacet
   facet normal -1.000000e+00 -1.224646e-16 -6.123229e-17
      outer loop
         vertex -1.111982e-12 1.000000e+04 0.000000e+00
         vertex -1.006942e-12 6.545298e+03 5.193961e+03
         vertex -1.050839e-12 6.835974e+03 5.329505e+03
      endloop
   endfacet
   facet normal -1.000000e+00 -1.224647e-16 -6.123232e-17
      outer loop
         vertex -1.111982e-12 1.000000e+04 0.000000e+00
         vertex -1.050839e-12 6.835974e+03 5.329505e+03
         vertex -1.094277e-12 7.098697e+03 5.513466e+03
      endloop
   endfacet
   facet normal -1.000000e+00 -1.224645e-16 -6.123273e-17
      outer loop
         vertex -1.218682e-12 6.545298e+03 8.651944e+03
         vertex -1.185826e-12 6.235501e+03 8.734954e+03
         vertex -1.724305e-12 1.000000e+04 1.000000e+04
      endloop
   endfacet
   facet normal -1.000000e+00 -1.224647e-16 -6.123230e-17
      outer loop
         vertex -1.724305e-12 1.000000e+04 1.000000e+04
         vertex -1.185826e-12 6.235501e+03 8.734954e+03
         vertex -1.148409e-12 5.915997e+03 8.762907e+03
      endloop
   endfacet
   facet normal -1.000000e+00 -1.224647e-16 -6.123226e-17
      outer loop
         vertex -1.724305e-12 1.000000e+04 1.000000e+04
         vertex -1.148409e-12 5.915997e+03 8.762907e+03
         vertex -4.996587e-13 6.123234e-13 1.000000e+04
      endloop
   endfacet
   facet normal -1.000000e+00 -1.224647e-16 -6.123252e-17
      outer loop
         vertex -4.996587e-13 6.123234e-13 1.000000e+04
         vertex -1.148409e-12 5.915997e+03 8.762907e+03
         vertex -1.107570e-12 5.596492e+03 8.734954e+03
      endloop
   endfacet
   facet normal -1.000000e+00 -1.224647e-16 -6.123246e-17
      outer loop
         vertex -4.996587e-13 6.123234e-13 1.000000e+04
         vertex -1.107570e-12 5.596492e+03 8.734954e+03
         vertex -1.064548e-12 5.286695e+03 8.651944e+03
      endloop
   endfacet
   facet normal -1.000000e+00 -1.224647e-16 -6.123234e-17
      outer loop
         vertex 1.126647e-13 3.749399e-29 0.000000e+00
         vertex -8.837513e-14 2.010398e-13 3.283230e+03
         vertex -1.111982e-12 1.000000e+04 0.000000e+00
      endloop
   endfacet
   facet normal -1.000000e+00 -1.224647e-16 -6.123235e-17
      outer loop
         vertex -1.111982e-12 1.000000e+04 0.000000e+00
         vertex -8.837513e-14 2.010398e-13 3.283230e+03
         vertex -3.734483e-13 1.551866e+03 4.835096e+03
      endloop
   endfacet
   facet normal -1.000000e+00 -1.224647e-16 -6.123233e-17
      outer loop
         vertex -1.111982e-12 1.000000e+04 0.000000e+00
         vertex -3.734483e-13 1.551866e+03 4.835096e+03
         vertex -9.230798e-13 5.915997e+03 5.082998e+03
      endloop
   endfacet
   facet normal -1.000000e+00 -1.224647e-16 -6.123223e-17
      outer loop
         vertex -9.230798e-13 5.915997e+03 5.082998e+03
         vertex -3.734483e-13 1.551866e+03 4.835096e+03
         vertex -8.856634e-13 5.596492e+03 5.110951e+03
      endloop
   endfacet
   facet normal -0.000000e+00 -8.715570e-02 -9.961947e-01
      outer loop
         vertex 1.321342e+03 5.915997e+03 8.762907e+03
         vertex 1.126647e-13 5.915997e+03 8.762907e+03
         vertex 1.321342e+03 6.235501e+03 8.734954e+03
      endloop
   endfacet
   facet normal -0.000000e+00 -8.715570e-02 -9.961947e-01
      outer loop
         vertex 1.321342e+03 6.235501e+03 8.734954e+03
         vertex 1.126647e-13 5.915997e+03 8.762907e+03
         vertex 1.126647e-13 6.235501e+03 8.734954e+03
      endloop
   endfacet
   facet normal -0.000000e+00 -2.588191e-01 -9.659258e-01
      outer loop
         vertex 1.321342e+03 6.235501e+03 8.734954e+03
         vertex 1.126647e-13 6.235501e+03 8.734954e+03
         vertex 1.321342e+03 6.545298e+03 8.651944e+03
      endloop
   endfacet
   facet normal -0.000000e+00 -2.588191e-01 -9.659258e-01
      outer loop
         vertex 1.321342e+03 6.545298e+03 8.651944e+03
         vertex 1.126647e-13 6.235501e+03 8.734954e+03
         vertex 1.126647e-13 6.545298e+03 8.651944e+03
      endloop
   endfacet
   facet normal -0.000000e+00 -4.226183e-01 -9.063078e-01
      outer loop
         vertex 1.321342e+03 6.545298e+03 8.651944e+03
         vertex 1.126647e-13 6.545298e+03 8.651944e+03
         vertex 1.321342e+03 6.835974e+03 8.516400e+03
      endloop
   endfacet
   facet normal -0.000000e+00 -4.226183e-01 -9.063078e-01
      outer loop
         vertex 1.321342e+03 6.835974e+03 8.516400e+03
         vertex 1.126647e-13 6.545298e+03 8.651944e+03
         vertex 1.126647e-13 6.835974e+03 8.516400e+03
      endloop
   endfacet
   facet normal -0.000000e+00 -5.735761e-01 -8.191523e-01
      outer loop
         vertex 1.321342e+03 6.835974e+03 8.516400e+03
         vertex 1.126647e-13 6.835974e+03 8.516400e+03
         vertex 1.321342e+03 7.098697e+03 8.332440e+03
      endloop
   endfacet
   facet normal -0.000000e+00 -5.735761e-01 -8.191523e-01
      outer loop
         vertex 1.321342e+03 7.098697e+03 8.332440e+03
         vertex 1.126647e-13 6.835974e+03 8.516400e+03
         vertex 1.126647e-13 7.098697e+03 8.332440e+03
      endloop
   endfacet
   facet normal -0.000000e+00 -7.071073e-01 -7.071062e-01
      outer loop
         vertex 1.321342e+03 7.098697e+03 8.332440e+03
         vertex 1.126647e-13 7.098697e+03 8.332440e+03
         vertex 1.321342e+03 7.325483e+03 8.105653e+03
      endloop
   endfacet
   facet normal -0.000000e+00 -7.071073e-01 -7.071062e-01
      outer loop
         vertex 1.321342e+03 7.325483e+03 8.105653e+03
         vertex 1.126647e-13 7.098697e+03 8.332440e+03
         vertex 1.126647e-13 7.325483e+03 8.105653e+03
      endloop
   endfacet
   facet normal -0.000000e+00 -8.191519e-01 -5.735766e-01
      outer loop
         vertex 1.321342e+03 7.325483e+03 8.105653e+03
         vertex 1.126647e-13 7.325483e+03 8.105653e+03
         vertex 1.321342e+03 7.509444e+03 7.842930e+03
      endloop
   endfacet
   facet normal -0.000000e+00 -8.191519e-01 -5.735766e-01
      outer loop
         vertex 1.321342e+03 7.509444e+03 7.842930e+03
         vertex 1.126647e-13 7.325483e+03 8.105653e+03
         vertex 1.126647e-13 7.509444e+03 7.842930e+03
      endloop
   endfacet
   facet normal -0.000000e+00 -9.063079e-01 -4.226180e-01
      outer loop
         vertex 1.321342e+03 7.509444e+03 7.842930e+03
         vertex 1.126647e-13 7.509444e+03 7.842930e+03
         vertex 1.321342e+03 7.644988e+03 7.552254e+03
      endloop
   endfacet
   facet normal -0.000000e+00 -9.063079e-01 -4.226180e-01
      outer loop
         vertex 1.321342e+03 7.644988e+03 7.552254e+03
         vertex 1.126647e-13 7.509444e+03 7.842930e+03
         vertex 1.126647e-13 7.644988e+03 7.552254e+03
      endloop
   endfacet
   facet normal -0.000000e+00 -9.659255e-01 -2.588202e-01
      outer loop
         vertex 1.321342e+03 7.644988e+03 7.552254e+03
         vertex 1.126647e-13 7.644988e+03 7.552254e+03
         vertex 1.321342e+03 7.727998e+03 7.242457e+03
      endloop
   endfacet
   facet normal -0.000000e+00 -9.659255e-01 -2.588202e-01
      outer loop
         vertex 1.321342e+03 7.727998e+03 7.242457e+03
         vertex 1.126647e-13 7.644988e+03 7.552254e+03
         vertex 1.126647e-13 7.727998e+03 7.242457e+03
      endloop
   endfacet
   facet normal -0.000000e+00 -9.961948e-01 -8.715459e-02
      outer loop
         vertex 1.321342e+03 7.727998e+03 7.242457e+03
         vertex 1.126647e-13 7.727998e+03 7.242457e+03
         vertex 1.321342e+03 7.755951e+03 6.922953e+03
      endloop
   endfacet
   facet normal -0.000000e+00 -9.961948e-01 -8.715459e-02
      outer loop
         vertex 1.321342e+03 7.755951e+03 6.922953e+03
         vertex 1.126647e-13 7.727998e+03 7.242457e+03
         vertex 1.126647e-13 7.755951e+03 6.922953e+03
      endloop
   endfacet
   facet normal 0.000000e+00 -9.961948e-01 8.715459e-02
      outer loop
         vertex 1.321342e+03 7.755951e+03 6.922953e+03
         vertex 1.126647e-13 7.755951e+03 6.922953e+03
         vertex 1.321342e+03 7.727998e+03 6.603448e+03
      endloop
   endfacet
   facet normal 0.000000e+00 -9.961948e-01 8.715459e-02
      outer loop
         vertex 1.321342e+03 7.727998e+03 6.603448e+03
         vertex 1.126647e-13 7.755951e+03 6.922953e+03
         vertex 1.126647e-13 7.727998e+03 6.603448e+03
      endloop
   endfacet
   facet normal 0.000000e+00 -9.659255e-01 2.588204e-01
      outer loop
         vertex 1.321342e+03 7.727998e+03 6.603448e+03
         vertex 1.126647e-13 7.727998e+03 6.603448e+03
         vertex 1.321342e+03 7.644988e+03 6.293651e+03
      endloop
   endfacet
   facet normal 0.000000e+00 -9.659255e-01 2.588204e-01
      outer loop
         vertex 1.321342e+03 7.644988e+03 6.293651e+03
         vertex 1.126647e-13 7.727998e+03 6.603448e+03
         vertex 1.126647e-13 7.644988e+03 6.293651e+03
      endloop
   endfacet
   facet normal 0.000000e+00 -9.063079e-01 4.226180e-01
      outer loop
         vertex 1.321342e+03 7.644988e+03 6.293651e+03
         vertex 1.126647e-13 7.644988e+03 6.293651e+03
         vertex 1.321342e+03 7.509444e+03 6.002975e+03
      endloop
   endfacet
   facet normal 0.000000e+00 -9.063079e-01 4.226180e-01
      outer loop
         vertex 1.321342e+03 7.509444e+03 6.002975e+03
         vertex 1.126647e-13 7.644988e+03 6.293651e+03
         vertex 1.126647e-13 7.509444e+03 6.002975e+03
      endloop
   endfacet
   facet normal 0.000000e+00 -8.191518e-01 5.735768e-01
      outer loop
         vertex 1.321342e+03 7.509444e+03 6.002975e+03
         vertex 1.126647e-13 7.509444e+03 6.002975e+03
         vertex 1.321342e+03 7.325483e+03 5.740253e+03
      endloop
   endfacet
   facet normal 0.000000e+00 -8.191518e-01 5.735768e-01
      outer loop
         vertex 1.321342e+03 7.325483e+03 5.740253e+03
         vertex 1.126647e-13 7.509444e+03 6.002975e+03
         vertex 3.347093e-13 7.325483e+03 5.740253e+03
      endloop
   endfacet
   facet normal 0.000000e+00 -7.071075e-01 7.071060e-01
      outer loop
         vertex 1.321342e+03 7.325483e+03 5.740253e+03
         vertex 3.347093e-13 7.325483e+03 5.740253e+03
         vertex 1.321342e+03 7.098697e+03 5.513466e+03
      endloop
   endfacet
   facet normal 0.000000e+00 -7.071075e-01 7.071060e-01
      outer loop
         vertex 1.321342e+03 7.098697e+03 5.513466e+03
         vertex 3.347093e-13 7.325483e+03 5.740253e+03
         vertex 3.347093e-13 7.098697e+03 5.513466e+03
      endloop
   endfacet
   facet normal 0.000000e+00 -5.735761e-01 8.191523e-01
      outer loop
         vertex 1.321342e+03 7.098697e+03 5.513466e+03
         vertex 3.347093e-13 7.098697e+03 5.513466e+03
         vertex 1.321342e+03 6.835974e+03 5.329505e+03
      endloop
   endfacet
   facet normal 0.000000e+00 -5.735761e-01 8.191523e-01
      outer loop
         vertex 1.321342e+03 6.835974e+03 5.329505e+03
         vertex 3.347093e-13 7.098697e+03 5.513466e+03
         vertex 3.347093e-13 6.835974e+03 5.329505e+03
      endloop
   endfacet
   facet normal 0.000000e+00 -4.226183e-01 9.063078e-01
      outer loop
         vertex 1.321342e+03 6.835974e+03 5.329505e+03
         vertex 3.347093e-13 6.835974e+03 5.329505e+03
         vertex 1.321342e+03 6.545298e+03 5.193961e+03
      endloop
   endfacet
   facet normal 0.000000e+00 -4.226183e-01 9.063078e-01
      outer loop
         vertex 1.321342e+03 6.545298e+03 5.193961e+03
         vertex 3.347093e-13 6.835974e+03 5.329505e+03
         vertex 3.347093e-13 6.545298e+03 5.193961e+03
      endloop
   endfacet
   facet normal 0.000000e+00 -2.588188e-01 9.659259e-01
      outer loop
         vertex 1.321342e+03 6.545298e+03 5.193961e+03
         vertex 3.347093e-13 6.545298e+03 5.193961e+03
         vertex 1.321342e+03 6.235501e+03 5.110951e+03
      endloop
   endfacet
   facet normal 0.000000e+00 -2.588188e-01 9.659259e-01
      outer loop
         vertex 1.321342e+03 6.235501e+03 5.110951e+03
         vertex 3.347093e-13 6.545298e+03 5.193961e+03
         vertex 3.347093e-13 6.235501e+03 5.110951e+03
      endloop
   endfacet
   facet normal 0.000000e+00 -8.715607e-02 9.961947e-01
      outer loop
         vertex 1.321342e+03 6.235501e+03 5.110951e+03
         vertex 3.347093e-13 6.235501e+03 5.110951e+03
         vertex 1.321342e+03 5.915997e+03 5.082998e+03
      endloop
   endfacet
   facet normal 0.000000e+00 -8.715607e-02 9.961947e-01
      outer loop
         vertex 1.321342e+03 5.915997e+03 5.082998e+03
         vertex 3.347093e-13 6.235501e+03 5.110951e+03
         vertex 5.567539e-13 5.915997e+03 5.082998e+03
      endloop
   endfacet
   facet normal 0.000000e+00 8.715607e-02 9.961947e-01
      outer loop
         vertex 1.321342e+03 5.915997e+03 5.082998e+03
         vertex 5.567539e-13 5.915997e+03 5.082998e+03
         vertex 1.321342e+03 5.596492e+03 5.110951e+03
      endloop
   endfacet
   facet normal 0.000000e+00 8.715607e-02 9.961947e-01
      outer loop
         vertex 1.321342e+03 5.596492e+03 5.110951e+03
         vertex 5.567539e-13 5.915997e+03 5.082998e+03
         vertex 5.567539e-13 5.596492e+03 5.110951e+03
      endloop
   endfacet
   facet normal 0.000000e+00 2.588188e-01 9.659259e-01
      outer loop
         vertex 1.321342e+03 5.596492e+03 5.110951e+03
         vertex 5.567539e-13 5.596492e+03 5.110951e+03
         vertex 1.321342e+03 5.286695e+03 5.193961e+03
      endloop
   endfacet
   facet normal 0.000000e+00 2.588188e-01 9.659259e-01
      outer loop
         vertex 1.321342e+03 5.286695e+03 5.193961e+03
         vertex 5.567539e-13 5.596492e+03 5.110951e+03
         vertex 5.567539e-13 5.286695e+03 5.193961e+03
      endloop
   endfacet
   facet normal 0.000000e+00 4.226183e-01 9.063078e-01
      outer loop
         vertex 1.321342e+03 5.286695e+03 5.193961e+03
         vertex 5.567539e-13 5.286695e+03 5.193961e+03
         vertex 1.321342e+03 4.996019e+03 5.329505e+03
      endloop
   endfacet
   facet normal 0.000000e+00 4.226183e-01 9.063078e-01
      outer loop
         vertex 1.321342e+03 4.996019e+03 5.329505e+03
         vertex 5.567539e-13 5.286695e+03 5.193961e+03
         vertex 5.567539e-13 4.996019e+03 5.329505e+03
      endloop
   endfacet
   facet normal 0.000000e+00 5.735768e-01 8.191518e-01
      outer loop
         vertex 1.321342e+03 4.996019e+03 5.329505e+03
         vertex 5.567539e-13 4.996019e+03 5.329505e+03
         vertex 1.321342e+03 4.733297e+03 5.513466e+03
      endloop
   endfacet
   facet normal 0.000000e+00 5.735768e-01 8.191518e-01
      outer loop
         vertex 1.321342e+03 4.733297e+03 5.513466e+03
         vertex 5.567539e-13 4.996019e+03 5.329505e+03
         vertex 5.567539e-13 4.733297e+03 5.513466e+03
      endloop
   endfacet
   facet normal 0.000000e+00 7.071068e-01 7.071068e-01
      outer loop
         vertex 1.321342e+03 4.733297e+03 5.513466e+03
         vertex 5.567539e-13 4.733297e+03 5.513466e+03
         vertex 1.321342e+03 4.506510e+03 5.740253e+03
      endloop
   endfacet
   facet normal 0.000000e+00 7.071068e-01 7.071068e-01
      outer loop
         vertex 1.321342e+03 4.506510e+03 5.740253e+03
         vertex 5.567539e-13 4.733297e+03 5.513466e+03
         vertex 5.567539e-13 4.506510e+03 5.740253e+03
      endloop
   endfacet
   facet normal 0.000000e+00 8.191518e-01 5.735768e-01
      outer loop
         vertex 1.321342e+03 4.506510e+03 5.740253e+03
         vertex 5.567539e-13 4.506510e+03 5.740253e+03
         vertex 1.321342e+03 4.322549e+03 6.002975e+03
      endloop
   endfacet
   facet normal 0.000000e+00 8.191518e-01 5.735768e-01
      outer loop
         vertex 1.321342e+03 4.322549e+03 6.002975e+03
         vertex 5.567539e-13 4.506510e+03 5.740253e+03
         vertex 5.567539e-13 4.322549e+03 6.002975e+03
      endloop
   endfacet
   facet normal 0.000000e+00 9.063079e-01 4.226180e-01
      outer loop
         vertex 1.321342e+03 4.322549e+03 6.002975e+03
         vertex 5.567539e-13 4.322549e+03 6.002975e+03
         vertex 1.321342e+03 4.187005e+03 6.293651e+03
      endloop
   endfacet
   facet normal 0.000000e+00 9.063079e-01 4.226180e-01
      outer loop
         vertex 1.321342e+03 4.187005e+03 6.293651e+03
         vertex 5.567539e-13 4.322549e+03 6.002975e+03
         vertex 5.567539e-13 4.187005e+03 6.293651e+03
      endloop
   endfacet
   facet normal 0.000000e+00 9.659258e-01 2.588190e-01
      outer loop
         vertex 1.321342e+03 4.187005e+03 6.293651e+03
         vertex 5.567539e-13 4.187005e+03 6.293651e+03
         vertex 1.321342e+03 4.103995e+03 6.603448e+03
      endloop
   endfacet
   facet normal 0.000000e+00 9.659258e-01 2.588190e-01
      outer loop
         vertex 1.321342e+03 4.103995e+03 6.603448e+03
         vertex 5.567539e-13 4.187005e+03 6.293651e+03
         vertex 5.567539e-13 4.103995e+03 6.603448e+03
      endloop
   endfacet
   facet normal 0.000000e+00 9.961947e-01 8.715607e-02
      outer loop
         vertex 1.321342e+03 4.103995e+03 6.603448e+03
         vertex 5.567539e-13 4.103995e+03 6.603448e+03
         vertex 1.321342e+03 4.076042e+03 6.922953e+03
      endloop
   endfacet
   facet normal 0.000000e+00 9.961947e-01 8.715607e-02
      outer loop
         vertex 1.321342e+03 4.076042e+03 6.922953e+03
         vertex 5.567539e-13 4.103995e+03 6.603448e+03
         vertex 5.567539e-13 4.076042e+03 6.922953e+03
      endloop
   endfacet
   facet normal 0.000000e+00 9.961947e-01 -8.715607e-02
      outer loop
         vertex 1.321342e+03 4.076042e+03 6.922953e+03
         vertex 5.567539e-13 4.076042e+03 6.922953e+03
         vertex 1.321342e+03 4.103995e+03 7.242457e+03
      endloop
   endfacet
   facet normal 0.000000e+00 9.961947e-01 -8.715607e-02
      outer loop
         vertex 1.321342e+03 4.103995e+03 7.242457e+03
         vertex 5.567539e-13 4.076042e+03 6.922953e+03
         vertex 5.567539e-13 4.103995e+03 7.242457e+03
      endloop
   endfacet
   facet normal 0.000000e+00 9.659259e-01 -2.588188e-01
      outer loop
         vertex 1.321342e+03 4.103995e+03 7.242457e+03
         vertex 5.567539e-13 4.103995e+03 7.242457e+03
         vertex 1.321342e+03 4.187005e+03 7.552254e+03
      endloop
   endfacet
   facet normal 0.000000e+00 9.659259e-01 -2.588188e-01
      outer loop
         vertex 1.321342e+03 4.187005e+03 7.552254e+03
         vertex 5.567539e-13 4.103995e+03 7.242457e+03
         vertex 5.567539e-13 4.187005e+03 7.552254e+03
      endloop
   endfacet
   facet normal 0.000000e+00 9.063079e-01 -4.226180e-01
      outer loop
         vertex 1.321342e+03 4.187005e+03 7.552254e+03
         vertex 5.567539e-13 4.187005e+03 7.552254e+03
         vertex 1.321342e+03 4.322549e+03 7.842930e+03
      endloop
   endfacet
   facet normal 0.000000e+00 9.063079e-01 -4.226180e-01
      outer loop
         vertex 1.321342e+03 4.322549e+03 7.842930e+03
         vertex 5.567539e-13 4.187005e+03 7.552254e+03
         vertex 5.567539e-13 4.322549e+03 7.842930e+03
      endloop
   endfacet
   facet normal 0.000000e+00 8.191519e-01 -5.735766e-01
      outer loop
         vertex 1.321342e+03 4.322549e+03 7.842930e+03
         vertex 5.567539e-13 4.322549e+03 7.842930e+03
         vertex 1.321342e+03 4.506510e+03 8.105653e+03
      endloop
   endfacet
   facet normal 0.000000e+00 8.191519e-01 -5.735766e-01
      outer loop
         vertex 1.321342e+03 4.506510e+03 8.105653e+03
         vertex 5.567539e-13 4.322549e+03 7.842930e+03
         vertex 3.347093e-13 4.506510e+03 8.105653e+03
      endloop
   endfacet
   facet normal 0.000000e+00 7.071066e-01 -7.071070e-01
      outer loop
         vertex 1.321342e+03 4.506510e+03 8.105653e+03
         vertex 3.347093e-13 4.506510e+03 8.105653e+03
         vertex 1.321342e+03 4.733297e+03 8.332440e+03
      endloop
   endfacet
   facet normal 0.000000e+00 7.071066e-01 -7.071070e-01
      outer loop
         vertex 1.321342e+03 4.733297e+03 8.332440e+03
         vertex 3.347093e-13 4.506510e+03 8.105653e+03
         vertex 3.347093e-13 4.733297e+03 8.332440e+03
      endloop
   endfacet
   facet normal 0.000000e+00 5.735768e-01 -8.191518e-01
      outer loop
         vertex 1.321342e+03 4.733297e+03 8.332440e+03
         vertex 3.347093e-13 4.733297e+03 8.332440e+03
         vertex 1.321342e+03 4.996019e+03 8.516400e+03
      endloop
   endfacet
   facet normal 0.000000e+00 5.735768e-01 -8.191518e-01
      outer loop
         vertex 1.321342e+03 4.996019e+03 8.516400e+03
         vertex 3.347093e-13 4.733297e+03 8.332440e+03
         vertex 3.347093e-13 4.996019e+03 8.516400e+03
      endloop
   endfacet
   facet normal 0.000000e+00 4.226183e-01 -9.063078e-01
      outer loop
         vertex 1.321342e+03 4.996019e+03 8.516400e+03
         vertex 3.347093e-13 4.996019e+03 8.516400e+03
         vertex 1.321342e+03 5.286695e+03 8.651944e+03
      endloop
   endfacet
   facet normal 0.000000e+00 4.226183e-01 -9.063078e-01
      outer loop
         vertex 1.321342e+03 5.286695e+03 8.651944e+03
         vertex 3.347093e-13 4.996019e+03 8.516400e+03
         vertex 3.347093e-13 5.286695e+03 8.651944e+03
      endloop
   endfacet
   facet normal 0.000000e+00 2.588191e-01 -9.659258e-01
      outer loop
         vertex 1.321342e+03 5.286695e+03 8.651944e+03
         vertex 3.347093e-13 5.286695e+03 8.651944e+03
         vertex 1.321342e+03 5.596492e+03 8.734954e+03
      endloop
   endfacet
   facet normal 0.000000e+00 2.588191e-01 -9.659258e-01
      outer loop
         vertex 1.321342e+03 5.596492e+03 8.734954e+03
         vertex 3.347093e-13 5.286695e+03 8.651944e+03
         vertex 3.347093e-13 5.596492e+03 8.734954e+03
      endloop
   endfacet
   facet normal 0.000000e+00 8.715570e-02 -9.961947e-01
      outer loop
         vertex 1.321342e+03 5.596492e+03 8.734954e+03
         vertex 3.347093e-13 5.596492e+03 8.734954e+03
         vertex 1.321342e+03 5.915997e+03 8.762907e+03
      endloop
   endfacet
   facet normal 0.000000e+00 8.715570e-02 -9.961947e-01
      outer loop
         vertex 1.321342e+03 5.915997e+03 8.762907e+03
         vertex 3.347093e-13 5.596492e+03 8.734954e+03
         vertex 1.126647e-13 5.915997e+03 8.762907e+03
      endloop
   endfacet
   facet normal -1.000000e+00 0.000000e+00 0.000000e+00
      outer loop
         vertex 1.321342e+03 5.286695e+03 8.651944e+03
         vertex 1.321342e+03 5.596492e+03 8.734954e+03
         vertex 1.321342e+03 5.915997e+03 6.922953e+03
      endloop
   endfacet
   facet normal -1.000000e+00 0.000000e+00 0.000000e+00
      outer loop
         vertex 1.321342e+03 5.915997e+03 6.922953e+03
         vertex 1.321342e+03 5.596492e+03 8.734954e+03
         vertex 1.321342e+03 5.915997e+03 8.762907e+03
      endloop
   endfacet
   facet normal -1.000000e+00 0.000000e+00 0.000000e+00
      outer loop
         vertex 1.321342e+03 5.915997e+03 6.922953e+03
         vertex 1.321342e+03 5.915997e+03 8.762907e+03
         vertex 1.321342e+03 6.235501e+03 8.734954e+03
      endloop
   endfacet
   facet normal -1.000000e+00 0.000000e+00 0.000000e+00
      outer loop
         vertex 1.321342e+03 4.506510e+03 8.105653e+03
         vertex 1.321342e+03 4.733297e+03 8.332440e+03
         vertex 1.321342e+03 5.915997e+03 6.922953e+03
      endloop
   endfacet
   facet normal -1.000000e+00 0.000000e+00 0.000000e+00
      outer loop
         vertex 1.321342e+03 5.915997e+03 6.922953e+03
         vertex 1.321342e+03 4.733297e+03 8.332440e+03
         vertex 1.321342e+03 4.996019e+03 8.516400e+03
      endloop
   endfacet
   facet normal -1.000000e+00 0.000000e+00 0.000000e+00
      outer loop
         vertex 1.321342e+03 5.915997e+03 6.922953e+03
         vertex 1.321342e+03 4.996019e+03 8.516400e+03
         vertex 1.321342e+03 5.286695e+03 8.651944e+03
      endloop
   endfacet
   facet normal -1.000000e+00 0.000000e+00 0.000000e+00
      outer loop
         vertex 1.321342e+03 4.103995e+03 7.242457e+03
         vertex 1.321342e+03 4.187005e+03 7.552254e+03
         vertex 1.321342e+03 5.915997e+03 6.922953e+03
      endloop
   endfacet
   facet normal -1.000000e+00 0.000000e+00 0.000000e+00
      outer loop
         vertex 1.321342e+03 5.915997e+03 6.922953e+03
         vertex 1.321342e+03 4.187005e+03 7.552254e+03
         vertex 1.321342e+03 4.322549e+03 7.842930e+03
      endloop
   endfacet
   facet normal -1.000000e+00 0.000000e+00 0.000000e+00
      outer loop
         vertex 1.321342e+03 5.915997e+03 6.922953e+03
         vertex 1.321342e+03 4.322549e+03 7.842930e+03
         vertex 1.321342e+03 4.506510e+03 8.105653e+03
      endloop
   endfacet
   facet normal -1.000000e+00 0.000000e+00 0.000000e+00
      outer loop
         vertex 1.321342e+03 4.187005e+03 6.293651e+03
         vertex 1.321342e+03 4.103995e+03 6.603448e+03
         vertex 1.321342e+03 5.915997e+03 6.922953e+03
      endloop
   endfacet
   facet normal -1.000000e+00 -0.000000e+00 0.000000e+00
      outer loop
         vertex 1.321342e+03 5.915997e+03 6.922953e+03
         vertex 1.321342e+03 4.103995e+03 6.603448e+03
         vertex 1.321342e+03 4.076042e+03 6.922953e+03
      endloop
   endfacet
   facet normal -1.000000e+00 0.000000e+00 0.000000e+00
      outer loop
         vertex 1.321342e+03 5.915997e+03 6.922953e+03
         vertex 1.321342e+03 4.076042e+03 6.922953e+03
         vertex 1.321342e+03 4.103995e+03 7.242457e+03
      endloop
   endfacet
   facet normal -1.000000e+00 0.000000e+00 0.000000e+00
      outer loop
         vertex 1.321342e+03 4.733297e+03 5.513466e+03
         vertex 1.321342e+03 4.506510e+03 5.740253e+03
         vertex 1.321342e+03 5.915997e+03 6.922953e+03
      endloop
   endfacet
   facet normal -1.000000e+00 0.000000e+00 0.000000e+00
      outer loop
         vertex 1.321342e+03 5.915997e+03 6.922953e+03
         vertex 1.321342e+03 4.506510e+03 5.740253e+03
         vertex 1.321342e+03 4.322549e+03 6.002975e+03
      endloop
   endfacet
   facet normal -1.000000e+00 0.000000e+00 0.000000e+00
      outer loop
         vertex 1.321342e+03 5.915997e+03 6.922953e+03
         vertex 1.321342e+03 4.322549e+03 6.002975e+03
         vertex 1.321342e+03 4.187005e+03 6.293651e+03
      endloop
   endfacet
   facet normal -1.000000e+00 0.000000e+00 0.000000e+00
      outer loop
         vertex 1.321342e+03 5.596492e+03 5.110951e+03
         vertex 1.321342e+03 5.286695e+03 5.193961e+03
         vertex 1.321342e+03 5.915997e+03 6.922953e+03
      endloop
   endfacet
   facet normal -1.000000e+00 0.000000e+00 0.000000e+00
      outer loop
         vertex 1.321342e+03 5.915997e+03 6.922953e+03
         vertex 1.321342e+03 5.286695e+03 5.193961e+03
         vertex 1.321342e+03 4.996019e+03 5.329505e+03
      endloop
   endfacet
   facet normal -1.000000e+00 0.000000e+00 0.000000e+00
      outer loop
         vertex 1.321342e+03 5.915997e+03 6.922953e+03
         vertex 1.321342e+03 4.996019e+03 5.329505e+03
         vertex 1.321342e+03 4.733297e+03 5.513466e+03
      endloop
   endfacet
   facet normal -1.000000e+00 -0.000000e+00 0.000000e+00
      outer loop
         vertex 1.321342e+03 6.545298e+03 5.193961e+03
         vertex 1.321342e+03 6.235501e+03 5.110951e+03
         vertex 1.321342e+03 5.915997e+03 6.922953e+03
      endloop
   endfacet
   facet normal -1.000000e+00 0.000000e+00 0.000000e+00
      outer loop
         vertex 1.321342e+03 5.915997e+03 6.922953e+03
         vertex 1.321342e+03 6.235501e+03 5.110951e+03
         vertex 1.321342e+03 5.915997e+03 5.082998e+03
      endloop
   endfacet
   facet normal -1.000000e+00 0.000000e+00 -0.000000e+00
      outer loop
         vertex 1.321342e+03 5.915997e+03 6.922953e+03
         vertex 1.321342e+03 5.915997e+03 5.082998e+03
         vertex 1.321342e+03 5.596492e+03 5.110951e+03
      endloop
   endfacet
   facet normal -1.000000e+00 -0.000000e+00 0.000000e+00
      outer loop
         vertex 1.321342e+03 7.325483e+03 5.740253e+03
         vertex 1.321342e+03 7.098697e+03 5.513466e+03
         vertex 1.321342e+03 5.915997e+03 6.922953e+03
      endloop
   endfacet
   facet normal -1.000000e+00 0.000000e+00 0.000000e+00
      outer loop
         vertex 1.321342e+03 5.915997e+03 6.922953e+03
         vertex 1.321342e+03 7.098697e+03 5.513466e+03
         vertex 1.321342e+03 6.835974e+03 5.329505e+03
      endloop
   endfacet
   facet normal -1.000000e+00 0.000000e+00 0.000000e+00
      outer loop
         vertex 1.321342e+03 5.915997e+03 6.922953e+03
         vertex 1.321342e+03 6.835974e+03 5.329505e+03
         vertex 1.321342e+03 6.545298e+03 5.193961e+03
      endloop
   endfacet
   facet normal -1.000000e+00 -0.000000e+00 0.000000e+00
      outer loop
         vertex 1.321342e+03 7.727998e+03 6.603448e+03
         vertex 1.321342e+03 7.644988e+03 6.293651e+03
         vertex 1.321342e+03 5.915997e+03 6.922953e+03
      endloop
   endfacet
   facet normal -1.000000e+00 0.000000e+00 0.000000e+00
      outer loop
         vertex 1.321342e+03 5.915997e+03 6.922953e+03
         vertex 1.321342e+03 7.644988e+03 6.293651e+03
         vertex 1.321342e+03 7.509444e+03 6.002975e+03
      endloop
   endfacet
   facet normal -1.000000e+00 0.000000e+00 0.000000e+00
      outer loop
         vertex 1.321342e+03 5.915997e+03 6.922953e+03
         vertex 1.321342e+03 7.509444e+03 6.002975e+03
         vertex 1.321342e+03 7.325483e+03 5.740253e+03
      endloop
   endfacet
   facet normal -1.000000e+00 0.000000e+00 -0.000000e+00
      outer loop
         vertex 1.321342e+03 7.644988e+03 7.552254e+03
         vertex 1.321342e+03 7.727998e+03 7.242457e+03
         vertex 1.321342e+03 5.915997e+03 6.922953e+03
      endloop
   endfacet
   facet normal -1.000000e+00 0.000000e+00 0.000000e+00
      outer loop
         vertex 1.321342e+03 5.915997e+03 6.922953e+03
         vertex 1.321342e+03 7.727998e+03 7.242457e+03
         vertex 1.321342e+03 7.755951e+03 6.922953e+03
      endloop
   endfacet
   facet normal -1.000000e+00 0.000000e+00 0.000000e+00
      outer loop
         vertex 1.321342e+03 5.915997e+03 6.922953e+03
         vertex 1.321342e+03 7.755951e+03 6.922953e+03
         vertex 1.321342e+03 7.727998e+03 6.603448e+03
      endloop
   endfacet
   facet normal -1.000000e+00 0.000000e+00 -0.000000e+00
      outer loop
         vertex 1.321342e+03 7.098697e+03 8.332440e+03
         vertex 1.321342e+03 7.325483e+03 8.105653e+03
         vertex 1.321342e+03 5.915997e+03 6.922953e+03
      endloop
   endfacet
   facet normal -1.000000e+00 0.000000e+00 0.000000e+00
      outer loop
         vertex 1.321342e+03 5.915997e+03 6.922953e+03
         vertex 1.321342e+03 7.325483e+03 8.105653e+03
         vertex 1.321342e+03 7.509444e+03 7.842930e+03
      endloop
   endfacet
   facet normal -1.000000e+00 0.000000e+00 0.000000e+00
      outer loop
         vertex 1.321342e+03 5.915997e+03 6.922953e+03
         vertex 1.321342e+03 7.509444e+03 7.842930e+03
         vertex 1.321342e+03 7.644988e+03 7.552254e+03
      endloop
   endfacet
   facet normal -1.000000e+00 0.000000e+00 -0.000000e+00
      outer loop
         vertex 1.321342e+03 6.235501e+03 8.734954e+03
         vertex 1.321342e+03 6.545298e+03 8.651944e+03
         vertex 1.321342e+03 5.915997e+03 6.922953e+03
      endloop
   endfacet
   facet normal -1.000000e+00 0.000000e+00 0.000000e+00
      outer loop
         vertex 1.321342e+03 5.915997e+03 6.922953e+03
         vertex 1.321342e+03 6.545298e+03 8.651944e+03
         vertex 1.321342e+03 6.835974e+03 8.516400e+03
      endloop
   endfacet
   facet normal -1.000000e+00 0.000000e+00 0.000000e+00
      outer loop
         vertex 1.321342e+03 5.915997e+03 6.922953e+03
         vertex 1.321342e+03 6.835974e+03 8.516400e+03
         vertex 1.321342e+03 7.098697e+03 8.332440e+03
      endloop
   endfacet
   facet normal 5.305075e-17 -7.071068e-01 7.071068e-01
      outer loop
         vertex 1.000000e+04 2.010398e-13 3.283230e+03
         vertex 1.000000e+04 1.551866e+03 4.835096e+03
         vertex 1.126647e-13 -5.492111e-13 3.283230e+03
      endloop
   endfacet
   facet normal 0.000000e+00 -7.071068e-01 7.071068e-01
      outer loop
         vertex 1.126647e-13 -5.492111e-13 3.283230e+03
         vertex 1.000000e+04 1.551866e+03 4.835096e+03
         vertex 1.126647e-13 1.551866e+03 4.835096e+03
      endloop
   endfacet
   facet normal -0.000000e+00 -7.071068e-01 -7.071068e-01
      outer loop
         vertex 1.000000e+04 1.551866e+03 4.835096e+03
         vertex 1.000000e+04 2.220446e-13 6.386962e+03
         vertex 1.126647e-13 1.551866e+03 4.835096e+03
      endloop
   endfacet
   facet normal 6.070468e-17 -7.071068e-01 -7.071068e-01
      outer loop
         vertex 1.126647e-13 1.551866e+03 4.835096e+03
         vertex 1.000000e+04 2.220446e-13 6.386962e+03
         vertex 1.126647e-13 -5.585130e-13 6.386962e+03
      endloop
   endfacet
   facet normal 8.715593e-02 9.961947e-01 0.000000e+00
      outer loop
         vertex 3.115273e+03 1.598575e+03 2.078486e+03
         vertex 3.115273e+03 1.598575e+03 0.000000e+00
         vertex 2.755012e+03 1.630094e+03 2.078486e+03
      endloop
   endfacet
   facet normal 8.715593e-02 9.961947e-01 0.000000e+00
      outer loop
         vertex 2.755012e+03 1.630094e+03 2.078486e+03
         vertex 3.115273e+03 1.598575e+03 0.000000e+00
         vertex 2.755012e+03 1.630094e+03 0.000000e+00
      endloop
   endfacet
   facet normal 2.588192e-01 9.659258e-01 0.000000e+00
      outer loop
         vertex 2.755012e+03 1.630094e+03 2.078486e+03
         vertex 2.755012e+03 1.630094e+03 0.000000e+00
         vertex 2.405698e+03 1.723693e+03 2.078486e+03
      endloop
   endfacet
   facet normal 2.588192e-01 9.659258e-01 0.000000e+00
      outer loop
         vertex 2.405698e+03 1.723693e+03 2.078486e+03
         vertex 2.755012e+03 1.630094e+03 0.000000e+00
         vertex 2.405698e+03 1.723693e+03 0.000000e+00
      endloop
   endfacet
   facet normal 4.226180e-01 9.063079e-01 0.000000e+00
      outer loop
         vertex 2.405698e+03 1.723693e+03 2.078486e+03
         vertex 2.405698e+03 1.723693e+03 0.000000e+00
         vertex 2.077943e+03 1.876527e+03 2.078486e+03
      endloop
   endfacet
   facet normal 4.226180e-01 9.063079e-01 0.000000e+00
      outer loop
         vertex 2.077943e+03 1.876527e+03 2.078486e+03
         vertex 2.405698e+03 1.723693e+03 0.000000e+00
         vertex 2.077943e+03 1.876527e+03 0.000000e+00
      endloop
   endfacet
   facet normal 5.735764e-01 8.191521e-01 0.000000e+00
      outer loop
         vertex 2.077943e+03 1.876527e+03 2.078486e+03
         vertex 2.077943e+03 1.876527e+03 0.000000e+00
         vertex 1.781707e+03 2.083954e+03 2.078486e+03
      endloop
   endfacet
   facet normal 5.735764e-01 8.191521e-01 0.000000e+00
      outer loop
         vertex 1.781707e+03 2.083954e+03 2.078486e+03
         vertex 2.077943e+03 1.876527e+03 0.000000e+00
         vertex 1.781707e+03 2.083954e+03 0.000000e+00
      endloop
   endfacet
   facet normal 7.071068e-01 7.071068e-01 0.000000e+00
      outer loop
         vertex 1.781707e+03 2.083954e+03 2.078486e+03
         vertex 1.781707e+03 2.083954e+03 0.000000e+00
         vertex 1.525991e+03 2.339670e+03 2.078486e+03
      endloop
   endfacet
   facet normal 7.071068e-01 7.071068e-01 0.000000e+00
      outer loop
         vertex 1.525991e+03 2.339670e+03 2.078486e+03
         vertex 1.781707e+03 2.083954e+03 0.000000e+00
         vertex 1.525991e+03 2.339670e+03 0.000000e+00
      endloop
   endfacet
   facet normal 8.191520e-01 5.735765e-01 0.000000e+00
      outer loop
         vertex 1.525991e+03 2.339670e+03 2.078486e+03
         vertex 1.525991e+03 2.339670e+03 0.000000e+00
         vertex 1.318565e+03 2.635906e+03 2.078486e+03
      endloop
   endfacet
   facet normal 8.191520e-01 5.735765e-01 0.000000e+00
      outer loop
         vertex 1.318565e+03 2.635906e+03 2.078486e+03
         vertex 1.525991e+03 2.339670e+03 0.000000e+00
         vertex 1.318565e+03 2.635906e+03 0.000000e+00
      endloop
   endfacet
   facet normal 9.063078e-01 4.226182e-01 0.000000e+00
      outer loop
         vertex 1.318565e+03 2.635906e+03 2.078486e+03
         vertex 1.318565e+03 2.635906e+03 0.000000e+00
         vertex 1.165730e+03 2.963660e+03 2.078486e+03
      endloop
   endfacet
   facet normal 9.063078e-01 4.226182e-01 0.000000e+00
      outer loop
         vertex 1.165730e+03 2.963660e+03 2.078486e+03
         vertex 1.318565e+03 2.635906e+03 0.000000e+00
         vertex 1.165730e+03 2.963660e+03 0.000000e+00
      endloop
   endfacet
   facet normal 9.659258e-01 2.588191e-01 0.000000e+00
      outer loop
         vertex 1.165730e+03 2.963660e+03 2.078486e+03
         vertex 1.165730e+03 2.963660e+03 0.000000e+00
         vertex 1.072132e+03 3.312975e+03 2.078486e+03
      endloop
   endfacet
   facet normal 9.659258e-01 2.588191e-01 0.000000e+00
      outer loop
         vertex 1.072132e+03 3.312975e+03 2.078486e+03
         vertex 1.165730e+03 2.963660e+03 0.000000e+00
         vertex 1.072132e+03 3.312975e+03 0.000000e+00
      endloop
   endfacet
   facet normal 9.961947e-01 8.715560e-02 0.000000e+00
      outer loop
         vertex 1.072132e+03 3.312975e+03 2.078486e+03
         vertex 1.072132e+03 3.312975e+03 0.000000e+00
         vertex 1.040613e+03 3.673236e+03 2.078486e+03
      endloop
   endfacet
   facet normal 9.961947e-01 8.715560e-02 0.000000e+00
      outer loop
         vertex 1.040613e+03 3.673236e+03 2.078486e+03
         vertex 1.072132e+03 3.312975e+03 0.000000e+00
         vertex 1.040613e+03 3.673236e+03 0.000000e+00
      endloop
   endfacet
   facet normal 9.961947e-01 -8.715554e-02 0.000000e+00
      outer loop
         vertex 1.040613e+03 3.673236e+03 2.078486e+03
         vertex 1.040613e+03 3.673236e+03 0.000000e+00
         vertex 1.072132e+03 4.033497e+03 2.078486e+03
      endloop
   endfacet
   facet normal 9.961947e-01 -8.715554e-02 0.000000e+00
      outer loop
         vertex 1.072132e+03 4.033497e+03 2.078486e+03
         vertex 1.040613e+03 3.673236e+03 0.000000e+00
         vertex 1.072132e+03 4.033497e+03 0.000000e+00
      endloop
   endfacet
   facet normal 9.659257e-01 -2.588194e-01 0.000000e+00
      outer loop
         vertex 1.072132e+03 4.033497e+03 2.078486e+03
         vertex 1.072132e+03 4.033497e+03 0.000000e+00
         vertex 1.165730e+03 4.382811e+03 2.078486e+03
      endloop
   endfacet
   facet normal 9.659257e-01 -2.588194e-01 0.000000e+00
      outer loop
         vertex 1.165730e+03 4.382811e+03 2.078486e+03
         vertex 1.072132e+03 4.033497e+03 0.000000e+00
         vertex 1.165730e+03 4.382811e+03 0.000000e+00
      endloop
   endfacet
   facet normal 9.063080e-01 -4.226177e-01 0.000000e+00
      outer loop
         vertex 1.165730e+03 4.382811e+03 2.078486e+03
         vertex 1.165730e+03 4.382811e+03 0.000000e+00
         vertex 1.318565e+03 4.710566e+03 2.078486e+03
      endloop
   endfacet
   facet normal 9.063080e-01 -4.226177e-01 0.000000e+00
      outer loop
         vertex 1.318565e+03 4.710566e+03 2.078486e+03
         vertex 1.165730e+03 4.382811e+03 0.000000e+00
         vertex 1.318565e+03 4.710566e+03 0.000000e+00
      endloop
   endfacet
   facet normal 8.191518e-01 -5.735768e-01 0.000000e+00
      outer loop
         vertex 1.318565e+03 4.710566e+03 2.078486e+03
         vertex 1.318565e+03 4.710566e+03 0.000000e+00
         vertex 1.525991e+03 5.006802e+03 2.078486e+03
      endloop
   endfacet
   facet normal 8.191518e-01 -5.735768e-01 0.000000e+00
      outer loop
         vertex 1.525991e+03 5.006802e+03 2.078486e+03
         vertex 1.318565e+03 4.710566e+03 0.000000e+00
         vertex 1.525991e+03 5.006802e+03 0.000000e+00
      endloop
   endfacet
   facet normal 7.071065e-01 -7.071071e-01 0.000000e+00
      outer loop
         vertex 1.525991e+03 5.006802e+03 2.078486e+03
         vertex 1.525991e+03 5.006802e+03 0.000000e+00
         vertex 1.781707e+03 5.262517e+03 2.078486e+03
      endloop
   endfacet
   facet normal 7.071065e-01 -7.071071e-01 0.000000e+00
      outer loop
         vertex 1.781707e+03 5.262517e+03 2.078486e+03
         vertex 1.525991e+03 5.006802e+03 0.000000e+00
         vertex 1.781707e+03 5.262517e+03 0.000000e+00
      endloop
   endfacet
   facet normal 5.735766e-01 -8.191519e-01 0.000000e+00
      outer loop
         vertex 1.781707e+03 5.262517e+03 2.078486e+03
         vertex 1.781707e+03 5.262517e+03 0.000000e+00
         vertex 2.077943e+03 5.469944e+03 2.078486e+03
      endloop
   endfacet
   facet normal 5.735766e-01 -8.191519e-01 0.000000e+00
      outer loop
         vertex 2.077943e+03 5.469944e+03 2.078486e+03
         vertex 1.781707e+03 5.262517e+03 0.000000e+00
         vertex 2.077943e+03 5.469944e+03 0.000000e+00
      endloop
   endfacet
   facet normal 4.226180e-01 -9.063079e-01 0.000000e+00
      outer loop
         vertex 2.077943e+03 5.469944e+03 2.078486e+03
         vertex 2.077943e+03 5.469944e+03 0.000000e+00
         vertex 2.405698e+03 5.622778e+03 2.078486e+03
      endloop
   endfacet
   facet normal 4.226180e-01 -9.063079e-01 0.000000e+00
      outer loop
         vertex 2.405698e+03 5.622778e+03 2.078486e+03
         vertex 2.077943e+03 5.469944e+03 0.000000e+00
         vertex 2.405698e+03 5.622778e+03 0.000000e+00
      endloop
   endfacet
   facet normal 2.588199e-01 -9.659256e-01 0.000000e+00
      outer loop
         vertex 2.405698e+03 5.622778e+03 2.078486e+03
         vertex 2.405698e+03 5.622778e+03 0.000000e+00
         vertex 2.755012e+03 5.716377e+03 2.078486e+03
      endloop
   endfacet
   facet normal 2.588199e-01 -9.659256e-01 0.000000e+00
      outer loop
         vertex 2.755012e+03 5.716377e+03 2.078486e+03
         vertex 2.405698e+03 5.622778e+03 0.000000e+00
         vertex 2.755012e+03 5.716377e+03 0.000000e+00
      endloop
   endfacet
   facet normal 8.715625e-02 -9.961947e-01 0.000000e+00
      outer loop
         vertex 2.755012e+03 5.716377e+03 2.078486e+03
         vertex 2.755012e+03 5.716377e+03 0.000000e+00
         vertex 3.115273e+03 5.747896e+03 2.078486e+03
      endloop
   endfacet
   facet normal 8.715625e-02 -9.961947e-01 0.000000e+00
      outer loop
         vertex 3.115273e+03 5.747896e+03 2.078486e+03
         vertex 2.755012e+03 5.716377e+03 0.000000e+00
         vertex 3.115273e+03 5.747896e+03 0.000000e+00
      endloop
   endfacet
   facet normal -8.715625e-02 -9.961947e-01 -0.000000e+00
      outer loop
         vertex 3.115273e+03 5.747896e+03 2.078486e+03
         vertex 3.115273e+03 5.747896e+03 0.000000e+00
         vertex 3.475534e+03 5.716377e+03 2.078486e+03
      endloop
   endfacet
   facet normal -8.715625e-02 -9.961947e-01 -0.000000e+00
      outer loop
         vertex 3.475534e+03 5.716377e+03 2.078486e+03
         vertex 3.115273e+03 5.747896e+03 0.000000e+00
         vertex 3.475534e+03 5.716377e+03 0.000000e+00
      endloop
   endfacet
   facet normal -2.588197e-01 -9.659257e-01 -0.000000e+00
      outer loop
         vertex 3.475534e+03 5.716377e+03 2.078486e+03
         vertex 3.475534e+03 5.716377e+03 0.000000e+00
         vertex 3.824849e+03 5.622778e+03 2.078486e+03
      endloop
   endfacet
   facet normal -2.588197e-01 -9.659257e-01 -0.000000e+00
      outer loop
         vertex 3.824849e+03 5.622778e+03 2.078486e+03
         vertex 3.475534e+03 5.716377e+03 0.000000e+00
         vertex 3.824849e+03 5.622778e+03 0.000000e+00
      endloop
   endfacet
   facet normal -4.226182e-01 -9.063078e-01 -0.000000e+00
      outer loop
         vertex 3.824849e+03 5.622778e+03 2.078486e+03
         vertex 3.824849e+03 5.622778e+03 0.000000e+00
         vertex 4.152603e+03 5.469944e+03 2.078486e+03
      endloop
   endfacet
   facet normal -4.226182e-01 -9.063078e-01 -0.000000e+00
      outer loop
         vertex 4.152603e+03 5.469944e+03 2.078486e+03
         vertex 3.824849e+03 5.622778e+03 0.000000e+00
         vertex 4.152603e+03 5.469944e+03 0.000000e+00
      endloop
   endfacet
   facet normal -5.735761e-01 -8.191523e-01 -0.000000e+00
      outer loop
         vertex 4.152603e+03 5.469944e+03 2.078486e+03
         vertex 4.152603e+03 5.469944e+03 0.000000e+00
         vertex 4.448839e+03 5.262517e+03 2.078486e+03
      endloop
   endfacet
   facet normal -5.735761e-01 -8.191523e-01 -0.000000e+00
      outer loop
         vertex 4.448839e+03 5.262517e+03 2.078486e+03
         vertex 4.152603e+03 5.469944e+03 0.000000e+00
         vertex 4.448839e+03 5.262517e+03 0.000000e+00
      endloop
   endfacet
   facet normal -7.071068e-01 -7.071068e-01 -0.000000e+00
      outer loop
         vertex 4.448839e+03 5.262517e+03 2.078486e+03
         vertex 4.448839e+03 5.262517e+03 0.000000e+00
         vertex 4.704555e+03 5.006802e+03 2.078486e+03
      endloop
   endfacet
   facet normal -7.071068e-01 -7.071068e-01 -0.000000e+00
      outer loop
         vertex 4.704555e+03 5.006802e+03 2.078486e+03
         vertex 4.448839e+03 5.262517e+03 0.000000e+00
         vertex 4.704555e+03 5.006802e+03 0.000000e+00
      endloop
   endfacet
   facet normal -8.191518e-01 -5.735768e-01 -0.000000e+00
      outer loop
         vertex 4.704555e+03 5.006802e+03 2.078486e+03
         vertex 4.704555e+03 5.006802e+03 0.000000e+00
         vertex 4.911982e+03 4.710566e+03 2.078486e+03
      endloop
   endfacet
   facet normal -8.191518e-01 -5.735768e-01 -0.000000e+00
      outer loop
         vertex 4.911982e+03 4.710566e+03 2.078486e+03
         vertex 4.704555e+03 5.006802e+03 0.000000e+00
         vertex 4.911982e+03 4.710566e+03 0.000000e+00
      endloop
   endfacet
   facet normal -9.063080e-01 -4.226177e-01 -0.000000e+00
      outer loop
         vertex 4.911982e+03 4.710566e+03 2.078486e+03
         vertex 4.911982e+03 4.710566e+03 0.000000e+00
         vertex 5.064816e+03 4.382811e+03 2.078486e+03
      endloop
   endfacet
   facet normal -9.063080e-01 -4.226177e-01 -0.000000e+00
      outer loop
         vertex 5.064816e+03 4.382811e+03 2.078486e+03
         vertex 4.911982e+03 4.710566e+03 0.000000e+00
         vertex 5.064816e+03 4.382811e+03 0.000000e+00
      endloop
   endfacet
   facet normal -9.659256e-01 -2.588200e-01 -0.000000e+00
      outer loop
         vertex 5.064816e+03 4.382811e+03 2.078486e+03
         vertex 5.064816e+03 4.382811e+03 0.000000e+00
         vertex 5.158415e+03 4.033497e+03 2.078486e+03
      endloop
   endfacet
   facet normal -9.659256e-01 -2.588200e-01 -0.000000e+00
      outer loop
         vertex 5.158415e+03 4.033497e+03 2.078486e+03
         vertex 5.064816e+03 4.382811e+03 0.000000e+00
         vertex 5.158415e+03 4.033497e+03 0.000000e+00
      endloop
   endfacet
   facet normal -9.961948e-01 -8.715489e-02 -0.000000e+00
      outer loop
         vertex 5.158415e+03 4.033497e+03 2.078486e+03
         vertex 5.158415e+03 4.033497e+03 0.000000e+00
         vertex 5.189933e+03 3.673236e+03 2.078486e+03
      endloop
   endfacet
   facet normal -9.961948e-01 -8.715489e-02 -0.000000e+00
      outer loop
         vertex 5.189933e+03 3.673236e+03 2.078486e+03
         vertex 5.158415e+03 4.033497e+03 0.000000e+00
         vertex 5.189933e+03 3.673236e+03 0.000000e+00
      endloop
   endfacet
   facet normal -9.961948e-01 8.715494e-02 0.000000e+00
      outer loop
         vertex 5.189933e+03 3.673236e+03 2.078486e+03
         vertex 5.189933e+03 3.673236e+03 0.000000e+00
         vertex 5.158415e+03 3.312975e+03 2.078486e+03
      endloop
   endfacet
   facet normal -9.961948e-01 8.715494e-02 0.000000e+00
      outer loop
         vertex 5.158415e+03 3.312975e+03 2.078486e+03
         vertex 5.189933e+03 3.673236e+03 0.000000e+00
         vertex 5.158415e+03 3.312975e+03 0.000000e+00
      endloop
   endfacet
   facet normal -9.659257e-01 2.588197e-01 0.000000e+00
      outer loop
         vertex 5.158415e+03 3.312975e+03 2.078486e+03
         vertex 5.158415e+03 3.312975e+03 0.000000e+00
         vertex 5.064816e+03 2.963660e+03 2.078486e+03
      endloop
   endfacet
   facet normal -9.659257e-01 2.588197e-01 0.000000e+00
      outer loop
         vertex 5.064816e+03 2.963660e+03 2.078486e+03
         vertex 5.158415e+03 3.312975e+03 0.000000e+00
         vertex 5.064816e+03 2.963660e+03 0.000000e+00
      endloop
   endfacet
   facet normal -9.063078e-01 4.226182e-01 0.000000e+00
      outer loop
         vertex 5.064816e+03 2.963660e+03 2.078486e+03
         vertex 5.064816e+03 2.963660e+03 0.000000e+00
         vertex 4.911982e+03 2.635906e+03 2.078486e+03
      endloop
   endfacet
   facet normal -9.063078e-01 4.226182e-01 0.000000e+00
      outer loop
         vertex 4.911982e+03 2.635906e+03 2.078486e+03
         vertex 5.064816e+03 2.963660e+03 0.000000e+00
         vertex 4.911982e+03 2.635906e+03 0.000000e+00
      endloop
   endfacet
   facet normal -8.191520e-01 5.735765e-01 0.000000e+00
      outer loop
         vertex 4.911982e+03 2.635906e+03 2.078486e+03
         vertex 4.911982e+03 2.635906e+03 0.000000e+00
         vertex 4.704555e+03 2.339670e+03 2.078486e+03
      endloop
   endfacet
   facet normal -8.191520e-01 5.735765e-01 0.000000e+00
      outer loop
         vertex 4.704555e+03 2.339670e+03 2.078486e+03
         vertex 4.911982e+03 2.635906e+03 0.000000e+00
         vertex 4.704555e+03 2.339670e+03 0.000000e+00
      endloop
   endfacet
   facet normal -7.071071e-01 7.071065e-01 0.000000e+00
      outer loop
         vertex 4.704555e+03 2.339670e+03 2.078486e+03
         vertex 4.704555e+03 2.339670e+03 0.000000e+00
         vertex 4.448839e+03 2.083954e+03 2.078486e+03
      endloop
   endfacet
   facet normal -7.071071e-01 7.071065e-01 0.000000e+00
      outer loop
         vertex 4.448839e+03 2.083954e+03 2.078486e+03
         vertex 4.704555e+03 2.339670e+03 0.000000e+00
         vertex 4.448839e+03 2.083954e+03 0.000000e+00
      endloop
   endfacet
   facet normal -5.735759e-01 8.191524e-01 0.000000e+00
      outer loop
         vertex 4.448839e+03 2.083954e+03 2.078486e+03
         vertex 4.448839e+03 2.083954e+03 0.000000e+00
         vertex 4.152603e+03 1.876527e+03 2.078486e+03
      endloop
   endfacet
   facet normal -5.735759e-01 8.191524e-01 0.000000e+00
      outer loop
         vertex 4.152603e+03 1.876527e+03 2.078486e+03
         vertex 4.448839e+03 2.083954e+03 0.000000e+00
         vertex 4.152603e+03 1.876527e+03 0.000000e+00
      endloop
   endfacet
   facet normal -4.226182e-01 9.063078e-01 0.000000e+00
      outer loop
         vertex 4.152603e+03 1.876527e+03 2.078486e+03
         vertex 4.152603e+03 1.876527e+03 0.000000e+00
         vertex 3.824849e+03 1.723693e+03 2.078486e+03
      endloop
   endfacet
   facet normal -4.226182e-01 9.063078e-01 0.000000e+00
      outer loop
         vertex 3.824849e+03 1.723693e+03 2.078486e+03
         vertex 4.152603e+03 1.876527e+03 0.000000e+00
         vertex 3.824849e+03 1.723693e+03 0.000000e+00
      endloop
   endfacet
   facet normal -2.588191e-01 9.659258e-01 0.000000e+00
      outer loop
         vertex 3.824849e+03 1.723693e+03 2.078486e+03
         vertex 3.824849e+03 1.723693e+03 0.000000e+00
         vertex 3.475534e+03 1.630094e+03 2.078486e+03
      endloop
   endfacet
   facet normal -2.588191e-01 9.659258e-01 0.000000e+00
      outer loop
         vertex 3.475534e+03 1.630094e+03 2.078486e+03
         vertex 3.824849e+03 1.723693e+03 0.000000e+00
         vertex 3.475534e+03 1.630094e+03 0.000000e+00
      endloop
   endfacet
   facet normal -8.715593e-02 9.961947e-01 0.000000e+00
      outer loop
         vertex 3.475534e+03 1.630094e+03 2.078486e+03
         vertex 3.475534e+03 1.630094e+03 0.000000e+00
         vertex 3.115273e+03 1.598575e+03 2.078486e+03
      endloop
   endfacet
   facet normal -8.715593e-02 9.961947e-01 0.000000e+00
      outer loop
         vertex 3.115273e+03 1.598575e+03 2.078486e+03
         vertex 3.475534e+03 1.630094e+03 0.000000e+00
         vertex 3.115273e+03 1.598575e+03 0.000000e+00
      endloop
   endfacet
   facet normal -0.000000e+00 0.000000e+00 -1.000000e+00
      outer loop
         vertex 3.824849e+03 1.723693e+03 2.078486e+03
         vertex 3.475534e+03 1.630094e+03 2.078486e+03
         vertex 3.115273e+03 3.673236e+03 2.078486e+03
      endloop
   endfacet
   facet normal 0.000000e+00 0.000000e+00 -1.000000e+00
      outer loop
         vertex 3.115273e+03 3.673236e+03 2.078486e+03
         vertex 3.475534e+03 1.630094e+03 2.078486e+03
         vertex 3.115273e+03 1.598575e+03 2.078486e+03
      endloop
   endfacet
   facet normal 0.000000e+00 -0.000000e+00 -1.000000e+00
      outer loop
         vertex 3.115273e+03 3.673236e+03 2.078486e+03
         vertex 3.115273e+03 1.598575e+03 2.078486e+03
         vertex 2.755012e+03 1.630094e+03 2.078486e+03
      endloop
   endfacet
   facet normal -0.000000e+00 0.000000e+00 -1.000000e+00
      outer loop
         vertex 4.704555e+03 2.339670e+03 2.078486e+03
         vertex 4.448839e+03 2.083954e+03 2.078486e+03
         vertex 3.115273e+03 3.673236e+03 2.078486e+03
      endloop
   endfacet
   facet normal 0.000000e+00 0.000000e+00 -1.000000e+00
      outer loop
         vertex 3.115273e+03 3.673236e+03 2.078486e+03
         vertex 4.448839e+03 2.083954e+03 2.078486e+03
         vertex 4.152603e+03 1.876527e+03 2.078486e+03
      endloop
   endfacet
   facet normal 0.000000e+00 0.000000e+00 -1.000000e+00
      outer loop
         vertex 3.115273e+03 3.673236e+03 2.078486e+03
         vertex 4.152603e+03 1.876527e+03 2.078486e+03
         vertex 3.824849e+03 1.723693e+03 2.078486e+03
      endloop
   endfacet
   facet normal -0.000000e+00 0.000000e+00 -1.000000e+00
      outer loop
         vertex 5.158415e+03 3.312975e+03 2.078486e+03
         vertex 5.064816e+03 2.963660e+03 2.078486e+03
         vertex 3.115273e+03 3.673236e+03 2.078486e+03
      endloop
   endfacet
   facet normal 0.000000e+00 0.000000e+00 -1.000000e+00
      outer loop
         vertex 3.115273e+03 3.673236e+03 2.078486e+03
         vertex 5.064816e+03 2.963660e+03 2.078486e+03
         vertex 4.911982e+03 2.635906e+03 2.078486e+03
      endloop
   endfacet
   facet normal 0.000000e+00 0.000000e+00 -1.000000e+00
      outer loop
         vertex 3.115273e+03 3.673236e+03 2.078486e+03
         vertex 4.911982e+03 2.635906e+03 2.078486e+03
         vertex 4.704555e+03 2.339670e+03 2.078486e+03
      endloop
   endfacet
   facet normal 0.000000e+00 -0.000000e+00 -1.000000e+00
      outer loop
         vertex 5.064816e+03 4.382811e+03 2.078486e+03
         vertex 5.158415e+03 4.033497e+03 2.078486e+03
         vertex 3.115273e+03 3.673236e+03 2.078486e+03
      endloop
   endfacet
   facet normal 0.000000e+00 0.000000e+00 -1.000000e+00
      outer loop
         vertex 3.115273e+03 3.673236e+03 2.078486e+03
         vertex 5.158415e+03 4.033497e+03 2.078486e+03
         vertex 5.189933e+03 3.673236e+03 2.078486e+03
      endloop
   endfacet
   facet normal 0.000000e+00 0.000000e+00 -1.000000e+00
      outer loop
         vertex 3.115273e+03 3.673236e+03 2.078486e+03
         vertex 5.189933e+03 3.673236e+03 2.078486e+03
         vertex 5.158415e+03 3.312975e+03 2.078486e+03
      endloop
   endfacet
   facet normal 0.000000e+00 -0.000000e+00 -1.000000e+00
      outer loop
         vertex 4.448839e+03 5.262517e+03 2.078486e+03
         vertex 4.704555e+03 5.006802e+03 2.078486e+03
         vertex 3.115273e+03 3.673236e+03 2.078486e+03
      endloop
   endfacet
   facet normal 0.000000e+00 0.000000e+00 -1.000000e+00
      outer loop
         vertex 3.115273e+03 3.673236e+03 2.078486e+03
         vertex 4.704555e+03 5.006802e+03 2.078486e+03
         vertex 4.911982e+03 4.710566e+03 2.078486e+03
      endloop
   endfacet
   facet normal 0.000000e+00 0.000000e+00 -1.000000e+00
      outer loop
         vertex 3.115273e+03 3.673236e+03 2.078486e+03
         vertex 4.911982e+03 4.710566e+03 2.078486e+03
         vertex 5.064816e+03 4.382811e+03 2.078486e+03
      endloop
   endfacet
   facet normal 0.000000e+00 -0.000000e+00 -1.000000e+00
      outer loop
         vertex 3.475534e+03 5.716377e+03 2.078486e+03
         vertex 3.824849e+03 5.622778e+03 2.078486e+03
         vertex 3.115273e+03 3.673236e+03 2.078486e+03
      endloop
   endfacet
   facet normal 0.000000e+00 0.000000e+00 -1.000000e+00
      outer loop
         vertex 3.115273e+03 3.673236e+03 2.078486e+03
         vertex 3.824849e+03 5.622778e+03 2.078486e+03
         vertex 4.152603e+03 5.469944e+03 2.078486e+03
      endloop
   endfacet
   facet normal 0.000000e+00 0.000000e+00 -1.000000e+00
      outer loop
         vertex 3.115273e+03 3.673236e+03 2.078486e+03
         vertex 4.152603e+03 5.469944e+03 2.078486e+03
         vertex 4.448839e+03 5.262517e+03 2.078486e+03
      endloop
   endfacet
   facet normal 0.000000e+00 0.000000e+00 -1.000000e+00
      outer loop
         vertex 2.405698e+03 5.622778e+03 2.078486e+03
         vertex 2.755012e+03 5.716377e+03 2.078486e+03
         vertex 3.115273e+03 3.673236e+03 2.078486e+03
      endloop
   endfacet
   facet normal 0.000000e+00 0.000000e+00 -1.000000e+00
      outer loop
         vertex 3.115273e+03 3.673236e+03 2.078486e+03
         vertex 2.755012e+03 5.716377e+03 2.078486e+03
         vertex 3.115273e+03 5.747896e+03 2.078486e+03
      endloop
   endfacet
   facet normal 0.000000e+00 0.000000e+00 -1.000000e+00
      outer loop
         vertex 3.115273e+03 3.673236e+03 2.078486e+03
         vertex 3.115273e+03 5.747896e+03 2.078486e+03
         vertex 3.475534e+03 5.716377e+03 2.078486e+03
      endloop
   endfacet
   facet normal 0.000000e+00 0.000000e+00 -1.000000e+00
      outer loop
         vertex 1.525991e+03 5.006802e+03 2.078486e+03
         vertex 1.781707e+03 5.262517e+03 2.078486e+03
         vertex 3.115273e+03 3.673236e+03 2.078486e+03
      endloop
   endfacet
   facet normal 0.000000e+00 0.000000e+00 -1.000000e+00
      outer loop
         vertex 3.115273e+03 3.673236e+03 2.078486e+03
         vertex 1.781707e+03 5.262517e+03 2.078486e+03
         vertex 2.077943e+03 5.469944e+03 2.078486e+03
      endloop
   endfacet
   facet normal 0.000000e+00 0.000000e+00 -1.000000e+00
      outer loop
         vertex 3.115273e+03 3.673236e+03 2.078486e+03
         vertex 2.077943e+03 5.469944e+03 2.078486e+03
         vertex 2.405698e+03 5.622778e+03 2.078486e+03
      endloop
   endfacet
   facet normal 0.000000e+00 0.000000e+00 -1.000000e+00
      outer loop
         vertex 1.072132e+03 4.033497e+03 2.078486e+03
         vertex 1.165730e+03 4.382811e+03 2.078486e+03
         vertex 3.115273e+03 3.673236e+03 2.078486e+03
      endloop
   endfacet
   facet normal 0.000000e+00 0.000000e+00 -1.000000e+00
      outer loop
         vertex 3.115273e+03 3.673236e+03 2.078486e+03
         vertex 1.165730e+03 4.382811e+03 2.078486e+03
         vertex 1.318565e+03 4.710566e+03 2.078486e+03
      endloop
   endfacet
   facet normal 0.000000e+00 0.000000e+00 -1.000000e+00
      outer loop
         vertex 3.115273e+03 3.673236e+03 2.078486e+03
         vertex 1.318565e+03 4.710566e+03 2.078486e+03
         vertex 1.525991e+03 5.006802e+03 2.078486e+03
      endloop
   endfacet
   facet normal 0.000000e+00 0.000000e+00 -1.000000e+00
      outer loop
         vertex 1.165730e+03 2.963660e+03 2.078486e+03
         vertex 1.072132e+03 3.312975e+03 2.078486e+03
         vertex 3.115273e+03 3.673236e+03 2.078486e+03
      endloop
   endfacet
   facet normal -0.000000e+00 0.000000e+00 -1.000000e+00
      outer loop
         vertex 3.115273e+03 3.673236e+03 2.078486e+03
         vertex 1.072132e+03 3.312975e+03 2.078486e+03
         vertex 1.040613e+03 3.673236e+03 2.078486e+03
      endloop
   endfacet
   facet normal 0.000000e+00 0.000000e+00 -1.000000e+00
      outer loop
         vertex 3.115273e+03 3.673236e+03 2.078486e+03
         vertex 1.040613e+03 3.673236e+03 2.078486e+03
         vertex 1.072132e+03 4.033497e+03 2.078486e+03
      endloop
   endfacet
   facet normal 0.000000e+00 0.000000e+00 -1.000000e+00
      outer loop
         vertex 1.781707e+03 2.083954e+03 2.078486e+03
         vertex 1.525991e+03 2.339670e+03 2.078486e+03
         vertex 3.115273e+03 3.673236e+03 2.078486e+03
      endloop
   endfacet
   facet normal 0.000000e+00 0.000000e+00 -1.000000e+00
      outer loop
         vertex 3.115273e+03 3.673236e+03 2.078486e+03
         vertex 1.525991e+03 2.339670e+03 2.078486e+03
         vertex 1.318565e+03 2.635906e+03 2.078486e+03
      endloop
   endfacet
   facet normal 0.000000e+00 0.000000e+00 -1.000000e+00
      outer loop
         vertex 3.115273e+03 3.673236e+03 2.078486e+03
         vertex 1.318565e+03 2.635906e+03 2.078486e+03
         vertex 1.165730e+03 2.963660e+03 2.078486e+03
      endloop
   endfacet
   facet normal 0.000000e+00 0.000000e+00 -1.000000e+00
      outer loop
         vertex 2.755012e+03 1.630094e+03 2.078486e+03
         vertex 2.405698e+03 1.723693e+03 2.078486e+03
         vertex 3.115273e+03 3.673236e+03 2.078486e+03
      endloop
   endfacet
   facet normal 0.000000e+00 0.000000e+00 -1.000000e+00
      outer loop
         vertex 3.115273e+03 3.673236e+03 2.078486e+03
         vertex 2.405698e+03 1.723693e+03 2.078486e+03
         vertex 2.077943e+03 1.876527e+03 2.078486e+03
      endloop
   endfacet
   facet normal 0.000000e+00 0.000000e+00 -1.000000e+00
      outer loop
         vertex 3.115273e+03 3.673236e+03 2.078486e+03
         vertex 2.077943e+03 1.876527e+03 2.078486e+03
         vertex 1.781707e+03 2.083954e+03 2.078486e+03
      endloop
   endfacet
endsolid