solid 157
   facet normal -1.000000e+00 1.224647e-16 -1.224647e-16
      outer loop
         vertex 1.224647e-12 1.000000e+04 0.000000e+00
         vertex 0.000000e+00 -1.874700e-28 0.000000e+00
         vertex 1.160705e-12 1.000000e+04 5.221233e+02
      endloop
   endfacet
   facet normal -1.000000e+00 1.224647e-16 -1.224647e-16
      outer loop
         vertex 1.160705e-12 1.000000e+04 5.221233e+02
         vertex 0.000000e+00 -1.874700e-28 0.000000e+00
         vertex -6.394167e-14 -1.776817e-28 5.221233e+02
      endloop
   endfacet
   facet normal 0.000000e+00 1.000000e+00 0.000000e+00
      outer loop
         vertex 1.000000e+04 1.000000e+04 1.000000e+04
         vertex 1.000000e+04 1.000000e+04 1.964980e+03
         vertex 0.000000e+00 1.000000e+04 1.000000e+04
      endloop
   endfacet
   facet normal 0.000000e+00 1.000000e+00 0.000000e+00
      outer loop
         vertex 0.000000e+00 1.000000e+04 1.000000e+04
         vertex 1.000000e+04 1.000000e+04 1.964980e+03
         vertex 8.003222e+03 1.000000e+04 1.964980e+03
      endloop
   endfacet
   facet normal 0.000000e+00 1.000000e+00 0.000000e+00
      outer loop
         vertex 0.000000e+00 1.000000e+04 0.000000e+00
         vertex 0.000000e+00 1.000000e+04 5.221233e+02
         vertex 3.511970e+03 1.000000e+04 5.221233e+02
      endloop
   endfacet
   facet normal 0.000000e+00 1.000000e+00 0.000000e+00
      outer loop
         vertex 0.000000e+00 1.000000e+04 2.602483e+03
         vertex 0.000000e+00 1.000000e+04 1.000000e+04
         vertex 3.511970e+03 1.000000e+04 2.602483e+03
      endloop
   endfacet
   facet normal -0.000000e+00 1.000000e+00 -0.000000e+00
      outer loop
         vertex 3.511970e+03 1.000000e+04 2.602483e+03
         vertex 0.000000e+00 1.000000e+04 1.000000e+04
         vertex 8.003222e+03 1.000000e+04 1.964980e+03
      endloop
   endfacet
   facet normal 0.000000e+00 1.000000e+00 0.000000e+00
      outer loop
         vertex 3.511970e+03 1.000000e+04 2.602483e+03
         vertex 8.003222e+03 1.000000e+04 1.964980e+03
         vertex 3.511970e+03 1.000000e+04 5.221233e+02
      endloop
   endfacet
   facet normal -0.000000e+00 1.000000e+00 0.000000e+00
      outer loop
         vertex 3.511970e+03 1.000000e+04 5.221233e+02
         vertex 8.003222e+03 1.000000e+04 1.964980e+03
         vertex 8.003222e+03 1.000000e+04 0.000000e+00
      endloop
   endfacet
   facet normal 0.000000e+00 1.000000e+00 0.000000e+00
      outer loop
         vertex 3.511970e+03 1.000000e+04 5.221233e+02
         vertex 8.003222e+03 1.000000e+04 0.000000e+00
         vertex 0.000000e+00 1.000000e+04 0.000000e+00
      endloop
   endfacet
   facet normal -0.000000e+00 -0.000000e+00 -1.000000e+00
      outer loop
         vertex 1.000000e+04 8.840218e+03 0.000000e+00
         vertex 1.000000e+04 0.000000e+00 0.000000e+00
         vertex 8.003222e+03 8.840218e+03 0.000000e+00
      endloop
   endfacet
   facet normal 0.000000e+00 -0.000000e+00 -1.000000e+00
      outer loop
         vertex 8.003222e+03 8.840218e+03 0.000000e+00
         vertex 1.000000e+04 0.000000e+00 0.000000e+00
         vertex 0.000000e+00 0.000000e+00 0.000000e+00
      endloop
   endfacet
   facet normal -0.000000e+00 0.000000e+00 -1.000000e+00
      outer loop
         vertex 8.003222e+03 8.840218e+03 0.000000e+00
         vertex 0.000000e+00 0.000000e+00 0.000000e+00
         vertex 8.003222e+03 1.000000e+04 0.000000e+00
      endloop
   endfacet
   facet normal -0.000000e+00 0.000000e+00 -1.000000e+00
      outer loop
         vertex 8.003222e+03 1.000000e+04 0.000000e+00
         vertex 0.000000e+00 0.000000e+00 0.000000e+00
         vertex 0.000000e+00 1.000000e+04 0.000000e+00
      endloop
   endfacet
   facet normal -1.224647e-16 -1.000000e+00 -0.000000e+00
      outer loop
         vertex 0.000000e+00 6.123234e-13 5.221233e+02
         vertex 0.000000e+00 6.123234e-13 0.000000e+00
         vertex 3.511970e+03 1.822311e-13 5.221233e+02
      endloop
   endfacet
   facet normal -1.224647e-16 -1.000000e+00 -8.977996e-24
      outer loop
         vertex 3.511970e+03 1.822311e-13 5.221233e+02
         vertex 0.000000e+00 6.123234e-13 0.000000e+00
         vertex 1.000000e+04 -6.123234e-13 0.000000e+00
      endloop
   endfacet
   facet normal -1.224647e-16 -1.000000e+00 0.000000e+00
      outer loop
         vertex 3.511970e+03 1.822311e-13 5.221233e+02
         vertex 1.000000e+04 -6.123234e-13 0.000000e+00
         vertex 3.511970e+03 1.822311e-13 2.602483e+03
      endloop
   endfacet
   facet normal -1.224647e-16 -1.000000e+00 0.000000e+00
      outer loop
         vertex 3.511970e+03 1.822311e-13 2.602483e+03
         vertex 1.000000e+04 -6.123234e-13 0.000000e+00
         vertex 1.000000e+04 -6.123234e-13 1.000000e+04
      endloop
   endfacet
   facet normal -1.224647e-16 -1.000000e+00 1.804329e-24
      outer loop
         vertex 3.511970e+03 1.822311e-13 2.602483e+03
         vertex 1.000000e+04 -6.123234e-13 1.000000e+04
         vertex 0.000000e+00 6.123234e-13 2.602483e+03
      endloop
   endfacet
   facet normal -1.224647e-16 -1.000000e+00 0.000000e+00
      outer loop
         vertex 0.000000e+00 6.123234e-13 2.602483e+03
         vertex 1.000000e+04 -6.123234e-13 1.000000e+04
         vertex 0.000000e+00 6.123234e-13 1.000000e+04
      endloop
   endfacet
   facet normal -1.224647e-16 0.000000e+00 1.000000e+00
      outer loop
         vertex 1.000000e+04 6.022831e+03 1.000000e+04
         vertex 1.000000e+04 1.000000e+04 1.000000e+04
         vertex 4.229859e+03 6.022831e+03 1.000000e+04
      endloop
   endfacet
   facet normal -1.224647e-16 6.757804e-24 1.000000e+00
      outer loop
         vertex 4.229859e+03 6.022831e+03 1.000000e+04
         vertex 1.000000e+04 1.000000e+04 1.000000e+04
         vertex 0.000000e+00 1.000000e+04 1.000000e+04
      endloop
   endfacet
   facet normal -1.224647e-16 0.000000e+00 1.000000e+00
      outer loop
         vertex 4.229859e+03 6.022831e+03 1.000000e+04
         vertex 0.000000e+00 1.000000e+04 1.000000e+04
         vertex 4.229859e+03 5.000000e+03 1.000000e+04
      endloop
   endfacet
   facet normal -1.224647e-16 1.864981e-32 1.000000e+00
      outer loop
         vertex 4.229859e+03 5.000000e+03 1.000000e+04
         vertex 0.000000e+00 1.000000e+04 1.000000e+04
         vertex 0.000000e+00 0.000000e+00 1.000000e+04
      endloop
   endfacet
   facet normal -1.224647e-16 -9.315866e-24 1.000000e+00
      outer loop
         vertex 4.229859e+03 5.000000e+03 1.000000e+04
         vertex 0.000000e+00 0.000000e+00 1.000000e+04
         vertex 1.000000e+04 5.000000e+03 1.000000e+04
      endloop
   endfacet
   facet normal -1.224647e-16 0.000000e+00 1.000000e+00
      outer loop
         vertex 1.000000e+04 5.000000e+03 1.000000e+04
         vertex 0.000000e+00 0.000000e+00 1.000000e+04
         vertex 1.000000e+04 0.000000e+00 1.000000e+04
      endloop
   endfacet
   facet normal -1.000000e+00 1.224647e-16 -1.224647e-16
      outer loop
         vertex -1.224647e-12 0.000000e+00 1.000000e+04
         vertex 0.000000e+00 1.000000e+04 1.000000e+04
         vertex -3.187122e-13 -1.386812e-28 2.602483e+03
      endloop
   endfacet
   facet normal -1.000000e+00 1.224647e-16 -1.224647e-16
      outer loop
         vertex -3.187122e-13 -1.386812e-28 2.602483e+03
         vertex 0.000000e+00 1.000000e+04 1.000000e+04
         vertex 9.059346e-13 1.000000e+04 2.602483e+03
      endloop
   endfacet
   facet normal 1.000000e+00 0.000000e+00 -0.000000e+00
      outer loop
         vertex 1.000000e+04 5.000000e+03 6.073046e+03
         vertex 1.000000e+04 5.000000e+03 1.000000e+04
         vertex 1.000000e+04 0.000000e+00 1.000000e+04
      endloop
   endfacet
   facet normal 1.000000e+00 0.000000e+00 0.000000e+00
      outer loop
         vertex 1.000000e+04 -1.874700e-28 0.000000e+00
         vertex 1.000000e+04 8.840218e+03 0.000000e+00
         vertex 1.000000e+04 8.840218e+03 1.964980e+03
      endloop
   endfacet
   facet normal 1.000000e+00 0.000000e+00 0.000000e+00
      outer loop
         vertex 1.000000e+04 0.000000e+00 1.000000e+04
         vertex 1.000000e+04 -1.874700e-28 0.000000e+00
         vertex 1.000000e+04 5.000000e+03 6.073046e+03
      endloop
   endfacet
   facet normal 1.000000e+00 0.000000e+00 0.000000e+00
      outer loop
         vertex 1.000000e+04 5.000000e+03 6.073046e+03
         vertex 1.000000e+04 -1.874700e-28 0.000000e+00
         vertex 1.000000e+04 8.840218e+03 1.964980e+03
      endloop
   endfacet
   facet normal 1.000000e+00 -0.000000e+00 0.000000e+00
      outer loop
         vertex 1.000000e+04 5.000000e+03 6.073046e+03
         vertex 1.000000e+04 8.840218e+03 1.964980e+03
         vertex 1.000000e+04 6.022831e+03 6.073046e+03
      endloop
   endfacet
   facet normal 1.000000e+00 0.000000e+00 0.000000e+00
      outer loop
         vertex 1.000000e+04 6.022831e+03 6.073046e+03
         vertex 1.000000e+04 8.840218e+03 1.964980e+03
         vertex 1.000000e+04 1.000000e+04 1.964980e+03
      endloop
   endfacet
   facet normal 1.000000e+00 -0.000000e+00 0.000000e+00
      outer loop
         vertex 1.000000e+04 6.022831e+03 6.073046e+03
         vertex 1.000000e+04 1.000000e+04 1.964980e+03
         vertex 1.000000e+04 6.022831e+03 1.000000e+04
      endloop
   endfacet
   facet normal 1.000000e+00 -0.000000e+00 0.000000e+00
      outer loop
         vertex 1.000000e+04 6.022831e+03 1.000000e+04
         vertex 1.000000e+04 1.000000e+04 1.964980e+03
         vertex 1.000000e+04 1.000000e+04 1.000000e+04
      endloop
   endfacet
   facet normal 0.000000e+00 -1.000000e+00 0.000000e+00
      outer loop
         vertex 4.229859e+03 6.022831e+03 1.000000e+04
         vertex 4.229859e+03 6.022831e+03 6.073046e+03
         vertex 1.000000e+04 6.022831e+03 1.000000e+04
      endloop
   endfacet
   facet normal 0.000000e+00 -1.000000e+00 -0.000000e+00
      outer loop
         vertex 1.000000e+04 6.022831e+03 1.000000e+04
         vertex 4.229859e+03 6.022831e+03 6.073046e+03
         vertex 1.000000e+04 6.022831e+03 6.073046e+03
      endloop
   endfacet
   facet normal -0.000000e+00 0.000000e+00 1.000000e+00
      outer loop
         vertex 4.229859e+03 6.022831e+03 6.073046e+03
         vertex 4.229859e+03 5.000000e+03 6.073046e+03
         vertex 1.000000e+04 6.022831e+03 6.073046e+03
      endloop
   endfacet
   facet normal 0.000000e+00 0.000000e+00 1.000000e+00
      outer loop
         vertex 1.000000e+04 6.022831e+03 6.073046e+03
         vertex 4.229859e+03 5.000000e+03 6.073046e+03
         vertex 1.000000e+04 5.000000e+03 6.073046e+03
      endloop
   endfacet
   facet normal 0.000000e+00 1.000000e+00 0.000000e+00
      outer loop
         vertex 4.229859e+03 5.000000e+03 6.073046e+03
         vertex 4.229859e+03 5.000000e+03 1.000000e+04
         vertex 1.000000e+04 5.000000e+03 6.073046e+03
      endloop
   endfacet
   facet normal 0.000000e+00 1.000000e+00 -0.000000e+00
      outer loop
         vertex 1.000000e+04 5.000000e+03 6.073046e+03
         vertex 4.229859e+03 5.000000e+03 1.000000e+04
         vertex 1.000000e+04 5.000000e+03 1.000000e+04
      endloop
   endfacet
   facet normal 1.000000e+00 -0.000000e+00 0.000000e+00
      outer loop
         vertex 4.229859e+03 5.000000e+03 1.000000e+04
         vertex 4.229859e+03 5.000000e+03 6.073046e+03
         vertex 4.229859e+03 6.022831e+03 1.000000e+04
      endloop
   endfacet
   facet normal 1.000000e+00 0.000000e+00 0.000000e+00
      outer loop
         vertex 4.229859e+03 6.022831e+03 1.000000e+04
         vertex 4.229859e+03 5.000000e+03 6.073046e+03
         vertex 4.229859e+03 6.022831e+03 6.073046e+03
      endloop
   endfacet
   facet normal -0.000000e+00 0.000000e+00 1.000000e+00
      outer loop
         vertex 0.000000e+00 6.123234e-13 5.221233e+02
         vertex 3.511970e+03 3.972772e-13 5.221233e+02
         vertex 0.000000e+00 1.000000e+04 5.221233e+02
      endloop
   endfacet
   facet normal -0.000000e+00 0.000000e+00 1.000000e+00
      outer loop
         vertex 0.000000e+00 1.000000e+04 5.221233e+02
         vertex 3.511970e+03 3.972772e-13 5.221233e+02
         vertex 3.511970e+03 1.000000e+04 5.221233e+02
      endloop
   endfacet
   facet normal -1.000000e+00 0.000000e+00 0.000000e+00
      outer loop
         vertex 3.511970e+03 3.972772e-13 5.221233e+02
         vertex 3.511970e+03 3.972772e-13 2.602483e+03
         vertex 3.511970e+03 1.000000e+04 5.221233e+02
      endloop
   endfacet
   facet normal -1.000000e+00 0.000000e+00 0.000000e+00
      outer loop
         vertex 3.511970e+03 1.000000e+04 5.221233e+02
         vertex 3.511970e+03 3.972772e-13 2.602483e+03
         vertex 3.511970e+03 1.000000e+04 2.602483e+03
      endloop
   endfacet
   facet normal 0.000000e+00 0.000000e+00 -1.000000e+00
      outer loop
         vertex 3.511970e+03 3.972772e-13 2.602483e+03
         vertex 0.000000e+00 6.123234e-13 2.602483e+03
         vertex 3.511970e+03 1.000000e+04 2.602483e+03
      endloop
   endfacet
   facet normal -0.000000e+00 0.000000e+00 -1.000000e+00
      outer loop
         vertex 3.511970e+03 1.000000e+04 2.602483e+03
         vertex 0.000000e+00 6.123234e-13 2.602483e+03
         vertex 0.000000e+00 1.000000e+04 2.602483e+03
      endloop
   endfacet
   facet normal 0.000000e+00 1.000000e+00 0.000000e+00
      outer loop
         vertex 8.003222e+03 8.840218e+03 0.000000e+00
         vertex 8.003222e+03 8.840218e+03 1.964980e+03
         vertex 1.000000e+04 8.840218e+03 0.000000e+00
      endloop
   endfacet
   facet normal 0.000000e+00 1.000000e+00 -0.000000e+00
      outer loop
         vertex 1.000000e+04 8.840218e+03 0.000000e+00
         vertex 8.003222e+03 8.840218e+03 1.964980e+03
         vertex 1.000000e+04 8.840218e+03 1.964980e+03
      endloop
   endfacet
   facet normal 0.000000e+00 0.000000e+00 -1.000000e+00
      outer loop
         vertex 8.003222e+03 8.840218e+03 1.964980e+03
         vertex 8.003222e+03 1.000000e+04 1.964980e+03
         vertex 1.000000e+04 8.840218e+03 1.964980e+03
      endloop
   endfacet
   facet normal 0.000000e+00 0.000000e+00 -1.000000e+00
      outer loop
         vertex 1.000000e+04 8.840218e+03 1.964980e+03
         vertex 8.003222e+03 1.000000e+04 1.964980e+03
         vertex 1.000000e+04 1.000000e+04 1.964980e+03
      endloop
   endfacet
   facet normal 1.000000e+00 0.000000e+00 0.000000e+00
      outer loop
         vertex 8.003222e+03 1.000000e+04 1.964980e+03
         vertex 8.003222e+03 8.840218e+03 1.964980e+03
         vertex 8.003222e+03 1.000000e+04 0.000000e+00
      endloop
   endfacet
   facet normal 1.000000e+00 0.000000e+00 0.000000e+00
      outer loop
         vertex 8.003222e+03 1.000000e+04 0.000000e+00
         vertex 8.003222e+03 8.840218e+03 1.964980e+03
         vertex 8.003222e+03 8.840218e+03 0.000000e+00
      endloop
   endfacet
endsolid