solid 161
   facet normal -1.000000e+00 6.123236e-17 -1.224647e-16
      outer loop
         vertex 1.224647e-12 1.000000e+04 0.000000e+00
         vertex 1.118686e-12 8.269537e+03 0.000000e+00
         vertex 8.805955e-13 8.269537e+03 1.944160e+03
      endloop
   endfacet
   facet normal -1.000000e+00 6.123233e-17 -1.224647e-16
      outer loop
         vertex 8.597660e-13 4.041045e+03 0.000000e+00
         vertex 6.123234e-13 1.776357e-12 0.000000e+00
         vertex 6.216751e-13 4.041045e+03 1.944160e+03
      endloop
   endfacet
   facet normal -1.000000e+00 6.123234e-17 -1.224647e-16
      outer loop
         vertex 6.216751e-13 4.041045e+03 1.944160e+03
         vertex 6.123234e-13 1.776357e-12 0.000000e+00
         vertex -6.123234e-13 1.776357e-12 1.000000e+04
      endloop
   endfacet
   facet normal -1.000000e+00 6.123234e-17 -1.224647e-16
      outer loop
         vertex 6.216751e-13 4.041045e+03 1.944160e+03
         vertex -6.123234e-13 1.776357e-12 1.000000e+04
         vertex 8.805955e-13 8.269537e+03 1.944160e+03
      endloop
   endfacet
   facet normal -1.000000e+00 6.123234e-17 -1.224647e-16
      outer loop
         vertex 8.805955e-13 8.269537e+03 1.944160e+03
         vertex -6.123234e-13 1.776357e-12 1.000000e+04
         vertex 0.000000e+00 1.000000e+04 1.000000e+04
      endloop
   endfacet
   facet normal -1.000000e+00 6.123234e-17 -1.224647e-16
      outer loop
         vertex 8.805955e-13 8.269537e+03 1.944160e+03
         vertex 0.000000e+00 1.000000e+04 1.000000e+04
         vertex 1.224647e-12 1.000000e+04 0.000000e+00
      endloop
   endfacet
   facet normal -6.123234e-17 -1.000000e+00 6.123232e-17
      outer loop
         vertex 1.000000e+04 1.972152e-28 0.000000e+00
         vertex 1.000000e+04 8.129094e-14 1.327582e+03
         vertex 6.320491e+03 3.065959e-13 1.327582e+03
      endloop
   endfacet
   facet normal -6.123234e-17 -1.000000e+00 6.123234e-17
      outer loop
         vertex 1.000000e+04 1.670731e-13 2.728510e+03
         vertex 1.000000e+04 6.123234e-13 1.000000e+04
         vertex 6.320491e+03 3.923780e-13 2.728510e+03
      endloop
   endfacet
   facet normal -6.123234e-17 -1.000000e+00 6.123234e-17
      outer loop
         vertex 6.320491e+03 3.923780e-13 2.728510e+03
         vertex 1.000000e+04 6.123234e-13 1.000000e+04
         vertex 0.000000e+00 1.224647e-12 1.000000e+04
      endloop
   endfacet
   facet normal -6.123232e-17 -1.000000e+00 6.123236e-17
      outer loop
         vertex 6.320491e+03 3.923780e-13 2.728510e+03
         vertex 0.000000e+00 1.224647e-12 1.000000e+04
         vertex 6.320491e+03 3.065959e-13 1.327582e+03
      endloop
   endfacet
   facet normal -6.123234e-17 -1.000000e+00 6.123234e-17
      outer loop
         vertex 6.320491e+03 3.065959e-13 1.327582e+03
         vertex 0.000000e+00 1.224647e-12 1.000000e+04
         vertex 0.000000e+00 6.123234e-13 0.000000e+00
      endloop
   endfacet
   facet normal -6.123234e-17 -1.000000e+00 6.123233e-17
      outer loop
         vertex 6.320491e+03 3.065959e-13 1.327582e+03
         vertex 0.000000e+00 6.123234e-13 0.000000e+00
         vertex 1.000000e+04 1.972152e-28 0.000000e+00
      endloop
   endfacet
   facet normal 1.000000e+00 0.000000e+00 0.000000e+00
      outer loop
         vertex 1.000000e+04 1.158531e+03 1.327582e+03
         vertex 1.000000e+04 0.000000e+00 1.327582e+03
         vertex 1.000000e+04 0.000000e+00 0.000000e+00
      endloop
   endfacet
   facet normal 1.000000e+00 0.000000e+00 0.000000e+00
      outer loop
         vertex 1.000000e+04 0.000000e+00 1.000000e+04
         vertex 1.000000e+04 0.000000e+00 2.728510e+03
         vertex 1.000000e+04 1.158531e+03 2.728510e+03
      endloop
   endfacet
   facet normal 1.000000e+00 0.000000e+00 -0.000000e+00
      outer loop
         vertex 1.000000e+04 1.765151e+03 2.378278e+03
         vertex 1.000000e+04 5.459679e+03 6.742416e+03
         vertex 1.000000e+04 1.695118e+03 2.478296e+03
      endloop
   endfacet
   facet normal 1.000000e+00 0.000000e+00 0.000000e+00
      outer loop
         vertex 1.000000e+04 1.695118e+03 2.478296e+03
         vertex 1.000000e+04 5.459679e+03 6.742416e+03
         vertex 1.000000e+04 4.367695e+03 6.742416e+03
      endloop
   endfacet
   facet normal 1.000000e+00 0.000000e+00 -0.000000e+00
      outer loop
         vertex 1.000000e+04 1.695118e+03 2.478296e+03
         vertex 1.000000e+04 4.367695e+03 6.742416e+03
         vertex 1.000000e+04 1.608781e+03 2.564633e+03
      endloop
   endfacet
   facet normal 1.000000e+00 0.000000e+00 0.000000e+00
      outer loop
         vertex 1.000000e+04 1.000000e+04 0.000000e+00
         vertex 1.000000e+04 1.695118e+03 1.577796e+03
         vertex 1.000000e+04 1.608781e+03 1.491460e+03
      endloop
   endfacet
   facet normal 1.000000e+00 0.000000e+00 0.000000e+00
      outer loop
         vertex 1.000000e+04 0.000000e+00 1.000000e+04
         vertex 1.000000e+04 1.158531e+03 2.728510e+03
         vertex 1.000000e+04 3.821703e+03 7.688102e+03
      endloop
   endfacet
   facet normal 1.000000e+00 -0.000000e+00 0.000000e+00
      outer loop
         vertex 1.000000e+04 1.158531e+03 2.728510e+03
         vertex 1.000000e+04 1.280166e+03 2.717869e+03
         vertex 1.000000e+04 3.821703e+03 7.688102e+03
      endloop
   endfacet
   facet normal 1.000000e+00 0.000000e+00 0.000000e+00
      outer loop
         vertex 1.000000e+04 3.821703e+03 7.688102e+03
         vertex 1.000000e+04 1.280166e+03 2.717869e+03
         vertex 1.000000e+04 1.398104e+03 2.686267e+03
      endloop
   endfacet
   facet normal 1.000000e+00 0.000000e+00 0.000000e+00
      outer loop
         vertex 1.000000e+04 3.821703e+03 7.688102e+03
         vertex 1.000000e+04 1.398104e+03 2.686267e+03
         vertex 1.000000e+04 4.367695e+03 6.742416e+03
      endloop
   endfacet
   facet normal 1.000000e+00 0.000000e+00 0.000000e+00
      outer loop
         vertex 1.000000e+04 4.367695e+03 6.742416e+03
         vertex 1.000000e+04 1.398104e+03 2.686267e+03
         vertex 1.000000e+04 1.508763e+03 2.634666e+03
      endloop
   endfacet
   facet normal 1.000000e+00 0.000000e+00 0.000000e+00
      outer loop
         vertex 1.000000e+04 4.367695e+03 6.742416e+03
         vertex 1.000000e+04 1.508763e+03 2.634666e+03
         vertex 1.000000e+04 1.608781e+03 2.564633e+03
      endloop
   endfacet
   facet normal 1.000000e+00 0.000000e+00 0.000000e+00
      outer loop
         vertex 1.000000e+04 1.816752e+03 2.267619e+03
         vertex 1.000000e+04 1.848354e+03 2.149681e+03
         vertex 1.000000e+04 1.000000e+04 0.000000e+00
      endloop
   endfacet
   facet normal 1.000000e+00 0.000000e+00 0.000000e+00
      outer loop
         vertex 1.000000e+04 1.000000e+04 0.000000e+00
         vertex 1.000000e+04 1.848354e+03 2.149681e+03
         vertex 1.000000e+04 1.858996e+03 2.028046e+03
      endloop
   endfacet
   facet normal 1.000000e+00 0.000000e+00 0.000000e+00
      outer loop
         vertex 1.000000e+04 1.000000e+04 0.000000e+00
         vertex 1.000000e+04 1.858996e+03 2.028046e+03
         vertex 1.000000e+04 1.848354e+03 1.906412e+03
      endloop
   endfacet
   facet normal 1.000000e+00 0.000000e+00 0.000000e+00
      outer loop
         vertex 1.000000e+04 1.608781e+03 1.491460e+03
         vertex 1.000000e+04 1.508763e+03 1.421427e+03
         vertex 1.000000e+04 1.000000e+04 0.000000e+00
      endloop
   endfacet
   facet normal 1.000000e+00 0.000000e+00 0.000000e+00
      outer loop
         vertex 1.000000e+04 1.000000e+04 0.000000e+00
         vertex 1.000000e+04 1.508763e+03 1.421427e+03
         vertex 1.000000e+04 1.398104e+03 1.369825e+03
      endloop
   endfacet
   facet normal 1.000000e+00 0.000000e+00 0.000000e+00
      outer loop
         vertex 1.000000e+04 1.000000e+04 0.000000e+00
         vertex 1.000000e+04 1.398104e+03 1.369825e+03
         vertex 1.000000e+04 0.000000e+00 0.000000e+00
      endloop
   endfacet
   facet normal 1.000000e+00 0.000000e+00 0.000000e+00
      outer loop
         vertex 1.000000e+04 0.000000e+00 0.000000e+00
         vertex 1.000000e+04 1.398104e+03 1.369825e+03
         vertex 1.000000e+04 1.280166e+03 1.338223e+03
      endloop
   endfacet
   facet normal 1.000000e+00 0.000000e+00 0.000000e+00
      outer loop
         vertex 1.000000e+04 0.000000e+00 0.000000e+00
         vertex 1.000000e+04 1.280166e+03 1.338223e+03
         vertex 1.000000e+04 1.158531e+03 1.327582e+03
      endloop
   endfacet
   facet normal 1.000000e+00 -0.000000e+00 0.000000e+00
      outer loop
         vertex 1.000000e+04 1.765151e+03 2.378278e+03
         vertex 1.000000e+04 1.816752e+03 2.267619e+03
         vertex 1.000000e+04 5.459679e+03 6.742416e+03
      endloop
   endfacet
   facet normal 1.000000e+00 0.000000e+00 0.000000e+00
      outer loop
         vertex 1.000000e+04 5.459679e+03 6.742416e+03
         vertex 1.000000e+04 1.816752e+03 2.267619e+03
         vertex 1.000000e+04 1.000000e+04 0.000000e+00
      endloop
   endfacet
   facet normal 1.000000e+00 -0.000000e+00 0.000000e+00
      outer loop
         vertex 1.000000e+04 5.459679e+03 6.742416e+03
         vertex 1.000000e+04 1.000000e+04 0.000000e+00
         vertex 1.000000e+04 6.005671e+03 7.688102e+03
      endloop
   endfacet
   facet normal 1.000000e+00 -0.000000e+00 0.000000e+00
      outer loop
         vertex 1.000000e+04 6.005671e+03 7.688102e+03
         vertex 1.000000e+04 1.000000e+04 0.000000e+00
         vertex 1.000000e+04 1.000000e+04 1.000000e+04
      endloop
   endfacet
   facet normal 1.000000e+00 0.000000e+00 -0.000000e+00
      outer loop
         vertex 1.000000e+04 6.005671e+03 7.688102e+03
         vertex 1.000000e+04 1.000000e+04 1.000000e+04
         vertex 1.000000e+04 5.459679e+03 8.633788e+03
      endloop
   endfacet
   facet normal 1.000000e+00 0.000000e+00 -0.000000e+00
      outer loop
         vertex 1.000000e+04 5.459679e+03 8.633788e+03
         vertex 1.000000e+04 1.000000e+04 1.000000e+04
         vertex 1.000000e+04 0.000000e+00 1.000000e+04
      endloop
   endfacet
   facet normal 1.000000e+00 0.000000e+00 0.000000e+00
      outer loop
         vertex 1.000000e+04 5.459679e+03 8.633788e+03
         vertex 1.000000e+04 0.000000e+00 1.000000e+04
         vertex 1.000000e+04 4.367695e+03 8.633788e+03
      endloop
   endfacet
   facet normal 1.000000e+00 0.000000e+00 0.000000e+00
      outer loop
         vertex 1.000000e+04 4.367695e+03 8.633788e+03
         vertex 1.000000e+04 0.000000e+00 1.000000e+04
         vertex 1.000000e+04 3.821703e+03 7.688102e+03
      endloop
   endfacet
   facet normal 1.000000e+00 0.000000e+00 0.000000e+00
      outer loop
         vertex 1.000000e+04 1.848354e+03 1.906412e+03
         vertex 1.000000e+04 1.816752e+03 1.788473e+03
         vertex 1.000000e+04 1.000000e+04 0.000000e+00
      endloop
   endfacet
   facet normal 1.000000e+00 0.000000e+00 0.000000e+00
      outer loop
         vertex 1.000000e+04 1.000000e+04 0.000000e+00
         vertex 1.000000e+04 1.816752e+03 1.788473e+03
         vertex 1.000000e+04 1.765151e+03 1.677814e+03
      endloop
   endfacet
   facet normal 1.000000e+00 0.000000e+00 0.000000e+00
      outer loop
         vertex 1.000000e+04 1.000000e+04 0.000000e+00
         vertex 1.000000e+04 1.765151e+03 1.677814e+03
         vertex 1.000000e+04 1.695118e+03 1.577796e+03
      endloop
   endfacet
   facet normal -0.000000e+00 1.000000e+00 0.000000e+00
      outer loop
         vertex 0.000000e+00 1.000000e+04 1.000000e+04
         vertex 1.000000e+04 1.000000e+04 1.000000e+04
         vertex 0.000000e+00 1.000000e+04 0.000000e+00
      endloop
   endfacet
   facet normal 0.000000e+00 1.000000e+00 0.000000e+00
      outer loop
         vertex 0.000000e+00 1.000000e+04 0.000000e+00
         vertex 1.000000e+04 1.000000e+04 1.000000e+04
         vertex 1.000000e+04 1.000000e+04 0.000000e+00
      endloop
   endfacet
   facet normal -1.224647e-16 6.123233e-17 1.000000e+00
      outer loop
         vertex 1.000000e+04 0.000000e+00 1.000000e+04
         vertex 1.000000e+04 1.000000e+04 1.000000e+04
         vertex -9.860761e-29 1.776357e-12 1.000000e+04
      endloop
   endfacet
   facet normal -1.224647e-16 6.123234e-17 1.000000e+00
      outer loop
         vertex -9.860761e-29 1.776357e-12 1.000000e+04
         vertex 1.000000e+04 1.000000e+04 1.000000e+04
         vertex 0.000000e+00 1.000000e+04 1.000000e+04
      endloop
   endfacet
   facet normal 0.000000e+00 0.000000e+00 -1.000000e+00
      outer loop
         vertex 1.343125e+03 8.269537e+03 0.000000e+00
         vertex -2.465190e-29 8.269537e+03 0.000000e+00
         vertex 0.000000e+00 1.000000e+04 0.000000e+00
      endloop
   endfacet
   facet normal 0.000000e+00 0.000000e+00 -1.000000e+00
      outer loop
         vertex 2.702136e+03 7.774897e+03 0.000000e+00
         vertex 2.400248e+03 7.986281e+03 0.000000e+00
         vertex 1.000000e+04 1.000000e+04 0.000000e+00
      endloop
   endfacet
   facet normal 0.000000e+00 0.000000e+00 -1.000000e+00
      outer loop
         vertex 1.000000e+04 1.000000e+04 0.000000e+00
         vertex 2.400248e+03 7.986281e+03 0.000000e+00
         vertex 2.066240e+03 8.142033e+03 0.000000e+00
      endloop
   endfacet
   facet normal -0.000000e+00 0.000000e+00 -1.000000e+00
      outer loop
         vertex 1.000000e+04 1.000000e+04 0.000000e+00
         vertex 2.066240e+03 8.142033e+03 0.000000e+00
         vertex 0.000000e+00 1.000000e+04 0.000000e+00
      endloop
   endfacet
   facet normal 0.000000e+00 0.000000e+00 -1.000000e+00
      outer loop
         vertex 0.000000e+00 1.000000e+04 0.000000e+00
         vertex 2.066240e+03 8.142033e+03 0.000000e+00
         vertex 1.710260e+03 8.237416e+03 0.000000e+00
      endloop
   endfacet
   facet normal 0.000000e+00 0.000000e+00 -1.000000e+00
      outer loop
         vertex 0.000000e+00 1.000000e+04 0.000000e+00
         vertex 1.710260e+03 8.237416e+03 0.000000e+00
         vertex 1.343125e+03 8.269537e+03 0.000000e+00
      endloop
   endfacet
   facet normal 0.000000e+00 0.000000e+00 -1.000000e+00
      outer loop
         vertex -9.860761e-29 4.041045e+03 0.000000e+00
         vertex 1.343125e+03 4.041045e+03 0.000000e+00
         vertex -9.860761e-29 1.776357e-12 0.000000e+00
      endloop
   endfacet
   facet normal 0.000000e+00 0.000000e+00 -1.000000e+00
      outer loop
         vertex -9.860761e-29 1.776357e-12 0.000000e+00
         vertex 1.343125e+03 4.041045e+03 0.000000e+00
         vertex 1.710260e+03 4.073165e+03 0.000000e+00
      endloop
   endfacet
   facet normal 0.000000e+00 0.000000e+00 -1.000000e+00
      outer loop
         vertex -9.860761e-29 1.776357e-12 0.000000e+00
         vertex 1.710260e+03 4.073165e+03 0.000000e+00
         vertex 1.000000e+04 0.000000e+00 0.000000e+00
      endloop
   endfacet
   facet normal 0.000000e+00 0.000000e+00 -1.000000e+00
      outer loop
         vertex 1.000000e+04 0.000000e+00 0.000000e+00
         vertex 1.710260e+03 4.073165e+03 0.000000e+00
         vertex 2.066240e+03 4.168550e+03 0.000000e+00
      endloop
   endfacet
   facet normal 0.000000e+00 0.000000e+00 -1.000000e+00
      outer loop
         vertex 1.000000e+04 0.000000e+00 0.000000e+00
         vertex 2.066240e+03 4.168550e+03 0.000000e+00
         vertex 2.400248e+03 4.324300e+03 0.000000e+00
      endloop
   endfacet
   facet normal 0.000000e+00 0.000000e+00 -1.000000e+00
      outer loop
         vertex 2.400248e+03 4.324300e+03 0.000000e+00
         vertex 2.702136e+03 4.535685e+03 0.000000e+00
         vertex 1.000000e+04 0.000000e+00 0.000000e+00
      endloop
   endfacet
   facet normal 0.000000e+00 0.000000e+00 -1.000000e+00
      outer loop
         vertex 1.000000e+04 0.000000e+00 0.000000e+00
         vertex 2.702136e+03 4.535685e+03 0.000000e+00
         vertex 2.962731e+03 4.796280e+03 0.000000e+00
      endloop
   endfacet
   facet normal 0.000000e+00 0.000000e+00 -1.000000e+00
      outer loop
         vertex 1.000000e+04 0.000000e+00 0.000000e+00
         vertex 2.962731e+03 4.796280e+03 0.000000e+00
         vertex 3.174116e+03 5.098168e+03 0.000000e+00
      endloop
   endfacet
   facet normal 0.000000e+00 0.000000e+00 -1.000000e+00
      outer loop
         vertex 3.425251e+03 6.522426e+03 0.000000e+00
         vertex 3.329866e+03 6.878406e+03 0.000000e+00
         vertex 1.000000e+04 1.000000e+04 0.000000e+00
      endloop
   endfacet
   facet normal 0.000000e+00 0.000000e+00 -1.000000e+00
      outer loop
         vertex 3.174116e+03 5.098168e+03 0.000000e+00
         vertex 3.329866e+03 5.432176e+03 0.000000e+00
         vertex 1.000000e+04 0.000000e+00 0.000000e+00
      endloop
   endfacet
   facet normal 0.000000e+00 0.000000e+00 -1.000000e+00
      outer loop
         vertex 1.000000e+04 0.000000e+00 0.000000e+00
         vertex 3.329866e+03 5.432176e+03 0.000000e+00
         vertex 3.425251e+03 5.788156e+03 0.000000e+00
      endloop
   endfacet
   facet normal 0.000000e+00 0.000000e+00 -1.000000e+00
      outer loop
         vertex 1.000000e+04 0.000000e+00 0.000000e+00
         vertex 3.425251e+03 5.788156e+03 0.000000e+00
         vertex 1.000000e+04 1.000000e+04 0.000000e+00
      endloop
   endfacet
   facet normal 0.000000e+00 0.000000e+00 -1.000000e+00
      outer loop
         vertex 1.000000e+04 1.000000e+04 0.000000e+00
         vertex 3.425251e+03 5.788156e+03 0.000000e+00
         vertex 3.457371e+03 6.155291e+03 0.000000e+00
      endloop
   endfacet
   facet normal 0.000000e+00 0.000000e+00 -1.000000e+00
      outer loop
         vertex 1.000000e+04 1.000000e+04 0.000000e+00
         vertex 3.457371e+03 6.155291e+03 0.000000e+00
         vertex 3.425251e+03 6.522426e+03 0.000000e+00
      endloop
   endfacet
   facet normal 0.000000e+00 0.000000e+00 -1.000000e+00
      outer loop
         vertex 3.329866e+03 6.878406e+03 0.000000e+00
         vertex 3.174116e+03 7.212414e+03 0.000000e+00
         vertex 1.000000e+04 1.000000e+04 0.000000e+00
      endloop
   endfacet
   facet normal 0.000000e+00 0.000000e+00 -1.000000e+00
      outer loop
         vertex 1.000000e+04 1.000000e+04 0.000000e+00
         vertex 3.174116e+03 7.212414e+03 0.000000e+00
         vertex 2.962731e+03 7.514302e+03 0.000000e+00
      endloop
   endfacet
   facet normal 0.000000e+00 0.000000e+00 -1.000000e+00
      outer loop
         vertex 1.000000e+04 1.000000e+04 0.000000e+00
         vertex 2.962731e+03 7.514302e+03 0.000000e+00
         vertex 2.702136e+03 7.774897e+03 0.000000e+00
      endloop
   endfacet
   facet normal -0.000000e+00 1.000000e+00 0.000000e+00
      outer loop
         vertex 0.000000e+00 4.041045e+03 1.944160e+03
         vertex 1.343125e+03 4.041045e+03 1.944160e+03
         vertex 9.860761e-29 4.041045e+03 0.000000e+00
      endloop
   endfacet
   facet normal 0.000000e+00 1.000000e+00 0.000000e+00
      outer loop
         vertex 9.860761e-29 4.041045e+03 0.000000e+00
         vertex 1.343125e+03 4.041045e+03 1.944160e+03
         vertex 1.343125e+03 4.041045e+03 0.000000e+00
      endloop
   endfacet
   facet normal -8.715722e-02 -9.961946e-01 -0.000000e+00
      outer loop
         vertex 1.343125e+03 8.269537e+03 1.944160e+03
         vertex 1.343125e+03 8.269537e+03 0.000000e+00
         vertex 1.710260e+03 8.237416e+03 1.944160e+03
      endloop
   endfacet
   facet normal -8.715722e-02 -9.961946e-01 -0.000000e+00
      outer loop
         vertex 1.710260e+03 8.237416e+03 1.944160e+03
         vertex 1.343125e+03 8.269537e+03 0.000000e+00
         vertex 1.710260e+03 8.237416e+03 0.000000e+00
      endloop
   endfacet
   facet normal -2.588170e-01 -9.659264e-01 -0.000000e+00
      outer loop
         vertex 1.710260e+03 8.237416e+03 1.944160e+03
         vertex 1.710260e+03 8.237416e+03 0.000000e+00
         vertex 2.066240e+03 8.142033e+03 1.944160e+03
      endloop
   endfacet
   facet normal -2.588170e-01 -9.659264e-01 -0.000000e+00
      outer loop
         vertex 2.066240e+03 8.142033e+03 1.944160e+03
         vertex 1.710260e+03 8.237416e+03 0.000000e+00
         vertex 2.066240e+03 8.142033e+03 0.000000e+00
      endloop
   endfacet
   facet normal -4.226197e-01 -9.063071e-01 -0.000000e+00
      outer loop
         vertex 2.066240e+03 8.142033e+03 1.944160e+03
         vertex 2.066240e+03 8.142033e+03 0.000000e+00
         vertex 2.400248e+03 7.986281e+03 1.944160e+03
      endloop
   endfacet
   facet normal -4.226197e-01 -9.063071e-01 -0.000000e+00
      outer loop
         vertex 2.400248e+03 7.986281e+03 1.944160e+03
         vertex 2.066240e+03 8.142033e+03 0.000000e+00
         vertex 2.400248e+03 7.986281e+03 0.000000e+00
      endloop
   endfacet
   facet normal -5.735762e-01 -8.191522e-01 -0.000000e+00
      outer loop
         vertex 2.400248e+03 7.986281e+03 1.944160e+03
         vertex 2.400248e+03 7.986281e+03 0.000000e+00
         vertex 2.702136e+03 7.774897e+03 1.944160e+03
      endloop
   endfacet
   facet normal -5.735762e-01 -8.191522e-01 -0.000000e+00
      outer loop
         vertex 2.702136e+03 7.774897e+03 1.944160e+03
         vertex 2.400248e+03 7.986281e+03 0.000000e+00
         vertex 2.702136e+03 7.774897e+03 0.000000e+00
      endloop
   endfacet
   facet normal -7.071065e-01 -7.071071e-01 -0.000000e+00
      outer loop
         vertex 2.702136e+03 7.774897e+03 1.944160e+03
         vertex 2.702136e+03 7.774897e+03 0.000000e+00
         vertex 2.962731e+03 7.514302e+03 1.944160e+03
      endloop
   endfacet
   facet normal -7.071065e-01 -7.071071e-01 -0.000000e+00
      outer loop
         vertex 2.962731e+03 7.514302e+03 1.944160e+03
         vertex 2.702136e+03 7.774897e+03 0.000000e+00
         vertex 2.962731e+03 7.514302e+03 0.000000e+00
      endloop
   endfacet
   facet normal -8.191521e-01 -5.735764e-01 -0.000000e+00
      outer loop
         vertex 2.962731e+03 7.514302e+03 1.944160e+03
         vertex 2.962731e+03 7.514302e+03 0.000000e+00
         vertex 3.174116e+03 7.212414e+03 1.944160e+03
      endloop
   endfacet
   facet normal -8.191521e-01 -5.735764e-01 -0.000000e+00
      outer loop
         vertex 3.174116e+03 7.212414e+03 1.944160e+03
         vertex 2.962731e+03 7.514302e+03 0.000000e+00
         vertex 3.174116e+03 7.212414e+03 0.000000e+00
      endloop
   endfacet
   facet normal -9.063079e-01 -4.226181e-01 -0.000000e+00
      outer loop
         vertex 3.174116e+03 7.212414e+03 1.944160e+03
         vertex 3.174116e+03 7.212414e+03 0.000000e+00
         vertex 3.329866e+03 6.878406e+03 1.944160e+03
      endloop
   endfacet
   facet normal -9.063079e-01 -4.226181e-01 -0.000000e+00
      outer loop
         vertex 3.329866e+03 6.878406e+03 1.944160e+03
         vertex 3.174116e+03 7.212414e+03 0.000000e+00
         vertex 3.329866e+03 6.878406e+03 0.000000e+00
      endloop
   endfacet
   facet normal -9.659257e-01 -2.588195e-01 -0.000000e+00
      outer loop
         vertex 3.329866e+03 6.878406e+03 1.944160e+03
         vertex 3.329866e+03 6.878406e+03 0.000000e+00
         vertex 3.425251e+03 6.522426e+03 1.944160e+03
      endloop
   endfacet
   facet normal -9.659257e-01 -2.588195e-01 -0.000000e+00
      outer loop
         vertex 3.425251e+03 6.522426e+03 1.944160e+03
         vertex 3.329866e+03 6.878406e+03 0.000000e+00
         vertex 3.425251e+03 6.522426e+03 0.000000e+00
      endloop
   endfacet
   facet normal -9.961947e-01 -8.715530e-02 -0.000000e+00
      outer loop
         vertex 3.425251e+03 6.522426e+03 1.944160e+03
         vertex 3.425251e+03 6.522426e+03 0.000000e+00
         vertex 3.457371e+03 6.155291e+03 1.944160e+03
      endloop
   endfacet
   facet normal -9.961947e-01 -8.715530e-02 -0.000000e+00
      outer loop
         vertex 3.457371e+03 6.155291e+03 1.944160e+03
         vertex 3.425251e+03 6.522426e+03 0.000000e+00
         vertex 3.457371e+03 6.155291e+03 0.000000e+00
      endloop
   endfacet
   facet normal -9.961947e-01 8.715530e-02 0.000000e+00
      outer loop
         vertex 3.457371e+03 6.155291e+03 1.944160e+03
         vertex 3.457371e+03 6.155291e+03 0.000000e+00
         vertex 3.425251e+03 5.788156e+03 1.944160e+03
      endloop
   endfacet
   facet normal -9.961947e-01 8.715530e-02 0.000000e+00
      outer loop
         vertex 3.425251e+03 5.788156e+03 1.944160e+03
         vertex 3.457371e+03 6.155291e+03 0.000000e+00
         vertex 3.425251e+03 5.788156e+03 0.000000e+00
      endloop
   endfacet
   facet normal -9.659258e-01 2.588192e-01 0.000000e+00
      outer loop
         vertex 3.425251e+03 5.788156e+03 1.944160e+03
         vertex 3.425251e+03 5.788156e+03 0.000000e+00
         vertex 3.329866e+03 5.432176e+03 1.944160e+03
      endloop
   endfacet
   facet normal -9.659258e-01 2.588192e-01 0.000000e+00
      outer loop
         vertex 3.329866e+03 5.432176e+03 1.944160e+03
         vertex 3.425251e+03 5.788156e+03 0.000000e+00
         vertex 3.329866e+03 5.432176e+03 0.000000e+00
      endloop
   endfacet
   facet normal -9.063079e-01 4.226181e-01 0.000000e+00
      outer loop
         vertex 3.329866e+03 5.432176e+03 1.944160e+03
         vertex 3.329866e+03 5.432176e+03 0.000000e+00
         vertex 3.174116e+03 5.098168e+03 1.944160e+03
      endloop
   endfacet
   facet normal -9.063079e-01 4.226181e-01 0.000000e+00
      outer loop
         vertex 3.174116e+03 5.098168e+03 1.944160e+03
         vertex 3.329866e+03 5.432176e+03 0.000000e+00
         vertex 3.174116e+03 5.098168e+03 0.000000e+00
      endloop
   endfacet
   facet normal -8.191517e-01 5.735770e-01 0.000000e+00
      outer loop
         vertex 3.174116e+03 5.098168e+03 1.944160e+03
         vertex 3.174116e+03 5.098168e+03 0.000000e+00
         vertex 2.962731e+03 4.796280e+03 1.944160e+03
      endloop
   endfacet
   facet normal -8.191517e-01 5.735770e-01 0.000000e+00
      outer loop
         vertex 2.962731e+03 4.796280e+03 1.944160e+03
         vertex 3.174116e+03 5.098168e+03 0.000000e+00
         vertex 2.962731e+03 4.796280e+03 0.000000e+00
      endloop
   endfacet
   facet normal -7.071071e-01 7.071065e-01 0.000000e+00
      outer loop
         vertex 2.962731e+03 4.796280e+03 1.944160e+03
         vertex 2.962731e+03 4.796280e+03 0.000000e+00
         vertex 2.702136e+03 4.535685e+03 1.944160e+03
      endloop
   endfacet
   facet normal -7.071071e-01 7.071065e-01 0.000000e+00
      outer loop
         vertex 2.702136e+03 4.535685e+03 1.944160e+03
         vertex 2.962731e+03 4.796280e+03 0.000000e+00
         vertex 2.702136e+03 4.535685e+03 0.000000e+00
      endloop
   endfacet
   facet normal -5.735762e-01 8.191522e-01 0.000000e+00
      outer loop
         vertex 2.702136e+03 4.535685e+03 1.944160e+03
         vertex 2.702136e+03 4.535685e+03 0.000000e+00
         vertex 2.400248e+03 4.324300e+03 1.944160e+03
      endloop
   endfacet
   facet normal -5.735762e-01 8.191522e-01 0.000000e+00
      outer loop
         vertex 2.400248e+03 4.324300e+03 1.944160e+03
         vertex 2.702136e+03 4.535685e+03 0.000000e+00
         vertex 2.400248e+03 4.324300e+03 0.000000e+00
      endloop
   endfacet
   facet normal -4.226186e-01 9.063076e-01 0.000000e+00
      outer loop
         vertex 2.400248e+03 4.324300e+03 1.944160e+03
         vertex 2.400248e+03 4.324300e+03 0.000000e+00
         vertex 2.066240e+03 4.168550e+03 1.944160e+03
      endloop
   endfacet
   facet normal -4.226186e-01 9.063076e-01 0.000000e+00
      outer loop
         vertex 2.066240e+03 4.168550e+03 1.944160e+03
         vertex 2.400248e+03 4.324300e+03 0.000000e+00
         vertex 2.066240e+03 4.168550e+03 0.000000e+00
      endloop
   endfacet
   facet normal -2.588182e-01 9.659261e-01 0.000000e+00
      outer loop
         vertex 2.066240e+03 4.168550e+03 1.944160e+03
         vertex 2.066240e+03 4.168550e+03 0.000000e+00
         vertex 1.710260e+03 4.073165e+03 1.944160e+03
      endloop
   endfacet
   facet normal -2.588182e-01 9.659261e-01 0.000000e+00
      outer loop
         vertex 1.710260e+03 4.073165e+03 1.944160e+03
         vertex 2.066240e+03 4.168550e+03 0.000000e+00
         vertex 1.710260e+03 4.073165e+03 0.000000e+00
      endloop
   endfacet
   facet normal -8.715594e-02 9.961947e-01 0.000000e+00
      outer loop
         vertex 1.710260e+03 4.073165e+03 1.944160e+03
         vertex 1.710260e+03 4.073165e+03 0.000000e+00
         vertex 1.343125e+03 4.041045e+03 1.944160e+03
      endloop
   endfacet
   facet normal -8.715594e-02 9.961947e-01 0.000000e+00
      outer loop
         vertex 1.343125e+03 4.041045e+03 1.944160e+03
         vertex 1.710260e+03 4.073165e+03 0.000000e+00
         vertex 1.343125e+03 4.041045e+03 0.000000e+00
      endloop
   endfacet
   facet normal -0.000000e+00 -1.000000e+00 -0.000000e+00
      outer loop
         vertex 1.343125e+03 8.269537e+03 1.944160e+03
         vertex -2.014365e-29 8.269537e+03 1.944160e+03
         vertex 1.343125e+03 8.269537e+03 0.000000e+00
      endloop
   endfacet
   facet normal 0.000000e+00 -1.000000e+00 0.000000e+00
      outer loop
         vertex 1.343125e+03 8.269537e+03 0.000000e+00
         vertex -2.014365e-29 8.269537e+03 1.944160e+03
         vertex 1.604638e-14 8.269537e+03 0.000000e+00
      endloop
   endfacet
   facet normal 0.000000e+00 0.000000e+00 -1.000000e+00
      outer loop
         vertex -2.465190e-29 4.041045e+03 1.944160e+03
         vertex 2.465190e-29 8.269537e+03 1.944160e+03
         vertex 1.343125e+03 4.041045e+03 1.944160e+03
      endloop
   endfacet
   facet normal 0.000000e+00 0.000000e+00 -1.000000e+00
      outer loop
         vertex 1.343125e+03 4.041045e+03 1.944160e+03
         vertex 2.465190e-29 8.269537e+03 1.944160e+03
         vertex 1.343125e+03 8.269537e+03 1.944160e+03
      endloop
   endfacet
   facet normal 0.000000e+00 0.000000e+00 -1.000000e+00
      outer loop
         vertex 1.343125e+03 4.041045e+03 1.944160e+03
         vertex 1.343125e+03 8.269537e+03 1.944160e+03
         vertex 1.710260e+03 8.237416e+03 1.944160e+03
      endloop
   endfacet
   facet normal 0.000000e+00 -0.000000e+00 -1.000000e+00
      outer loop
         vertex 1.710260e+03 8.237416e+03 1.944160e+03
         vertex 2.066240e+03 8.142033e+03 1.944160e+03
         vertex 1.343125e+03 4.041045e+03 1.944160e+03
      endloop
   endfacet
   facet normal 0.000000e+00 0.000000e+00 -1.000000e+00
      outer loop
         vertex 1.343125e+03 4.041045e+03 1.944160e+03
         vertex 2.066240e+03 8.142033e+03 1.944160e+03
         vertex 2.400248e+03 7.986281e+03 1.944160e+03
      endloop
   endfacet
   facet normal 0.000000e+00 0.000000e+00 -1.000000e+00
      outer loop
         vertex 1.343125e+03 4.041045e+03 1.944160e+03
         vertex 2.400248e+03 7.986281e+03 1.944160e+03
         vertex 1.710260e+03 4.073165e+03 1.944160e+03
      endloop
   endfacet
   facet normal 0.000000e+00 0.000000e+00 -1.000000e+00
      outer loop
         vertex 1.710260e+03 4.073165e+03 1.944160e+03
         vertex 2.400248e+03 7.986281e+03 1.944160e+03
         vertex 2.066240e+03 4.168550e+03 1.944160e+03
      endloop
   endfacet
   facet normal 0.000000e+00 0.000000e+00 -1.000000e+00
      outer loop
         vertex 2.066240e+03 4.168550e+03 1.944160e+03
         vertex 2.400248e+03 7.986281e+03 1.944160e+03
         vertex 2.702136e+03 7.774897e+03 1.944160e+03
      endloop
   endfacet
   facet normal 0.000000e+00 0.000000e+00 -1.000000e+00
      outer loop
         vertex 2.066240e+03 4.168550e+03 1.944160e+03
         vertex 2.702136e+03 7.774897e+03 1.944160e+03
         vertex 2.962731e+03 7.514302e+03 1.944160e+03
      endloop
   endfacet
   facet normal 0.000000e+00 0.000000e+00 -1.000000e+00
      outer loop
         vertex 3.457371e+03 6.155291e+03 1.944160e+03
         vertex 3.425251e+03 5.788156e+03 1.944160e+03
         vertex 2.962731e+03 4.796280e+03 1.944160e+03
      endloop
   endfacet
   facet normal 0.000000e+00 0.000000e+00 -1.000000e+00
      outer loop
         vertex 2.962731e+03 4.796280e+03 1.944160e+03
         vertex 3.425251e+03 5.788156e+03 1.944160e+03
         vertex 3.329866e+03 5.432176e+03 1.944160e+03
      endloop
   endfacet
   facet normal 0.000000e+00 0.000000e+00 -1.000000e+00
      outer loop
         vertex 2.962731e+03 4.796280e+03 1.944160e+03
         vertex 3.329866e+03 5.432176e+03 1.944160e+03
         vertex 3.174116e+03 5.098168e+03 1.944160e+03
      endloop
   endfacet
   facet normal 0.000000e+00 -0.000000e+00 -1.000000e+00
      outer loop
         vertex 2.962731e+03 7.514302e+03 1.944160e+03
         vertex 3.174116e+03 7.212414e+03 1.944160e+03
         vertex 2.066240e+03 4.168550e+03 1.944160e+03
      endloop
   endfacet
   facet normal 0.000000e+00 0.000000e+00 -1.000000e+00
      outer loop
         vertex 2.066240e+03 4.168550e+03 1.944160e+03
         vertex 3.174116e+03 7.212414e+03 1.944160e+03
         vertex 3.329866e+03 6.878406e+03 1.944160e+03
      endloop
   endfacet
   facet normal 0.000000e+00 0.000000e+00 -1.000000e+00
      outer loop
         vertex 2.066240e+03 4.168550e+03 1.944160e+03
         vertex 3.329866e+03 6.878406e+03 1.944160e+03
         vertex 2.400248e+03 4.324300e+03 1.944160e+03
      endloop
   endfacet
   facet normal 0.000000e+00 0.000000e+00 -1.000000e+00
      outer loop
         vertex 2.400248e+03 4.324300e+03 1.944160e+03
         vertex 3.329866e+03 6.878406e+03 1.944160e+03
         vertex 2.702136e+03 4.535685e+03 1.944160e+03
      endloop
   endfacet
   facet normal 0.000000e+00 0.000000e+00 -1.000000e+00
      outer loop
         vertex 2.702136e+03 4.535685e+03 1.944160e+03
         vertex 3.329866e+03 6.878406e+03 1.944160e+03
         vertex 2.962731e+03 4.796280e+03 1.944160e+03
      endloop
   endfacet
   facet normal 0.000000e+00 0.000000e+00 -1.000000e+00
      outer loop
         vertex 2.962731e+03 4.796280e+03 1.944160e+03
         vertex 3.329866e+03 6.878406e+03 1.944160e+03
         vertex 3.425251e+03 6.522426e+03 1.944160e+03
      endloop
   endfacet
   facet normal 0.000000e+00 0.000000e+00 -1.000000e+00
      outer loop
         vertex 2.962731e+03 4.796280e+03 1.944160e+03
         vertex 3.425251e+03 6.522426e+03 1.944160e+03
         vertex 3.457371e+03 6.155291e+03 1.944160e+03
      endloop
   endfacet
   facet normal 0.000000e+00 -8.660254e-01 5.000000e-01
      outer loop
         vertex 6.112137e+03 6.005671e+03 7.688102e+03
         vertex 6.112137e+03 5.459679e+03 6.742416e+03
         vertex 1.000000e+04 6.005671e+03 7.688102e+03
      endloop
   endfacet
   facet normal 0.000000e+00 -8.660254e-01 5.000000e-01
      outer loop
         vertex 1.000000e+04 6.005671e+03 7.688102e+03
         vertex 6.112137e+03 5.459679e+03 6.742416e+03
         vertex 1.000000e+04 5.459679e+03 6.742416e+03
      endloop
   endfacet
   facet normal -0.000000e+00 0.000000e+00 1.000000e+00
      outer loop
         vertex 6.112137e+03 5.459679e+03 6.742416e+03
         vertex 6.112137e+03 4.367695e+03 6.742416e+03
         vertex 1.000000e+04 5.459679e+03 6.742416e+03
      endloop
   endfacet
   facet normal 0.000000e+00 0.000000e+00 1.000000e+00
      outer loop
         vertex 1.000000e+04 5.459679e+03 6.742416e+03
         vertex 6.112137e+03 4.367695e+03 6.742416e+03
         vertex 1.000000e+04 4.367695e+03 6.742416e+03
      endloop
   endfacet
   facet normal -0.000000e+00 8.660255e-01 4.999999e-01
      outer loop
         vertex 6.112137e+03 4.367695e+03 6.742416e+03
         vertex 6.112137e+03 3.821703e+03 7.688102e+03
         vertex 1.000000e+04 4.367695e+03 6.742416e+03
      endloop
   endfacet
   facet normal 0.000000e+00 8.660255e-01 4.999999e-01
      outer loop
         vertex 1.000000e+04 4.367695e+03 6.742416e+03
         vertex 6.112137e+03 3.821703e+03 7.688102e+03
         vertex 1.000000e+04 3.821703e+03 7.688102e+03
      endloop
   endfacet
   facet normal 0.000000e+00 8.660255e-01 -4.999999e-01
      outer loop
         vertex 6.112137e+03 3.821703e+03 7.688102e+03
         vertex 6.112137e+03 4.367695e+03 8.633788e+03
         vertex 1.000000e+04 3.821703e+03 7.688102e+03
      endloop
   endfacet
   facet normal 0.000000e+00 8.660255e-01 -4.999999e-01
      outer loop
         vertex 1.000000e+04 3.821703e+03 7.688102e+03
         vertex 6.112137e+03 4.367695e+03 8.633788e+03
         vertex 1.000000e+04 4.367695e+03 8.633788e+03
      endloop
   endfacet
   facet normal 0.000000e+00 0.000000e+00 -1.000000e+00
      outer loop
         vertex 6.112137e+03 4.367695e+03 8.633788e+03
         vertex 6.112137e+03 5.459679e+03 8.633788e+03
         vertex 1.000000e+04 4.367695e+03 8.633788e+03
      endloop
   endfacet
   facet normal 0.000000e+00 0.000000e+00 -1.000000e+00
      outer loop
         vertex 1.000000e+04 4.367695e+03 8.633788e+03
         vertex 6.112137e+03 5.459679e+03 8.633788e+03
         vertex 1.000000e+04 5.459679e+03 8.633788e+03
      endloop
   endfacet
   facet normal 0.000000e+00 -8.660254e-01 -5.000000e-01
      outer loop
         vertex 6.112137e+03 5.459679e+03 8.633788e+03
         vertex 6.112137e+03 6.005671e+03 7.688102e+03
         vertex 1.000000e+04 5.459679e+03 8.633788e+03
      endloop
   endfacet
   facet normal 0.000000e+00 -8.660254e-01 -5.000000e-01
      outer loop
         vertex 1.000000e+04 5.459679e+03 8.633788e+03
         vertex 6.112137e+03 6.005671e+03 7.688102e+03
         vertex 1.000000e+04 6.005671e+03 7.688102e+03
      endloop
   endfacet
   facet normal 1.000000e+00 0.000000e+00 0.000000e+00
      outer loop
         vertex 6.112137e+03 5.459679e+03 8.633788e+03
         vertex 6.112137e+03 4.367695e+03 8.633788e+03
         vertex 6.112137e+03 6.005671e+03 7.688102e+03
      endloop
   endfacet
   facet normal 1.000000e+00 0.000000e+00 0.000000e+00
      outer loop
         vertex 6.112137e+03 6.005671e+03 7.688102e+03
         vertex 6.112137e+03 4.367695e+03 8.633788e+03
         vertex 6.112137e+03 3.821703e+03 7.688102e+03
      endloop
   endfacet
   facet normal 1.000000e+00 0.000000e+00 0.000000e+00
      outer loop
         vertex 6.112137e+03 6.005671e+03 7.688102e+03
         vertex 6.112137e+03 3.821703e+03 7.688102e+03
         vertex 6.112137e+03 5.459679e+03 6.742416e+03
      endloop
   endfacet
   facet normal 1.000000e+00 0.000000e+00 0.000000e+00
      outer loop
         vertex 6.112137e+03 5.459679e+03 6.742416e+03
         vertex 6.112137e+03 3.821703e+03 7.688102e+03
         vertex 6.112137e+03 4.367695e+03 6.742416e+03
      endloop
   endfacet
   facet normal 0.000000e+00 0.000000e+00 -1.000000e+00
      outer loop
         vertex 6.320491e+03 2.253049e-13 2.728510e+03
         vertex 6.320491e+03 1.158531e+03 2.728510e+03
         vertex 1.000000e+04 0.000000e+00 2.728510e+03
      endloop
   endfacet
   facet normal 0.000000e+00 0.000000e+00 -1.000000e+00
      outer loop
         vertex 1.000000e+04 0.000000e+00 2.728510e+03
         vertex 6.320491e+03 1.158531e+03 2.728510e+03
         vertex 1.000000e+04 1.158531e+03 2.728510e+03
      endloop
   endfacet
   facet normal 0.000000e+00 -8.715144e-02 9.961951e-01
      outer loop
         vertex 6.320491e+03 1.158531e+03 1.327582e+03
         vertex 1.000000e+04 1.158531e+03 1.327582e+03
         vertex 6.320491e+03 1.280166e+03 1.338223e+03
      endloop
   endfacet
   facet normal 0.000000e+00 -8.715144e-02 9.961951e-01
      outer loop
         vertex 6.320491e+03 1.280166e+03 1.338223e+03
         vertex 1.000000e+04 1.158531e+03 1.327582e+03
         vertex 1.000000e+04 1.280166e+03 1.338223e+03
      endloop
   endfacet
   facet normal 0.000000e+00 -2.588219e-01 9.659251e-01
      outer loop
         vertex 6.320491e+03 1.280166e+03 1.338223e+03
         vertex 1.000000e+04 1.280166e+03 1.338223e+03
         vertex 6.320491e+03 1.398104e+03 1.369825e+03
      endloop
   endfacet
   facet normal 0.000000e+00 -2.588219e-01 9.659251e-01
      outer loop
         vertex 6.320491e+03 1.398104e+03 1.369825e+03
         vertex 1.000000e+04 1.280166e+03 1.338223e+03
         vertex 1.000000e+04 1.398104e+03 1.369825e+03
      endloop
   endfacet
   facet normal 0.000000e+00 -4.226193e-01 9.063073e-01
      outer loop
         vertex 6.320491e+03 1.398104e+03 1.369825e+03
         vertex 1.000000e+04 1.398104e+03 1.369825e+03
         vertex 6.320491e+03 1.508763e+03 1.421427e+03
      endloop
   endfacet
   facet normal 0.000000e+00 -4.226193e-01 9.063073e-01
      outer loop
         vertex 6.320491e+03 1.508763e+03 1.421427e+03
         vertex 1.000000e+04 1.398104e+03 1.369825e+03
         vertex 1.000000e+04 1.508763e+03 1.421427e+03
      endloop
   endfacet
   facet normal 0.000000e+00 -5.735762e-01 8.191522e-01
      outer loop
         vertex 6.320491e+03 1.508763e+03 1.421427e+03
         vertex 1.000000e+04 1.508763e+03 1.421427e+03
         vertex 6.320491e+03 1.608781e+03 1.491460e+03
      endloop
   endfacet
   facet normal 0.000000e+00 -5.735762e-01 8.191522e-01
      outer loop
         vertex 6.320491e+03 1.608781e+03 1.491460e+03
         vertex 1.000000e+04 1.508763e+03 1.421427e+03
         vertex 1.000000e+04 1.608781e+03 1.491460e+03
      endloop
   endfacet
   facet normal 0.000000e+00 -7.071034e-01 7.071102e-01
      outer loop
         vertex 6.320491e+03 1.608781e+03 1.491460e+03
         vertex 1.000000e+04 1.608781e+03 1.491460e+03
         vertex 6.320491e+03 1.695118e+03 1.577796e+03
      endloop
   endfacet
   facet normal 0.000000e+00 -7.071034e-01 7.071102e-01
      outer loop
         vertex 6.320491e+03 1.695118e+03 1.577796e+03
         vertex 1.000000e+04 1.608781e+03 1.491460e+03
         vertex 1.000000e+04 1.695118e+03 1.577796e+03
      endloop
   endfacet
   facet normal 0.000000e+00 -8.191545e-01 5.735729e-01
      outer loop
         vertex 6.320491e+03 1.695118e+03 1.577796e+03
         vertex 1.000000e+04 1.695118e+03 1.577796e+03
         vertex 6.320491e+03 1.765151e+03 1.677814e+03
      endloop
   endfacet
   facet normal 0.000000e+00 -8.191545e-01 5.735729e-01
      outer loop
         vertex 6.320491e+03 1.765151e+03 1.677814e+03
         vertex 1.000000e+04 1.695118e+03 1.577796e+03
         vertex 1.000000e+04 1.765151e+03 1.677814e+03
      endloop
   endfacet
   facet normal 0.000000e+00 -9.063068e-01 4.226204e-01
      outer loop
         vertex 6.320491e+03 1.765151e+03 1.677814e+03
         vertex 1.000000e+04 1.765151e+03 1.677814e+03
         vertex 6.320491e+03 1.816752e+03 1.788473e+03
      endloop
   endfacet
   facet normal 0.000000e+00 -9.063068e-01 4.226204e-01
      outer loop
         vertex 6.320491e+03 1.816752e+03 1.788473e+03
         vertex 1.000000e+04 1.765151e+03 1.677814e+03
         vertex 1.000000e+04 1.816752e+03 1.788473e+03
      endloop
   endfacet
   facet normal 0.000000e+00 -9.659261e-01 2.588182e-01
      outer loop
         vertex 6.320491e+03 1.816752e+03 1.788473e+03
         vertex 1.000000e+04 1.816752e+03 1.788473e+03
         vertex 6.320491e+03 1.848354e+03 1.906412e+03
      endloop
   endfacet
   facet normal 0.000000e+00 -9.659261e-01 2.588182e-01
      outer loop
         vertex 6.320491e+03 1.848354e+03 1.906412e+03
         vertex 1.000000e+04 1.816752e+03 1.788473e+03
         vertex 1.000000e+04 1.848354e+03 1.906412e+03
      endloop
   endfacet
   facet normal 0.000000e+00 -9.961947e-01 8.715557e-02
      outer loop
         vertex 6.320491e+03 1.848354e+03 1.906412e+03
         vertex 1.000000e+04 1.848354e+03 1.906412e+03
         vertex 6.320491e+03 1.858996e+03 2.028046e+03
      endloop
   endfacet
   facet normal 0.000000e+00 -9.961947e-01 8.715557e-02
      outer loop
         vertex 6.320491e+03 1.858996e+03 2.028046e+03
         vertex 1.000000e+04 1.848354e+03 1.906412e+03
         vertex 1.000000e+04 1.858996e+03 2.028046e+03
      endloop
   endfacet
   facet normal 0.000000e+00 -9.961947e-01 -8.715523e-02
      outer loop
         vertex 6.320491e+03 1.858996e+03 2.028046e+03
         vertex 1.000000e+04 1.858996e+03 2.028046e+03
         vertex 6.320491e+03 1.848354e+03 2.149681e+03
      endloop
   endfacet
   facet normal 0.000000e+00 -9.961947e-01 -8.715523e-02
      outer loop
         vertex 6.320491e+03 1.848354e+03 2.149681e+03
         vertex 1.000000e+04 1.858996e+03 2.028046e+03
         vertex 1.000000e+04 1.848354e+03 2.149681e+03
      endloop
   endfacet
   facet normal 0.000000e+00 -9.659258e-01 -2.588192e-01
      outer loop
         vertex 6.320491e+03 1.848354e+03 2.149681e+03
         vertex 1.000000e+04 1.848354e+03 2.149681e+03
         vertex 6.320491e+03 1.816752e+03 2.267619e+03
      endloop
   endfacet
   facet normal 0.000000e+00 -9.659258e-01 -2.588192e-01
      outer loop
         vertex 6.320491e+03 1.816752e+03 2.267619e+03
         vertex 1.000000e+04 1.848354e+03 2.149681e+03
         vertex 1.000000e+04 1.816752e+03 2.267619e+03
      endloop
   endfacet
   facet normal 0.000000e+00 -9.063075e-01 -4.226189e-01
      outer loop
         vertex 6.320491e+03 1.816752e+03 2.267619e+03
         vertex 1.000000e+04 1.816752e+03 2.267619e+03
         vertex 6.320491e+03 1.765151e+03 2.378278e+03
      endloop
   endfacet
   facet normal 0.000000e+00 -9.063075e-01 -4.226189e-01
      outer loop
         vertex 6.320491e+03 1.765151e+03 2.378278e+03
         vertex 1.000000e+04 1.816752e+03 2.267619e+03
         vertex 1.000000e+04 1.765151e+03 2.378278e+03
      endloop
   endfacet
   facet normal 0.000000e+00 -8.191519e-01 -5.735766e-01
      outer loop
         vertex 6.320491e+03 1.765151e+03 2.378278e+03
         vertex 1.000000e+04 1.765151e+03 2.378278e+03
         vertex 6.320491e+03 1.695118e+03 2.478296e+03
      endloop
   endfacet
   facet normal 0.000000e+00 -8.191519e-01 -5.735766e-01
      outer loop
         vertex 6.320491e+03 1.695118e+03 2.478296e+03
         vertex 1.000000e+04 1.765151e+03 2.378278e+03
         vertex 1.000000e+04 1.695118e+03 2.478296e+03
      endloop
   endfacet
   facet normal 0.000000e+00 -7.071073e-01 -7.071063e-01
      outer loop
         vertex 6.320491e+03 1.695118e+03 2.478296e+03
         vertex 1.000000e+04 1.695118e+03 2.478296e+03
         vertex 6.320491e+03 1.608781e+03 2.564633e+03
      endloop
   endfacet
   facet normal 0.000000e+00 -7.071073e-01 -7.071063e-01
      outer loop
         vertex 6.320491e+03 1.608781e+03 2.564633e+03
         vertex 1.000000e+04 1.695118e+03 2.478296e+03
         vertex 1.000000e+04 1.608781e+03 2.564633e+03
      endloop
   endfacet
   facet normal 0.000000e+00 -5.735762e-01 -8.191522e-01
      outer loop
         vertex 6.320491e+03 1.608781e+03 2.564633e+03
         vertex 1.000000e+04 1.608781e+03 2.564633e+03
         vertex 6.320491e+03 1.508763e+03 2.634666e+03
      endloop
   endfacet
   facet normal 0.000000e+00 -5.735762e-01 -8.191522e-01
      outer loop
         vertex 6.320491e+03 1.508763e+03 2.634666e+03
         vertex 1.000000e+04 1.608781e+03 2.564633e+03
         vertex 1.000000e+04 1.508763e+03 2.634666e+03
      endloop
   endfacet
   facet normal 0.000000e+00 -4.226193e-01 -9.063073e-01
      outer loop
         vertex 6.320491e+03 1.508763e+03 2.634666e+03
         vertex 1.000000e+04 1.508763e+03 2.634666e+03
         vertex 6.320491e+03 1.398104e+03 2.686267e+03
      endloop
   endfacet
   facet normal 0.000000e+00 -4.226193e-01 -9.063073e-01
      outer loop
         vertex 6.320491e+03 1.398104e+03 2.686267e+03
         vertex 1.000000e+04 1.508763e+03 2.634666e+03
         vertex 1.000000e+04 1.398104e+03 2.686267e+03
      endloop
   endfacet
   facet normal 0.000000e+00 -2.588183e-01 -9.659260e-01
      outer loop
         vertex 6.320491e+03 1.398104e+03 2.686267e+03
         vertex 1.000000e+04 1.398104e+03 2.686267e+03
         vertex 6.320491e+03 1.280166e+03 2.717869e+03
      endloop
   endfacet
   facet normal 0.000000e+00 -2.588183e-01 -9.659260e-01
      outer loop
         vertex 6.320491e+03 1.280166e+03 2.717869e+03
         vertex 1.000000e+04 1.398104e+03 2.686267e+03
         vertex 1.000000e+04 1.280166e+03 2.717869e+03
      endloop
   endfacet
   facet normal 0.000000e+00 -8.715531e-02 -9.961947e-01
      outer loop
         vertex 6.320491e+03 1.280166e+03 2.717869e+03
         vertex 1.000000e+04 1.280166e+03 2.717869e+03
         vertex 6.320491e+03 1.158531e+03 2.728510e+03
      endloop
   endfacet
   facet normal 0.000000e+00 -8.715531e-02 -9.961947e-01
      outer loop
         vertex 6.320491e+03 1.158531e+03 2.728510e+03
         vertex 1.000000e+04 1.280166e+03 2.717869e+03
         vertex 1.000000e+04 1.158531e+03 2.728510e+03
      endloop
   endfacet
   facet normal -0.000000e+00 0.000000e+00 1.000000e+00
      outer loop
         vertex 6.320491e+03 1.158531e+03 1.327582e+03
         vertex 6.320491e+03 2.220446e-13 1.327582e+03
         vertex 1.000000e+04 1.158531e+03 1.327582e+03
      endloop
   endfacet
   facet normal 0.000000e+00 0.000000e+00 1.000000e+00
      outer loop
         vertex 1.000000e+04 1.158531e+03 1.327582e+03
         vertex 6.320491e+03 2.220446e-13 1.327582e+03
         vertex 1.000000e+04 0.000000e+00 1.327582e+03
      endloop
   endfacet
   facet normal 1.000000e+00 -0.000000e+00 0.000000e+00
      outer loop
         vertex 6.320491e+03 2.253049e-13 2.728510e+03
         vertex 6.320491e+03 2.253049e-13 1.327582e+03
         vertex 6.320491e+03 1.158531e+03 2.728510e+03
      endloop
   endfacet
   facet normal 1.000000e+00 0.000000e+00 0.000000e+00
      outer loop
         vertex 6.320491e+03 1.158531e+03 2.728510e+03
         vertex 6.320491e+03 2.253049e-13 1.327582e+03
         vertex 6.320491e+03 1.158531e+03 1.327582e+03
      endloop
   endfacet
   facet normal 1.000000e+00 0.000000e+00 0.000000e+00
      outer loop
         vertex 6.320491e+03 1.508763e+03 2.634666e+03
         vertex 6.320491e+03 1.398104e+03 2.686267e+03
         vertex 6.320491e+03 1.158531e+03 1.327582e+03
      endloop
   endfacet
   facet normal 1.000000e+00 0.000000e+00 0.000000e+00
      outer loop
         vertex 6.320491e+03 1.158531e+03 1.327582e+03
         vertex 6.320491e+03 1.398104e+03 2.686267e+03
         vertex 6.320491e+03 1.280166e+03 2.717869e+03
      endloop
   endfacet
   facet normal 1.000000e+00 0.000000e+00 0.000000e+00
      outer loop
         vertex 6.320491e+03 1.158531e+03 1.327582e+03
         vertex 6.320491e+03 1.280166e+03 2.717869e+03
         vertex 6.320491e+03 1.158531e+03 2.728510e+03
      endloop
   endfacet
   facet normal 1.000000e+00 0.000000e+00 0.000000e+00
      outer loop
         vertex 6.320491e+03 1.158531e+03 1.327582e+03
         vertex 6.320491e+03 1.280166e+03 1.338223e+03
         vertex 6.320491e+03 1.508763e+03 2.634666e+03
      endloop
   endfacet
   facet normal 1.000000e+00 0.000000e+00 0.000000e+00
      outer loop
         vertex 6.320491e+03 1.508763e+03 2.634666e+03
         vertex 6.320491e+03 1.280166e+03 1.338223e+03
         vertex 6.320491e+03 1.398104e+03 1.369825e+03
      endloop
   endfacet
   facet normal 1.000000e+00 0.000000e+00 0.000000e+00
      outer loop
         vertex 6.320491e+03 1.508763e+03 2.634666e+03
         vertex 6.320491e+03 1.398104e+03 1.369825e+03
         vertex 6.320491e+03 1.508763e+03 1.421427e+03
      endloop
   endfacet
   facet normal 1.000000e+00 0.000000e+00 0.000000e+00
      outer loop
         vertex 6.320491e+03 1.508763e+03 1.421427e+03
         vertex 6.320491e+03 1.608781e+03 1.491460e+03
         vertex 6.320491e+03 1.508763e+03 2.634666e+03
      endloop
   endfacet
   facet normal 1.000000e+00 0.000000e+00 0.000000e+00
      outer loop
         vertex 6.320491e+03 1.508763e+03 2.634666e+03
         vertex 6.320491e+03 1.608781e+03 1.491460e+03
         vertex 6.320491e+03 1.695118e+03 1.577796e+03
      endloop
   endfacet
   facet normal 1.000000e+00 0.000000e+00 0.000000e+00
      outer loop
         vertex 6.320491e+03 1.508763e+03 2.634666e+03
         vertex 6.320491e+03 1.695118e+03 1.577796e+03
         vertex 6.320491e+03 1.765151e+03 1.677814e+03
      endloop
   endfacet
   facet normal 1.000000e+00 0.000000e+00 0.000000e+00
      outer loop
         vertex 6.320491e+03 1.858996e+03 2.028046e+03
         vertex 6.320491e+03 1.848354e+03 2.149681e+03
         vertex 6.320491e+03 1.816752e+03 2.267619e+03
      endloop
   endfacet
   facet normal 1.000000e+00 0.000000e+00 -0.000000e+00
      outer loop
         vertex 6.320491e+03 1.765151e+03 1.677814e+03
         vertex 6.320491e+03 1.816752e+03 1.788473e+03
         vertex 6.320491e+03 1.508763e+03 2.634666e+03
      endloop
   endfacet
   facet normal 1.000000e+00 0.000000e+00 0.000000e+00
      outer loop
         vertex 6.320491e+03 1.508763e+03 2.634666e+03
         vertex 6.320491e+03 1.816752e+03 1.788473e+03
         vertex 6.320491e+03 1.848354e+03 1.906412e+03
      endloop
   endfacet
   facet normal 1.000000e+00 0.000000e+00 0.000000e+00
      outer loop
         vertex 6.320491e+03 1.508763e+03 2.634666e+03
         vertex 6.320491e+03 1.848354e+03 1.906412e+03
         vertex 6.320491e+03 1.608781e+03 2.564633e+03
      endloop
   endfacet
   facet normal 1.000000e+00 0.000000e+00 0.000000e+00
      outer loop
         vertex 6.320491e+03 1.608781e+03 2.564633e+03
         vertex 6.320491e+03 1.848354e+03 1.906412e+03
         vertex 6.320491e+03 1.695118e+03 2.478296e+03
      endloop
   endfacet
   facet normal 1.000000e+00 0.000000e+00 0.000000e+00
      outer loop
         vertex 6.320491e+03 1.858996e+03 2.028046e+03
         vertex 6.320491e+03 1.816752e+03 2.267619e+03
         vertex 6.320491e+03 1.848354e+03 1.906412e+03
      endloop
   endfacet
   facet normal 1.000000e+00 0.000000e+00 0.000000e+00
      outer loop
         vertex 6.320491e+03 1.848354e+03 1.906412e+03
         vertex 6.320491e+03 1.816752e+03 2.267619e+03
         vertex 6.320491e+03 1.765151e+03 2.378278e+03
      endloop
   endfacet
   facet normal 1.000000e+00 0.000000e+00 0.000000e+00
      outer loop
         vertex 6.320491e+03 1.848354e+03 1.906412e+03
         vertex 6.320491e+03 1.765151e+03 2.378278e+03
         vertex 6.320491e+03 1.695118e+03 2.478296e+03
      endloop
   endfacet
endsolid