solid 336
   facet normal -1.000000e+00 -1.224647e-16 -6.123236e-17
      outer loop
         vertex 1.224647e-12 0.000000e+00 1.000000e+04
         vertex 0.000000e+00 1.000000e+04 1.000000e+04
         vertex 1.294910e-12 -7.026316e-14 8.852515e+03
      endloop
   endfacet
   facet normal -1.000000e+00 -1.224647e-16 -6.123234e-17
      outer loop
         vertex 1.294910e-12 -7.026316e-14 8.852515e+03
         vertex 0.000000e+00 1.000000e+04 1.000000e+04
         vertex 7.026316e-14 1.000000e+04 8.852515e+03
      endloop
   endfacet
   facet normal -6.123234e-17 6.123234e-17 1.000000e+00
      outer loop
         vertex 1.000000e+04 1.000000e+04 1.000000e+04
         vertex 0.000000e+00 1.000000e+04 1.000000e+04
         vertex 1.000000e+04 -5.517100e-13 1.000000e+04
      endloop
   endfacet
   facet normal -6.123234e-17 6.123234e-17 1.000000e+00
      outer loop
         vertex 1.000000e+04 -5.517100e-13 1.000000e+04
         vertex 0.000000e+00 1.000000e+04 1.000000e+04
         vertex 6.123234e-13 -7.498799e-29 1.000000e+04
      endloop
   endfacet
   facet normal 1.000000e+00 0.000000e+00 0.000000e+00
      outer loop
         vertex 1.000000e+04 6.262992e+03 5.433521e+02
         vertex 1.000000e+04 5.729295e+03 6.411552e+02
         vertex 1.000000e+04 -6.123234e-13 0.000000e+00
      endloop
   endfacet
   facet normal 1.000000e+00 0.000000e+00 0.000000e+00
      outer loop
         vertex 1.000000e+04 -6.123234e-13 0.000000e+00
         vertex 1.000000e+04 5.729295e+03 6.411552e+02
         vertex 1.000000e+04 5.211278e+03 8.025761e+02
      endloop
   endfacet
   facet normal 1.000000e+00 0.000000e+00 0.000000e+00
      outer loop
         vertex 1.000000e+04 -6.123234e-13 0.000000e+00
         vertex 1.000000e+04 5.211278e+03 8.025761e+02
         vertex 1.000000e+04 4.716496e+03 1.025260e+03
      endloop
   endfacet
   facet normal 1.000000e+00 0.000000e+00 0.000000e+00
      outer loop
         vertex 1.000000e+04 4.716496e+03 1.025260e+03
         vertex 1.000000e+04 4.252162e+03 1.305959e+03
         vertex 1.000000e+04 -6.123234e-13 0.000000e+00
      endloop
   endfacet
   facet normal 1.000000e+00 0.000000e+00 0.000000e+00
      outer loop
         vertex 1.000000e+04 -6.123234e-13 0.000000e+00
         vertex 1.000000e+04 4.252162e+03 1.305959e+03
         vertex 1.000000e+04 3.825048e+03 1.640581e+03
      endloop
   endfacet
   facet normal 1.000000e+00 0.000000e+00 0.000000e+00
      outer loop
         vertex 1.000000e+04 -6.123234e-13 0.000000e+00
         vertex 1.000000e+04 3.825048e+03 1.640581e+03
         vertex 1.000000e+04 3.441383e+03 2.024246e+03
      endloop
   endfacet
   facet normal 1.000000e+00 0.000000e+00 0.000000e+00
      outer loop
         vertex 1.000000e+04 6.262992e+03 5.433521e+02
         vertex 1.000000e+04 -6.123234e-13 0.000000e+00
         vertex 1.000000e+04 6.804587e+03 5.105915e+02
      endloop
   endfacet
   facet normal 1.000000e+00 0.000000e+00 0.000000e+00
      outer loop
         vertex 1.000000e+04 6.804587e+03 5.105915e+02
         vertex 1.000000e+04 -6.123234e-13 0.000000e+00
         vertex 1.000000e+04 1.000000e+04 0.000000e+00
      endloop
   endfacet
   facet normal 1.000000e+00 -0.000000e+00 0.000000e+00
      outer loop
         vertex 1.000000e+04 6.804587e+03 5.105915e+02
         vertex 1.000000e+04 1.000000e+04 0.000000e+00
         vertex 1.000000e+04 1.000000e+04 5.105915e+02
      endloop
   endfacet
   facet normal 1.000000e+00 0.000000e+00 0.000000e+00
      outer loop
         vertex 1.000000e+04 3.441383e+03 2.024246e+03
         vertex 1.000000e+04 3.106761e+03 2.451360e+03
         vertex 1.000000e+04 -6.123234e-13 0.000000e+00
      endloop
   endfacet
   facet normal 1.000000e+00 0.000000e+00 0.000000e+00
      outer loop
         vertex 1.000000e+04 -6.123234e-13 0.000000e+00
         vertex 1.000000e+04 3.106761e+03 2.451360e+03
         vertex 1.000000e+04 2.826061e+03 2.915694e+03
      endloop
   endfacet
   facet normal 1.000000e+00 0.000000e+00 0.000000e+00
      outer loop
         vertex 1.000000e+04 -6.123234e-13 0.000000e+00
         vertex 1.000000e+04 2.826061e+03 2.915694e+03
         vertex 1.000000e+04 2.603378e+03 3.410477e+03
      endloop
   endfacet
   facet normal 1.000000e+00 0.000000e+00 -0.000000e+00
      outer loop
         vertex 1.000000e+04 3.441383e+03 7.983324e+03
         vertex 1.000000e+04 3.825048e+03 8.366989e+03
         vertex 1.000000e+04 0.000000e+00 1.000000e+04
      endloop
   endfacet
   facet normal 1.000000e+00 0.000000e+00 0.000000e+00
      outer loop
         vertex 1.000000e+04 0.000000e+00 1.000000e+04
         vertex 1.000000e+04 3.825048e+03 8.366989e+03
         vertex 1.000000e+04 4.252162e+03 8.701611e+03
      endloop
   endfacet
   facet normal 1.000000e+00 0.000000e+00 0.000000e+00
      outer loop
         vertex 1.000000e+04 2.603378e+03 3.410477e+03
         vertex 1.000000e+04 2.441957e+03 3.928493e+03
         vertex 1.000000e+04 -6.123234e-13 0.000000e+00
      endloop
   endfacet
   facet normal 1.000000e+00 0.000000e+00 0.000000e+00
      outer loop
         vertex 1.000000e+04 -6.123234e-13 0.000000e+00
         vertex 1.000000e+04 2.441957e+03 3.928493e+03
         vertex 1.000000e+04 2.344154e+03 4.462190e+03
      endloop
   endfacet
   facet normal 1.000000e+00 0.000000e+00 0.000000e+00
      outer loop
         vertex 1.000000e+04 -6.123234e-13 0.000000e+00
         vertex 1.000000e+04 2.344154e+03 4.462190e+03
         vertex 1.000000e+04 0.000000e+00 1.000000e+04
      endloop
   endfacet
   facet normal 1.000000e+00 0.000000e+00 0.000000e+00
      outer loop
         vertex 1.000000e+04 0.000000e+00 1.000000e+04
         vertex 1.000000e+04 2.344154e+03 4.462190e+03
         vertex 1.000000e+04 2.311393e+03 5.003785e+03
      endloop
   endfacet
   facet normal 1.000000e+00 0.000000e+00 -0.000000e+00
      outer loop
         vertex 1.000000e+04 2.311393e+03 5.003785e+03
         vertex 1.000000e+04 2.344154e+03 5.545380e+03
         vertex 1.000000e+04 0.000000e+00 1.000000e+04
      endloop
   endfacet
   facet normal 1.000000e+00 0.000000e+00 0.000000e+00
      outer loop
         vertex 1.000000e+04 0.000000e+00 1.000000e+04
         vertex 1.000000e+04 2.344154e+03 5.545380e+03
         vertex 1.000000e+04 2.441957e+03 6.079077e+03
      endloop
   endfacet
   facet normal 1.000000e+00 0.000000e+00 0.000000e+00
      outer loop
         vertex 1.000000e+04 0.000000e+00 1.000000e+04
         vertex 1.000000e+04 2.441957e+03 6.079077e+03
         vertex 1.000000e+04 2.603378e+03 6.597093e+03
      endloop
   endfacet
   facet normal 1.000000e+00 0.000000e+00 -0.000000e+00
      outer loop
         vertex 1.000000e+04 4.252162e+03 8.701611e+03
         vertex 1.000000e+04 4.716496e+03 8.982310e+03
         vertex 1.000000e+04 0.000000e+00 1.000000e+04
      endloop
   endfacet
   facet normal 1.000000e+00 0.000000e+00 0.000000e+00
      outer loop
         vertex 1.000000e+04 0.000000e+00 1.000000e+04
         vertex 1.000000e+04 4.716496e+03 8.982310e+03
         vertex 1.000000e+04 5.211278e+03 9.204994e+03
      endloop
   endfacet
   facet normal 1.000000e+00 0.000000e+00 0.000000e+00
      outer loop
         vertex 1.000000e+04 0.000000e+00 1.000000e+04
         vertex 1.000000e+04 5.211278e+03 9.204994e+03
         vertex 1.000000e+04 5.729295e+03 9.366415e+03
      endloop
   endfacet
   facet normal 1.000000e+00 0.000000e+00 -0.000000e+00
      outer loop
         vertex 1.000000e+04 5.729295e+03 9.366415e+03
         vertex 1.000000e+04 6.262992e+03 9.464218e+03
         vertex 1.000000e+04 0.000000e+00 1.000000e+04
      endloop
   endfacet
   facet normal 1.000000e+00 0.000000e+00 0.000000e+00
      outer loop
         vertex 1.000000e+04 0.000000e+00 1.000000e+04
         vertex 1.000000e+04 6.262992e+03 9.464218e+03
         vertex 1.000000e+04 6.804587e+03 9.496979e+03
      endloop
   endfacet
   facet normal 1.000000e+00 0.000000e+00 0.000000e+00
      outer loop
         vertex 1.000000e+04 0.000000e+00 1.000000e+04
         vertex 1.000000e+04 6.804587e+03 9.496979e+03
         vertex 1.000000e+04 1.000000e+04 1.000000e+04
      endloop
   endfacet
   facet normal 1.000000e+00 0.000000e+00 0.000000e+00
      outer loop
         vertex 1.000000e+04 1.000000e+04 1.000000e+04
         vertex 1.000000e+04 6.804587e+03 9.496979e+03
         vertex 1.000000e+04 1.000000e+04 9.496979e+03
      endloop
   endfacet
   facet normal 1.000000e+00 0.000000e+00 -0.000000e+00
      outer loop
         vertex 1.000000e+04 2.603378e+03 6.597093e+03
         vertex 1.000000e+04 2.826061e+03 7.091876e+03
         vertex 1.000000e+04 0.000000e+00 1.000000e+04
      endloop
   endfacet
   facet normal 1.000000e+00 0.000000e+00 0.000000e+00
      outer loop
         vertex 1.000000e+04 0.000000e+00 1.000000e+04
         vertex 1.000000e+04 2.826061e+03 7.091876e+03
         vertex 1.000000e+04 3.106761e+03 7.556210e+03
      endloop
   endfacet
   facet normal 1.000000e+00 0.000000e+00 0.000000e+00
      outer loop
         vertex 1.000000e+04 0.000000e+00 1.000000e+04
         vertex 1.000000e+04 3.106761e+03 7.556210e+03
         vertex 1.000000e+04 3.441383e+03 7.983324e+03
      endloop
   endfacet
   facet normal 0.000000e+00 0.000000e+00 -1.000000e+00
      outer loop
         vertex 0.000000e+00 1.000000e+04 0.000000e+00
         vertex 1.000000e+04 1.000000e+04 0.000000e+00
         vertex 6.123234e-13 -7.498799e-29 0.000000e+00
      endloop
   endfacet
   facet normal 0.000000e+00 0.000000e+00 -1.000000e+00
      outer loop
         vertex 6.123234e-13 -7.498799e-29 0.000000e+00
         vertex 1.000000e+04 1.000000e+04 0.000000e+00
         vertex 1.000000e+04 -5.517100e-13 0.000000e+00
      endloop
   endfacet
   facet normal -1.000000e+00 -1.224647e-16 -6.123235e-17
      outer loop
         vertex 6.123234e-13 1.000000e+04 0.000000e+00
         vertex 1.836970e-12 -6.123234e-13 0.000000e+00
         vertex 5.188751e-13 1.000000e+04 1.526127e+03
      endloop
   endfacet
   facet normal -1.000000e+00 -1.224647e-16 -6.123224e-17
      outer loop
         vertex 5.188751e-13 1.000000e+04 1.526127e+03
         vertex 1.836970e-12 -6.123234e-13 0.000000e+00
         vertex 1.743522e-12 -5.188751e-13 1.526127e+03
      endloop
   endfacet
   facet normal -0.000000e+00 1.000000e+00 0.000000e+00
      outer loop
         vertex 5.154859e+03 1.000000e+04 5.105915e+02
         vertex 1.000000e+04 1.000000e+04 5.105915e+02
         vertex 1.000000e+04 1.000000e+04 0.000000e+00
      endloop
   endfacet
   facet normal -0.000000e+00 1.000000e+00 0.000000e+00
      outer loop
         vertex 0.000000e+00 1.000000e+04 1.000000e+04
         vertex 1.000000e+04 1.000000e+04 1.000000e+04
         vertex 5.154859e+03 1.000000e+04 9.496979e+03
      endloop
   endfacet
   facet normal 0.000000e+00 1.000000e+00 0.000000e+00
      outer loop
         vertex 5.154859e+03 1.000000e+04 9.496979e+03
         vertex 1.000000e+04 1.000000e+04 1.000000e+04
         vertex 1.000000e+04 1.000000e+04 9.496979e+03
      endloop
   endfacet
   facet normal -0.000000e+00 1.000000e+00 -0.000000e+00
      outer loop
         vertex 1.232595e-29 1.000000e+04 8.852515e+03
         vertex 0.000000e+00 1.000000e+04 1.000000e+04
         vertex 1.267942e+03 1.000000e+04 5.189321e+03
      endloop
   endfacet
   facet normal 0.000000e+00 1.000000e+00 -0.000000e+00
      outer loop
         vertex 1.267942e+03 1.000000e+04 5.189321e+03
         vertex 0.000000e+00 1.000000e+04 1.000000e+04
         vertex 5.154859e+03 1.000000e+04 9.496979e+03
      endloop
   endfacet
   facet normal -0.000000e+00 1.000000e+00 0.000000e+00
      outer loop
         vertex 1.267942e+03 1.000000e+04 5.189321e+03
         vertex 5.154859e+03 1.000000e+04 9.496979e+03
         vertex 9.860761e-29 1.000000e+04 1.526127e+03
      endloop
   endfacet
   facet normal -0.000000e+00 1.000000e+00 0.000000e+00
      outer loop
         vertex 9.860761e-29 1.000000e+04 1.526127e+03
         vertex 5.154859e+03 1.000000e+04 9.496979e+03
         vertex 5.154859e+03 1.000000e+04 5.105915e+02
      endloop
   endfacet
   facet normal 0.000000e+00 1.000000e+00 0.000000e+00
      outer loop
         vertex 9.860761e-29 1.000000e+04 1.526127e+03
         vertex 5.154859e+03 1.000000e+04 5.105915e+02
         vertex 1.972152e-28 1.000000e+04 0.000000e+00
      endloop
   endfacet
   facet normal 0.000000e+00 1.000000e+00 0.000000e+00
      outer loop
         vertex 1.972152e-28 1.000000e+04 0.000000e+00
         vertex 5.154859e+03 1.000000e+04 5.105915e+02
         vertex 1.000000e+04 1.000000e+04 0.000000e+00
      endloop
   endfacet
   facet normal 1.224647e-16 -1.000000e+00 6.123234e-17
      outer loop
         vertex 6.123234e-13 0.000000e+00 1.000000e+04
         vertex 6.123234e-13 -7.026316e-14 8.852515e+03
         vertex 1.000000e+04 1.224647e-12 1.000000e+04
      endloop
   endfacet
   facet normal 1.224647e-16 -1.000000e+00 6.123234e-17
      outer loop
         vertex 1.000000e+04 1.224647e-12 1.000000e+04
         vertex 6.123234e-13 -7.026316e-14 8.852515e+03
         vertex 1.267942e+03 -1.392910e-13 5.189321e+03
      endloop
   endfacet
   facet normal 1.224647e-16 -1.000000e+00 6.123234e-17
      outer loop
         vertex 1.000000e+04 1.224647e-12 1.000000e+04
         vertex 1.267942e+03 -1.392910e-13 5.189321e+03
         vertex 1.000000e+04 6.123234e-13 0.000000e+00
      endloop
   endfacet
   facet normal 1.224647e-16 -1.000000e+00 6.123234e-17
      outer loop
         vertex 1.000000e+04 6.123234e-13 0.000000e+00
         vertex 1.267942e+03 -1.392910e-13 5.189321e+03
         vertex 6.123234e-13 -5.188751e-13 1.526127e+03
      endloop
   endfacet
   facet normal 1.224647e-16 -1.000000e+00 6.123235e-17
      outer loop
         vertex 1.000000e+04 6.123234e-13 0.000000e+00
         vertex 6.123234e-13 -5.188751e-13 1.526127e+03
         vertex 6.123234e-13 -6.123234e-13 0.000000e+00
      endloop
   endfacet
   facet normal -9.449930e-01 -1.079657e-16 -3.270905e-01
      outer loop
         vertex 0.000000e+00 1.000000e+04 8.852515e+03
         vertex 1.267942e+03 1.000000e+04 5.189321e+03
         vertex 1.142503e-12 -3.552714e-12 8.852515e+03
      endloop
   endfacet
   facet normal -9.449930e-01 0.000000e+00 -3.270905e-01
      outer loop
         vertex 1.142503e-12 -3.552714e-12 8.852515e+03
         vertex 1.267942e+03 1.000000e+04 5.189321e+03
         vertex 1.267942e+03 -3.552714e-12 5.189321e+03
      endloop
   endfacet
   facet normal -9.449930e-01 0.000000e+00 3.270905e-01
      outer loop
         vertex 1.267942e+03 1.000000e+04 5.189321e+03
         vertex 4.440892e-13 1.000000e+04 1.526127e+03
         vertex 1.267942e+03 0.000000e+00 5.189321e+03
      endloop
   endfacet
   facet normal -9.449930e-01 -9.164924e-17 3.270905e-01
      outer loop
         vertex 1.267942e+03 0.000000e+00 5.189321e+03
         vertex 4.440892e-13 1.000000e+04 1.526127e+03
         vertex 1.446691e-12 0.000000e+00 1.526127e+03
      endloop
   endfacet
   facet normal -0.000000e+00 0.000000e+00 1.000000e+00
      outer loop
         vertex 5.154859e+03 1.000000e+04 5.105915e+02
         vertex 5.154859e+03 6.804587e+03 5.105915e+02
         vertex 1.000000e+04 1.000000e+04 5.105915e+02
      endloop
   endfacet
   facet normal 0.000000e+00 0.000000e+00 1.000000e+00
      outer loop
         vertex 1.000000e+04 1.000000e+04 5.105915e+02
         vertex 5.154859e+03 6.804587e+03 5.105915e+02
         vertex 1.000000e+04 6.804587e+03 5.105915e+02
      endloop
   endfacet
   facet normal 0.000000e+00 6.037851e-02 -9.981756e-01
      outer loop
         vertex 5.154859e+03 6.804587e+03 9.496979e+03
         vertex 1.000000e+04 6.804587e+03 9.496979e+03
         vertex 5.154859e+03 6.262992e+03 9.464218e+03
      endloop
   endfacet
   facet normal 0.000000e+00 6.037851e-02 -9.981756e-01
      outer loop
         vertex 5.154859e+03 6.262992e+03 9.464218e+03
         vertex 1.000000e+04 6.804587e+03 9.496979e+03
         vertex 1.000000e+04 6.262992e+03 9.464218e+03
      endloop
   endfacet
   facet normal 0.000000e+00 1.802550e-01 -9.836199e-01
      outer loop
         vertex 5.154859e+03 6.262992e+03 9.464218e+03
         vertex 1.000000e+04 6.262992e+03 9.464218e+03
         vertex 5.154859e+03 5.729295e+03 9.366415e+03
      endloop
   endfacet
   facet normal 0.000000e+00 1.802550e-01 -9.836199e-01
      outer loop
         vertex 5.154859e+03 5.729295e+03 9.366415e+03
         vertex 1.000000e+04 6.262992e+03 9.464218e+03
         vertex 1.000000e+04 5.729295e+03 9.366415e+03
      endloop
   endfacet
   facet normal 0.000000e+00 2.975031e-01 -9.547209e-01
      outer loop
         vertex 5.154859e+03 5.729295e+03 9.366415e+03
         vertex 1.000000e+04 5.729295e+03 9.366415e+03
         vertex 5.154859e+03 5.211278e+03 9.204994e+03
      endloop
   endfacet
   facet normal 0.000000e+00 2.975031e-01 -9.547209e-01
      outer loop
         vertex 5.154859e+03 5.211278e+03 9.204994e+03
         vertex 1.000000e+04 5.729295e+03 9.366415e+03
         vertex 1.000000e+04 5.211278e+03 9.204994e+03
      endloop
   endfacet
   facet normal 0.000000e+00 4.104131e-01 -9.118997e-01
      outer loop
         vertex 5.154859e+03 5.211278e+03 9.204994e+03
         vertex 1.000000e+04 5.211278e+03 9.204994e+03
         vertex 5.154859e+03 4.716496e+03 8.982310e+03
      endloop
   endfacet
   facet normal 0.000000e+00 4.104131e-01 -9.118997e-01
      outer loop
         vertex 5.154859e+03 4.716496e+03 8.982310e+03
         vertex 1.000000e+04 5.211278e+03 9.204994e+03
         vertex 1.000000e+04 4.716496e+03 8.982310e+03
      endloop
   endfacet
   facet normal 0.000000e+00 5.173375e-01 -8.557814e-01
      outer loop
         vertex 5.154859e+03 4.716496e+03 8.982310e+03
         vertex 1.000000e+04 4.716496e+03 8.982310e+03
         vertex 5.154859e+03 4.252162e+03 8.701611e+03
      endloop
   endfacet
   facet normal 0.000000e+00 5.173375e-01 -8.557814e-01
      outer loop
         vertex 5.154859e+03 4.252162e+03 8.701611e+03
         vertex 1.000000e+04 4.716496e+03 8.982310e+03
         vertex 1.000000e+04 4.252162e+03 8.701611e+03
      endloop
   endfacet
   facet normal 0.000000e+00 6.167189e-01 -7.871834e-01
      outer loop
         vertex 5.154859e+03 4.252162e+03 8.701611e+03
         vertex 1.000000e+04 4.252162e+03 8.701611e+03
         vertex 5.154859e+03 3.825048e+03 8.366989e+03
      endloop
   endfacet
   facet normal 0.000000e+00 6.167189e-01 -7.871834e-01
      outer loop
         vertex 5.154859e+03 3.825048e+03 8.366989e+03
         vertex 1.000000e+04 4.252162e+03 8.701611e+03
         vertex 1.000000e+04 3.825048e+03 8.366989e+03
      endloop
   endfacet
   facet normal 0.000000e+00 7.071069e-01 -7.071067e-01
      outer loop
         vertex 5.154859e+03 3.825048e+03 8.366989e+03
         vertex 1.000000e+04 3.825048e+03 8.366989e+03
         vertex 5.154859e+03 3.441383e+03 7.983324e+03
      endloop
   endfacet
   facet normal 0.000000e+00 7.071069e-01 -7.071067e-01
      outer loop
         vertex 5.154859e+03 3.441383e+03 7.983324e+03
         vertex 1.000000e+04 3.825048e+03 8.366989e+03
         vertex 1.000000e+04 3.441383e+03 7.983324e+03
      endloop
   endfacet
   facet normal 0.000000e+00 7.871834e-01 -6.167189e-01
      outer loop
         vertex 5.154859e+03 3.441383e+03 7.983324e+03
         vertex 1.000000e+04 3.441383e+03 7.983324e+03
         vertex 5.154859e+03 3.106761e+03 7.556210e+03
      endloop
   endfacet
   facet normal 0.000000e+00 7.871834e-01 -6.167189e-01
      outer loop
         vertex 5.154859e+03 3.106761e+03 7.556210e+03
         vertex 1.000000e+04 3.441383e+03 7.983324e+03
         vertex 1.000000e+04 3.106761e+03 7.556210e+03
      endloop
   endfacet
   facet normal 0.000000e+00 8.557811e-01 -5.173381e-01
      outer loop
         vertex 5.154859e+03 3.106761e+03 7.556210e+03
         vertex 1.000000e+04 3.106761e+03 7.556210e+03
         vertex 5.154859e+03 2.826061e+03 7.091876e+03
      endloop
   endfacet
   facet normal 0.000000e+00 8.557811e-01 -5.173381e-01
      outer loop
         vertex 5.154859e+03 2.826061e+03 7.091876e+03
         vertex 1.000000e+04 3.106761e+03 7.556210e+03
         vertex 1.000000e+04 2.826061e+03 7.091876e+03
      endloop
   endfacet
   facet normal 0.000000e+00 9.118999e-01 -4.104127e-01
      outer loop
         vertex 5.154859e+03 2.826061e+03 7.091876e+03
         vertex 1.000000e+04 2.826061e+03 7.091876e+03
         vertex 5.154859e+03 2.603378e+03 6.597093e+03
      endloop
   endfacet
   facet normal 0.000000e+00 9.118999e-01 -4.104127e-01
      outer loop
         vertex 5.154859e+03 2.603378e+03 6.597093e+03
         vertex 1.000000e+04 2.826061e+03 7.091876e+03
         vertex 1.000000e+04 2.603378e+03 6.597093e+03
      endloop
   endfacet
   facet normal 0.000000e+00 9.547210e-01 -2.975027e-01
      outer loop
         vertex 5.154859e+03 2.603378e+03 6.597093e+03
         vertex 1.000000e+04 2.603378e+03 6.597093e+03
         vertex 5.154859e+03 2.441957e+03 6.079077e+03
      endloop
   endfacet
   facet normal 0.000000e+00 9.547210e-01 -2.975027e-01
      outer loop
         vertex 5.154859e+03 2.441957e+03 6.079077e+03
         vertex 1.000000e+04 2.603378e+03 6.597093e+03
         vertex 1.000000e+04 2.441957e+03 6.079077e+03
      endloop
   endfacet
   facet normal 0.000000e+00 9.836198e-01 -1.802555e-01
      outer loop
         vertex 5.154859e+03 2.441957e+03 6.079077e+03
         vertex 1.000000e+04 2.441957e+03 6.079077e+03
         vertex 5.154859e+03 2.344154e+03 5.545380e+03
      endloop
   endfacet
   facet normal 0.000000e+00 9.836198e-01 -1.802555e-01
      outer loop
         vertex 5.154859e+03 2.344154e+03 5.545380e+03
         vertex 1.000000e+04 2.441957e+03 6.079077e+03
         vertex 1.000000e+04 2.344154e+03 5.545380e+03
      endloop
   endfacet
   facet normal 0.000000e+00 9.981756e-01 -6.037840e-02
      outer loop
         vertex 5.154859e+03 2.344154e+03 5.545380e+03
         vertex 1.000000e+04 2.344154e+03 5.545380e+03
         vertex 5.154859e+03 2.311393e+03 5.003785e+03
      endloop
   endfacet
   facet normal 0.000000e+00 9.981756e-01 -6.037840e-02
      outer loop
         vertex 5.154859e+03 2.311393e+03 5.003785e+03
         vertex 1.000000e+04 2.344154e+03 5.545380e+03
         vertex 1.000000e+04 2.311393e+03 5.003785e+03
      endloop
   endfacet
   facet normal -0.000000e+00 9.981756e-01 6.037835e-02
      outer loop
         vertex 5.154859e+03 2.311393e+03 5.003785e+03
         vertex 1.000000e+04 2.311393e+03 5.003785e+03
         vertex 5.154859e+03 2.344154e+03 4.462190e+03
      endloop
   endfacet
   facet normal -0.000000e+00 9.981756e-01 6.037835e-02
      outer loop
         vertex 5.154859e+03 2.344154e+03 4.462190e+03
         vertex 1.000000e+04 2.311393e+03 5.003785e+03
         vertex 1.000000e+04 2.344154e+03 4.462190e+03
      endloop
   endfacet
   facet normal -0.000000e+00 9.836198e-01 1.802556e-01
      outer loop
         vertex 5.154859e+03 2.344154e+03 4.462190e+03
         vertex 1.000000e+04 2.344154e+03 4.462190e+03
         vertex 5.154859e+03 2.441957e+03 3.928493e+03
      endloop
   endfacet
   facet normal -0.000000e+00 9.836198e-01 1.802556e-01
      outer loop
         vertex 5.154859e+03 2.441957e+03 3.928493e+03
         vertex 1.000000e+04 2.344154e+03 4.462190e+03
         vertex 1.000000e+04 2.441957e+03 3.928493e+03
      endloop
   endfacet
   facet normal -0.000000e+00 9.547210e-01 2.975027e-01
      outer loop
         vertex 5.154859e+03 2.441957e+03 3.928493e+03
         vertex 1.000000e+04 2.441957e+03 3.928493e+03
         vertex 5.154859e+03 2.603378e+03 3.410477e+03
      endloop
   endfacet
   facet normal -0.000000e+00 9.547210e-01 2.975027e-01
      outer loop
         vertex 5.154859e+03 2.603378e+03 3.410477e+03
         vertex 1.000000e+04 2.441957e+03 3.928493e+03
         vertex 1.000000e+04 2.603378e+03 3.410477e+03
      endloop
   endfacet
   facet normal -0.000000e+00 9.118999e-01 4.104127e-01
      outer loop
         vertex 5.154859e+03 2.603378e+03 3.410477e+03
         vertex 1.000000e+04 2.603378e+03 3.410477e+03
         vertex 5.154859e+03 2.826061e+03 2.915694e+03
      endloop
   endfacet
   facet normal -0.000000e+00 9.118999e-01 4.104127e-01
      outer loop
         vertex 5.154859e+03 2.826061e+03 2.915694e+03
         vertex 1.000000e+04 2.603378e+03 3.410477e+03
         vertex 1.000000e+04 2.826061e+03 2.915694e+03
      endloop
   endfacet
   facet normal -0.000000e+00 8.557810e-01 5.173383e-01
      outer loop
         vertex 5.154859e+03 2.826061e+03 2.915694e+03
         vertex 1.000000e+04 2.826061e+03 2.915694e+03
         vertex 5.154859e+03 3.106761e+03 2.451360e+03
      endloop
   endfacet
   facet normal -0.000000e+00 8.557810e-01 5.173383e-01
      outer loop
         vertex 5.154859e+03 3.106761e+03 2.451360e+03
         vertex 1.000000e+04 2.826061e+03 2.915694e+03
         vertex 1.000000e+04 3.106761e+03 2.451360e+03
      endloop
   endfacet
   facet normal -0.000000e+00 7.871838e-01 6.167185e-01
      outer loop
         vertex 5.154859e+03 3.106761e+03 2.451360e+03
         vertex 1.000000e+04 3.106761e+03 2.451360e+03
         vertex 5.154859e+03 3.441383e+03 2.024246e+03
      endloop
   endfacet
   facet normal -0.000000e+00 7.871838e-01 6.167185e-01
      outer loop
         vertex 5.154859e+03 3.441383e+03 2.024246e+03
         vertex 1.000000e+04 3.106761e+03 2.451360e+03
         vertex 1.000000e+04 3.441383e+03 2.024246e+03
      endloop
   endfacet
   facet normal -0.000000e+00 7.071068e-01 7.071068e-01
      outer loop
         vertex 5.154859e+03 3.441383e+03 2.024246e+03
         vertex 1.000000e+04 3.441383e+03 2.024246e+03
         vertex 5.154859e+03 3.825048e+03 1.640581e+03
      endloop
   endfacet
   facet normal -0.000000e+00 7.071068e-01 7.071068e-01
      outer loop
         vertex 5.154859e+03 3.825048e+03 1.640581e+03
         vertex 1.000000e+04 3.441383e+03 2.024246e+03
         vertex 1.000000e+04 3.825048e+03 1.640581e+03
      endloop
   endfacet
   facet normal -0.000000e+00 6.167192e-01 7.871832e-01
      outer loop
         vertex 5.154859e+03 3.825048e+03 1.640581e+03
         vertex 1.000000e+04 3.825048e+03 1.640581e+03
         vertex 5.154859e+03 4.252162e+03 1.305959e+03
      endloop
   endfacet
   facet normal -0.000000e+00 6.167192e-01 7.871832e-01
      outer loop
         vertex 5.154859e+03 4.252162e+03 1.305959e+03
         vertex 1.000000e+04 3.825048e+03 1.640581e+03
         vertex 1.000000e+04 4.252162e+03 1.305959e+03
      endloop
   endfacet
   facet normal -0.000000e+00 5.173366e-01 8.557820e-01
      outer loop
         vertex 5.154859e+03 4.252162e+03 1.305959e+03
         vertex 1.000000e+04 4.252162e+03 1.305959e+03
         vertex 5.154859e+03 4.716496e+03 1.025260e+03
      endloop
   endfacet
   facet normal -0.000000e+00 5.173366e-01 8.557820e-01
      outer loop
         vertex 5.154859e+03 4.716496e+03 1.025260e+03
         vertex 1.000000e+04 4.252162e+03 1.305959e+03
         vertex 1.000000e+04 4.716496e+03 1.025260e+03
      endloop
   endfacet
   facet normal -0.000000e+00 4.104134e-01 9.118996e-01
      outer loop
         vertex 5.154859e+03 4.716496e+03 1.025260e+03
         vertex 1.000000e+04 4.716496e+03 1.025260e+03
         vertex 5.154859e+03 5.211278e+03 8.025761e+02
      endloop
   endfacet
   facet normal -0.000000e+00 4.104134e-01 9.118996e-01
      outer loop
         vertex 5.154859e+03 5.211278e+03 8.025761e+02
         vertex 1.000000e+04 4.716496e+03 1.025260e+03
         vertex 1.000000e+04 5.211278e+03 8.025761e+02
      endloop
   endfacet
   facet normal -0.000000e+00 2.975035e-01 9.547207e-01
      outer loop
         vertex 5.154859e+03 5.211278e+03 8.025761e+02
         vertex 1.000000e+04 5.211278e+03 8.025761e+02
         vertex 5.154859e+03 5.729295e+03 6.411552e+02
      endloop
   endfacet
   facet normal -0.000000e+00 2.975035e-01 9.547207e-01
      outer loop
         vertex 5.154859e+03 5.729295e+03 6.411552e+02
         vertex 1.000000e+04 5.211278e+03 8.025761e+02
         vertex 1.000000e+04 5.729295e+03 6.411552e+02
      endloop
   endfacet
   facet normal -0.000000e+00 1.802541e-01 9.836201e-01
      outer loop
         vertex 5.154859e+03 5.729295e+03 6.411552e+02
         vertex 1.000000e+04 5.729295e+03 6.411552e+02
         vertex 5.154859e+03 6.262992e+03 5.433521e+02
      endloop
   endfacet
   facet normal -0.000000e+00 1.802541e-01 9.836201e-01
      outer loop
         vertex 5.154859e+03 6.262992e+03 5.433521e+02
         vertex 1.000000e+04 5.729295e+03 6.411552e+02
         vertex 1.000000e+04 6.262992e+03 5.433521e+02
      endloop
   endfacet
   facet normal -0.000000e+00 6.037884e-02 9.981755e-01
      outer loop
         vertex 5.154859e+03 6.262992e+03 5.433521e+02
         vertex 1.000000e+04 6.262992e+03 5.433521e+02
         vertex 5.154859e+03 6.804587e+03 5.105915e+02
      endloop
   endfacet
   facet normal -0.000000e+00 6.037884e-02 9.981755e-01
      outer loop
         vertex 5.154859e+03 6.804587e+03 5.105915e+02
         vertex 1.000000e+04 6.262992e+03 5.433521e+02
         vertex 1.000000e+04 6.804587e+03 5.105915e+02
      endloop
   endfacet
   facet normal 0.000000e+00 0.000000e+00 -1.000000e+00
      outer loop
         vertex 5.154859e+03 6.804587e+03 9.496979e+03
         vertex 5.154859e+03 1.000000e+04 9.496979e+03
         vertex 1.000000e+04 6.804587e+03 9.496979e+03
      endloop
   endfacet
   facet normal 0.000000e+00 0.000000e+00 -1.000000e+00
      outer loop
         vertex 1.000000e+04 6.804587e+03 9.496979e+03
         vertex 5.154859e+03 1.000000e+04 9.496979e+03
         vertex 1.000000e+04 1.000000e+04 9.496979e+03
      endloop
   endfacet
   facet normal 1.000000e+00 0.000000e+00 0.000000e+00
      outer loop
         vertex 5.154859e+03 4.252162e+03 1.305959e+03
         vertex 5.154859e+03 6.804587e+03 9.496979e+03
         vertex 5.154859e+03 6.262992e+03 9.464218e+03
      endloop
   endfacet
   facet normal 1.000000e+00 -0.000000e+00 0.000000e+00
      outer loop
         vertex 5.154859e+03 4.252162e+03 1.305959e+03
         vertex 5.154859e+03 4.716496e+03 1.025260e+03
         vertex 5.154859e+03 6.804587e+03 9.496979e+03
      endloop
   endfacet
   facet normal 1.000000e+00 0.000000e+00 0.000000e+00
      outer loop
         vertex 5.154859e+03 6.804587e+03 9.496979e+03
         vertex 5.154859e+03 4.716496e+03 1.025260e+03
         vertex 5.154859e+03 5.211278e+03 8.025761e+02
      endloop
   endfacet
   facet normal 1.000000e+00 0.000000e+00 0.000000e+00
      outer loop
         vertex 5.154859e+03 6.804587e+03 9.496979e+03
         vertex 5.154859e+03 5.211278e+03 8.025761e+02
         vertex 5.154859e+03 5.729295e+03 6.411552e+02
      endloop
   endfacet
   facet normal 1.000000e+00 0.000000e+00 0.000000e+00
      outer loop
         vertex 5.154859e+03 6.262992e+03 9.464218e+03
         vertex 5.154859e+03 5.729295e+03 9.366415e+03
         vertex 5.154859e+03 4.252162e+03 1.305959e+03
      endloop
   endfacet
   facet normal 1.000000e+00 0.000000e+00 0.000000e+00
      outer loop
         vertex 5.154859e+03 4.252162e+03 1.305959e+03
         vertex 5.154859e+03 5.729295e+03 9.366415e+03
         vertex 5.154859e+03 5.211278e+03 9.204994e+03
      endloop
   endfacet
   facet normal 1.000000e+00 0.000000e+00 0.000000e+00
      outer loop
         vertex 5.154859e+03 4.252162e+03 1.305959e+03
         vertex 5.154859e+03 5.211278e+03 9.204994e+03
         vertex 5.154859e+03 4.716496e+03 8.982310e+03
      endloop
   endfacet
   facet normal 1.000000e+00 0.000000e+00 -0.000000e+00
      outer loop
         vertex 5.154859e+03 1.000000e+04 5.105915e+02
         vertex 5.154859e+03 1.000000e+04 9.496979e+03
         vertex 5.154859e+03 6.804587e+03 5.105915e+02
      endloop
   endfacet
   facet normal 1.000000e+00 0.000000e+00 0.000000e+00
      outer loop
         vertex 5.154859e+03 6.804587e+03 5.105915e+02
         vertex 5.154859e+03 1.000000e+04 9.496979e+03
         vertex 5.154859e+03 6.804587e+03 9.496979e+03
      endloop
   endfacet
   facet normal 1.000000e+00 0.000000e+00 -0.000000e+00
      outer loop
         vertex 5.154859e+03 6.804587e+03 5.105915e+02
         vertex 5.154859e+03 6.804587e+03 9.496979e+03
         vertex 5.154859e+03 6.262992e+03 5.433521e+02
      endloop
   endfacet
   facet normal 1.000000e+00 0.000000e+00 -0.000000e+00
      outer loop
         vertex 5.154859e+03 6.262992e+03 5.433521e+02
         vertex 5.154859e+03 6.804587e+03 9.496979e+03
         vertex 5.154859e+03 5.729295e+03 6.411552e+02
      endloop
   endfacet
   facet normal 1.000000e+00 0.000000e+00 0.000000e+00
      outer loop
         vertex 5.154859e+03 4.716496e+03 8.982310e+03
         vertex 5.154859e+03 4.252162e+03 8.701611e+03
         vertex 5.154859e+03 4.252162e+03 1.305959e+03
      endloop
   endfacet
   facet normal 1.000000e+00 0.000000e+00 -0.000000e+00
      outer loop
         vertex 5.154859e+03 4.252162e+03 1.305959e+03
         vertex 5.154859e+03 4.252162e+03 8.701611e+03
         vertex 5.154859e+03 3.825048e+03 8.366989e+03
      endloop
   endfacet
   facet normal 1.000000e+00 0.000000e+00 0.000000e+00
      outer loop
         vertex 5.154859e+03 4.252162e+03 1.305959e+03
         vertex 5.154859e+03 3.825048e+03 8.366989e+03
         vertex 5.154859e+03 3.441383e+03 7.983324e+03
      endloop
   endfacet
   facet normal 1.000000e+00 -0.000000e+00 0.000000e+00
      outer loop
         vertex 5.154859e+03 2.441957e+03 3.928493e+03
         vertex 5.154859e+03 2.603378e+03 3.410477e+03
         vertex 5.154859e+03 3.441383e+03 7.983324e+03
      endloop
   endfacet
   facet normal 1.000000e+00 0.000000e+00 0.000000e+00
      outer loop
         vertex 5.154859e+03 3.441383e+03 7.983324e+03
         vertex 5.154859e+03 2.603378e+03 3.410477e+03
         vertex 5.154859e+03 2.826061e+03 2.915694e+03
      endloop
   endfacet
   facet normal 1.000000e+00 0.000000e+00 0.000000e+00
      outer loop
         vertex 5.154859e+03 3.441383e+03 7.983324e+03
         vertex 5.154859e+03 2.826061e+03 2.915694e+03
         vertex 5.154859e+03 3.106761e+03 2.451360e+03
      endloop
   endfacet
   facet normal 1.000000e+00 -0.000000e+00 0.000000e+00
      outer loop
         vertex 5.154859e+03 3.106761e+03 7.556210e+03
         vertex 5.154859e+03 2.311393e+03 5.003785e+03
         vertex 5.154859e+03 3.441383e+03 7.983324e+03
      endloop
   endfacet
   facet normal 1.000000e+00 0.000000e+00 0.000000e+00
      outer loop
         vertex 5.154859e+03 3.441383e+03 7.983324e+03
         vertex 5.154859e+03 2.311393e+03 5.003785e+03
         vertex 5.154859e+03 2.344154e+03 4.462190e+03
      endloop
   endfacet
   facet normal 1.000000e+00 0.000000e+00 0.000000e+00
      outer loop
         vertex 5.154859e+03 3.441383e+03 7.983324e+03
         vertex 5.154859e+03 2.344154e+03 4.462190e+03
         vertex 5.154859e+03 2.441957e+03 3.928493e+03
      endloop
   endfacet
   facet normal 1.000000e+00 0.000000e+00 0.000000e+00
      outer loop
         vertex 5.154859e+03 3.106761e+03 7.556210e+03
         vertex 5.154859e+03 2.826061e+03 7.091876e+03
         vertex 5.154859e+03 2.311393e+03 5.003785e+03
      endloop
   endfacet
   facet normal 1.000000e+00 0.000000e+00 0.000000e+00
      outer loop
         vertex 5.154859e+03 2.311393e+03 5.003785e+03
         vertex 5.154859e+03 2.826061e+03 7.091876e+03
         vertex 5.154859e+03 2.603378e+03 6.597093e+03
      endloop
   endfacet
   facet normal 1.000000e+00 0.000000e+00 0.000000e+00
      outer loop
         vertex 5.154859e+03 2.311393e+03 5.003785e+03
         vertex 5.154859e+03 2.603378e+03 6.597093e+03
         vertex 5.154859e+03 2.344154e+03 5.545380e+03
      endloop
   endfacet
   facet normal 1.000000e+00 0.000000e+00 0.000000e+00
      outer loop
         vertex 5.154859e+03 2.344154e+03 5.545380e+03
         vertex 5.154859e+03 2.603378e+03 6.597093e+03
         vertex 5.154859e+03 2.441957e+03 6.079077e+03
      endloop
   endfacet
   facet normal 1.000000e+00 -0.000000e+00 0.000000e+00
      outer loop
         vertex 5.154859e+03 3.106761e+03 2.451360e+03
         vertex 5.154859e+03 3.441383e+03 2.024246e+03
         vertex 5.154859e+03 3.441383e+03 7.983324e+03
      endloop
   endfacet
   facet normal 1.000000e+00 0.000000e+00 0.000000e+00
      outer loop
         vertex 5.154859e+03 3.441383e+03 7.983324e+03
         vertex 5.154859e+03 3.441383e+03 2.024246e+03
         vertex 5.154859e+03 3.825048e+03 1.640581e+03
      endloop
   endfacet
   facet normal 1.000000e+00 0.000000e+00 0.000000e+00
      outer loop
         vertex 5.154859e+03 3.441383e+03 7.983324e+03
         vertex 5.154859e+03 3.825048e+03 1.640581e+03
         vertex 5.154859e+03 4.252162e+03 1.305959e+03
      endloop
   endfacet
endsolid