solid 404
   facet normal -0.000000e+00 1.000000e+00 0.000000e+00
      outer loop
         vertex 0.000000e+00 1.000000e+04 1.000000e+04
         vertex 8.775866e+03 1.000000e+04 1.000000e+04
         vertex 2.928539e+03 1.000000e+04 8.282065e+03
      endloop
   endfacet
   facet normal 0.000000e+00 1.000000e+00 0.000000e+00
      outer loop
         vertex 2.928539e+03 1.000000e+04 6.212132e+03
         vertex 1.506302e+03 1.000000e+04 2.365392e+03
         vertex 1.733462e+03 1.000000e+04 6.212132e+03
      endloop
   endfacet
   facet normal 0.000000e+00 1.000000e+00 0.000000e+00
      outer loop
         vertex 1.733462e+03 1.000000e+04 6.212132e+03
         vertex 1.506302e+03 1.000000e+04 2.365392e+03
         vertex 1.135924e+03 1.000000e+04 7.247098e+03
      endloop
   endfacet
   facet normal 0.000000e+00 1.000000e+00 0.000000e+00
      outer loop
         vertex 1.506302e+03 1.000000e+04 2.365392e+03
         vertex 0.000000e+00 1.000000e+04 2.365392e+03
         vertex 1.135924e+03 1.000000e+04 7.247098e+03
      endloop
   endfacet
   facet normal 0.000000e+00 1.000000e+00 0.000000e+00
      outer loop
         vertex 1.135924e+03 1.000000e+04 7.247098e+03
         vertex 0.000000e+00 1.000000e+04 2.365392e+03
         vertex 0.000000e+00 1.000000e+04 1.000000e+04
      endloop
   endfacet
   facet normal 0.000000e+00 1.000000e+00 -0.000000e+00
      outer loop
         vertex 1.135924e+03 1.000000e+04 7.247098e+03
         vertex 0.000000e+00 1.000000e+04 1.000000e+04
         vertex 1.733462e+03 1.000000e+04 8.282065e+03
      endloop
   endfacet
   facet normal 0.000000e+00 1.000000e+00 -0.000000e+00
      outer loop
         vertex 1.733462e+03 1.000000e+04 8.282065e+03
         vertex 0.000000e+00 1.000000e+04 1.000000e+04
         vertex 2.928539e+03 1.000000e+04 8.282065e+03
      endloop
   endfacet
   facet normal 0.000000e+00 1.000000e+00 0.000000e+00
      outer loop
         vertex 1.506302e+03 1.000000e+04 0.000000e+00
         vertex 1.506302e+03 1.000000e+04 2.365392e+03
         vertex 8.775866e+03 1.000000e+04 0.000000e+00
      endloop
   endfacet
   facet normal 0.000000e+00 1.000000e+00 0.000000e+00
      outer loop
         vertex 8.775866e+03 1.000000e+04 0.000000e+00
         vertex 1.506302e+03 1.000000e+04 2.365392e+03
         vertex 2.928539e+03 1.000000e+04 6.212132e+03
      endloop
   endfacet
   facet normal 0.000000e+00 1.000000e+00 -0.000000e+00
      outer loop
         vertex 8.775866e+03 1.000000e+04 0.000000e+00
         vertex 2.928539e+03 1.000000e+04 6.212132e+03
         vertex 8.775866e+03 1.000000e+04 1.000000e+04
      endloop
   endfacet
   facet normal 0.000000e+00 1.000000e+00 0.000000e+00
      outer loop
         vertex 8.775866e+03 1.000000e+04 1.000000e+04
         vertex 2.928539e+03 1.000000e+04 6.212132e+03
         vertex 3.526077e+03 1.000000e+04 7.247098e+03
      endloop
   endfacet
   facet normal 0.000000e+00 1.000000e+00 0.000000e+00
      outer loop
         vertex 8.775866e+03 1.000000e+04 1.000000e+04
         vertex 3.526077e+03 1.000000e+04 7.247098e+03
         vertex 2.928539e+03 1.000000e+04 8.282065e+03
      endloop
   endfacet
   facet normal 0.000000e+00 0.000000e+00 -1.000000e+00
      outer loop
         vertex 3.404187e+03 3.226464e-13 0.000000e+00
         vertex 1.506302e+03 3.226464e-13 0.000000e+00
         vertex 3.404187e+03 2.418561e+03 0.000000e+00
      endloop
   endfacet
   facet normal -0.000000e+00 0.000000e+00 -1.000000e+00
      outer loop
         vertex 3.404187e+03 2.418561e+03 0.000000e+00
         vertex 1.506302e+03 3.226464e-13 0.000000e+00
         vertex 1.506302e+03 1.000000e+04 0.000000e+00
      endloop
   endfacet
   facet normal 0.000000e+00 0.000000e+00 -1.000000e+00
      outer loop
         vertex 1.506302e+03 1.000000e+04 0.000000e+00
         vertex 8.775866e+03 1.000000e+04 0.000000e+00
         vertex 3.404187e+03 2.418561e+03 0.000000e+00
      endloop
   endfacet
   facet normal 0.000000e+00 0.000000e+00 -1.000000e+00
      outer loop
         vertex 3.404187e+03 2.418561e+03 0.000000e+00
         vertex 8.775866e+03 1.000000e+04 0.000000e+00
         vertex 1.000000e+04 8.562247e+03 0.000000e+00
      endloop
   endfacet
   facet normal 0.000000e+00 0.000000e+00 -1.000000e+00
      outer loop
         vertex 3.404187e+03 2.418561e+03 0.000000e+00
         vertex 1.000000e+04 8.562247e+03 0.000000e+00
         vertex 1.000000e+04 2.418561e+03 0.000000e+00
      endloop
   endfacet
   facet normal 0.000000e+00 -1.000000e+00 1.224647e-16
      outer loop
         vertex 1.506302e+03 -2.896770e-13 0.000000e+00
         vertex 3.404187e+03 -2.896770e-13 0.000000e+00
         vertex 1.506302e+03 0.000000e+00 2.365392e+03
      endloop
   endfacet
   facet normal 8.870715e-24 -1.000000e+00 1.224647e-16
      outer loop
         vertex 1.506302e+03 0.000000e+00 2.365392e+03
         vertex 3.404187e+03 -2.896770e-13 0.000000e+00
         vertex 3.404187e+03 9.349698e-13 1.000000e+04
      endloop
   endfacet
   facet normal 0.000000e+00 -1.000000e+00 1.224647e-16
      outer loop
         vertex 1.506302e+03 0.000000e+00 2.365392e+03
         vertex 3.404187e+03 9.349698e-13 1.000000e+04
         vertex 0.000000e+00 0.000000e+00 2.365392e+03
      endloop
   endfacet
   facet normal 0.000000e+00 -1.000000e+00 1.224647e-16
      outer loop
         vertex 0.000000e+00 0.000000e+00 2.365392e+03
         vertex 3.404187e+03 9.349698e-13 1.000000e+04
         vertex 0.000000e+00 9.349698e-13 1.000000e+04
      endloop
   endfacet
   facet normal -0.000000e+00 1.224647e-16 1.000000e+00
      outer loop
         vertex 8.409403e+03 7.193778e+03 1.000000e+04
         vertex 1.000000e+04 7.193778e+03 1.000000e+04
         vertex 1.000000e+04 8.562247e+03 1.000000e+04
      endloop
   endfacet
   facet normal 0.000000e+00 1.224647e-16 1.000000e+00
      outer loop
         vertex 1.000000e+04 1.136261e+03 1.000000e+04
         vertex 1.000000e+04 5.305060e+03 1.000000e+04
         vertex 3.404187e+03 1.136261e+03 1.000000e+04
      endloop
   endfacet
   facet normal 0.000000e+00 1.224647e-16 1.000000e+00
      outer loop
         vertex 3.404187e+03 1.136261e+03 1.000000e+04
         vertex 1.000000e+04 5.305060e+03 1.000000e+04
         vertex 8.409403e+03 5.305060e+03 1.000000e+04
      endloop
   endfacet
   facet normal 1.051403e-23 1.224647e-16 1.000000e+00
      outer loop
         vertex 3.404187e+03 1.136261e+03 1.000000e+04
         vertex 8.409403e+03 5.305060e+03 1.000000e+04
         vertex 8.409403e+03 7.193778e+03 1.000000e+04
      endloop
   endfacet
   facet normal 8.426234e-24 1.224647e-16 1.000000e+00
      outer loop
         vertex 1.000000e+04 8.562247e+03 1.000000e+04
         vertex 8.775866e+03 1.000000e+04 1.000000e+04
         vertex 8.409403e+03 7.193778e+03 1.000000e+04
      endloop
   endfacet
   facet normal 0.000000e+00 1.224647e-16 1.000000e+00
      outer loop
         vertex 8.409403e+03 7.193778e+03 1.000000e+04
         vertex 8.775866e+03 1.000000e+04 1.000000e+04
         vertex 0.000000e+00 1.000000e+04 1.000000e+04
      endloop
   endfacet
   facet normal 3.963928e-24 1.224647e-16 1.000000e+00
      outer loop
         vertex 8.409403e+03 7.193778e+03 1.000000e+04
         vertex 0.000000e+00 1.000000e+04 1.000000e+04
         vertex 3.404187e+03 1.136261e+03 1.000000e+04
      endloop
   endfacet
   facet normal -5.482729e-24 1.224647e-16 1.000000e+00
      outer loop
         vertex 3.404187e+03 1.136261e+03 1.000000e+04
         vertex 0.000000e+00 1.000000e+04 1.000000e+04
         vertex 0.000000e+00 3.226464e-13 1.000000e+04
      endloop
   endfacet
   facet normal 0.000000e+00 1.224647e-16 1.000000e+00
      outer loop
         vertex 3.404187e+03 1.136261e+03 1.000000e+04
         vertex 0.000000e+00 3.226464e-13 1.000000e+04
         vertex 3.404187e+03 3.226464e-13 1.000000e+04
      endloop
   endfacet
   facet normal -1.000000e+00 -3.749399e-33 -4.132100e-49
      outer loop
         vertex 3.749399e-29 3.226464e-13 1.000000e+04
         vertex 0.000000e+00 1.000000e+04 1.000000e+04
         vertex 3.749399e-29 1.164033e-12 2.365392e+03
      endloop
   endfacet
   facet normal -1.000000e+00 -3.749399e-33 0.000000e+00
      outer loop
         vertex 3.749399e-29 1.164033e-12 2.365392e+03
         vertex 0.000000e+00 1.000000e+04 1.000000e+04
         vertex 0.000000e+00 1.000000e+04 2.365392e+03
      endloop
   endfacet
   facet normal 1.000000e+00 0.000000e+00 0.000000e+00
      outer loop
         vertex 1.000000e+04 8.562247e+03 1.000000e+04
         vertex 1.000000e+04 7.193778e+03 1.000000e+04
         vertex 1.000000e+04 7.193778e+03 8.654834e+03
      endloop
   endfacet
   facet normal 1.000000e+00 0.000000e+00 0.000000e+00
      outer loop
         vertex 1.000000e+04 5.305060e+03 1.000000e+04
         vertex 1.000000e+04 1.136261e+03 1.000000e+04
         vertex 1.000000e+04 5.305060e+03 8.654834e+03
      endloop
   endfacet
   facet normal 1.000000e+00 0.000000e+00 0.000000e+00
      outer loop
         vertex 1.000000e+04 5.305060e+03 8.654834e+03
         vertex 1.000000e+04 1.136261e+03 1.000000e+04
         vertex 1.000000e+04 2.418561e+03 0.000000e+00
      endloop
   endfacet
   facet normal 1.000000e+00 -0.000000e+00 0.000000e+00
      outer loop
         vertex 1.000000e+04 5.305060e+03 8.654834e+03
         vertex 1.000000e+04 2.418561e+03 0.000000e+00
         vertex 1.000000e+04 7.193778e+03 8.654834e+03
      endloop
   endfacet
   facet normal 1.000000e+00 0.000000e+00 0.000000e+00
      outer loop
         vertex 1.000000e+04 7.193778e+03 8.654834e+03
         vertex 1.000000e+04 2.418561e+03 0.000000e+00
         vertex 1.000000e+04 8.562247e+03 0.000000e+00
      endloop
   endfacet
   facet normal 1.000000e+00 -0.000000e+00 0.000000e+00
      outer loop
         vertex 1.000000e+04 7.193778e+03 8.654834e+03
         vertex 1.000000e+04 8.562247e+03 0.000000e+00
         vertex 1.000000e+04 8.562247e+03 1.000000e+04
      endloop
   endfacet
   facet normal 0.000000e+00 -1.000000e+00 0.000000e+00
      outer loop
         vertex 8.409403e+03 7.193778e+03 1.000000e+04
         vertex 8.409403e+03 7.193778e+03 8.654834e+03
         vertex 1.000000e+04 7.193778e+03 1.000000e+04
      endloop
   endfacet
   facet normal 0.000000e+00 -1.000000e+00 -0.000000e+00
      outer loop
         vertex 1.000000e+04 7.193778e+03 1.000000e+04
         vertex 8.409403e+03 7.193778e+03 8.654834e+03
         vertex 1.000000e+04 7.193778e+03 8.654834e+03
      endloop
   endfacet
   facet normal -0.000000e+00 0.000000e+00 1.000000e+00
      outer loop
         vertex 8.409403e+03 7.193778e+03 8.654834e+03
         vertex 8.409403e+03 5.305060e+03 8.654834e+03
         vertex 1.000000e+04 7.193778e+03 8.654834e+03
      endloop
   endfacet
   facet normal 0.000000e+00 0.000000e+00 1.000000e+00
      outer loop
         vertex 1.000000e+04 7.193778e+03 8.654834e+03
         vertex 8.409403e+03 5.305060e+03 8.654834e+03
         vertex 1.000000e+04 5.305060e+03 8.654834e+03
      endloop
   endfacet
   facet normal 0.000000e+00 1.000000e+00 0.000000e+00
      outer loop
         vertex 8.409403e+03 5.305060e+03 8.654834e+03
         vertex 8.409403e+03 5.305060e+03 1.000000e+04
         vertex 1.000000e+04 5.305060e+03 8.654834e+03
      endloop
   endfacet
   facet normal 0.000000e+00 1.000000e+00 -0.000000e+00
      outer loop
         vertex 1.000000e+04 5.305060e+03 8.654834e+03
         vertex 8.409403e+03 5.305060e+03 1.000000e+04
         vertex 1.000000e+04 5.305060e+03 1.000000e+04
      endloop
   endfacet
   facet normal 1.000000e+00 -0.000000e+00 0.000000e+00
      outer loop
         vertex 8.409403e+03 5.305060e+03 1.000000e+04
         vertex 8.409403e+03 5.305060e+03 8.654834e+03
         vertex 8.409403e+03 7.193778e+03 1.000000e+04
      endloop
   endfacet
   facet normal 1.000000e+00 0.000000e+00 0.000000e+00
      outer loop
         vertex 8.409403e+03 7.193778e+03 1.000000e+04
         vertex 8.409403e+03 5.305060e+03 8.654834e+03
         vertex 8.409403e+03 7.193778e+03 8.654834e+03
      endloop
   endfacet
   facet normal 7.614047e-01 6.482768e-01 0.000000e+00
      outer loop
         vertex 8.775866e+03 1.000000e+04 1.000000e+04
         vertex 1.000000e+04 8.562247e+03 1.000000e+04
         vertex 8.775866e+03 1.000000e+04 0.000000e+00
      endloop
   endfacet
   facet normal 7.614047e-01 6.482768e-01 0.000000e+00
      outer loop
         vertex 8.775866e+03 1.000000e+04 0.000000e+00
         vertex 1.000000e+04 8.562247e+03 1.000000e+04
         vertex 1.000000e+04 8.562247e+03 0.000000e+00
      endloop
   endfacet
   facet normal 8.660254e-01 -0.000000e+00 5.000000e-01
      outer loop
         vertex 1.135924e+03 6.883206e+03 7.247098e+03
         vertex 1.733462e+03 6.883206e+03 6.212132e+03
         vertex 1.135924e+03 1.000000e+04 7.247098e+03
      endloop
   endfacet
   facet normal 8.660254e-01 0.000000e+00 5.000000e-01
      outer loop
         vertex 1.135924e+03 1.000000e+04 7.247098e+03
         vertex 1.733462e+03 6.883206e+03 6.212132e+03
         vertex 1.733462e+03 1.000000e+04 6.212132e+03
      endloop
   endfacet
   facet normal 0.000000e+00 0.000000e+00 1.000000e+00
      outer loop
         vertex 1.733462e+03 6.883206e+03 6.212132e+03
         vertex 2.928539e+03 6.883206e+03 6.212132e+03
         vertex 1.733462e+03 1.000000e+04 6.212132e+03
      endloop
   endfacet
   facet normal -0.000000e+00 0.000000e+00 1.000000e+00
      outer loop
         vertex 1.733462e+03 1.000000e+04 6.212132e+03
         vertex 2.928539e+03 6.883206e+03 6.212132e+03
         vertex 2.928539e+03 1.000000e+04 6.212132e+03
      endloop
   endfacet
   facet normal -8.660254e-01 0.000000e+00 5.000000e-01
      outer loop
         vertex 2.928539e+03 6.883206e+03 6.212132e+03
         vertex 3.526077e+03 6.883206e+03 7.247098e+03
         vertex 2.928539e+03 1.000000e+04 6.212132e+03
      endloop
   endfacet
   facet normal -8.660254e-01 0.000000e+00 5.000000e-01
      outer loop
         vertex 2.928539e+03 1.000000e+04 6.212132e+03
         vertex 3.526077e+03 6.883206e+03 7.247098e+03
         vertex 3.526077e+03 1.000000e+04 7.247098e+03
      endloop
   endfacet
   facet normal -8.660255e-01 0.000000e+00 -4.999999e-01
      outer loop
         vertex 3.526077e+03 6.883206e+03 7.247098e+03
         vertex 2.928539e+03 6.883206e+03 8.282065e+03
         vertex 3.526077e+03 1.000000e+04 7.247098e+03
      endloop
   endfacet
   facet normal -8.660255e-01 0.000000e+00 -4.999999e-01
      outer loop
         vertex 3.526077e+03 1.000000e+04 7.247098e+03
         vertex 2.928539e+03 6.883206e+03 8.282065e+03
         vertex 2.928539e+03 1.000000e+04 8.282065e+03
      endloop
   endfacet
   facet normal 0.000000e+00 0.000000e+00 -1.000000e+00
      outer loop
         vertex 2.928539e+03 6.883206e+03 8.282065e+03
         vertex 1.733462e+03 6.883206e+03 8.282065e+03
         vertex 2.928539e+03 1.000000e+04 8.282065e+03
      endloop
   endfacet
   facet normal -0.000000e+00 0.000000e+00 -1.000000e+00
      outer loop
         vertex 2.928539e+03 1.000000e+04 8.282065e+03
         vertex 1.733462e+03 6.883206e+03 8.282065e+03
         vertex 1.733462e+03 1.000000e+04 8.282065e+03
      endloop
   endfacet
   facet normal 8.660254e-01 0.000000e+00 -4.999999e-01
      outer loop
         vertex 1.733462e+03 6.883206e+03 8.282065e+03
         vertex 1.135924e+03 6.883206e+03 7.247098e+03
         vertex 1.733462e+03 1.000000e+04 8.282065e+03
      endloop
   endfacet
   facet normal 8.660254e-01 0.000000e+00 -4.999999e-01
      outer loop
         vertex 1.733462e+03 1.000000e+04 8.282065e+03
         vertex 1.135924e+03 6.883206e+03 7.247098e+03
         vertex 1.135924e+03 1.000000e+04 7.247098e+03
      endloop
   endfacet
   facet normal -0.000000e+00 1.000000e+00 0.000000e+00
      outer loop
         vertex 1.733462e+03 6.883206e+03 8.282065e+03
         vertex 2.928539e+03 6.883206e+03 8.282065e+03
         vertex 1.135924e+03 6.883206e+03 7.247098e+03
      endloop
   endfacet
   facet normal 0.000000e+00 1.000000e+00 0.000000e+00
      outer loop
         vertex 1.135924e+03 6.883206e+03 7.247098e+03
         vertex 2.928539e+03 6.883206e+03 8.282065e+03
         vertex 3.526077e+03 6.883206e+03 7.247098e+03
      endloop
   endfacet
   facet normal -0.000000e+00 1.000000e+00 0.000000e+00
      outer loop
         vertex 1.135924e+03 6.883206e+03 7.247098e+03
         vertex 3.526077e+03 6.883206e+03 7.247098e+03
         vertex 1.733462e+03 6.883206e+03 6.212132e+03
      endloop
   endfacet
   facet normal 0.000000e+00 1.000000e+00 0.000000e+00
      outer loop
         vertex 1.733462e+03 6.883206e+03 6.212132e+03
         vertex 3.526077e+03 6.883206e+03 7.247098e+03
         vertex 2.928539e+03 6.883206e+03 6.212132e+03
      endloop
   endfacet
   facet normal 0.000000e+00 0.000000e+00 -1.000000e+00
      outer loop
         vertex 0.000000e+00 1.000000e+04 2.365392e+03
         vertex 1.506302e+03 1.000000e+04 2.365392e+03
         vertex 0.000000e+00 3.226464e-13 2.365392e+03
      endloop
   endfacet
   facet normal 0.000000e+00 0.000000e+00 -1.000000e+00
      outer loop
         vertex 0.000000e+00 3.226464e-13 2.365392e+03
         vertex 1.506302e+03 1.000000e+04 2.365392e+03
         vertex 1.506302e+03 3.226464e-13 2.365392e+03
      endloop
   endfacet
   facet normal -1.000000e+00 -0.000000e+00 -0.000000e+00
      outer loop
         vertex 1.506302e+03 1.000000e+04 2.365392e+03
         vertex 1.506302e+03 1.000000e+04 0.000000e+00
         vertex 1.506302e+03 4.674849e-13 2.365392e+03
      endloop
   endfacet
   facet normal -1.000000e+00 0.000000e+00 -0.000000e+00
      outer loop
         vertex 1.506302e+03 4.674849e-13 2.365392e+03
         vertex 1.506302e+03 1.000000e+04 0.000000e+00
         vertex 1.506302e+03 3.226464e-13 0.000000e+00
      endloop
   endfacet
   facet normal 7.788054e-18 -9.918786e-01 -1.271886e-01
      outer loop
         vertex 3.404187e+03 1.136261e+03 1.000000e+04
         vertex 3.404187e+03 2.418561e+03 0.000000e+00
         vertex 1.000000e+04 1.136261e+03 1.000000e+04
      endloop
   endfacet
   facet normal 0.000000e+00 -9.918786e-01 -1.271886e-01
      outer loop
         vertex 1.000000e+04 1.136261e+03 1.000000e+04
         vertex 3.404187e+03 2.418561e+03 0.000000e+00
         vertex 1.000000e+04 2.418561e+03 0.000000e+00
      endloop
   endfacet
   facet normal 1.000000e+00 0.000000e+00 0.000000e+00
      outer loop
         vertex 3.404187e+03 2.418561e+03 0.000000e+00
         vertex 3.404187e+03 1.136261e+03 1.000000e+04
         vertex 3.404187e+03 3.226464e-13 0.000000e+00
      endloop
   endfacet
   facet normal 1.000000e+00 0.000000e+00 0.000000e+00
      outer loop
         vertex 3.404187e+03 3.226464e-13 0.000000e+00
         vertex 3.404187e+03 1.136261e+03 1.000000e+04
         vertex 3.404187e+03 9.349698e-13 1.000000e+04
      endloop
   endfacet
endsolid