solid 433
   facet normal 1.000000e+00 0.000000e+00 0.000000e+00
      outer loop
         vertex 1.000000e+04 1.160277e+03 1.346294e+03
         vertex 1.000000e+04 0.000000e+00 1.346294e+03
         vertex 1.000000e+04 0.000000e+00 0.000000e+00
      endloop
   endfacet
   facet normal 1.000000e+00 -0.000000e+00 0.000000e+00
      outer loop
         vertex 1.000000e+04 5.430686e+03 6.833744e+03
         vertex 1.000000e+04 7.420696e+03 0.000000e+00
         vertex 1.000000e+04 5.949082e+03 7.731634e+03
      endloop
   endfacet
   facet normal 1.000000e+00 -0.000000e+00 0.000000e+00
      outer loop
         vertex 1.000000e+04 5.949082e+03 7.731634e+03
         vertex 1.000000e+04 7.420696e+03 0.000000e+00
         vertex 1.000000e+04 7.420696e+03 1.000000e+04
      endloop
   endfacet
   facet normal 1.000000e+00 -0.000000e+00 0.000000e+00
      outer loop
         vertex 1.000000e+04 1.555303e+03 2.431619e+03
         vertex 1.000000e+04 1.631051e+03 2.355872e+03
         vertex 1.000000e+04 4.393892e+03 6.833744e+03
      endloop
   endfacet
   facet normal 1.000000e+00 -0.000000e+00 0.000000e+00
      outer loop
         vertex 1.000000e+04 4.393892e+03 6.833744e+03
         vertex 1.000000e+04 1.631051e+03 2.355872e+03
         vertex 1.000000e+04 5.430686e+03 6.833744e+03
      endloop
   endfacet
   facet normal 1.000000e+00 0.000000e+00 0.000000e+00
      outer loop
         vertex 1.000000e+04 0.000000e+00 1.000000e+04
         vertex 1.000000e+04 0.000000e+00 2.575397e+03
         vertex 1.000000e+04 1.160277e+03 2.575397e+03
      endloop
   endfacet
   facet normal 1.000000e+00 -0.000000e+00 -0.000000e+00
      outer loop
         vertex 1.000000e+04 1.765492e+03 2.067562e+03
         vertex 1.000000e+04 7.420696e+03 0.000000e+00
         vertex 1.000000e+04 1.737767e+03 2.171035e+03
      endloop
   endfacet
   facet normal 1.000000e+00 -0.000000e+00 0.000000e+00
      outer loop
         vertex 1.000000e+04 1.737767e+03 2.171035e+03
         vertex 1.000000e+04 7.420696e+03 0.000000e+00
         vertex 1.000000e+04 5.430686e+03 6.833744e+03
      endloop
   endfacet
   facet normal 1.000000e+00 0.000000e+00 -0.000000e+00
      outer loop
         vertex 1.000000e+04 1.737767e+03 2.171035e+03
         vertex 1.000000e+04 5.430686e+03 6.833744e+03
         vertex 1.000000e+04 1.692494e+03 2.268121e+03
      endloop
   endfacet
   facet normal 1.000000e+00 0.000000e+00 -0.000000e+00
      outer loop
         vertex 1.000000e+04 1.692494e+03 2.268121e+03
         vertex 1.000000e+04 5.430686e+03 6.833744e+03
         vertex 1.000000e+04 1.631051e+03 2.355872e+03
      endloop
   endfacet
   facet normal 1.000000e+00 0.000000e+00 -0.000000e+00
      outer loop
         vertex 1.000000e+04 1.160277e+03 2.575397e+03
         vertex 1.000000e+04 3.875496e+03 7.731634e+03
         vertex 1.000000e+04 0.000000e+00 1.000000e+04
      endloop
   endfacet
   facet normal 1.000000e+00 0.000000e+00 0.000000e+00
      outer loop
         vertex 1.000000e+04 0.000000e+00 1.000000e+04
         vertex 1.000000e+04 3.875496e+03 7.731634e+03
         vertex 1.000000e+04 4.393892e+03 8.629523e+03
      endloop
   endfacet
   facet normal 1.000000e+00 -0.000000e+00 0.000000e+00
      outer loop
         vertex 1.000000e+04 0.000000e+00 1.000000e+04
         vertex 1.000000e+04 4.393892e+03 8.629523e+03
         vertex 1.000000e+04 7.420696e+03 1.000000e+04
      endloop
   endfacet
   facet normal 1.000000e+00 0.000000e+00 0.000000e+00
      outer loop
         vertex 1.000000e+04 7.420696e+03 1.000000e+04
         vertex 1.000000e+04 4.393892e+03 8.629523e+03
         vertex 1.000000e+04 5.430686e+03 8.629523e+03
      endloop
   endfacet
   facet normal 1.000000e+00 0.000000e+00 0.000000e+00
      outer loop
         vertex 1.000000e+04 7.420696e+03 1.000000e+04
         vertex 1.000000e+04 5.430686e+03 8.629523e+03
         vertex 1.000000e+04 5.949082e+03 7.731634e+03
      endloop
   endfacet
   facet normal 1.000000e+00 -0.000000e+00 0.000000e+00
      outer loop
         vertex 1.000000e+04 1.160277e+03 2.575397e+03
         vertex 1.000000e+04 1.266993e+03 2.566061e+03
         vertex 1.000000e+04 3.875496e+03 7.731634e+03
      endloop
   endfacet
   facet normal 1.000000e+00 0.000000e+00 0.000000e+00
      outer loop
         vertex 1.000000e+04 3.875496e+03 7.731634e+03
         vertex 1.000000e+04 1.266993e+03 2.566061e+03
         vertex 1.000000e+04 1.370466e+03 2.538335e+03
      endloop
   endfacet
   facet normal 1.000000e+00 0.000000e+00 0.000000e+00
      outer loop
         vertex 1.000000e+04 3.875496e+03 7.731634e+03
         vertex 1.000000e+04 1.370466e+03 2.538335e+03
         vertex 1.000000e+04 4.393892e+03 6.833744e+03
      endloop
   endfacet
   facet normal 1.000000e+00 0.000000e+00 0.000000e+00
      outer loop
         vertex 1.000000e+04 4.393892e+03 6.833744e+03
         vertex 1.000000e+04 1.370466e+03 2.538335e+03
         vertex 1.000000e+04 1.467553e+03 2.493062e+03
      endloop
   endfacet
   facet normal 1.000000e+00 0.000000e+00 0.000000e+00
      outer loop
         vertex 1.000000e+04 4.393892e+03 6.833744e+03
         vertex 1.000000e+04 1.467553e+03 2.493062e+03
         vertex 1.000000e+04 1.555303e+03 2.431619e+03
      endloop
   endfacet
   facet normal 1.000000e+00 0.000000e+00 0.000000e+00
      outer loop
         vertex 1.000000e+04 1.765492e+03 2.067562e+03
         vertex 1.000000e+04 1.774829e+03 1.960846e+03
         vertex 1.000000e+04 7.420696e+03 0.000000e+00
      endloop
   endfacet
   facet normal 1.000000e+00 0.000000e+00 0.000000e+00
      outer loop
         vertex 1.000000e+04 7.420696e+03 0.000000e+00
         vertex 1.000000e+04 1.774829e+03 1.960846e+03
         vertex 1.000000e+04 1.765492e+03 1.854130e+03
      endloop
   endfacet
   facet normal 1.000000e+00 0.000000e+00 0.000000e+00
      outer loop
         vertex 1.000000e+04 7.420696e+03 0.000000e+00
         vertex 1.000000e+04 1.765492e+03 1.854130e+03
         vertex 1.000000e+04 1.737767e+03 1.750657e+03
      endloop
   endfacet
   facet normal 1.000000e+00 0.000000e+00 0.000000e+00
      outer loop
         vertex 1.000000e+04 1.737767e+03 1.750657e+03
         vertex 1.000000e+04 1.692494e+03 1.653570e+03
         vertex 1.000000e+04 7.420696e+03 0.000000e+00
      endloop
   endfacet
   facet normal 1.000000e+00 0.000000e+00 0.000000e+00
      outer loop
         vertex 1.000000e+04 7.420696e+03 0.000000e+00
         vertex 1.000000e+04 1.692494e+03 1.653570e+03
         vertex 1.000000e+04 1.631051e+03 1.565820e+03
      endloop
   endfacet
   facet normal 1.000000e+00 0.000000e+00 0.000000e+00
      outer loop
         vertex 1.000000e+04 7.420696e+03 0.000000e+00
         vertex 1.000000e+04 1.631051e+03 1.565820e+03
         vertex 1.000000e+04 1.555303e+03 1.490072e+03
      endloop
   endfacet
   facet normal 1.000000e+00 0.000000e+00 0.000000e+00
      outer loop
         vertex 1.000000e+04 1.555303e+03 1.490072e+03
         vertex 1.000000e+04 1.467553e+03 1.428629e+03
         vertex 1.000000e+04 7.420696e+03 0.000000e+00
      endloop
   endfacet
   facet normal 1.000000e+00 0.000000e+00 0.000000e+00
      outer loop
         vertex 1.000000e+04 7.420696e+03 0.000000e+00
         vertex 1.000000e+04 1.467553e+03 1.428629e+03
         vertex 1.000000e+04 1.370466e+03 1.383357e+03
      endloop
   endfacet
   facet normal 1.000000e+00 0.000000e+00 0.000000e+00
      outer loop
         vertex 1.000000e+04 7.420696e+03 0.000000e+00
         vertex 1.000000e+04 1.370466e+03 1.383357e+03
         vertex 1.000000e+04 0.000000e+00 0.000000e+00
      endloop
   endfacet
   facet normal 1.000000e+00 0.000000e+00 0.000000e+00
      outer loop
         vertex 1.000000e+04 0.000000e+00 0.000000e+00
         vertex 1.000000e+04 1.370466e+03 1.383357e+03
         vertex 1.000000e+04 1.266993e+03 1.355631e+03
      endloop
   endfacet
   facet normal 1.000000e+00 0.000000e+00 0.000000e+00
      outer loop
         vertex 1.000000e+04 0.000000e+00 0.000000e+00
         vertex 1.000000e+04 1.266993e+03 1.355631e+03
         vertex 1.000000e+04 1.160277e+03 1.346294e+03
      endloop
   endfacet
   facet normal 4.159953e-32 1.836970e-16 1.000000e+00
      outer loop
         vertex 1.000000e+04 0.000000e+00 1.000000e+04
         vertex 7.420696e+03 1.000000e+04 1.000000e+04
         vertex 2.155887e+03 1.776357e-12 1.000000e+04
      endloop
   endfacet
   facet normal 0.000000e+00 1.836970e-16 1.000000e+00
      outer loop
         vertex 2.155887e+03 1.776357e-12 1.000000e+04
         vertex 7.420696e+03 1.000000e+04 1.000000e+04
         vertex 0.000000e+00 1.000000e+04 1.000000e+04
      endloop
   endfacet
   facet normal 3.387394e-23 1.836970e-16 1.000000e+00
      outer loop
         vertex 2.155887e+03 1.776357e-12 1.000000e+04
         vertex 0.000000e+00 1.000000e+04 1.000000e+04
         vertex 0.000000e+00 1.171148e+03 1.000000e+04
      endloop
   endfacet
   facet normal -3.875899e-22 1.836967e-16 1.000000e+00
      outer loop
         vertex 9.873760e+03 8.217745e+03 1.000000e+04
         vertex 9.718873e+03 8.591676e+03 1.000000e+04
         vertex 8.936773e+03 9.507397e+03 1.000000e+04
      endloop
   endfacet
   facet normal -6.918272e-22 1.836965e-16 1.000000e+00
      outer loop
         vertex 8.936773e+03 9.507397e+03 1.000000e+04
         vertex 9.718873e+03 8.591676e+03 1.000000e+04
         vertex 9.507397e+03 8.936773e+03 1.000000e+04
      endloop
   endfacet
   facet normal 1.063918e-21 1.836982e-16 1.000000e+00
      outer loop
         vertex 8.936773e+03 9.507397e+03 1.000000e+04
         vertex 9.507397e+03 8.936773e+03 1.000000e+04
         vertex 9.244539e+03 9.244539e+03 1.000000e+04
      endloop
   endfacet
   facet normal 8.228693e-23 1.836971e-16 1.000000e+00
      outer loop
         vertex 9.873760e+03 8.217745e+03 1.000000e+04
         vertex 8.936773e+03 9.507397e+03 1.000000e+04
         vertex 9.968245e+03 7.824188e+03 1.000000e+04
      endloop
   endfacet
   facet normal 3.732977e-22 1.836973e-16 1.000000e+00
      outer loop
         vertex 9.968245e+03 7.824188e+03 1.000000e+04
         vertex 8.936773e+03 9.507397e+03 1.000000e+04
         vertex 8.591676e+03 9.718873e+03 1.000000e+04
      endloop
   endfacet
   facet normal -1.140792e-25 1.836970e-16 1.000000e+00
      outer loop
         vertex 9.968245e+03 7.824188e+03 1.000000e+04
         vertex 8.591676e+03 9.718873e+03 1.000000e+04
         vertex 8.217745e+03 9.873760e+03 1.000000e+04
      endloop
   endfacet
   facet normal 2.703333e-24 1.836970e-16 1.000000e+00
      outer loop
         vertex 1.000000e+04 0.000000e+00 1.000000e+04
         vertex 1.000000e+04 7.420696e+03 1.000000e+04
         vertex 7.420696e+03 1.000000e+04 1.000000e+04
      endloop
   endfacet
   facet normal -3.972679e-23 1.836970e-16 1.000000e+00
      outer loop
         vertex 7.420696e+03 1.000000e+04 1.000000e+04
         vertex 1.000000e+04 7.420696e+03 1.000000e+04
         vertex 9.968245e+03 7.824188e+03 1.000000e+04
      endloop
   endfacet
   facet normal -3.105675e-23 1.836970e-16 1.000000e+00
      outer loop
         vertex 7.420696e+03 1.000000e+04 1.000000e+04
         vertex 9.968245e+03 7.824188e+03 1.000000e+04
         vertex 7.824188e+03 9.968245e+03 1.000000e+04
      endloop
   endfacet
   facet normal -1.665605e-22 1.836968e-16 1.000000e+00
      outer loop
         vertex 7.824188e+03 9.968245e+03 1.000000e+04
         vertex 9.968245e+03 7.824188e+03 1.000000e+04
         vertex 8.217745e+03 9.873760e+03 1.000000e+04
      endloop
   endfacet
   facet normal 0.000000e+00 0.000000e+00 -1.000000e+00
      outer loop
         vertex 0.000000e+00 7.912728e+03 0.000000e+00
         vertex 0.000000e+00 1.000000e+04 0.000000e+00
         vertex 1.380299e+03 7.912728e+03 0.000000e+00
      endloop
   endfacet
   facet normal 0.000000e+00 0.000000e+00 -1.000000e+00
      outer loop
         vertex 1.380299e+03 7.912728e+03 0.000000e+00
         vertex 0.000000e+00 1.000000e+04 0.000000e+00
         vertex 1.627300e+03 7.891118e+03 0.000000e+00
      endloop
   endfacet
   facet normal 0.000000e+00 0.000000e+00 -1.000000e+00
      outer loop
         vertex 1.627300e+03 7.891118e+03 0.000000e+00
         vertex 0.000000e+00 1.000000e+04 0.000000e+00
         vertex 1.866797e+03 7.826945e+03 0.000000e+00
      endloop
   endfacet
   facet normal 0.000000e+00 0.000000e+00 -1.000000e+00
      outer loop
         vertex 1.866797e+03 7.826945e+03 0.000000e+00
         vertex 0.000000e+00 1.000000e+04 0.000000e+00
         vertex 7.420696e+03 1.000000e+04 0.000000e+00
      endloop
   endfacet
   facet normal 0.000000e+00 0.000000e+00 -1.000000e+00
      outer loop
         vertex 1.866797e+03 7.826945e+03 0.000000e+00
         vertex 7.420696e+03 1.000000e+04 0.000000e+00
         vertex 2.091512e+03 7.722159e+03 0.000000e+00
      endloop
   endfacet
   facet normal 0.000000e+00 0.000000e+00 -1.000000e+00
      outer loop
         vertex 2.294617e+03 5.400660e+03 0.000000e+00
         vertex 2.469940e+03 5.575984e+03 0.000000e+00
         vertex 1.000000e+04 0.000000e+00 0.000000e+00
      endloop
   endfacet
   facet normal 0.000000e+00 0.000000e+00 -1.000000e+00
      outer loop
         vertex 0.000000e+00 1.171148e+03 0.000000e+00
         vertex 0.000000e+00 5.067875e+03 0.000000e+00
         vertex 2.155887e+03 1.776357e-12 0.000000e+00
      endloop
   endfacet
   facet normal 0.000000e+00 0.000000e+00 -1.000000e+00
      outer loop
         vertex 2.155887e+03 1.776357e-12 0.000000e+00
         vertex 0.000000e+00 5.067875e+03 0.000000e+00
         vertex 1.380299e+03 5.067875e+03 0.000000e+00
      endloop
   endfacet
   facet normal 0.000000e+00 0.000000e+00 -1.000000e+00
      outer loop
         vertex 2.612156e+03 7.201515e+03 0.000000e+00
         vertex 2.469940e+03 7.404620e+03 0.000000e+00
         vertex 7.420696e+03 1.000000e+04 0.000000e+00
      endloop
   endfacet
   facet normal 0.000000e+00 0.000000e+00 -1.000000e+00
      outer loop
         vertex 7.420696e+03 1.000000e+04 0.000000e+00
         vertex 2.469940e+03 7.404620e+03 0.000000e+00
         vertex 2.294617e+03 7.579943e+03 0.000000e+00
      endloop
   endfacet
   facet normal 0.000000e+00 0.000000e+00 -1.000000e+00
      outer loop
         vertex 7.420696e+03 1.000000e+04 0.000000e+00
         vertex 2.294617e+03 7.579943e+03 0.000000e+00
         vertex 2.091512e+03 7.722159e+03 0.000000e+00
      endloop
   endfacet
   facet normal 0.000000e+00 0.000000e+00 -1.000000e+00
      outer loop
         vertex 2.469940e+03 5.575984e+03 0.000000e+00
         vertex 2.612156e+03 5.779088e+03 0.000000e+00
         vertex 1.000000e+04 0.000000e+00 0.000000e+00
      endloop
   endfacet
   facet normal 0.000000e+00 0.000000e+00 -1.000000e+00
      outer loop
         vertex 1.000000e+04 0.000000e+00 0.000000e+00
         vertex 2.612156e+03 5.779088e+03 0.000000e+00
         vertex 2.716942e+03 6.003803e+03 0.000000e+00
      endloop
   endfacet
   facet normal 0.000000e+00 0.000000e+00 -1.000000e+00
      outer loop
         vertex 1.000000e+04 0.000000e+00 0.000000e+00
         vertex 2.716942e+03 6.003803e+03 0.000000e+00
         vertex 1.000000e+04 7.420696e+03 0.000000e+00
      endloop
   endfacet
   facet normal -0.000000e+00 0.000000e+00 -1.000000e+00
      outer loop
         vertex 9.718873e+03 8.591676e+03 0.000000e+00
         vertex 2.781115e+03 6.737303e+03 0.000000e+00
         vertex 9.507397e+03 8.936773e+03 0.000000e+00
      endloop
   endfacet
   facet normal 0.000000e+00 0.000000e+00 -1.000000e+00
      outer loop
         vertex 9.507397e+03 8.936773e+03 0.000000e+00
         vertex 2.781115e+03 6.737303e+03 0.000000e+00
         vertex 2.716942e+03 6.976800e+03 0.000000e+00
      endloop
   endfacet
   facet normal 0.000000e+00 -0.000000e+00 -1.000000e+00
      outer loop
         vertex 8.217745e+03 9.873760e+03 0.000000e+00
         vertex 8.591676e+03 9.718873e+03 0.000000e+00
         vertex 2.716942e+03 6.976800e+03 0.000000e+00
      endloop
   endfacet
   facet normal 0.000000e+00 0.000000e+00 -1.000000e+00
      outer loop
         vertex 1.380299e+03 5.067875e+03 0.000000e+00
         vertex 1.627300e+03 5.089485e+03 0.000000e+00
         vertex 2.155887e+03 1.776357e-12 0.000000e+00
      endloop
   endfacet
   facet normal 0.000000e+00 0.000000e+00 -1.000000e+00
      outer loop
         vertex 2.155887e+03 1.776357e-12 0.000000e+00
         vertex 1.627300e+03 5.089485e+03 0.000000e+00
         vertex 1.866797e+03 5.153658e+03 0.000000e+00
      endloop
   endfacet
   facet normal 0.000000e+00 0.000000e+00 -1.000000e+00
      outer loop
         vertex 2.155887e+03 1.776357e-12 0.000000e+00
         vertex 1.866797e+03 5.153658e+03 0.000000e+00
         vertex 1.000000e+04 0.000000e+00 0.000000e+00
      endloop
   endfacet
   facet normal 0.000000e+00 0.000000e+00 -1.000000e+00
      outer loop
         vertex 1.000000e+04 0.000000e+00 0.000000e+00
         vertex 1.866797e+03 5.153658e+03 0.000000e+00
         vertex 2.091512e+03 5.258444e+03 0.000000e+00
      endloop
   endfacet
   facet normal 0.000000e+00 0.000000e+00 -1.000000e+00
      outer loop
         vertex 1.000000e+04 0.000000e+00 0.000000e+00
         vertex 2.091512e+03 5.258444e+03 0.000000e+00
         vertex 2.294617e+03 5.400660e+03 0.000000e+00
      endloop
   endfacet
   facet normal 0.000000e+00 0.000000e+00 -1.000000e+00
      outer loop
         vertex 2.612156e+03 7.201515e+03 0.000000e+00
         vertex 7.420696e+03 1.000000e+04 0.000000e+00
         vertex 2.716942e+03 6.976800e+03 0.000000e+00
      endloop
   endfacet
   facet normal 0.000000e+00 0.000000e+00 -1.000000e+00
      outer loop
         vertex 2.716942e+03 6.976800e+03 0.000000e+00
         vertex 7.420696e+03 1.000000e+04 0.000000e+00
         vertex 7.824188e+03 9.968245e+03 0.000000e+00
      endloop
   endfacet
   facet normal 0.000000e+00 0.000000e+00 -1.000000e+00
      outer loop
         vertex 2.716942e+03 6.976800e+03 0.000000e+00
         vertex 7.824188e+03 9.968245e+03 0.000000e+00
         vertex 8.217745e+03 9.873760e+03 0.000000e+00
      endloop
   endfacet
   facet normal 0.000000e+00 -0.000000e+00 -1.000000e+00
      outer loop
         vertex 8.591676e+03 9.718873e+03 0.000000e+00
         vertex 8.936773e+03 9.507397e+03 0.000000e+00
         vertex 2.716942e+03 6.976800e+03 0.000000e+00
      endloop
   endfacet
   facet normal 0.000000e+00 0.000000e+00 -1.000000e+00
      outer loop
         vertex 2.716942e+03 6.976800e+03 0.000000e+00
         vertex 8.936773e+03 9.507397e+03 0.000000e+00
         vertex 9.244539e+03 9.244539e+03 0.000000e+00
      endloop
   endfacet
   facet normal 0.000000e+00 0.000000e+00 -1.000000e+00
      outer loop
         vertex 2.716942e+03 6.976800e+03 0.000000e+00
         vertex 9.244539e+03 9.244539e+03 0.000000e+00
         vertex 9.507397e+03 8.936773e+03 0.000000e+00
      endloop
   endfacet
   facet normal 0.000000e+00 -0.000000e+00 -1.000000e+00
      outer loop
         vertex 9.718873e+03 8.591676e+03 0.000000e+00
         vertex 9.873760e+03 8.217745e+03 0.000000e+00
         vertex 2.781115e+03 6.737303e+03 0.000000e+00
      endloop
   endfacet
   facet normal 0.000000e+00 0.000000e+00 -1.000000e+00
      outer loop
         vertex 2.781115e+03 6.737303e+03 0.000000e+00
         vertex 9.873760e+03 8.217745e+03 0.000000e+00
         vertex 9.968245e+03 7.824188e+03 0.000000e+00
      endloop
   endfacet
   facet normal 0.000000e+00 0.000000e+00 -1.000000e+00
      outer loop
         vertex 2.781115e+03 6.737303e+03 0.000000e+00
         vertex 9.968245e+03 7.824188e+03 0.000000e+00
         vertex 2.802725e+03 6.490302e+03 0.000000e+00
      endloop
   endfacet
   facet normal 0.000000e+00 0.000000e+00 -1.000000e+00
      outer loop
         vertex 2.802725e+03 6.490302e+03 0.000000e+00
         vertex 9.968245e+03 7.824188e+03 0.000000e+00
         vertex 1.000000e+04 7.420696e+03 0.000000e+00
      endloop
   endfacet
   facet normal 0.000000e+00 -0.000000e+00 -1.000000e+00
      outer loop
         vertex 2.802725e+03 6.490302e+03 0.000000e+00
         vertex 1.000000e+04 7.420696e+03 0.000000e+00
         vertex 2.781115e+03 6.243300e+03 0.000000e+00
      endloop
   endfacet
   facet normal 0.000000e+00 -0.000000e+00 -1.000000e+00
      outer loop
         vertex 2.781115e+03 6.243300e+03 0.000000e+00
         vertex 1.000000e+04 7.420696e+03 0.000000e+00
         vertex 2.716942e+03 6.003803e+03 0.000000e+00
      endloop
   endfacet
   facet normal -1.000000e+00 6.123234e-17 0.000000e+00
      outer loop
         vertex 1.499760e-28 1.000000e+04 0.000000e+00
         vertex -1.278086e-13 7.912728e+03 0.000000e+00
         vertex -1.278086e-13 7.912728e+03 1.944160e+03
      endloop
   endfacet
   facet normal -1.000000e+00 6.123234e-17 0.000000e+00
      outer loop
         vertex -3.020055e-13 5.067875e+03 0.000000e+00
         vertex -5.406113e-13 1.171148e+03 0.000000e+00
         vertex -3.020055e-13 5.067875e+03 1.944160e+03
      endloop
   endfacet
   facet normal -1.000000e+00 6.123234e-17 0.000000e+00
      outer loop
         vertex -3.020055e-13 5.067875e+03 1.944160e+03
         vertex -5.406113e-13 1.171148e+03 0.000000e+00
         vertex -5.406113e-13 1.171148e+03 1.000000e+04
      endloop
   endfacet
   facet normal -1.000000e+00 6.123233e-17 -2.528881e-24
      outer loop
         vertex -3.020055e-13 5.067875e+03 1.944160e+03
         vertex -5.406113e-13 1.171148e+03 1.000000e+04
         vertex -1.278086e-13 7.912728e+03 1.944160e+03
      endloop
   endfacet
   facet normal -1.000000e+00 6.123234e-17 8.057387e-25
      outer loop
         vertex -1.278086e-13 7.912728e+03 1.944160e+03
         vertex -5.406113e-13 1.171148e+03 1.000000e+04
         vertex 0.000000e+00 1.000000e+04 1.000000e+04
      endloop
   endfacet
   facet normal -1.000000e+00 6.123234e-17 -1.417270e-32
      outer loop
         vertex -1.278086e-13 7.912728e+03 1.944160e+03
         vertex 0.000000e+00 1.000000e+04 1.000000e+04
         vertex 1.499760e-28 1.000000e+04 0.000000e+00
      endloop
   endfacet
   facet normal -6.123234e-17 -1.000000e+00 1.836971e-16
      outer loop
         vertex 1.000000e+04 -6.061336e-14 0.000000e+00
         vertex 1.000000e+04 1.866970e-13 1.346294e+03
         vertex 6.320491e+03 4.120019e-13 1.346294e+03
      endloop
   endfacet
   facet normal -6.123234e-17 -1.000000e+00 1.836970e-16
      outer loop
         vertex 1.000000e+04 4.124794e-13 2.575397e+03
         vertex 1.000000e+04 1.776357e-12 1.000000e+04
         vertex 6.320491e+03 6.377843e-13 2.575397e+03
      endloop
   endfacet
   facet normal -6.123234e-17 -1.000000e+00 1.836970e-16
      outer loop
         vertex 6.320491e+03 6.377843e-13 2.575397e+03
         vertex 1.000000e+04 1.776357e-12 1.000000e+04
         vertex 2.155887e+03 2.256670e-12 1.000000e+04
      endloop
   endfacet
   facet normal -6.123247e-17 -1.000000e+00 1.836970e-16
      outer loop
         vertex 6.320491e+03 6.377843e-13 2.575397e+03
         vertex 2.155887e+03 2.256670e-12 1.000000e+04
         vertex 6.320491e+03 4.120019e-13 1.346294e+03
      endloop
   endfacet
   facet normal -6.123232e-17 -1.000000e+00 1.836970e-16
      outer loop
         vertex 6.320491e+03 4.120019e-13 1.346294e+03
         vertex 2.155887e+03 2.256670e-12 1.000000e+04
         vertex 2.155887e+03 4.197000e-13 0.000000e+00
      endloop
   endfacet
   facet normal -6.123234e-17 -1.000000e+00 1.836971e-16
      outer loop
         vertex 6.320491e+03 4.120019e-13 1.346294e+03
         vertex 2.155887e+03 4.197000e-13 0.000000e+00
         vertex 1.000000e+04 -6.061336e-14 0.000000e+00
      endloop
   endfacet
   facet normal 0.000000e+00 1.000000e+00 0.000000e+00
      outer loop
         vertex -1.124820e-28 1.000000e+04 0.000000e+00
         vertex 0.000000e+00 1.000000e+04 1.000000e+04
         vertex 7.420696e+03 1.000000e+04 0.000000e+00
      endloop
   endfacet
   facet normal 0.000000e+00 1.000000e+00 -0.000000e+00
      outer loop
         vertex 7.420696e+03 1.000000e+04 0.000000e+00
         vertex 0.000000e+00 1.000000e+04 1.000000e+04
         vertex 7.420696e+03 1.000000e+04 1.000000e+04
      endloop
   endfacet
   facet normal -0.000000e+00 1.000000e+00 0.000000e+00
      outer loop
         vertex 0.000000e+00 5.067875e+03 1.944160e+03
         vertex 1.380299e+03 5.067875e+03 1.944160e+03
         vertex -2.186830e-29 5.067875e+03 0.000000e+00
      endloop
   endfacet
   facet normal 0.000000e+00 1.000000e+00 0.000000e+00
      outer loop
         vertex -2.186830e-29 5.067875e+03 0.000000e+00
         vertex 1.380299e+03 5.067875e+03 1.944160e+03
         vertex 1.380299e+03 5.067875e+03 0.000000e+00
      endloop
   endfacet
   facet normal -8.715546e-02 -9.961947e-01 -0.000000e+00
      outer loop
         vertex 1.380299e+03 7.912728e+03 1.944160e+03
         vertex 1.380299e+03 7.912728e+03 0.000000e+00
         vertex 1.627300e+03 7.891118e+03 1.944160e+03
      endloop
   endfacet
   facet normal -8.715546e-02 -9.961947e-01 -0.000000e+00
      outer loop
         vertex 1.627300e+03 7.891118e+03 1.944160e+03
         vertex 1.380299e+03 7.912728e+03 0.000000e+00
         vertex 1.627300e+03 7.891118e+03 0.000000e+00
      endloop
   endfacet
   facet normal -2.588201e-01 -9.659256e-01 -0.000000e+00
      outer loop
         vertex 1.627300e+03 7.891118e+03 1.944160e+03
         vertex 1.627300e+03 7.891118e+03 0.000000e+00
         vertex 1.866797e+03 7.826945e+03 1.944160e+03
      endloop
   endfacet
   facet normal -2.588201e-01 -9.659256e-01 -0.000000e+00
      outer loop
         vertex 1.866797e+03 7.826945e+03 1.944160e+03
         vertex 1.627300e+03 7.891118e+03 0.000000e+00
         vertex 1.866797e+03 7.826945e+03 0.000000e+00
      endloop
   endfacet
   facet normal -4.226175e-01 -9.063082e-01 -0.000000e+00
      outer loop
         vertex 1.866797e+03 7.826945e+03 1.944160e+03
         vertex 1.866797e+03 7.826945e+03 0.000000e+00
         vertex 2.091512e+03 7.722159e+03 1.944160e+03
      endloop
   endfacet
   facet normal -4.226175e-01 -9.063082e-01 -0.000000e+00
      outer loop
         vertex 2.091512e+03 7.722159e+03 1.944160e+03
         vertex 1.866797e+03 7.826945e+03 0.000000e+00
         vertex 2.091512e+03 7.722159e+03 0.000000e+00
      endloop
   endfacet
   facet normal -5.735767e-01 -8.191519e-01 -0.000000e+00
      outer loop
         vertex 2.091512e+03 7.722159e+03 1.944160e+03
         vertex 2.091512e+03 7.722159e+03 0.000000e+00
         vertex 2.294617e+03 7.579943e+03 1.944160e+03
      endloop
   endfacet
   facet normal -5.735767e-01 -8.191519e-01 -0.000000e+00
      outer loop
         vertex 2.294617e+03 7.579943e+03 1.944160e+03
         vertex 2.091512e+03 7.722159e+03 0.000000e+00
         vertex 2.294617e+03 7.579943e+03 0.000000e+00
      endloop
   endfacet
   facet normal -7.071063e-01 -7.071073e-01 -0.000000e+00
      outer loop
         vertex 2.294617e+03 7.579943e+03 1.944160e+03
         vertex 2.294617e+03 7.579943e+03 0.000000e+00
         vertex 2.469940e+03 7.404620e+03 1.944160e+03
      endloop
   endfacet
   facet normal -7.071063e-01 -7.071073e-01 -0.000000e+00
      outer loop
         vertex 2.469940e+03 7.404620e+03 1.944160e+03
         vertex 2.294617e+03 7.579943e+03 0.000000e+00
         vertex 2.469940e+03 7.404620e+03 0.000000e+00
      endloop
   endfacet
   facet normal -8.191523e-01 -5.735761e-01 -0.000000e+00
      outer loop
         vertex 2.469940e+03 7.404620e+03 1.944160e+03
         vertex 2.469940e+03 7.404620e+03 0.000000e+00
         vertex 2.612156e+03 7.201515e+03 1.944160e+03
      endloop
   endfacet
   facet normal -8.191523e-01 -5.735761e-01 -0.000000e+00
      outer loop
         vertex 2.612156e+03 7.201515e+03 1.944160e+03
         vertex 2.469940e+03 7.404620e+03 0.000000e+00
         vertex 2.612156e+03 7.201515e+03 0.000000e+00
      endloop
   endfacet
   facet normal -9.063079e-01 -4.226181e-01 -0.000000e+00
      outer loop
         vertex 2.612156e+03 7.201515e+03 1.944160e+03
         vertex 2.612156e+03 7.201515e+03 0.000000e+00
         vertex 2.716942e+03 6.976800e+03 1.944160e+03
      endloop
   endfacet
   facet normal -9.063079e-01 -4.226181e-01 -0.000000e+00
      outer loop
         vertex 2.716942e+03 6.976800e+03 1.944160e+03
         vertex 2.612156e+03 7.201515e+03 0.000000e+00
         vertex 2.716942e+03 6.976800e+03 0.000000e+00
      endloop
   endfacet
   facet normal -9.659258e-01 -2.588192e-01 -0.000000e+00
      outer loop
         vertex 2.716942e+03 6.976800e+03 1.944160e+03
         vertex 2.716942e+03 6.976800e+03 0.000000e+00
         vertex 2.781115e+03 6.737303e+03 1.944160e+03
      endloop
   endfacet
   facet normal -9.659258e-01 -2.588192e-01 -0.000000e+00
      outer loop
         vertex 2.781115e+03 6.737303e+03 1.944160e+03
         vertex 2.716942e+03 6.976800e+03 0.000000e+00
         vertex 2.781115e+03 6.737303e+03 0.000000e+00
      endloop
   endfacet
   facet normal -9.961947e-01 -8.715550e-02 -0.000000e+00
      outer loop
         vertex 2.781115e+03 6.737303e+03 1.944160e+03
         vertex 2.781115e+03 6.737303e+03 0.000000e+00
         vertex 2.802725e+03 6.490302e+03 1.944160e+03
      endloop
   endfacet
   facet normal -9.961947e-01 -8.715550e-02 -0.000000e+00
      outer loop
         vertex 2.802725e+03 6.490302e+03 1.944160e+03
         vertex 2.781115e+03 6.737303e+03 0.000000e+00
         vertex 2.802725e+03 6.490302e+03 0.000000e+00
      endloop
   endfacet
   facet normal -9.961947e-01 8.715550e-02 0.000000e+00
      outer loop
         vertex 2.802725e+03 6.490302e+03 1.944160e+03
         vertex 2.802725e+03 6.490302e+03 0.000000e+00
         vertex 2.781115e+03 6.243300e+03 1.944160e+03
      endloop
   endfacet
   facet normal -9.961947e-01 8.715550e-02 0.000000e+00
      outer loop
         vertex 2.781115e+03 6.243300e+03 1.944160e+03
         vertex 2.802725e+03 6.490302e+03 0.000000e+00
         vertex 2.781115e+03 6.243300e+03 0.000000e+00
      endloop
   endfacet
   facet normal -9.659258e-01 2.588192e-01 0.000000e+00
      outer loop
         vertex 2.781115e+03 6.243300e+03 1.944160e+03
         vertex 2.781115e+03 6.243300e+03 0.000000e+00
         vertex 2.716942e+03 6.003803e+03 1.944160e+03
      endloop
   endfacet
   facet normal -9.659258e-01 2.588192e-01 0.000000e+00
      outer loop
         vertex 2.716942e+03 6.003803e+03 1.944160e+03
         vertex 2.781115e+03 6.243300e+03 0.000000e+00
         vertex 2.716942e+03 6.003803e+03 0.000000e+00
      endloop
   endfacet
   facet normal -9.063079e-01 4.226181e-01 0.000000e+00
      outer loop
         vertex 2.716942e+03 6.003803e+03 1.944160e+03
         vertex 2.716942e+03 6.003803e+03 0.000000e+00
         vertex 2.612156e+03 5.779088e+03 1.944160e+03
      endloop
   endfacet
   facet normal -9.063079e-01 4.226181e-01 0.000000e+00
      outer loop
         vertex 2.612156e+03 5.779088e+03 1.944160e+03
         vertex 2.716942e+03 6.003803e+03 0.000000e+00
         vertex 2.612156e+03 5.779088e+03 0.000000e+00
      endloop
   endfacet
   facet normal -8.191523e-01 5.735761e-01 0.000000e+00
      outer loop
         vertex 2.612156e+03 5.779088e+03 1.944160e+03
         vertex 2.612156e+03 5.779088e+03 0.000000e+00
         vertex 2.469940e+03 5.575984e+03 1.944160e+03
      endloop
   endfacet
   facet normal -8.191523e-01 5.735761e-01 0.000000e+00
      outer loop
         vertex 2.469940e+03 5.575984e+03 1.944160e+03
         vertex 2.612156e+03 5.779088e+03 0.000000e+00
         vertex 2.469940e+03 5.575984e+03 0.000000e+00
      endloop
   endfacet
   facet normal -7.071063e-01 7.071073e-01 0.000000e+00
      outer loop
         vertex 2.469940e+03 5.575984e+03 1.944160e+03
         vertex 2.469940e+03 5.575984e+03 0.000000e+00
         vertex 2.294617e+03 5.400660e+03 1.944160e+03
      endloop
   endfacet
   facet normal -7.071063e-01 7.071073e-01 0.000000e+00
      outer loop
         vertex 2.294617e+03 5.400660e+03 1.944160e+03
         vertex 2.469940e+03 5.575984e+03 0.000000e+00
         vertex 2.294617e+03 5.400660e+03 0.000000e+00
      endloop
   endfacet
   facet normal -5.735767e-01 8.191519e-01 0.000000e+00
      outer loop
         vertex 2.294617e+03 5.400660e+03 1.944160e+03
         vertex 2.294617e+03 5.400660e+03 0.000000e+00
         vertex 2.091512e+03 5.258444e+03 1.944160e+03
      endloop
   endfacet
   facet normal -5.735767e-01 8.191519e-01 0.000000e+00
      outer loop
         vertex 2.091512e+03 5.258444e+03 1.944160e+03
         vertex 2.294617e+03 5.400660e+03 0.000000e+00
         vertex 2.091512e+03 5.258444e+03 0.000000e+00
      endloop
   endfacet
   facet normal -4.226175e-01 9.063082e-01 0.000000e+00
      outer loop
         vertex 2.091512e+03 5.258444e+03 1.944160e+03
         vertex 2.091512e+03 5.258444e+03 0.000000e+00
         vertex 1.866797e+03 5.153658e+03 1.944160e+03
      endloop
   endfacet
   facet normal -4.226175e-01 9.063082e-01 0.000000e+00
      outer loop
         vertex 1.866797e+03 5.153658e+03 1.944160e+03
         vertex 2.091512e+03 5.258444e+03 0.000000e+00
         vertex 1.866797e+03 5.153658e+03 0.000000e+00
      endloop
   endfacet
   facet normal -2.588201e-01 9.659256e-01 0.000000e+00
      outer loop
         vertex 1.866797e+03 5.153658e+03 1.944160e+03
         vertex 1.866797e+03 5.153658e+03 0.000000e+00
         vertex 1.627300e+03 5.089485e+03 1.944160e+03
      endloop
   endfacet
   facet normal -2.588201e-01 9.659256e-01 0.000000e+00
      outer loop
         vertex 1.627300e+03 5.089485e+03 1.944160e+03
         vertex 1.866797e+03 5.153658e+03 0.000000e+00
         vertex 1.627300e+03 5.089485e+03 0.000000e+00
      endloop
   endfacet
   facet normal -8.715546e-02 9.961947e-01 0.000000e+00
      outer loop
         vertex 1.627300e+03 5.089485e+03 1.944160e+03
         vertex 1.627300e+03 5.089485e+03 0.000000e+00
         vertex 1.380299e+03 5.067875e+03 1.944160e+03
      endloop
   endfacet
   facet normal -8.715546e-02 9.961947e-01 0.000000e+00
      outer loop
         vertex 1.380299e+03 5.067875e+03 1.944160e+03
         vertex 1.627300e+03 5.089485e+03 0.000000e+00
         vertex 1.380299e+03 5.067875e+03 0.000000e+00
      endloop
   endfacet
   facet normal -0.000000e+00 -1.000000e+00 -0.000000e+00
      outer loop
         vertex 1.380299e+03 7.912728e+03 1.944160e+03
         vertex 4.440892e-13 7.912728e+03 1.944160e+03
         vertex 1.380299e+03 7.912728e+03 0.000000e+00
      endloop
   endfacet
   facet normal 0.000000e+00 -1.000000e+00 0.000000e+00
      outer loop
         vertex 1.380299e+03 7.912728e+03 0.000000e+00
         vertex 4.440892e-13 7.912728e+03 1.944160e+03
         vertex 4.440892e-13 7.912728e+03 0.000000e+00
      endloop
   endfacet
   facet normal 0.000000e+00 0.000000e+00 -1.000000e+00
      outer loop
         vertex 0.000000e+00 5.067875e+03 1.944160e+03
         vertex 0.000000e+00 7.912728e+03 1.944160e+03
         vertex 1.380299e+03 5.067875e+03 1.944160e+03
      endloop
   endfacet
   facet normal 0.000000e+00 0.000000e+00 -1.000000e+00
      outer loop
         vertex 1.380299e+03 5.067875e+03 1.944160e+03
         vertex 0.000000e+00 7.912728e+03 1.944160e+03
         vertex 1.380299e+03 7.912728e+03 1.944160e+03
      endloop
   endfacet
   facet normal 0.000000e+00 0.000000e+00 -1.000000e+00
      outer loop
         vertex 1.380299e+03 7.912728e+03 1.944160e+03
         vertex 1.627300e+03 7.891118e+03 1.944160e+03
         vertex 1.380299e+03 5.067875e+03 1.944160e+03
      endloop
   endfacet
   facet normal 0.000000e+00 0.000000e+00 -1.000000e+00
      outer loop
         vertex 1.380299e+03 5.067875e+03 1.944160e+03
         vertex 1.627300e+03 7.891118e+03 1.944160e+03
         vertex 1.866797e+03 7.826945e+03 1.944160e+03
      endloop
   endfacet
   facet normal 0.000000e+00 0.000000e+00 -1.000000e+00
      outer loop
         vertex 1.380299e+03 5.067875e+03 1.944160e+03
         vertex 1.866797e+03 7.826945e+03 1.944160e+03
         vertex 1.627300e+03 5.089485e+03 1.944160e+03
      endloop
   endfacet
   facet normal 0.000000e+00 0.000000e+00 -1.000000e+00
      outer loop
         vertex 1.627300e+03 5.089485e+03 1.944160e+03
         vertex 1.866797e+03 7.826945e+03 1.944160e+03
         vertex 2.091512e+03 7.722159e+03 1.944160e+03
      endloop
   endfacet
   facet normal 0.000000e+00 0.000000e+00 -1.000000e+00
      outer loop
         vertex 1.627300e+03 5.089485e+03 1.944160e+03
         vertex 2.091512e+03 7.722159e+03 1.944160e+03
         vertex 2.294617e+03 7.579943e+03 1.944160e+03
      endloop
   endfacet
   facet normal 0.000000e+00 -0.000000e+00 -1.000000e+00
      outer loop
         vertex 2.294617e+03 7.579943e+03 1.944160e+03
         vertex 2.469940e+03 7.404620e+03 1.944160e+03
         vertex 1.627300e+03 5.089485e+03 1.944160e+03
      endloop
   endfacet
   facet normal 0.000000e+00 0.000000e+00 -1.000000e+00
      outer loop
         vertex 1.627300e+03 5.089485e+03 1.944160e+03
         vertex 2.469940e+03 7.404620e+03 1.944160e+03
         vertex 2.612156e+03 7.201515e+03 1.944160e+03
      endloop
   endfacet
   facet normal 0.000000e+00 0.000000e+00 -1.000000e+00
      outer loop
         vertex 1.627300e+03 5.089485e+03 1.944160e+03
         vertex 2.612156e+03 7.201515e+03 1.944160e+03
         vertex 2.716942e+03 6.976800e+03 1.944160e+03
      endloop
   endfacet
   facet normal 0.000000e+00 -0.000000e+00 -1.000000e+00
      outer loop
         vertex 2.781115e+03 6.737303e+03 1.944160e+03
         vertex 2.802725e+03 6.490302e+03 1.944160e+03
         vertex 2.612156e+03 5.779088e+03 1.944160e+03
      endloop
   endfacet
   facet normal 0.000000e+00 0.000000e+00 -1.000000e+00
      outer loop
         vertex 2.612156e+03 5.779088e+03 1.944160e+03
         vertex 2.802725e+03 6.490302e+03 1.944160e+03
         vertex 2.781115e+03 6.243300e+03 1.944160e+03
      endloop
   endfacet
   facet normal 0.000000e+00 0.000000e+00 -1.000000e+00
      outer loop
         vertex 2.612156e+03 5.779088e+03 1.944160e+03
         vertex 2.781115e+03 6.243300e+03 1.944160e+03
         vertex 2.716942e+03 6.003803e+03 1.944160e+03
      endloop
   endfacet
   facet normal -0.000000e+00 0.000000e+00 -1.000000e+00
      outer loop
         vertex 2.781115e+03 6.737303e+03 1.944160e+03
         vertex 2.612156e+03 5.779088e+03 1.944160e+03
         vertex 2.716942e+03 6.976800e+03 1.944160e+03
      endloop
   endfacet
   facet normal 0.000000e+00 0.000000e+00 -1.000000e+00
      outer loop
         vertex 2.716942e+03 6.976800e+03 1.944160e+03
         vertex 2.612156e+03 5.779088e+03 1.944160e+03
         vertex 2.469940e+03 5.575984e+03 1.944160e+03
      endloop
   endfacet
   facet normal 0.000000e+00 0.000000e+00 -1.000000e+00
      outer loop
         vertex 2.716942e+03 6.976800e+03 1.944160e+03
         vertex 2.469940e+03 5.575984e+03 1.944160e+03
         vertex 2.294617e+03 5.400660e+03 1.944160e+03
      endloop
   endfacet
   facet normal -0.000000e+00 0.000000e+00 -1.000000e+00
      outer loop
         vertex 2.294617e+03 5.400660e+03 1.944160e+03
         vertex 2.091512e+03 5.258444e+03 1.944160e+03
         vertex 2.716942e+03 6.976800e+03 1.944160e+03
      endloop
   endfacet
   facet normal 0.000000e+00 0.000000e+00 -1.000000e+00
      outer loop
         vertex 2.716942e+03 6.976800e+03 1.944160e+03
         vertex 2.091512e+03 5.258444e+03 1.944160e+03
         vertex 1.866797e+03 5.153658e+03 1.944160e+03
      endloop
   endfacet
   facet normal 0.000000e+00 0.000000e+00 -1.000000e+00
      outer loop
         vertex 2.716942e+03 6.976800e+03 1.944160e+03
         vertex 1.866797e+03 5.153658e+03 1.944160e+03
         vertex 1.627300e+03 5.089485e+03 1.944160e+03
      endloop
   endfacet
   facet normal 0.000000e+00 -8.660255e-01 4.999998e-01
      outer loop
         vertex 6.112137e+03 5.949082e+03 7.731634e+03
         vertex 6.112137e+03 5.430686e+03 6.833744e+03
         vertex 1.000000e+04 5.949082e+03 7.731634e+03
      endloop
   endfacet
   facet normal 0.000000e+00 -8.660255e-01 4.999998e-01
      outer loop
         vertex 1.000000e+04 5.949082e+03 7.731634e+03
         vertex 6.112137e+03 5.430686e+03 6.833744e+03
         vertex 1.000000e+04 5.430686e+03 6.833744e+03
      endloop
   endfacet
   facet normal -0.000000e+00 0.000000e+00 1.000000e+00
      outer loop
         vertex 6.112137e+03 5.430686e+03 6.833744e+03
         vertex 6.112137e+03 4.393892e+03 6.833744e+03
         vertex 1.000000e+04 5.430686e+03 6.833744e+03
      endloop
   endfacet
   facet normal 0.000000e+00 0.000000e+00 1.000000e+00
      outer loop
         vertex 1.000000e+04 5.430686e+03 6.833744e+03
         vertex 6.112137e+03 4.393892e+03 6.833744e+03
         vertex 1.000000e+04 4.393892e+03 6.833744e+03
      endloop
   endfacet
   facet normal -0.000000e+00 8.660254e-01 5.000000e-01
      outer loop
         vertex 6.112137e+03 4.393892e+03 6.833744e+03
         vertex 6.112137e+03 3.875496e+03 7.731634e+03
         vertex 1.000000e+04 4.393892e+03 6.833744e+03
      endloop
   endfacet
   facet normal 0.000000e+00 8.660254e-01 5.000000e-01
      outer loop
         vertex 1.000000e+04 4.393892e+03 6.833744e+03
         vertex 6.112137e+03 3.875496e+03 7.731634e+03
         vertex 1.000000e+04 3.875496e+03 7.731634e+03
      endloop
   endfacet
   facet normal 0.000000e+00 8.660255e-01 -4.999999e-01
      outer loop
         vertex 6.112137e+03 3.875496e+03 7.731634e+03
         vertex 6.112137e+03 4.393892e+03 8.629523e+03
         vertex 1.000000e+04 3.875496e+03 7.731634e+03
      endloop
   endfacet
   facet normal 0.000000e+00 8.660255e-01 -4.999999e-01
      outer loop
         vertex 1.000000e+04 3.875496e+03 7.731634e+03
         vertex 6.112137e+03 4.393892e+03 8.629523e+03
         vertex 1.000000e+04 4.393892e+03 8.629523e+03
      endloop
   endfacet
   facet normal 0.000000e+00 0.000000e+00 -1.000000e+00
      outer loop
         vertex 6.112137e+03 4.393892e+03 8.629523e+03
         vertex 6.112137e+03 5.430686e+03 8.629523e+03
         vertex 1.000000e+04 4.393892e+03 8.629523e+03
      endloop
   endfacet
   facet normal 0.000000e+00 0.000000e+00 -1.000000e+00
      outer loop
         vertex 1.000000e+04 4.393892e+03 8.629523e+03
         vertex 6.112137e+03 5.430686e+03 8.629523e+03
         vertex 1.000000e+04 5.430686e+03 8.629523e+03
      endloop
   endfacet
   facet normal 0.000000e+00 -8.660256e-01 -4.999997e-01
      outer loop
         vertex 6.112137e+03 5.430686e+03 8.629523e+03
         vertex 6.112137e+03 5.949082e+03 7.731634e+03
         vertex 1.000000e+04 5.430686e+03 8.629523e+03
      endloop
   endfacet
   facet normal 0.000000e+00 -8.660256e-01 -4.999997e-01
      outer loop
         vertex 1.000000e+04 5.430686e+03 8.629523e+03
         vertex 6.112137e+03 5.949082e+03 7.731634e+03
         vertex 1.000000e+04 5.949082e+03 7.731634e+03
      endloop
   endfacet
   facet normal 1.000000e+00 0.000000e+00 0.000000e+00
      outer loop
         vertex 6.112137e+03 5.949082e+03 7.731634e+03
         vertex 6.112137e+03 5.430686e+03 8.629523e+03
         vertex 6.112137e+03 5.430686e+03 6.833744e+03
      endloop
   endfacet
   facet normal 1.000000e+00 0.000000e+00 -0.000000e+00
      outer loop
         vertex 6.112137e+03 5.430686e+03 6.833744e+03
         vertex 6.112137e+03 5.430686e+03 8.629523e+03
         vertex 6.112137e+03 4.393892e+03 8.629523e+03
      endloop
   endfacet
   facet normal 1.000000e+00 0.000000e+00 0.000000e+00
      outer loop
         vertex 6.112137e+03 5.430686e+03 6.833744e+03
         vertex 6.112137e+03 4.393892e+03 8.629523e+03
         vertex 6.112137e+03 4.393892e+03 6.833744e+03
      endloop
   endfacet
   facet normal 1.000000e+00 0.000000e+00 -0.000000e+00
      outer loop
         vertex 6.112137e+03 4.393892e+03 6.833744e+03
         vertex 6.112137e+03 4.393892e+03 8.629523e+03
         vertex 6.112137e+03 3.875496e+03 7.731634e+03
      endloop
   endfacet
   facet normal 0.000000e+00 0.000000e+00 -1.000000e+00
      outer loop
         vertex 6.320491e+03 1.576976e-13 2.575397e+03
         vertex 6.320491e+03 1.160277e+03 2.575397e+03
         vertex 1.000000e+04 1.576976e-13 2.575397e+03
      endloop
   endfacet
   facet normal 0.000000e+00 0.000000e+00 -1.000000e+00
      outer loop
         vertex 1.000000e+04 1.576976e-13 2.575397e+03
         vertex 6.320491e+03 1.160277e+03 2.575397e+03
         vertex 1.000000e+04 1.160277e+03 2.575397e+03
      endloop
   endfacet
   facet normal 0.000000e+00 -8.715629e-02 9.961946e-01
      outer loop
         vertex 6.320491e+03 1.160277e+03 1.346294e+03
         vertex 1.000000e+04 1.160277e+03 1.346294e+03
         vertex 6.320491e+03 1.266993e+03 1.355631e+03
      endloop
   endfacet
   facet normal 0.000000e+00 -8.715629e-02 9.961946e-01
      outer loop
         vertex 6.320491e+03 1.266993e+03 1.355631e+03
         vertex 1.000000e+04 1.160277e+03 1.346294e+03
         vertex 1.000000e+04 1.266993e+03 1.355631e+03
      endloop
   endfacet
   facet normal 0.000000e+00 -2.588244e-01 9.659244e-01
      outer loop
         vertex 6.320491e+03 1.266993e+03 1.355631e+03
         vertex 1.000000e+04 1.266993e+03 1.355631e+03
         vertex 6.320491e+03 1.370466e+03 1.383357e+03
      endloop
   endfacet
   facet normal 0.000000e+00 -2.588244e-01 9.659244e-01
      outer loop
         vertex 6.320491e+03 1.370466e+03 1.383357e+03
         vertex 1.000000e+04 1.266993e+03 1.355631e+03
         vertex 1.000000e+04 1.370466e+03 1.383357e+03
      endloop
   endfacet
   facet normal 0.000000e+00 -4.226153e-01 9.063092e-01
      outer loop
         vertex 6.320491e+03 1.370466e+03 1.383357e+03
         vertex 1.000000e+04 1.370466e+03 1.383357e+03
         vertex 6.320491e+03 1.467553e+03 1.428629e+03
      endloop
   endfacet
   facet normal 0.000000e+00 -4.226153e-01 9.063092e-01
      outer loop
         vertex 6.320491e+03 1.467553e+03 1.428629e+03
         vertex 1.000000e+04 1.370466e+03 1.383357e+03
         vertex 1.000000e+04 1.467553e+03 1.428629e+03
      endloop
   endfacet
   facet normal 0.000000e+00 -5.735758e-01 8.191525e-01
      outer loop
         vertex 6.320491e+03 1.467553e+03 1.428629e+03
         vertex 1.000000e+04 1.467553e+03 1.428629e+03
         vertex 6.320491e+03 1.555303e+03 1.490072e+03
      endloop
   endfacet
   facet normal 0.000000e+00 -5.735758e-01 8.191525e-01
      outer loop
         vertex 6.320491e+03 1.555303e+03 1.490072e+03
         vertex 1.000000e+04 1.467553e+03 1.428629e+03
         vertex 1.000000e+04 1.555303e+03 1.490072e+03
      endloop
   endfacet
   facet normal 0.000000e+00 -7.071062e-01 7.071073e-01
      outer loop
         vertex 6.320491e+03 1.555303e+03 1.490072e+03
         vertex 1.000000e+04 1.555303e+03 1.490072e+03
         vertex 6.320491e+03 1.631051e+03 1.565820e+03
      endloop
   endfacet
   facet normal 0.000000e+00 -7.071062e-01 7.071073e-01
      outer loop
         vertex 6.320491e+03 1.631051e+03 1.565820e+03
         vertex 1.000000e+04 1.555303e+03 1.490072e+03
         vertex 1.000000e+04 1.631051e+03 1.565820e+03
      endloop
   endfacet
   facet normal 0.000000e+00 -8.191529e-01 5.735753e-01
      outer loop
         vertex 6.320491e+03 1.631051e+03 1.565820e+03
         vertex 1.000000e+04 1.631051e+03 1.565820e+03
         vertex 6.320491e+03 1.692494e+03 1.653570e+03
      endloop
   endfacet
   facet normal 0.000000e+00 -8.191529e-01 5.735753e-01
      outer loop
         vertex 6.320491e+03 1.692494e+03 1.653570e+03
         vertex 1.000000e+04 1.631051e+03 1.565820e+03
         vertex 1.000000e+04 1.692494e+03 1.653570e+03
      endloop
   endfacet
   facet normal 0.000000e+00 -9.063079e-01 4.226181e-01
      outer loop
         vertex 6.320491e+03 1.692494e+03 1.653570e+03
         vertex 1.000000e+04 1.692494e+03 1.653570e+03
         vertex 6.320491e+03 1.737767e+03 1.750657e+03
      endloop
   endfacet
   facet normal 0.000000e+00 -9.063079e-01 4.226181e-01
      outer loop
         vertex 6.320491e+03 1.737767e+03 1.750657e+03
         vertex 1.000000e+04 1.692494e+03 1.653570e+03
         vertex 1.000000e+04 1.737767e+03 1.750657e+03
      endloop
   endfacet
   facet normal 0.000000e+00 -9.659258e-01 2.588193e-01
      outer loop
         vertex 6.320491e+03 1.737767e+03 1.750657e+03
         vertex 1.000000e+04 1.737767e+03 1.750657e+03
         vertex 6.320491e+03 1.765492e+03 1.854130e+03
      endloop
   endfacet
   facet normal 0.000000e+00 -9.659258e-01 2.588193e-01
      outer loop
         vertex 6.320491e+03 1.765492e+03 1.854130e+03
         vertex 1.000000e+04 1.737767e+03 1.750657e+03
         vertex 1.000000e+04 1.765492e+03 1.854130e+03
      endloop
   endfacet
   facet normal 0.000000e+00 -9.961947e-01 8.715591e-02
      outer loop
         vertex 6.320491e+03 1.765492e+03 1.854130e+03
         vertex 1.000000e+04 1.765492e+03 1.854130e+03
         vertex 6.320491e+03 1.774829e+03 1.960846e+03
      endloop
   endfacet
   facet normal 0.000000e+00 -9.961947e-01 8.715591e-02
      outer loop
         vertex 6.320491e+03 1.774829e+03 1.960846e+03
         vertex 1.000000e+04 1.765492e+03 1.854130e+03
         vertex 1.000000e+04 1.774829e+03 1.960846e+03
      endloop
   endfacet
   facet normal 0.000000e+00 -9.961946e-01 -8.715629e-02
      outer loop
         vertex 6.320491e+03 1.774829e+03 1.960846e+03
         vertex 1.000000e+04 1.774829e+03 1.960846e+03
         vertex 6.320491e+03 1.765492e+03 2.067562e+03
      endloop
   endfacet
   facet normal 0.000000e+00 -9.961946e-01 -8.715629e-02
      outer loop
         vertex 6.320491e+03 1.765492e+03 2.067562e+03
         vertex 1.000000e+04 1.774829e+03 1.960846e+03
         vertex 1.000000e+04 1.765492e+03 2.067562e+03
      endloop
   endfacet
   facet normal 0.000000e+00 -9.659261e-01 -2.588182e-01
      outer loop
         vertex 6.320491e+03 1.765492e+03 2.067562e+03
         vertex 1.000000e+04 1.765492e+03 2.067562e+03
         vertex 6.320491e+03 1.737767e+03 2.171035e+03
      endloop
   endfacet
   facet normal 0.000000e+00 -9.659261e-01 -2.588182e-01
      outer loop
         vertex 6.320491e+03 1.737767e+03 2.171035e+03
         vertex 1.000000e+04 1.765492e+03 2.067562e+03
         vertex 1.000000e+04 1.737767e+03 2.171035e+03
      endloop
   endfacet
   facet normal 0.000000e+00 -9.063071e-01 -4.226198e-01
      outer loop
         vertex 6.320491e+03 1.737767e+03 2.171035e+03
         vertex 1.000000e+04 1.737767e+03 2.171035e+03
         vertex 6.320491e+03 1.692494e+03 2.268121e+03
      endloop
   endfacet
   facet normal 0.000000e+00 -9.063071e-01 -4.226198e-01
      outer loop
         vertex 6.320491e+03 1.692494e+03 2.268121e+03
         vertex 1.000000e+04 1.737767e+03 2.171035e+03
         vertex 1.000000e+04 1.692494e+03 2.268121e+03
      endloop
   endfacet
   facet normal 0.000000e+00 -8.191529e-01 -5.735753e-01
      outer loop
         vertex 6.320491e+03 1.692494e+03 2.268121e+03
         vertex 1.000000e+04 1.692494e+03 2.268121e+03
         vertex 6.320491e+03 1.631051e+03 2.355872e+03
      endloop
   endfacet
   facet normal 0.000000e+00 -8.191529e-01 -5.735753e-01
      outer loop
         vertex 6.320491e+03 1.631051e+03 2.355872e+03
         vertex 1.000000e+04 1.692494e+03 2.268121e+03
         vertex 1.000000e+04 1.631051e+03 2.355872e+03
      endloop
   endfacet
   facet normal 0.000000e+00 -7.071062e-01 -7.071073e-01
      outer loop
         vertex 6.320491e+03 1.631051e+03 2.355872e+03
         vertex 1.000000e+04 1.631051e+03 2.355872e+03
         vertex 6.320491e+03 1.555303e+03 2.431619e+03
      endloop
   endfacet
   facet normal 0.000000e+00 -7.071062e-01 -7.071073e-01
      outer loop
         vertex 6.320491e+03 1.555303e+03 2.431619e+03
         vertex 1.000000e+04 1.631051e+03 2.355872e+03
         vertex 1.000000e+04 1.555303e+03 2.431619e+03
      endloop
   endfacet
   facet normal 0.000000e+00 -5.735758e-01 -8.191525e-01
      outer loop
         vertex 6.320491e+03 1.555303e+03 2.431619e+03
         vertex 1.000000e+04 1.555303e+03 2.431619e+03
         vertex 6.320491e+03 1.467553e+03 2.493062e+03
      endloop
   endfacet
   facet normal 0.000000e+00 -5.735758e-01 -8.191525e-01
      outer loop
         vertex 6.320491e+03 1.467553e+03 2.493062e+03
         vertex 1.000000e+04 1.555303e+03 2.431619e+03
         vertex 1.000000e+04 1.467553e+03 2.493062e+03
      endloop
   endfacet
   facet normal 0.000000e+00 -4.226190e-01 -9.063075e-01
      outer loop
         vertex 6.320491e+03 1.467553e+03 2.493062e+03
         vertex 1.000000e+04 1.467553e+03 2.493062e+03
         vertex 6.320491e+03 1.370466e+03 2.538335e+03
      endloop
   endfacet
   facet normal 0.000000e+00 -4.226190e-01 -9.063075e-01
      outer loop
         vertex 6.320491e+03 1.370466e+03 2.538335e+03
         vertex 1.000000e+04 1.467553e+03 2.493062e+03
         vertex 1.000000e+04 1.370466e+03 2.538335e+03
      endloop
   endfacet
   facet normal 0.000000e+00 -2.588203e-01 -9.659255e-01
      outer loop
         vertex 6.320491e+03 1.370466e+03 2.538335e+03
         vertex 1.000000e+04 1.370466e+03 2.538335e+03
         vertex 6.320491e+03 1.266993e+03 2.566061e+03
      endloop
   endfacet
   facet normal 0.000000e+00 -2.588203e-01 -9.659255e-01
      outer loop
         vertex 6.320491e+03 1.266993e+03 2.566061e+03
         vertex 1.000000e+04 1.370466e+03 2.538335e+03
         vertex 1.000000e+04 1.266993e+03 2.566061e+03
      endloop
   endfacet
   facet normal 0.000000e+00 -8.715629e-02 -9.961946e-01
      outer loop
         vertex 6.320491e+03 1.266993e+03 2.566061e+03
         vertex 1.000000e+04 1.266993e+03 2.566061e+03
         vertex 6.320491e+03 1.160277e+03 2.575397e+03
      endloop
   endfacet
   facet normal 0.000000e+00 -8.715629e-02 -9.961946e-01
      outer loop
         vertex 6.320491e+03 1.160277e+03 2.575397e+03
         vertex 1.000000e+04 1.266993e+03 2.566061e+03
         vertex 1.000000e+04 1.160277e+03 2.575397e+03
      endloop
   endfacet
   facet normal -0.000000e+00 0.000000e+00 1.000000e+00
      outer loop
         vertex 6.320491e+03 1.160277e+03 1.346294e+03
         vertex 6.320491e+03 0.000000e+00 1.346294e+03
         vertex 1.000000e+04 1.160277e+03 1.346294e+03
      endloop
   endfacet
   facet normal 0.000000e+00 0.000000e+00 1.000000e+00
      outer loop
         vertex 1.000000e+04 1.160277e+03 1.346294e+03
         vertex 6.320491e+03 0.000000e+00 1.346294e+03
         vertex 1.000000e+04 0.000000e+00 1.346294e+03
      endloop
   endfacet
   facet normal 1.000000e+00 0.000000e+00 0.000000e+00
      outer loop
         vertex 6.320491e+03 1.160277e+03 2.575397e+03
         vertex 6.320491e+03 1.576976e-13 2.575397e+03
         vertex 6.320491e+03 8.243678e-14 1.346294e+03
      endloop
   endfacet
   facet normal 1.000000e+00 0.000000e+00 0.000000e+00
      outer loop
         vertex 6.320491e+03 8.243678e-14 1.346294e+03
         vertex 6.320491e+03 1.160277e+03 1.346294e+03
         vertex 6.320491e+03 1.160277e+03 2.575397e+03
      endloop
   endfacet
   facet normal 1.000000e+00 0.000000e+00 0.000000e+00
      outer loop
         vertex 6.320491e+03 1.160277e+03 2.575397e+03
         vertex 6.320491e+03 1.160277e+03 1.346294e+03
         vertex 6.320491e+03 1.266993e+03 1.355631e+03
      endloop
   endfacet
   facet normal 1.000000e+00 0.000000e+00 0.000000e+00
      outer loop
         vertex 6.320491e+03 1.160277e+03 2.575397e+03
         vertex 6.320491e+03 1.266993e+03 1.355631e+03
         vertex 6.320491e+03 1.370466e+03 1.383357e+03
      endloop
   endfacet
   facet normal 1.000000e+00 0.000000e+00 -0.000000e+00
      outer loop
         vertex 6.320491e+03 1.370466e+03 1.383357e+03
         vertex 6.320491e+03 1.467553e+03 1.428629e+03
         vertex 6.320491e+03 1.160277e+03 2.575397e+03
      endloop
   endfacet
   facet normal 1.000000e+00 0.000000e+00 0.000000e+00
      outer loop
         vertex 6.320491e+03 1.160277e+03 2.575397e+03
         vertex 6.320491e+03 1.467553e+03 1.428629e+03
         vertex 6.320491e+03 1.555303e+03 1.490072e+03
      endloop
   endfacet
   facet normal 1.000000e+00 0.000000e+00 0.000000e+00
      outer loop
         vertex 6.320491e+03 1.160277e+03 2.575397e+03
         vertex 6.320491e+03 1.555303e+03 1.490072e+03
         vertex 6.320491e+03 1.266993e+03 2.566061e+03
      endloop
   endfacet
   facet normal 1.000000e+00 0.000000e+00 0.000000e+00
      outer loop
         vertex 6.320491e+03 1.266993e+03 2.566061e+03
         vertex 6.320491e+03 1.555303e+03 1.490072e+03
         vertex 6.320491e+03 1.370466e+03 2.538335e+03
      endloop
   endfacet
   facet normal 1.000000e+00 0.000000e+00 -0.000000e+00
      outer loop
         vertex 6.320491e+03 1.737767e+03 1.750657e+03
         vertex 6.320491e+03 1.765492e+03 1.854130e+03
         vertex 6.320491e+03 1.692494e+03 2.268121e+03
      endloop
   endfacet
   facet normal 1.000000e+00 0.000000e+00 0.000000e+00
      outer loop
         vertex 6.320491e+03 1.737767e+03 1.750657e+03
         vertex 6.320491e+03 1.692494e+03 2.268121e+03
         vertex 6.320491e+03 1.692494e+03 1.653570e+03
      endloop
   endfacet
   facet normal 1.000000e+00 0.000000e+00 -0.000000e+00
      outer loop
         vertex 6.320491e+03 1.692494e+03 1.653570e+03
         vertex 6.320491e+03 1.692494e+03 2.268121e+03
         vertex 6.320491e+03 1.631051e+03 2.355872e+03
      endloop
   endfacet
   facet normal 1.000000e+00 0.000000e+00 0.000000e+00
      outer loop
         vertex 6.320491e+03 1.692494e+03 1.653570e+03
         vertex 6.320491e+03 1.631051e+03 2.355872e+03
         vertex 6.320491e+03 1.555303e+03 2.431619e+03
      endloop
   endfacet
   facet normal 1.000000e+00 0.000000e+00 -0.000000e+00
      outer loop
         vertex 6.320491e+03 1.555303e+03 1.490072e+03
         vertex 6.320491e+03 1.631051e+03 1.565820e+03
         vertex 6.320491e+03 1.370466e+03 2.538335e+03
      endloop
   endfacet
   facet normal 1.000000e+00 0.000000e+00 0.000000e+00
      outer loop
         vertex 6.320491e+03 1.370466e+03 2.538335e+03
         vertex 6.320491e+03 1.631051e+03 1.565820e+03
         vertex 6.320491e+03 1.692494e+03 1.653570e+03
      endloop
   endfacet
   facet normal 1.000000e+00 0.000000e+00 0.000000e+00
      outer loop
         vertex 6.320491e+03 1.370466e+03 2.538335e+03
         vertex 6.320491e+03 1.692494e+03 1.653570e+03
         vertex 6.320491e+03 1.467553e+03 2.493062e+03
      endloop
   endfacet
   facet normal 1.000000e+00 0.000000e+00 0.000000e+00
      outer loop
         vertex 6.320491e+03 1.467553e+03 2.493062e+03
         vertex 6.320491e+03 1.692494e+03 1.653570e+03
         vertex 6.320491e+03 1.555303e+03 2.431619e+03
      endloop
   endfacet
   facet normal 1.000000e+00 0.000000e+00 -0.000000e+00
      outer loop
         vertex 6.320491e+03 1.765492e+03 1.854130e+03
         vertex 6.320491e+03 1.774829e+03 1.960846e+03
         vertex 6.320491e+03 1.692494e+03 2.268121e+03
      endloop
   endfacet
   facet normal 1.000000e+00 0.000000e+00 0.000000e+00
      outer loop
         vertex 6.320491e+03 1.692494e+03 2.268121e+03
         vertex 6.320491e+03 1.774829e+03 1.960846e+03
         vertex 6.320491e+03 1.765492e+03 2.067562e+03
      endloop
   endfacet
   facet normal 1.000000e+00 0.000000e+00 0.000000e+00
      outer loop
         vertex 6.320491e+03 1.692494e+03 2.268121e+03
         vertex 6.320491e+03 1.765492e+03 2.067562e+03
         vertex 6.320491e+03 1.737767e+03 2.171035e+03
      endloop
   endfacet
   facet normal -4.773466e-01 -8.787151e-01 -1.106389e-17
      outer loop
         vertex 7.450959e-13 1.171148e+03 0.000000e+00
         vertex 2.155887e+03 4.440892e-13 0.000000e+00
         vertex 5.133169e-13 1.171148e+03 1.000000e+04
      endloop
   endfacet
   facet normal -4.773466e-01 -8.787151e-01 1.267040e-16
      outer loop
         vertex 5.133169e-13 1.171148e+03 1.000000e+04
         vertex 2.155887e+03 4.440892e-13 0.000000e+00
         vertex 2.155887e+03 1.668736e-12 1.000000e+04
      endloop
   endfacet
   facet normal 9.969173e-01 7.845895e-02 0.000000e+00
      outer loop
         vertex 1.000000e+04 7.420696e+03 1.000000e+04
         vertex 1.000000e+04 7.420696e+03 0.000000e+00
         vertex 9.968245e+03 7.824188e+03 0.000000e+00
      endloop
   endfacet
   facet normal 9.969173e-01 7.845895e-02 0.000000e+00
      outer loop
         vertex 1.000000e+04 7.420696e+03 1.000000e+04
         vertex 9.968245e+03 7.824188e+03 0.000000e+00
         vertex 9.968245e+03 7.824188e+03 1.000000e+04
      endloop
   endfacet
   facet normal 9.723701e-01 2.334448e-01 0.000000e+00
      outer loop
         vertex 9.968245e+03 7.824188e+03 1.000000e+04
         vertex 9.968245e+03 7.824188e+03 0.000000e+00
         vertex 9.873760e+03 8.217745e+03 0.000000e+00
      endloop
   endfacet
   facet normal 9.723701e-01 2.334448e-01 0.000000e+00
      outer loop
         vertex 9.968245e+03 7.824188e+03 1.000000e+04
         vertex 9.873760e+03 8.217745e+03 0.000000e+00
         vertex 9.873760e+03 8.217745e+03 1.000000e+04
      endloop
   endfacet
   facet normal 9.238796e-01 3.826833e-01 0.000000e+00
      outer loop
         vertex 9.873760e+03 8.217745e+03 1.000000e+04
         vertex 9.873760e+03 8.217745e+03 0.000000e+00
         vertex 9.718873e+03 8.591676e+03 0.000000e+00
      endloop
   endfacet
   facet normal 9.238796e-01 3.826833e-01 0.000000e+00
      outer loop
         vertex 9.873760e+03 8.217745e+03 1.000000e+04
         vertex 9.718873e+03 8.591676e+03 0.000000e+00
         vertex 9.718873e+03 8.591676e+03 1.000000e+04
      endloop
   endfacet
   facet normal 8.526399e-01 5.224991e-01 0.000000e+00
      outer loop
         vertex 9.718873e+03 8.591676e+03 1.000000e+04
         vertex 9.718873e+03 8.591676e+03 0.000000e+00
         vertex 9.507397e+03 8.936773e+03 0.000000e+00
      endloop
   endfacet
   facet normal 8.526399e-01 5.224991e-01 0.000000e+00
      outer loop
         vertex 9.718873e+03 8.591676e+03 1.000000e+04
         vertex 9.507397e+03 8.936773e+03 0.000000e+00
         vertex 9.507397e+03 8.936773e+03 1.000000e+04
      endloop
   endfacet
   facet normal 7.604054e-01 6.494487e-01 0.000000e+00
      outer loop
         vertex 9.507397e+03 8.936773e+03 1.000000e+04
         vertex 9.507397e+03 8.936773e+03 0.000000e+00
         vertex 9.244539e+03 9.244539e+03 0.000000e+00
      endloop
   endfacet
   facet normal 7.604054e-01 6.494487e-01 0.000000e+00
      outer loop
         vertex 9.507397e+03 8.936773e+03 1.000000e+04
         vertex 9.244539e+03 9.244539e+03 0.000000e+00
         vertex 9.244539e+03 9.244539e+03 1.000000e+04
      endloop
   endfacet
   facet normal 6.494487e-01 7.604054e-01 0.000000e+00
      outer loop
         vertex 9.244539e+03 9.244539e+03 1.000000e+04
         vertex 9.244539e+03 9.244539e+03 0.000000e+00
         vertex 8.936773e+03 9.507397e+03 0.000000e+00
      endloop
   endfacet
   facet normal 6.494487e-01 7.604054e-01 0.000000e+00
      outer loop
         vertex 9.244539e+03 9.244539e+03 1.000000e+04
         vertex 8.936773e+03 9.507397e+03 0.000000e+00
         vertex 8.936773e+03 9.507397e+03 1.000000e+04
      endloop
   endfacet
   facet normal 5.224991e-01 8.526399e-01 0.000000e+00
      outer loop
         vertex 8.936773e+03 9.507397e+03 1.000000e+04
         vertex 8.936773e+03 9.507397e+03 0.000000e+00
         vertex 8.591676e+03 9.718873e+03 0.000000e+00
      endloop
   endfacet
   facet normal 5.224991e-01 8.526399e-01 0.000000e+00
      outer loop
         vertex 8.936773e+03 9.507397e+03 1.000000e+04
         vertex 8.591676e+03 9.718873e+03 0.000000e+00
         vertex 8.591676e+03 9.718873e+03 1.000000e+04
      endloop
   endfacet
   facet normal 3.826833e-01 9.238796e-01 0.000000e+00
      outer loop
         vertex 8.591676e+03 9.718873e+03 1.000000e+04
         vertex 8.591676e+03 9.718873e+03 0.000000e+00
         vertex 8.217745e+03 9.873760e+03 0.000000e+00
      endloop
   endfacet
   facet normal 3.826833e-01 9.238796e-01 0.000000e+00
      outer loop
         vertex 8.591676e+03 9.718873e+03 1.000000e+04
         vertex 8.217745e+03 9.873760e+03 0.000000e+00
         vertex 8.217745e+03 9.873760e+03 1.000000e+04
      endloop
   endfacet
   facet normal 2.334448e-01 9.723701e-01 0.000000e+00
      outer loop
         vertex 8.217745e+03 9.873760e+03 1.000000e+04
         vertex 8.217745e+03 9.873760e+03 0.000000e+00
         vertex 7.824188e+03 9.968245e+03 0.000000e+00
      endloop
   endfacet
   facet normal 2.334448e-01 9.723701e-01 0.000000e+00
      outer loop
         vertex 8.217745e+03 9.873760e+03 1.000000e+04
         vertex 7.824188e+03 9.968245e+03 0.000000e+00
         vertex 7.824188e+03 9.968245e+03 1.000000e+04
      endloop
   endfacet
   facet normal 7.845895e-02 9.969173e-01 0.000000e+00
      outer loop
         vertex 7.824188e+03 9.968245e+03 1.000000e+04
         vertex 7.824188e+03 9.968245e+03 0.000000e+00
         vertex 7.420696e+03 1.000000e+04 0.000000e+00
      endloop
   endfacet
   facet normal 7.845895e-02 9.969173e-01 0.000000e+00
      outer loop
         vertex 7.824188e+03 9.968245e+03 1.000000e+04
         vertex 7.420696e+03 1.000000e+04 0.000000e+00
         vertex 7.420696e+03 1.000000e+04 1.000000e+04
      endloop
   endfacet
endsolid