solid 344
   facet normal 0.000000e+00 1.000000e+00 0.000000e+00
      outer loop
         vertex 0.000000e+00 1.000000e+04 2.062264e+03
         vertex 0.000000e+00 1.000000e+04 1.000000e+04
         vertex 6.611176e+03 1.000000e+04 2.062264e+03
      endloop
   endfacet
   facet normal 0.000000e+00 1.000000e+00 -0.000000e+00
      outer loop
         vertex 6.611176e+03 1.000000e+04 2.062264e+03
         vertex 0.000000e+00 1.000000e+04 1.000000e+04
         vertex 1.000000e+04 1.000000e+04 1.000000e+04
      endloop
   endfacet
   facet normal -0.000000e+00 1.000000e+00 0.000000e+00
      outer loop
         vertex 6.611176e+03 1.000000e+04 2.062264e+03
         vertex 1.000000e+04 1.000000e+04 1.000000e+04
         vertex 6.611176e+03 1.000000e+04 0.000000e+00
      endloop
   endfacet
   facet normal 0.000000e+00 1.000000e+00 0.000000e+00
      outer loop
         vertex 6.611176e+03 1.000000e+04 0.000000e+00
         vertex 1.000000e+04 1.000000e+04 1.000000e+04
         vertex 1.000000e+04 1.000000e+04 0.000000e+00
      endloop
   endfacet
   facet normal -1.000000e+00 -6.123231e-17 -6.123233e-17
      outer loop
         vertex 1.512025e-12 5.306764e+03 0.000000e+00
         vertex 1.836970e-12 0.000000e+00 0.000000e+00
         vertex 1.385747e-12 5.306764e+03 2.062264e+03
      endloop
   endfacet
   facet normal -1.000000e+00 -6.123232e-17 -6.123233e-17
      outer loop
         vertex 1.385747e-12 5.306764e+03 2.062264e+03
         vertex 1.836970e-12 0.000000e+00 0.000000e+00
         vertex 1.224647e-12 0.000000e+00 1.000000e+04
      endloop
   endfacet
   facet normal -1.000000e+00 -6.123235e-17 -6.123235e-17
      outer loop
         vertex 1.385747e-12 5.306764e+03 2.062264e+03
         vertex 1.224647e-12 0.000000e+00 1.000000e+04
         vertex 1.098370e-12 1.000000e+04 2.062264e+03
      endloop
   endfacet
   facet normal -1.000000e+00 -6.123234e-17 -6.123234e-17
      outer loop
         vertex 1.098370e-12 1.000000e+04 2.062264e+03
         vertex 1.224647e-12 0.000000e+00 1.000000e+04
         vertex 6.123234e-13 1.000000e+04 1.000000e+04
      endloop
   endfacet
   facet normal 6.123234e-17 -1.000000e+00 -6.123234e-17
      outer loop
         vertex 1.000000e+04 0.000000e+00 1.000000e+04
         vertex 1.776357e-12 -6.123234e-13 1.000000e+04
         vertex 1.000000e+04 6.123234e-13 0.000000e+00
      endloop
   endfacet
   facet normal 6.123234e-17 -1.000000e+00 -6.123234e-17
      outer loop
         vertex 1.000000e+04 6.123234e-13 0.000000e+00
         vertex 1.776357e-12 -6.123234e-13 1.000000e+04
         vertex 1.776357e-12 9.860761e-29 0.000000e+00
      endloop
   endfacet
   facet normal 1.000000e+00 0.000000e+00 0.000000e+00
      outer loop
         vertex 1.000000e+04 1.000000e+04 1.000000e+04
         vertex 1.000000e+04 0.000000e+00 1.000000e+04
         vertex 1.000000e+04 1.000000e+04 0.000000e+00
      endloop
   endfacet
   facet normal 1.000000e+00 0.000000e+00 0.000000e+00
      outer loop
         vertex 1.000000e+04 1.000000e+04 0.000000e+00
         vertex 1.000000e+04 0.000000e+00 1.000000e+04
         vertex 1.000000e+04 0.000000e+00 0.000000e+00
      endloop
   endfacet
   facet normal -6.123234e-17 -6.123234e-17 1.000000e+00
      outer loop
         vertex 1.000000e+04 1.000000e+04 1.000000e+04
         vertex 0.000000e+00 1.000000e+04 1.000000e+04
         vertex 6.945220e+03 7.132582e+03 1.000000e+04
      endloop
   endfacet
   facet normal -6.123235e-17 -6.123233e-17 1.000000e+00
      outer loop
         vertex 6.945220e+03 7.132582e+03 1.000000e+04
         vertex 8.361575e+03 7.132582e+03 1.000000e+04
         vertex 1.000000e+04 1.000000e+04 1.000000e+04
      endloop
   endfacet
   facet normal -6.123233e-17 -6.123234e-17 1.000000e+00
      outer loop
         vertex 1.000000e+04 1.000000e+04 1.000000e+04
         vertex 8.361575e+03 7.132582e+03 1.000000e+04
         vertex 9.069753e+03 5.905982e+03 1.000000e+04
      endloop
   endfacet
   facet normal -6.123232e-17 -6.123234e-17 1.000000e+00
      outer loop
         vertex 1.000000e+04 1.000000e+04 1.000000e+04
         vertex 9.069753e+03 5.905982e+03 1.000000e+04
         vertex 1.000000e+04 -3.749399e-29 1.000000e+04
      endloop
   endfacet
   facet normal -6.123232e-17 -6.123234e-17 1.000000e+00
      outer loop
         vertex 1.000000e+04 -3.749399e-29 1.000000e+04
         vertex 9.069753e+03 5.905982e+03 1.000000e+04
         vertex 8.361575e+03 4.679383e+03 1.000000e+04
      endloop
   endfacet
   facet normal -6.123234e-17 -6.123235e-17 1.000000e+00
      outer loop
         vertex 1.000000e+04 -3.749399e-29 1.000000e+04
         vertex 8.361575e+03 4.679383e+03 1.000000e+04
         vertex 1.776357e-12 -6.123234e-13 1.000000e+04
      endloop
   endfacet
   facet normal -6.123237e-17 -6.123230e-17 1.000000e+00
      outer loop
         vertex 1.776357e-12 -6.123234e-13 1.000000e+04
         vertex 8.361575e+03 4.679383e+03 1.000000e+04
         vertex 6.945220e+03 4.679383e+03 1.000000e+04
      endloop
   endfacet
   facet normal -6.123234e-17 -6.123234e-17 1.000000e+00
      outer loop
         vertex 1.776357e-12 -6.123234e-13 1.000000e+04
         vertex 6.945220e+03 4.679383e+03 1.000000e+04
         vertex 0.000000e+00 1.000000e+04 1.000000e+04
      endloop
   endfacet
   facet normal -6.123234e-17 -6.123234e-17 1.000000e+00
      outer loop
         vertex 0.000000e+00 1.000000e+04 1.000000e+04
         vertex 6.945220e+03 4.679383e+03 1.000000e+04
         vertex 6.237043e+03 5.905982e+03 1.000000e+04
      endloop
   endfacet
   facet normal -6.123234e-17 -6.123235e-17 1.000000e+00
      outer loop
         vertex 0.000000e+00 1.000000e+04 1.000000e+04
         vertex 6.237043e+03 5.905982e+03 1.000000e+04
         vertex 6.945220e+03 7.132582e+03 1.000000e+04
      endloop
   endfacet
   facet normal 0.000000e+00 0.000000e+00 -1.000000e+00
      outer loop
         vertex 1.776357e-12 5.306764e+03 0.000000e+00
         vertex 6.583002e+03 5.306764e+03 0.000000e+00
         vertex 1.776357e-12 -6.123234e-13 0.000000e+00
      endloop
   endfacet
   facet normal 0.000000e+00 0.000000e+00 -1.000000e+00
      outer loop
         vertex 1.776357e-12 -6.123234e-13 0.000000e+00
         vertex 6.583002e+03 5.306764e+03 0.000000e+00
         vertex 6.945220e+03 4.679383e+03 0.000000e+00
      endloop
   endfacet
   facet normal 0.000000e+00 0.000000e+00 -1.000000e+00
      outer loop
         vertex 1.776357e-12 -6.123234e-13 0.000000e+00
         vertex 6.945220e+03 4.679383e+03 0.000000e+00
         vertex 1.000000e+04 -3.749399e-29 0.000000e+00
      endloop
   endfacet
   facet normal 0.000000e+00 0.000000e+00 -1.000000e+00
      outer loop
         vertex 6.945220e+03 4.679383e+03 0.000000e+00
         vertex 8.361575e+03 4.679383e+03 0.000000e+00
         vertex 1.000000e+04 -3.749399e-29 0.000000e+00
      endloop
   endfacet
   facet normal 0.000000e+00 0.000000e+00 -1.000000e+00
      outer loop
         vertex 1.000000e+04 -3.749399e-29 0.000000e+00
         vertex 8.361575e+03 4.679383e+03 0.000000e+00
         vertex 9.069753e+03 5.905982e+03 0.000000e+00
      endloop
   endfacet
   facet normal 0.000000e+00 0.000000e+00 -1.000000e+00
      outer loop
         vertex 1.000000e+04 -3.749399e-29 0.000000e+00
         vertex 9.069753e+03 5.905982e+03 0.000000e+00
         vertex 1.000000e+04 1.000000e+04 0.000000e+00
      endloop
   endfacet
   facet normal 0.000000e+00 0.000000e+00 -1.000000e+00
      outer loop
         vertex 1.000000e+04 1.000000e+04 0.000000e+00
         vertex 9.069753e+03 5.905982e+03 0.000000e+00
         vertex 8.361575e+03 7.132582e+03 0.000000e+00
      endloop
   endfacet
   facet normal -0.000000e+00 0.000000e+00 -1.000000e+00
      outer loop
         vertex 1.000000e+04 1.000000e+04 0.000000e+00
         vertex 8.361575e+03 7.132582e+03 0.000000e+00
         vertex 6.611176e+03 1.000000e+04 0.000000e+00
      endloop
   endfacet
   facet normal 0.000000e+00 0.000000e+00 -1.000000e+00
      outer loop
         vertex 6.611176e+03 1.000000e+04 0.000000e+00
         vertex 8.361575e+03 7.132582e+03 0.000000e+00
         vertex 6.945220e+03 7.132582e+03 0.000000e+00
      endloop
   endfacet
   facet normal 0.000000e+00 0.000000e+00 -1.000000e+00
      outer loop
         vertex 6.611176e+03 1.000000e+04 0.000000e+00
         vertex 6.945220e+03 7.132582e+03 0.000000e+00
         vertex 6.611176e+03 6.553998e+03 0.000000e+00
      endloop
   endfacet
   facet normal 8.660256e-01 4.999996e-01 0.000000e+00
      outer loop
         vertex 6.945220e+03 4.679383e+03 0.000000e+00
         vertex 6.583002e+03 5.306764e+03 0.000000e+00
         vertex 6.583002e+03 5.306764e+03 2.062264e+03
      endloop
   endfacet
   facet normal 8.660252e-01 5.000003e-01 -0.000000e+00
      outer loop
         vertex 6.237043e+03 5.905982e+03 2.062264e+03
         vertex 6.237043e+03 5.905982e+03 1.000000e+04
         vertex 6.583002e+03 5.306764e+03 2.062264e+03
      endloop
   endfacet
   facet normal 8.660254e-01 4.999999e-01 3.789817e-08
      outer loop
         vertex 6.583002e+03 5.306764e+03 2.062264e+03
         vertex 6.237043e+03 5.905982e+03 1.000000e+04
         vertex 6.945220e+03 4.679383e+03 1.000000e+04
      endloop
   endfacet
   facet normal 8.660256e-01 4.999996e-01 0.000000e+00
      outer loop
         vertex 6.583002e+03 5.306764e+03 2.062264e+03
         vertex 6.945220e+03 4.679383e+03 1.000000e+04
         vertex 6.945220e+03 4.679383e+03 0.000000e+00
      endloop
   endfacet
   facet normal 0.000000e+00 1.000000e+00 0.000000e+00
      outer loop
         vertex 6.945220e+03 4.679383e+03 1.000000e+04
         vertex 8.361575e+03 4.679383e+03 1.000000e+04
         vertex 6.945220e+03 4.679383e+03 0.000000e+00
      endloop
   endfacet
   facet normal 0.000000e+00 1.000000e+00 0.000000e+00
      outer loop
         vertex 6.945220e+03 4.679383e+03 0.000000e+00
         vertex 8.361575e+03 4.679383e+03 1.000000e+04
         vertex 8.361575e+03 4.679383e+03 0.000000e+00
      endloop
   endfacet
   facet normal -8.660254e-01 4.999999e-01 0.000000e+00
      outer loop
         vertex 8.361575e+03 4.679383e+03 1.000000e+04
         vertex 9.069753e+03 5.905982e+03 1.000000e+04
         vertex 8.361575e+03 4.679383e+03 0.000000e+00
      endloop
   endfacet
   facet normal -8.660254e-01 4.999999e-01 0.000000e+00
      outer loop
         vertex 8.361575e+03 4.679383e+03 0.000000e+00
         vertex 9.069753e+03 5.905982e+03 1.000000e+04
         vertex 9.069753e+03 5.905982e+03 0.000000e+00
      endloop
   endfacet
   facet normal -8.660253e-01 -5.000001e-01 -0.000000e+00
      outer loop
         vertex 9.069753e+03 5.905982e+03 1.000000e+04
         vertex 8.361575e+03 7.132582e+03 1.000000e+04
         vertex 9.069753e+03 5.905982e+03 0.000000e+00
      endloop
   endfacet
   facet normal -8.660253e-01 -5.000001e-01 0.000000e+00
      outer loop
         vertex 9.069753e+03 5.905982e+03 0.000000e+00
         vertex 8.361575e+03 7.132582e+03 1.000000e+04
         vertex 8.361575e+03 7.132582e+03 0.000000e+00
      endloop
   endfacet
   facet normal 0.000000e+00 -1.000000e+00 -0.000000e+00
      outer loop
         vertex 8.361575e+03 7.132582e+03 1.000000e+04
         vertex 6.945220e+03 7.132582e+03 1.000000e+04
         vertex 8.361575e+03 7.132582e+03 0.000000e+00
      endloop
   endfacet
   facet normal 0.000000e+00 -1.000000e+00 0.000000e+00
      outer loop
         vertex 8.361575e+03 7.132582e+03 0.000000e+00
         vertex 6.945220e+03 7.132582e+03 1.000000e+04
         vertex 6.945220e+03 7.132582e+03 0.000000e+00
      endloop
   endfacet
   facet normal 8.660256e-01 -4.999997e-01 0.000000e+00
      outer loop
         vertex 6.611176e+03 6.553998e+03 0.000000e+00
         vertex 6.945220e+03 7.132582e+03 0.000000e+00
         vertex 6.611176e+03 6.553998e+03 2.062264e+03
      endloop
   endfacet
   facet normal 8.660256e-01 -4.999997e-01 0.000000e+00
      outer loop
         vertex 6.611176e+03 6.553998e+03 2.062264e+03
         vertex 6.945220e+03 7.132582e+03 0.000000e+00
         vertex 6.945220e+03 7.132582e+03 1.000000e+04
      endloop
   endfacet
   facet normal 8.660252e-01 -5.000004e-01 7.034664e-08
      outer loop
         vertex 6.611176e+03 6.553998e+03 2.062264e+03
         vertex 6.945220e+03 7.132582e+03 1.000000e+04
         vertex 6.237043e+03 5.905982e+03 2.062264e+03
      endloop
   endfacet
   facet normal 8.660253e-01 -5.000001e-01 0.000000e+00
      outer loop
         vertex 6.237043e+03 5.905982e+03 2.062264e+03
         vertex 6.945220e+03 7.132582e+03 1.000000e+04
         vertex 6.237043e+03 5.905982e+03 1.000000e+04
      endloop
   endfacet
   facet normal -0.000000e+00 1.000000e+00 0.000000e+00
      outer loop
         vertex 1.025979e-12 5.306764e+03 2.062264e+03
         vertex 6.583002e+03 5.306764e+03 2.062264e+03
         vertex 8.997012e-13 5.306764e+03 0.000000e+00
      endloop
   endfacet
   facet normal 0.000000e+00 1.000000e+00 0.000000e+00
      outer loop
         vertex 8.997012e-13 5.306764e+03 0.000000e+00
         vertex 6.583002e+03 5.306764e+03 2.062264e+03
         vertex 6.583002e+03 5.306764e+03 0.000000e+00
      endloop
   endfacet
   facet normal -1.000000e+00 0.000000e+00 0.000000e+00
      outer loop
         vertex 6.611176e+03 1.000000e+04 0.000000e+00
         vertex 6.611176e+03 6.553998e+03 0.000000e+00
         vertex 6.611176e+03 1.000000e+04 2.062264e+03
      endloop
   endfacet
   facet normal -1.000000e+00 -0.000000e+00 0.000000e+00
      outer loop
         vertex 6.611176e+03 1.000000e+04 2.062264e+03
         vertex 6.611176e+03 6.553998e+03 0.000000e+00
         vertex 6.611176e+03 6.553998e+03 2.062264e+03
      endloop
   endfacet
   facet normal 0.000000e+00 -0.000000e+00 -1.000000e+00
      outer loop
         vertex 6.237043e+03 5.905982e+03 2.062264e+03
         vertex 6.583002e+03 5.306764e+03 2.062264e+03
         vertex 1.025979e-12 5.306764e+03 2.062264e+03
      endloop
   endfacet
   facet normal -0.000000e+00 0.000000e+00 -1.000000e+00
      outer loop
         vertex 6.237043e+03 5.905982e+03 2.062264e+03
         vertex 1.025979e-12 5.306764e+03 2.062264e+03
         vertex 6.611176e+03 6.553998e+03 2.062264e+03
      endloop
   endfacet
   facet normal -0.000000e+00 0.000000e+00 -1.000000e+00
      outer loop
         vertex 6.611176e+03 6.553998e+03 2.062264e+03
         vertex 1.025979e-12 5.306764e+03 2.062264e+03
         vertex 7.386007e-13 1.000000e+04 2.062264e+03
      endloop
   endfacet
   facet normal 0.000000e+00 0.000000e+00 -1.000000e+00
      outer loop
         vertex 6.611176e+03 6.553998e+03 2.062264e+03
         vertex 7.386007e-13 1.000000e+04 2.062264e+03
         vertex 6.611176e+03 1.000000e+04 2.062264e+03
      endloop
   endfacet
endsolid