solid 368
   facet normal 0.000000e+00 0.000000e+00 -1.000000e+00
      outer loop
         vertex 0.000000e+00 1.000000e+04 0.000000e+00
         vertex 1.000000e+04 1.000000e+04 0.000000e+00
         vertex 0.000000e+00 6.123234e-13 0.000000e+00
      endloop
   endfacet
   facet normal 0.000000e+00 0.000000e+00 -1.000000e+00
      outer loop
         vertex 0.000000e+00 6.123234e-13 0.000000e+00
         vertex 1.000000e+04 1.000000e+04 0.000000e+00
         vertex 1.000000e+04 -3.749399e-29 0.000000e+00
      endloop
   endfacet
   facet normal -1.000000e+00 6.123234e-17 1.836970e-16
      outer loop
         vertex -6.123234e-13 0.000000e+00 0.000000e+00
         vertex -3.197865e-13 2.274061e+03 8.344765e+02
         vertex -2.372752e-13 3.621573e+03 8.344765e+02
      endloop
   endfacet
   facet normal -1.000000e+00 6.123232e-17 1.836970e-16
      outer loop
         vertex -3.197865e-13 2.274061e+03 8.344765e+02
         vertex -6.123234e-13 0.000000e+00 0.000000e+00
         vertex 1.262109e-12 2.274061e+03 9.445916e+03
      endloop
   endfacet
   facet normal -1.000000e+00 6.123235e-17 1.836970e-16
      outer loop
         vertex 1.262109e-12 2.274061e+03 9.445916e+03
         vertex -6.123234e-13 0.000000e+00 0.000000e+00
         vertex 1.224647e-12 -2.249640e-28 1.000000e+04
      endloop
   endfacet
   facet normal -1.000000e+00 6.123230e-17 1.836968e-16
      outer loop
         vertex 1.262109e-12 2.274061e+03 9.445916e+03
         vertex 1.224647e-12 -2.249640e-28 1.000000e+04
         vertex 1.344621e-12 3.621573e+03 9.445916e+03
      endloop
   endfacet
   facet normal -1.000000e+00 6.123233e-17 1.836970e-16
      outer loop
         vertex 1.344621e-12 3.621573e+03 9.445916e+03
         vertex 1.224647e-12 -2.249640e-28 1.000000e+04
         vertex 1.836970e-12 1.000000e+04 1.000000e+04
      endloop
   endfacet
   facet normal -1.000000e+00 6.123233e-17 1.836970e-16
      outer loop
         vertex 1.344621e-12 3.621573e+03 9.445916e+03
         vertex 1.836970e-12 1.000000e+04 1.000000e+04
         vertex -2.372752e-13 3.621573e+03 8.344765e+02
      endloop
   endfacet
   facet normal -1.000000e+00 6.123234e-17 1.836970e-16
      outer loop
         vertex -2.372752e-13 3.621573e+03 8.344765e+02
         vertex 1.836970e-12 1.000000e+04 1.000000e+04
         vertex 0.000000e+00 1.000000e+04 0.000000e+00
      endloop
   endfacet
   facet normal -1.000000e+00 6.123234e-17 1.836970e-16
      outer loop
         vertex -2.372752e-13 3.621573e+03 8.344765e+02
         vertex 0.000000e+00 1.000000e+04 0.000000e+00
         vertex -6.123234e-13 0.000000e+00 0.000000e+00
      endloop
   endfacet
   facet normal 1.836970e-16 0.000000e+00 1.000000e+00
      outer loop
         vertex 1.000000e+04 1.000000e+04 1.000000e+04
         vertex 0.000000e+00 1.000000e+04 1.000000e+04
         vertex 1.000000e+04 -3.749399e-29 1.000000e+04
      endloop
   endfacet
   facet normal 1.836970e-16 0.000000e+00 1.000000e+00
      outer loop
         vertex 1.000000e+04 -3.749399e-29 1.000000e+04
         vertex 0.000000e+00 1.000000e+04 1.000000e+04
         vertex 0.000000e+00 6.123234e-13 1.000000e+04
      endloop
   endfacet
   facet normal 1.000000e+00 -0.000000e+00 0.000000e+00
      outer loop
         vertex 1.000000e+04 -1.417133e-29 6.299381e+02
         vertex 1.000000e+04 0.000000e+00 0.000000e+00
         vertex 1.000000e+04 2.509934e+03 6.299381e+02
      endloop
   endfacet
   facet normal 1.000000e+00 0.000000e+00 0.000000e+00
      outer loop
         vertex 1.000000e+04 2.509934e+03 6.299381e+02
         vertex 1.000000e+04 0.000000e+00 0.000000e+00
         vertex 1.000000e+04 1.000000e+04 0.000000e+00
      endloop
   endfacet
   facet normal 1.000000e+00 -0.000000e+00 0.000000e+00
      outer loop
         vertex 1.000000e+04 2.509934e+03 6.299381e+02
         vertex 1.000000e+04 1.000000e+04 0.000000e+00
         vertex 1.000000e+04 2.509934e+03 1.740541e+03
      endloop
   endfacet
   facet normal 1.000000e+00 -0.000000e+00 0.000000e+00
      outer loop
         vertex 1.000000e+04 2.509934e+03 1.740541e+03
         vertex 1.000000e+04 1.000000e+04 0.000000e+00
         vertex 1.000000e+04 1.000000e+04 1.000000e+04
      endloop
   endfacet
   facet normal 1.000000e+00 0.000000e+00 -0.000000e+00
      outer loop
         vertex 1.000000e+04 2.509934e+03 1.740541e+03
         vertex 1.000000e+04 1.000000e+04 1.000000e+04
         vertex 1.000000e+04 -3.915589e-29 1.740541e+03
      endloop
   endfacet
   facet normal 1.000000e+00 0.000000e+00 -0.000000e+00
      outer loop
         vertex 1.000000e+04 -3.915589e-29 1.740541e+03
         vertex 1.000000e+04 1.000000e+04 1.000000e+04
         vertex 1.000000e+04 -2.249640e-28 1.000000e+04
      endloop
   endfacet
   facet normal 0.000000e+00 1.000000e+00 0.000000e+00
      outer loop
         vertex 0.000000e+00 1.000000e+04 1.000000e+04
         vertex 1.000000e+04 1.000000e+04 1.000000e+04
         vertex 0.000000e+00 1.000000e+04 0.000000e+00
      endloop
   endfacet
   facet normal 0.000000e+00 1.000000e+00 0.000000e+00
      outer loop
         vertex 0.000000e+00 1.000000e+04 0.000000e+00
         vertex 1.000000e+04 1.000000e+04 1.000000e+04
         vertex 1.000000e+04 1.000000e+04 0.000000e+00
      endloop
   endfacet
   facet normal -6.123234e-17 -1.000000e+00 -1.124819e-32
      outer loop
         vertex 1.000000e+04 3.749399e-29 0.000000e+00
         vertex 1.000000e+04 3.040833e-29 6.299381e+02
         vertex 2.917999e+03 4.336475e-13 6.299381e+02
      endloop
   endfacet
   facet normal -6.123234e-17 -1.000000e+00 -1.124820e-32
      outer loop
         vertex 1.000000e+04 1.791605e-29 1.740541e+03
         vertex 1.000000e+04 -7.498799e-29 1.000000e+04
         vertex 2.917999e+03 4.336475e-13 1.740541e+03
      endloop
   endfacet
   facet normal -6.123234e-17 -1.000000e+00 -1.364694e-24
      outer loop
         vertex 2.917999e+03 4.336475e-13 1.740541e+03
         vertex 1.000000e+04 -7.498799e-29 1.000000e+04
         vertex 0.000000e+00 6.123234e-13 1.000000e+04
      endloop
   endfacet
   facet normal -6.123234e-17 -1.000000e+00 -0.000000e+00
      outer loop
         vertex 2.917999e+03 4.336475e-13 1.740541e+03
         vertex 0.000000e+00 6.123234e-13 1.000000e+04
         vertex 2.917999e+03 4.336475e-13 6.299381e+02
      endloop
   endfacet
   facet normal -6.123234e-17 -1.000000e+00 0.000000e+00
      outer loop
         vertex 2.917999e+03 4.336475e-13 6.299381e+02
         vertex 0.000000e+00 6.123234e-13 1.000000e+04
         vertex 0.000000e+00 6.123234e-13 0.000000e+00
      endloop
   endfacet
   facet normal -6.123234e-17 -1.000000e+00 1.789324e-23
      outer loop
         vertex 2.917999e+03 4.336475e-13 6.299381e+02
         vertex 0.000000e+00 6.123234e-13 0.000000e+00
         vertex 1.000000e+04 3.749399e-29 0.000000e+00
      endloop
   endfacet
   facet normal 0.000000e+00 0.000000e+00 1.000000e+00
      outer loop
         vertex 1.000000e+04 2.509934e+03 6.299381e+02
         vertex 2.917999e+03 2.509934e+03 6.299381e+02
         vertex 1.000000e+04 -9.410744e-30 6.299381e+02
      endloop
   endfacet
   facet normal 0.000000e+00 0.000000e+00 1.000000e+00
      outer loop
         vertex 1.000000e+04 -9.410744e-30 6.299381e+02
         vertex 2.917999e+03 2.509934e+03 6.299381e+02
         vertex 2.917999e+03 4.336475e-13 6.299381e+02
      endloop
   endfacet
   facet normal 1.000000e+00 0.000000e+00 -0.000000e+00
      outer loop
         vertex 2.917999e+03 2.509934e+03 6.299381e+02
         vertex 2.917999e+03 2.509934e+03 8.344765e+02
         vertex 2.917999e+03 2.274061e+03 8.344765e+02
      endloop
   endfacet
   facet normal 1.000000e+00 0.000000e+00 0.000000e+00
      outer loop
         vertex 2.917999e+03 2.274061e+03 1.740541e+03
         vertex 2.917999e+03 4.440892e-13 1.740541e+03
         vertex 2.917999e+03 2.274061e+03 8.344765e+02
      endloop
   endfacet
   facet normal 1.000000e+00 0.000000e+00 0.000000e+00
      outer loop
         vertex 2.917999e+03 2.274061e+03 8.344765e+02
         vertex 2.917999e+03 4.440892e-13 1.740541e+03
         vertex 2.917999e+03 4.440892e-13 6.299381e+02
      endloop
   endfacet
   facet normal 1.000000e+00 0.000000e+00 0.000000e+00
      outer loop
         vertex 2.917999e+03 2.274061e+03 8.344765e+02
         vertex 2.917999e+03 4.440892e-13 6.299381e+02
         vertex 2.917999e+03 2.509934e+03 6.299381e+02
      endloop
   endfacet
   facet normal 0.000000e+00 0.000000e+00 -1.000000e+00
      outer loop
         vertex 3.210071e+03 2.509934e+03 1.740541e+03
         vertex 1.000000e+04 2.509934e+03 1.740541e+03
         vertex 3.210071e+03 2.274061e+03 1.740541e+03
      endloop
   endfacet
   facet normal 0.000000e+00 0.000000e+00 -1.000000e+00
      outer loop
         vertex 3.210071e+03 2.274061e+03 1.740541e+03
         vertex 1.000000e+04 2.509934e+03 1.740541e+03
         vertex 1.000000e+04 -9.410744e-30 1.740541e+03
      endloop
   endfacet
   facet normal -0.000000e+00 -0.000000e+00 -1.000000e+00
      outer loop
         vertex 3.210071e+03 2.274061e+03 1.740541e+03
         vertex 1.000000e+04 -9.410744e-30 1.740541e+03
         vertex 2.917999e+03 2.274061e+03 1.740541e+03
      endloop
   endfacet
   facet normal 0.000000e+00 0.000000e+00 -1.000000e+00
      outer loop
         vertex 2.917999e+03 2.274061e+03 1.740541e+03
         vertex 1.000000e+04 -9.410744e-30 1.740541e+03
         vertex 2.917999e+03 4.336475e-13 1.740541e+03
      endloop
   endfacet
   facet normal 0.000000e+00 -1.000000e+00 0.000000e+00
      outer loop
         vertex 2.917999e+03 2.509934e+03 8.344765e+02
         vertex 2.917999e+03 2.509934e+03 6.299381e+02
         vertex 3.210071e+03 2.509934e+03 8.344765e+02
      endloop
   endfacet
   facet normal 0.000000e+00 -1.000000e+00 -0.000000e+00
      outer loop
         vertex 3.210071e+03 2.509934e+03 8.344765e+02
         vertex 2.917999e+03 2.509934e+03 6.299381e+02
         vertex 1.000000e+04 2.509934e+03 6.299381e+02
      endloop
   endfacet
   facet normal 0.000000e+00 -1.000000e+00 0.000000e+00
      outer loop
         vertex 3.210071e+03 2.509934e+03 8.344765e+02
         vertex 1.000000e+04 2.509934e+03 6.299381e+02
         vertex 3.210071e+03 2.509934e+03 1.740541e+03
      endloop
   endfacet
   facet normal 0.000000e+00 -1.000000e+00 0.000000e+00
      outer loop
         vertex 3.210071e+03 2.509934e+03 1.740541e+03
         vertex 1.000000e+04 2.509934e+03 6.299381e+02
         vertex 1.000000e+04 2.509934e+03 1.740541e+03
      endloop
   endfacet
   facet normal 0.000000e+00 1.000000e+00 -0.000000e+00
      outer loop
         vertex 2.917999e+03 2.274061e+03 8.344765e+02
         vertex -8.320943e-14 2.274061e+03 8.344765e+02
         vertex 2.917999e+03 2.274061e+03 1.740541e+03
      endloop
   endfacet
   facet normal 0.000000e+00 1.000000e+00 0.000000e+00
      outer loop
         vertex 2.917999e+03 2.274061e+03 1.740541e+03
         vertex -8.320943e-14 2.274061e+03 8.344765e+02
         vertex 1.560473e-30 2.274061e+03 9.445916e+03
      endloop
   endfacet
   facet normal 0.000000e+00 1.000000e+00 -0.000000e+00
      outer loop
         vertex 2.917999e+03 2.274061e+03 1.740541e+03
         vertex 1.560473e-30 2.274061e+03 9.445916e+03
         vertex 3.210071e+03 2.274061e+03 1.740541e+03
      endloop
   endfacet
   facet normal 0.000000e+00 1.000000e+00 -0.000000e+00
      outer loop
         vertex 3.210071e+03 2.274061e+03 1.740541e+03
         vertex 1.560473e-30 2.274061e+03 9.445916e+03
         vertex 3.210071e+03 2.274061e+03 9.445916e+03
      endloop
   endfacet
   facet normal 0.000000e+00 -0.000000e+00 1.000000e+00
      outer loop
         vertex 3.210071e+03 2.509934e+03 8.344765e+02
         vertex 3.210071e+03 3.621573e+03 8.344765e+02
         vertex 2.917999e+03 2.509934e+03 8.344765e+02
      endloop
   endfacet
   facet normal 0.000000e+00 -0.000000e+00 1.000000e+00
      outer loop
         vertex 2.917999e+03 2.509934e+03 8.344765e+02
         vertex 3.210071e+03 3.621573e+03 8.344765e+02
         vertex 6.062713e-29 3.621573e+03 8.344765e+02
      endloop
   endfacet
   facet normal 0.000000e+00 0.000000e+00 1.000000e+00
      outer loop
         vertex 2.917999e+03 2.509934e+03 8.344765e+02
         vertex 6.062713e-29 3.621573e+03 8.344765e+02
         vertex 2.917999e+03 2.274061e+03 8.344765e+02
      endloop
   endfacet
   facet normal 0.000000e+00 0.000000e+00 1.000000e+00
      outer loop
         vertex 2.917999e+03 2.274061e+03 8.344765e+02
         vertex 6.062713e-29 3.621573e+03 8.344765e+02
         vertex -1.650227e-13 2.274061e+03 8.344765e+02
      endloop
   endfacet
   facet normal -1.000000e+00 0.000000e+00 0.000000e+00
      outer loop
         vertex 3.210071e+03 3.621573e+03 8.344765e+02
         vertex 3.210071e+03 2.509934e+03 8.344765e+02
         vertex 3.210071e+03 2.509934e+03 1.740541e+03
      endloop
   endfacet
   facet normal -1.000000e+00 0.000000e+00 0.000000e+00
      outer loop
         vertex 3.210071e+03 2.274061e+03 1.740541e+03
         vertex 3.210071e+03 2.274061e+03 9.445916e+03
         vertex 3.210071e+03 2.509934e+03 1.740541e+03
      endloop
   endfacet
   facet normal -1.000000e+00 0.000000e+00 0.000000e+00
      outer loop
         vertex 3.210071e+03 2.509934e+03 1.740541e+03
         vertex 3.210071e+03 2.274061e+03 9.445916e+03
         vertex 3.210071e+03 3.621573e+03 9.445916e+03
      endloop
   endfacet
   facet normal -1.000000e+00 0.000000e+00 0.000000e+00
      outer loop
         vertex 3.210071e+03 2.509934e+03 1.740541e+03
         vertex 3.210071e+03 3.621573e+03 9.445916e+03
         vertex 3.210071e+03 3.621573e+03 8.344765e+02
      endloop
   endfacet
   facet normal -0.000000e+00 -0.000000e+00 -1.000000e+00
      outer loop
         vertex 3.210071e+03 3.621573e+03 9.445916e+03
         vertex 3.210071e+03 2.274061e+03 9.445916e+03
         vertex 1.776357e-12 3.621573e+03 9.445916e+03
      endloop
   endfacet
   facet normal 0.000000e+00 -0.000000e+00 -1.000000e+00
      outer loop
         vertex 1.776357e-12 3.621573e+03 9.445916e+03
         vertex 3.210071e+03 2.274061e+03 9.445916e+03
         vertex -1.650227e-13 2.274061e+03 9.445916e+03
      endloop
   endfacet
   facet normal 0.000000e+00 -1.000000e+00 0.000000e+00
      outer loop
         vertex 3.210071e+03 3.621573e+03 8.344765e+02
         vertex 3.210071e+03 3.621573e+03 9.445916e+03
         vertex -8.320943e-14 3.621573e+03 8.344765e+02
      endloop
   endfacet
   facet normal 0.000000e+00 -1.000000e+00 0.000000e+00
      outer loop
         vertex -8.320943e-14 3.621573e+03 8.344765e+02
         vertex 3.210071e+03 3.621573e+03 9.445916e+03
         vertex 1.776357e-12 3.621573e+03 9.445916e+03
      endloop
   endfacet
endsolid