solid 399
   facet normal -1.000000e+00 1.224647e-16 -1.224647e-16
      outer loop
         vertex 0.000000e+00 0.000000e+00 0.000000e+00
         vertex -1.224647e-12 0.000000e+00 1.000000e+04
         vertex 1.982366e-13 1.618725e+03 0.000000e+00
      endloop
   endfacet
   facet normal -1.000000e+00 1.224647e-16 -1.224647e-16
      outer loop
         vertex 1.982366e-13 1.618725e+03 0.000000e+00
         vertex -1.224647e-12 0.000000e+00 1.000000e+04
         vertex -1.026410e-12 1.618725e+03 1.000000e+04
      endloop
   endfacet
   facet normal 1.000000e+00 0.000000e+00 -0.000000e+00
      outer loop
         vertex 1.000000e+04 1.000000e+04 0.000000e+00
         vertex 1.000000e+04 1.000000e+04 1.601900e+03
         vertex 1.000000e+04 6.322561e+03 1.601900e+03
      endloop
   endfacet
   facet normal 1.000000e+00 0.000000e+00 0.000000e+00
      outer loop
         vertex 1.000000e+04 6.322561e+03 1.000000e+04
         vertex 1.000000e+04 0.000000e+00 1.000000e+04
         vertex 1.000000e+04 6.322561e+03 1.601900e+03
      endloop
   endfacet
   facet normal 1.000000e+00 0.000000e+00 0.000000e+00
      outer loop
         vertex 1.000000e+04 6.322561e+03 1.601900e+03
         vertex 1.000000e+04 0.000000e+00 1.000000e+04
         vertex 1.000000e+04 0.000000e+00 0.000000e+00
      endloop
   endfacet
   facet normal 1.000000e+00 0.000000e+00 0.000000e+00
      outer loop
         vertex 1.000000e+04 6.322561e+03 1.601900e+03
         vertex 1.000000e+04 0.000000e+00 0.000000e+00
         vertex 1.000000e+04 1.000000e+04 0.000000e+00
      endloop
   endfacet
   facet normal -1.224647e-16 -1.000000e+00 1.224647e-16
      outer loop
         vertex 0.000000e+00 1.224647e-12 0.000000e+00
         vertex 1.000000e+04 3.749399e-29 0.000000e+00
         vertex 0.000000e+00 2.449294e-12 1.000000e+04
      endloop
   endfacet
   facet normal -1.224647e-16 -1.000000e+00 1.224647e-16
      outer loop
         vertex 0.000000e+00 2.449294e-12 1.000000e+04
         vertex 1.000000e+04 3.749399e-29 0.000000e+00
         vertex 1.000000e+04 1.224647e-12 1.000000e+04
      endloop
   endfacet
   facet normal -1.000000e+00 1.224647e-16 -1.224647e-16
      outer loop
         vertex -1.499760e-28 1.000000e+04 1.000000e+04
         vertex 1.224647e-12 1.000000e+04 0.000000e+00
         vertex -7.522259e-13 3.857610e+03 1.000000e+04
      endloop
   endfacet
   facet normal -1.000000e+00 1.224647e-16 -1.224647e-16
      outer loop
         vertex -7.522259e-13 3.857610e+03 1.000000e+04
         vertex 1.224647e-12 1.000000e+04 0.000000e+00
         vertex 4.724209e-13 3.857610e+03 0.000000e+00
      endloop
   endfacet
   facet normal 0.000000e+00 1.000000e+00 0.000000e+00
      outer loop
         vertex 1.000000e+04 1.000000e+04 1.601900e+03
         vertex 1.000000e+04 1.000000e+04 0.000000e+00
         vertex 6.322561e+03 1.000000e+04 1.601900e+03
      endloop
   endfacet
   facet normal 0.000000e+00 1.000000e+00 0.000000e+00
      outer loop
         vertex 6.322561e+03 1.000000e+04 1.601900e+03
         vertex 1.000000e+04 1.000000e+04 0.000000e+00
         vertex 1.776357e-12 1.000000e+04 0.000000e+00
      endloop
   endfacet
   facet normal 0.000000e+00 1.000000e+00 -0.000000e+00
      outer loop
         vertex 6.322561e+03 1.000000e+04 1.601900e+03
         vertex 1.776357e-12 1.000000e+04 0.000000e+00
         vertex 6.322561e+03 1.000000e+04 1.000000e+04
      endloop
   endfacet
   facet normal 0.000000e+00 1.000000e+00 0.000000e+00
      outer loop
         vertex 6.322561e+03 1.000000e+04 1.000000e+04
         vertex 1.776357e-12 1.000000e+04 0.000000e+00
         vertex 0.000000e+00 1.000000e+04 1.000000e+04
      endloop
   endfacet
   facet normal 0.000000e+00 0.000000e+00 -1.000000e+00
      outer loop
         vertex 5.517100e-13 0.000000e+00 0.000000e+00
         vertex 7.499467e-13 1.618725e+03 0.000000e+00
         vertex 2.439570e+03 1.618725e+03 0.000000e+00
      endloop
   endfacet
   facet normal 0.000000e+00 0.000000e+00 -1.000000e+00
      outer loop
         vertex -7.522259e-13 3.857610e+03 0.000000e+00
         vertex 1.776357e-12 1.000000e+04 0.000000e+00
         vertex 2.439570e+03 3.857610e+03 0.000000e+00
      endloop
   endfacet
   facet normal 0.000000e+00 0.000000e+00 -1.000000e+00
      outer loop
         vertex 2.439570e+03 3.857610e+03 0.000000e+00
         vertex 1.776357e-12 1.000000e+04 0.000000e+00
         vertex 1.000000e+04 1.000000e+04 0.000000e+00
      endloop
   endfacet
   facet normal 0.000000e+00 0.000000e+00 -1.000000e+00
      outer loop
         vertex 2.439570e+03 3.857610e+03 0.000000e+00
         vertex 1.000000e+04 1.000000e+04 0.000000e+00
         vertex 2.439570e+03 1.618725e+03 0.000000e+00
      endloop
   endfacet
   facet normal 0.000000e+00 0.000000e+00 -1.000000e+00
      outer loop
         vertex 2.439570e+03 1.618725e+03 0.000000e+00
         vertex 1.000000e+04 1.000000e+04 0.000000e+00
         vertex 1.000000e+04 0.000000e+00 0.000000e+00
      endloop
   endfacet
   facet normal 0.000000e+00 -0.000000e+00 -1.000000e+00
      outer loop
         vertex 2.439570e+03 1.618725e+03 0.000000e+00
         vertex 1.000000e+04 0.000000e+00 0.000000e+00
         vertex 5.517100e-13 0.000000e+00 0.000000e+00
      endloop
   endfacet
   facet normal -1.224647e-16 1.224646e-16 1.000000e+00
      outer loop
         vertex 6.354022e+03 9.519998e+03 1.000000e+04
         vertex 6.322561e+03 1.000000e+04 1.000000e+04
         vertex -1.499760e-28 1.000000e+04 1.000000e+04
      endloop
   endfacet
   facet normal -1.224647e-16 1.224647e-16 1.000000e+00
      outer loop
         vertex 7.499467e-13 1.618725e+03 1.000000e+04
         vertex 5.517100e-13 0.000000e+00 1.000000e+04
         vertex 2.439570e+03 1.618725e+03 1.000000e+04
      endloop
   endfacet
   facet normal -1.224647e-16 1.224647e-16 1.000000e+00
      outer loop
         vertex 2.439570e+03 1.618725e+03 1.000000e+04
         vertex 5.517100e-13 0.000000e+00 1.000000e+04
         vertex 1.000000e+04 0.000000e+00 1.000000e+04
      endloop
   endfacet
   facet normal -1.224648e-16 1.224648e-16 1.000000e+00
      outer loop
         vertex 8.161281e+03 6.815245e+03 1.000000e+04
         vertex 7.761317e+03 7.082491e+03 1.000000e+04
         vertex 2.439570e+03 1.618725e+03 1.000000e+04
      endloop
   endfacet
   facet normal -1.224646e-16 1.224646e-16 1.000000e+00
      outer loop
         vertex 2.439570e+03 1.618725e+03 1.000000e+04
         vertex 7.761317e+03 7.082491e+03 1.000000e+04
         vertex 7.399658e+03 7.399658e+03 1.000000e+04
      endloop
   endfacet
   facet normal -1.224647e-16 1.224647e-16 1.000000e+00
      outer loop
         vertex 2.439570e+03 1.618725e+03 1.000000e+04
         vertex 7.399658e+03 7.399658e+03 1.000000e+04
         vertex 2.439570e+03 3.857610e+03 1.000000e+04
      endloop
   endfacet
   facet normal -1.224646e-16 1.224646e-16 1.000000e+00
      outer loop
         vertex 7.399658e+03 7.399658e+03 1.000000e+04
         vertex 7.082491e+03 7.761317e+03 1.000000e+04
         vertex 2.439570e+03 3.857610e+03 1.000000e+04
      endloop
   endfacet
   facet normal -1.224648e-16 1.224648e-16 1.000000e+00
      outer loop
         vertex 2.439570e+03 3.857610e+03 1.000000e+04
         vertex 7.082491e+03 7.761317e+03 1.000000e+04
         vertex 6.815245e+03 8.161281e+03 1.000000e+04
      endloop
   endfacet
   facet normal -1.224647e-16 1.224647e-16 1.000000e+00
      outer loop
         vertex 2.439570e+03 3.857610e+03 1.000000e+04
         vertex 6.815245e+03 8.161281e+03 1.000000e+04
         vertex -7.522259e-13 3.857610e+03 1.000000e+04
      endloop
   endfacet
   facet normal -1.224647e-16 1.224647e-16 1.000000e+00
      outer loop
         vertex -7.522259e-13 3.857610e+03 1.000000e+04
         vertex 6.815245e+03 8.161281e+03 1.000000e+04
         vertex 6.602489e+03 8.592705e+03 1.000000e+04
      endloop
   endfacet
   facet normal -1.224647e-16 1.224647e-16 1.000000e+00
      outer loop
         vertex -7.522259e-13 3.857610e+03 1.000000e+04
         vertex 6.602489e+03 8.592705e+03 1.000000e+04
         vertex -1.499760e-28 1.000000e+04 1.000000e+04
      endloop
   endfacet
   facet normal -1.224647e-16 1.224645e-16 1.000000e+00
      outer loop
         vertex -1.499760e-28 1.000000e+04 1.000000e+04
         vertex 6.602489e+03 8.592705e+03 1.000000e+04
         vertex 6.447867e+03 9.048209e+03 1.000000e+04
      endloop
   endfacet
   facet normal -1.224647e-16 1.224648e-16 1.000000e+00
      outer loop
         vertex -1.499760e-28 1.000000e+04 1.000000e+04
         vertex 6.447867e+03 9.048209e+03 1.000000e+04
         vertex 6.354022e+03 9.519998e+03 1.000000e+04
      endloop
   endfacet
   facet normal -1.224646e-16 1.224647e-16 1.000000e+00
      outer loop
         vertex 1.000000e+04 6.322561e+03 1.000000e+04
         vertex 9.519998e+03 6.354022e+03 1.000000e+04
         vertex 1.000000e+04 0.000000e+00 1.000000e+04
      endloop
   endfacet
   facet normal -1.224648e-16 1.224647e-16 1.000000e+00
      outer loop
         vertex 1.000000e+04 0.000000e+00 1.000000e+04
         vertex 9.519998e+03 6.354022e+03 1.000000e+04
         vertex 9.048209e+03 6.447867e+03 1.000000e+04
      endloop
   endfacet
   facet normal -1.224647e-16 1.224647e-16 1.000000e+00
      outer loop
         vertex 1.000000e+04 0.000000e+00 1.000000e+04
         vertex 9.048209e+03 6.447867e+03 1.000000e+04
         vertex 2.439570e+03 1.618725e+03 1.000000e+04
      endloop
   endfacet
   facet normal -1.224646e-16 1.224646e-16 1.000000e+00
      outer loop
         vertex 2.439570e+03 1.618725e+03 1.000000e+04
         vertex 9.048209e+03 6.447867e+03 1.000000e+04
         vertex 8.592705e+03 6.602489e+03 1.000000e+04
      endloop
   endfacet
   facet normal -1.224647e-16 1.224647e-16 1.000000e+00
      outer loop
         vertex 2.439570e+03 1.618725e+03 1.000000e+04
         vertex 8.592705e+03 6.602489e+03 1.000000e+04
         vertex 8.161281e+03 6.815245e+03 1.000000e+04
      endloop
   endfacet
   facet normal 9.978590e-01 6.540260e-02 -0.000000e+00
      outer loop
         vertex 6.322561e+03 1.000000e+04 1.601900e+03
         vertex 6.322561e+03 1.000000e+04 1.000000e+04
         vertex 6.354022e+03 9.519998e+03 1.601900e+03
      endloop
   endfacet
   facet normal 9.978590e-01 6.540260e-02 -0.000000e+00
      outer loop
         vertex 6.354022e+03 9.519998e+03 1.601900e+03
         vertex 6.322561e+03 1.000000e+04 1.000000e+04
         vertex 6.354022e+03 9.519998e+03 1.000000e+04
      endloop
   endfacet
   facet normal 9.807851e-01 1.950910e-01 -0.000000e+00
      outer loop
         vertex 6.354022e+03 9.519998e+03 1.601900e+03
         vertex 6.354022e+03 9.519998e+03 1.000000e+04
         vertex 6.447867e+03 9.048209e+03 1.601900e+03
      endloop
   endfacet
   facet normal 9.807851e-01 1.950910e-01 -0.000000e+00
      outer loop
         vertex 6.447867e+03 9.048209e+03 1.601900e+03
         vertex 6.354022e+03 9.519998e+03 1.000000e+04
         vertex 6.447867e+03 9.048209e+03 1.000000e+04
      endloop
   endfacet
   facet normal 9.469304e-01 3.214388e-01 -0.000000e+00
      outer loop
         vertex 6.447867e+03 9.048209e+03 1.601900e+03
         vertex 6.447867e+03 9.048209e+03 1.000000e+04
         vertex 6.602489e+03 8.592705e+03 1.601900e+03
      endloop
   endfacet
   facet normal 9.469304e-01 3.214388e-01 -0.000000e+00
      outer loop
         vertex 6.602489e+03 8.592705e+03 1.601900e+03
         vertex 6.447867e+03 9.048209e+03 1.000000e+04
         vertex 6.602489e+03 8.592705e+03 1.000000e+04
      endloop
   endfacet
   facet normal 8.968724e-01 4.422893e-01 -0.000000e+00
      outer loop
         vertex 6.602489e+03 8.592705e+03 1.601900e+03
         vertex 6.602489e+03 8.592705e+03 1.000000e+04
         vertex 6.815245e+03 8.161281e+03 1.601900e+03
      endloop
   endfacet
   facet normal 8.968724e-01 4.422893e-01 -0.000000e+00
      outer loop
         vertex 6.815245e+03 8.161281e+03 1.601900e+03
         vertex 6.602489e+03 8.592705e+03 1.000000e+04
         vertex 6.815245e+03 8.161281e+03 1.000000e+04
      endloop
   endfacet
   facet normal 8.314699e-01 5.555699e-01 -0.000000e+00
      outer loop
         vertex 6.815245e+03 8.161281e+03 1.601900e+03
         vertex 6.815245e+03 8.161281e+03 1.000000e+04
         vertex 7.082491e+03 7.761317e+03 1.601900e+03
      endloop
   endfacet
   facet normal 8.314699e-01 5.555699e-01 -0.000000e+00
      outer loop
         vertex 7.082491e+03 7.761317e+03 1.601900e+03
         vertex 6.815245e+03 8.161281e+03 1.000000e+04
         vertex 7.082491e+03 7.761317e+03 1.000000e+04
      endloop
   endfacet
   facet normal 7.518395e-01 6.593462e-01 -0.000000e+00
      outer loop
         vertex 7.082491e+03 7.761317e+03 1.601900e+03
         vertex 7.082491e+03 7.761317e+03 1.000000e+04
         vertex 7.399658e+03 7.399658e+03 1.601900e+03
      endloop
   endfacet
   facet normal 7.518395e-01 6.593462e-01 -0.000000e+00
      outer loop
         vertex 7.399658e+03 7.399658e+03 1.601900e+03
         vertex 7.082491e+03 7.761317e+03 1.000000e+04
         vertex 7.399658e+03 7.399658e+03 1.000000e+04
      endloop
   endfacet
   facet normal 6.593462e-01 7.518395e-01 -0.000000e+00
      outer loop
         vertex 7.399658e+03 7.399658e+03 1.601900e+03
         vertex 7.399658e+03 7.399658e+03 1.000000e+04
         vertex 7.761317e+03 7.082491e+03 1.601900e+03
      endloop
   endfacet
   facet normal 6.593462e-01 7.518395e-01 -0.000000e+00
      outer loop
         vertex 7.761317e+03 7.082491e+03 1.601900e+03
         vertex 7.399658e+03 7.399658e+03 1.000000e+04
         vertex 7.761317e+03 7.082491e+03 1.000000e+04
      endloop
   endfacet
   facet normal 5.555699e-01 8.314699e-01 -0.000000e+00
      outer loop
         vertex 7.761317e+03 7.082491e+03 1.601900e+03
         vertex 7.761317e+03 7.082491e+03 1.000000e+04
         vertex 8.161281e+03 6.815245e+03 1.601900e+03
      endloop
   endfacet
   facet normal 5.555699e-01 8.314699e-01 -0.000000e+00
      outer loop
         vertex 8.161281e+03 6.815245e+03 1.601900e+03
         vertex 7.761317e+03 7.082491e+03 1.000000e+04
         vertex 8.161281e+03 6.815245e+03 1.000000e+04
      endloop
   endfacet
   facet normal 4.422893e-01 8.968724e-01 -0.000000e+00
      outer loop
         vertex 8.161281e+03 6.815245e+03 1.601900e+03
         vertex 8.161281e+03 6.815245e+03 1.000000e+04
         vertex 8.592705e+03 6.602489e+03 1.601900e+03
      endloop
   endfacet
   facet normal 4.422893e-01 8.968724e-01 -0.000000e+00
      outer loop
         vertex 8.592705e+03 6.602489e+03 1.601900e+03
         vertex 8.161281e+03 6.815245e+03 1.000000e+04
         vertex 8.592705e+03 6.602489e+03 1.000000e+04
      endloop
   endfacet
   facet normal 3.214388e-01 9.469304e-01 -0.000000e+00
      outer loop
         vertex 8.592705e+03 6.602489e+03 1.601900e+03
         vertex 8.592705e+03 6.602489e+03 1.000000e+04
         vertex 9.048209e+03 6.447867e+03 1.601900e+03
      endloop
   endfacet
   facet normal 3.214388e-01 9.469304e-01 -0.000000e+00
      outer loop
         vertex 9.048209e+03 6.447867e+03 1.601900e+03
         vertex 8.592705e+03 6.602489e+03 1.000000e+04
         vertex 9.048209e+03 6.447867e+03 1.000000e+04
      endloop
   endfacet
   facet normal 1.950910e-01 9.807851e-01 -0.000000e+00
      outer loop
         vertex 9.048209e+03 6.447867e+03 1.601900e+03
         vertex 9.048209e+03 6.447867e+03 1.000000e+04
         vertex 9.519998e+03 6.354022e+03 1.601900e+03
      endloop
   endfacet
   facet normal 1.950910e-01 9.807851e-01 -0.000000e+00
      outer loop
         vertex 9.519998e+03 6.354022e+03 1.601900e+03
         vertex 9.048209e+03 6.447867e+03 1.000000e+04
         vertex 9.519998e+03 6.354022e+03 1.000000e+04
      endloop
   endfacet
   facet normal 6.540260e-02 9.978590e-01 -0.000000e+00
      outer loop
         vertex 9.519998e+03 6.354022e+03 1.601900e+03
         vertex 9.519998e+03 6.354022e+03 1.000000e+04
         vertex 1.000000e+04 6.322561e+03 1.601900e+03
      endloop
   endfacet
   facet normal 6.540260e-02 9.978590e-01 -0.000000e+00
      outer loop
         vertex 1.000000e+04 6.322561e+03 1.601900e+03
         vertex 9.519998e+03 6.354022e+03 1.000000e+04
         vertex 1.000000e+04 6.322561e+03 1.000000e+04
      endloop
   endfacet
   facet normal 0.000000e+00 0.000000e+00 1.000000e+00
      outer loop
         vertex 1.000000e+04 1.000000e+04 1.601900e+03
         vertex 6.322561e+03 1.000000e+04 1.601900e+03
         vertex 6.354022e+03 9.519998e+03 1.601900e+03
      endloop
   endfacet
   facet normal -0.000000e+00 0.000000e+00 1.000000e+00
      outer loop
         vertex 6.815245e+03 8.161281e+03 1.601900e+03
         vertex 7.082491e+03 7.761317e+03 1.601900e+03
         vertex 1.000000e+04 1.000000e+04 1.601900e+03
      endloop
   endfacet
   facet normal 0.000000e+00 0.000000e+00 1.000000e+00
      outer loop
         vertex 1.000000e+04 1.000000e+04 1.601900e+03
         vertex 7.082491e+03 7.761317e+03 1.601900e+03
         vertex 7.399658e+03 7.399658e+03 1.601900e+03
      endloop
   endfacet
   facet normal -0.000000e+00 0.000000e+00 1.000000e+00
      outer loop
         vertex 7.399658e+03 7.399658e+03 1.601900e+03
         vertex 7.761317e+03 7.082491e+03 1.601900e+03
         vertex 1.000000e+04 1.000000e+04 1.601900e+03
      endloop
   endfacet
   facet normal 0.000000e+00 0.000000e+00 1.000000e+00
      outer loop
         vertex 1.000000e+04 1.000000e+04 1.601900e+03
         vertex 7.761317e+03 7.082491e+03 1.601900e+03
         vertex 8.161281e+03 6.815245e+03 1.601900e+03
      endloop
   endfacet
   facet normal 0.000000e+00 0.000000e+00 1.000000e+00
      outer loop
         vertex 1.000000e+04 1.000000e+04 1.601900e+03
         vertex 8.161281e+03 6.815245e+03 1.601900e+03
         vertex 8.592705e+03 6.602489e+03 1.601900e+03
      endloop
   endfacet
   facet normal -0.000000e+00 0.000000e+00 1.000000e+00
      outer loop
         vertex 8.592705e+03 6.602489e+03 1.601900e+03
         vertex 9.048209e+03 6.447867e+03 1.601900e+03
         vertex 1.000000e+04 1.000000e+04 1.601900e+03
      endloop
   endfacet
   facet normal 0.000000e+00 0.000000e+00 1.000000e+00
      outer loop
         vertex 1.000000e+04 1.000000e+04 1.601900e+03
         vertex 9.048209e+03 6.447867e+03 1.601900e+03
         vertex 9.519998e+03 6.354022e+03 1.601900e+03
      endloop
   endfacet
   facet normal 0.000000e+00 0.000000e+00 1.000000e+00
      outer loop
         vertex 1.000000e+04 1.000000e+04 1.601900e+03
         vertex 9.519998e+03 6.354022e+03 1.601900e+03
         vertex 1.000000e+04 6.322561e+03 1.601900e+03
      endloop
   endfacet
   facet normal -0.000000e+00 0.000000e+00 1.000000e+00
      outer loop
         vertex 6.354022e+03 9.519998e+03 1.601900e+03
         vertex 6.447867e+03 9.048209e+03 1.601900e+03
         vertex 1.000000e+04 1.000000e+04 1.601900e+03
      endloop
   endfacet
   facet normal 0.000000e+00 0.000000e+00 1.000000e+00
      outer loop
         vertex 1.000000e+04 1.000000e+04 1.601900e+03
         vertex 6.447867e+03 9.048209e+03 1.601900e+03
         vertex 6.602489e+03 8.592705e+03 1.601900e+03
      endloop
   endfacet
   facet normal 0.000000e+00 0.000000e+00 1.000000e+00
      outer loop
         vertex 1.000000e+04 1.000000e+04 1.601900e+03
         vertex 6.602489e+03 8.592705e+03 1.601900e+03
         vertex 6.815245e+03 8.161281e+03 1.601900e+03
      endloop
   endfacet
   facet normal -0.000000e+00 1.000000e+00 0.000000e+00
      outer loop
         vertex 7.114417e-13 1.618725e+03 1.000000e+04
         vertex 2.439570e+03 1.618725e+03 1.000000e+04
         vertex 7.114417e-13 1.618725e+03 0.000000e+00
      endloop
   endfacet
   facet normal 0.000000e+00 1.000000e+00 0.000000e+00
      outer loop
         vertex 7.114417e-13 1.618725e+03 0.000000e+00
         vertex 2.439570e+03 1.618725e+03 1.000000e+04
         vertex 2.439570e+03 1.618725e+03 0.000000e+00
      endloop
   endfacet
   facet normal -1.000000e+00 0.000000e+00 0.000000e+00
      outer loop
         vertex 2.439570e+03 1.618725e+03 1.000000e+04
         vertex 2.439570e+03 3.857610e+03 1.000000e+04
         vertex 2.439570e+03 1.618725e+03 0.000000e+00
      endloop
   endfacet
   facet normal -1.000000e+00 0.000000e+00 0.000000e+00
      outer loop
         vertex 2.439570e+03 1.618725e+03 0.000000e+00
         vertex 2.439570e+03 3.857610e+03 1.000000e+04
         vertex 2.439570e+03 3.857610e+03 0.000000e+00
      endloop
   endfacet
   facet normal -0.000000e+00 -1.000000e+00 -0.000000e+00
      outer loop
         vertex 2.439570e+03 3.857610e+03 1.000000e+04
         vertex 8.485339e-13 3.857610e+03 1.000000e+04
         vertex 2.439570e+03 3.857610e+03 0.000000e+00
      endloop
   endfacet
   facet normal 0.000000e+00 -1.000000e+00 0.000000e+00
      outer loop
         vertex 2.439570e+03 3.857610e+03 0.000000e+00
         vertex 8.485339e-13 3.857610e+03 1.000000e+04
         vertex 8.485339e-13 3.857610e+03 0.000000e+00
      endloop
   endfacet
endsolid