solid 308
   facet normal 0.000000e+00 1.000000e+00 -0.000000e+00
      outer loop
         vertex 1.000000e+04 1.000000e+04 0.000000e+00
         vertex 0.000000e+00 1.000000e+04 0.000000e+00
         vertex 1.000000e+04 1.000000e+04 5.070963e+02
      endloop
   endfacet
   facet normal 0.000000e+00 1.000000e+00 0.000000e+00
      outer loop
         vertex 1.000000e+04 1.000000e+04 5.070963e+02
         vertex 0.000000e+00 1.000000e+04 0.000000e+00
         vertex 0.000000e+00 1.000000e+04 5.070963e+02
      endloop
   endfacet
   facet normal 0.000000e+00 0.000000e+00 -1.000000e+00
      outer loop
         vertex 2.356856e+03 5.113968e-13 0.000000e+00
         vertex 0.000000e+00 5.113968e-13 0.000000e+00
         vertex 2.356856e+03 6.342161e+03 0.000000e+00
      endloop
   endfacet
   facet normal -0.000000e+00 0.000000e+00 -1.000000e+00
      outer loop
         vertex 2.356856e+03 6.342161e+03 0.000000e+00
         vertex 0.000000e+00 5.113968e-13 0.000000e+00
         vertex 0.000000e+00 1.000000e+04 0.000000e+00
      endloop
   endfacet
   facet normal 0.000000e+00 0.000000e+00 -1.000000e+00
      outer loop
         vertex 2.356856e+03 6.342161e+03 0.000000e+00
         vertex 0.000000e+00 1.000000e+04 0.000000e+00
         vertex 8.351744e+03 6.342161e+03 0.000000e+00
      endloop
   endfacet
   facet normal 0.000000e+00 0.000000e+00 -1.000000e+00
      outer loop
         vertex 8.351744e+03 6.342161e+03 0.000000e+00
         vertex 0.000000e+00 1.000000e+04 0.000000e+00
         vertex 1.000000e+04 1.000000e+04 0.000000e+00
      endloop
   endfacet
   facet normal 0.000000e+00 0.000000e+00 -1.000000e+00
      outer loop
         vertex 8.351744e+03 6.342161e+03 0.000000e+00
         vertex 1.000000e+04 1.000000e+04 0.000000e+00
         vertex 8.351744e+03 5.113968e-13 0.000000e+00
      endloop
   endfacet
   facet normal 0.000000e+00 0.000000e+00 -1.000000e+00
      outer loop
         vertex 8.351744e+03 5.113968e-13 0.000000e+00
         vertex 1.000000e+04 1.000000e+04 0.000000e+00
         vertex 1.000000e+04 5.113968e-13 0.000000e+00
      endloop
   endfacet
   facet normal -6.123234e-17 -1.000000e+00 6.123235e-17
      outer loop
         vertex 0.000000e+00 5.113968e-13 0.000000e+00
         vertex 2.356856e+03 3.670811e-13 0.000000e+00
         vertex 2.356856e+03 4.688803e-13 1.662507e+03
      endloop
   endfacet
   facet normal -6.123233e-17 -1.000000e+00 6.123236e-17
      outer loop
         vertex 8.351744e+03 0.000000e+00 0.000000e+00
         vertex 1.000000e+04 -1.009266e-13 0.000000e+00
         vertex 8.351744e+03 1.017992e-13 1.662507e+03
      endloop
   endfacet
   facet normal -6.123234e-17 -1.000000e+00 6.123234e-17
      outer loop
         vertex 8.351744e+03 1.017992e-13 1.662507e+03
         vertex 1.000000e+04 -1.009266e-13 0.000000e+00
         vertex 1.000000e+04 5.113968e-13 1.000000e+04
      endloop
   endfacet
   facet normal -6.123234e-17 -1.000000e+00 6.123234e-17
      outer loop
         vertex 8.351744e+03 1.017992e-13 1.662507e+03
         vertex 1.000000e+04 5.113968e-13 1.000000e+04
         vertex 2.356856e+03 4.688803e-13 1.662507e+03
      endloop
   endfacet
   facet normal -6.123234e-17 -1.000000e+00 6.123234e-17
      outer loop
         vertex 2.356856e+03 4.688803e-13 1.662507e+03
         vertex 1.000000e+04 5.113968e-13 1.000000e+04
         vertex 0.000000e+00 1.123720e-12 1.000000e+04
      endloop
   endfacet
   facet normal -6.123233e-17 -1.000000e+00 6.123234e-17
      outer loop
         vertex 2.356856e+03 4.688803e-13 1.662507e+03
         vertex 0.000000e+00 1.123720e-12 1.000000e+04
         vertex 0.000000e+00 5.113968e-13 0.000000e+00
      endloop
   endfacet
   facet normal 6.123234e-17 6.123234e-17 1.000000e+00
      outer loop
         vertex 0.000000e+00 1.000000e+04 1.000000e+04
         vertex 0.000000e+00 5.113968e-13 1.000000e+04
         vertex 1.000000e+04 1.000000e+04 1.000000e+04
      endloop
   endfacet
   facet normal 6.123234e-17 6.123234e-17 1.000000e+00
      outer loop
         vertex 1.000000e+04 1.000000e+04 1.000000e+04
         vertex 0.000000e+00 5.113968e-13 1.000000e+04
         vertex 1.000000e+04 5.113968e-13 1.000000e+04
      endloop
   endfacet
   facet normal -0.000000e+00 1.000000e+00 0.000000e+00
      outer loop
         vertex 0.000000e+00 1.000000e+04 1.000000e+04
         vertex 1.000000e+04 1.000000e+04 1.000000e+04
         vertex 0.000000e+00 1.000000e+04 6.722020e+03
      endloop
   endfacet
   facet normal 0.000000e+00 1.000000e+00 0.000000e+00
      outer loop
         vertex 0.000000e+00 1.000000e+04 6.722020e+03
         vertex 1.000000e+04 1.000000e+04 1.000000e+04
         vertex 1.000000e+04 1.000000e+04 6.722020e+03
      endloop
   endfacet
   facet normal -1.000000e+00 6.123234e-17 6.123238e-17
      outer loop
         vertex 3.105071e-14 1.000000e+04 5.070963e+02
         vertex 0.000000e+00 1.000000e+04 0.000000e+00
         vertex -4.505582e-13 2.134729e+03 5.070963e+02
      endloop
   endfacet
   facet normal -1.000000e+00 6.123234e-17 6.123238e-17
      outer loop
         vertex -4.505582e-13 2.134729e+03 5.070963e+02
         vertex 0.000000e+00 1.000000e+04 0.000000e+00
         vertex -6.123234e-13 5.113968e-13 0.000000e+00
      endloop
   endfacet
   facet normal -1.000000e+00 6.123235e-17 6.123234e-17
      outer loop
         vertex -4.505582e-13 2.134729e+03 5.070963e+02
         vertex -6.123234e-13 5.113968e-13 0.000000e+00
         vertex -7.000388e-14 2.134729e+03 6.722020e+03
      endloop
   endfacet
   facet normal -1.000000e+00 6.123234e-17 6.123234e-17
      outer loop
         vertex -7.000388e-14 2.134729e+03 6.722020e+03
         vertex -6.123234e-13 5.113968e-13 0.000000e+00
         vertex 0.000000e+00 5.113968e-13 1.000000e+04
      endloop
   endfacet
   facet normal -1.000000e+00 6.123234e-17 6.123234e-17
      outer loop
         vertex -7.000388e-14 2.134729e+03 6.722020e+03
         vertex 0.000000e+00 5.113968e-13 1.000000e+04
         vertex 4.116050e-13 1.000000e+04 6.722020e+03
      endloop
   endfacet
   facet normal -1.000000e+00 6.123234e-17 6.123234e-17
      outer loop
         vertex 4.116050e-13 1.000000e+04 6.722020e+03
         vertex 0.000000e+00 5.113968e-13 1.000000e+04
         vertex 6.123234e-13 1.000000e+04 1.000000e+04
      endloop
   endfacet
   facet normal 1.000000e+00 0.000000e+00 -0.000000e+00
      outer loop
         vertex 1.000000e+04 1.000000e+04 0.000000e+00
         vertex 1.000000e+04 1.000000e+04 5.070963e+02
         vertex 1.000000e+04 2.134729e+03 5.070963e+02
      endloop
   endfacet
   facet normal 1.000000e+00 0.000000e+00 -0.000000e+00
      outer loop
         vertex 1.000000e+04 1.000000e+04 6.722020e+03
         vertex 1.000000e+04 1.000000e+04 1.000000e+04
         vertex 1.000000e+04 2.134729e+03 6.722020e+03
      endloop
   endfacet
   facet normal 1.000000e+00 0.000000e+00 -0.000000e+00
      outer loop
         vertex 1.000000e+04 2.134729e+03 6.722020e+03
         vertex 1.000000e+04 1.000000e+04 1.000000e+04
         vertex 1.000000e+04 5.113968e-13 1.000000e+04
      endloop
   endfacet
   facet normal 1.000000e+00 0.000000e+00 0.000000e+00
      outer loop
         vertex 1.000000e+04 2.134729e+03 6.722020e+03
         vertex 1.000000e+04 5.113968e-13 1.000000e+04
         vertex 1.000000e+04 2.134729e+03 5.070963e+02
      endloop
   endfacet
   facet normal 1.000000e+00 0.000000e+00 0.000000e+00
      outer loop
         vertex 1.000000e+04 2.134729e+03 5.070963e+02
         vertex 1.000000e+04 5.113968e-13 1.000000e+04
         vertex 1.000000e+04 5.113968e-13 0.000000e+00
      endloop
   endfacet
   facet normal 1.000000e+00 0.000000e+00 0.000000e+00
      outer loop
         vertex 1.000000e+04 2.134729e+03 5.070963e+02
         vertex 1.000000e+04 5.113968e-13 0.000000e+00
         vertex 1.000000e+04 1.000000e+04 0.000000e+00
      endloop
   endfacet
   facet normal 0.000000e+00 0.000000e+00 1.000000e+00
      outer loop
         vertex 8.351744e+03 2.134729e+03 5.070963e+02
         vertex 1.000000e+04 2.134729e+03 5.070963e+02
         vertex 8.351744e+03 6.342161e+03 5.070963e+02
      endloop
   endfacet
   facet normal -0.000000e+00 0.000000e+00 1.000000e+00
      outer loop
         vertex 8.351744e+03 6.342161e+03 5.070963e+02
         vertex 1.000000e+04 2.134729e+03 5.070963e+02
         vertex 1.000000e+04 1.000000e+04 5.070963e+02
      endloop
   endfacet
   facet normal 0.000000e+00 -0.000000e+00 1.000000e+00
      outer loop
         vertex 8.351744e+03 6.342161e+03 5.070963e+02
         vertex 1.000000e+04 1.000000e+04 5.070963e+02
         vertex 2.356856e+03 6.342161e+03 5.070963e+02
      endloop
   endfacet
   facet normal 0.000000e+00 -0.000000e+00 1.000000e+00
      outer loop
         vertex 2.356856e+03 6.342161e+03 5.070963e+02
         vertex 1.000000e+04 1.000000e+04 5.070963e+02
         vertex 0.000000e+00 1.000000e+04 5.070963e+02
      endloop
   endfacet
   facet normal 0.000000e+00 0.000000e+00 1.000000e+00
      outer loop
         vertex 2.356856e+03 6.342161e+03 5.070963e+02
         vertex 0.000000e+00 1.000000e+04 5.070963e+02
         vertex 2.356856e+03 2.134729e+03 5.070963e+02
      endloop
   endfacet
   facet normal 0.000000e+00 0.000000e+00 1.000000e+00
      outer loop
         vertex 2.356856e+03 2.134729e+03 5.070963e+02
         vertex 0.000000e+00 1.000000e+04 5.070963e+02
         vertex 0.000000e+00 2.134729e+03 5.070963e+02
      endloop
   endfacet
   facet normal 0.000000e+00 1.000000e+00 -0.000000e+00
      outer loop
         vertex 2.356856e+03 2.134729e+03 5.070963e+02
         vertex 0.000000e+00 2.134729e+03 5.070963e+02
         vertex 2.356856e+03 2.134729e+03 1.662507e+03
      endloop
   endfacet
   facet normal 0.000000e+00 1.000000e+00 0.000000e+00
      outer loop
         vertex 2.356856e+03 2.134729e+03 1.662507e+03
         vertex 0.000000e+00 2.134729e+03 5.070963e+02
         vertex -4.930381e-29 2.134729e+03 6.722020e+03
      endloop
   endfacet
   facet normal 0.000000e+00 1.000000e+00 -0.000000e+00
      outer loop
         vertex 2.356856e+03 2.134729e+03 1.662507e+03
         vertex -4.930381e-29 2.134729e+03 6.722020e+03
         vertex 8.351744e+03 2.134729e+03 1.662507e+03
      endloop
   endfacet
   facet normal 0.000000e+00 1.000000e+00 -0.000000e+00
      outer loop
         vertex 8.351744e+03 2.134729e+03 1.662507e+03
         vertex -4.930381e-29 2.134729e+03 6.722020e+03
         vertex 1.000000e+04 2.134729e+03 6.722020e+03
      endloop
   endfacet
   facet normal -0.000000e+00 1.000000e+00 0.000000e+00
      outer loop
         vertex 8.351744e+03 2.134729e+03 1.662507e+03
         vertex 1.000000e+04 2.134729e+03 6.722020e+03
         vertex 8.351744e+03 2.134729e+03 5.070963e+02
      endloop
   endfacet
   facet normal 0.000000e+00 1.000000e+00 0.000000e+00
      outer loop
         vertex 8.351744e+03 2.134729e+03 5.070963e+02
         vertex 1.000000e+04 2.134729e+03 6.722020e+03
         vertex 1.000000e+04 2.134729e+03 5.070963e+02
      endloop
   endfacet
   facet normal 0.000000e+00 0.000000e+00 -1.000000e+00
      outer loop
         vertex -9.860761e-29 2.134729e+03 6.722020e+03
         vertex 0.000000e+00 1.000000e+04 6.722020e+03
         vertex 1.000000e+04 2.134729e+03 6.722020e+03
      endloop
   endfacet
   facet normal 0.000000e+00 0.000000e+00 -1.000000e+00
      outer loop
         vertex 1.000000e+04 2.134729e+03 6.722020e+03
         vertex 0.000000e+00 1.000000e+04 6.722020e+03
         vertex 1.000000e+04 1.000000e+04 6.722020e+03
      endloop
   endfacet
   facet normal 0.000000e+00 -1.000000e+00 0.000000e+00
      outer loop
         vertex 8.351744e+03 6.342161e+03 0.000000e+00
         vertex 8.351744e+03 6.342161e+03 5.070963e+02
         vertex 2.356856e+03 6.342161e+03 0.000000e+00
      endloop
   endfacet
   facet normal 0.000000e+00 -1.000000e+00 0.000000e+00
      outer loop
         vertex 2.356856e+03 6.342161e+03 0.000000e+00
         vertex 8.351744e+03 6.342161e+03 5.070963e+02
         vertex 2.356856e+03 6.342161e+03 5.070963e+02
      endloop
   endfacet
   facet normal 1.000000e+00 0.000000e+00 -0.000000e+00
      outer loop
         vertex 2.356856e+03 6.342161e+03 0.000000e+00
         vertex 2.356856e+03 6.342161e+03 5.070963e+02
         vertex 2.356856e+03 2.134729e+03 5.070963e+02
      endloop
   endfacet
   facet normal 1.000000e+00 0.000000e+00 0.000000e+00
      outer loop
         vertex 2.356856e+03 2.134729e+03 1.662507e+03
         vertex 2.356856e+03 6.131960e-13 1.662507e+03
         vertex 2.356856e+03 2.134729e+03 5.070963e+02
      endloop
   endfacet
   facet normal 1.000000e+00 0.000000e+00 0.000000e+00
      outer loop
         vertex 2.356856e+03 2.134729e+03 5.070963e+02
         vertex 2.356856e+03 6.131960e-13 1.662507e+03
         vertex 2.356856e+03 5.113968e-13 0.000000e+00
      endloop
   endfacet
   facet normal 1.000000e+00 0.000000e+00 0.000000e+00
      outer loop
         vertex 2.356856e+03 2.134729e+03 5.070963e+02
         vertex 2.356856e+03 5.113968e-13 0.000000e+00
         vertex 2.356856e+03 6.342161e+03 0.000000e+00
      endloop
   endfacet
   facet normal 0.000000e+00 0.000000e+00 -1.000000e+00
      outer loop
         vertex 2.356856e+03 5.113968e-13 1.662507e+03
         vertex 2.356856e+03 2.134729e+03 1.662507e+03
         vertex 8.351744e+03 5.113968e-13 1.662507e+03
      endloop
   endfacet
   facet normal 0.000000e+00 0.000000e+00 -1.000000e+00
      outer loop
         vertex 8.351744e+03 5.113968e-13 1.662507e+03
         vertex 2.356856e+03 2.134729e+03 1.662507e+03
         vertex 8.351744e+03 2.134729e+03 1.662507e+03
      endloop
   endfacet
   facet normal -1.000000e+00 -0.000000e+00 -0.000000e+00
      outer loop
         vertex 8.351744e+03 6.342161e+03 5.070963e+02
         vertex 8.351744e+03 6.342161e+03 0.000000e+00
         vertex 8.351744e+03 2.134729e+03 5.070963e+02
      endloop
   endfacet
   facet normal -1.000000e+00 0.000000e+00 -0.000000e+00
      outer loop
         vertex 8.351744e+03 2.134729e+03 5.070963e+02
         vertex 8.351744e+03 6.342161e+03 0.000000e+00
         vertex 8.351744e+03 -3.767816e-13 0.000000e+00
      endloop
   endfacet
   facet normal -1.000000e+00 -0.000000e+00 0.000000e+00
      outer loop
         vertex 8.351744e+03 2.134729e+03 5.070963e+02
         vertex 8.351744e+03 -3.767816e-13 0.000000e+00
         vertex 8.351744e+03 2.134729e+03 1.662507e+03
      endloop
   endfacet
   facet normal -1.000000e+00 -0.000000e+00 0.000000e+00
      outer loop
         vertex 8.351744e+03 2.134729e+03 1.662507e+03
         vertex 8.351744e+03 -3.767816e-13 0.000000e+00
         vertex 8.351744e+03 6.131960e-13 1.662507e+03
      endloop
   endfacet
endsolid